<?xml version="1.0" encoding="utf-8"?>
<svg xmlns="http://www.w3.org/2000/svg" xmlns:xlink="http://www.w3.org/1999/xlink" width="600" height="400" viewBox="0 0 2400 1600">
<defs>
  <clipPath id="clip280">
    <rect x="0" y="0" width="2400" height="1600"/>
  </clipPath>
</defs>
<path clip-path="url(#clip280)" d="
M0 1600 L2400 1600 L2400 0 L0 0  Z
  " fill="#ffffff" fill-rule="evenodd" fill-opacity="1"/>
<defs>
  <clipPath id="clip281">
    <rect x="480" y="0" width="1681" height="1600"/>
  </clipPath>
</defs>
<defs>
  <clipPath id="clip282">
    <rect x="205" y="47" width="2149" height="1440"/>
  </clipPath>
</defs>
<path clip-path="url(#clip280)" d="
M203.964 1486.45 L2352.76 1486.45 L2352.76 47.2441 L203.964 47.2441  Z
  " fill="#ffffff" fill-rule="evenodd" fill-opacity="1"/>
<defs>
  <clipPath id="clip283">
    <rect x="203" y="47" width="2150" height="1440"/>
  </clipPath>
</defs>
<polyline clip-path="url(#clip283)" style="stroke:#000000; stroke-linecap:butt; stroke-linejoin:round; stroke-width:2; stroke-opacity:0.1; fill:none" points="
  264.778,1486.45 264.778,47.2441 
  "/>
<polyline clip-path="url(#clip283)" style="stroke:#000000; stroke-linecap:butt; stroke-linejoin:round; stroke-width:2; stroke-opacity:0.1; fill:none" points="
  931.429,1486.45 931.429,47.2441 
  "/>
<polyline clip-path="url(#clip283)" style="stroke:#000000; stroke-linecap:butt; stroke-linejoin:round; stroke-width:2; stroke-opacity:0.1; fill:none" points="
  1611.69,1486.45 1611.69,47.2441 
  "/>
<polyline clip-path="url(#clip283)" style="stroke:#000000; stroke-linecap:butt; stroke-linejoin:round; stroke-width:2; stroke-opacity:0.1; fill:none" points="
  2291.94,1486.45 2291.94,47.2441 
  "/>
<polyline clip-path="url(#clip280)" style="stroke:#000000; stroke-linecap:butt; stroke-linejoin:round; stroke-width:4; stroke-opacity:1; fill:none" points="
  203.964,1486.45 2352.76,1486.45 
  "/>
<polyline clip-path="url(#clip280)" style="stroke:#000000; stroke-linecap:butt; stroke-linejoin:round; stroke-width:4; stroke-opacity:1; fill:none" points="
  264.778,1486.45 264.778,1467.55 
  "/>
<polyline clip-path="url(#clip280)" style="stroke:#000000; stroke-linecap:butt; stroke-linejoin:round; stroke-width:4; stroke-opacity:1; fill:none" points="
  931.429,1486.45 931.429,1467.55 
  "/>
<polyline clip-path="url(#clip280)" style="stroke:#000000; stroke-linecap:butt; stroke-linejoin:round; stroke-width:4; stroke-opacity:1; fill:none" points="
  1611.69,1486.45 1611.69,1467.55 
  "/>
<polyline clip-path="url(#clip280)" style="stroke:#000000; stroke-linecap:butt; stroke-linejoin:round; stroke-width:4; stroke-opacity:1; fill:none" points="
  2291.94,1486.45 2291.94,1467.55 
  "/>
<path clip-path="url(#clip280)" d="M249.935 1554.64 L249.935 1553.16 L250.637 1553.16 Q253.19 1553.16 253.987 1552.81 Q254.807 1552.43 254.877 1551.08 L254.877 1525.48 Q254.83 1524.23 254.034 1523.86 Q253.237 1523.46 250.637 1523.46 L249.935 1523.46 L249.935 1522.01 Q252.183 1522.1 256.68 1522.1 Q258.507 1522.1 260.077 1522.06 Q261.669 1522.01 261.927 1522.01 L274.973 1522.01 L276.308 1532.81 L275.067 1532.81 Q274.692 1529.88 274.271 1528.36 Q273.872 1526.81 272.889 1525.57 Q271.905 1524.33 270.265 1523.91 Q268.626 1523.46 265.862 1523.46 L261.763 1523.46 Q260.217 1523.46 259.678 1523.77 Q259.14 1524.07 259.14 1525.33 L259.14 1550.94 Q259.14 1552.41 260.123 1552.79 Q261.107 1553.16 264.41 1553.16 L265.276 1553.16 L265.276 1554.64 Q261.201 1554.5 257.079 1554.5 L256.774 1554.5 Q253.776 1554.5 249.935 1554.64 Z" fill="#000000" fill-rule="evenodd" fill-opacity="1" /><path clip-path="url(#clip280)" d="M913.617 1554.71 L913.617 1553.23 Q915.818 1553.23 917.435 1552.55 Q919.051 1551.87 919.519 1551.38 Q920.011 1550.87 920.573 1550.05 L928.443 1538.45 L919.613 1525.1 Q918.934 1524.09 918.02 1523.77 Q917.13 1523.44 915.163 1523.44 L914.249 1523.44 L914.249 1521.94 Q916.896 1522.08 920.48 1522.08 Q925.796 1522.08 927.483 1521.94 L927.483 1523.44 Q926.054 1523.48 925.211 1523.95 Q924.368 1524.4 924.368 1524.87 Q924.368 1525.05 924.696 1525.59 L930.879 1534.84 L936.36 1526.74 Q936.782 1526.06 936.782 1525.64 Q936.782 1524.77 935.985 1524.14 Q935.212 1523.48 933.807 1523.44 L933.807 1521.94 Q935.728 1522.08 939.967 1522.08 Q940.506 1522.08 941.372 1522.06 Q942.262 1522.03 943.434 1521.99 Q944.605 1521.94 945.284 1521.94 L945.284 1523.44 Q940.435 1523.48 938.327 1526.55 L931.746 1536.18 L941.864 1551.5 Q942.59 1552.55 943.504 1552.9 Q944.417 1553.23 946.385 1553.23 L947.298 1553.23 L947.298 1554.71 Q944.277 1554.57 941.068 1554.57 Q935.751 1554.57 934.065 1554.71 L934.065 1553.23 Q935.493 1553.18 936.337 1552.74 Q937.18 1552.27 937.18 1551.78 Q937.18 1551.73 936.922 1551.26 L929.357 1539.79 L922.541 1549.86 Q922.072 1550.63 922.072 1551.01 Q922.072 1551.78 922.822 1552.48 Q923.595 1553.16 925.094 1553.23 L925.094 1554.71 Q923.36 1554.57 918.934 1554.57 Q918.793 1554.57 913.617 1554.71 Z" fill="#000000" fill-rule="evenodd" fill-opacity="1" /><path clip-path="url(#clip280)" d="M1589.94 1554.71 L1589.94 1553.23 Q1591.67 1553.23 1592.78 1552.9 Q1593.88 1552.55 1594.27 1551.92 Q1594.7 1551.26 1594.79 1550.84 Q1594.88 1550.4 1594.88 1549.67 L1594.88 1525.69 Q1594.88 1524.3 1594.27 1523.88 Q1593.69 1523.44 1591.09 1523.44 L1589.94 1523.44 L1589.94 1521.94 L1598.05 1521.94 Q1598.91 1521.94 1599.15 1522.1 Q1599.38 1522.24 1599.73 1522.99 L1610.13 1549.86 L1620.62 1522.85 Q1620.86 1522.17 1621.07 1522.06 Q1621.3 1521.94 1622.22 1521.94 L1630.32 1521.94 L1630.32 1523.44 L1629.17 1523.44 Q1626.57 1523.44 1625.97 1523.88 Q1625.38 1524.3 1625.38 1525.69 L1625.38 1550.96 Q1625.38 1552.34 1625.97 1552.79 Q1626.57 1553.23 1629.17 1553.23 L1630.32 1553.23 L1630.32 1554.71 Q1628.54 1554.57 1623.46 1554.57 Q1618.33 1554.57 1616.55 1554.71 L1616.55 1553.23 L1617.72 1553.23 Q1620.32 1553.23 1620.91 1552.81 Q1621.49 1552.36 1621.49 1550.96 L1621.49 1523.44 L1621.44 1523.44 L1609.66 1553.79 Q1609.34 1554.71 1608.8 1554.71 Q1608.21 1554.71 1607.84 1553.65 L1596.27 1523.81 L1596.22 1523.81 L1596.22 1549.67 Q1596.22 1550.4 1596.31 1550.84 Q1596.41 1551.26 1596.8 1551.92 Q1597.23 1552.55 1598.33 1552.9 Q1599.43 1553.23 1601.16 1553.23 L1601.16 1554.71 Q1596.12 1554.57 1595.54 1554.57 Q1594.98 1554.57 1589.94 1554.71 Z" fill="#000000" fill-rule="evenodd" fill-opacity="1" /><path clip-path="url(#clip280)" d="M2277.1 1554.64 L2277.1 1553.16 L2277.8 1553.16 Q2280.35 1553.16 2281.15 1552.81 Q2281.97 1552.43 2282.04 1551.08 L2282.04 1525.48 Q2281.99 1524.23 2281.2 1523.86 Q2280.4 1523.46 2277.8 1523.46 L2277.1 1523.46 L2277.1 1522.01 Q2279.35 1522.1 2283.84 1522.1 Q2285.67 1522.1 2287.24 1522.06 Q2288.83 1522.01 2289.09 1522.01 L2302.14 1522.01 L2303.47 1532.81 L2302.23 1532.81 Q2301.85 1529.88 2301.43 1528.36 Q2301.04 1526.81 2300.05 1525.57 Q2299.07 1524.33 2297.43 1523.91 Q2295.79 1523.46 2293.02 1523.46 L2288.93 1523.46 Q2287.38 1523.46 2286.84 1523.77 Q2286.3 1524.07 2286.3 1525.33 L2286.3 1550.94 Q2286.3 1552.41 2287.29 1552.79 Q2288.27 1553.16 2291.57 1553.16 L2292.44 1553.16 L2292.44 1554.64 Q2288.36 1554.5 2284.24 1554.5 L2283.94 1554.5 Q2280.94 1554.5 2277.1 1554.64 Z" fill="#000000" fill-rule="evenodd" fill-opacity="1" /><polyline clip-path="url(#clip283)" style="stroke:#000000; stroke-linecap:butt; stroke-linejoin:round; stroke-width:2; stroke-opacity:0.1; fill:none" points="
  203.964,1445.72 2352.76,1445.72 
  "/>
<polyline clip-path="url(#clip283)" style="stroke:#000000; stroke-linecap:butt; stroke-linejoin:round; stroke-width:2; stroke-opacity:0.1; fill:none" points="
  203.964,1014.24 2352.76,1014.24 
  "/>
<polyline clip-path="url(#clip283)" style="stroke:#000000; stroke-linecap:butt; stroke-linejoin:round; stroke-width:2; stroke-opacity:0.1; fill:none" points="
  203.964,582.769 2352.76,582.769 
  "/>
<polyline clip-path="url(#clip283)" style="stroke:#000000; stroke-linecap:butt; stroke-linejoin:round; stroke-width:2; stroke-opacity:0.1; fill:none" points="
  203.964,151.296 2352.76,151.296 
  "/>
<polyline clip-path="url(#clip280)" style="stroke:#000000; stroke-linecap:butt; stroke-linejoin:round; stroke-width:4; stroke-opacity:1; fill:none" points="
  203.964,1486.45 203.964,47.2441 
  "/>
<polyline clip-path="url(#clip280)" style="stroke:#000000; stroke-linecap:butt; stroke-linejoin:round; stroke-width:4; stroke-opacity:1; fill:none" points="
  203.964,1445.72 222.861,1445.72 
  "/>
<polyline clip-path="url(#clip280)" style="stroke:#000000; stroke-linecap:butt; stroke-linejoin:round; stroke-width:4; stroke-opacity:1; fill:none" points="
  203.964,1014.24 222.861,1014.24 
  "/>
<polyline clip-path="url(#clip280)" style="stroke:#000000; stroke-linecap:butt; stroke-linejoin:round; stroke-width:4; stroke-opacity:1; fill:none" points="
  203.964,582.769 222.861,582.769 
  "/>
<polyline clip-path="url(#clip280)" style="stroke:#000000; stroke-linecap:butt; stroke-linejoin:round; stroke-width:4; stroke-opacity:1; fill:none" points="
  203.964,151.296 222.861,151.296 
  "/>
<path clip-path="url(#clip280)" d="M156.019 1431.51 Q152.408 1431.51 150.579 1435.08 Q148.774 1438.62 148.774 1445.75 Q148.774 1452.86 150.579 1456.42 Q152.408 1459.96 156.019 1459.96 Q159.653 1459.96 161.459 1456.42 Q163.288 1452.86 163.288 1445.75 Q163.288 1438.62 161.459 1435.08 Q159.653 1431.51 156.019 1431.51 M156.019 1427.81 Q161.829 1427.81 164.885 1432.42 Q167.964 1437 167.964 1445.75 Q167.964 1454.48 164.885 1459.08 Q161.829 1463.67 156.019 1463.67 Q150.209 1463.67 147.13 1459.08 Q144.075 1454.48 144.075 1445.75 Q144.075 1437 147.13 1432.42 Q150.209 1427.81 156.019 1427.81 Z" fill="#000000" fill-rule="evenodd" fill-opacity="1" /><path clip-path="url(#clip280)" d="M116.668 1027.59 L124.306 1027.59 L124.306 1001.22 L115.996 1002.89 L115.996 998.629 L124.26 996.963 L128.936 996.963 L128.936 1027.59 L136.575 1027.59 L136.575 1031.52 L116.668 1031.52 L116.668 1027.59 Z" fill="#000000" fill-rule="evenodd" fill-opacity="1" /><path clip-path="url(#clip280)" d="M156.019 1000.04 Q152.408 1000.04 150.579 1003.61 Q148.774 1007.15 148.774 1014.28 Q148.774 1021.38 150.579 1024.95 Q152.408 1028.49 156.019 1028.49 Q159.653 1028.49 161.459 1024.95 Q163.288 1021.38 163.288 1014.28 Q163.288 1007.15 161.459 1003.61 Q159.653 1000.04 156.019 1000.04 M156.019 996.338 Q161.829 996.338 164.885 1000.94 Q167.964 1005.53 167.964 1014.28 Q167.964 1023 164.885 1027.61 Q161.829 1032.19 156.019 1032.19 Q150.209 1032.19 147.13 1027.61 Q144.075 1023 144.075 1014.28 Q144.075 1005.53 147.13 1000.94 Q150.209 996.338 156.019 996.338 Z" fill="#000000" fill-rule="evenodd" fill-opacity="1" /><path clip-path="url(#clip280)" d="M119.885 596.114 L136.204 596.114 L136.204 600.049 L114.26 600.049 L114.26 596.114 Q116.922 593.36 121.505 588.73 Q126.112 584.077 127.292 582.735 Q129.538 580.211 130.417 578.475 Q131.32 576.716 131.32 575.026 Q131.32 572.272 129.376 570.536 Q127.455 568.8 124.353 568.8 Q122.154 568.8 119.7 569.563 Q117.269 570.327 114.492 571.878 L114.492 567.156 Q117.316 566.022 119.769 565.443 Q122.223 564.864 124.26 564.864 Q129.63 564.864 132.825 567.55 Q136.019 570.235 136.019 574.725 Q136.019 576.855 135.209 578.776 Q134.422 580.674 132.316 583.267 Q131.737 583.938 128.635 587.156 Q125.533 590.35 119.885 596.114 Z" fill="#000000" fill-rule="evenodd" fill-opacity="1" /><path clip-path="url(#clip280)" d="M156.019 568.568 Q152.408 568.568 150.579 572.133 Q148.774 575.674 148.774 582.804 Q148.774 589.911 150.579 593.475 Q152.408 597.017 156.019 597.017 Q159.653 597.017 161.459 593.475 Q163.288 589.911 163.288 582.804 Q163.288 575.674 161.459 572.133 Q159.653 568.568 156.019 568.568 M156.019 564.864 Q161.829 564.864 164.885 569.471 Q167.964 574.054 167.964 582.804 Q167.964 591.531 164.885 596.137 Q161.829 600.721 156.019 600.721 Q150.209 600.721 147.13 596.137 Q144.075 591.531 144.075 582.804 Q144.075 574.054 147.13 569.471 Q150.209 564.864 156.019 564.864 Z" fill="#000000" fill-rule="evenodd" fill-opacity="1" /><path clip-path="url(#clip280)" d="M130.024 149.942 Q133.38 150.66 135.255 152.928 Q137.154 155.197 137.154 158.53 Q137.154 163.646 133.635 166.447 Q130.117 169.247 123.635 169.247 Q121.459 169.247 119.144 168.808 Q116.853 168.391 114.399 167.534 L114.399 163.021 Q116.343 164.155 118.658 164.734 Q120.973 165.312 123.496 165.312 Q127.894 165.312 130.186 163.576 Q132.501 161.84 132.501 158.53 Q132.501 155.474 130.348 153.761 Q128.218 152.025 124.399 152.025 L120.371 152.025 L120.371 148.183 L124.584 148.183 Q128.033 148.183 129.862 146.817 Q131.691 145.428 131.691 142.836 Q131.691 140.174 129.792 138.762 Q127.917 137.326 124.399 137.326 Q122.478 137.326 120.279 137.743 Q118.08 138.16 115.441 139.039 L115.441 134.873 Q118.103 134.132 120.418 133.762 Q122.755 133.391 124.816 133.391 Q130.14 133.391 133.242 135.822 Q136.343 138.229 136.343 142.349 Q136.343 145.22 134.7 147.211 Q133.056 149.178 130.024 149.942 Z" fill="#000000" fill-rule="evenodd" fill-opacity="1" /><path clip-path="url(#clip280)" d="M156.019 137.095 Q152.408 137.095 150.579 140.66 Q148.774 144.201 148.774 151.331 Q148.774 158.437 150.579 162.002 Q152.408 165.544 156.019 165.544 Q159.653 165.544 161.459 162.002 Q163.288 158.437 163.288 151.331 Q163.288 144.201 161.459 140.66 Q159.653 137.095 156.019 137.095 M156.019 133.391 Q161.829 133.391 164.885 137.998 Q167.964 142.581 167.964 151.331 Q167.964 160.058 164.885 164.664 Q161.829 169.247 156.019 169.247 Q150.209 169.247 147.13 164.664 Q144.075 160.058 144.075 151.331 Q144.075 142.581 147.13 137.998 Q150.209 133.391 156.019 133.391 Z" fill="#000000" fill-rule="evenodd" fill-opacity="1" /><path clip-path="url(#clip280)" d="M20.8447 994.42 Q20.8447 1001.42 26.0645 1005.56 Q31.2844 1009.67 40.2919 1009.67 Q49.2675 1009.67 54.4874 1005.56 Q59.7073 1001.42 59.7073 994.42 Q59.7073 987.418 54.4874 983.344 Q49.2675 979.238 40.2919 979.238 Q31.2844 979.238 26.0645 983.344 Q20.8447 987.418 20.8447 994.42 M63.1448 985.413 L72.4069 976.946 L72.4069 984.712 L64.7999 991.746 Q64.8635 992.797 64.8954 993.37 Q64.9272 993.911 64.9272 994.42 Q64.9272 1004.45 58.2432 1010.46 Q51.5274 1016.45 40.2919 1016.45 Q29.0246 1016.45 22.3406 1010.46 Q15.6248 1004.45 15.6248 994.42 Q15.6248 984.426 22.3406 978.442 Q29.0246 972.458 40.2919 972.458 Q48.5673 972.458 54.4556 975.8 Q60.3439 979.11 63.1448 985.413 Z" fill="#000000" fill-rule="evenodd" fill-opacity="1" /><path clip-path="url(#clip280)" d="M49.9359 963.26 L28.3562 963.26 L28.3562 957.403 L49.7131 957.403 Q54.7739 957.403 57.3202 955.43 Q59.8346 953.457 59.8346 949.51 Q59.8346 944.767 56.8109 942.03 Q53.7872 939.261 48.5673 939.261 L28.3562 939.261 L28.3562 933.405 L64.0042 933.405 L64.0042 939.261 L58.5296 939.261 Q61.7762 941.394 63.3676 944.226 Q64.9272 947.027 64.9272 950.751 Q64.9272 956.894 61.1078 960.077 Q57.2883 963.26 49.9359 963.26 M27.4968 948.523 L27.4968 948.523 Z" fill="#000000" fill-rule="evenodd" fill-opacity="1" /><path clip-path="url(#clip280)" d="M46.0847 905.141 Q46.0847 912.239 47.7079 914.976 Q49.3312 917.713 53.2461 917.713 Q56.3653 917.713 58.2114 915.676 Q60.0256 913.607 60.0256 910.074 Q60.0256 905.205 56.5881 902.276 Q53.1188 899.316 47.3897 899.316 L46.0847 899.316 L46.0847 905.141 M43.6657 893.46 L64.0042 893.46 L64.0042 899.316 L58.5933 899.316 Q61.8398 901.322 63.3994 904.313 Q64.9272 907.305 64.9272 911.634 Q64.9272 917.108 61.8716 920.355 Q58.7843 923.57 53.6281 923.57 Q47.6125 923.57 44.5569 919.559 Q41.5014 915.517 41.5014 907.528 L41.5014 899.316 L40.9285 899.316 Q36.8862 899.316 34.6901 901.99 Q32.4621 904.632 32.4621 909.438 Q32.4621 912.493 33.1941 915.39 Q33.9262 918.286 35.3903 920.96 L29.9795 920.96 Q28.7381 917.745 28.1334 914.721 Q27.4968 911.698 27.4968 908.833 Q27.4968 901.099 31.5072 897.279 Q35.5176 893.46 43.6657 893.46 Z" fill="#000000" fill-rule="evenodd" fill-opacity="1" /><path clip-path="url(#clip280)" d="M42.4881 851.765 L64.0042 851.765 L64.0042 857.621 L42.679 857.621 Q37.6183 857.621 35.1038 859.594 Q32.5894 861.568 32.5894 865.514 Q32.5894 870.257 35.6131 872.994 Q38.6368 875.731 43.8567 875.731 L64.0042 875.731 L64.0042 881.62 L28.3562 881.62 L28.3562 875.731 L33.8944 875.731 Q30.6797 873.631 29.0883 870.798 Q27.4968 867.933 27.4968 864.209 Q27.4968 858.067 31.3163 854.916 Q35.1038 851.765 42.4881 851.765 Z" fill="#000000" fill-rule="evenodd" fill-opacity="1" /><path clip-path="url(#clip280)" d="M18.2347 834.291 L28.3562 834.291 L28.3562 822.228 L32.9077 822.228 L32.9077 834.291 L52.2594 834.291 Q56.6199 834.291 57.8613 833.113 Q59.1026 831.904 59.1026 828.243 L59.1026 822.228 L64.0042 822.228 L64.0042 828.243 Q64.0042 835.023 61.4897 837.601 Q58.9434 840.179 52.2594 840.179 L32.9077 840.179 L32.9077 844.476 L28.3562 844.476 L28.3562 840.179 L18.2347 840.179 L18.2347 834.291 Z" fill="#000000" fill-rule="evenodd" fill-opacity="1" /><path clip-path="url(#clip280)" d="M49.9359 815.13 L28.3562 815.13 L28.3562 809.273 L49.7131 809.273 Q54.7739 809.273 57.3202 807.3 Q59.8346 805.327 59.8346 801.38 Q59.8346 796.637 56.8109 793.9 Q53.7872 791.131 48.5673 791.131 L28.3562 791.131 L28.3562 785.275 L64.0042 785.275 L64.0042 791.131 L58.5296 791.131 Q61.7762 793.264 63.3676 796.096 Q64.9272 798.897 64.9272 802.621 Q64.9272 808.764 61.1078 811.947 Q57.2883 815.13 49.9359 815.13 M27.4968 800.393 L27.4968 800.393 Z" fill="#000000" fill-rule="evenodd" fill-opacity="1" /><path clip-path="url(#clip280)" d="M35.1993 745.457 Q31.2526 743.261 29.3747 740.206 Q27.4968 737.15 27.4968 733.012 Q27.4968 727.442 31.4117 724.419 Q35.2948 721.395 42.4881 721.395 L64.0042 721.395 L64.0042 727.283 L42.679 727.283 Q37.5546 727.283 35.072 729.097 Q32.5894 730.912 32.5894 734.636 Q32.5894 739.187 35.6131 741.829 Q38.6368 744.471 43.8567 744.471 L64.0042 744.471 L64.0042 750.359 L42.679 750.359 Q37.5228 750.359 35.072 752.173 Q32.5894 753.987 32.5894 757.775 Q32.5894 762.263 35.6449 764.904 Q38.6686 767.546 43.8567 767.546 L64.0042 767.546 L64.0042 773.434 L28.3562 773.434 L28.3562 767.546 L33.8944 767.546 Q30.616 765.541 29.0564 762.74 Q27.4968 759.939 27.4968 756.088 Q27.4968 752.205 29.4702 749.499 Q31.4436 746.762 35.1993 745.457 Z" fill="#000000" fill-rule="evenodd" fill-opacity="1" /><path clip-path="url(#clip280)" d="M16.4842 709.459 L16.4842 699.879 L48.8219 687.752 L16.4842 675.562 L16.4842 665.981 L64.0042 665.981 L64.0042 672.252 L22.277 672.252 L54.8694 684.506 L54.8694 690.967 L22.277 703.221 L64.0042 703.221 L64.0042 709.459 L16.4842 709.459 Z" fill="#000000" fill-rule="evenodd" fill-opacity="1" /><path clip-path="url(#clip280)" d="M44.7161 622.981 L47.5806 622.981 L47.5806 649.908 Q53.6281 649.526 56.8109 646.28 Q59.9619 643.001 59.9619 637.177 Q59.9619 633.803 59.1344 630.652 Q58.3069 627.469 56.6518 624.35 L62.1899 624.35 Q63.5267 627.501 64.227 630.811 Q64.9272 634.121 64.9272 637.527 Q64.9272 646.057 59.9619 651.054 Q54.9967 656.019 46.5303 656.019 Q37.7774 656.019 32.6531 651.308 Q27.4968 646.566 27.4968 638.545 Q27.4968 631.352 32.1438 627.182 Q36.7589 622.981 44.7161 622.981 M42.9973 628.837 Q38.1912 628.901 35.3266 631.543 Q32.4621 634.153 32.4621 638.482 Q32.4621 643.383 35.2312 646.343 Q38.0002 649.271 43.0292 649.717 L42.9973 628.837 Z" fill="#000000" fill-rule="evenodd" fill-opacity="1" /><path clip-path="url(#clip280)" d="M18.2347 607.576 L28.3562 607.576 L28.3562 595.513 L32.9077 595.513 L32.9077 607.576 L52.2594 607.576 Q56.6199 607.576 57.8613 606.398 Q59.1026 605.189 59.1026 601.529 L59.1026 595.513 L64.0042 595.513 L64.0042 601.529 Q64.0042 608.308 61.4897 610.886 Q58.9434 613.464 52.2594 613.464 L32.9077 613.464 L32.9077 617.761 L28.3562 617.761 L28.3562 613.464 L18.2347 613.464 L18.2347 607.576 Z" fill="#000000" fill-rule="evenodd" fill-opacity="1" /><path clip-path="url(#clip280)" d="M33.8307 567.154 Q33.2578 568.14 33.0032 569.318 Q32.7167 570.464 32.7167 571.864 Q32.7167 576.83 35.9632 579.503 Q39.1779 582.145 45.2253 582.145 L64.0042 582.145 L64.0042 588.033 L28.3562 588.033 L28.3562 582.145 L33.8944 582.145 Q30.6479 580.299 29.0883 577.339 Q27.4968 574.379 27.4968 570.146 Q27.4968 569.541 27.5923 568.809 Q27.656 568.077 27.8151 567.186 L33.8307 567.154 Z" fill="#000000" fill-rule="evenodd" fill-opacity="1" /><path clip-path="url(#clip280)" d="M28.3562 561.011 L28.3562 555.154 L64.0042 555.154 L64.0042 561.011 L28.3562 561.011 M14.479 561.011 L14.479 555.154 L21.895 555.154 L21.895 561.011 L14.479 561.011 Z" fill="#000000" fill-rule="evenodd" fill-opacity="1" /><path clip-path="url(#clip280)" d="M29.7248 517.247 L35.1993 517.247 Q33.8307 519.729 33.1623 522.244 Q32.4621 524.726 32.4621 527.273 Q32.4621 532.97 36.0905 536.121 Q39.6872 539.272 46.212 539.272 Q52.7369 539.272 56.3653 536.121 Q59.9619 532.97 59.9619 527.273 Q59.9619 524.726 59.2935 522.244 Q58.5933 519.729 57.2247 517.247 L62.6355 517.247 Q63.7814 519.697 64.3543 522.339 Q64.9272 524.949 64.9272 527.909 Q64.9272 535.962 59.8664 540.704 Q54.8057 545.447 46.212 545.447 Q37.491 545.447 32.4939 540.672 Q27.4968 535.866 27.4968 527.527 Q27.4968 524.822 28.0697 522.244 Q28.6108 519.666 29.7248 517.247 Z" fill="#000000" fill-rule="evenodd" fill-opacity="1" /><circle clip-path="url(#clip283)" cx="264.778" cy="1445.07" r="14" fill="#009af9" fill-rule="evenodd" fill-opacity="1" stroke="#000000" stroke-opacity="1" stroke-width="3.2"/>
<circle clip-path="url(#clip283)" cx="278.384" cy="1445.07" r="14" fill="#009af9" fill-rule="evenodd" fill-opacity="1" stroke="#000000" stroke-opacity="1" stroke-width="3.2"/>
<circle clip-path="url(#clip283)" cx="291.989" cy="1445.07" r="14" fill="#009af9" fill-rule="evenodd" fill-opacity="1" stroke="#000000" stroke-opacity="1" stroke-width="3.2"/>
<circle clip-path="url(#clip283)" cx="305.594" cy="1445.07" r="14" fill="#009af9" fill-rule="evenodd" fill-opacity="1" stroke="#000000" stroke-opacity="1" stroke-width="3.2"/>
<circle clip-path="url(#clip283)" cx="319.199" cy="1445.07" r="14" fill="#009af9" fill-rule="evenodd" fill-opacity="1" stroke="#000000" stroke-opacity="1" stroke-width="3.2"/>
<circle clip-path="url(#clip283)" cx="332.804" cy="1445.07" r="14" fill="#009af9" fill-rule="evenodd" fill-opacity="1" stroke="#000000" stroke-opacity="1" stroke-width="3.2"/>
<circle clip-path="url(#clip283)" cx="346.409" cy="1445.08" r="14" fill="#009af9" fill-rule="evenodd" fill-opacity="1" stroke="#000000" stroke-opacity="1" stroke-width="3.2"/>
<circle clip-path="url(#clip283)" cx="360.014" cy="1445.08" r="14" fill="#009af9" fill-rule="evenodd" fill-opacity="1" stroke="#000000" stroke-opacity="1" stroke-width="3.2"/>
<circle clip-path="url(#clip283)" cx="373.619" cy="1445.08" r="14" fill="#009af9" fill-rule="evenodd" fill-opacity="1" stroke="#000000" stroke-opacity="1" stroke-width="3.2"/>
<circle clip-path="url(#clip283)" cx="387.225" cy="1445.09" r="14" fill="#009af9" fill-rule="evenodd" fill-opacity="1" stroke="#000000" stroke-opacity="1" stroke-width="3.2"/>
<circle clip-path="url(#clip283)" cx="400.83" cy="1445.09" r="14" fill="#009af9" fill-rule="evenodd" fill-opacity="1" stroke="#000000" stroke-opacity="1" stroke-width="3.2"/>
<circle clip-path="url(#clip283)" cx="414.435" cy="1445.1" r="14" fill="#009af9" fill-rule="evenodd" fill-opacity="1" stroke="#000000" stroke-opacity="1" stroke-width="3.2"/>
<circle clip-path="url(#clip283)" cx="428.04" cy="1445.11" r="14" fill="#009af9" fill-rule="evenodd" fill-opacity="1" stroke="#000000" stroke-opacity="1" stroke-width="3.2"/>
<circle clip-path="url(#clip283)" cx="441.645" cy="1445.12" r="14" fill="#009af9" fill-rule="evenodd" fill-opacity="1" stroke="#000000" stroke-opacity="1" stroke-width="3.2"/>
<circle clip-path="url(#clip283)" cx="455.25" cy="1445.13" r="14" fill="#009af9" fill-rule="evenodd" fill-opacity="1" stroke="#000000" stroke-opacity="1" stroke-width="3.2"/>
<circle clip-path="url(#clip283)" cx="468.855" cy="1445.14" r="14" fill="#009af9" fill-rule="evenodd" fill-opacity="1" stroke="#000000" stroke-opacity="1" stroke-width="3.2"/>
<circle clip-path="url(#clip283)" cx="482.46" cy="1445.15" r="14" fill="#009af9" fill-rule="evenodd" fill-opacity="1" stroke="#000000" stroke-opacity="1" stroke-width="3.2"/>
<circle clip-path="url(#clip283)" cx="496.065" cy="1445.16" r="14" fill="#009af9" fill-rule="evenodd" fill-opacity="1" stroke="#000000" stroke-opacity="1" stroke-width="3.2"/>
<circle clip-path="url(#clip283)" cx="509.671" cy="1445.18" r="14" fill="#009af9" fill-rule="evenodd" fill-opacity="1" stroke="#000000" stroke-opacity="1" stroke-width="3.2"/>
<circle clip-path="url(#clip283)" cx="523.276" cy="1445.2" r="14" fill="#009af9" fill-rule="evenodd" fill-opacity="1" stroke="#000000" stroke-opacity="1" stroke-width="3.2"/>
<circle clip-path="url(#clip283)" cx="536.881" cy="1445.22" r="14" fill="#009af9" fill-rule="evenodd" fill-opacity="1" stroke="#000000" stroke-opacity="1" stroke-width="3.2"/>
<circle clip-path="url(#clip283)" cx="550.486" cy="1445.24" r="14" fill="#009af9" fill-rule="evenodd" fill-opacity="1" stroke="#000000" stroke-opacity="1" stroke-width="3.2"/>
<circle clip-path="url(#clip283)" cx="564.091" cy="1445.26" r="14" fill="#009af9" fill-rule="evenodd" fill-opacity="1" stroke="#000000" stroke-opacity="1" stroke-width="3.2"/>
<circle clip-path="url(#clip283)" cx="577.696" cy="1445.29" r="14" fill="#009af9" fill-rule="evenodd" fill-opacity="1" stroke="#000000" stroke-opacity="1" stroke-width="3.2"/>
<circle clip-path="url(#clip283)" cx="591.301" cy="1445.31" r="14" fill="#009af9" fill-rule="evenodd" fill-opacity="1" stroke="#000000" stroke-opacity="1" stroke-width="3.2"/>
<circle clip-path="url(#clip283)" cx="604.906" cy="1445.34" r="14" fill="#009af9" fill-rule="evenodd" fill-opacity="1" stroke="#000000" stroke-opacity="1" stroke-width="3.2"/>
<circle clip-path="url(#clip283)" cx="618.512" cy="1445.37" r="14" fill="#009af9" fill-rule="evenodd" fill-opacity="1" stroke="#000000" stroke-opacity="1" stroke-width="3.2"/>
<circle clip-path="url(#clip283)" cx="632.117" cy="1445.39" r="14" fill="#009af9" fill-rule="evenodd" fill-opacity="1" stroke="#000000" stroke-opacity="1" stroke-width="3.2"/>
<circle clip-path="url(#clip283)" cx="645.722" cy="1445.41" r="14" fill="#009af9" fill-rule="evenodd" fill-opacity="1" stroke="#000000" stroke-opacity="1" stroke-width="3.2"/>
<circle clip-path="url(#clip283)" cx="659.327" cy="1445.41" r="14" fill="#009af9" fill-rule="evenodd" fill-opacity="1" stroke="#000000" stroke-opacity="1" stroke-width="3.2"/>
<circle clip-path="url(#clip283)" cx="672.932" cy="1445.39" r="14" fill="#009af9" fill-rule="evenodd" fill-opacity="1" stroke="#000000" stroke-opacity="1" stroke-width="3.2"/>
<circle clip-path="url(#clip283)" cx="686.537" cy="1445.36" r="14" fill="#009af9" fill-rule="evenodd" fill-opacity="1" stroke="#000000" stroke-opacity="1" stroke-width="3.2"/>
<circle clip-path="url(#clip283)" cx="700.142" cy="1445.29" r="14" fill="#009af9" fill-rule="evenodd" fill-opacity="1" stroke="#000000" stroke-opacity="1" stroke-width="3.2"/>
<circle clip-path="url(#clip283)" cx="713.747" cy="1445.21" r="14" fill="#009af9" fill-rule="evenodd" fill-opacity="1" stroke="#000000" stroke-opacity="1" stroke-width="3.2"/>
<circle clip-path="url(#clip283)" cx="727.352" cy="1445.11" r="14" fill="#009af9" fill-rule="evenodd" fill-opacity="1" stroke="#000000" stroke-opacity="1" stroke-width="3.2"/>
<circle clip-path="url(#clip283)" cx="740.958" cy="1444.99" r="14" fill="#009af9" fill-rule="evenodd" fill-opacity="1" stroke="#000000" stroke-opacity="1" stroke-width="3.2"/>
<circle clip-path="url(#clip283)" cx="754.563" cy="1444.85" r="14" fill="#009af9" fill-rule="evenodd" fill-opacity="1" stroke="#000000" stroke-opacity="1" stroke-width="3.2"/>
<circle clip-path="url(#clip283)" cx="768.168" cy="1444.7" r="14" fill="#009af9" fill-rule="evenodd" fill-opacity="1" stroke="#000000" stroke-opacity="1" stroke-width="3.2"/>
<circle clip-path="url(#clip283)" cx="781.773" cy="1444.54" r="14" fill="#009af9" fill-rule="evenodd" fill-opacity="1" stroke="#000000" stroke-opacity="1" stroke-width="3.2"/>
<circle clip-path="url(#clip283)" cx="795.378" cy="1444.37" r="14" fill="#009af9" fill-rule="evenodd" fill-opacity="1" stroke="#000000" stroke-opacity="1" stroke-width="3.2"/>
<circle clip-path="url(#clip283)" cx="808.983" cy="1444.19" r="14" fill="#009af9" fill-rule="evenodd" fill-opacity="1" stroke="#000000" stroke-opacity="1" stroke-width="3.2"/>
<circle clip-path="url(#clip283)" cx="822.588" cy="1444.01" r="14" fill="#009af9" fill-rule="evenodd" fill-opacity="1" stroke="#000000" stroke-opacity="1" stroke-width="3.2"/>
<circle clip-path="url(#clip283)" cx="836.193" cy="1443.83" r="14" fill="#009af9" fill-rule="evenodd" fill-opacity="1" stroke="#000000" stroke-opacity="1" stroke-width="3.2"/>
<circle clip-path="url(#clip283)" cx="849.799" cy="1443.65" r="14" fill="#009af9" fill-rule="evenodd" fill-opacity="1" stroke="#000000" stroke-opacity="1" stroke-width="3.2"/>
<circle clip-path="url(#clip283)" cx="863.404" cy="1443.49" r="14" fill="#009af9" fill-rule="evenodd" fill-opacity="1" stroke="#000000" stroke-opacity="1" stroke-width="3.2"/>
<circle clip-path="url(#clip283)" cx="877.009" cy="1443.34" r="14" fill="#009af9" fill-rule="evenodd" fill-opacity="1" stroke="#000000" stroke-opacity="1" stroke-width="3.2"/>
<circle clip-path="url(#clip283)" cx="890.614" cy="1443.22" r="14" fill="#009af9" fill-rule="evenodd" fill-opacity="1" stroke="#000000" stroke-opacity="1" stroke-width="3.2"/>
<circle clip-path="url(#clip283)" cx="904.219" cy="1443.13" r="14" fill="#009af9" fill-rule="evenodd" fill-opacity="1" stroke="#000000" stroke-opacity="1" stroke-width="3.2"/>
<circle clip-path="url(#clip283)" cx="917.824" cy="1443.07" r="14" fill="#009af9" fill-rule="evenodd" fill-opacity="1" stroke="#000000" stroke-opacity="1" stroke-width="3.2"/>
<circle clip-path="url(#clip283)" cx="931.429" cy="1443.05" r="14" fill="#009af9" fill-rule="evenodd" fill-opacity="1" stroke="#000000" stroke-opacity="1" stroke-width="3.2"/>
<circle clip-path="url(#clip283)" cx="945.034" cy="1443.05" r="14" fill="#009af9" fill-rule="evenodd" fill-opacity="1" stroke="#000000" stroke-opacity="1" stroke-width="3.2"/>
<circle clip-path="url(#clip283)" cx="958.639" cy="1443.04" r="14" fill="#009af9" fill-rule="evenodd" fill-opacity="1" stroke="#000000" stroke-opacity="1" stroke-width="3.2"/>
<circle clip-path="url(#clip283)" cx="972.245" cy="1443.04" r="14" fill="#009af9" fill-rule="evenodd" fill-opacity="1" stroke="#000000" stroke-opacity="1" stroke-width="3.2"/>
<circle clip-path="url(#clip283)" cx="985.85" cy="1443.03" r="14" fill="#009af9" fill-rule="evenodd" fill-opacity="1" stroke="#000000" stroke-opacity="1" stroke-width="3.2"/>
<circle clip-path="url(#clip283)" cx="999.455" cy="1443.01" r="14" fill="#009af9" fill-rule="evenodd" fill-opacity="1" stroke="#000000" stroke-opacity="1" stroke-width="3.2"/>
<circle clip-path="url(#clip283)" cx="1013.06" cy="1442.99" r="14" fill="#009af9" fill-rule="evenodd" fill-opacity="1" stroke="#000000" stroke-opacity="1" stroke-width="3.2"/>
<circle clip-path="url(#clip283)" cx="1026.67" cy="1442.97" r="14" fill="#009af9" fill-rule="evenodd" fill-opacity="1" stroke="#000000" stroke-opacity="1" stroke-width="3.2"/>
<circle clip-path="url(#clip283)" cx="1040.27" cy="1442.95" r="14" fill="#009af9" fill-rule="evenodd" fill-opacity="1" stroke="#000000" stroke-opacity="1" stroke-width="3.2"/>
<circle clip-path="url(#clip283)" cx="1053.88" cy="1442.92" r="14" fill="#009af9" fill-rule="evenodd" fill-opacity="1" stroke="#000000" stroke-opacity="1" stroke-width="3.2"/>
<circle clip-path="url(#clip283)" cx="1067.48" cy="1442.88" r="14" fill="#009af9" fill-rule="evenodd" fill-opacity="1" stroke="#000000" stroke-opacity="1" stroke-width="3.2"/>
<circle clip-path="url(#clip283)" cx="1081.09" cy="1442.85" r="14" fill="#009af9" fill-rule="evenodd" fill-opacity="1" stroke="#000000" stroke-opacity="1" stroke-width="3.2"/>
<circle clip-path="url(#clip283)" cx="1094.69" cy="1442.8" r="14" fill="#009af9" fill-rule="evenodd" fill-opacity="1" stroke="#000000" stroke-opacity="1" stroke-width="3.2"/>
<circle clip-path="url(#clip283)" cx="1108.3" cy="1442.76" r="14" fill="#009af9" fill-rule="evenodd" fill-opacity="1" stroke="#000000" stroke-opacity="1" stroke-width="3.2"/>
<circle clip-path="url(#clip283)" cx="1121.9" cy="1442.7" r="14" fill="#009af9" fill-rule="evenodd" fill-opacity="1" stroke="#000000" stroke-opacity="1" stroke-width="3.2"/>
<circle clip-path="url(#clip283)" cx="1135.51" cy="1442.64" r="14" fill="#009af9" fill-rule="evenodd" fill-opacity="1" stroke="#000000" stroke-opacity="1" stroke-width="3.2"/>
<circle clip-path="url(#clip283)" cx="1149.11" cy="1442.58" r="14" fill="#009af9" fill-rule="evenodd" fill-opacity="1" stroke="#000000" stroke-opacity="1" stroke-width="3.2"/>
<circle clip-path="url(#clip283)" cx="1162.72" cy="1442.51" r="14" fill="#009af9" fill-rule="evenodd" fill-opacity="1" stroke="#000000" stroke-opacity="1" stroke-width="3.2"/>
<circle clip-path="url(#clip283)" cx="1176.32" cy="1442.43" r="14" fill="#009af9" fill-rule="evenodd" fill-opacity="1" stroke="#000000" stroke-opacity="1" stroke-width="3.2"/>
<circle clip-path="url(#clip283)" cx="1189.93" cy="1442.34" r="14" fill="#009af9" fill-rule="evenodd" fill-opacity="1" stroke="#000000" stroke-opacity="1" stroke-width="3.2"/>
<circle clip-path="url(#clip283)" cx="1203.53" cy="1442.24" r="14" fill="#009af9" fill-rule="evenodd" fill-opacity="1" stroke="#000000" stroke-opacity="1" stroke-width="3.2"/>
<circle clip-path="url(#clip283)" cx="1217.14" cy="1442.13" r="14" fill="#009af9" fill-rule="evenodd" fill-opacity="1" stroke="#000000" stroke-opacity="1" stroke-width="3.2"/>
<circle clip-path="url(#clip283)" cx="1230.74" cy="1442.01" r="14" fill="#009af9" fill-rule="evenodd" fill-opacity="1" stroke="#000000" stroke-opacity="1" stroke-width="3.2"/>
<circle clip-path="url(#clip283)" cx="1244.35" cy="1441.87" r="14" fill="#009af9" fill-rule="evenodd" fill-opacity="1" stroke="#000000" stroke-opacity="1" stroke-width="3.2"/>
<circle clip-path="url(#clip283)" cx="1257.95" cy="1441.72" r="14" fill="#009af9" fill-rule="evenodd" fill-opacity="1" stroke="#000000" stroke-opacity="1" stroke-width="3.2"/>
<circle clip-path="url(#clip283)" cx="1271.56" cy="1441.55" r="14" fill="#009af9" fill-rule="evenodd" fill-opacity="1" stroke="#000000" stroke-opacity="1" stroke-width="3.2"/>
<circle clip-path="url(#clip283)" cx="1285.16" cy="1441.35" r="14" fill="#009af9" fill-rule="evenodd" fill-opacity="1" stroke="#000000" stroke-opacity="1" stroke-width="3.2"/>
<circle clip-path="url(#clip283)" cx="1298.77" cy="1441.13" r="14" fill="#009af9" fill-rule="evenodd" fill-opacity="1" stroke="#000000" stroke-opacity="1" stroke-width="3.2"/>
<circle clip-path="url(#clip283)" cx="1312.37" cy="1440.88" r="14" fill="#009af9" fill-rule="evenodd" fill-opacity="1" stroke="#000000" stroke-opacity="1" stroke-width="3.2"/>
<circle clip-path="url(#clip283)" cx="1325.98" cy="1440.59" r="14" fill="#009af9" fill-rule="evenodd" fill-opacity="1" stroke="#000000" stroke-opacity="1" stroke-width="3.2"/>
<circle clip-path="url(#clip283)" cx="1339.58" cy="1440.26" r="14" fill="#009af9" fill-rule="evenodd" fill-opacity="1" stroke="#000000" stroke-opacity="1" stroke-width="3.2"/>
<circle clip-path="url(#clip283)" cx="1353.19" cy="1439.87" r="14" fill="#009af9" fill-rule="evenodd" fill-opacity="1" stroke="#000000" stroke-opacity="1" stroke-width="3.2"/>
<circle clip-path="url(#clip283)" cx="1366.79" cy="1439.41" r="14" fill="#009af9" fill-rule="evenodd" fill-opacity="1" stroke="#000000" stroke-opacity="1" stroke-width="3.2"/>
<circle clip-path="url(#clip283)" cx="1380.4" cy="1438.87" r="14" fill="#009af9" fill-rule="evenodd" fill-opacity="1" stroke="#000000" stroke-opacity="1" stroke-width="3.2"/>
<circle clip-path="url(#clip283)" cx="1394" cy="1438.22" r="14" fill="#009af9" fill-rule="evenodd" fill-opacity="1" stroke="#000000" stroke-opacity="1" stroke-width="3.2"/>
<circle clip-path="url(#clip283)" cx="1407.61" cy="1437.43" r="14" fill="#009af9" fill-rule="evenodd" fill-opacity="1" stroke="#000000" stroke-opacity="1" stroke-width="3.2"/>
<circle clip-path="url(#clip283)" cx="1421.21" cy="1436.45" r="14" fill="#009af9" fill-rule="evenodd" fill-opacity="1" stroke="#000000" stroke-opacity="1" stroke-width="3.2"/>
<circle clip-path="url(#clip283)" cx="1434.82" cy="1435.22" r="14" fill="#009af9" fill-rule="evenodd" fill-opacity="1" stroke="#000000" stroke-opacity="1" stroke-width="3.2"/>
<circle clip-path="url(#clip283)" cx="1448.42" cy="1433.64" r="14" fill="#009af9" fill-rule="evenodd" fill-opacity="1" stroke="#000000" stroke-opacity="1" stroke-width="3.2"/>
<circle clip-path="url(#clip283)" cx="1462.03" cy="1431.58" r="14" fill="#009af9" fill-rule="evenodd" fill-opacity="1" stroke="#000000" stroke-opacity="1" stroke-width="3.2"/>
<circle clip-path="url(#clip283)" cx="1475.63" cy="1428.8" r="14" fill="#009af9" fill-rule="evenodd" fill-opacity="1" stroke="#000000" stroke-opacity="1" stroke-width="3.2"/>
<circle clip-path="url(#clip283)" cx="1489.24" cy="1424.94" r="14" fill="#009af9" fill-rule="evenodd" fill-opacity="1" stroke="#000000" stroke-opacity="1" stroke-width="3.2"/>
<circle clip-path="url(#clip283)" cx="1502.84" cy="1419.37" r="14" fill="#009af9" fill-rule="evenodd" fill-opacity="1" stroke="#000000" stroke-opacity="1" stroke-width="3.2"/>
<circle clip-path="url(#clip283)" cx="1516.45" cy="1411.01" r="14" fill="#009af9" fill-rule="evenodd" fill-opacity="1" stroke="#000000" stroke-opacity="1" stroke-width="3.2"/>
<circle clip-path="url(#clip283)" cx="1530.05" cy="1397.85" r="14" fill="#009af9" fill-rule="evenodd" fill-opacity="1" stroke="#000000" stroke-opacity="1" stroke-width="3.2"/>
<circle clip-path="url(#clip283)" cx="1543.66" cy="1375.35" r="14" fill="#009af9" fill-rule="evenodd" fill-opacity="1" stroke="#000000" stroke-opacity="1" stroke-width="3.2"/>
<circle clip-path="url(#clip283)" cx="1557.26" cy="1332.39" r="14" fill="#009af9" fill-rule="evenodd" fill-opacity="1" stroke="#000000" stroke-opacity="1" stroke-width="3.2"/>
<circle clip-path="url(#clip283)" cx="1570.87" cy="1239.74" r="14" fill="#009af9" fill-rule="evenodd" fill-opacity="1" stroke="#000000" stroke-opacity="1" stroke-width="3.2"/>
<circle clip-path="url(#clip283)" cx="1584.47" cy="1016.07" r="14" fill="#009af9" fill-rule="evenodd" fill-opacity="1" stroke="#000000" stroke-opacity="1" stroke-width="3.2"/>
<circle clip-path="url(#clip283)" cx="1598.08" cy="517.605" r="14" fill="#009af9" fill-rule="evenodd" fill-opacity="1" stroke="#000000" stroke-opacity="1" stroke-width="3.2"/>
<circle clip-path="url(#clip283)" cx="1611.69" cy="87.9763" r="14" fill="#009af9" fill-rule="evenodd" fill-opacity="1" stroke="#000000" stroke-opacity="1" stroke-width="3.2"/>
<circle clip-path="url(#clip283)" cx="1625.29" cy="761.875" r="14" fill="#009af9" fill-rule="evenodd" fill-opacity="1" stroke="#000000" stroke-opacity="1" stroke-width="3.2"/>
<circle clip-path="url(#clip283)" cx="1638.9" cy="1215.68" r="14" fill="#009af9" fill-rule="evenodd" fill-opacity="1" stroke="#000000" stroke-opacity="1" stroke-width="3.2"/>
<circle clip-path="url(#clip283)" cx="1652.5" cy="1347.4" r="14" fill="#009af9" fill-rule="evenodd" fill-opacity="1" stroke="#000000" stroke-opacity="1" stroke-width="3.2"/>
<circle clip-path="url(#clip283)" cx="1666.11" cy="1393.26" r="14" fill="#009af9" fill-rule="evenodd" fill-opacity="1" stroke="#000000" stroke-opacity="1" stroke-width="3.2"/>
<circle clip-path="url(#clip283)" cx="1679.71" cy="1413.55" r="14" fill="#009af9" fill-rule="evenodd" fill-opacity="1" stroke="#000000" stroke-opacity="1" stroke-width="3.2"/>
<circle clip-path="url(#clip283)" cx="1693.32" cy="1424.26" r="14" fill="#009af9" fill-rule="evenodd" fill-opacity="1" stroke="#000000" stroke-opacity="1" stroke-width="3.2"/>
<circle clip-path="url(#clip283)" cx="1706.92" cy="1430.48" r="14" fill="#009af9" fill-rule="evenodd" fill-opacity="1" stroke="#000000" stroke-opacity="1" stroke-width="3.2"/>
<circle clip-path="url(#clip283)" cx="1720.53" cy="1434.41" r="14" fill="#009af9" fill-rule="evenodd" fill-opacity="1" stroke="#000000" stroke-opacity="1" stroke-width="3.2"/>
<circle clip-path="url(#clip283)" cx="1734.13" cy="1437.05" r="14" fill="#009af9" fill-rule="evenodd" fill-opacity="1" stroke="#000000" stroke-opacity="1" stroke-width="3.2"/>
<circle clip-path="url(#clip283)" cx="1747.74" cy="1438.92" r="14" fill="#009af9" fill-rule="evenodd" fill-opacity="1" stroke="#000000" stroke-opacity="1" stroke-width="3.2"/>
<circle clip-path="url(#clip283)" cx="1761.34" cy="1440.31" r="14" fill="#009af9" fill-rule="evenodd" fill-opacity="1" stroke="#000000" stroke-opacity="1" stroke-width="3.2"/>
<circle clip-path="url(#clip283)" cx="1774.95" cy="1441.36" r="14" fill="#009af9" fill-rule="evenodd" fill-opacity="1" stroke="#000000" stroke-opacity="1" stroke-width="3.2"/>
<circle clip-path="url(#clip283)" cx="1788.55" cy="1442.19" r="14" fill="#009af9" fill-rule="evenodd" fill-opacity="1" stroke="#000000" stroke-opacity="1" stroke-width="3.2"/>
<circle clip-path="url(#clip283)" cx="1802.16" cy="1442.85" r="14" fill="#009af9" fill-rule="evenodd" fill-opacity="1" stroke="#000000" stroke-opacity="1" stroke-width="3.2"/>
<circle clip-path="url(#clip283)" cx="1815.76" cy="1443.39" r="14" fill="#009af9" fill-rule="evenodd" fill-opacity="1" stroke="#000000" stroke-opacity="1" stroke-width="3.2"/>
<circle clip-path="url(#clip283)" cx="1829.37" cy="1443.83" r="14" fill="#009af9" fill-rule="evenodd" fill-opacity="1" stroke="#000000" stroke-opacity="1" stroke-width="3.2"/>
<circle clip-path="url(#clip283)" cx="1842.97" cy="1444.2" r="14" fill="#009af9" fill-rule="evenodd" fill-opacity="1" stroke="#000000" stroke-opacity="1" stroke-width="3.2"/>
<circle clip-path="url(#clip283)" cx="1856.58" cy="1444.51" r="14" fill="#009af9" fill-rule="evenodd" fill-opacity="1" stroke="#000000" stroke-opacity="1" stroke-width="3.2"/>
<circle clip-path="url(#clip283)" cx="1870.18" cy="1444.77" r="14" fill="#009af9" fill-rule="evenodd" fill-opacity="1" stroke="#000000" stroke-opacity="1" stroke-width="3.2"/>
<circle clip-path="url(#clip283)" cx="1883.79" cy="1445" r="14" fill="#009af9" fill-rule="evenodd" fill-opacity="1" stroke="#000000" stroke-opacity="1" stroke-width="3.2"/>
<circle clip-path="url(#clip283)" cx="1897.39" cy="1445.19" r="14" fill="#009af9" fill-rule="evenodd" fill-opacity="1" stroke="#000000" stroke-opacity="1" stroke-width="3.2"/>
<circle clip-path="url(#clip283)" cx="1911" cy="1445.35" r="14" fill="#009af9" fill-rule="evenodd" fill-opacity="1" stroke="#000000" stroke-opacity="1" stroke-width="3.2"/>
<circle clip-path="url(#clip283)" cx="1924.6" cy="1445.49" r="14" fill="#009af9" fill-rule="evenodd" fill-opacity="1" stroke="#000000" stroke-opacity="1" stroke-width="3.2"/>
<circle clip-path="url(#clip283)" cx="1938.21" cy="1445.61" r="14" fill="#009af9" fill-rule="evenodd" fill-opacity="1" stroke="#000000" stroke-opacity="1" stroke-width="3.2"/>
<circle clip-path="url(#clip283)" cx="1951.81" cy="1445.72" r="14" fill="#009af9" fill-rule="evenodd" fill-opacity="1" stroke="#000000" stroke-opacity="1" stroke-width="3.2"/>
<circle clip-path="url(#clip283)" cx="1965.42" cy="1445.63" r="14" fill="#009af9" fill-rule="evenodd" fill-opacity="1" stroke="#000000" stroke-opacity="1" stroke-width="3.2"/>
<circle clip-path="url(#clip283)" cx="1979.02" cy="1445.55" r="14" fill="#009af9" fill-rule="evenodd" fill-opacity="1" stroke="#000000" stroke-opacity="1" stroke-width="3.2"/>
<circle clip-path="url(#clip283)" cx="1992.63" cy="1445.48" r="14" fill="#009af9" fill-rule="evenodd" fill-opacity="1" stroke="#000000" stroke-opacity="1" stroke-width="3.2"/>
<circle clip-path="url(#clip283)" cx="2006.23" cy="1445.42" r="14" fill="#009af9" fill-rule="evenodd" fill-opacity="1" stroke="#000000" stroke-opacity="1" stroke-width="3.2"/>
<circle clip-path="url(#clip283)" cx="2019.84" cy="1445.37" r="14" fill="#009af9" fill-rule="evenodd" fill-opacity="1" stroke="#000000" stroke-opacity="1" stroke-width="3.2"/>
<circle clip-path="url(#clip283)" cx="2033.44" cy="1445.32" r="14" fill="#009af9" fill-rule="evenodd" fill-opacity="1" stroke="#000000" stroke-opacity="1" stroke-width="3.2"/>
<circle clip-path="url(#clip283)" cx="2047.05" cy="1445.29" r="14" fill="#009af9" fill-rule="evenodd" fill-opacity="1" stroke="#000000" stroke-opacity="1" stroke-width="3.2"/>
<circle clip-path="url(#clip283)" cx="2060.65" cy="1445.25" r="14" fill="#009af9" fill-rule="evenodd" fill-opacity="1" stroke="#000000" stroke-opacity="1" stroke-width="3.2"/>
<circle clip-path="url(#clip283)" cx="2074.26" cy="1445.22" r="14" fill="#009af9" fill-rule="evenodd" fill-opacity="1" stroke="#000000" stroke-opacity="1" stroke-width="3.2"/>
<circle clip-path="url(#clip283)" cx="2087.86" cy="1445.2" r="14" fill="#009af9" fill-rule="evenodd" fill-opacity="1" stroke="#000000" stroke-opacity="1" stroke-width="3.2"/>
<circle clip-path="url(#clip283)" cx="2101.47" cy="1445.18" r="14" fill="#009af9" fill-rule="evenodd" fill-opacity="1" stroke="#000000" stroke-opacity="1" stroke-width="3.2"/>
<circle clip-path="url(#clip283)" cx="2115.07" cy="1445.16" r="14" fill="#009af9" fill-rule="evenodd" fill-opacity="1" stroke="#000000" stroke-opacity="1" stroke-width="3.2"/>
<circle clip-path="url(#clip283)" cx="2128.68" cy="1445.14" r="14" fill="#009af9" fill-rule="evenodd" fill-opacity="1" stroke="#000000" stroke-opacity="1" stroke-width="3.2"/>
<circle clip-path="url(#clip283)" cx="2142.28" cy="1445.13" r="14" fill="#009af9" fill-rule="evenodd" fill-opacity="1" stroke="#000000" stroke-opacity="1" stroke-width="3.2"/>
<circle clip-path="url(#clip283)" cx="2155.89" cy="1445.11" r="14" fill="#009af9" fill-rule="evenodd" fill-opacity="1" stroke="#000000" stroke-opacity="1" stroke-width="3.2"/>
<circle clip-path="url(#clip283)" cx="2169.49" cy="1445.1" r="14" fill="#009af9" fill-rule="evenodd" fill-opacity="1" stroke="#000000" stroke-opacity="1" stroke-width="3.2"/>
<circle clip-path="url(#clip283)" cx="2183.1" cy="1445.1" r="14" fill="#009af9" fill-rule="evenodd" fill-opacity="1" stroke="#000000" stroke-opacity="1" stroke-width="3.2"/>
<circle clip-path="url(#clip283)" cx="2196.71" cy="1445.09" r="14" fill="#009af9" fill-rule="evenodd" fill-opacity="1" stroke="#000000" stroke-opacity="1" stroke-width="3.2"/>
<circle clip-path="url(#clip283)" cx="2210.31" cy="1445.08" r="14" fill="#009af9" fill-rule="evenodd" fill-opacity="1" stroke="#000000" stroke-opacity="1" stroke-width="3.2"/>
<circle clip-path="url(#clip283)" cx="2223.92" cy="1445.08" r="14" fill="#009af9" fill-rule="evenodd" fill-opacity="1" stroke="#000000" stroke-opacity="1" stroke-width="3.2"/>
<circle clip-path="url(#clip283)" cx="2237.52" cy="1445.07" r="14" fill="#009af9" fill-rule="evenodd" fill-opacity="1" stroke="#000000" stroke-opacity="1" stroke-width="3.2"/>
<circle clip-path="url(#clip283)" cx="2251.13" cy="1445.07" r="14" fill="#009af9" fill-rule="evenodd" fill-opacity="1" stroke="#000000" stroke-opacity="1" stroke-width="3.2"/>
<circle clip-path="url(#clip283)" cx="2264.73" cy="1445.07" r="14" fill="#009af9" fill-rule="evenodd" fill-opacity="1" stroke="#000000" stroke-opacity="1" stroke-width="3.2"/>
<circle clip-path="url(#clip283)" cx="2278.34" cy="1445.07" r="14" fill="#009af9" fill-rule="evenodd" fill-opacity="1" stroke="#000000" stroke-opacity="1" stroke-width="3.2"/>
<circle clip-path="url(#clip283)" cx="2291.94" cy="1445.07" r="14" fill="#009af9" fill-rule="evenodd" fill-opacity="1" stroke="#000000" stroke-opacity="1" stroke-width="3.2"/>
<circle clip-path="url(#clip283)" cx="264.778" cy="1444.84" r="14" fill="#e26f46" fill-rule="evenodd" fill-opacity="1" stroke="#000000" stroke-opacity="1" stroke-width="3.2"/>
<circle clip-path="url(#clip283)" cx="278.384" cy="1444.84" r="14" fill="#e26f46" fill-rule="evenodd" fill-opacity="1" stroke="#000000" stroke-opacity="1" stroke-width="3.2"/>
<circle clip-path="url(#clip283)" cx="291.989" cy="1444.84" r="14" fill="#e26f46" fill-rule="evenodd" fill-opacity="1" stroke="#000000" stroke-opacity="1" stroke-width="3.2"/>
<circle clip-path="url(#clip283)" cx="305.594" cy="1444.84" r="14" fill="#e26f46" fill-rule="evenodd" fill-opacity="1" stroke="#000000" stroke-opacity="1" stroke-width="3.2"/>
<circle clip-path="url(#clip283)" cx="319.199" cy="1444.84" r="14" fill="#e26f46" fill-rule="evenodd" fill-opacity="1" stroke="#000000" stroke-opacity="1" stroke-width="3.2"/>
<circle clip-path="url(#clip283)" cx="332.804" cy="1444.84" r="14" fill="#e26f46" fill-rule="evenodd" fill-opacity="1" stroke="#000000" stroke-opacity="1" stroke-width="3.2"/>
<circle clip-path="url(#clip283)" cx="346.409" cy="1444.84" r="14" fill="#e26f46" fill-rule="evenodd" fill-opacity="1" stroke="#000000" stroke-opacity="1" stroke-width="3.2"/>
<circle clip-path="url(#clip283)" cx="360.014" cy="1444.85" r="14" fill="#e26f46" fill-rule="evenodd" fill-opacity="1" stroke="#000000" stroke-opacity="1" stroke-width="3.2"/>
<circle clip-path="url(#clip283)" cx="373.619" cy="1444.85" r="14" fill="#e26f46" fill-rule="evenodd" fill-opacity="1" stroke="#000000" stroke-opacity="1" stroke-width="3.2"/>
<circle clip-path="url(#clip283)" cx="387.225" cy="1444.86" r="14" fill="#e26f46" fill-rule="evenodd" fill-opacity="1" stroke="#000000" stroke-opacity="1" stroke-width="3.2"/>
<circle clip-path="url(#clip283)" cx="400.83" cy="1444.86" r="14" fill="#e26f46" fill-rule="evenodd" fill-opacity="1" stroke="#000000" stroke-opacity="1" stroke-width="3.2"/>
<circle clip-path="url(#clip283)" cx="414.435" cy="1444.87" r="14" fill="#e26f46" fill-rule="evenodd" fill-opacity="1" stroke="#000000" stroke-opacity="1" stroke-width="3.2"/>
<circle clip-path="url(#clip283)" cx="428.04" cy="1444.88" r="14" fill="#e26f46" fill-rule="evenodd" fill-opacity="1" stroke="#000000" stroke-opacity="1" stroke-width="3.2"/>
<circle clip-path="url(#clip283)" cx="441.645" cy="1444.89" r="14" fill="#e26f46" fill-rule="evenodd" fill-opacity="1" stroke="#000000" stroke-opacity="1" stroke-width="3.2"/>
<circle clip-path="url(#clip283)" cx="455.25" cy="1444.9" r="14" fill="#e26f46" fill-rule="evenodd" fill-opacity="1" stroke="#000000" stroke-opacity="1" stroke-width="3.2"/>
<circle clip-path="url(#clip283)" cx="468.855" cy="1444.91" r="14" fill="#e26f46" fill-rule="evenodd" fill-opacity="1" stroke="#000000" stroke-opacity="1" stroke-width="3.2"/>
<circle clip-path="url(#clip283)" cx="482.46" cy="1444.92" r="14" fill="#e26f46" fill-rule="evenodd" fill-opacity="1" stroke="#000000" stroke-opacity="1" stroke-width="3.2"/>
<circle clip-path="url(#clip283)" cx="496.065" cy="1444.94" r="14" fill="#e26f46" fill-rule="evenodd" fill-opacity="1" stroke="#000000" stroke-opacity="1" stroke-width="3.2"/>
<circle clip-path="url(#clip283)" cx="509.671" cy="1444.96" r="14" fill="#e26f46" fill-rule="evenodd" fill-opacity="1" stroke="#000000" stroke-opacity="1" stroke-width="3.2"/>
<circle clip-path="url(#clip283)" cx="523.276" cy="1444.98" r="14" fill="#e26f46" fill-rule="evenodd" fill-opacity="1" stroke="#000000" stroke-opacity="1" stroke-width="3.2"/>
<circle clip-path="url(#clip283)" cx="536.881" cy="1445.01" r="14" fill="#e26f46" fill-rule="evenodd" fill-opacity="1" stroke="#000000" stroke-opacity="1" stroke-width="3.2"/>
<circle clip-path="url(#clip283)" cx="550.486" cy="1445.04" r="14" fill="#e26f46" fill-rule="evenodd" fill-opacity="1" stroke="#000000" stroke-opacity="1" stroke-width="3.2"/>
<circle clip-path="url(#clip283)" cx="564.091" cy="1445.07" r="14" fill="#e26f46" fill-rule="evenodd" fill-opacity="1" stroke="#000000" stroke-opacity="1" stroke-width="3.2"/>
<circle clip-path="url(#clip283)" cx="577.696" cy="1445.12" r="14" fill="#e26f46" fill-rule="evenodd" fill-opacity="1" stroke="#000000" stroke-opacity="1" stroke-width="3.2"/>
<circle clip-path="url(#clip283)" cx="591.301" cy="1445.16" r="14" fill="#e26f46" fill-rule="evenodd" fill-opacity="1" stroke="#000000" stroke-opacity="1" stroke-width="3.2"/>
<circle clip-path="url(#clip283)" cx="604.906" cy="1445.22" r="14" fill="#e26f46" fill-rule="evenodd" fill-opacity="1" stroke="#000000" stroke-opacity="1" stroke-width="3.2"/>
<circle clip-path="url(#clip283)" cx="618.512" cy="1445.28" r="14" fill="#e26f46" fill-rule="evenodd" fill-opacity="1" stroke="#000000" stroke-opacity="1" stroke-width="3.2"/>
<circle clip-path="url(#clip283)" cx="632.117" cy="1445.35" r="14" fill="#e26f46" fill-rule="evenodd" fill-opacity="1" stroke="#000000" stroke-opacity="1" stroke-width="3.2"/>
<circle clip-path="url(#clip283)" cx="645.722" cy="1445.44" r="14" fill="#e26f46" fill-rule="evenodd" fill-opacity="1" stroke="#000000" stroke-opacity="1" stroke-width="3.2"/>
<circle clip-path="url(#clip283)" cx="659.327" cy="1445.54" r="14" fill="#e26f46" fill-rule="evenodd" fill-opacity="1" stroke="#000000" stroke-opacity="1" stroke-width="3.2"/>
<circle clip-path="url(#clip283)" cx="672.932" cy="1445.65" r="14" fill="#e26f46" fill-rule="evenodd" fill-opacity="1" stroke="#000000" stroke-opacity="1" stroke-width="3.2"/>
<circle clip-path="url(#clip283)" cx="686.537" cy="1445.66" r="14" fill="#e26f46" fill-rule="evenodd" fill-opacity="1" stroke="#000000" stroke-opacity="1" stroke-width="3.2"/>
<circle clip-path="url(#clip283)" cx="700.142" cy="1445.51" r="14" fill="#e26f46" fill-rule="evenodd" fill-opacity="1" stroke="#000000" stroke-opacity="1" stroke-width="3.2"/>
<circle clip-path="url(#clip283)" cx="713.747" cy="1445.34" r="14" fill="#e26f46" fill-rule="evenodd" fill-opacity="1" stroke="#000000" stroke-opacity="1" stroke-width="3.2"/>
<circle clip-path="url(#clip283)" cx="727.352" cy="1445.15" r="14" fill="#e26f46" fill-rule="evenodd" fill-opacity="1" stroke="#000000" stroke-opacity="1" stroke-width="3.2"/>
<circle clip-path="url(#clip283)" cx="740.958" cy="1444.93" r="14" fill="#e26f46" fill-rule="evenodd" fill-opacity="1" stroke="#000000" stroke-opacity="1" stroke-width="3.2"/>
<circle clip-path="url(#clip283)" cx="754.563" cy="1444.69" r="14" fill="#e26f46" fill-rule="evenodd" fill-opacity="1" stroke="#000000" stroke-opacity="1" stroke-width="3.2"/>
<circle clip-path="url(#clip283)" cx="768.168" cy="1444.42" r="14" fill="#e26f46" fill-rule="evenodd" fill-opacity="1" stroke="#000000" stroke-opacity="1" stroke-width="3.2"/>
<circle clip-path="url(#clip283)" cx="781.773" cy="1444.12" r="14" fill="#e26f46" fill-rule="evenodd" fill-opacity="1" stroke="#000000" stroke-opacity="1" stroke-width="3.2"/>
<circle clip-path="url(#clip283)" cx="795.378" cy="1443.79" r="14" fill="#e26f46" fill-rule="evenodd" fill-opacity="1" stroke="#000000" stroke-opacity="1" stroke-width="3.2"/>
<circle clip-path="url(#clip283)" cx="808.983" cy="1443.44" r="14" fill="#e26f46" fill-rule="evenodd" fill-opacity="1" stroke="#000000" stroke-opacity="1" stroke-width="3.2"/>
<circle clip-path="url(#clip283)" cx="822.588" cy="1443.07" r="14" fill="#e26f46" fill-rule="evenodd" fill-opacity="1" stroke="#000000" stroke-opacity="1" stroke-width="3.2"/>
<circle clip-path="url(#clip283)" cx="836.193" cy="1442.69" r="14" fill="#e26f46" fill-rule="evenodd" fill-opacity="1" stroke="#000000" stroke-opacity="1" stroke-width="3.2"/>
<circle clip-path="url(#clip283)" cx="849.799" cy="1442.31" r="14" fill="#e26f46" fill-rule="evenodd" fill-opacity="1" stroke="#000000" stroke-opacity="1" stroke-width="3.2"/>
<circle clip-path="url(#clip283)" cx="863.404" cy="1441.94" r="14" fill="#e26f46" fill-rule="evenodd" fill-opacity="1" stroke="#000000" stroke-opacity="1" stroke-width="3.2"/>
<circle clip-path="url(#clip283)" cx="877.009" cy="1441.61" r="14" fill="#e26f46" fill-rule="evenodd" fill-opacity="1" stroke="#000000" stroke-opacity="1" stroke-width="3.2"/>
<circle clip-path="url(#clip283)" cx="890.614" cy="1441.32" r="14" fill="#e26f46" fill-rule="evenodd" fill-opacity="1" stroke="#000000" stroke-opacity="1" stroke-width="3.2"/>
<circle clip-path="url(#clip283)" cx="904.219" cy="1441.11" r="14" fill="#e26f46" fill-rule="evenodd" fill-opacity="1" stroke="#000000" stroke-opacity="1" stroke-width="3.2"/>
<circle clip-path="url(#clip283)" cx="917.824" cy="1440.97" r="14" fill="#e26f46" fill-rule="evenodd" fill-opacity="1" stroke="#000000" stroke-opacity="1" stroke-width="3.2"/>
<circle clip-path="url(#clip283)" cx="931.429" cy="1440.92" r="14" fill="#e26f46" fill-rule="evenodd" fill-opacity="1" stroke="#000000" stroke-opacity="1" stroke-width="3.2"/>
<circle clip-path="url(#clip283)" cx="945.034" cy="1440.92" r="14" fill="#e26f46" fill-rule="evenodd" fill-opacity="1" stroke="#000000" stroke-opacity="1" stroke-width="3.2"/>
<circle clip-path="url(#clip283)" cx="958.639" cy="1440.91" r="14" fill="#e26f46" fill-rule="evenodd" fill-opacity="1" stroke="#000000" stroke-opacity="1" stroke-width="3.2"/>
<circle clip-path="url(#clip283)" cx="972.245" cy="1440.89" r="14" fill="#e26f46" fill-rule="evenodd" fill-opacity="1" stroke="#000000" stroke-opacity="1" stroke-width="3.2"/>
<circle clip-path="url(#clip283)" cx="985.85" cy="1440.87" r="14" fill="#e26f46" fill-rule="evenodd" fill-opacity="1" stroke="#000000" stroke-opacity="1" stroke-width="3.2"/>
<circle clip-path="url(#clip283)" cx="999.455" cy="1440.84" r="14" fill="#e26f46" fill-rule="evenodd" fill-opacity="1" stroke="#000000" stroke-opacity="1" stroke-width="3.2"/>
<circle clip-path="url(#clip283)" cx="1013.06" cy="1440.81" r="14" fill="#e26f46" fill-rule="evenodd" fill-opacity="1" stroke="#000000" stroke-opacity="1" stroke-width="3.2"/>
<circle clip-path="url(#clip283)" cx="1026.67" cy="1440.76" r="14" fill="#e26f46" fill-rule="evenodd" fill-opacity="1" stroke="#000000" stroke-opacity="1" stroke-width="3.2"/>
<circle clip-path="url(#clip283)" cx="1040.27" cy="1440.71" r="14" fill="#e26f46" fill-rule="evenodd" fill-opacity="1" stroke="#000000" stroke-opacity="1" stroke-width="3.2"/>
<circle clip-path="url(#clip283)" cx="1053.88" cy="1440.65" r="14" fill="#e26f46" fill-rule="evenodd" fill-opacity="1" stroke="#000000" stroke-opacity="1" stroke-width="3.2"/>
<circle clip-path="url(#clip283)" cx="1067.48" cy="1440.59" r="14" fill="#e26f46" fill-rule="evenodd" fill-opacity="1" stroke="#000000" stroke-opacity="1" stroke-width="3.2"/>
<circle clip-path="url(#clip283)" cx="1081.09" cy="1440.51" r="14" fill="#e26f46" fill-rule="evenodd" fill-opacity="1" stroke="#000000" stroke-opacity="1" stroke-width="3.2"/>
<circle clip-path="url(#clip283)" cx="1094.69" cy="1440.43" r="14" fill="#e26f46" fill-rule="evenodd" fill-opacity="1" stroke="#000000" stroke-opacity="1" stroke-width="3.2"/>
<circle clip-path="url(#clip283)" cx="1108.3" cy="1440.33" r="14" fill="#e26f46" fill-rule="evenodd" fill-opacity="1" stroke="#000000" stroke-opacity="1" stroke-width="3.2"/>
<circle clip-path="url(#clip283)" cx="1121.9" cy="1440.23" r="14" fill="#e26f46" fill-rule="evenodd" fill-opacity="1" stroke="#000000" stroke-opacity="1" stroke-width="3.2"/>
<circle clip-path="url(#clip283)" cx="1135.51" cy="1440.11" r="14" fill="#e26f46" fill-rule="evenodd" fill-opacity="1" stroke="#000000" stroke-opacity="1" stroke-width="3.2"/>
<circle clip-path="url(#clip283)" cx="1149.11" cy="1439.98" r="14" fill="#e26f46" fill-rule="evenodd" fill-opacity="1" stroke="#000000" stroke-opacity="1" stroke-width="3.2"/>
<circle clip-path="url(#clip283)" cx="1162.72" cy="1439.84" r="14" fill="#e26f46" fill-rule="evenodd" fill-opacity="1" stroke="#000000" stroke-opacity="1" stroke-width="3.2"/>
<circle clip-path="url(#clip283)" cx="1176.32" cy="1439.68" r="14" fill="#e26f46" fill-rule="evenodd" fill-opacity="1" stroke="#000000" stroke-opacity="1" stroke-width="3.2"/>
<circle clip-path="url(#clip283)" cx="1189.93" cy="1439.51" r="14" fill="#e26f46" fill-rule="evenodd" fill-opacity="1" stroke="#000000" stroke-opacity="1" stroke-width="3.2"/>
<circle clip-path="url(#clip283)" cx="1203.53" cy="1439.32" r="14" fill="#e26f46" fill-rule="evenodd" fill-opacity="1" stroke="#000000" stroke-opacity="1" stroke-width="3.2"/>
<circle clip-path="url(#clip283)" cx="1217.14" cy="1439.11" r="14" fill="#e26f46" fill-rule="evenodd" fill-opacity="1" stroke="#000000" stroke-opacity="1" stroke-width="3.2"/>
<circle clip-path="url(#clip283)" cx="1230.74" cy="1438.87" r="14" fill="#e26f46" fill-rule="evenodd" fill-opacity="1" stroke="#000000" stroke-opacity="1" stroke-width="3.2"/>
<circle clip-path="url(#clip283)" cx="1244.35" cy="1438.61" r="14" fill="#e26f46" fill-rule="evenodd" fill-opacity="1" stroke="#000000" stroke-opacity="1" stroke-width="3.2"/>
<circle clip-path="url(#clip283)" cx="1257.95" cy="1438.32" r="14" fill="#e26f46" fill-rule="evenodd" fill-opacity="1" stroke="#000000" stroke-opacity="1" stroke-width="3.2"/>
<circle clip-path="url(#clip283)" cx="1271.56" cy="1438" r="14" fill="#e26f46" fill-rule="evenodd" fill-opacity="1" stroke="#000000" stroke-opacity="1" stroke-width="3.2"/>
<circle clip-path="url(#clip283)" cx="1285.16" cy="1437.64" r="14" fill="#e26f46" fill-rule="evenodd" fill-opacity="1" stroke="#000000" stroke-opacity="1" stroke-width="3.2"/>
<circle clip-path="url(#clip283)" cx="1298.77" cy="1437.24" r="14" fill="#e26f46" fill-rule="evenodd" fill-opacity="1" stroke="#000000" stroke-opacity="1" stroke-width="3.2"/>
<circle clip-path="url(#clip283)" cx="1312.37" cy="1436.79" r="14" fill="#e26f46" fill-rule="evenodd" fill-opacity="1" stroke="#000000" stroke-opacity="1" stroke-width="3.2"/>
<circle clip-path="url(#clip283)" cx="1325.98" cy="1436.29" r="14" fill="#e26f46" fill-rule="evenodd" fill-opacity="1" stroke="#000000" stroke-opacity="1" stroke-width="3.2"/>
<circle clip-path="url(#clip283)" cx="1339.58" cy="1435.72" r="14" fill="#e26f46" fill-rule="evenodd" fill-opacity="1" stroke="#000000" stroke-opacity="1" stroke-width="3.2"/>
<circle clip-path="url(#clip283)" cx="1353.19" cy="1435.09" r="14" fill="#e26f46" fill-rule="evenodd" fill-opacity="1" stroke="#000000" stroke-opacity="1" stroke-width="3.2"/>
<circle clip-path="url(#clip283)" cx="1366.79" cy="1434.37" r="14" fill="#e26f46" fill-rule="evenodd" fill-opacity="1" stroke="#000000" stroke-opacity="1" stroke-width="3.2"/>
<circle clip-path="url(#clip283)" cx="1380.4" cy="1433.56" r="14" fill="#e26f46" fill-rule="evenodd" fill-opacity="1" stroke="#000000" stroke-opacity="1" stroke-width="3.2"/>
<circle clip-path="url(#clip283)" cx="1394" cy="1432.63" r="14" fill="#e26f46" fill-rule="evenodd" fill-opacity="1" stroke="#000000" stroke-opacity="1" stroke-width="3.2"/>
<circle clip-path="url(#clip283)" cx="1407.61" cy="1431.58" r="14" fill="#e26f46" fill-rule="evenodd" fill-opacity="1" stroke="#000000" stroke-opacity="1" stroke-width="3.2"/>
<circle clip-path="url(#clip283)" cx="1421.21" cy="1430.39" r="14" fill="#e26f46" fill-rule="evenodd" fill-opacity="1" stroke="#000000" stroke-opacity="1" stroke-width="3.2"/>
<circle clip-path="url(#clip283)" cx="1434.82" cy="1429.03" r="14" fill="#e26f46" fill-rule="evenodd" fill-opacity="1" stroke="#000000" stroke-opacity="1" stroke-width="3.2"/>
<circle clip-path="url(#clip283)" cx="1448.42" cy="1427.49" r="14" fill="#e26f46" fill-rule="evenodd" fill-opacity="1" stroke="#000000" stroke-opacity="1" stroke-width="3.2"/>
<circle clip-path="url(#clip283)" cx="1462.03" cy="1425.74" r="14" fill="#e26f46" fill-rule="evenodd" fill-opacity="1" stroke="#000000" stroke-opacity="1" stroke-width="3.2"/>
<circle clip-path="url(#clip283)" cx="1475.63" cy="1423.78" r="14" fill="#e26f46" fill-rule="evenodd" fill-opacity="1" stroke="#000000" stroke-opacity="1" stroke-width="3.2"/>
<circle clip-path="url(#clip283)" cx="1489.24" cy="1421.59" r="14" fill="#e26f46" fill-rule="evenodd" fill-opacity="1" stroke="#000000" stroke-opacity="1" stroke-width="3.2"/>
<circle clip-path="url(#clip283)" cx="1502.84" cy="1419.19" r="14" fill="#e26f46" fill-rule="evenodd" fill-opacity="1" stroke="#000000" stroke-opacity="1" stroke-width="3.2"/>
<circle clip-path="url(#clip283)" cx="1516.45" cy="1416.59" r="14" fill="#e26f46" fill-rule="evenodd" fill-opacity="1" stroke="#000000" stroke-opacity="1" stroke-width="3.2"/>
<circle clip-path="url(#clip283)" cx="1530.05" cy="1413.86" r="14" fill="#e26f46" fill-rule="evenodd" fill-opacity="1" stroke="#000000" stroke-opacity="1" stroke-width="3.2"/>
<circle clip-path="url(#clip283)" cx="1543.66" cy="1411.1" r="14" fill="#e26f46" fill-rule="evenodd" fill-opacity="1" stroke="#000000" stroke-opacity="1" stroke-width="3.2"/>
<circle clip-path="url(#clip283)" cx="1557.26" cy="1408.45" r="14" fill="#e26f46" fill-rule="evenodd" fill-opacity="1" stroke="#000000" stroke-opacity="1" stroke-width="3.2"/>
<circle clip-path="url(#clip283)" cx="1570.87" cy="1406.09" r="14" fill="#e26f46" fill-rule="evenodd" fill-opacity="1" stroke="#000000" stroke-opacity="1" stroke-width="3.2"/>
<circle clip-path="url(#clip283)" cx="1584.47" cy="1404.21" r="14" fill="#e26f46" fill-rule="evenodd" fill-opacity="1" stroke="#000000" stroke-opacity="1" stroke-width="3.2"/>
<circle clip-path="url(#clip283)" cx="1598.08" cy="1402.99" r="14" fill="#e26f46" fill-rule="evenodd" fill-opacity="1" stroke="#000000" stroke-opacity="1" stroke-width="3.2"/>
<circle clip-path="url(#clip283)" cx="1611.69" cy="1402.57" r="14" fill="#e26f46" fill-rule="evenodd" fill-opacity="1" stroke="#000000" stroke-opacity="1" stroke-width="3.2"/>
<circle clip-path="url(#clip283)" cx="1625.29" cy="1403.41" r="14" fill="#e26f46" fill-rule="evenodd" fill-opacity="1" stroke="#000000" stroke-opacity="1" stroke-width="3.2"/>
<circle clip-path="url(#clip283)" cx="1638.9" cy="1405.77" r="14" fill="#e26f46" fill-rule="evenodd" fill-opacity="1" stroke="#000000" stroke-opacity="1" stroke-width="3.2"/>
<circle clip-path="url(#clip283)" cx="1652.5" cy="1409.25" r="14" fill="#e26f46" fill-rule="evenodd" fill-opacity="1" stroke="#000000" stroke-opacity="1" stroke-width="3.2"/>
<circle clip-path="url(#clip283)" cx="1666.11" cy="1413.35" r="14" fill="#e26f46" fill-rule="evenodd" fill-opacity="1" stroke="#000000" stroke-opacity="1" stroke-width="3.2"/>
<circle clip-path="url(#clip283)" cx="1679.71" cy="1417.63" r="14" fill="#e26f46" fill-rule="evenodd" fill-opacity="1" stroke="#000000" stroke-opacity="1" stroke-width="3.2"/>
<circle clip-path="url(#clip283)" cx="1693.32" cy="1421.75" r="14" fill="#e26f46" fill-rule="evenodd" fill-opacity="1" stroke="#000000" stroke-opacity="1" stroke-width="3.2"/>
<circle clip-path="url(#clip283)" cx="1706.92" cy="1425.51" r="14" fill="#e26f46" fill-rule="evenodd" fill-opacity="1" stroke="#000000" stroke-opacity="1" stroke-width="3.2"/>
<circle clip-path="url(#clip283)" cx="1720.53" cy="1428.82" r="14" fill="#e26f46" fill-rule="evenodd" fill-opacity="1" stroke="#000000" stroke-opacity="1" stroke-width="3.2"/>
<circle clip-path="url(#clip283)" cx="1734.13" cy="1431.69" r="14" fill="#e26f46" fill-rule="evenodd" fill-opacity="1" stroke="#000000" stroke-opacity="1" stroke-width="3.2"/>
<circle clip-path="url(#clip283)" cx="1747.74" cy="1434.12" r="14" fill="#e26f46" fill-rule="evenodd" fill-opacity="1" stroke="#000000" stroke-opacity="1" stroke-width="3.2"/>
<circle clip-path="url(#clip283)" cx="1761.34" cy="1436.17" r="14" fill="#e26f46" fill-rule="evenodd" fill-opacity="1" stroke="#000000" stroke-opacity="1" stroke-width="3.2"/>
<circle clip-path="url(#clip283)" cx="1774.95" cy="1437.88" r="14" fill="#e26f46" fill-rule="evenodd" fill-opacity="1" stroke="#000000" stroke-opacity="1" stroke-width="3.2"/>
<circle clip-path="url(#clip283)" cx="1788.55" cy="1439.31" r="14" fill="#e26f46" fill-rule="evenodd" fill-opacity="1" stroke="#000000" stroke-opacity="1" stroke-width="3.2"/>
<circle clip-path="url(#clip283)" cx="1802.16" cy="1440.51" r="14" fill="#e26f46" fill-rule="evenodd" fill-opacity="1" stroke="#000000" stroke-opacity="1" stroke-width="3.2"/>
<circle clip-path="url(#clip283)" cx="1815.76" cy="1441.5" r="14" fill="#e26f46" fill-rule="evenodd" fill-opacity="1" stroke="#000000" stroke-opacity="1" stroke-width="3.2"/>
<circle clip-path="url(#clip283)" cx="1829.37" cy="1442.33" r="14" fill="#e26f46" fill-rule="evenodd" fill-opacity="1" stroke="#000000" stroke-opacity="1" stroke-width="3.2"/>
<circle clip-path="url(#clip283)" cx="1842.97" cy="1443.02" r="14" fill="#e26f46" fill-rule="evenodd" fill-opacity="1" stroke="#000000" stroke-opacity="1" stroke-width="3.2"/>
<circle clip-path="url(#clip283)" cx="1856.58" cy="1443.6" r="14" fill="#e26f46" fill-rule="evenodd" fill-opacity="1" stroke="#000000" stroke-opacity="1" stroke-width="3.2"/>
<circle clip-path="url(#clip283)" cx="1870.18" cy="1444.08" r="14" fill="#e26f46" fill-rule="evenodd" fill-opacity="1" stroke="#000000" stroke-opacity="1" stroke-width="3.2"/>
<circle clip-path="url(#clip283)" cx="1883.79" cy="1444.48" r="14" fill="#e26f46" fill-rule="evenodd" fill-opacity="1" stroke="#000000" stroke-opacity="1" stroke-width="3.2"/>
<circle clip-path="url(#clip283)" cx="1897.39" cy="1444.82" r="14" fill="#e26f46" fill-rule="evenodd" fill-opacity="1" stroke="#000000" stroke-opacity="1" stroke-width="3.2"/>
<circle clip-path="url(#clip283)" cx="1911" cy="1445.11" r="14" fill="#e26f46" fill-rule="evenodd" fill-opacity="1" stroke="#000000" stroke-opacity="1" stroke-width="3.2"/>
<circle clip-path="url(#clip283)" cx="1924.6" cy="1445.35" r="14" fill="#e26f46" fill-rule="evenodd" fill-opacity="1" stroke="#000000" stroke-opacity="1" stroke-width="3.2"/>
<circle clip-path="url(#clip283)" cx="1938.21" cy="1445.55" r="14" fill="#e26f46" fill-rule="evenodd" fill-opacity="1" stroke="#000000" stroke-opacity="1" stroke-width="3.2"/>
<circle clip-path="url(#clip283)" cx="1951.81" cy="1445.72" r="14" fill="#e26f46" fill-rule="evenodd" fill-opacity="1" stroke="#000000" stroke-opacity="1" stroke-width="3.2"/>
<circle clip-path="url(#clip283)" cx="1965.42" cy="1445.57" r="14" fill="#e26f46" fill-rule="evenodd" fill-opacity="1" stroke="#000000" stroke-opacity="1" stroke-width="3.2"/>
<circle clip-path="url(#clip283)" cx="1979.02" cy="1445.45" r="14" fill="#e26f46" fill-rule="evenodd" fill-opacity="1" stroke="#000000" stroke-opacity="1" stroke-width="3.2"/>
<circle clip-path="url(#clip283)" cx="1992.63" cy="1445.35" r="14" fill="#e26f46" fill-rule="evenodd" fill-opacity="1" stroke="#000000" stroke-opacity="1" stroke-width="3.2"/>
<circle clip-path="url(#clip283)" cx="2006.23" cy="1445.27" r="14" fill="#e26f46" fill-rule="evenodd" fill-opacity="1" stroke="#000000" stroke-opacity="1" stroke-width="3.2"/>
<circle clip-path="url(#clip283)" cx="2019.84" cy="1445.2" r="14" fill="#e26f46" fill-rule="evenodd" fill-opacity="1" stroke="#000000" stroke-opacity="1" stroke-width="3.2"/>
<circle clip-path="url(#clip283)" cx="2033.44" cy="1445.14" r="14" fill="#e26f46" fill-rule="evenodd" fill-opacity="1" stroke="#000000" stroke-opacity="1" stroke-width="3.2"/>
<circle clip-path="url(#clip283)" cx="2047.05" cy="1445.08" r="14" fill="#e26f46" fill-rule="evenodd" fill-opacity="1" stroke="#000000" stroke-opacity="1" stroke-width="3.2"/>
<circle clip-path="url(#clip283)" cx="2060.65" cy="1445.04" r="14" fill="#e26f46" fill-rule="evenodd" fill-opacity="1" stroke="#000000" stroke-opacity="1" stroke-width="3.2"/>
<circle clip-path="url(#clip283)" cx="2074.26" cy="1445" r="14" fill="#e26f46" fill-rule="evenodd" fill-opacity="1" stroke="#000000" stroke-opacity="1" stroke-width="3.2"/>
<circle clip-path="url(#clip283)" cx="2087.86" cy="1444.97" r="14" fill="#e26f46" fill-rule="evenodd" fill-opacity="1" stroke="#000000" stroke-opacity="1" stroke-width="3.2"/>
<circle clip-path="url(#clip283)" cx="2101.47" cy="1444.95" r="14" fill="#e26f46" fill-rule="evenodd" fill-opacity="1" stroke="#000000" stroke-opacity="1" stroke-width="3.2"/>
<circle clip-path="url(#clip283)" cx="2115.07" cy="1444.93" r="14" fill="#e26f46" fill-rule="evenodd" fill-opacity="1" stroke="#000000" stroke-opacity="1" stroke-width="3.2"/>
<circle clip-path="url(#clip283)" cx="2128.68" cy="1444.91" r="14" fill="#e26f46" fill-rule="evenodd" fill-opacity="1" stroke="#000000" stroke-opacity="1" stroke-width="3.2"/>
<circle clip-path="url(#clip283)" cx="2142.28" cy="1444.89" r="14" fill="#e26f46" fill-rule="evenodd" fill-opacity="1" stroke="#000000" stroke-opacity="1" stroke-width="3.2"/>
<circle clip-path="url(#clip283)" cx="2155.89" cy="1444.88" r="14" fill="#e26f46" fill-rule="evenodd" fill-opacity="1" stroke="#000000" stroke-opacity="1" stroke-width="3.2"/>
<circle clip-path="url(#clip283)" cx="2169.49" cy="1444.87" r="14" fill="#e26f46" fill-rule="evenodd" fill-opacity="1" stroke="#000000" stroke-opacity="1" stroke-width="3.2"/>
<circle clip-path="url(#clip283)" cx="2183.1" cy="1444.86" r="14" fill="#e26f46" fill-rule="evenodd" fill-opacity="1" stroke="#000000" stroke-opacity="1" stroke-width="3.2"/>
<circle clip-path="url(#clip283)" cx="2196.71" cy="1444.85" r="14" fill="#e26f46" fill-rule="evenodd" fill-opacity="1" stroke="#000000" stroke-opacity="1" stroke-width="3.2"/>
<circle clip-path="url(#clip283)" cx="2210.31" cy="1444.85" r="14" fill="#e26f46" fill-rule="evenodd" fill-opacity="1" stroke="#000000" stroke-opacity="1" stroke-width="3.2"/>
<circle clip-path="url(#clip283)" cx="2223.92" cy="1444.84" r="14" fill="#e26f46" fill-rule="evenodd" fill-opacity="1" stroke="#000000" stroke-opacity="1" stroke-width="3.2"/>
<circle clip-path="url(#clip283)" cx="2237.52" cy="1444.84" r="14" fill="#e26f46" fill-rule="evenodd" fill-opacity="1" stroke="#000000" stroke-opacity="1" stroke-width="3.2"/>
<circle clip-path="url(#clip283)" cx="2251.13" cy="1444.84" r="14" fill="#e26f46" fill-rule="evenodd" fill-opacity="1" stroke="#000000" stroke-opacity="1" stroke-width="3.2"/>
<circle clip-path="url(#clip283)" cx="2264.73" cy="1444.84" r="14" fill="#e26f46" fill-rule="evenodd" fill-opacity="1" stroke="#000000" stroke-opacity="1" stroke-width="3.2"/>
<circle clip-path="url(#clip283)" cx="2278.34" cy="1444.84" r="14" fill="#e26f46" fill-rule="evenodd" fill-opacity="1" stroke="#000000" stroke-opacity="1" stroke-width="3.2"/>
<circle clip-path="url(#clip283)" cx="2291.94" cy="1444.84" r="14" fill="#e26f46" fill-rule="evenodd" fill-opacity="1" stroke="#000000" stroke-opacity="1" stroke-width="3.2"/>
<path clip-path="url(#clip280)" d="
M1776.41 286.69 L2281.13 286.69 L2281.13 95.2176 L1776.41 95.2176  Z
  " fill="#ffffff" fill-rule="evenodd" fill-opacity="1"/>
<polyline clip-path="url(#clip280)" style="stroke:#000000; stroke-linecap:butt; stroke-linejoin:round; stroke-width:4; stroke-opacity:1; fill:none" points="
  1776.41,286.69 2281.13,286.69 2281.13,95.2176 1776.41,95.2176 1776.41,286.69 
  "/>
<circle clip-path="url(#clip280)" cx="1871.91" cy="159.042" r="23" fill="#009af9" fill-rule="evenodd" fill-opacity="1" stroke="#000000" stroke-opacity="1" stroke-width="5.12"/>
<path clip-path="url(#clip280)" d="M1967.42 177.508 L1975.78 164.605 L1979.18 181.726 L1979.82 184.846 Q1979.96 184.03 1980.39 182.648 Q1980.85 181.23 1980.92 180.875 L1992.16 137.735 Q1992.23 137.452 1992.34 136.991 Q1992.48 136.495 1992.55 136.318 Q1992.62 136.14 1992.73 135.786 Q1992.83 135.431 1992.9 135.325 Q1992.97 135.183 1993.08 134.935 Q1993.19 134.687 1993.33 134.616 Q1993.47 134.545 1993.65 134.403 Q1993.82 134.262 1994.04 134.226 Q1994.29 134.191 1994.53 134.155 Q1994.78 134.12 1995.14 134.12 L2001.48 134.12 Q2003.71 134.12 2003.71 135.573 Q2003.71 137.026 2001.55 137.026 L1995.35 137.026 L1980.71 192.999 Q1980.5 193.814 1980.32 194.133 Q1980.18 194.452 1979.68 194.735 Q1979.18 195.019 1978.3 195.019 L1977.59 195.019 L1972.95 171.943 L1968.59 178.678 L1967.42 177.508 Z" fill="#000000" fill-rule="evenodd" fill-opacity="1" /><path clip-path="url(#clip280)" d="
M2001.33 137.057 L2127.02 137.057 L2127.02 134.042 L2001.33 134.042  Z
  " fill="#000000" fill-rule="evenodd" fill-opacity="1"/>
<path clip-path="url(#clip280)" d="M2006.45 172.376 Q2006.45 167.808 2009.64 164.646 Q2012.82 161.484 2017.13 161.484 Q2020.79 161.484 2023.18 164.459 L2023.18 154.083 Q2023.18 152.303 2022.54 151.858 Q2021.93 151.413 2019.45 151.413 L2019.45 149.914 L2026.36 149.398 L2026.36 178.512 Q2026.36 180.293 2026.97 180.761 Q2027.6 181.206 2030.09 181.206 L2030.09 182.682 L2023.04 183.22 L2023.04 180.035 Q2020.55 183.197 2016.62 183.22 Q2012.5 183.22 2009.47 180.058 Q2006.45 176.896 2006.45 172.376 M2010.43 172.423 Q2010.43 176.873 2011.82 179.075 Q2013.74 182.143 2016.85 182.143 Q2020.41 182.143 2022.52 178.794 Q2023.06 177.974 2023.04 177.013 L2023.04 167.176 Q2023.04 166.216 2022.52 165.419 Q2020.55 162.538 2017.34 162.538 Q2013.99 162.538 2011.91 165.607 Q2010.43 167.902 2010.43 172.423 Z" fill="#000000" fill-rule="evenodd" fill-opacity="1" /><path clip-path="url(#clip280)" d="M2032.99 172.118 Q2032.99 167.598 2035.9 164.389 Q2038.8 161.18 2042.97 161.18 Q2047.19 161.18 2049.36 163.92 Q2051.57 166.661 2051.57 170.596 Q2051.57 171.322 2051.38 171.462 Q2051.19 171.603 2050.37 171.603 L2036.97 171.603 Q2036.97 176.498 2038.43 178.794 Q2040.44 182.002 2043.84 182.002 Q2044.31 182.002 2044.87 181.909 Q2045.43 181.815 2046.58 181.417 Q2047.72 180.995 2048.73 179.894 Q2049.74 178.794 2050.32 177.06 Q2050.47 176.381 2050.93 176.404 Q2051.57 176.404 2051.57 176.967 Q2051.57 177.388 2051.1 178.349 Q2050.65 179.285 2049.79 180.41 Q2048.92 181.534 2047.23 182.377 Q2045.57 183.22 2043.56 183.22 Q2039.34 183.22 2036.15 180.035 Q2032.99 176.826 2032.99 172.118 M2037.02 170.596 L2048.4 170.596 Q2048.4 169.589 2048.22 168.464 Q2048.05 167.34 2047.54 165.794 Q2047.05 164.225 2045.87 163.241 Q2044.7 162.257 2042.97 162.257 Q2042.2 162.257 2041.35 162.585 Q2040.53 162.913 2039.53 163.709 Q2038.52 164.506 2037.82 166.309 Q2037.11 168.113 2037.02 170.596 Z" fill="#000000" fill-rule="evenodd" fill-opacity="1" /><path clip-path="url(#clip280)" d="M2051.99 163.499 L2051.99 162.445 Q2054.19 162.351 2055.64 160.805 Q2057.12 159.236 2057.61 157.315 Q2058.13 155.395 2058.17 153.169 L2059.37 153.169 L2059.37 162 L2066.23 162 L2066.23 163.499 L2059.37 163.499 L2059.37 176.826 Q2059.37 182.002 2062.6 182.002 Q2063.98 182.002 2064.9 180.597 Q2065.81 179.168 2065.81 176.639 L2065.81 173.992 L2067 173.992 L2067 176.732 Q2067 179.332 2065.81 181.276 Q2064.61 183.22 2062.25 183.22 Q2061.38 183.22 2060.52 182.986 Q2059.67 182.775 2058.55 182.213 Q2057.45 181.628 2056.74 180.222 Q2056.07 178.794 2056.07 176.732 L2056.07 163.499 L2051.99 163.499 Z" fill="#000000" fill-rule="evenodd" fill-opacity="1" /><path clip-path="url(#clip280)" d="M2070.41 170.689 Q2070.41 162.585 2073.43 156.05 Q2074.72 153.31 2076.52 151.015 Q2078.32 148.719 2079.52 147.712 Q2080.71 146.705 2081.04 146.705 Q2081.51 146.705 2081.53 147.173 Q2081.53 147.407 2080.9 147.993 Q2073.17 155.863 2073.19 170.689 Q2073.19 185.563 2080.71 193.128 Q2081.53 193.948 2081.53 194.206 Q2081.53 194.674 2081.04 194.674 Q2080.71 194.674 2079.56 193.714 Q2078.42 192.753 2076.64 190.552 Q2074.86 188.35 2073.57 185.656 Q2070.41 179.121 2070.41 170.689 Z" fill="#000000" fill-rule="evenodd" fill-opacity="1" /><path clip-path="url(#clip280)" d="M2106.23 163.733 Q2106.23 163.756 2106.09 164.6 L2100.75 185.891 Q2100.47 187.015 2099.67 188.139 Q2098.9 189.287 2097.66 190.271 Q2096.44 191.278 2094.57 191.887 Q2092.72 192.519 2090.58 192.519 Q2087.19 192.519 2085.69 191.793 Q2084.21 191.09 2084.21 189.591 Q2084.21 188.28 2085.03 187.53 Q2085.85 186.804 2086.79 186.804 Q2087.68 186.804 2088.15 187.319 Q2088.62 187.835 2088.62 188.49 Q2088.62 189.217 2088.12 189.943 Q2087.63 190.692 2086.65 190.973 Q2088.22 191.465 2090.49 191.465 Q2095.29 191.465 2097.35 186.382 Q2097.4 186.312 2097.4 186.289 L2098.99 179.941 L2098.92 179.894 Q2098.52 180.363 2097.89 180.902 Q2097.28 181.417 2095.97 182.049 Q2094.66 182.682 2093.37 182.682 Q2090.68 182.682 2088.83 180.621 Q2087 178.536 2087 175.093 Q2087 172.587 2088.01 170.08 Q2089.04 167.551 2090.63 165.7 Q2092.25 163.827 2094.31 162.655 Q2096.39 161.484 2098.41 161.484 Q2099.81 161.484 2101.01 162.328 Q2102.2 163.147 2102.86 164.506 Q2102.97 163.382 2103.61 162.913 Q2104.26 162.445 2104.82 162.445 Q2105.46 162.445 2105.83 162.796 Q2106.23 163.124 2106.23 163.733 M2102.3 166.661 Q2102.3 166.52 2102.2 166.145 Q2102.11 165.747 2101.83 165.115 Q2101.57 164.482 2101.17 163.92 Q2100.77 163.358 2100.05 162.96 Q2099.34 162.538 2098.45 162.538 Q2097 162.538 2095.55 163.756 Q2094.1 164.951 2093.09 166.801 Q2092.15 168.581 2091.26 172.024 Q2090.4 175.468 2090.4 177.224 Q2090.4 178.958 2091.15 180.293 Q2091.9 181.628 2093.51 181.628 Q2095.39 181.628 2097.4 179.894 Q2099.48 178.091 2099.84 176.545 L2102.15 167.387 Q2102.3 166.825 2102.3 166.661 Z" fill="#000000" fill-rule="evenodd" fill-opacity="1" /><path clip-path="url(#clip280)" d="M2110.88 194.206 Q2110.88 193.971 2111.49 193.386 Q2119.22 185.516 2119.22 170.689 Q2119.22 155.816 2111.8 148.298 Q2110.88 147.431 2110.88 147.173 Q2110.88 146.705 2111.35 146.705 Q2111.68 146.705 2112.83 147.665 Q2114 148.625 2115.75 150.827 Q2117.53 153.029 2118.85 155.722 Q2122.01 162.257 2122.01 170.689 Q2122.01 178.794 2118.99 185.328 Q2117.7 188.069 2115.89 190.364 Q2114.09 192.66 2112.9 193.667 Q2111.7 194.674 2111.35 194.674 Q2110.88 194.674 2110.88 194.206 Z" fill="#000000" fill-rule="evenodd" fill-opacity="1" /><path clip-path="url(#clip280)" d="M2135.58 194.313 Q2132.14 190.755 2132.14 185.656 Q2132.14 180.541 2135.61 176.999 Q2139.09 173.458 2143.81 173.458 Q2144.99 173.458 2145.99 173.736 Q2147.01 173.999 2147.81 174.54 Q2148.61 175.064 2149.02 175.425 Q2149.45 175.77 2150.02 176.343 L2151.71 173.868 Q2151.98 173.458 2152.24 173.458 Q2152.52 173.458 2152.57 173.622 Q2152.62 173.769 2152.62 174.261 L2152.62 182.229 Q2152.62 182.77 2152.55 182.902 Q2152.48 183.033 2152.07 183.033 Q2151.75 183.033 2151.68 182.934 Q2151.62 182.836 2151.53 182.459 Q2151.03 178.836 2148.99 176.671 Q2146.98 174.507 2144.22 174.507 Q2143.42 174.507 2142.52 174.687 Q2141.63 174.868 2140.32 175.556 Q2139.02 176.245 2138.02 177.376 Q2137.04 178.491 2136.32 180.655 Q2135.6 182.803 2135.6 185.656 Q2135.6 188.476 2136.32 190.64 Q2137.04 192.805 2138.04 193.936 Q2139.06 195.051 2140.37 195.756 Q2141.7 196.461 2142.63 196.658 Q2143.58 196.838 2144.42 196.838 Q2144.99 196.838 2145.66 196.723 Q2146.34 196.592 2147.34 196.231 Q2148.35 195.854 2148.99 194.969 Q2149.63 194.084 2149.63 192.772 L2149.63 190.624 Q2149.63 189.624 2149.14 189.312 Q2148.65 189.001 2146.5 189.001 L2145.43 189.001 L2145.43 187.968 Q2146.65 188.066 2150.83 188.066 Q2151.21 188.066 2154.93 187.968 L2154.93 189.001 Q2153.32 189.001 2152.96 189.247 Q2152.62 189.476 2152.62 190.476 L2152.62 196.33 Q2152.62 197.1 2152.32 197.1 Q2152.06 197.1 2151.27 196.346 Q2150.5 195.592 2150.16 195.018 Q2149.35 196.428 2147.6 197.15 Q2145.86 197.871 2143.88 197.871 Q2139.04 197.871 2135.58 194.313 Z" fill="#000000" fill-rule="evenodd" fill-opacity="1" /><path clip-path="url(#clip280)" d="M2157.39 197.133 L2157.39 196.1 Q2159.18 196.1 2159.59 195.887 Q2160.01 195.658 2160.01 194.575 L2160.01 185.574 Q2160.01 184.328 2159.57 184.017 Q2159.14 183.705 2157.39 183.705 L2157.39 182.656 L2162.06 182.295 L2162.06 185.984 Q2162.54 184.541 2163.54 183.426 Q2164.55 182.295 2166.19 182.295 Q2167.28 182.295 2167.96 182.902 Q2168.67 183.508 2168.67 184.344 Q2168.67 185.082 2168.21 185.459 Q2167.77 185.82 2167.23 185.82 Q2166.62 185.82 2166.19 185.443 Q2165.78 185.049 2165.78 184.377 Q2165.78 183.967 2165.96 183.656 Q2166.16 183.328 2166.31 183.213 Q2166.46 183.098 2166.55 183.066 Q2166.49 183.033 2166.19 183.033 Q2164.34 183.033 2163.27 184.886 Q2162.23 186.722 2162.23 189.345 L2162.23 194.51 Q2162.23 195.477 2162.62 195.789 Q2163.03 196.1 2164.78 196.1 L2165.49 196.1 L2165.49 197.133 Q2164.14 197.035 2161.23 197.035 Q2160.82 197.035 2160.18 197.051 Q2159.54 197.068 2158.7 197.1 Q2157.86 197.133 2157.39 197.133 Z" fill="#000000" fill-rule="evenodd" fill-opacity="1" /><path clip-path="url(#clip280)" d="M2171.1 189.739 Q2171.1 186.574 2173.14 184.328 Q2175.17 182.082 2178.09 182.082 Q2181.04 182.082 2182.56 184 Q2184.1 185.918 2184.1 188.673 Q2184.1 189.181 2183.97 189.28 Q2183.84 189.378 2183.27 189.378 L2173.89 189.378 Q2173.89 192.805 2174.91 194.411 Q2176.32 196.658 2178.69 196.658 Q2179.02 196.658 2179.41 196.592 Q2179.81 196.526 2180.61 196.248 Q2181.41 195.953 2182.12 195.182 Q2182.82 194.411 2183.23 193.198 Q2183.33 192.723 2183.66 192.739 Q2184.1 192.739 2184.1 193.133 Q2184.1 193.428 2183.78 194.1 Q2183.46 194.756 2182.86 195.543 Q2182.25 196.33 2181.07 196.92 Q2179.91 197.51 2178.5 197.51 Q2175.55 197.51 2173.32 195.28 Q2171.1 193.034 2171.1 189.739 M2173.92 188.673 L2181.89 188.673 Q2181.89 187.968 2181.76 187.181 Q2181.64 186.394 2181.28 185.312 Q2180.94 184.213 2180.12 183.525 Q2179.3 182.836 2178.09 182.836 Q2177.55 182.836 2176.96 183.066 Q2176.38 183.295 2175.68 183.853 Q2174.97 184.41 2174.48 185.673 Q2173.99 186.935 2173.92 188.673 Z" fill="#000000" fill-rule="evenodd" fill-opacity="1" /><path clip-path="url(#clip280)" d="M2185.86 189.739 Q2185.86 186.574 2187.89 184.328 Q2189.93 182.082 2192.84 182.082 Q2195.8 182.082 2197.32 184 Q2198.86 185.918 2198.86 188.673 Q2198.86 189.181 2198.73 189.28 Q2198.6 189.378 2198.03 189.378 L2188.65 189.378 Q2188.65 192.805 2189.66 194.411 Q2191.07 196.658 2193.45 196.658 Q2193.78 196.658 2194.17 196.592 Q2194.57 196.526 2195.37 196.248 Q2196.17 195.953 2196.88 195.182 Q2197.58 194.411 2197.99 193.198 Q2198.09 192.723 2198.42 192.739 Q2198.86 192.739 2198.86 193.133 Q2198.86 193.428 2198.53 194.1 Q2198.22 194.756 2197.62 195.543 Q2197.01 196.33 2195.83 196.92 Q2194.66 197.51 2193.25 197.51 Q2190.3 197.51 2188.07 195.28 Q2185.86 193.034 2185.86 189.739 M2188.68 188.673 L2196.65 188.673 Q2196.65 187.968 2196.52 187.181 Q2196.4 186.394 2196.04 185.312 Q2195.7 184.213 2194.88 183.525 Q2194.06 182.836 2192.84 182.836 Q2192.3 182.836 2191.71 183.066 Q2191.14 183.295 2190.43 183.853 Q2189.73 184.41 2189.24 185.673 Q2188.75 186.935 2188.68 188.673 Z" fill="#000000" fill-rule="evenodd" fill-opacity="1" /><path clip-path="url(#clip280)" d="M2199.95 197.133 L2199.95 196.1 Q2201.73 196.1 2202.14 195.887 Q2202.55 195.658 2202.55 194.575 L2202.55 185.574 Q2202.55 184.328 2202.11 184.017 Q2201.68 183.705 2199.95 183.705 L2199.95 182.656 L2204.67 182.295 L2204.67 185.82 Q2206.24 182.295 2209.64 182.295 Q2212.16 182.295 2213.16 183.541 Q2213.9 184.377 2214.05 185.312 Q2214.21 186.246 2214.21 188.673 L2214.21 195.084 Q2214.24 195.789 2214.78 195.953 Q2215.33 196.1 2216.83 196.1 L2216.83 197.133 Q2213.41 197.035 2213.06 197.035 Q2212.8 197.035 2209.28 197.133 L2209.28 196.1 Q2211.06 196.1 2211.47 195.887 Q2211.9 195.658 2211.9 194.575 L2211.9 186.755 Q2211.9 185.049 2211.37 184.049 Q2210.85 183.033 2209.41 183.033 Q2207.67 183.033 2206.27 184.492 Q2204.88 185.951 2204.88 188.411 L2204.88 194.575 Q2204.88 195.658 2205.29 195.887 Q2205.72 196.1 2207.49 196.1 L2207.49 197.133 Q2204.06 197.035 2203.73 197.035 Q2203.47 197.035 2199.95 197.133 Z" fill="#000000" fill-rule="evenodd" fill-opacity="1" /><circle clip-path="url(#clip280)" cx="1871.91" cy="222.866" r="23" fill="#e26f46" fill-rule="evenodd" fill-opacity="1" stroke="#000000" stroke-opacity="1" stroke-width="5.12"/>
<path clip-path="url(#clip280)" d="M1967.42 241.87 L1975.78 228.967 L1979.18 246.089 L1979.82 249.208 Q1979.96 248.393 1980.39 247.01 Q1980.85 245.592 1980.92 245.238 L1992.16 202.098 Q1992.23 201.814 1992.34 201.353 Q1992.48 200.857 1992.55 200.68 Q1992.62 200.503 1992.73 200.148 Q1992.83 199.794 1992.9 199.687 Q1992.97 199.546 1993.08 199.297 Q1993.19 199.049 1993.33 198.978 Q1993.47 198.908 1993.65 198.766 Q1993.82 198.624 1994.04 198.588 Q1994.29 198.553 1994.53 198.518 Q1994.78 198.482 1995.14 198.482 L2001.48 198.482 Q2003.71 198.482 2003.71 199.935 Q2003.71 201.389 2001.55 201.389 L1995.35 201.389 L1980.71 257.361 Q1980.5 258.176 1980.32 258.495 Q1980.18 258.814 1979.68 259.098 Q1979.18 259.381 1978.3 259.381 L1977.59 259.381 L1972.95 236.305 L1968.59 243.04 L1967.42 241.87 Z" fill="#000000" fill-rule="evenodd" fill-opacity="1" /><path clip-path="url(#clip280)" d="
M2001.33 201.419 L2127.02 201.419 L2127.02 198.404 L2001.33 198.404  Z
  " fill="#000000" fill-rule="evenodd" fill-opacity="1"/>
<path clip-path="url(#clip280)" d="M2006.45 236.738 Q2006.45 232.171 2009.64 229.009 Q2012.82 225.847 2017.13 225.847 Q2020.79 225.847 2023.18 228.821 L2023.18 218.445 Q2023.18 216.665 2022.54 216.22 Q2021.93 215.775 2019.45 215.775 L2019.45 214.276 L2026.36 213.761 L2026.36 242.875 Q2026.36 244.655 2026.97 245.123 Q2027.6 245.568 2030.09 245.568 L2030.09 247.044 L2023.04 247.583 L2023.04 244.397 Q2020.55 247.559 2016.62 247.583 Q2012.5 247.583 2009.47 244.421 Q2006.45 241.259 2006.45 236.738 M2010.43 236.785 Q2010.43 241.235 2011.82 243.437 Q2013.74 246.505 2016.85 246.505 Q2020.41 246.505 2022.52 243.156 Q2023.06 242.336 2023.04 241.376 L2023.04 231.538 Q2023.04 230.578 2022.52 229.782 Q2020.55 226.901 2017.34 226.901 Q2013.99 226.901 2011.91 229.969 Q2010.43 232.264 2010.43 236.785 Z" fill="#000000" fill-rule="evenodd" fill-opacity="1" /><path clip-path="url(#clip280)" d="M2032.99 236.481 Q2032.99 231.96 2035.9 228.751 Q2038.8 225.542 2042.97 225.542 Q2047.19 225.542 2049.36 228.283 Q2051.57 231.023 2051.57 234.958 Q2051.57 235.684 2051.38 235.825 Q2051.19 235.965 2050.37 235.965 L2036.97 235.965 Q2036.97 240.861 2038.43 243.156 Q2040.44 246.365 2043.84 246.365 Q2044.31 246.365 2044.87 246.271 Q2045.43 246.177 2046.58 245.779 Q2047.72 245.358 2048.73 244.257 Q2049.74 243.156 2050.32 241.423 Q2050.47 240.743 2050.93 240.767 Q2051.57 240.767 2051.57 241.329 Q2051.57 241.751 2051.1 242.711 Q2050.65 243.648 2049.79 244.772 Q2048.92 245.896 2047.23 246.74 Q2045.57 247.583 2043.56 247.583 Q2039.34 247.583 2036.15 244.397 Q2032.99 241.188 2032.99 236.481 M2037.02 234.958 L2048.4 234.958 Q2048.4 233.951 2048.22 232.827 Q2048.05 231.702 2047.54 230.156 Q2047.05 228.587 2045.87 227.603 Q2044.7 226.62 2042.97 226.62 Q2042.2 226.62 2041.35 226.948 Q2040.53 227.276 2039.53 228.072 Q2038.52 228.868 2037.82 230.672 Q2037.11 232.475 2037.02 234.958 Z" fill="#000000" fill-rule="evenodd" fill-opacity="1" /><path clip-path="url(#clip280)" d="M2051.99 227.861 L2051.99 226.807 Q2054.19 226.713 2055.64 225.167 Q2057.12 223.598 2057.61 221.678 Q2058.13 219.757 2058.17 217.532 L2059.37 217.532 L2059.37 226.362 L2066.23 226.362 L2066.23 227.861 L2059.37 227.861 L2059.37 241.188 Q2059.37 246.365 2062.6 246.365 Q2063.98 246.365 2064.9 244.959 Q2065.81 243.531 2065.81 241.001 L2065.81 238.354 L2067 238.354 L2067 241.095 Q2067 243.695 2065.81 245.639 Q2064.61 247.583 2062.25 247.583 Q2061.38 247.583 2060.52 247.349 Q2059.67 247.138 2058.55 246.576 Q2057.45 245.99 2056.74 244.585 Q2056.07 243.156 2056.07 241.095 L2056.07 227.861 L2051.99 227.861 Z" fill="#000000" fill-rule="evenodd" fill-opacity="1" /><path clip-path="url(#clip280)" d="M2070.41 235.052 Q2070.41 226.948 2073.43 220.413 Q2074.72 217.672 2076.52 215.377 Q2078.32 213.082 2079.52 212.074 Q2080.71 211.067 2081.04 211.067 Q2081.51 211.067 2081.53 211.536 Q2081.53 211.77 2080.9 212.355 Q2073.17 220.225 2073.19 235.052 Q2073.19 249.925 2080.71 257.49 Q2081.53 258.31 2081.53 258.568 Q2081.53 259.036 2081.04 259.036 Q2080.71 259.036 2079.56 258.076 Q2078.42 257.116 2076.64 254.914 Q2074.86 252.712 2073.57 250.019 Q2070.41 243.484 2070.41 235.052 Z" fill="#000000" fill-rule="evenodd" fill-opacity="1" /><path clip-path="url(#clip280)" d="M2106.23 228.095 Q2106.23 228.119 2106.09 228.962 L2100.75 250.253 Q2100.47 251.377 2099.67 252.501 Q2098.9 253.649 2097.66 254.633 Q2096.44 255.64 2094.57 256.249 Q2092.72 256.881 2090.58 256.881 Q2087.19 256.881 2085.69 256.155 Q2084.21 255.453 2084.21 253.954 Q2084.21 252.642 2085.03 251.892 Q2085.85 251.166 2086.79 251.166 Q2087.68 251.166 2088.15 251.682 Q2088.62 252.197 2088.62 252.853 Q2088.62 253.579 2088.12 254.305 Q2087.63 255.055 2086.65 255.336 Q2088.22 255.827 2090.49 255.827 Q2095.29 255.827 2097.35 250.745 Q2097.4 250.675 2097.4 250.651 L2098.99 244.304 L2098.92 244.257 Q2098.52 244.725 2097.89 245.264 Q2097.28 245.779 2095.97 246.412 Q2094.66 247.044 2093.37 247.044 Q2090.68 247.044 2088.83 244.983 Q2087 242.898 2087 239.455 Q2087 236.949 2088.01 234.443 Q2089.04 231.913 2090.63 230.063 Q2092.25 228.189 2094.31 227.018 Q2096.39 225.847 2098.41 225.847 Q2099.81 225.847 2101.01 226.69 Q2102.2 227.51 2102.86 228.868 Q2102.97 227.744 2103.61 227.276 Q2104.26 226.807 2104.82 226.807 Q2105.46 226.807 2105.83 227.158 Q2106.23 227.486 2106.23 228.095 M2102.3 231.023 Q2102.3 230.883 2102.2 230.508 Q2102.11 230.11 2101.83 229.477 Q2101.57 228.845 2101.17 228.283 Q2100.77 227.721 2100.05 227.322 Q2099.34 226.901 2098.45 226.901 Q2097 226.901 2095.55 228.119 Q2094.1 229.313 2093.09 231.164 Q2092.15 232.944 2091.26 236.387 Q2090.4 239.83 2090.4 241.587 Q2090.4 243.32 2091.15 244.655 Q2091.9 245.99 2093.51 245.99 Q2095.39 245.99 2097.4 244.257 Q2099.48 242.453 2099.84 240.907 L2102.15 231.749 Q2102.3 231.187 2102.3 231.023 Z" fill="#000000" fill-rule="evenodd" fill-opacity="1" /><path clip-path="url(#clip280)" d="M2110.88 258.568 Q2110.88 258.334 2111.49 257.748 Q2119.22 249.878 2119.22 235.052 Q2119.22 220.179 2111.8 212.66 Q2110.88 211.793 2110.88 211.536 Q2110.88 211.067 2111.35 211.067 Q2111.68 211.067 2112.83 212.027 Q2114 212.988 2115.75 215.19 Q2117.53 217.391 2118.85 220.085 Q2122.01 226.62 2122.01 235.052 Q2122.01 243.156 2118.99 249.691 Q2117.7 252.431 2115.89 254.727 Q2114.09 257.022 2112.9 258.029 Q2111.7 259.036 2111.35 259.036 Q2110.88 259.036 2110.88 258.568 Z" fill="#000000" fill-rule="evenodd" fill-opacity="1" /><path clip-path="url(#clip280)" d="M2132.14 260.78 L2132.14 259.747 Q2133.92 259.747 2134.33 259.534 Q2134.74 259.305 2134.74 258.222 L2134.74 249.221 Q2134.74 247.975 2134.3 247.664 Q2133.88 247.352 2132.14 247.352 L2132.14 246.303 L2136.86 245.942 L2136.86 249.467 Q2138.43 245.942 2141.83 245.942 Q2145.76 245.942 2146.3 249.221 Q2146.88 247.942 2148.07 246.942 Q2149.29 245.942 2151.17 245.942 Q2153.7 245.942 2154.7 247.188 Q2155.44 248.024 2155.58 248.959 Q2155.73 249.893 2155.73 252.32 L2155.73 258.731 Q2155.76 259.436 2156.3 259.6 Q2156.85 259.747 2158.35 259.747 L2158.35 260.78 Q2154.93 260.682 2154.6 260.682 Q2154.34 260.682 2150.8 260.78 L2150.8 259.747 Q2152.58 259.747 2152.99 259.534 Q2153.42 259.305 2153.42 258.222 L2153.42 250.402 Q2153.42 248.697 2152.89 247.696 Q2152.37 246.68 2150.93 246.68 Q2149.19 246.68 2147.8 248.139 Q2146.4 249.598 2146.4 252.058 L2146.4 258.222 Q2146.4 259.305 2146.81 259.534 Q2147.24 259.747 2149.02 259.747 L2149.02 260.78 Q2145.6 260.682 2145.25 260.682 Q2144.99 260.682 2141.47 260.78 L2141.47 259.747 Q2143.25 259.747 2143.66 259.534 Q2144.09 259.305 2144.09 258.222 L2144.09 250.402 Q2144.09 248.697 2143.57 247.696 Q2143.04 246.68 2141.6 246.68 Q2139.86 246.68 2138.47 248.139 Q2137.07 249.598 2137.07 252.058 L2137.07 258.222 Q2137.07 259.305 2137.48 259.534 Q2137.91 259.747 2139.68 259.747 L2139.68 260.78 Q2136.25 260.682 2135.92 260.682 Q2135.66 260.682 2132.14 260.78 Z" fill="#000000" fill-rule="evenodd" fill-opacity="1" /><path clip-path="url(#clip280)" d="M2160.22 257.583 Q2160.22 254.73 2163.58 253.222 Q2165.6 252.254 2169.76 252.008 L2169.76 250.779 Q2169.76 248.697 2168.67 247.598 Q2167.58 246.483 2166.21 246.483 Q2163.75 246.483 2162.57 248.024 Q2163.57 248.057 2163.93 248.565 Q2164.29 249.057 2164.29 249.566 Q2164.29 250.238 2163.86 250.68 Q2163.45 251.107 2162.75 251.107 Q2162.07 251.107 2161.63 250.697 Q2161.19 250.271 2161.19 249.533 Q2161.19 247.893 2162.66 246.811 Q2164.16 245.729 2166.27 245.729 Q2169.03 245.729 2170.86 247.582 Q2171.44 248.155 2171.72 248.893 Q2172.01 249.631 2172.04 250.123 Q2172.08 250.598 2172.08 251.549 L2172.08 258.255 Q2172.08 258.452 2172.14 258.78 Q2172.21 259.108 2172.5 259.534 Q2172.81 259.944 2173.32 259.944 Q2174.54 259.944 2174.52 257.796 L2174.52 255.911 L2175.37 255.911 L2175.37 257.796 Q2175.37 259.583 2174.42 260.288 Q2173.49 260.977 2172.62 260.977 Q2171.5 260.977 2170.8 260.157 Q2170.09 259.337 2169.99 258.222 Q2169.49 259.501 2168.32 260.337 Q2167.17 261.157 2165.6 261.157 Q2164.39 261.157 2163.24 260.846 Q2162.11 260.551 2161.16 259.714 Q2160.22 258.862 2160.22 257.583 M2162.81 257.55 Q2162.81 258.796 2163.7 259.6 Q2164.58 260.403 2165.83 260.403 Q2167.24 260.403 2168.5 259.321 Q2169.76 258.222 2169.76 256.075 L2169.76 252.713 Q2166.04 252.845 2164.42 254.337 Q2162.81 255.812 2162.81 257.55 Z" fill="#000000" fill-rule="evenodd" fill-opacity="1" /><path clip-path="url(#clip280)" d="M2176.17 247.352 L2176.17 246.614 Q2177.72 246.549 2178.73 245.467 Q2179.77 244.368 2180.11 243.024 Q2180.47 241.679 2180.5 240.122 L2181.34 240.122 L2181.34 246.303 L2186.14 246.303 L2186.14 247.352 L2181.34 247.352 L2181.34 256.681 Q2181.34 260.305 2183.6 260.305 Q2184.57 260.305 2185.21 259.321 Q2185.85 258.321 2185.85 256.55 L2185.85 254.697 L2186.68 254.697 L2186.68 256.616 Q2186.68 258.436 2185.85 259.796 Q2185.01 261.157 2183.36 261.157 Q2182.75 261.157 2182.14 260.993 Q2181.55 260.846 2180.77 260.452 Q2179.99 260.042 2179.5 259.059 Q2179.03 258.058 2179.03 256.616 L2179.03 247.352 L2176.17 247.352 Z" fill="#000000" fill-rule="evenodd" fill-opacity="1" /><path clip-path="url(#clip280)" d="M2188.66 260.78 L2188.66 259.747 Q2190.45 259.747 2190.86 259.534 Q2191.29 259.305 2191.29 258.222 L2191.29 249.221 Q2191.29 247.975 2190.84 247.664 Q2190.42 247.352 2188.66 247.352 L2188.66 246.303 L2193.34 245.942 L2193.34 249.631 Q2193.81 248.188 2194.81 247.073 Q2195.83 245.942 2197.47 245.942 Q2198.55 245.942 2199.24 246.549 Q2199.94 247.155 2199.94 247.992 Q2199.94 248.729 2199.48 249.106 Q2199.04 249.467 2198.5 249.467 Q2197.89 249.467 2197.47 249.09 Q2197.06 248.697 2197.06 248.024 Q2197.06 247.614 2197.24 247.303 Q2197.43 246.975 2197.58 246.86 Q2197.73 246.745 2197.83 246.713 Q2197.76 246.68 2197.47 246.68 Q2195.61 246.68 2194.55 248.533 Q2193.5 250.369 2193.5 252.992 L2193.5 258.157 Q2193.5 259.124 2193.89 259.436 Q2194.3 259.747 2196.06 259.747 L2196.76 259.747 L2196.76 260.78 Q2195.42 260.682 2192.5 260.682 Q2192.09 260.682 2191.45 260.698 Q2190.81 260.715 2189.97 260.747 Q2189.14 260.78 2188.66 260.78 Z" fill="#000000" fill-rule="evenodd" fill-opacity="1" /><path clip-path="url(#clip280)" d="M2201.27 260.78 L2201.27 259.747 Q2203.05 259.747 2203.46 259.534 Q2203.87 259.305 2203.87 258.222 L2203.87 249.188 Q2203.87 247.942 2203.45 247.647 Q2203.04 247.352 2201.4 247.352 L2201.4 246.303 L2206.09 245.942 L2206.09 258.255 Q2206.09 259.255 2206.45 259.501 Q2206.81 259.747 2208.45 259.747 L2208.45 260.78 Q2205.02 260.682 2204.96 260.682 Q2204.5 260.682 2201.27 260.78 M2202.68 240.089 Q2202.68 239.417 2203.18 238.876 Q2203.71 238.318 2204.45 238.318 Q2205.18 238.318 2205.71 238.826 Q2206.23 239.318 2206.23 240.105 Q2206.23 240.876 2205.71 241.384 Q2205.18 241.876 2204.45 241.876 Q2203.68 241.876 2203.17 241.335 Q2202.68 240.794 2202.68 240.089 Z" fill="#000000" fill-rule="evenodd" fill-opacity="1" /><path clip-path="url(#clip280)" d="M2210.74 260.78 L2210.74 259.747 Q2213.36 259.747 2215.04 257.731 Q2215.04 257.731 2218.18 253.73 L2214.86 249.402 Q2213.68 247.893 2213.15 247.631 Q2212.64 247.352 2210.9 247.352 L2210.9 246.303 Q2212.28 246.401 2214.09 246.401 Q2215.09 246.401 2217.73 246.303 L2217.73 247.352 Q2216.54 247.418 2216.54 248.188 Q2216.54 248.451 2216.84 248.795 L2219.46 252.189 L2221.55 249.566 Q2222.05 248.959 2222.05 248.385 Q2222.05 247.45 2221.07 247.352 L2221.07 246.303 Q2222.38 246.401 2224.3 246.401 Q2225.74 246.401 2227.05 246.303 L2227.05 247.352 Q2224.5 247.418 2223.05 249.09 Q2222.41 249.795 2219.97 252.894 L2224.46 258.698 Q2225 259.403 2225.61 259.583 Q2226.22 259.747 2227.66 259.747 L2227.66 260.78 Q2226.15 260.682 2224.43 260.682 Q2223.82 260.682 2220.81 260.78 L2220.81 259.747 Q2221.41 259.714 2221.71 259.452 Q2222.02 259.173 2222.02 258.895 Q2222.02 258.764 2221.32 257.796 L2218.76 254.435 Q2216.2 257.452 2215.87 258.157 Q2215.74 258.452 2215.74 258.698 Q2215.74 259.6 2216.71 259.747 L2216.71 260.78 Q2214.3 260.682 2213.53 260.682 Q2212.05 260.682 2210.74 260.78 Z" fill="#000000" fill-rule="evenodd" fill-opacity="1" /></svg>
