<?xml version="1.0" encoding="utf-8"?>
<svg xmlns="http://www.w3.org/2000/svg" xmlns:xlink="http://www.w3.org/1999/xlink" width="600" height="400" viewBox="0 0 2400 1600">
<defs>
  <clipPath id="clip220">
    <rect x="0" y="0" width="2400" height="1600"/>
  </clipPath>
</defs>
<path clip-path="url(#clip220)" d="
M0 1600 L2400 1600 L2400 0 L0 0  Z
  " fill="#ffffff" fill-rule="evenodd" fill-opacity="1"/>
<defs>
  <clipPath id="clip221">
    <rect x="480" y="0" width="1681" height="1600"/>
  </clipPath>
</defs>
<path clip-path="url(#clip220)" d="
M262.551 1486.45 L2352.76 1486.45 L2352.76 47.2441 L262.551 47.2441  Z
  " fill="#ffffff" fill-rule="evenodd" fill-opacity="1"/>
<defs>
  <clipPath id="clip222">
    <rect x="262" y="47" width="2091" height="1440"/>
  </clipPath>
</defs>
<polyline clip-path="url(#clip222)" style="stroke:#000000; stroke-linecap:butt; stroke-linejoin:round; stroke-width:2; stroke-opacity:0.1; fill:none" points="
  321.708,1486.45 321.708,47.2441 
  "/>
<polyline clip-path="url(#clip222)" style="stroke:#000000; stroke-linecap:butt; stroke-linejoin:round; stroke-width:2; stroke-opacity:0.1; fill:none" points="
  970.182,1486.45 970.182,47.2441 
  "/>
<polyline clip-path="url(#clip222)" style="stroke:#000000; stroke-linecap:butt; stroke-linejoin:round; stroke-width:2; stroke-opacity:0.1; fill:none" points="
  1631.89,1486.45 1631.89,47.2441 
  "/>
<polyline clip-path="url(#clip222)" style="stroke:#000000; stroke-linecap:butt; stroke-linejoin:round; stroke-width:2; stroke-opacity:0.1; fill:none" points="
  2293.6,1486.45 2293.6,47.2441 
  "/>
<polyline clip-path="url(#clip220)" style="stroke:#000000; stroke-linecap:butt; stroke-linejoin:round; stroke-width:4; stroke-opacity:1; fill:none" points="
  262.551,1486.45 2352.76,1486.45 
  "/>
<polyline clip-path="url(#clip220)" style="stroke:#000000; stroke-linecap:butt; stroke-linejoin:round; stroke-width:4; stroke-opacity:1; fill:none" points="
  321.708,1486.45 321.708,1467.55 
  "/>
<polyline clip-path="url(#clip220)" style="stroke:#000000; stroke-linecap:butt; stroke-linejoin:round; stroke-width:4; stroke-opacity:1; fill:none" points="
  970.182,1486.45 970.182,1467.55 
  "/>
<polyline clip-path="url(#clip220)" style="stroke:#000000; stroke-linecap:butt; stroke-linejoin:round; stroke-width:4; stroke-opacity:1; fill:none" points="
  1631.89,1486.45 1631.89,1467.55 
  "/>
<polyline clip-path="url(#clip220)" style="stroke:#000000; stroke-linecap:butt; stroke-linejoin:round; stroke-width:4; stroke-opacity:1; fill:none" points="
  2293.6,1486.45 2293.6,1467.55 
  "/>
<path clip-path="url(#clip220)" d="M306.864 1554.64 L306.864 1553.16 L307.567 1553.16 Q310.12 1553.16 310.916 1552.81 Q311.736 1552.43 311.806 1551.08 L311.806 1525.48 Q311.759 1524.23 310.963 1523.86 Q310.167 1523.46 307.567 1523.46 L306.864 1523.46 L306.864 1522.01 Q309.113 1522.1 313.61 1522.1 Q315.437 1522.1 317.006 1522.06 Q318.599 1522.01 318.857 1522.01 L331.903 1522.01 L333.238 1532.81 L331.996 1532.81 Q331.622 1529.88 331.2 1528.36 Q330.802 1526.81 329.818 1525.57 Q328.834 1524.33 327.195 1523.91 Q325.555 1523.46 322.791 1523.46 L318.693 1523.46 Q317.147 1523.46 316.608 1523.77 Q316.069 1524.07 316.069 1525.33 L316.069 1550.94 Q316.069 1552.41 317.053 1552.79 Q318.037 1553.16 321.339 1553.16 L322.206 1553.16 L322.206 1554.64 Q318.13 1554.5 314.008 1554.5 L313.704 1554.5 Q310.705 1554.5 306.864 1554.64 Z" fill="#000000" fill-rule="evenodd" fill-opacity="1" /><path clip-path="url(#clip220)" d="M952.37 1554.71 L952.37 1553.23 Q954.571 1553.23 956.188 1552.55 Q957.804 1551.87 958.272 1551.38 Q958.764 1550.87 959.326 1550.05 L967.196 1538.45 L958.366 1525.1 Q957.687 1524.09 956.773 1523.77 Q955.883 1523.44 953.916 1523.44 L953.002 1523.44 L953.002 1521.94 Q955.649 1522.08 959.233 1522.08 Q964.549 1522.08 966.236 1521.94 L966.236 1523.44 Q964.807 1523.48 963.964 1523.95 Q963.121 1524.4 963.121 1524.87 Q963.121 1525.05 963.449 1525.59 L969.632 1534.84 L975.113 1526.74 Q975.535 1526.06 975.535 1525.64 Q975.535 1524.77 974.738 1524.14 Q973.965 1523.48 972.56 1523.44 L972.56 1521.94 Q974.481 1522.08 978.72 1522.08 Q979.259 1522.08 980.125 1522.06 Q981.015 1522.03 982.187 1521.99 Q983.358 1521.94 984.037 1521.94 L984.037 1523.44 Q979.188 1523.48 977.08 1526.55 L970.499 1536.18 L980.617 1551.5 Q981.343 1552.55 982.257 1552.9 Q983.17 1553.23 985.138 1553.23 L986.051 1553.23 L986.051 1554.71 Q983.03 1554.57 979.821 1554.57 Q974.504 1554.57 972.818 1554.71 L972.818 1553.23 Q974.246 1553.18 975.09 1552.74 Q975.933 1552.27 975.933 1551.78 Q975.933 1551.73 975.675 1551.26 L968.11 1539.79 L961.294 1549.86 Q960.825 1550.63 960.825 1551.01 Q960.825 1551.78 961.575 1552.48 Q962.348 1553.16 963.847 1553.23 L963.847 1554.71 Q962.113 1554.57 957.687 1554.57 Q957.546 1554.57 952.37 1554.71 Z" fill="#000000" fill-rule="evenodd" fill-opacity="1" /><path clip-path="url(#clip220)" d="M1610.15 1554.71 L1610.15 1553.23 Q1611.88 1553.23 1612.98 1552.9 Q1614.08 1552.55 1614.48 1551.92 Q1614.9 1551.26 1615 1550.84 Q1615.09 1550.4 1615.09 1549.67 L1615.09 1525.69 Q1615.09 1524.3 1614.48 1523.88 Q1613.89 1523.44 1611.29 1523.44 L1610.15 1523.44 L1610.15 1521.94 L1618.25 1521.94 Q1619.12 1521.94 1619.35 1522.1 Q1619.59 1522.24 1619.94 1522.99 L1630.34 1549.86 L1640.83 1522.85 Q1641.06 1522.17 1641.28 1522.06 Q1641.51 1521.94 1642.42 1521.94 L1650.53 1521.94 L1650.53 1523.44 L1649.38 1523.44 Q1646.78 1523.44 1646.17 1523.88 Q1645.59 1524.3 1645.59 1525.69 L1645.59 1550.96 Q1645.59 1552.34 1646.17 1552.79 Q1646.78 1553.23 1649.38 1553.23 L1650.53 1553.23 L1650.53 1554.71 Q1648.75 1554.57 1643.66 1554.57 Q1638.53 1554.57 1636.75 1554.71 L1636.75 1553.23 L1637.93 1553.23 Q1640.53 1553.23 1641.11 1552.81 Q1641.7 1552.36 1641.7 1550.96 L1641.7 1523.44 L1641.65 1523.44 L1629.87 1553.79 Q1629.54 1554.71 1629 1554.71 Q1628.42 1554.71 1628.04 1553.65 L1616.47 1523.81 L1616.42 1523.81 L1616.42 1549.67 Q1616.42 1550.4 1616.52 1550.84 Q1616.61 1551.26 1617.01 1551.92 Q1617.43 1552.55 1618.53 1552.9 Q1619.63 1553.23 1621.37 1553.23 L1621.37 1554.71 Q1616.33 1554.57 1615.74 1554.57 Q1615.18 1554.57 1610.15 1554.71 Z" fill="#000000" fill-rule="evenodd" fill-opacity="1" /><path clip-path="url(#clip220)" d="M2278.76 1554.64 L2278.76 1553.16 L2279.46 1553.16 Q2282.01 1553.16 2282.81 1552.81 Q2283.63 1552.43 2283.7 1551.08 L2283.7 1525.48 Q2283.65 1524.23 2282.85 1523.86 Q2282.06 1523.46 2279.46 1523.46 L2278.76 1523.46 L2278.76 1522.01 Q2281 1522.1 2285.5 1522.1 Q2287.33 1522.1 2288.9 1522.06 Q2290.49 1522.01 2290.75 1522.01 L2303.79 1522.01 L2305.13 1532.81 L2303.89 1532.81 Q2303.51 1529.88 2303.09 1528.36 Q2302.69 1526.81 2301.71 1525.57 Q2300.73 1524.33 2299.09 1523.91 Q2297.45 1523.46 2294.68 1523.46 L2290.58 1523.46 Q2289.04 1523.46 2288.5 1523.77 Q2287.96 1524.07 2287.96 1525.33 L2287.96 1550.94 Q2287.96 1552.41 2288.94 1552.79 Q2289.93 1553.16 2293.23 1553.16 L2294.1 1553.16 L2294.1 1554.64 Q2290.02 1554.5 2285.9 1554.5 L2285.59 1554.5 Q2282.6 1554.5 2278.76 1554.64 Z" fill="#000000" fill-rule="evenodd" fill-opacity="1" /><polyline clip-path="url(#clip222)" style="stroke:#000000; stroke-linecap:butt; stroke-linejoin:round; stroke-width:2; stroke-opacity:0.1; fill:none" points="
  262.551,1445.72 2352.76,1445.72 
  "/>
<polyline clip-path="url(#clip222)" style="stroke:#000000; stroke-linecap:butt; stroke-linejoin:round; stroke-width:2; stroke-opacity:0.1; fill:none" points="
  262.551,1102.92 2352.76,1102.92 
  "/>
<polyline clip-path="url(#clip222)" style="stroke:#000000; stroke-linecap:butt; stroke-linejoin:round; stroke-width:2; stroke-opacity:0.1; fill:none" points="
  262.551,760.131 2352.76,760.131 
  "/>
<polyline clip-path="url(#clip222)" style="stroke:#000000; stroke-linecap:butt; stroke-linejoin:round; stroke-width:2; stroke-opacity:0.1; fill:none" points="
  262.551,417.338 2352.76,417.338 
  "/>
<polyline clip-path="url(#clip222)" style="stroke:#000000; stroke-linecap:butt; stroke-linejoin:round; stroke-width:2; stroke-opacity:0.1; fill:none" points="
  262.551,74.5461 2352.76,74.5461 
  "/>
<polyline clip-path="url(#clip220)" style="stroke:#000000; stroke-linecap:butt; stroke-linejoin:round; stroke-width:4; stroke-opacity:1; fill:none" points="
  262.551,1486.45 262.551,47.2441 
  "/>
<polyline clip-path="url(#clip220)" style="stroke:#000000; stroke-linecap:butt; stroke-linejoin:round; stroke-width:4; stroke-opacity:1; fill:none" points="
  262.551,1445.72 281.449,1445.72 
  "/>
<polyline clip-path="url(#clip220)" style="stroke:#000000; stroke-linecap:butt; stroke-linejoin:round; stroke-width:4; stroke-opacity:1; fill:none" points="
  262.551,1102.92 281.449,1102.92 
  "/>
<polyline clip-path="url(#clip220)" style="stroke:#000000; stroke-linecap:butt; stroke-linejoin:round; stroke-width:4; stroke-opacity:1; fill:none" points="
  262.551,760.131 281.449,760.131 
  "/>
<polyline clip-path="url(#clip220)" style="stroke:#000000; stroke-linecap:butt; stroke-linejoin:round; stroke-width:4; stroke-opacity:1; fill:none" points="
  262.551,417.338 281.449,417.338 
  "/>
<polyline clip-path="url(#clip220)" style="stroke:#000000; stroke-linecap:butt; stroke-linejoin:round; stroke-width:4; stroke-opacity:1; fill:none" points="
  262.551,74.5461 281.449,74.5461 
  "/>
<path clip-path="url(#clip220)" d="M214.607 1431.51 Q210.996 1431.51 209.167 1435.08 Q207.362 1438.62 207.362 1445.75 Q207.362 1452.86 209.167 1456.42 Q210.996 1459.96 214.607 1459.96 Q218.241 1459.96 220.047 1456.42 Q221.875 1452.86 221.875 1445.75 Q221.875 1438.62 220.047 1435.08 Q218.241 1431.51 214.607 1431.51 M214.607 1427.81 Q220.417 1427.81 223.473 1432.42 Q226.551 1437 226.551 1445.75 Q226.551 1454.48 223.473 1459.08 Q220.417 1463.67 214.607 1463.67 Q208.797 1463.67 205.718 1459.08 Q202.662 1454.48 202.662 1445.75 Q202.662 1437 205.718 1432.42 Q208.797 1427.81 214.607 1427.81 Z" fill="#000000" fill-rule="evenodd" fill-opacity="1" /><path clip-path="url(#clip220)" d="M148.311 1116.27 L164.63 1116.27 L164.63 1120.2 L142.686 1120.2 L142.686 1116.27 Q145.348 1113.51 149.931 1108.88 Q154.538 1104.23 155.718 1102.89 Q157.964 1100.37 158.843 1098.63 Q159.746 1096.87 159.746 1095.18 Q159.746 1092.43 157.802 1090.69 Q155.88 1088.95 152.778 1088.95 Q150.579 1088.95 148.126 1089.72 Q145.695 1090.48 142.917 1092.03 L142.917 1087.31 Q145.741 1086.18 148.195 1085.6 Q150.649 1085.02 152.686 1085.02 Q158.056 1085.02 161.251 1087.7 Q164.445 1090.39 164.445 1094.88 Q164.445 1097.01 163.635 1098.93 Q162.848 1100.83 160.741 1103.42 Q160.163 1104.09 157.061 1107.31 Q153.959 1110.5 148.311 1116.27 Z" fill="#000000" fill-rule="evenodd" fill-opacity="1" /><path clip-path="url(#clip220)" d="M174.491 1085.64 L192.848 1085.64 L192.848 1089.58 L178.774 1089.58 L178.774 1098.05 Q179.792 1097.7 180.811 1097.54 Q181.829 1097.36 182.848 1097.36 Q188.635 1097.36 192.014 1100.53 Q195.394 1103.7 195.394 1109.12 Q195.394 1114.69 191.922 1117.8 Q188.45 1120.87 182.13 1120.87 Q179.954 1120.87 177.686 1120.5 Q175.44 1120.13 173.033 1119.39 L173.033 1114.69 Q175.116 1115.83 177.339 1116.38 Q179.561 1116.94 182.038 1116.94 Q186.042 1116.94 188.38 1114.83 Q190.718 1112.73 190.718 1109.12 Q190.718 1105.5 188.38 1103.4 Q186.042 1101.29 182.038 1101.29 Q180.163 1101.29 178.288 1101.71 Q176.436 1102.12 174.491 1103 L174.491 1085.64 Z" fill="#000000" fill-rule="evenodd" fill-opacity="1" /><path clip-path="url(#clip220)" d="M214.607 1088.72 Q210.996 1088.72 209.167 1092.29 Q207.362 1095.83 207.362 1102.96 Q207.362 1110.06 209.167 1113.63 Q210.996 1117.17 214.607 1117.17 Q218.241 1117.17 220.047 1113.63 Q221.875 1110.06 221.875 1102.96 Q221.875 1095.83 220.047 1092.29 Q218.241 1088.72 214.607 1088.72 M214.607 1085.02 Q220.417 1085.02 223.473 1089.62 Q226.551 1094.21 226.551 1102.96 Q226.551 1111.68 223.473 1116.29 Q220.417 1120.87 214.607 1120.87 Q208.797 1120.87 205.718 1116.29 Q202.662 1111.68 202.662 1102.96 Q202.662 1094.21 205.718 1089.62 Q208.797 1085.02 214.607 1085.02 Z" fill="#000000" fill-rule="evenodd" fill-opacity="1" /><path clip-path="url(#clip220)" d="M144.329 742.851 L162.686 742.851 L162.686 746.786 L148.612 746.786 L148.612 755.258 Q149.63 754.911 150.649 754.749 Q151.667 754.564 152.686 754.564 Q158.473 754.564 161.852 757.735 Q165.232 760.906 165.232 766.323 Q165.232 771.902 161.76 775.003 Q158.288 778.082 151.968 778.082 Q149.792 778.082 147.524 777.712 Q145.279 777.341 142.871 776.601 L142.871 771.902 Q144.954 773.036 147.177 773.591 Q149.399 774.147 151.876 774.147 Q155.88 774.147 158.218 772.041 Q160.556 769.934 160.556 766.323 Q160.556 762.712 158.218 760.605 Q155.88 758.499 151.876 758.499 Q150.001 758.499 148.126 758.916 Q146.274 759.332 144.329 760.212 L144.329 742.851 Z" fill="#000000" fill-rule="evenodd" fill-opacity="1" /><path clip-path="url(#clip220)" d="M184.445 745.93 Q180.834 745.93 179.005 749.494 Q177.2 753.036 177.2 760.166 Q177.2 767.272 179.005 770.837 Q180.834 774.378 184.445 774.378 Q188.079 774.378 189.885 770.837 Q191.713 767.272 191.713 760.166 Q191.713 753.036 189.885 749.494 Q188.079 745.93 184.445 745.93 M184.445 742.226 Q190.255 742.226 193.311 746.832 Q196.389 751.416 196.389 760.166 Q196.389 768.892 193.311 773.499 Q190.255 778.082 184.445 778.082 Q178.635 778.082 175.556 773.499 Q172.501 768.892 172.501 760.166 Q172.501 751.416 175.556 746.832 Q178.635 742.226 184.445 742.226 Z" fill="#000000" fill-rule="evenodd" fill-opacity="1" /><path clip-path="url(#clip220)" d="M214.607 745.93 Q210.996 745.93 209.167 749.494 Q207.362 753.036 207.362 760.166 Q207.362 767.272 209.167 770.837 Q210.996 774.378 214.607 774.378 Q218.241 774.378 220.047 770.837 Q221.875 767.272 221.875 760.166 Q221.875 753.036 220.047 749.494 Q218.241 745.93 214.607 745.93 M214.607 742.226 Q220.417 742.226 223.473 746.832 Q226.551 751.416 226.551 760.166 Q226.551 768.892 223.473 773.499 Q220.417 778.082 214.607 778.082 Q208.797 778.082 205.718 773.499 Q202.662 768.892 202.662 760.166 Q202.662 751.416 205.718 746.832 Q208.797 742.226 214.607 742.226 Z" fill="#000000" fill-rule="evenodd" fill-opacity="1" /><path clip-path="url(#clip220)" d="M143.103 400.058 L165.325 400.058 L165.325 402.049 L152.778 434.618 L147.894 434.618 L159.7 403.994 L143.103 403.994 L143.103 400.058 Z" fill="#000000" fill-rule="evenodd" fill-opacity="1" /><path clip-path="url(#clip220)" d="M174.491 400.058 L192.848 400.058 L192.848 403.994 L178.774 403.994 L178.774 412.466 Q179.792 412.119 180.811 411.957 Q181.829 411.771 182.848 411.771 Q188.635 411.771 192.014 414.943 Q195.394 418.114 195.394 423.531 Q195.394 429.109 191.922 432.211 Q188.45 435.29 182.13 435.29 Q179.954 435.29 177.686 434.919 Q175.44 434.549 173.033 433.808 L173.033 429.109 Q175.116 430.244 177.339 430.799 Q179.561 431.355 182.038 431.355 Q186.042 431.355 188.38 429.248 Q190.718 427.142 190.718 423.531 Q190.718 419.919 188.38 417.813 Q186.042 415.707 182.038 415.707 Q180.163 415.707 178.288 416.123 Q176.436 416.54 174.491 417.419 L174.491 400.058 Z" fill="#000000" fill-rule="evenodd" fill-opacity="1" /><path clip-path="url(#clip220)" d="M214.607 403.137 Q210.996 403.137 209.167 406.702 Q207.362 410.244 207.362 417.373 Q207.362 424.48 209.167 428.044 Q210.996 431.586 214.607 431.586 Q218.241 431.586 220.047 428.044 Q221.875 424.48 221.875 417.373 Q221.875 410.244 220.047 406.702 Q218.241 403.137 214.607 403.137 M214.607 399.433 Q220.417 399.433 223.473 404.04 Q226.551 408.623 226.551 417.373 Q226.551 426.1 223.473 430.706 Q220.417 435.29 214.607 435.29 Q208.797 435.29 205.718 430.706 Q202.662 426.1 202.662 417.373 Q202.662 408.623 205.718 404.04 Q208.797 399.433 214.607 399.433 Z" fill="#000000" fill-rule="evenodd" fill-opacity="1" /><path clip-path="url(#clip220)" d="M114.931 87.8909 L122.57 87.8909 L122.57 61.5253 L114.26 63.192 L114.26 58.9327 L122.524 57.2661 L127.2 57.2661 L127.2 87.8909 L134.839 87.8909 L134.839 91.8261 L114.931 91.8261 L114.931 87.8909 Z" fill="#000000" fill-rule="evenodd" fill-opacity="1" /><path clip-path="url(#clip220)" d="M154.283 60.3448 Q150.672 60.3448 148.843 63.9096 Q147.038 67.4512 147.038 74.5808 Q147.038 81.6872 148.843 85.252 Q150.672 88.7937 154.283 88.7937 Q157.917 88.7937 159.723 85.252 Q161.552 81.6872 161.552 74.5808 Q161.552 67.4512 159.723 63.9096 Q157.917 60.3448 154.283 60.3448 M154.283 56.6411 Q160.093 56.6411 163.149 61.2475 Q166.227 65.8308 166.227 74.5808 Q166.227 83.3076 163.149 87.9141 Q160.093 92.4974 154.283 92.4974 Q148.473 92.4974 145.394 87.9141 Q142.339 83.3076 142.339 74.5808 Q142.339 65.8308 145.394 61.2475 Q148.473 56.6411 154.283 56.6411 Z" fill="#000000" fill-rule="evenodd" fill-opacity="1" /><path clip-path="url(#clip220)" d="M184.445 60.3448 Q180.834 60.3448 179.005 63.9096 Q177.2 67.4512 177.2 74.5808 Q177.2 81.6872 179.005 85.252 Q180.834 88.7937 184.445 88.7937 Q188.079 88.7937 189.885 85.252 Q191.713 81.6872 191.713 74.5808 Q191.713 67.4512 189.885 63.9096 Q188.079 60.3448 184.445 60.3448 M184.445 56.6411 Q190.255 56.6411 193.311 61.2475 Q196.389 65.8308 196.389 74.5808 Q196.389 83.3076 193.311 87.9141 Q190.255 92.4974 184.445 92.4974 Q178.635 92.4974 175.556 87.9141 Q172.501 83.3076 172.501 74.5808 Q172.501 65.8308 175.556 61.2475 Q178.635 56.6411 184.445 56.6411 Z" fill="#000000" fill-rule="evenodd" fill-opacity="1" /><path clip-path="url(#clip220)" d="M214.607 60.3448 Q210.996 60.3448 209.167 63.9096 Q207.362 67.4512 207.362 74.5808 Q207.362 81.6872 209.167 85.252 Q210.996 88.7937 214.607 88.7937 Q218.241 88.7937 220.047 85.252 Q221.875 81.6872 221.875 74.5808 Q221.875 67.4512 220.047 63.9096 Q218.241 60.3448 214.607 60.3448 M214.607 56.6411 Q220.417 56.6411 223.473 61.2475 Q226.551 65.8308 226.551 74.5808 Q226.551 83.3076 223.473 87.9141 Q220.417 92.4974 214.607 92.4974 Q208.797 92.4974 205.718 87.9141 Q202.662 83.3076 202.662 74.5808 Q202.662 65.8308 205.718 61.2475 Q208.797 56.6411 214.607 56.6411 Z" fill="#000000" fill-rule="evenodd" fill-opacity="1" /><path clip-path="url(#clip220)" d="M20.8447 994.42 Q20.8447 1001.42 26.0645 1005.56 Q31.2844 1009.67 40.2919 1009.67 Q49.2675 1009.67 54.4874 1005.56 Q59.7073 1001.42 59.7073 994.42 Q59.7073 987.418 54.4874 983.344 Q49.2675 979.238 40.2919 979.238 Q31.2844 979.238 26.0645 983.344 Q20.8447 987.418 20.8447 994.42 M63.1448 985.413 L72.4069 976.946 L72.4069 984.712 L64.7999 991.746 Q64.8635 992.797 64.8954 993.37 Q64.9272 993.911 64.9272 994.42 Q64.9272 1004.45 58.2432 1010.46 Q51.5274 1016.45 40.2919 1016.45 Q29.0246 1016.45 22.3406 1010.46 Q15.6248 1004.45 15.6248 994.42 Q15.6248 984.426 22.3406 978.442 Q29.0246 972.458 40.2919 972.458 Q48.5673 972.458 54.4556 975.8 Q60.3439 979.11 63.1448 985.413 Z" fill="#000000" fill-rule="evenodd" fill-opacity="1" /><path clip-path="url(#clip220)" d="M49.9359 963.26 L28.3562 963.26 L28.3562 957.403 L49.7131 957.403 Q54.7739 957.403 57.3202 955.43 Q59.8346 953.457 59.8346 949.51 Q59.8346 944.767 56.8109 942.03 Q53.7872 939.261 48.5673 939.261 L28.3562 939.261 L28.3562 933.405 L64.0042 933.405 L64.0042 939.261 L58.5296 939.261 Q61.7762 941.394 63.3676 944.226 Q64.9272 947.027 64.9272 950.751 Q64.9272 956.894 61.1078 960.077 Q57.2883 963.26 49.9359 963.26 M27.4968 948.523 L27.4968 948.523 Z" fill="#000000" fill-rule="evenodd" fill-opacity="1" /><path clip-path="url(#clip220)" d="M46.0847 905.141 Q46.0847 912.239 47.7079 914.976 Q49.3312 917.713 53.2461 917.713 Q56.3653 917.713 58.2114 915.676 Q60.0256 913.607 60.0256 910.074 Q60.0256 905.205 56.5881 902.276 Q53.1188 899.316 47.3897 899.316 L46.0847 899.316 L46.0847 905.141 M43.6657 893.46 L64.0042 893.46 L64.0042 899.316 L58.5933 899.316 Q61.8398 901.322 63.3994 904.313 Q64.9272 907.305 64.9272 911.634 Q64.9272 917.108 61.8716 920.355 Q58.7843 923.57 53.6281 923.57 Q47.6125 923.57 44.5569 919.559 Q41.5014 915.517 41.5014 907.528 L41.5014 899.316 L40.9285 899.316 Q36.8862 899.316 34.6901 901.99 Q32.4621 904.632 32.4621 909.438 Q32.4621 912.493 33.1941 915.39 Q33.9262 918.286 35.3903 920.96 L29.9795 920.96 Q28.7381 917.745 28.1334 914.721 Q27.4968 911.698 27.4968 908.833 Q27.4968 901.099 31.5072 897.279 Q35.5176 893.46 43.6657 893.46 Z" fill="#000000" fill-rule="evenodd" fill-opacity="1" /><path clip-path="url(#clip220)" d="M42.4881 851.765 L64.0042 851.765 L64.0042 857.621 L42.679 857.621 Q37.6183 857.621 35.1038 859.594 Q32.5894 861.568 32.5894 865.514 Q32.5894 870.257 35.6131 872.994 Q38.6368 875.731 43.8567 875.731 L64.0042 875.731 L64.0042 881.62 L28.3562 881.62 L28.3562 875.731 L33.8944 875.731 Q30.6797 873.631 29.0883 870.798 Q27.4968 867.933 27.4968 864.209 Q27.4968 858.067 31.3163 854.916 Q35.1038 851.765 42.4881 851.765 Z" fill="#000000" fill-rule="evenodd" fill-opacity="1" /><path clip-path="url(#clip220)" d="M18.2347 834.291 L28.3562 834.291 L28.3562 822.228 L32.9077 822.228 L32.9077 834.291 L52.2594 834.291 Q56.6199 834.291 57.8613 833.113 Q59.1026 831.904 59.1026 828.243 L59.1026 822.228 L64.0042 822.228 L64.0042 828.243 Q64.0042 835.023 61.4897 837.601 Q58.9434 840.179 52.2594 840.179 L32.9077 840.179 L32.9077 844.476 L28.3562 844.476 L28.3562 840.179 L18.2347 840.179 L18.2347 834.291 Z" fill="#000000" fill-rule="evenodd" fill-opacity="1" /><path clip-path="url(#clip220)" d="M49.9359 815.13 L28.3562 815.13 L28.3562 809.273 L49.7131 809.273 Q54.7739 809.273 57.3202 807.3 Q59.8346 805.327 59.8346 801.38 Q59.8346 796.637 56.8109 793.9 Q53.7872 791.131 48.5673 791.131 L28.3562 791.131 L28.3562 785.275 L64.0042 785.275 L64.0042 791.131 L58.5296 791.131 Q61.7762 793.264 63.3676 796.096 Q64.9272 798.897 64.9272 802.621 Q64.9272 808.764 61.1078 811.947 Q57.2883 815.13 49.9359 815.13 M27.4968 800.393 L27.4968 800.393 Z" fill="#000000" fill-rule="evenodd" fill-opacity="1" /><path clip-path="url(#clip220)" d="M35.1993 745.457 Q31.2526 743.261 29.3747 740.206 Q27.4968 737.15 27.4968 733.012 Q27.4968 727.442 31.4117 724.419 Q35.2948 721.395 42.4881 721.395 L64.0042 721.395 L64.0042 727.283 L42.679 727.283 Q37.5546 727.283 35.072 729.097 Q32.5894 730.912 32.5894 734.636 Q32.5894 739.187 35.6131 741.829 Q38.6368 744.471 43.8567 744.471 L64.0042 744.471 L64.0042 750.359 L42.679 750.359 Q37.5228 750.359 35.072 752.173 Q32.5894 753.987 32.5894 757.775 Q32.5894 762.263 35.6449 764.904 Q38.6686 767.546 43.8567 767.546 L64.0042 767.546 L64.0042 773.434 L28.3562 773.434 L28.3562 767.546 L33.8944 767.546 Q30.616 765.541 29.0564 762.74 Q27.4968 759.939 27.4968 756.088 Q27.4968 752.205 29.4702 749.499 Q31.4436 746.762 35.1993 745.457 Z" fill="#000000" fill-rule="evenodd" fill-opacity="1" /><path clip-path="url(#clip220)" d="M16.4842 709.459 L16.4842 699.879 L48.8219 687.752 L16.4842 675.562 L16.4842 665.981 L64.0042 665.981 L64.0042 672.252 L22.277 672.252 L54.8694 684.506 L54.8694 690.967 L22.277 703.221 L64.0042 703.221 L64.0042 709.459 L16.4842 709.459 Z" fill="#000000" fill-rule="evenodd" fill-opacity="1" /><path clip-path="url(#clip220)" d="M44.7161 622.981 L47.5806 622.981 L47.5806 649.908 Q53.6281 649.526 56.8109 646.28 Q59.9619 643.001 59.9619 637.177 Q59.9619 633.803 59.1344 630.652 Q58.3069 627.469 56.6518 624.35 L62.1899 624.35 Q63.5267 627.501 64.227 630.811 Q64.9272 634.121 64.9272 637.527 Q64.9272 646.057 59.9619 651.054 Q54.9967 656.019 46.5303 656.019 Q37.7774 656.019 32.6531 651.308 Q27.4968 646.566 27.4968 638.545 Q27.4968 631.352 32.1438 627.182 Q36.7589 622.981 44.7161 622.981 M42.9973 628.837 Q38.1912 628.901 35.3266 631.543 Q32.4621 634.153 32.4621 638.482 Q32.4621 643.383 35.2312 646.343 Q38.0002 649.271 43.0292 649.717 L42.9973 628.837 Z" fill="#000000" fill-rule="evenodd" fill-opacity="1" /><path clip-path="url(#clip220)" d="M18.2347 607.576 L28.3562 607.576 L28.3562 595.513 L32.9077 595.513 L32.9077 607.576 L52.2594 607.576 Q56.6199 607.576 57.8613 606.398 Q59.1026 605.189 59.1026 601.529 L59.1026 595.513 L64.0042 595.513 L64.0042 601.529 Q64.0042 608.308 61.4897 610.886 Q58.9434 613.464 52.2594 613.464 L32.9077 613.464 L32.9077 617.761 L28.3562 617.761 L28.3562 613.464 L18.2347 613.464 L18.2347 607.576 Z" fill="#000000" fill-rule="evenodd" fill-opacity="1" /><path clip-path="url(#clip220)" d="M33.8307 567.154 Q33.2578 568.14 33.0032 569.318 Q32.7167 570.464 32.7167 571.864 Q32.7167 576.83 35.9632 579.503 Q39.1779 582.145 45.2253 582.145 L64.0042 582.145 L64.0042 588.033 L28.3562 588.033 L28.3562 582.145 L33.8944 582.145 Q30.6479 580.299 29.0883 577.339 Q27.4968 574.379 27.4968 570.146 Q27.4968 569.541 27.5923 568.809 Q27.656 568.077 27.8151 567.186 L33.8307 567.154 Z" fill="#000000" fill-rule="evenodd" fill-opacity="1" /><path clip-path="url(#clip220)" d="M28.3562 561.011 L28.3562 555.154 L64.0042 555.154 L64.0042 561.011 L28.3562 561.011 M14.479 561.011 L14.479 555.154 L21.895 555.154 L21.895 561.011 L14.479 561.011 Z" fill="#000000" fill-rule="evenodd" fill-opacity="1" /><path clip-path="url(#clip220)" d="M29.7248 517.247 L35.1993 517.247 Q33.8307 519.729 33.1623 522.244 Q32.4621 524.726 32.4621 527.273 Q32.4621 532.97 36.0905 536.121 Q39.6872 539.272 46.212 539.272 Q52.7369 539.272 56.3653 536.121 Q59.9619 532.97 59.9619 527.273 Q59.9619 524.726 59.2935 522.244 Q58.5933 519.729 57.2247 517.247 L62.6355 517.247 Q63.7814 519.697 64.3543 522.339 Q64.9272 524.949 64.9272 527.909 Q64.9272 535.962 59.8664 540.704 Q54.8057 545.447 46.212 545.447 Q37.491 545.447 32.4939 540.672 Q27.4968 535.866 27.4968 527.527 Q27.4968 524.822 28.0697 522.244 Q28.6108 519.666 29.7248 517.247 Z" fill="#000000" fill-rule="evenodd" fill-opacity="1" /><polyline clip-path="url(#clip222)" style="stroke:#009af9; stroke-linecap:butt; stroke-linejoin:round; stroke-width:4; stroke-opacity:1; fill:none" points="
  321.708,1445.67 334.942,1445.67 348.176,1445.67 361.41,1445.67 374.645,1445.67 387.879,1445.67 401.113,1445.68 414.347,1445.68 427.581,1445.68 440.815,1445.68 
  454.05,1445.68 467.284,1445.68 480.518,1445.68 493.752,1445.68 506.986,1445.68 520.22,1445.68 533.455,1445.68 546.689,1445.68 559.923,1445.68 573.157,1445.68 
  586.391,1445.68 599.626,1445.68 612.86,1445.68 626.094,1445.68 639.328,1445.68 652.562,1445.68 665.796,1445.68 679.031,1445.68 692.265,1445.67 705.499,1445.67 
  718.733,1445.67 731.967,1445.67 745.201,1445.66 758.436,1445.66 771.67,1445.66 784.904,1445.65 798.138,1445.65 811.372,1445.64 824.606,1445.63 837.841,1445.62 
  851.075,1445.61 864.309,1445.6 877.543,1445.59 890.777,1445.58 904.011,1445.57 917.246,1445.56 930.48,1445.56 943.714,1445.55 956.948,1445.55 970.182,1445.55 
  983.416,1445.55 996.651,1445.55 1009.88,1445.55 1023.12,1445.54 1036.35,1445.54 1049.59,1445.54 1062.82,1445.54 1076.06,1445.54 1089.29,1445.54 1102.52,1445.54 
  1115.76,1445.53 1128.99,1445.53 1142.23,1445.53 1155.46,1445.52 1168.69,1445.52 1181.93,1445.52 1195.16,1445.51 1208.4,1445.5 1221.63,1445.5 1234.87,1445.49 
  1248.1,1445.48 1261.33,1445.47 1274.57,1445.46 1287.8,1445.45 1301.04,1445.44 1314.27,1445.43 1327.5,1445.41 1340.74,1445.39 1353.97,1445.37 1367.21,1445.34 
  1380.44,1445.31 1393.68,1445.28 1406.91,1445.23 1420.14,1445.18 1433.38,1445.12 1446.61,1445.04 1459.85,1444.95 1473.08,1444.82 1486.31,1444.66 1499.55,1444.45 
  1512.78,1444.16 1526.02,1443.75 1539.25,1443.14 1552.49,1442.21 1565.72,1440.68 1578.95,1437.85 1592.19,1431.93 1605.42,1417.91 1618.66,1386.63 1631.89,1359.42 
  1645.12,1402.02 1658.36,1430.48 1671.59,1438.92 1684.83,1441.99 1698.06,1443.42 1711.3,1444.19 1724.53,1444.65 1737.76,1444.94 1751,1445.13 1764.23,1445.27 
  1777.47,1445.37 1790.7,1445.44 1803.93,1445.49 1817.17,1445.53 1830.4,1445.56 1843.64,1445.59 1856.87,1445.61 1870.11,1445.63 1883.34,1445.64 1896.57,1445.65 
  1909.81,1445.65 1923.04,1445.66 1936.28,1445.67 1949.51,1445.67 1962.74,1445.67 1975.98,1445.67 1989.21,1445.68 2002.45,1445.68 2015.68,1445.68 2028.92,1445.68 
  2042.15,1445.68 2055.38,1445.68 2068.62,1445.68 2081.85,1445.68 2095.09,1445.68 2108.32,1445.68 2121.55,1445.68 2134.79,1445.68 2148.02,1445.68 2161.26,1445.68 
  2174.49,1445.68 2187.73,1445.68 2200.96,1445.68 2214.19,1445.68 2227.43,1445.68 2240.66,1445.67 2253.9,1445.67 2267.13,1445.67 2280.37,1445.67 2293.6,1445.67 
  
  "/>
<polyline clip-path="url(#clip222)" style="stroke:#e26f46; stroke-linecap:butt; stroke-linejoin:round; stroke-width:4; stroke-opacity:1; fill:none" points="
  321.708,1445.72 334.942,1445.72 348.176,1445.72 361.41,1445.72 374.645,1445.72 387.879,1445.72 401.113,1445.72 414.347,1445.72 427.581,1445.72 440.815,1445.72 
  454.05,1445.72 467.284,1445.72 480.518,1445.72 493.752,1445.72 506.986,1445.72 520.22,1445.72 533.455,1445.72 546.689,1445.72 559.923,1445.72 573.157,1445.72 
  586.391,1445.72 599.626,1445.72 612.86,1445.72 626.094,1445.72 639.328,1445.72 652.562,1445.72 665.796,1445.72 679.031,1445.72 692.265,1445.72 705.499,1445.72 
  718.733,1445.72 731.967,1445.72 745.201,1445.72 758.436,1445.72 771.67,1445.72 784.904,1445.72 798.138,1445.72 811.372,1445.71 824.606,1445.71 837.841,1445.71 
  851.075,1445.71 864.309,1445.71 877.543,1445.71 890.777,1445.71 904.011,1445.71 917.246,1445.71 930.48,1445.71 943.714,1445.71 956.948,1445.71 970.182,1445.71 
  983.416,1445.71 996.651,1445.71 1009.88,1445.71 1023.12,1445.71 1036.35,1445.71 1049.59,1445.71 1062.82,1445.71 1076.06,1445.71 1089.29,1445.71 1102.52,1445.71 
  1115.76,1445.71 1128.99,1445.71 1142.23,1445.71 1155.46,1445.71 1168.69,1445.71 1181.93,1445.71 1195.16,1445.71 1208.4,1445.71 1221.63,1445.71 1234.87,1445.71 
  1248.1,1445.71 1261.33,1445.71 1274.57,1445.7 1287.8,1445.7 1301.04,1445.7 1314.27,1445.7 1327.5,1445.7 1340.74,1445.7 1353.97,1445.7 1367.21,1445.69 
  1380.44,1445.69 1393.68,1445.69 1406.91,1445.68 1420.14,1445.67 1433.38,1445.67 1446.61,1445.65 1459.85,1445.63 1473.08,1445.61 1486.31,1445.57 1499.55,1445.5 
  1512.78,1445.4 1526.02,1445.2 1539.25,1444.83 1552.49,1444.03 1565.72,1442.07 1578.95,1436.26 1592.19,1414.47 1605.42,1309.76 1618.66,811.287 1631.89,87.9763 
  1645.12,1101.29 1658.36,1406.74 1671.59,1438.6 1684.83,1443.69 1698.06,1444.95 1711.3,1445.38 1724.53,1445.54 1737.76,1445.62 1751,1445.66 1764.23,1445.68 
  1777.47,1445.69 1790.7,1445.7 1803.93,1445.71 1817.17,1445.71 1830.4,1445.71 1843.64,1445.71 1856.87,1445.71 1870.11,1445.71 1883.34,1445.72 1896.57,1445.72 
  1909.81,1445.72 1923.04,1445.72 1936.28,1445.72 1949.51,1445.72 1962.74,1445.72 1975.98,1445.72 1989.21,1445.72 2002.45,1445.72 2015.68,1445.72 2028.92,1445.72 
  2042.15,1445.72 2055.38,1445.72 2068.62,1445.72 2081.85,1445.72 2095.09,1445.72 2108.32,1445.72 2121.55,1445.72 2134.79,1445.72 2148.02,1445.72 2161.26,1445.72 
  2174.49,1445.72 2187.73,1445.72 2200.96,1445.72 2214.19,1445.72 2227.43,1445.72 2240.66,1445.72 2253.9,1445.72 2267.13,1445.72 2280.37,1445.72 2293.6,1445.72 
  
  "/>
<polyline clip-path="url(#clip222)" style="stroke:#3da44d; stroke-linecap:butt; stroke-linejoin:round; stroke-width:4; stroke-opacity:1; fill:none" points="
  321.708,1445.7 334.942,1445.7 348.176,1445.7 361.41,1445.7 374.645,1445.7 387.879,1445.7 401.113,1445.7 414.347,1445.7 427.581,1445.7 440.815,1445.7 
  454.05,1445.7 467.284,1445.7 480.518,1445.7 493.752,1445.7 506.986,1445.7 520.22,1445.7 533.455,1445.7 546.689,1445.7 559.923,1445.7 573.157,1445.7 
  586.391,1445.7 599.626,1445.7 612.86,1445.7 626.094,1445.7 639.328,1445.7 652.562,1445.7 665.796,1445.7 679.031,1445.71 692.265,1445.71 705.499,1445.71 
  718.733,1445.71 731.967,1445.7 745.201,1445.7 758.436,1445.7 771.67,1445.7 784.904,1445.69 798.138,1445.69 811.372,1445.68 824.606,1445.68 837.841,1445.67 
  851.075,1445.67 864.309,1445.66 877.543,1445.66 890.777,1445.65 904.011,1445.64 917.246,1445.64 930.48,1445.64 943.714,1445.63 956.948,1445.63 970.182,1445.63 
  983.416,1445.63 996.651,1445.63 1009.88,1445.63 1023.12,1445.63 1036.35,1445.63 1049.59,1445.63 1062.82,1445.63 1076.06,1445.63 1089.29,1445.63 1102.52,1445.63 
  1115.76,1445.62 1128.99,1445.62 1142.23,1445.62 1155.46,1445.62 1168.69,1445.62 1181.93,1445.62 1195.16,1445.61 1208.4,1445.61 1221.63,1445.61 1234.87,1445.61 
  1248.1,1445.6 1261.33,1445.6 1274.57,1445.59 1287.8,1445.59 1301.04,1445.58 1314.27,1445.58 1327.5,1445.57 1340.74,1445.56 1353.97,1445.55 1367.21,1445.54 
  1380.44,1445.53 1393.68,1445.52 1406.91,1445.5 1420.14,1445.48 1433.38,1445.45 1446.61,1445.42 1459.85,1445.38 1473.08,1445.33 1486.31,1445.27 1499.55,1445.18 
  1512.78,1445.06 1526.02,1444.88 1539.25,1444.61 1552.49,1444.19 1565.72,1443.48 1578.95,1442.11 1592.19,1439.17 1605.42,1432.06 1618.66,1416.22 1631.89,1402.57 
  1645.12,1423.98 1658.36,1438.41 1671.59,1442.59 1684.83,1444.05 1698.06,1444.69 1711.3,1445.03 1724.53,1445.23 1737.76,1445.36 1751,1445.44 1764.23,1445.5 
  1777.47,1445.54 1790.7,1445.58 1803.93,1445.6 1817.17,1445.62 1830.4,1445.64 1843.64,1445.66 1856.87,1445.67 1870.11,1445.68 1883.34,1445.69 1896.57,1445.69 
  1909.81,1445.7 1923.04,1445.7 1936.28,1445.71 1949.51,1445.71 1962.74,1445.72 1975.98,1445.71 1989.21,1445.71 2002.45,1445.71 2015.68,1445.71 2028.92,1445.7 
  2042.15,1445.7 2055.38,1445.7 2068.62,1445.7 2081.85,1445.7 2095.09,1445.7 2108.32,1445.7 2121.55,1445.7 2134.79,1445.7 2148.02,1445.7 2161.26,1445.7 
  2174.49,1445.7 2187.73,1445.7 2200.96,1445.7 2214.19,1445.7 2227.43,1445.7 2240.66,1445.7 2253.9,1445.7 2267.13,1445.7 2280.37,1445.7 2293.6,1445.7 
  
  "/>
<path clip-path="url(#clip220)" d="
M1891.24 338.83 L2283.08 338.83 L2283.08 95.2176 L1891.24 95.2176  Z
  " fill="#ffffff" fill-rule="evenodd" fill-opacity="1"/>
<polyline clip-path="url(#clip220)" style="stroke:#000000; stroke-linecap:butt; stroke-linejoin:round; stroke-width:4; stroke-opacity:1; fill:none" points="
  1891.24,338.83 2283.08,338.83 2283.08,95.2176 1891.24,95.2176 1891.24,338.83 
  "/>
<polyline clip-path="url(#clip220)" style="stroke:#009af9; stroke-linecap:butt; stroke-linejoin:round; stroke-width:4; stroke-opacity:1; fill:none" points="
  1914.46,156.121 2053.81,156.121 
  "/>
<path clip-path="url(#clip220)" d="M2077.03 153.218 L2077.95 142.444 L2107.25 142.444 L2108.16 153.218 L2106.97 153.218 Q2106.78 151.064 2106.59 149.822 Q2106.43 148.581 2106.01 147.41 Q2105.61 146.215 2105.09 145.653 Q2104.6 145.067 2103.64 144.622 Q2102.68 144.154 2101.44 144.037 Q2100.2 143.92 2098.32 143.92 Q2096.12 143.92 2095.58 144.013 Q2095 144.154 2094.86 144.575 Q2094.72 144.974 2094.72 145.84 L2094.72 171.113 Q2094.72 172.073 2094.9 172.472 Q2095.11 172.846 2096.21 173.151 Q2097.32 173.432 2099.75 173.432 L2101.67 173.432 L2101.67 174.908 Q2099.7 174.767 2092.56 174.767 Q2085.46 174.767 2083.5 174.908 L2083.5 173.432 L2085.42 173.432 Q2087.85 173.432 2088.95 173.151 Q2090.08 172.846 2090.27 172.472 Q2090.45 172.073 2090.45 171.113 L2090.45 145.84 Q2090.45 145.161 2090.41 144.88 Q2090.36 144.599 2090.15 144.365 Q2089.94 144.107 2089.45 144.013 Q2088.98 143.92 2086.87 143.92 Q2085 143.92 2083.73 144.037 Q2082.49 144.154 2081.53 144.622 Q2080.57 145.067 2080.05 145.653 Q2079.56 146.215 2079.14 147.41 Q2078.74 148.581 2078.58 149.822 Q2078.41 151.064 2078.23 153.218 L2077.03 153.218 Z" fill="#000000" fill-rule="evenodd" fill-opacity="1" /><path clip-path="url(#clip220)" d="M2115.21 174.908 L2115.21 173.432 Q2117.76 173.432 2118.34 173.127 Q2118.95 172.8 2118.95 171.254 L2118.95 158.395 Q2118.95 156.615 2118.32 156.17 Q2117.71 155.725 2115.21 155.725 L2115.21 154.226 L2121.88 153.71 L2121.88 158.98 Q2122.56 156.919 2123.99 155.326 Q2125.44 153.71 2127.78 153.71 Q2129.33 153.71 2130.31 154.577 Q2131.32 155.444 2131.32 156.638 Q2131.32 157.692 2130.66 158.231 Q2130.03 158.746 2129.26 158.746 Q2128.39 158.746 2127.78 158.207 Q2127.2 157.645 2127.2 156.685 Q2127.2 156.099 2127.46 155.654 Q2127.74 155.186 2127.95 155.022 Q2128.16 154.858 2128.3 154.811 Q2128.21 154.764 2127.78 154.764 Q2125.14 154.764 2123.61 157.411 Q2122.12 160.034 2122.12 163.782 L2122.12 171.16 Q2122.12 172.542 2122.68 172.987 Q2123.26 173.432 2125.77 173.432 L2126.78 173.432 L2126.78 174.908 Q2124.86 174.767 2120.69 174.767 Q2120.1 174.767 2119.19 174.79 Q2118.27 174.814 2117.08 174.861 Q2115.88 174.908 2115.21 174.908 Z" fill="#000000" fill-rule="evenodd" fill-opacity="1" /><path clip-path="url(#clip220)" d="M2133.76 162.915 Q2133.76 154.811 2136.78 148.276 Q2138.07 145.536 2139.87 143.24 Q2141.68 140.945 2142.87 139.938 Q2144.07 138.931 2144.39 138.931 Q2144.86 138.931 2144.89 139.399 Q2144.89 139.633 2144.25 140.219 Q2136.52 148.089 2136.55 162.915 Q2136.55 177.789 2144.07 185.354 Q2144.89 186.174 2144.89 186.431 Q2144.89 186.9 2144.39 186.9 Q2144.07 186.9 2142.92 185.94 Q2141.77 184.979 2139.99 182.777 Q2138.21 180.576 2136.92 177.882 Q2133.76 171.347 2133.76 162.915 Z" fill="#000000" fill-rule="evenodd" fill-opacity="1" /><path clip-path="url(#clip220)" d="M2169.58 155.959 Q2169.58 155.982 2169.44 156.825 L2164.1 178.116 Q2163.82 179.241 2163.03 180.365 Q2162.25 181.513 2161.01 182.496 Q2159.79 183.504 2157.92 184.113 Q2156.07 184.745 2153.94 184.745 Q2150.54 184.745 2149.04 184.019 Q2147.57 183.316 2147.57 181.817 Q2147.57 180.506 2148.39 179.756 Q2149.21 179.03 2150.14 179.03 Q2151.03 179.03 2151.5 179.545 Q2151.97 180.06 2151.97 180.716 Q2151.97 181.442 2151.48 182.169 Q2150.99 182.918 2150 183.199 Q2151.57 183.691 2153.85 183.691 Q2158.65 183.691 2160.71 178.608 Q2160.75 178.538 2160.75 178.515 L2162.35 172.167 L2162.28 172.12 Q2161.88 172.589 2161.25 173.127 Q2160.64 173.643 2159.33 174.275 Q2158.01 174.908 2156.73 174.908 Q2154.03 174.908 2152.18 172.846 Q2150.36 170.762 2150.36 167.319 Q2150.36 164.812 2151.36 162.306 Q2152.39 159.777 2153.99 157.926 Q2155.6 156.052 2157.66 154.881 Q2159.75 153.71 2161.76 153.71 Q2163.17 153.71 2164.36 154.553 Q2165.56 155.373 2166.21 156.732 Q2166.33 155.607 2166.96 155.139 Q2167.62 154.671 2168.18 154.671 Q2168.81 154.671 2169.19 155.022 Q2169.58 155.35 2169.58 155.959 M2165.65 158.887 Q2165.65 158.746 2165.56 158.371 Q2165.46 157.973 2165.18 157.341 Q2164.92 156.708 2164.53 156.146 Q2164.13 155.584 2163.4 155.186 Q2162.7 154.764 2161.81 154.764 Q2160.36 154.764 2158.9 155.982 Q2157.45 157.177 2156.44 159.027 Q2155.51 160.807 2154.62 164.25 Q2153.75 167.693 2153.75 169.45 Q2153.75 171.183 2154.5 172.518 Q2155.25 173.854 2156.87 173.854 Q2158.74 173.854 2160.75 172.12 Q2162.84 170.317 2163.19 168.771 L2165.51 159.613 Q2165.65 159.051 2165.65 158.887 Z" fill="#000000" fill-rule="evenodd" fill-opacity="1" /><path clip-path="url(#clip220)" d="M2174.24 186.431 Q2174.24 186.197 2174.85 185.612 Q2182.57 177.742 2182.57 162.915 Q2182.57 148.042 2175.15 140.523 Q2174.24 139.657 2174.24 139.399 Q2174.24 138.931 2174.71 138.931 Q2175.03 138.931 2176.18 139.891 Q2177.35 140.851 2179.11 143.053 Q2180.89 145.255 2182.2 147.948 Q2185.36 154.483 2185.36 162.915 Q2185.36 171.019 2182.34 177.554 Q2181.05 180.295 2179.25 182.59 Q2177.45 184.886 2176.25 185.893 Q2175.06 186.9 2174.71 186.9 Q2174.24 186.9 2174.24 186.431 Z" fill="#000000" fill-rule="evenodd" fill-opacity="1" /><polyline clip-path="url(#clip220)" style="stroke:#e26f46; stroke-linecap:butt; stroke-linejoin:round; stroke-width:4; stroke-opacity:1; fill:none" points="
  1914.46,217.024 2053.81,217.024 
  "/>
<path clip-path="url(#clip220)" d="M2077.03 225.505 Q2077.03 220.937 2080.22 217.775 Q2083.4 214.613 2087.71 214.613 Q2091.37 214.613 2093.76 217.588 L2093.76 207.212 Q2093.76 205.432 2093.12 204.987 Q2092.51 204.542 2090.03 204.542 L2090.03 203.043 L2096.94 202.527 L2096.94 231.641 Q2096.94 233.421 2097.55 233.89 Q2098.18 234.335 2100.67 234.335 L2100.67 235.811 L2093.61 236.349 L2093.61 233.164 Q2091.13 236.326 2087.2 236.349 Q2083.07 236.349 2080.05 233.187 Q2077.03 230.025 2077.03 225.505 M2081.01 225.552 Q2081.01 230.002 2082.4 232.203 Q2084.32 235.272 2087.43 235.272 Q2090.99 235.272 2093.1 231.922 Q2093.64 231.103 2093.61 230.142 L2093.61 220.305 Q2093.61 219.345 2093.1 218.548 Q2091.13 215.667 2087.92 215.667 Q2084.57 215.667 2082.49 218.736 Q2081.01 221.031 2081.01 225.552 Z" fill="#000000" fill-rule="evenodd" fill-opacity="1" /><path clip-path="url(#clip220)" d="M2103.57 225.247 Q2103.57 220.726 2106.48 217.518 Q2109.38 214.309 2113.55 214.309 Q2117.77 214.309 2119.94 217.049 Q2122.15 219.79 2122.15 223.725 Q2122.15 224.451 2121.96 224.591 Q2121.77 224.732 2120.95 224.732 L2107.55 224.732 Q2107.55 229.627 2109.01 231.922 Q2111.02 235.131 2114.42 235.131 Q2114.88 235.131 2115.45 235.038 Q2116.01 234.944 2117.16 234.546 Q2118.3 234.124 2119.31 233.023 Q2120.32 231.922 2120.9 230.189 Q2121.04 229.51 2121.51 229.533 Q2122.15 229.533 2122.15 230.095 Q2122.15 230.517 2121.68 231.477 Q2121.23 232.414 2120.37 233.539 Q2119.5 234.663 2117.81 235.506 Q2116.15 236.349 2114.14 236.349 Q2109.92 236.349 2106.73 233.164 Q2103.57 229.955 2103.57 225.247 M2107.6 223.725 L2118.98 223.725 Q2118.98 222.717 2118.8 221.593 Q2118.63 220.469 2118.12 218.923 Q2117.63 217.354 2116.45 216.37 Q2115.28 215.386 2113.55 215.386 Q2112.78 215.386 2111.93 215.714 Q2111.11 216.042 2110.11 216.838 Q2109.1 217.635 2108.4 219.438 Q2107.69 221.242 2107.6 223.725 Z" fill="#000000" fill-rule="evenodd" fill-opacity="1" /><path clip-path="url(#clip220)" d="M2122.57 216.628 L2122.57 215.574 Q2124.77 215.48 2126.22 213.934 Q2127.7 212.365 2128.19 210.444 Q2128.71 208.523 2128.75 206.298 L2129.95 206.298 L2129.95 215.129 L2136.81 215.129 L2136.81 216.628 L2129.95 216.628 L2129.95 229.955 Q2129.95 235.131 2133.18 235.131 Q2134.56 235.131 2135.48 233.726 Q2136.39 232.297 2136.39 229.768 L2136.39 227.121 L2137.58 227.121 L2137.58 229.861 Q2137.58 232.461 2136.39 234.405 Q2135.19 236.349 2132.83 236.349 Q2131.96 236.349 2131.1 236.115 Q2130.25 235.904 2129.13 235.342 Q2128.03 234.757 2127.32 233.351 Q2126.64 231.922 2126.64 229.861 L2126.64 216.628 L2122.57 216.628 Z" fill="#000000" fill-rule="evenodd" fill-opacity="1" /><path clip-path="url(#clip220)" d="M2140.98 223.818 Q2140.98 215.714 2144.01 209.179 Q2145.29 206.439 2147.1 204.143 Q2148.9 201.848 2150.1 200.841 Q2151.29 199.834 2151.62 199.834 Q2152.09 199.834 2152.11 200.302 Q2152.11 200.536 2151.48 201.122 Q2143.75 208.992 2143.77 223.818 Q2143.77 238.692 2151.29 246.257 Q2152.11 247.077 2152.11 247.334 Q2152.11 247.803 2151.62 247.803 Q2151.29 247.803 2150.14 246.843 Q2149 245.882 2147.22 243.68 Q2145.44 241.479 2144.15 238.785 Q2140.98 232.25 2140.98 223.818 Z" fill="#000000" fill-rule="evenodd" fill-opacity="1" /><path clip-path="url(#clip220)" d="M2176.81 216.862 Q2176.81 216.885 2176.67 217.728 L2171.33 239.019 Q2171.05 240.144 2170.25 241.268 Q2169.48 242.416 2168.24 243.399 Q2167.02 244.407 2165.15 245.016 Q2163.29 245.648 2161.16 245.648 Q2157.77 245.648 2156.27 244.922 Q2154.79 244.219 2154.79 242.72 Q2154.79 241.409 2155.61 240.659 Q2156.43 239.933 2157.37 239.933 Q2158.26 239.933 2158.73 240.448 Q2159.2 240.963 2159.2 241.619 Q2159.2 242.345 2158.7 243.072 Q2158.21 243.821 2157.23 244.102 Q2158.8 244.594 2161.07 244.594 Q2165.87 244.594 2167.93 239.511 Q2167.98 239.441 2167.98 239.418 L2169.57 233.07 L2169.5 233.023 Q2169.1 233.492 2168.47 234.03 Q2167.86 234.546 2166.55 235.178 Q2165.24 235.811 2163.95 235.811 Q2161.26 235.811 2159.41 233.749 Q2157.58 231.665 2157.58 228.222 Q2157.58 225.715 2158.59 223.209 Q2159.62 220.68 2161.21 218.829 Q2162.83 216.955 2164.89 215.784 Q2166.97 214.613 2168.99 214.613 Q2170.39 214.613 2171.59 215.456 Q2172.78 216.276 2173.44 217.635 Q2173.55 216.51 2174.19 216.042 Q2174.84 215.574 2175.4 215.574 Q2176.04 215.574 2176.41 215.925 Q2176.81 216.253 2176.81 216.862 M2172.87 219.79 Q2172.87 219.649 2172.78 219.274 Q2172.69 218.876 2172.41 218.244 Q2172.15 217.611 2171.75 217.049 Q2171.35 216.487 2170.63 216.089 Q2169.92 215.667 2169.03 215.667 Q2167.58 215.667 2166.13 216.885 Q2164.68 218.08 2163.67 219.93 Q2162.73 221.71 2161.84 225.153 Q2160.98 228.596 2160.98 230.353 Q2160.98 232.086 2161.73 233.421 Q2162.47 234.757 2164.09 234.757 Q2165.96 234.757 2167.98 233.023 Q2170.06 231.22 2170.42 229.674 L2172.73 220.516 Q2172.87 219.954 2172.87 219.79 Z" fill="#000000" fill-rule="evenodd" fill-opacity="1" /><path clip-path="url(#clip220)" d="M2181.46 247.334 Q2181.46 247.1 2182.07 246.515 Q2189.8 238.645 2189.8 223.818 Q2189.8 208.945 2182.37 201.426 Q2181.46 200.56 2181.46 200.302 Q2181.46 199.834 2181.93 199.834 Q2182.26 199.834 2183.41 200.794 Q2184.58 201.754 2186.33 203.956 Q2188.11 206.158 2189.42 208.851 Q2192.59 215.386 2192.59 223.818 Q2192.59 231.922 2189.57 238.457 Q2188.28 241.198 2186.47 243.493 Q2184.67 245.789 2183.48 246.796 Q2182.28 247.803 2181.93 247.803 Q2181.46 247.803 2181.46 247.334 Z" fill="#000000" fill-rule="evenodd" fill-opacity="1" /><polyline clip-path="url(#clip220)" style="stroke:#3da44d; stroke-linecap:butt; stroke-linejoin:round; stroke-width:4; stroke-opacity:1; fill:none" points="
  1914.46,277.927 2053.81,277.927 
  "/>
<path clip-path="url(#clip220)" d="M2077.03 297.853 L2085.4 284.95 L2088.8 302.072 L2089.44 305.191 Q2089.58 304.376 2090.01 302.993 Q2090.47 301.575 2090.54 301.221 L2101.77 258.081 Q2101.85 257.797 2101.95 257.336 Q2102.09 256.84 2102.16 256.663 Q2102.24 256.486 2102.34 256.131 Q2102.45 255.777 2102.52 255.67 Q2102.59 255.529 2102.7 255.28 Q2102.8 255.032 2102.94 254.961 Q2103.09 254.891 2103.26 254.749 Q2103.44 254.607 2103.65 254.571 Q2103.9 254.536 2104.15 254.501 Q2104.4 254.465 2104.75 254.465 L2111.1 254.465 Q2113.33 254.465 2113.33 255.918 Q2113.33 257.372 2111.17 257.372 L2104.96 257.372 L2090.32 313.344 Q2090.11 314.159 2089.93 314.478 Q2089.79 314.797 2089.3 315.081 Q2088.8 315.364 2087.91 315.364 L2087.21 315.364 L2082.56 292.288 L2078.2 299.023 L2077.03 297.853 Z" fill="#000000" fill-rule="evenodd" fill-opacity="1" /><path clip-path="url(#clip220)" d="
M2110.95 257.402 L2236.63 257.402 L2236.63 254.387 L2110.95 254.387  Z
  " fill="#000000" fill-rule="evenodd" fill-opacity="1"/>
<path clip-path="url(#clip220)" d="M2116.07 292.721 Q2116.07 288.154 2119.25 284.992 Q2122.44 281.83 2126.75 281.83 Q2130.4 281.83 2132.79 284.804 L2132.79 274.428 Q2132.79 272.648 2132.16 272.203 Q2131.55 271.758 2129.07 271.758 L2129.07 270.259 L2135.98 269.744 L2135.98 298.858 Q2135.98 300.638 2136.59 301.106 Q2137.22 301.551 2139.7 301.551 L2139.7 303.027 L2132.65 303.566 L2132.65 300.38 Q2130.17 303.542 2126.23 303.566 Q2122.11 303.566 2119.09 300.404 Q2116.07 297.242 2116.07 292.721 M2120.05 292.768 Q2120.05 297.218 2121.43 299.42 Q2123.35 302.488 2126.47 302.488 Q2130.03 302.488 2132.14 299.139 Q2132.68 298.319 2132.65 297.359 L2132.65 287.521 Q2132.65 286.561 2132.14 285.765 Q2130.17 282.884 2126.96 282.884 Q2123.61 282.884 2121.53 285.952 Q2120.05 288.247 2120.05 292.768 Z" fill="#000000" fill-rule="evenodd" fill-opacity="1" /><path clip-path="url(#clip220)" d="M2142.61 292.464 Q2142.61 287.943 2145.51 284.734 Q2148.42 281.525 2152.59 281.525 Q2156.8 281.525 2158.98 284.266 Q2161.18 287.006 2161.18 290.941 Q2161.18 291.667 2160.99 291.808 Q2160.81 291.948 2159.99 291.948 L2146.59 291.948 Q2146.59 296.844 2148.04 299.139 Q2150.06 302.348 2153.45 302.348 Q2153.92 302.348 2154.48 302.254 Q2155.05 302.16 2156.19 301.762 Q2157.34 301.341 2158.35 300.24 Q2159.36 299.139 2159.94 297.406 Q2160.08 296.726 2160.55 296.75 Q2161.18 296.75 2161.18 297.312 Q2161.18 297.734 2160.71 298.694 Q2160.27 299.631 2159.4 300.755 Q2158.54 301.879 2156.85 302.723 Q2155.19 303.566 2153.17 303.566 Q2148.96 303.566 2145.77 300.38 Q2142.61 297.171 2142.61 292.464 M2146.64 290.941 L2158.02 290.941 Q2158.02 289.934 2157.83 288.81 Q2157.67 287.685 2157.15 286.139 Q2156.66 284.57 2155.49 283.586 Q2154.32 282.603 2152.59 282.603 Q2151.81 282.603 2150.97 282.931 Q2150.15 283.259 2149.14 284.055 Q2148.14 284.851 2147.43 286.655 Q2146.73 288.458 2146.64 290.941 Z" fill="#000000" fill-rule="evenodd" fill-opacity="1" /><path clip-path="url(#clip220)" d="M2161.61 283.844 L2161.61 282.79 Q2163.81 282.696 2165.26 281.15 Q2166.74 279.581 2167.23 277.661 Q2167.74 275.74 2167.79 273.515 L2168.98 273.515 L2168.98 282.345 L2175.85 282.345 L2175.85 283.844 L2168.98 283.844 L2168.98 297.171 Q2168.98 302.348 2172.22 302.348 Q2173.6 302.348 2174.51 300.942 Q2175.43 299.514 2175.43 296.984 L2175.43 294.337 L2176.62 294.337 L2176.62 297.078 Q2176.62 299.678 2175.43 301.622 Q2174.23 303.566 2171.87 303.566 Q2171 303.566 2170.13 303.332 Q2169.29 303.121 2168.16 302.559 Q2167.06 301.973 2166.36 300.568 Q2165.68 299.139 2165.68 297.078 L2165.68 283.844 L2161.61 283.844 Z" fill="#000000" fill-rule="evenodd" fill-opacity="1" /><path clip-path="url(#clip220)" d="M2180.02 291.035 Q2180.02 282.931 2183.04 276.396 Q2184.33 273.655 2186.13 271.36 Q2187.94 269.065 2189.13 268.057 Q2190.33 267.05 2190.66 267.05 Q2191.12 267.05 2191.15 267.519 Q2191.15 267.753 2190.51 268.338 Q2182.79 276.208 2182.81 291.035 Q2182.81 305.908 2190.33 313.473 Q2191.15 314.293 2191.15 314.551 Q2191.15 315.019 2190.66 315.019 Q2190.33 315.019 2189.18 314.059 Q2188.03 313.099 2186.25 310.897 Q2184.47 308.695 2183.18 306.002 Q2180.02 299.467 2180.02 291.035 Z" fill="#000000" fill-rule="evenodd" fill-opacity="1" /><path clip-path="url(#clip220)" d="M2215.85 284.078 Q2215.85 284.102 2215.71 284.945 L2210.37 306.236 Q2210.08 307.36 2209.29 308.484 Q2208.51 309.632 2207.27 310.616 Q2206.06 311.623 2204.18 312.232 Q2202.33 312.864 2200.2 312.864 Q2196.8 312.864 2195.3 312.138 Q2193.83 311.436 2193.83 309.937 Q2193.83 308.625 2194.65 307.875 Q2195.47 307.149 2196.41 307.149 Q2197.3 307.149 2197.76 307.665 Q2198.23 308.18 2198.23 308.836 Q2198.23 309.562 2197.74 310.288 Q2197.25 311.038 2196.27 311.319 Q2197.83 311.81 2200.11 311.81 Q2204.91 311.81 2206.97 306.728 Q2207.02 306.658 2207.02 306.634 L2208.61 300.287 L2208.54 300.24 Q2208.14 300.708 2207.51 301.247 Q2206.9 301.762 2205.59 302.395 Q2204.28 303.027 2202.99 303.027 Q2200.29 303.027 2198.44 300.966 Q2196.62 298.881 2196.62 295.438 Q2196.62 292.932 2197.62 290.426 Q2198.65 287.896 2200.25 286.046 Q2201.86 284.172 2203.92 283.001 Q2206.01 281.83 2208.02 281.83 Q2209.43 281.83 2210.62 282.673 Q2211.82 283.493 2212.47 284.851 Q2212.59 283.727 2213.22 283.259 Q2213.88 282.79 2214.44 282.79 Q2215.07 282.79 2215.45 283.141 Q2215.85 283.469 2215.85 284.078 M2211.91 287.006 Q2211.91 286.866 2211.82 286.491 Q2211.72 286.093 2211.44 285.46 Q2211.19 284.828 2210.79 284.266 Q2210.39 283.704 2209.66 283.305 Q2208.96 282.884 2208.07 282.884 Q2206.62 282.884 2205.17 284.102 Q2203.71 285.296 2202.71 287.147 Q2201.77 288.927 2200.88 292.37 Q2200.01 295.813 2200.01 297.57 Q2200.01 299.303 2200.76 300.638 Q2201.51 301.973 2203.13 301.973 Q2205 301.973 2207.02 300.24 Q2209.1 298.436 2209.45 296.89 L2211.77 287.732 Q2211.91 287.17 2211.91 287.006 Z" fill="#000000" fill-rule="evenodd" fill-opacity="1" /><path clip-path="url(#clip220)" d="M2220.5 314.551 Q2220.5 314.317 2221.11 313.731 Q2228.84 305.861 2228.84 291.035 Q2228.84 276.162 2221.41 268.643 Q2220.5 267.776 2220.5 267.519 Q2220.5 267.05 2220.97 267.05 Q2221.29 267.05 2222.44 268.01 Q2223.61 268.971 2225.37 271.173 Q2227.15 273.374 2228.46 276.068 Q2231.62 282.603 2231.62 291.035 Q2231.62 299.139 2228.6 305.674 Q2227.31 308.414 2225.51 310.71 Q2223.71 313.005 2222.51 314.012 Q2221.32 315.019 2220.97 315.019 Q2220.5 315.019 2220.5 314.551 Z" fill="#000000" fill-rule="evenodd" fill-opacity="1" /></svg>
