<?xml version="1.0" encoding="utf-8"?>
<svg xmlns="http://www.w3.org/2000/svg" xmlns:xlink="http://www.w3.org/1999/xlink" width="600" height="400" viewBox="0 0 2400 1600">
<defs>
  <clipPath id="clip960">
    <rect x="0" y="0" width="2400" height="1600"/>
  </clipPath>
</defs>
<path clip-path="url(#clip960)" d="
M0 1600 L2400 1600 L2400 0 L0 0  Z
  " fill="#ffffff" fill-rule="evenodd" fill-opacity="1"/>
<defs>
  <clipPath id="clip961">
    <rect x="480" y="0" width="1681" height="1600"/>
  </clipPath>
</defs>
<defs>
  <clipPath id="clip962">
    <rect x="200" y="47" width="2153" height="1440"/>
  </clipPath>
</defs>
<path clip-path="url(#clip960)" d="
M175.445 1486.45 L2352.76 1486.45 L2352.76 47.2441 L175.445 47.2441  Z
  " fill="#ffffff" fill-rule="evenodd" fill-opacity="1"/>
<defs>
  <clipPath id="clip963">
    <rect x="175" y="47" width="2178" height="1440"/>
  </clipPath>
</defs>
<polyline clip-path="url(#clip963)" style="stroke:#000000; stroke-linecap:butt; stroke-linejoin:round; stroke-width:2; stroke-opacity:0.1; fill:none" points="
  237.067,1486.45 237.067,47.2441 
  "/>
<polyline clip-path="url(#clip963)" style="stroke:#000000; stroke-linecap:butt; stroke-linejoin:round; stroke-width:2; stroke-opacity:0.1; fill:none" points="
  912.566,1486.45 912.566,47.2441 
  "/>
<polyline clip-path="url(#clip963)" style="stroke:#000000; stroke-linecap:butt; stroke-linejoin:round; stroke-width:2; stroke-opacity:0.1; fill:none" points="
  1601.85,1486.45 1601.85,47.2441 
  "/>
<polyline clip-path="url(#clip963)" style="stroke:#000000; stroke-linecap:butt; stroke-linejoin:round; stroke-width:2; stroke-opacity:0.1; fill:none" points="
  2291.13,1486.45 2291.13,47.2441 
  "/>
<polyline clip-path="url(#clip960)" style="stroke:#000000; stroke-linecap:butt; stroke-linejoin:round; stroke-width:4; stroke-opacity:1; fill:none" points="
  175.445,1486.45 2352.76,1486.45 
  "/>
<polyline clip-path="url(#clip960)" style="stroke:#000000; stroke-linecap:butt; stroke-linejoin:round; stroke-width:4; stroke-opacity:1; fill:none" points="
  237.067,1486.45 237.067,1467.55 
  "/>
<polyline clip-path="url(#clip960)" style="stroke:#000000; stroke-linecap:butt; stroke-linejoin:round; stroke-width:4; stroke-opacity:1; fill:none" points="
  912.566,1486.45 912.566,1467.55 
  "/>
<polyline clip-path="url(#clip960)" style="stroke:#000000; stroke-linecap:butt; stroke-linejoin:round; stroke-width:4; stroke-opacity:1; fill:none" points="
  1601.85,1486.45 1601.85,1467.55 
  "/>
<polyline clip-path="url(#clip960)" style="stroke:#000000; stroke-linecap:butt; stroke-linejoin:round; stroke-width:4; stroke-opacity:1; fill:none" points="
  2291.13,1486.45 2291.13,1467.55 
  "/>
<path clip-path="url(#clip960)" d="M222.223 1554.64 L222.223 1553.16 L222.926 1553.16 Q225.479 1553.16 226.276 1552.81 Q227.095 1552.43 227.166 1551.08 L227.166 1525.48 Q227.119 1524.23 226.322 1523.86 Q225.526 1523.46 222.926 1523.46 L222.223 1523.46 L222.223 1522.01 Q224.472 1522.1 228.969 1522.1 Q230.796 1522.1 232.365 1522.06 Q233.958 1522.01 234.216 1522.01 L247.262 1522.01 L248.597 1532.81 L247.356 1532.81 Q246.981 1529.88 246.559 1528.36 Q246.161 1526.81 245.177 1525.57 Q244.194 1524.33 242.554 1523.91 Q240.915 1523.46 238.151 1523.46 L234.052 1523.46 Q232.506 1523.46 231.967 1523.77 Q231.428 1524.07 231.428 1525.33 L231.428 1550.94 Q231.428 1552.41 232.412 1552.79 Q233.396 1553.16 236.699 1553.16 L237.565 1553.16 L237.565 1554.64 Q233.49 1554.5 229.367 1554.5 L229.063 1554.5 Q226.065 1554.5 222.223 1554.64 Z" fill="#000000" fill-rule="evenodd" fill-opacity="1" /><path clip-path="url(#clip960)" d="M894.753 1554.71 L894.753 1553.23 Q896.955 1553.23 898.571 1552.55 Q900.187 1551.87 900.656 1551.38 Q901.147 1550.87 901.71 1550.05 L909.58 1538.45 L900.749 1525.1 Q900.07 1524.09 899.157 1523.77 Q898.267 1523.44 896.299 1523.44 L895.386 1523.44 L895.386 1521.94 Q898.032 1522.08 901.616 1522.08 Q906.933 1522.08 908.619 1521.94 L908.619 1523.44 Q907.19 1523.48 906.347 1523.95 Q905.504 1524.4 905.504 1524.87 Q905.504 1525.05 905.832 1525.59 L912.015 1534.84 L917.496 1526.74 Q917.918 1526.06 917.918 1525.64 Q917.918 1524.77 917.122 1524.14 Q916.349 1523.48 914.943 1523.44 L914.943 1521.94 Q916.864 1522.08 921.103 1522.08 Q921.642 1522.08 922.509 1522.06 Q923.399 1522.03 924.57 1521.99 Q925.741 1521.94 926.42 1521.94 L926.42 1523.44 Q921.572 1523.48 919.464 1526.55 L912.882 1536.18 L923.001 1551.5 Q923.727 1552.55 924.64 1552.9 Q925.554 1553.23 927.521 1553.23 L928.435 1553.23 L928.435 1554.71 Q925.413 1554.57 922.204 1554.57 Q916.887 1554.57 915.201 1554.71 L915.201 1553.23 Q916.63 1553.18 917.473 1552.74 Q918.316 1552.27 918.316 1551.78 Q918.316 1551.73 918.058 1551.26 L910.493 1539.79 L903.677 1549.86 Q903.209 1550.63 903.209 1551.01 Q903.209 1551.78 903.958 1552.48 Q904.731 1553.16 906.23 1553.23 L906.23 1554.71 Q904.497 1554.57 900.07 1554.57 Q899.93 1554.57 894.753 1554.71 Z" fill="#000000" fill-rule="evenodd" fill-opacity="1" /><path clip-path="url(#clip960)" d="M1580.11 1554.71 L1580.11 1553.23 Q1581.84 1553.23 1582.94 1552.9 Q1584.04 1552.55 1584.44 1551.92 Q1584.86 1551.26 1584.95 1550.84 Q1585.05 1550.4 1585.05 1549.67 L1585.05 1525.69 Q1585.05 1524.3 1584.44 1523.88 Q1583.85 1523.44 1581.25 1523.44 L1580.11 1523.44 L1580.11 1521.94 L1588.21 1521.94 Q1589.08 1521.94 1589.31 1522.1 Q1589.55 1522.24 1589.9 1522.99 L1600.3 1549.86 L1610.79 1522.85 Q1611.02 1522.17 1611.23 1522.06 Q1611.47 1521.94 1612.38 1521.94 L1620.49 1521.94 L1620.49 1523.44 L1619.34 1523.44 Q1616.74 1523.44 1616.13 1523.88 Q1615.54 1524.3 1615.54 1525.69 L1615.54 1550.96 Q1615.54 1552.34 1616.13 1552.79 Q1616.74 1553.23 1619.34 1553.23 L1620.49 1553.23 L1620.49 1554.71 Q1618.71 1554.57 1613.62 1554.57 Q1608.49 1554.57 1606.71 1554.71 L1606.71 1553.23 L1607.89 1553.23 Q1610.48 1553.23 1611.07 1552.81 Q1611.66 1552.36 1611.66 1550.96 L1611.66 1523.44 L1611.61 1523.44 L1599.83 1553.79 Q1599.5 1554.71 1598.96 1554.71 Q1598.38 1554.71 1598 1553.65 L1586.43 1523.81 L1586.38 1523.81 L1586.38 1549.67 Q1586.38 1550.4 1586.48 1550.84 Q1586.57 1551.26 1586.97 1551.92 Q1587.39 1552.55 1588.49 1552.9 Q1589.59 1553.23 1591.33 1553.23 L1591.33 1554.71 Q1586.29 1554.57 1585.7 1554.57 Q1585.14 1554.57 1580.11 1554.71 Z" fill="#000000" fill-rule="evenodd" fill-opacity="1" /><path clip-path="url(#clip960)" d="M2276.29 1554.64 L2276.29 1553.16 L2276.99 1553.16 Q2279.55 1553.16 2280.34 1552.81 Q2281.16 1552.43 2281.23 1551.08 L2281.23 1525.48 Q2281.19 1524.23 2280.39 1523.86 Q2279.59 1523.46 2276.99 1523.46 L2276.29 1523.46 L2276.29 1522.01 Q2278.54 1522.1 2283.04 1522.1 Q2284.86 1522.1 2286.43 1522.06 Q2288.02 1522.01 2288.28 1522.01 L2301.33 1522.01 L2302.66 1532.81 L2301.42 1532.81 Q2301.05 1529.88 2300.63 1528.36 Q2300.23 1526.81 2299.24 1525.57 Q2298.26 1524.33 2296.62 1523.91 Q2294.98 1523.46 2292.22 1523.46 L2288.12 1523.46 Q2286.57 1523.46 2286.03 1523.77 Q2285.5 1524.07 2285.5 1525.33 L2285.5 1550.94 Q2285.5 1552.41 2286.48 1552.79 Q2287.46 1553.16 2290.77 1553.16 L2291.63 1553.16 L2291.63 1554.64 Q2287.56 1554.5 2283.43 1554.5 L2283.13 1554.5 Q2280.13 1554.5 2276.29 1554.64 Z" fill="#000000" fill-rule="evenodd" fill-opacity="1" /><polyline clip-path="url(#clip963)" style="stroke:#000000; stroke-linecap:butt; stroke-linejoin:round; stroke-width:2; stroke-opacity:0.1; fill:none" points="
  175.445,1445.72 2352.76,1445.72 
  "/>
<polyline clip-path="url(#clip963)" style="stroke:#000000; stroke-linecap:butt; stroke-linejoin:round; stroke-width:2; stroke-opacity:0.1; fill:none" points="
  175.445,1071.71 2352.76,1071.71 
  "/>
<polyline clip-path="url(#clip963)" style="stroke:#000000; stroke-linecap:butt; stroke-linejoin:round; stroke-width:2; stroke-opacity:0.1; fill:none" points="
  175.445,697.7 2352.76,697.7 
  "/>
<polyline clip-path="url(#clip963)" style="stroke:#000000; stroke-linecap:butt; stroke-linejoin:round; stroke-width:2; stroke-opacity:0.1; fill:none" points="
  175.445,323.692 2352.76,323.692 
  "/>
<polyline clip-path="url(#clip960)" style="stroke:#000000; stroke-linecap:butt; stroke-linejoin:round; stroke-width:4; stroke-opacity:1; fill:none" points="
  175.445,1486.45 175.445,47.2441 
  "/>
<polyline clip-path="url(#clip960)" style="stroke:#000000; stroke-linecap:butt; stroke-linejoin:round; stroke-width:4; stroke-opacity:1; fill:none" points="
  175.445,1445.72 194.343,1445.72 
  "/>
<polyline clip-path="url(#clip960)" style="stroke:#000000; stroke-linecap:butt; stroke-linejoin:round; stroke-width:4; stroke-opacity:1; fill:none" points="
  175.445,1071.71 194.343,1071.71 
  "/>
<polyline clip-path="url(#clip960)" style="stroke:#000000; stroke-linecap:butt; stroke-linejoin:round; stroke-width:4; stroke-opacity:1; fill:none" points="
  175.445,697.7 194.343,697.7 
  "/>
<polyline clip-path="url(#clip960)" style="stroke:#000000; stroke-linecap:butt; stroke-linejoin:round; stroke-width:4; stroke-opacity:1; fill:none" points="
  175.445,323.692 194.343,323.692 
  "/>
<path clip-path="url(#clip960)" d="M127.501 1431.51 Q123.89 1431.51 122.061 1435.08 Q120.255 1438.62 120.255 1445.75 Q120.255 1452.86 122.061 1456.42 Q123.89 1459.96 127.501 1459.96 Q131.135 1459.96 132.941 1456.42 Q134.769 1452.86 134.769 1445.75 Q134.769 1438.62 132.941 1435.08 Q131.135 1431.51 127.501 1431.51 M127.501 1427.81 Q133.311 1427.81 136.367 1432.42 Q139.445 1437 139.445 1445.75 Q139.445 1454.48 136.367 1459.08 Q133.311 1463.67 127.501 1463.67 Q121.691 1463.67 118.612 1459.08 Q115.556 1454.48 115.556 1445.75 Q115.556 1437 118.612 1432.42 Q121.691 1427.81 127.501 1427.81 Z" fill="#000000" fill-rule="evenodd" fill-opacity="1" /><path clip-path="url(#clip960)" d="M123.126 1085.05 L139.445 1085.05 L139.445 1088.99 L117.501 1088.99 L117.501 1085.05 Q120.163 1082.3 124.746 1077.67 Q129.353 1073.02 130.533 1071.67 Q132.779 1069.15 133.658 1067.41 Q134.561 1065.65 134.561 1063.96 Q134.561 1061.21 132.617 1059.47 Q130.695 1057.74 127.593 1057.74 Q125.394 1057.74 122.941 1058.5 Q120.51 1059.27 117.732 1060.82 L117.732 1056.09 Q120.556 1054.96 123.01 1054.38 Q125.464 1053.8 127.501 1053.8 Q132.871 1053.8 136.066 1056.49 Q139.26 1059.17 139.26 1063.66 Q139.26 1065.79 138.45 1067.71 Q137.663 1069.61 135.556 1072.21 Q134.978 1072.88 131.876 1076.09 Q128.774 1079.29 123.126 1085.05 Z" fill="#000000" fill-rule="evenodd" fill-opacity="1" /><path clip-path="url(#clip960)" d="M129.862 684.494 L118.056 702.943 L129.862 702.943 L129.862 684.494 M128.635 680.42 L134.515 680.42 L134.515 702.943 L139.445 702.943 L139.445 706.832 L134.515 706.832 L134.515 714.98 L129.862 714.98 L129.862 706.832 L114.26 706.832 L114.26 702.318 L128.635 680.42 Z" fill="#000000" fill-rule="evenodd" fill-opacity="1" /><path clip-path="url(#clip960)" d="M127.917 321.828 Q124.769 321.828 122.918 323.981 Q121.089 326.134 121.089 329.884 Q121.089 333.611 122.918 335.787 Q124.769 337.939 127.917 337.939 Q131.066 337.939 132.894 335.787 Q134.746 333.611 134.746 329.884 Q134.746 326.134 132.894 323.981 Q131.066 321.828 127.917 321.828 M137.2 307.176 L137.2 311.435 Q135.441 310.601 133.635 310.162 Q131.853 309.722 130.093 309.722 Q125.464 309.722 123.01 312.847 Q120.58 315.972 120.232 322.291 Q121.598 320.277 123.658 319.213 Q125.718 318.125 128.195 318.125 Q133.404 318.125 136.413 321.296 Q139.445 324.444 139.445 329.884 Q139.445 335.208 136.297 338.425 Q133.149 341.643 127.917 341.643 Q121.922 341.643 118.751 337.06 Q115.58 332.453 115.58 323.726 Q115.58 315.532 119.468 310.671 Q123.357 305.787 129.908 305.787 Q131.667 305.787 133.45 306.134 Q135.255 306.481 137.2 307.176 Z" fill="#000000" fill-rule="evenodd" fill-opacity="1" /><path clip-path="url(#clip960)" d="M20.8447 994.42 Q20.8447 1001.42 26.0645 1005.56 Q31.2844 1009.67 40.2919 1009.67 Q49.2675 1009.67 54.4874 1005.56 Q59.7073 1001.42 59.7073 994.42 Q59.7073 987.418 54.4874 983.344 Q49.2675 979.238 40.2919 979.238 Q31.2844 979.238 26.0645 983.344 Q20.8447 987.418 20.8447 994.42 M63.1448 985.413 L72.4069 976.946 L72.4069 984.712 L64.7999 991.746 Q64.8635 992.797 64.8954 993.37 Q64.9272 993.911 64.9272 994.42 Q64.9272 1004.45 58.2432 1010.46 Q51.5274 1016.45 40.2919 1016.45 Q29.0246 1016.45 22.3406 1010.46 Q15.6248 1004.45 15.6248 994.42 Q15.6248 984.426 22.3406 978.442 Q29.0246 972.458 40.2919 972.458 Q48.5673 972.458 54.4556 975.8 Q60.3439 979.11 63.1448 985.413 Z" fill="#000000" fill-rule="evenodd" fill-opacity="1" /><path clip-path="url(#clip960)" d="M49.9359 963.26 L28.3562 963.26 L28.3562 957.403 L49.7131 957.403 Q54.7739 957.403 57.3202 955.43 Q59.8346 953.457 59.8346 949.51 Q59.8346 944.767 56.8109 942.03 Q53.7872 939.261 48.5673 939.261 L28.3562 939.261 L28.3562 933.405 L64.0042 933.405 L64.0042 939.261 L58.5296 939.261 Q61.7762 941.394 63.3676 944.226 Q64.9272 947.027 64.9272 950.751 Q64.9272 956.894 61.1078 960.077 Q57.2883 963.26 49.9359 963.26 M27.4968 948.523 L27.4968 948.523 Z" fill="#000000" fill-rule="evenodd" fill-opacity="1" /><path clip-path="url(#clip960)" d="M46.0847 905.141 Q46.0847 912.239 47.7079 914.976 Q49.3312 917.713 53.2461 917.713 Q56.3653 917.713 58.2114 915.676 Q60.0256 913.607 60.0256 910.074 Q60.0256 905.205 56.5881 902.276 Q53.1188 899.316 47.3897 899.316 L46.0847 899.316 L46.0847 905.141 M43.6657 893.46 L64.0042 893.46 L64.0042 899.316 L58.5933 899.316 Q61.8398 901.322 63.3994 904.313 Q64.9272 907.305 64.9272 911.634 Q64.9272 917.108 61.8716 920.355 Q58.7843 923.57 53.6281 923.57 Q47.6125 923.57 44.5569 919.559 Q41.5014 915.517 41.5014 907.528 L41.5014 899.316 L40.9285 899.316 Q36.8862 899.316 34.6901 901.99 Q32.4621 904.632 32.4621 909.438 Q32.4621 912.493 33.1941 915.39 Q33.9262 918.286 35.3903 920.96 L29.9795 920.96 Q28.7381 917.745 28.1334 914.721 Q27.4968 911.698 27.4968 908.833 Q27.4968 901.099 31.5072 897.279 Q35.5176 893.46 43.6657 893.46 Z" fill="#000000" fill-rule="evenodd" fill-opacity="1" /><path clip-path="url(#clip960)" d="M42.4881 851.765 L64.0042 851.765 L64.0042 857.621 L42.679 857.621 Q37.6183 857.621 35.1038 859.594 Q32.5894 861.568 32.5894 865.514 Q32.5894 870.257 35.6131 872.994 Q38.6368 875.731 43.8567 875.731 L64.0042 875.731 L64.0042 881.62 L28.3562 881.62 L28.3562 875.731 L33.8944 875.731 Q30.6797 873.631 29.0883 870.798 Q27.4968 867.933 27.4968 864.209 Q27.4968 858.067 31.3163 854.916 Q35.1038 851.765 42.4881 851.765 Z" fill="#000000" fill-rule="evenodd" fill-opacity="1" /><path clip-path="url(#clip960)" d="M18.2347 834.291 L28.3562 834.291 L28.3562 822.228 L32.9077 822.228 L32.9077 834.291 L52.2594 834.291 Q56.6199 834.291 57.8613 833.113 Q59.1026 831.904 59.1026 828.243 L59.1026 822.228 L64.0042 822.228 L64.0042 828.243 Q64.0042 835.023 61.4897 837.601 Q58.9434 840.179 52.2594 840.179 L32.9077 840.179 L32.9077 844.476 L28.3562 844.476 L28.3562 840.179 L18.2347 840.179 L18.2347 834.291 Z" fill="#000000" fill-rule="evenodd" fill-opacity="1" /><path clip-path="url(#clip960)" d="M49.9359 815.13 L28.3562 815.13 L28.3562 809.273 L49.7131 809.273 Q54.7739 809.273 57.3202 807.3 Q59.8346 805.327 59.8346 801.38 Q59.8346 796.637 56.8109 793.9 Q53.7872 791.131 48.5673 791.131 L28.3562 791.131 L28.3562 785.275 L64.0042 785.275 L64.0042 791.131 L58.5296 791.131 Q61.7762 793.264 63.3676 796.096 Q64.9272 798.897 64.9272 802.621 Q64.9272 808.764 61.1078 811.947 Q57.2883 815.13 49.9359 815.13 M27.4968 800.393 L27.4968 800.393 Z" fill="#000000" fill-rule="evenodd" fill-opacity="1" /><path clip-path="url(#clip960)" d="M35.1993 745.457 Q31.2526 743.261 29.3747 740.206 Q27.4968 737.15 27.4968 733.012 Q27.4968 727.442 31.4117 724.419 Q35.2948 721.395 42.4881 721.395 L64.0042 721.395 L64.0042 727.283 L42.679 727.283 Q37.5546 727.283 35.072 729.097 Q32.5894 730.912 32.5894 734.636 Q32.5894 739.187 35.6131 741.829 Q38.6368 744.471 43.8567 744.471 L64.0042 744.471 L64.0042 750.359 L42.679 750.359 Q37.5228 750.359 35.072 752.173 Q32.5894 753.987 32.5894 757.775 Q32.5894 762.263 35.6449 764.904 Q38.6686 767.546 43.8567 767.546 L64.0042 767.546 L64.0042 773.434 L28.3562 773.434 L28.3562 767.546 L33.8944 767.546 Q30.616 765.541 29.0564 762.74 Q27.4968 759.939 27.4968 756.088 Q27.4968 752.205 29.4702 749.499 Q31.4436 746.762 35.1993 745.457 Z" fill="#000000" fill-rule="evenodd" fill-opacity="1" /><path clip-path="url(#clip960)" d="M16.4842 709.459 L16.4842 699.879 L48.8219 687.752 L16.4842 675.562 L16.4842 665.981 L64.0042 665.981 L64.0042 672.252 L22.277 672.252 L54.8694 684.506 L54.8694 690.967 L22.277 703.221 L64.0042 703.221 L64.0042 709.459 L16.4842 709.459 Z" fill="#000000" fill-rule="evenodd" fill-opacity="1" /><path clip-path="url(#clip960)" d="M44.7161 622.981 L47.5806 622.981 L47.5806 649.908 Q53.6281 649.526 56.8109 646.28 Q59.9619 643.001 59.9619 637.177 Q59.9619 633.803 59.1344 630.652 Q58.3069 627.469 56.6518 624.35 L62.1899 624.35 Q63.5267 627.501 64.227 630.811 Q64.9272 634.121 64.9272 637.527 Q64.9272 646.057 59.9619 651.054 Q54.9967 656.019 46.5303 656.019 Q37.7774 656.019 32.6531 651.308 Q27.4968 646.566 27.4968 638.545 Q27.4968 631.352 32.1438 627.182 Q36.7589 622.981 44.7161 622.981 M42.9973 628.837 Q38.1912 628.901 35.3266 631.543 Q32.4621 634.153 32.4621 638.482 Q32.4621 643.383 35.2312 646.343 Q38.0002 649.271 43.0292 649.717 L42.9973 628.837 Z" fill="#000000" fill-rule="evenodd" fill-opacity="1" /><path clip-path="url(#clip960)" d="M18.2347 607.576 L28.3562 607.576 L28.3562 595.513 L32.9077 595.513 L32.9077 607.576 L52.2594 607.576 Q56.6199 607.576 57.8613 606.398 Q59.1026 605.189 59.1026 601.529 L59.1026 595.513 L64.0042 595.513 L64.0042 601.529 Q64.0042 608.308 61.4897 610.886 Q58.9434 613.464 52.2594 613.464 L32.9077 613.464 L32.9077 617.761 L28.3562 617.761 L28.3562 613.464 L18.2347 613.464 L18.2347 607.576 Z" fill="#000000" fill-rule="evenodd" fill-opacity="1" /><path clip-path="url(#clip960)" d="M33.8307 567.154 Q33.2578 568.14 33.0032 569.318 Q32.7167 570.464 32.7167 571.864 Q32.7167 576.83 35.9632 579.503 Q39.1779 582.145 45.2253 582.145 L64.0042 582.145 L64.0042 588.033 L28.3562 588.033 L28.3562 582.145 L33.8944 582.145 Q30.6479 580.299 29.0883 577.339 Q27.4968 574.379 27.4968 570.146 Q27.4968 569.541 27.5923 568.809 Q27.656 568.077 27.8151 567.186 L33.8307 567.154 Z" fill="#000000" fill-rule="evenodd" fill-opacity="1" /><path clip-path="url(#clip960)" d="M28.3562 561.011 L28.3562 555.154 L64.0042 555.154 L64.0042 561.011 L28.3562 561.011 M14.479 561.011 L14.479 555.154 L21.895 555.154 L21.895 561.011 L14.479 561.011 Z" fill="#000000" fill-rule="evenodd" fill-opacity="1" /><path clip-path="url(#clip960)" d="M29.7248 517.247 L35.1993 517.247 Q33.8307 519.729 33.1623 522.244 Q32.4621 524.726 32.4621 527.273 Q32.4621 532.97 36.0905 536.121 Q39.6872 539.272 46.212 539.272 Q52.7369 539.272 56.3653 536.121 Q59.9619 532.97 59.9619 527.273 Q59.9619 524.726 59.2935 522.244 Q58.5933 519.729 57.2247 517.247 L62.6355 517.247 Q63.7814 519.697 64.3543 522.339 Q64.9272 524.949 64.9272 527.909 Q64.9272 535.962 59.8664 540.704 Q54.8057 545.447 46.212 545.447 Q37.491 545.447 32.4939 540.672 Q27.4968 535.866 27.4968 527.527 Q27.4968 524.822 28.0697 522.244 Q28.6108 519.666 29.7248 517.247 Z" fill="#000000" fill-rule="evenodd" fill-opacity="1" /><circle clip-path="url(#clip963)" cx="237.067" cy="1442.64" r="14" fill="#009af9" fill-rule="evenodd" fill-opacity="1" stroke="#000000" stroke-opacity="1" stroke-width="3.2"/>
<circle clip-path="url(#clip963)" cx="250.853" cy="1442.64" r="14" fill="#009af9" fill-rule="evenodd" fill-opacity="1" stroke="#000000" stroke-opacity="1" stroke-width="3.2"/>
<circle clip-path="url(#clip963)" cx="264.639" cy="1442.64" r="14" fill="#009af9" fill-rule="evenodd" fill-opacity="1" stroke="#000000" stroke-opacity="1" stroke-width="3.2"/>
<circle clip-path="url(#clip963)" cx="278.424" cy="1442.65" r="14" fill="#009af9" fill-rule="evenodd" fill-opacity="1" stroke="#000000" stroke-opacity="1" stroke-width="3.2"/>
<circle clip-path="url(#clip963)" cx="292.21" cy="1442.66" r="14" fill="#009af9" fill-rule="evenodd" fill-opacity="1" stroke="#000000" stroke-opacity="1" stroke-width="3.2"/>
<circle clip-path="url(#clip963)" cx="305.996" cy="1442.67" r="14" fill="#009af9" fill-rule="evenodd" fill-opacity="1" stroke="#000000" stroke-opacity="1" stroke-width="3.2"/>
<circle clip-path="url(#clip963)" cx="319.781" cy="1442.68" r="14" fill="#009af9" fill-rule="evenodd" fill-opacity="1" stroke="#000000" stroke-opacity="1" stroke-width="3.2"/>
<circle clip-path="url(#clip963)" cx="333.567" cy="1442.7" r="14" fill="#009af9" fill-rule="evenodd" fill-opacity="1" stroke="#000000" stroke-opacity="1" stroke-width="3.2"/>
<circle clip-path="url(#clip963)" cx="347.353" cy="1442.71" r="14" fill="#009af9" fill-rule="evenodd" fill-opacity="1" stroke="#000000" stroke-opacity="1" stroke-width="3.2"/>
<circle clip-path="url(#clip963)" cx="361.138" cy="1442.74" r="14" fill="#009af9" fill-rule="evenodd" fill-opacity="1" stroke="#000000" stroke-opacity="1" stroke-width="3.2"/>
<circle clip-path="url(#clip963)" cx="374.924" cy="1442.76" r="14" fill="#009af9" fill-rule="evenodd" fill-opacity="1" stroke="#000000" stroke-opacity="1" stroke-width="3.2"/>
<circle clip-path="url(#clip963)" cx="388.71" cy="1442.79" r="14" fill="#009af9" fill-rule="evenodd" fill-opacity="1" stroke="#000000" stroke-opacity="1" stroke-width="3.2"/>
<circle clip-path="url(#clip963)" cx="402.495" cy="1442.82" r="14" fill="#009af9" fill-rule="evenodd" fill-opacity="1" stroke="#000000" stroke-opacity="1" stroke-width="3.2"/>
<circle clip-path="url(#clip963)" cx="416.281" cy="1442.86" r="14" fill="#009af9" fill-rule="evenodd" fill-opacity="1" stroke="#000000" stroke-opacity="1" stroke-width="3.2"/>
<circle clip-path="url(#clip963)" cx="430.067" cy="1442.9" r="14" fill="#009af9" fill-rule="evenodd" fill-opacity="1" stroke="#000000" stroke-opacity="1" stroke-width="3.2"/>
<circle clip-path="url(#clip963)" cx="443.852" cy="1442.95" r="14" fill="#009af9" fill-rule="evenodd" fill-opacity="1" stroke="#000000" stroke-opacity="1" stroke-width="3.2"/>
<circle clip-path="url(#clip963)" cx="457.638" cy="1443.01" r="14" fill="#009af9" fill-rule="evenodd" fill-opacity="1" stroke="#000000" stroke-opacity="1" stroke-width="3.2"/>
<circle clip-path="url(#clip963)" cx="471.424" cy="1443.07" r="14" fill="#009af9" fill-rule="evenodd" fill-opacity="1" stroke="#000000" stroke-opacity="1" stroke-width="3.2"/>
<circle clip-path="url(#clip963)" cx="485.209" cy="1443.14" r="14" fill="#009af9" fill-rule="evenodd" fill-opacity="1" stroke="#000000" stroke-opacity="1" stroke-width="3.2"/>
<circle clip-path="url(#clip963)" cx="498.995" cy="1443.23" r="14" fill="#009af9" fill-rule="evenodd" fill-opacity="1" stroke="#000000" stroke-opacity="1" stroke-width="3.2"/>
<circle clip-path="url(#clip963)" cx="512.781" cy="1443.32" r="14" fill="#009af9" fill-rule="evenodd" fill-opacity="1" stroke="#000000" stroke-opacity="1" stroke-width="3.2"/>
<circle clip-path="url(#clip963)" cx="526.567" cy="1443.42" r="14" fill="#009af9" fill-rule="evenodd" fill-opacity="1" stroke="#000000" stroke-opacity="1" stroke-width="3.2"/>
<circle clip-path="url(#clip963)" cx="540.352" cy="1443.53" r="14" fill="#009af9" fill-rule="evenodd" fill-opacity="1" stroke="#000000" stroke-opacity="1" stroke-width="3.2"/>
<circle clip-path="url(#clip963)" cx="554.138" cy="1443.66" r="14" fill="#009af9" fill-rule="evenodd" fill-opacity="1" stroke="#000000" stroke-opacity="1" stroke-width="3.2"/>
<circle clip-path="url(#clip963)" cx="567.924" cy="1443.8" r="14" fill="#009af9" fill-rule="evenodd" fill-opacity="1" stroke="#000000" stroke-opacity="1" stroke-width="3.2"/>
<circle clip-path="url(#clip963)" cx="581.709" cy="1443.94" r="14" fill="#009af9" fill-rule="evenodd" fill-opacity="1" stroke="#000000" stroke-opacity="1" stroke-width="3.2"/>
<circle clip-path="url(#clip963)" cx="595.495" cy="1444.09" r="14" fill="#009af9" fill-rule="evenodd" fill-opacity="1" stroke="#000000" stroke-opacity="1" stroke-width="3.2"/>
<circle clip-path="url(#clip963)" cx="609.281" cy="1444.23" r="14" fill="#009af9" fill-rule="evenodd" fill-opacity="1" stroke="#000000" stroke-opacity="1" stroke-width="3.2"/>
<circle clip-path="url(#clip963)" cx="623.066" cy="1444.35" r="14" fill="#009af9" fill-rule="evenodd" fill-opacity="1" stroke="#000000" stroke-opacity="1" stroke-width="3.2"/>
<circle clip-path="url(#clip963)" cx="636.852" cy="1444.4" r="14" fill="#009af9" fill-rule="evenodd" fill-opacity="1" stroke="#000000" stroke-opacity="1" stroke-width="3.2"/>
<circle clip-path="url(#clip963)" cx="650.638" cy="1444.36" r="14" fill="#009af9" fill-rule="evenodd" fill-opacity="1" stroke="#000000" stroke-opacity="1" stroke-width="3.2"/>
<circle clip-path="url(#clip963)" cx="664.423" cy="1444.19" r="14" fill="#009af9" fill-rule="evenodd" fill-opacity="1" stroke="#000000" stroke-opacity="1" stroke-width="3.2"/>
<circle clip-path="url(#clip963)" cx="678.209" cy="1443.89" r="14" fill="#009af9" fill-rule="evenodd" fill-opacity="1" stroke="#000000" stroke-opacity="1" stroke-width="3.2"/>
<circle clip-path="url(#clip963)" cx="691.995" cy="1443.48" r="14" fill="#009af9" fill-rule="evenodd" fill-opacity="1" stroke="#000000" stroke-opacity="1" stroke-width="3.2"/>
<circle clip-path="url(#clip963)" cx="705.78" cy="1442.96" r="14" fill="#009af9" fill-rule="evenodd" fill-opacity="1" stroke="#000000" stroke-opacity="1" stroke-width="3.2"/>
<circle clip-path="url(#clip963)" cx="719.566" cy="1442.36" r="14" fill="#009af9" fill-rule="evenodd" fill-opacity="1" stroke="#000000" stroke-opacity="1" stroke-width="3.2"/>
<circle clip-path="url(#clip963)" cx="733.352" cy="1441.68" r="14" fill="#009af9" fill-rule="evenodd" fill-opacity="1" stroke="#000000" stroke-opacity="1" stroke-width="3.2"/>
<circle clip-path="url(#clip963)" cx="747.137" cy="1440.92" r="14" fill="#009af9" fill-rule="evenodd" fill-opacity="1" stroke="#000000" stroke-opacity="1" stroke-width="3.2"/>
<circle clip-path="url(#clip963)" cx="760.923" cy="1440.09" r="14" fill="#009af9" fill-rule="evenodd" fill-opacity="1" stroke="#000000" stroke-opacity="1" stroke-width="3.2"/>
<circle clip-path="url(#clip963)" cx="774.709" cy="1439.21" r="14" fill="#009af9" fill-rule="evenodd" fill-opacity="1" stroke="#000000" stroke-opacity="1" stroke-width="3.2"/>
<circle clip-path="url(#clip963)" cx="788.495" cy="1438.28" r="14" fill="#009af9" fill-rule="evenodd" fill-opacity="1" stroke="#000000" stroke-opacity="1" stroke-width="3.2"/>
<circle clip-path="url(#clip963)" cx="802.28" cy="1437.32" r="14" fill="#009af9" fill-rule="evenodd" fill-opacity="1" stroke="#000000" stroke-opacity="1" stroke-width="3.2"/>
<circle clip-path="url(#clip963)" cx="816.066" cy="1436.36" r="14" fill="#009af9" fill-rule="evenodd" fill-opacity="1" stroke="#000000" stroke-opacity="1" stroke-width="3.2"/>
<circle clip-path="url(#clip963)" cx="829.852" cy="1435.42" r="14" fill="#009af9" fill-rule="evenodd" fill-opacity="1" stroke="#000000" stroke-opacity="1" stroke-width="3.2"/>
<circle clip-path="url(#clip963)" cx="843.637" cy="1434.54" r="14" fill="#009af9" fill-rule="evenodd" fill-opacity="1" stroke="#000000" stroke-opacity="1" stroke-width="3.2"/>
<circle clip-path="url(#clip963)" cx="857.423" cy="1433.76" r="14" fill="#009af9" fill-rule="evenodd" fill-opacity="1" stroke="#000000" stroke-opacity="1" stroke-width="3.2"/>
<circle clip-path="url(#clip963)" cx="871.209" cy="1433.1" r="14" fill="#009af9" fill-rule="evenodd" fill-opacity="1" stroke="#000000" stroke-opacity="1" stroke-width="3.2"/>
<circle clip-path="url(#clip963)" cx="884.994" cy="1432.6" r="14" fill="#009af9" fill-rule="evenodd" fill-opacity="1" stroke="#000000" stroke-opacity="1" stroke-width="3.2"/>
<circle clip-path="url(#clip963)" cx="898.78" cy="1432.29" r="14" fill="#009af9" fill-rule="evenodd" fill-opacity="1" stroke="#000000" stroke-opacity="1" stroke-width="3.2"/>
<circle clip-path="url(#clip963)" cx="912.566" cy="1432.18" r="14" fill="#009af9" fill-rule="evenodd" fill-opacity="1" stroke="#000000" stroke-opacity="1" stroke-width="3.2"/>
<circle clip-path="url(#clip963)" cx="926.351" cy="1432.17" r="14" fill="#009af9" fill-rule="evenodd" fill-opacity="1" stroke="#000000" stroke-opacity="1" stroke-width="3.2"/>
<circle clip-path="url(#clip963)" cx="940.137" cy="1432.15" r="14" fill="#009af9" fill-rule="evenodd" fill-opacity="1" stroke="#000000" stroke-opacity="1" stroke-width="3.2"/>
<circle clip-path="url(#clip963)" cx="953.923" cy="1432.11" r="14" fill="#009af9" fill-rule="evenodd" fill-opacity="1" stroke="#000000" stroke-opacity="1" stroke-width="3.2"/>
<circle clip-path="url(#clip963)" cx="967.708" cy="1432.05" r="14" fill="#009af9" fill-rule="evenodd" fill-opacity="1" stroke="#000000" stroke-opacity="1" stroke-width="3.2"/>
<circle clip-path="url(#clip963)" cx="981.494" cy="1431.97" r="14" fill="#009af9" fill-rule="evenodd" fill-opacity="1" stroke="#000000" stroke-opacity="1" stroke-width="3.2"/>
<circle clip-path="url(#clip963)" cx="995.28" cy="1431.87" r="14" fill="#009af9" fill-rule="evenodd" fill-opacity="1" stroke="#000000" stroke-opacity="1" stroke-width="3.2"/>
<circle clip-path="url(#clip963)" cx="1009.07" cy="1431.76" r="14" fill="#009af9" fill-rule="evenodd" fill-opacity="1" stroke="#000000" stroke-opacity="1" stroke-width="3.2"/>
<circle clip-path="url(#clip963)" cx="1022.85" cy="1431.62" r="14" fill="#009af9" fill-rule="evenodd" fill-opacity="1" stroke="#000000" stroke-opacity="1" stroke-width="3.2"/>
<circle clip-path="url(#clip963)" cx="1036.64" cy="1431.46" r="14" fill="#009af9" fill-rule="evenodd" fill-opacity="1" stroke="#000000" stroke-opacity="1" stroke-width="3.2"/>
<circle clip-path="url(#clip963)" cx="1050.42" cy="1431.29" r="14" fill="#009af9" fill-rule="evenodd" fill-opacity="1" stroke="#000000" stroke-opacity="1" stroke-width="3.2"/>
<circle clip-path="url(#clip963)" cx="1064.21" cy="1431.08" r="14" fill="#009af9" fill-rule="evenodd" fill-opacity="1" stroke="#000000" stroke-opacity="1" stroke-width="3.2"/>
<circle clip-path="url(#clip963)" cx="1077.99" cy="1430.86" r="14" fill="#009af9" fill-rule="evenodd" fill-opacity="1" stroke="#000000" stroke-opacity="1" stroke-width="3.2"/>
<circle clip-path="url(#clip963)" cx="1091.78" cy="1430.6" r="14" fill="#009af9" fill-rule="evenodd" fill-opacity="1" stroke="#000000" stroke-opacity="1" stroke-width="3.2"/>
<circle clip-path="url(#clip963)" cx="1105.57" cy="1430.32" r="14" fill="#009af9" fill-rule="evenodd" fill-opacity="1" stroke="#000000" stroke-opacity="1" stroke-width="3.2"/>
<circle clip-path="url(#clip963)" cx="1119.35" cy="1430" r="14" fill="#009af9" fill-rule="evenodd" fill-opacity="1" stroke="#000000" stroke-opacity="1" stroke-width="3.2"/>
<circle clip-path="url(#clip963)" cx="1133.14" cy="1429.65" r="14" fill="#009af9" fill-rule="evenodd" fill-opacity="1" stroke="#000000" stroke-opacity="1" stroke-width="3.2"/>
<circle clip-path="url(#clip963)" cx="1146.92" cy="1429.26" r="14" fill="#009af9" fill-rule="evenodd" fill-opacity="1" stroke="#000000" stroke-opacity="1" stroke-width="3.2"/>
<circle clip-path="url(#clip963)" cx="1160.71" cy="1428.83" r="14" fill="#009af9" fill-rule="evenodd" fill-opacity="1" stroke="#000000" stroke-opacity="1" stroke-width="3.2"/>
<circle clip-path="url(#clip963)" cx="1174.49" cy="1428.35" r="14" fill="#009af9" fill-rule="evenodd" fill-opacity="1" stroke="#000000" stroke-opacity="1" stroke-width="3.2"/>
<circle clip-path="url(#clip963)" cx="1188.28" cy="1427.81" r="14" fill="#009af9" fill-rule="evenodd" fill-opacity="1" stroke="#000000" stroke-opacity="1" stroke-width="3.2"/>
<circle clip-path="url(#clip963)" cx="1202.06" cy="1427.22" r="14" fill="#009af9" fill-rule="evenodd" fill-opacity="1" stroke="#000000" stroke-opacity="1" stroke-width="3.2"/>
<circle clip-path="url(#clip963)" cx="1215.85" cy="1426.56" r="14" fill="#009af9" fill-rule="evenodd" fill-opacity="1" stroke="#000000" stroke-opacity="1" stroke-width="3.2"/>
<circle clip-path="url(#clip963)" cx="1229.64" cy="1425.82" r="14" fill="#009af9" fill-rule="evenodd" fill-opacity="1" stroke="#000000" stroke-opacity="1" stroke-width="3.2"/>
<circle clip-path="url(#clip963)" cx="1243.42" cy="1424.98" r="14" fill="#009af9" fill-rule="evenodd" fill-opacity="1" stroke="#000000" stroke-opacity="1" stroke-width="3.2"/>
<circle clip-path="url(#clip963)" cx="1257.21" cy="1424.05" r="14" fill="#009af9" fill-rule="evenodd" fill-opacity="1" stroke="#000000" stroke-opacity="1" stroke-width="3.2"/>
<circle clip-path="url(#clip963)" cx="1270.99" cy="1422.99" r="14" fill="#009af9" fill-rule="evenodd" fill-opacity="1" stroke="#000000" stroke-opacity="1" stroke-width="3.2"/>
<circle clip-path="url(#clip963)" cx="1284.78" cy="1421.79" r="14" fill="#009af9" fill-rule="evenodd" fill-opacity="1" stroke="#000000" stroke-opacity="1" stroke-width="3.2"/>
<circle clip-path="url(#clip963)" cx="1298.56" cy="1420.41" r="14" fill="#009af9" fill-rule="evenodd" fill-opacity="1" stroke="#000000" stroke-opacity="1" stroke-width="3.2"/>
<circle clip-path="url(#clip963)" cx="1312.35" cy="1418.83" r="14" fill="#009af9" fill-rule="evenodd" fill-opacity="1" stroke="#000000" stroke-opacity="1" stroke-width="3.2"/>
<circle clip-path="url(#clip963)" cx="1326.14" cy="1417.01" r="14" fill="#009af9" fill-rule="evenodd" fill-opacity="1" stroke="#000000" stroke-opacity="1" stroke-width="3.2"/>
<circle clip-path="url(#clip963)" cx="1339.92" cy="1414.88" r="14" fill="#009af9" fill-rule="evenodd" fill-opacity="1" stroke="#000000" stroke-opacity="1" stroke-width="3.2"/>
<circle clip-path="url(#clip963)" cx="1353.71" cy="1412.37" r="14" fill="#009af9" fill-rule="evenodd" fill-opacity="1" stroke="#000000" stroke-opacity="1" stroke-width="3.2"/>
<circle clip-path="url(#clip963)" cx="1367.49" cy="1409.4" r="14" fill="#009af9" fill-rule="evenodd" fill-opacity="1" stroke="#000000" stroke-opacity="1" stroke-width="3.2"/>
<circle clip-path="url(#clip963)" cx="1381.28" cy="1405.83" r="14" fill="#009af9" fill-rule="evenodd" fill-opacity="1" stroke="#000000" stroke-opacity="1" stroke-width="3.2"/>
<circle clip-path="url(#clip963)" cx="1395.06" cy="1401.49" r="14" fill="#009af9" fill-rule="evenodd" fill-opacity="1" stroke="#000000" stroke-opacity="1" stroke-width="3.2"/>
<circle clip-path="url(#clip963)" cx="1408.85" cy="1396.15" r="14" fill="#009af9" fill-rule="evenodd" fill-opacity="1" stroke="#000000" stroke-opacity="1" stroke-width="3.2"/>
<circle clip-path="url(#clip963)" cx="1422.64" cy="1389.46" r="14" fill="#009af9" fill-rule="evenodd" fill-opacity="1" stroke="#000000" stroke-opacity="1" stroke-width="3.2"/>
<circle clip-path="url(#clip963)" cx="1436.42" cy="1380.94" r="14" fill="#009af9" fill-rule="evenodd" fill-opacity="1" stroke="#000000" stroke-opacity="1" stroke-width="3.2"/>
<circle clip-path="url(#clip963)" cx="1450.21" cy="1369.88" r="14" fill="#009af9" fill-rule="evenodd" fill-opacity="1" stroke="#000000" stroke-opacity="1" stroke-width="3.2"/>
<circle clip-path="url(#clip963)" cx="1463.99" cy="1355.18" r="14" fill="#009af9" fill-rule="evenodd" fill-opacity="1" stroke="#000000" stroke-opacity="1" stroke-width="3.2"/>
<circle clip-path="url(#clip963)" cx="1477.78" cy="1335.15" r="14" fill="#009af9" fill-rule="evenodd" fill-opacity="1" stroke="#000000" stroke-opacity="1" stroke-width="3.2"/>
<circle clip-path="url(#clip963)" cx="1491.56" cy="1307.17" r="14" fill="#009af9" fill-rule="evenodd" fill-opacity="1" stroke="#000000" stroke-opacity="1" stroke-width="3.2"/>
<circle clip-path="url(#clip963)" cx="1505.35" cy="1267.8" r="14" fill="#009af9" fill-rule="evenodd" fill-opacity="1" stroke="#000000" stroke-opacity="1" stroke-width="3.2"/>
<circle clip-path="url(#clip963)" cx="1519.14" cy="1212.19" r="14" fill="#009af9" fill-rule="evenodd" fill-opacity="1" stroke="#000000" stroke-opacity="1" stroke-width="3.2"/>
<circle clip-path="url(#clip963)" cx="1532.92" cy="1129.12" r="14" fill="#009af9" fill-rule="evenodd" fill-opacity="1" stroke="#000000" stroke-opacity="1" stroke-width="3.2"/>
<circle clip-path="url(#clip963)" cx="1546.71" cy="1001.13" r="14" fill="#009af9" fill-rule="evenodd" fill-opacity="1" stroke="#000000" stroke-opacity="1" stroke-width="3.2"/>
<circle clip-path="url(#clip963)" cx="1560.49" cy="805.289" r="14" fill="#009af9" fill-rule="evenodd" fill-opacity="1" stroke="#000000" stroke-opacity="1" stroke-width="3.2"/>
<circle clip-path="url(#clip963)" cx="1574.28" cy="529.035" r="14" fill="#009af9" fill-rule="evenodd" fill-opacity="1" stroke="#000000" stroke-opacity="1" stroke-width="3.2"/>
<circle clip-path="url(#clip963)" cx="1588.06" cy="230.065" r="14" fill="#009af9" fill-rule="evenodd" fill-opacity="1" stroke="#000000" stroke-opacity="1" stroke-width="3.2"/>
<circle clip-path="url(#clip963)" cx="1601.85" cy="87.9763" r="14" fill="#009af9" fill-rule="evenodd" fill-opacity="1" stroke="#000000" stroke-opacity="1" stroke-width="3.2"/>
<circle clip-path="url(#clip963)" cx="1615.64" cy="347.781" r="14" fill="#009af9" fill-rule="evenodd" fill-opacity="1" stroke="#000000" stroke-opacity="1" stroke-width="3.2"/>
<circle clip-path="url(#clip963)" cx="1629.42" cy="765.99" r="14" fill="#009af9" fill-rule="evenodd" fill-opacity="1" stroke="#000000" stroke-opacity="1" stroke-width="3.2"/>
<circle clip-path="url(#clip963)" cx="1643.21" cy="1042.79" r="14" fill="#009af9" fill-rule="evenodd" fill-opacity="1" stroke="#000000" stroke-opacity="1" stroke-width="3.2"/>
<circle clip-path="url(#clip963)" cx="1656.99" cy="1194.89" r="14" fill="#009af9" fill-rule="evenodd" fill-opacity="1" stroke="#000000" stroke-opacity="1" stroke-width="3.2"/>
<circle clip-path="url(#clip963)" cx="1670.78" cy="1280.09" r="14" fill="#009af9" fill-rule="evenodd" fill-opacity="1" stroke="#000000" stroke-opacity="1" stroke-width="3.2"/>
<circle clip-path="url(#clip963)" cx="1684.56" cy="1332.2" r="14" fill="#009af9" fill-rule="evenodd" fill-opacity="1" stroke="#000000" stroke-opacity="1" stroke-width="3.2"/>
<circle clip-path="url(#clip963)" cx="1698.35" cy="1364.44" r="14" fill="#009af9" fill-rule="evenodd" fill-opacity="1" stroke="#000000" stroke-opacity="1" stroke-width="3.2"/>
<circle clip-path="url(#clip963)" cx="1712.14" cy="1385.29" r="14" fill="#009af9" fill-rule="evenodd" fill-opacity="1" stroke="#000000" stroke-opacity="1" stroke-width="3.2"/>
<circle clip-path="url(#clip963)" cx="1725.92" cy="1399.52" r="14" fill="#009af9" fill-rule="evenodd" fill-opacity="1" stroke="#000000" stroke-opacity="1" stroke-width="3.2"/>
<circle clip-path="url(#clip963)" cx="1739.71" cy="1409.66" r="14" fill="#009af9" fill-rule="evenodd" fill-opacity="1" stroke="#000000" stroke-opacity="1" stroke-width="3.2"/>
<circle clip-path="url(#clip963)" cx="1753.49" cy="1417.15" r="14" fill="#009af9" fill-rule="evenodd" fill-opacity="1" stroke="#000000" stroke-opacity="1" stroke-width="3.2"/>
<circle clip-path="url(#clip963)" cx="1767.28" cy="1422.85" r="14" fill="#009af9" fill-rule="evenodd" fill-opacity="1" stroke="#000000" stroke-opacity="1" stroke-width="3.2"/>
<circle clip-path="url(#clip963)" cx="1781.06" cy="1427.3" r="14" fill="#009af9" fill-rule="evenodd" fill-opacity="1" stroke="#000000" stroke-opacity="1" stroke-width="3.2"/>
<circle clip-path="url(#clip963)" cx="1794.85" cy="1430.84" r="14" fill="#009af9" fill-rule="evenodd" fill-opacity="1" stroke="#000000" stroke-opacity="1" stroke-width="3.2"/>
<circle clip-path="url(#clip963)" cx="1808.64" cy="1433.7" r="14" fill="#009af9" fill-rule="evenodd" fill-opacity="1" stroke="#000000" stroke-opacity="1" stroke-width="3.2"/>
<circle clip-path="url(#clip963)" cx="1822.42" cy="1436.03" r="14" fill="#009af9" fill-rule="evenodd" fill-opacity="1" stroke="#000000" stroke-opacity="1" stroke-width="3.2"/>
<circle clip-path="url(#clip963)" cx="1836.21" cy="1437.97" r="14" fill="#009af9" fill-rule="evenodd" fill-opacity="1" stroke="#000000" stroke-opacity="1" stroke-width="3.2"/>
<circle clip-path="url(#clip963)" cx="1849.99" cy="1439.58" r="14" fill="#009af9" fill-rule="evenodd" fill-opacity="1" stroke="#000000" stroke-opacity="1" stroke-width="3.2"/>
<circle clip-path="url(#clip963)" cx="1863.78" cy="1440.94" r="14" fill="#009af9" fill-rule="evenodd" fill-opacity="1" stroke="#000000" stroke-opacity="1" stroke-width="3.2"/>
<circle clip-path="url(#clip963)" cx="1877.56" cy="1442.08" r="14" fill="#009af9" fill-rule="evenodd" fill-opacity="1" stroke="#000000" stroke-opacity="1" stroke-width="3.2"/>
<circle clip-path="url(#clip963)" cx="1891.35" cy="1443.06" r="14" fill="#009af9" fill-rule="evenodd" fill-opacity="1" stroke="#000000" stroke-opacity="1" stroke-width="3.2"/>
<circle clip-path="url(#clip963)" cx="1905.13" cy="1443.88" r="14" fill="#009af9" fill-rule="evenodd" fill-opacity="1" stroke="#000000" stroke-opacity="1" stroke-width="3.2"/>
<circle clip-path="url(#clip963)" cx="1918.92" cy="1444.59" r="14" fill="#009af9" fill-rule="evenodd" fill-opacity="1" stroke="#000000" stroke-opacity="1" stroke-width="3.2"/>
<circle clip-path="url(#clip963)" cx="1932.71" cy="1445.2" r="14" fill="#009af9" fill-rule="evenodd" fill-opacity="1" stroke="#000000" stroke-opacity="1" stroke-width="3.2"/>
<circle clip-path="url(#clip963)" cx="1946.49" cy="1445.72" r="14" fill="#009af9" fill-rule="evenodd" fill-opacity="1" stroke="#000000" stroke-opacity="1" stroke-width="3.2"/>
<circle clip-path="url(#clip963)" cx="1960.28" cy="1445.27" r="14" fill="#009af9" fill-rule="evenodd" fill-opacity="1" stroke="#000000" stroke-opacity="1" stroke-width="3.2"/>
<circle clip-path="url(#clip963)" cx="1974.06" cy="1444.89" r="14" fill="#009af9" fill-rule="evenodd" fill-opacity="1" stroke="#000000" stroke-opacity="1" stroke-width="3.2"/>
<circle clip-path="url(#clip963)" cx="1987.85" cy="1444.56" r="14" fill="#009af9" fill-rule="evenodd" fill-opacity="1" stroke="#000000" stroke-opacity="1" stroke-width="3.2"/>
<circle clip-path="url(#clip963)" cx="2001.63" cy="1444.27" r="14" fill="#009af9" fill-rule="evenodd" fill-opacity="1" stroke="#000000" stroke-opacity="1" stroke-width="3.2"/>
<circle clip-path="url(#clip963)" cx="2015.42" cy="1444.02" r="14" fill="#009af9" fill-rule="evenodd" fill-opacity="1" stroke="#000000" stroke-opacity="1" stroke-width="3.2"/>
<circle clip-path="url(#clip963)" cx="2029.21" cy="1443.81" r="14" fill="#009af9" fill-rule="evenodd" fill-opacity="1" stroke="#000000" stroke-opacity="1" stroke-width="3.2"/>
<circle clip-path="url(#clip963)" cx="2042.99" cy="1443.63" r="14" fill="#009af9" fill-rule="evenodd" fill-opacity="1" stroke="#000000" stroke-opacity="1" stroke-width="3.2"/>
<circle clip-path="url(#clip963)" cx="2056.78" cy="1443.47" r="14" fill="#009af9" fill-rule="evenodd" fill-opacity="1" stroke="#000000" stroke-opacity="1" stroke-width="3.2"/>
<circle clip-path="url(#clip963)" cx="2070.56" cy="1443.34" r="14" fill="#009af9" fill-rule="evenodd" fill-opacity="1" stroke="#000000" stroke-opacity="1" stroke-width="3.2"/>
<circle clip-path="url(#clip963)" cx="2084.35" cy="1443.22" r="14" fill="#009af9" fill-rule="evenodd" fill-opacity="1" stroke="#000000" stroke-opacity="1" stroke-width="3.2"/>
<circle clip-path="url(#clip963)" cx="2098.13" cy="1443.12" r="14" fill="#009af9" fill-rule="evenodd" fill-opacity="1" stroke="#000000" stroke-opacity="1" stroke-width="3.2"/>
<circle clip-path="url(#clip963)" cx="2111.92" cy="1443.03" r="14" fill="#009af9" fill-rule="evenodd" fill-opacity="1" stroke="#000000" stroke-opacity="1" stroke-width="3.2"/>
<circle clip-path="url(#clip963)" cx="2125.71" cy="1442.96" r="14" fill="#009af9" fill-rule="evenodd" fill-opacity="1" stroke="#000000" stroke-opacity="1" stroke-width="3.2"/>
<circle clip-path="url(#clip963)" cx="2139.49" cy="1442.9" r="14" fill="#009af9" fill-rule="evenodd" fill-opacity="1" stroke="#000000" stroke-opacity="1" stroke-width="3.2"/>
<circle clip-path="url(#clip963)" cx="2153.28" cy="1442.84" r="14" fill="#009af9" fill-rule="evenodd" fill-opacity="1" stroke="#000000" stroke-opacity="1" stroke-width="3.2"/>
<circle clip-path="url(#clip963)" cx="2167.06" cy="1442.8" r="14" fill="#009af9" fill-rule="evenodd" fill-opacity="1" stroke="#000000" stroke-opacity="1" stroke-width="3.2"/>
<circle clip-path="url(#clip963)" cx="2180.85" cy="1442.76" r="14" fill="#009af9" fill-rule="evenodd" fill-opacity="1" stroke="#000000" stroke-opacity="1" stroke-width="3.2"/>
<circle clip-path="url(#clip963)" cx="2194.63" cy="1442.73" r="14" fill="#009af9" fill-rule="evenodd" fill-opacity="1" stroke="#000000" stroke-opacity="1" stroke-width="3.2"/>
<circle clip-path="url(#clip963)" cx="2208.42" cy="1442.7" r="14" fill="#009af9" fill-rule="evenodd" fill-opacity="1" stroke="#000000" stroke-opacity="1" stroke-width="3.2"/>
<circle clip-path="url(#clip963)" cx="2222.21" cy="1442.68" r="14" fill="#009af9" fill-rule="evenodd" fill-opacity="1" stroke="#000000" stroke-opacity="1" stroke-width="3.2"/>
<circle clip-path="url(#clip963)" cx="2235.99" cy="1442.66" r="14" fill="#009af9" fill-rule="evenodd" fill-opacity="1" stroke="#000000" stroke-opacity="1" stroke-width="3.2"/>
<circle clip-path="url(#clip963)" cx="2249.78" cy="1442.65" r="14" fill="#009af9" fill-rule="evenodd" fill-opacity="1" stroke="#000000" stroke-opacity="1" stroke-width="3.2"/>
<circle clip-path="url(#clip963)" cx="2263.56" cy="1442.64" r="14" fill="#009af9" fill-rule="evenodd" fill-opacity="1" stroke="#000000" stroke-opacity="1" stroke-width="3.2"/>
<circle clip-path="url(#clip963)" cx="2277.35" cy="1442.64" r="14" fill="#009af9" fill-rule="evenodd" fill-opacity="1" stroke="#000000" stroke-opacity="1" stroke-width="3.2"/>
<circle clip-path="url(#clip963)" cx="2291.13" cy="1442.64" r="14" fill="#009af9" fill-rule="evenodd" fill-opacity="1" stroke="#000000" stroke-opacity="1" stroke-width="3.2"/>
<circle clip-path="url(#clip963)" cx="237.067" cy="1441.9" r="14" fill="#e26f46" fill-rule="evenodd" fill-opacity="1" stroke="#000000" stroke-opacity="1" stroke-width="3.2"/>
<circle clip-path="url(#clip963)" cx="250.853" cy="1441.9" r="14" fill="#e26f46" fill-rule="evenodd" fill-opacity="1" stroke="#000000" stroke-opacity="1" stroke-width="3.2"/>
<circle clip-path="url(#clip963)" cx="264.639" cy="1441.91" r="14" fill="#e26f46" fill-rule="evenodd" fill-opacity="1" stroke="#000000" stroke-opacity="1" stroke-width="3.2"/>
<circle clip-path="url(#clip963)" cx="278.424" cy="1441.91" r="14" fill="#e26f46" fill-rule="evenodd" fill-opacity="1" stroke="#000000" stroke-opacity="1" stroke-width="3.2"/>
<circle clip-path="url(#clip963)" cx="292.21" cy="1441.92" r="14" fill="#e26f46" fill-rule="evenodd" fill-opacity="1" stroke="#000000" stroke-opacity="1" stroke-width="3.2"/>
<circle clip-path="url(#clip963)" cx="305.996" cy="1441.93" r="14" fill="#e26f46" fill-rule="evenodd" fill-opacity="1" stroke="#000000" stroke-opacity="1" stroke-width="3.2"/>
<circle clip-path="url(#clip963)" cx="319.781" cy="1441.94" r="14" fill="#e26f46" fill-rule="evenodd" fill-opacity="1" stroke="#000000" stroke-opacity="1" stroke-width="3.2"/>
<circle clip-path="url(#clip963)" cx="333.567" cy="1441.96" r="14" fill="#e26f46" fill-rule="evenodd" fill-opacity="1" stroke="#000000" stroke-opacity="1" stroke-width="3.2"/>
<circle clip-path="url(#clip963)" cx="347.353" cy="1441.97" r="14" fill="#e26f46" fill-rule="evenodd" fill-opacity="1" stroke="#000000" stroke-opacity="1" stroke-width="3.2"/>
<circle clip-path="url(#clip963)" cx="361.138" cy="1441.99" r="14" fill="#e26f46" fill-rule="evenodd" fill-opacity="1" stroke="#000000" stroke-opacity="1" stroke-width="3.2"/>
<circle clip-path="url(#clip963)" cx="374.924" cy="1442.02" r="14" fill="#e26f46" fill-rule="evenodd" fill-opacity="1" stroke="#000000" stroke-opacity="1" stroke-width="3.2"/>
<circle clip-path="url(#clip963)" cx="388.71" cy="1442.05" r="14" fill="#e26f46" fill-rule="evenodd" fill-opacity="1" stroke="#000000" stroke-opacity="1" stroke-width="3.2"/>
<circle clip-path="url(#clip963)" cx="402.495" cy="1442.08" r="14" fill="#e26f46" fill-rule="evenodd" fill-opacity="1" stroke="#000000" stroke-opacity="1" stroke-width="3.2"/>
<circle clip-path="url(#clip963)" cx="416.281" cy="1442.12" r="14" fill="#e26f46" fill-rule="evenodd" fill-opacity="1" stroke="#000000" stroke-opacity="1" stroke-width="3.2"/>
<circle clip-path="url(#clip963)" cx="430.067" cy="1442.17" r="14" fill="#e26f46" fill-rule="evenodd" fill-opacity="1" stroke="#000000" stroke-opacity="1" stroke-width="3.2"/>
<circle clip-path="url(#clip963)" cx="443.852" cy="1442.22" r="14" fill="#e26f46" fill-rule="evenodd" fill-opacity="1" stroke="#000000" stroke-opacity="1" stroke-width="3.2"/>
<circle clip-path="url(#clip963)" cx="457.638" cy="1442.28" r="14" fill="#e26f46" fill-rule="evenodd" fill-opacity="1" stroke="#000000" stroke-opacity="1" stroke-width="3.2"/>
<circle clip-path="url(#clip963)" cx="471.424" cy="1442.36" r="14" fill="#e26f46" fill-rule="evenodd" fill-opacity="1" stroke="#000000" stroke-opacity="1" stroke-width="3.2"/>
<circle clip-path="url(#clip963)" cx="485.209" cy="1442.44" r="14" fill="#e26f46" fill-rule="evenodd" fill-opacity="1" stroke="#000000" stroke-opacity="1" stroke-width="3.2"/>
<circle clip-path="url(#clip963)" cx="498.995" cy="1442.54" r="14" fill="#e26f46" fill-rule="evenodd" fill-opacity="1" stroke="#000000" stroke-opacity="1" stroke-width="3.2"/>
<circle clip-path="url(#clip963)" cx="512.781" cy="1442.65" r="14" fill="#e26f46" fill-rule="evenodd" fill-opacity="1" stroke="#000000" stroke-opacity="1" stroke-width="3.2"/>
<circle clip-path="url(#clip963)" cx="526.567" cy="1442.78" r="14" fill="#e26f46" fill-rule="evenodd" fill-opacity="1" stroke="#000000" stroke-opacity="1" stroke-width="3.2"/>
<circle clip-path="url(#clip963)" cx="540.352" cy="1442.94" r="14" fill="#e26f46" fill-rule="evenodd" fill-opacity="1" stroke="#000000" stroke-opacity="1" stroke-width="3.2"/>
<circle clip-path="url(#clip963)" cx="554.138" cy="1443.12" r="14" fill="#e26f46" fill-rule="evenodd" fill-opacity="1" stroke="#000000" stroke-opacity="1" stroke-width="3.2"/>
<circle clip-path="url(#clip963)" cx="567.924" cy="1443.32" r="14" fill="#e26f46" fill-rule="evenodd" fill-opacity="1" stroke="#000000" stroke-opacity="1" stroke-width="3.2"/>
<circle clip-path="url(#clip963)" cx="581.709" cy="1443.56" r="14" fill="#e26f46" fill-rule="evenodd" fill-opacity="1" stroke="#000000" stroke-opacity="1" stroke-width="3.2"/>
<circle clip-path="url(#clip963)" cx="595.495" cy="1443.83" r="14" fill="#e26f46" fill-rule="evenodd" fill-opacity="1" stroke="#000000" stroke-opacity="1" stroke-width="3.2"/>
<circle clip-path="url(#clip963)" cx="609.281" cy="1444.15" r="14" fill="#e26f46" fill-rule="evenodd" fill-opacity="1" stroke="#000000" stroke-opacity="1" stroke-width="3.2"/>
<circle clip-path="url(#clip963)" cx="623.066" cy="1444.51" r="14" fill="#e26f46" fill-rule="evenodd" fill-opacity="1" stroke="#000000" stroke-opacity="1" stroke-width="3.2"/>
<circle clip-path="url(#clip963)" cx="636.852" cy="1444.94" r="14" fill="#e26f46" fill-rule="evenodd" fill-opacity="1" stroke="#000000" stroke-opacity="1" stroke-width="3.2"/>
<circle clip-path="url(#clip963)" cx="650.638" cy="1445.42" r="14" fill="#e26f46" fill-rule="evenodd" fill-opacity="1" stroke="#000000" stroke-opacity="1" stroke-width="3.2"/>
<circle clip-path="url(#clip963)" cx="664.423" cy="1445.46" r="14" fill="#e26f46" fill-rule="evenodd" fill-opacity="1" stroke="#000000" stroke-opacity="1" stroke-width="3.2"/>
<circle clip-path="url(#clip963)" cx="678.209" cy="1444.82" r="14" fill="#e26f46" fill-rule="evenodd" fill-opacity="1" stroke="#000000" stroke-opacity="1" stroke-width="3.2"/>
<circle clip-path="url(#clip963)" cx="691.995" cy="1444.09" r="14" fill="#e26f46" fill-rule="evenodd" fill-opacity="1" stroke="#000000" stroke-opacity="1" stroke-width="3.2"/>
<circle clip-path="url(#clip963)" cx="705.78" cy="1443.26" r="14" fill="#e26f46" fill-rule="evenodd" fill-opacity="1" stroke="#000000" stroke-opacity="1" stroke-width="3.2"/>
<circle clip-path="url(#clip963)" cx="719.566" cy="1442.33" r="14" fill="#e26f46" fill-rule="evenodd" fill-opacity="1" stroke="#000000" stroke-opacity="1" stroke-width="3.2"/>
<circle clip-path="url(#clip963)" cx="733.352" cy="1441.27" r="14" fill="#e26f46" fill-rule="evenodd" fill-opacity="1" stroke="#000000" stroke-opacity="1" stroke-width="3.2"/>
<circle clip-path="url(#clip963)" cx="747.137" cy="1440.1" r="14" fill="#e26f46" fill-rule="evenodd" fill-opacity="1" stroke="#000000" stroke-opacity="1" stroke-width="3.2"/>
<circle clip-path="url(#clip963)" cx="760.923" cy="1438.8" r="14" fill="#e26f46" fill-rule="evenodd" fill-opacity="1" stroke="#000000" stroke-opacity="1" stroke-width="3.2"/>
<circle clip-path="url(#clip963)" cx="774.709" cy="1437.38" r="14" fill="#e26f46" fill-rule="evenodd" fill-opacity="1" stroke="#000000" stroke-opacity="1" stroke-width="3.2"/>
<circle clip-path="url(#clip963)" cx="788.495" cy="1435.86" r="14" fill="#e26f46" fill-rule="evenodd" fill-opacity="1" stroke="#000000" stroke-opacity="1" stroke-width="3.2"/>
<circle clip-path="url(#clip963)" cx="802.28" cy="1434.26" r="14" fill="#e26f46" fill-rule="evenodd" fill-opacity="1" stroke="#000000" stroke-opacity="1" stroke-width="3.2"/>
<circle clip-path="url(#clip963)" cx="816.066" cy="1432.61" r="14" fill="#e26f46" fill-rule="evenodd" fill-opacity="1" stroke="#000000" stroke-opacity="1" stroke-width="3.2"/>
<circle clip-path="url(#clip963)" cx="829.852" cy="1430.96" r="14" fill="#e26f46" fill-rule="evenodd" fill-opacity="1" stroke="#000000" stroke-opacity="1" stroke-width="3.2"/>
<circle clip-path="url(#clip963)" cx="843.637" cy="1429.37" r="14" fill="#e26f46" fill-rule="evenodd" fill-opacity="1" stroke="#000000" stroke-opacity="1" stroke-width="3.2"/>
<circle clip-path="url(#clip963)" cx="857.423" cy="1427.92" r="14" fill="#e26f46" fill-rule="evenodd" fill-opacity="1" stroke="#000000" stroke-opacity="1" stroke-width="3.2"/>
<circle clip-path="url(#clip963)" cx="871.209" cy="1426.69" r="14" fill="#e26f46" fill-rule="evenodd" fill-opacity="1" stroke="#000000" stroke-opacity="1" stroke-width="3.2"/>
<circle clip-path="url(#clip963)" cx="884.994" cy="1425.74" r="14" fill="#e26f46" fill-rule="evenodd" fill-opacity="1" stroke="#000000" stroke-opacity="1" stroke-width="3.2"/>
<circle clip-path="url(#clip963)" cx="898.78" cy="1425.14" r="14" fill="#e26f46" fill-rule="evenodd" fill-opacity="1" stroke="#000000" stroke-opacity="1" stroke-width="3.2"/>
<circle clip-path="url(#clip963)" cx="912.566" cy="1424.94" r="14" fill="#e26f46" fill-rule="evenodd" fill-opacity="1" stroke="#000000" stroke-opacity="1" stroke-width="3.2"/>
<circle clip-path="url(#clip963)" cx="926.351" cy="1424.92" r="14" fill="#e26f46" fill-rule="evenodd" fill-opacity="1" stroke="#000000" stroke-opacity="1" stroke-width="3.2"/>
<circle clip-path="url(#clip963)" cx="940.137" cy="1424.88" r="14" fill="#e26f46" fill-rule="evenodd" fill-opacity="1" stroke="#000000" stroke-opacity="1" stroke-width="3.2"/>
<circle clip-path="url(#clip963)" cx="953.923" cy="1424.81" r="14" fill="#e26f46" fill-rule="evenodd" fill-opacity="1" stroke="#000000" stroke-opacity="1" stroke-width="3.2"/>
<circle clip-path="url(#clip963)" cx="967.708" cy="1424.72" r="14" fill="#e26f46" fill-rule="evenodd" fill-opacity="1" stroke="#000000" stroke-opacity="1" stroke-width="3.2"/>
<circle clip-path="url(#clip963)" cx="981.494" cy="1424.59" r="14" fill="#e26f46" fill-rule="evenodd" fill-opacity="1" stroke="#000000" stroke-opacity="1" stroke-width="3.2"/>
<circle clip-path="url(#clip963)" cx="995.28" cy="1424.44" r="14" fill="#e26f46" fill-rule="evenodd" fill-opacity="1" stroke="#000000" stroke-opacity="1" stroke-width="3.2"/>
<circle clip-path="url(#clip963)" cx="1009.07" cy="1424.25" r="14" fill="#e26f46" fill-rule="evenodd" fill-opacity="1" stroke="#000000" stroke-opacity="1" stroke-width="3.2"/>
<circle clip-path="url(#clip963)" cx="1022.85" cy="1424.03" r="14" fill="#e26f46" fill-rule="evenodd" fill-opacity="1" stroke="#000000" stroke-opacity="1" stroke-width="3.2"/>
<circle clip-path="url(#clip963)" cx="1036.64" cy="1423.78" r="14" fill="#e26f46" fill-rule="evenodd" fill-opacity="1" stroke="#000000" stroke-opacity="1" stroke-width="3.2"/>
<circle clip-path="url(#clip963)" cx="1050.42" cy="1423.49" r="14" fill="#e26f46" fill-rule="evenodd" fill-opacity="1" stroke="#000000" stroke-opacity="1" stroke-width="3.2"/>
<circle clip-path="url(#clip963)" cx="1064.21" cy="1423.17" r="14" fill="#e26f46" fill-rule="evenodd" fill-opacity="1" stroke="#000000" stroke-opacity="1" stroke-width="3.2"/>
<circle clip-path="url(#clip963)" cx="1077.99" cy="1422.8" r="14" fill="#e26f46" fill-rule="evenodd" fill-opacity="1" stroke="#000000" stroke-opacity="1" stroke-width="3.2"/>
<circle clip-path="url(#clip963)" cx="1091.78" cy="1422.39" r="14" fill="#e26f46" fill-rule="evenodd" fill-opacity="1" stroke="#000000" stroke-opacity="1" stroke-width="3.2"/>
<circle clip-path="url(#clip963)" cx="1105.57" cy="1421.94" r="14" fill="#e26f46" fill-rule="evenodd" fill-opacity="1" stroke="#000000" stroke-opacity="1" stroke-width="3.2"/>
<circle clip-path="url(#clip963)" cx="1119.35" cy="1421.44" r="14" fill="#e26f46" fill-rule="evenodd" fill-opacity="1" stroke="#000000" stroke-opacity="1" stroke-width="3.2"/>
<circle clip-path="url(#clip963)" cx="1133.14" cy="1420.88" r="14" fill="#e26f46" fill-rule="evenodd" fill-opacity="1" stroke="#000000" stroke-opacity="1" stroke-width="3.2"/>
<circle clip-path="url(#clip963)" cx="1146.92" cy="1420.26" r="14" fill="#e26f46" fill-rule="evenodd" fill-opacity="1" stroke="#000000" stroke-opacity="1" stroke-width="3.2"/>
<circle clip-path="url(#clip963)" cx="1160.71" cy="1419.58" r="14" fill="#e26f46" fill-rule="evenodd" fill-opacity="1" stroke="#000000" stroke-opacity="1" stroke-width="3.2"/>
<circle clip-path="url(#clip963)" cx="1174.49" cy="1418.82" r="14" fill="#e26f46" fill-rule="evenodd" fill-opacity="1" stroke="#000000" stroke-opacity="1" stroke-width="3.2"/>
<circle clip-path="url(#clip963)" cx="1188.28" cy="1417.99" r="14" fill="#e26f46" fill-rule="evenodd" fill-opacity="1" stroke="#000000" stroke-opacity="1" stroke-width="3.2"/>
<circle clip-path="url(#clip963)" cx="1202.06" cy="1417.07" r="14" fill="#e26f46" fill-rule="evenodd" fill-opacity="1" stroke="#000000" stroke-opacity="1" stroke-width="3.2"/>
<circle clip-path="url(#clip963)" cx="1215.85" cy="1416.05" r="14" fill="#e26f46" fill-rule="evenodd" fill-opacity="1" stroke="#000000" stroke-opacity="1" stroke-width="3.2"/>
<circle clip-path="url(#clip963)" cx="1229.64" cy="1414.91" r="14" fill="#e26f46" fill-rule="evenodd" fill-opacity="1" stroke="#000000" stroke-opacity="1" stroke-width="3.2"/>
<circle clip-path="url(#clip963)" cx="1243.42" cy="1413.66" r="14" fill="#e26f46" fill-rule="evenodd" fill-opacity="1" stroke="#000000" stroke-opacity="1" stroke-width="3.2"/>
<circle clip-path="url(#clip963)" cx="1257.21" cy="1412.26" r="14" fill="#e26f46" fill-rule="evenodd" fill-opacity="1" stroke="#000000" stroke-opacity="1" stroke-width="3.2"/>
<circle clip-path="url(#clip963)" cx="1270.99" cy="1410.71" r="14" fill="#e26f46" fill-rule="evenodd" fill-opacity="1" stroke="#000000" stroke-opacity="1" stroke-width="3.2"/>
<circle clip-path="url(#clip963)" cx="1284.78" cy="1408.97" r="14" fill="#e26f46" fill-rule="evenodd" fill-opacity="1" stroke="#000000" stroke-opacity="1" stroke-width="3.2"/>
<circle clip-path="url(#clip963)" cx="1298.56" cy="1407.03" r="14" fill="#e26f46" fill-rule="evenodd" fill-opacity="1" stroke="#000000" stroke-opacity="1" stroke-width="3.2"/>
<circle clip-path="url(#clip963)" cx="1312.35" cy="1404.86" r="14" fill="#e26f46" fill-rule="evenodd" fill-opacity="1" stroke="#000000" stroke-opacity="1" stroke-width="3.2"/>
<circle clip-path="url(#clip963)" cx="1326.14" cy="1402.41" r="14" fill="#e26f46" fill-rule="evenodd" fill-opacity="1" stroke="#000000" stroke-opacity="1" stroke-width="3.2"/>
<circle clip-path="url(#clip963)" cx="1339.92" cy="1399.65" r="14" fill="#e26f46" fill-rule="evenodd" fill-opacity="1" stroke="#000000" stroke-opacity="1" stroke-width="3.2"/>
<circle clip-path="url(#clip963)" cx="1353.71" cy="1396.54" r="14" fill="#e26f46" fill-rule="evenodd" fill-opacity="1" stroke="#000000" stroke-opacity="1" stroke-width="3.2"/>
<circle clip-path="url(#clip963)" cx="1367.49" cy="1393.01" r="14" fill="#e26f46" fill-rule="evenodd" fill-opacity="1" stroke="#000000" stroke-opacity="1" stroke-width="3.2"/>
<circle clip-path="url(#clip963)" cx="1381.28" cy="1389.01" r="14" fill="#e26f46" fill-rule="evenodd" fill-opacity="1" stroke="#000000" stroke-opacity="1" stroke-width="3.2"/>
<circle clip-path="url(#clip963)" cx="1395.06" cy="1384.46" r="14" fill="#e26f46" fill-rule="evenodd" fill-opacity="1" stroke="#000000" stroke-opacity="1" stroke-width="3.2"/>
<circle clip-path="url(#clip963)" cx="1408.85" cy="1379.28" r="14" fill="#e26f46" fill-rule="evenodd" fill-opacity="1" stroke="#000000" stroke-opacity="1" stroke-width="3.2"/>
<circle clip-path="url(#clip963)" cx="1422.64" cy="1373.4" r="14" fill="#e26f46" fill-rule="evenodd" fill-opacity="1" stroke="#000000" stroke-opacity="1" stroke-width="3.2"/>
<circle clip-path="url(#clip963)" cx="1436.42" cy="1366.72" r="14" fill="#e26f46" fill-rule="evenodd" fill-opacity="1" stroke="#000000" stroke-opacity="1" stroke-width="3.2"/>
<circle clip-path="url(#clip963)" cx="1450.21" cy="1359.16" r="14" fill="#e26f46" fill-rule="evenodd" fill-opacity="1" stroke="#000000" stroke-opacity="1" stroke-width="3.2"/>
<circle clip-path="url(#clip963)" cx="1463.99" cy="1350.65" r="14" fill="#e26f46" fill-rule="evenodd" fill-opacity="1" stroke="#000000" stroke-opacity="1" stroke-width="3.2"/>
<circle clip-path="url(#clip963)" cx="1477.78" cy="1341.16" r="14" fill="#e26f46" fill-rule="evenodd" fill-opacity="1" stroke="#000000" stroke-opacity="1" stroke-width="3.2"/>
<circle clip-path="url(#clip963)" cx="1491.56" cy="1330.73" r="14" fill="#e26f46" fill-rule="evenodd" fill-opacity="1" stroke="#000000" stroke-opacity="1" stroke-width="3.2"/>
<circle clip-path="url(#clip963)" cx="1505.35" cy="1319.48" r="14" fill="#e26f46" fill-rule="evenodd" fill-opacity="1" stroke="#000000" stroke-opacity="1" stroke-width="3.2"/>
<circle clip-path="url(#clip963)" cx="1519.14" cy="1307.66" r="14" fill="#e26f46" fill-rule="evenodd" fill-opacity="1" stroke="#000000" stroke-opacity="1" stroke-width="3.2"/>
<circle clip-path="url(#clip963)" cx="1532.92" cy="1295.7" r="14" fill="#e26f46" fill-rule="evenodd" fill-opacity="1" stroke="#000000" stroke-opacity="1" stroke-width="3.2"/>
<circle clip-path="url(#clip963)" cx="1546.71" cy="1284.22" r="14" fill="#e26f46" fill-rule="evenodd" fill-opacity="1" stroke="#000000" stroke-opacity="1" stroke-width="3.2"/>
<circle clip-path="url(#clip963)" cx="1560.49" cy="1273.97" r="14" fill="#e26f46" fill-rule="evenodd" fill-opacity="1" stroke="#000000" stroke-opacity="1" stroke-width="3.2"/>
<circle clip-path="url(#clip963)" cx="1574.28" cy="1265.82" r="14" fill="#e26f46" fill-rule="evenodd" fill-opacity="1" stroke="#000000" stroke-opacity="1" stroke-width="3.2"/>
<circle clip-path="url(#clip963)" cx="1588.06" cy="1260.54" r="14" fill="#e26f46" fill-rule="evenodd" fill-opacity="1" stroke="#000000" stroke-opacity="1" stroke-width="3.2"/>
<circle clip-path="url(#clip963)" cx="1601.85" cy="1258.71" r="14" fill="#e26f46" fill-rule="evenodd" fill-opacity="1" stroke="#000000" stroke-opacity="1" stroke-width="3.2"/>
<circle clip-path="url(#clip963)" cx="1615.64" cy="1262.34" r="14" fill="#e26f46" fill-rule="evenodd" fill-opacity="1" stroke="#000000" stroke-opacity="1" stroke-width="3.2"/>
<circle clip-path="url(#clip963)" cx="1629.42" cy="1272.57" r="14" fill="#e26f46" fill-rule="evenodd" fill-opacity="1" stroke="#000000" stroke-opacity="1" stroke-width="3.2"/>
<circle clip-path="url(#clip963)" cx="1643.21" cy="1287.66" r="14" fill="#e26f46" fill-rule="evenodd" fill-opacity="1" stroke="#000000" stroke-opacity="1" stroke-width="3.2"/>
<circle clip-path="url(#clip963)" cx="1656.99" cy="1305.45" r="14" fill="#e26f46" fill-rule="evenodd" fill-opacity="1" stroke="#000000" stroke-opacity="1" stroke-width="3.2"/>
<circle clip-path="url(#clip963)" cx="1670.78" cy="1323.99" r="14" fill="#e26f46" fill-rule="evenodd" fill-opacity="1" stroke="#000000" stroke-opacity="1" stroke-width="3.2"/>
<circle clip-path="url(#clip963)" cx="1684.56" cy="1341.83" r="14" fill="#e26f46" fill-rule="evenodd" fill-opacity="1" stroke="#000000" stroke-opacity="1" stroke-width="3.2"/>
<circle clip-path="url(#clip963)" cx="1698.35" cy="1358.13" r="14" fill="#e26f46" fill-rule="evenodd" fill-opacity="1" stroke="#000000" stroke-opacity="1" stroke-width="3.2"/>
<circle clip-path="url(#clip963)" cx="1712.14" cy="1372.51" r="14" fill="#e26f46" fill-rule="evenodd" fill-opacity="1" stroke="#000000" stroke-opacity="1" stroke-width="3.2"/>
<circle clip-path="url(#clip963)" cx="1725.92" cy="1384.91" r="14" fill="#e26f46" fill-rule="evenodd" fill-opacity="1" stroke="#000000" stroke-opacity="1" stroke-width="3.2"/>
<circle clip-path="url(#clip963)" cx="1739.71" cy="1395.46" r="14" fill="#e26f46" fill-rule="evenodd" fill-opacity="1" stroke="#000000" stroke-opacity="1" stroke-width="3.2"/>
<circle clip-path="url(#clip963)" cx="1753.49" cy="1404.33" r="14" fill="#e26f46" fill-rule="evenodd" fill-opacity="1" stroke="#000000" stroke-opacity="1" stroke-width="3.2"/>
<circle clip-path="url(#clip963)" cx="1767.28" cy="1411.76" r="14" fill="#e26f46" fill-rule="evenodd" fill-opacity="1" stroke="#000000" stroke-opacity="1" stroke-width="3.2"/>
<circle clip-path="url(#clip963)" cx="1781.06" cy="1417.96" r="14" fill="#e26f46" fill-rule="evenodd" fill-opacity="1" stroke="#000000" stroke-opacity="1" stroke-width="3.2"/>
<circle clip-path="url(#clip963)" cx="1794.85" cy="1423.13" r="14" fill="#e26f46" fill-rule="evenodd" fill-opacity="1" stroke="#000000" stroke-opacity="1" stroke-width="3.2"/>
<circle clip-path="url(#clip963)" cx="1808.64" cy="1427.44" r="14" fill="#e26f46" fill-rule="evenodd" fill-opacity="1" stroke="#000000" stroke-opacity="1" stroke-width="3.2"/>
<circle clip-path="url(#clip963)" cx="1822.42" cy="1431.04" r="14" fill="#e26f46" fill-rule="evenodd" fill-opacity="1" stroke="#000000" stroke-opacity="1" stroke-width="3.2"/>
<circle clip-path="url(#clip963)" cx="1836.21" cy="1434.03" r="14" fill="#e26f46" fill-rule="evenodd" fill-opacity="1" stroke="#000000" stroke-opacity="1" stroke-width="3.2"/>
<circle clip-path="url(#clip963)" cx="1849.99" cy="1436.54" r="14" fill="#e26f46" fill-rule="evenodd" fill-opacity="1" stroke="#000000" stroke-opacity="1" stroke-width="3.2"/>
<circle clip-path="url(#clip963)" cx="1863.78" cy="1438.63" r="14" fill="#e26f46" fill-rule="evenodd" fill-opacity="1" stroke="#000000" stroke-opacity="1" stroke-width="3.2"/>
<circle clip-path="url(#clip963)" cx="1877.56" cy="1440.38" r="14" fill="#e26f46" fill-rule="evenodd" fill-opacity="1" stroke="#000000" stroke-opacity="1" stroke-width="3.2"/>
<circle clip-path="url(#clip963)" cx="1891.35" cy="1441.85" r="14" fill="#e26f46" fill-rule="evenodd" fill-opacity="1" stroke="#000000" stroke-opacity="1" stroke-width="3.2"/>
<circle clip-path="url(#clip963)" cx="1905.13" cy="1443.08" r="14" fill="#e26f46" fill-rule="evenodd" fill-opacity="1" stroke="#000000" stroke-opacity="1" stroke-width="3.2"/>
<circle clip-path="url(#clip963)" cx="1918.92" cy="1444.11" r="14" fill="#e26f46" fill-rule="evenodd" fill-opacity="1" stroke="#000000" stroke-opacity="1" stroke-width="3.2"/>
<circle clip-path="url(#clip963)" cx="1932.71" cy="1444.98" r="14" fill="#e26f46" fill-rule="evenodd" fill-opacity="1" stroke="#000000" stroke-opacity="1" stroke-width="3.2"/>
<circle clip-path="url(#clip963)" cx="1946.49" cy="1445.72" r="14" fill="#e26f46" fill-rule="evenodd" fill-opacity="1" stroke="#000000" stroke-opacity="1" stroke-width="3.2"/>
<circle clip-path="url(#clip963)" cx="1960.28" cy="1445.1" r="14" fill="#e26f46" fill-rule="evenodd" fill-opacity="1" stroke="#000000" stroke-opacity="1" stroke-width="3.2"/>
<circle clip-path="url(#clip963)" cx="1974.06" cy="1444.58" r="14" fill="#e26f46" fill-rule="evenodd" fill-opacity="1" stroke="#000000" stroke-opacity="1" stroke-width="3.2"/>
<circle clip-path="url(#clip963)" cx="1987.85" cy="1444.14" r="14" fill="#e26f46" fill-rule="evenodd" fill-opacity="1" stroke="#000000" stroke-opacity="1" stroke-width="3.2"/>
<circle clip-path="url(#clip963)" cx="2001.63" cy="1443.77" r="14" fill="#e26f46" fill-rule="evenodd" fill-opacity="1" stroke="#000000" stroke-opacity="1" stroke-width="3.2"/>
<circle clip-path="url(#clip963)" cx="2015.42" cy="1443.46" r="14" fill="#e26f46" fill-rule="evenodd" fill-opacity="1" stroke="#000000" stroke-opacity="1" stroke-width="3.2"/>
<circle clip-path="url(#clip963)" cx="2029.21" cy="1443.2" r="14" fill="#e26f46" fill-rule="evenodd" fill-opacity="1" stroke="#000000" stroke-opacity="1" stroke-width="3.2"/>
<circle clip-path="url(#clip963)" cx="2042.99" cy="1442.98" r="14" fill="#e26f46" fill-rule="evenodd" fill-opacity="1" stroke="#000000" stroke-opacity="1" stroke-width="3.2"/>
<circle clip-path="url(#clip963)" cx="2056.78" cy="1442.79" r="14" fill="#e26f46" fill-rule="evenodd" fill-opacity="1" stroke="#000000" stroke-opacity="1" stroke-width="3.2"/>
<circle clip-path="url(#clip963)" cx="2070.56" cy="1442.63" r="14" fill="#e26f46" fill-rule="evenodd" fill-opacity="1" stroke="#000000" stroke-opacity="1" stroke-width="3.2"/>
<circle clip-path="url(#clip963)" cx="2084.35" cy="1442.5" r="14" fill="#e26f46" fill-rule="evenodd" fill-opacity="1" stroke="#000000" stroke-opacity="1" stroke-width="3.2"/>
<circle clip-path="url(#clip963)" cx="2098.13" cy="1442.39" r="14" fill="#e26f46" fill-rule="evenodd" fill-opacity="1" stroke="#000000" stroke-opacity="1" stroke-width="3.2"/>
<circle clip-path="url(#clip963)" cx="2111.92" cy="1442.3" r="14" fill="#e26f46" fill-rule="evenodd" fill-opacity="1" stroke="#000000" stroke-opacity="1" stroke-width="3.2"/>
<circle clip-path="url(#clip963)" cx="2125.71" cy="1442.22" r="14" fill="#e26f46" fill-rule="evenodd" fill-opacity="1" stroke="#000000" stroke-opacity="1" stroke-width="3.2"/>
<circle clip-path="url(#clip963)" cx="2139.49" cy="1442.15" r="14" fill="#e26f46" fill-rule="evenodd" fill-opacity="1" stroke="#000000" stroke-opacity="1" stroke-width="3.2"/>
<circle clip-path="url(#clip963)" cx="2153.28" cy="1442.1" r="14" fill="#e26f46" fill-rule="evenodd" fill-opacity="1" stroke="#000000" stroke-opacity="1" stroke-width="3.2"/>
<circle clip-path="url(#clip963)" cx="2167.06" cy="1442.05" r="14" fill="#e26f46" fill-rule="evenodd" fill-opacity="1" stroke="#000000" stroke-opacity="1" stroke-width="3.2"/>
<circle clip-path="url(#clip963)" cx="2180.85" cy="1442.02" r="14" fill="#e26f46" fill-rule="evenodd" fill-opacity="1" stroke="#000000" stroke-opacity="1" stroke-width="3.2"/>
<circle clip-path="url(#clip963)" cx="2194.63" cy="1441.99" r="14" fill="#e26f46" fill-rule="evenodd" fill-opacity="1" stroke="#000000" stroke-opacity="1" stroke-width="3.2"/>
<circle clip-path="url(#clip963)" cx="2208.42" cy="1441.96" r="14" fill="#e26f46" fill-rule="evenodd" fill-opacity="1" stroke="#000000" stroke-opacity="1" stroke-width="3.2"/>
<circle clip-path="url(#clip963)" cx="2222.21" cy="1441.94" r="14" fill="#e26f46" fill-rule="evenodd" fill-opacity="1" stroke="#000000" stroke-opacity="1" stroke-width="3.2"/>
<circle clip-path="url(#clip963)" cx="2235.99" cy="1441.92" r="14" fill="#e26f46" fill-rule="evenodd" fill-opacity="1" stroke="#000000" stroke-opacity="1" stroke-width="3.2"/>
<circle clip-path="url(#clip963)" cx="2249.78" cy="1441.91" r="14" fill="#e26f46" fill-rule="evenodd" fill-opacity="1" stroke="#000000" stroke-opacity="1" stroke-width="3.2"/>
<circle clip-path="url(#clip963)" cx="2263.56" cy="1441.91" r="14" fill="#e26f46" fill-rule="evenodd" fill-opacity="1" stroke="#000000" stroke-opacity="1" stroke-width="3.2"/>
<circle clip-path="url(#clip963)" cx="2277.35" cy="1441.9" r="14" fill="#e26f46" fill-rule="evenodd" fill-opacity="1" stroke="#000000" stroke-opacity="1" stroke-width="3.2"/>
<circle clip-path="url(#clip963)" cx="2291.13" cy="1441.9" r="14" fill="#e26f46" fill-rule="evenodd" fill-opacity="1" stroke="#000000" stroke-opacity="1" stroke-width="3.2"/>
<path clip-path="url(#clip960)" d="
M1772.29 286.69 L2280.18 286.69 L2280.18 95.2176 L1772.29 95.2176  Z
  " fill="#ffffff" fill-rule="evenodd" fill-opacity="1"/>
<polyline clip-path="url(#clip960)" style="stroke:#000000; stroke-linecap:butt; stroke-linejoin:round; stroke-width:4; stroke-opacity:1; fill:none" points="
  1772.29,286.69 2280.18,286.69 2280.18,95.2176 1772.29,95.2176 1772.29,286.69 
  "/>
<circle clip-path="url(#clip960)" cx="1869.06" cy="159.042" r="23" fill="#009af9" fill-rule="evenodd" fill-opacity="1" stroke="#000000" stroke-opacity="1" stroke-width="5.12"/>
<path clip-path="url(#clip960)" d="M1965.83 177.508 L1974.2 164.605 L1977.6 181.726 L1978.24 184.846 Q1978.38 184.03 1978.81 182.648 Q1979.27 181.23 1979.34 180.875 L1990.57 137.735 Q1990.64 137.452 1990.75 136.991 Q1990.89 136.495 1990.96 136.318 Q1991.03 136.14 1991.14 135.786 Q1991.25 135.431 1991.32 135.325 Q1991.39 135.183 1991.5 134.935 Q1991.6 134.687 1991.74 134.616 Q1991.89 134.545 1992.06 134.403 Q1992.24 134.262 1992.45 134.226 Q1992.7 134.191 1992.95 134.155 Q1993.2 134.12 1993.55 134.12 L1999.9 134.12 Q2002.13 134.12 2002.13 135.573 Q2002.13 137.026 1999.97 137.026 L1993.76 137.026 L1979.12 192.999 Q1978.91 193.814 1978.73 194.133 Q1978.59 194.452 1978.1 194.735 Q1977.6 195.019 1976.71 195.019 L1976 195.019 L1971.36 171.943 L1967 178.678 L1965.83 177.508 Z" fill="#000000" fill-rule="evenodd" fill-opacity="1" /><path clip-path="url(#clip960)" d="
M1999.75 137.057 L2125.43 137.057 L2125.43 134.042 L1999.75 134.042  Z
  " fill="#000000" fill-rule="evenodd" fill-opacity="1"/>
<path clip-path="url(#clip960)" d="M2004.87 172.376 Q2004.87 167.808 2008.05 164.646 Q2011.24 161.484 2015.55 161.484 Q2019.2 161.484 2021.59 164.459 L2021.59 154.083 Q2021.59 152.303 2020.96 151.858 Q2020.35 151.413 2017.87 151.413 L2017.87 149.914 L2024.78 149.398 L2024.78 178.512 Q2024.78 180.293 2025.39 180.761 Q2026.02 181.206 2028.5 181.206 L2028.5 182.682 L2021.45 183.22 L2021.45 180.035 Q2018.97 183.197 2015.03 183.22 Q2010.91 183.22 2007.89 180.058 Q2004.87 176.896 2004.87 172.376 M2008.85 172.423 Q2008.85 176.873 2010.23 179.075 Q2012.15 182.143 2015.27 182.143 Q2018.83 182.143 2020.94 178.794 Q2021.47 177.974 2021.45 177.013 L2021.45 167.176 Q2021.45 166.216 2020.94 165.419 Q2018.97 162.538 2015.76 162.538 Q2012.41 162.538 2010.33 165.607 Q2008.85 167.902 2008.85 172.423 Z" fill="#000000" fill-rule="evenodd" fill-opacity="1" /><path clip-path="url(#clip960)" d="M2031.41 172.118 Q2031.41 167.598 2034.31 164.389 Q2037.22 161.18 2041.39 161.18 Q2045.6 161.18 2047.78 163.92 Q2049.98 166.661 2049.98 170.596 Q2049.98 171.322 2049.79 171.462 Q2049.61 171.603 2048.79 171.603 L2035.39 171.603 Q2035.39 176.498 2036.84 178.794 Q2038.86 182.002 2042.25 182.002 Q2042.72 182.002 2043.28 181.909 Q2043.85 181.815 2044.99 181.417 Q2046.14 180.995 2047.15 179.894 Q2048.15 178.794 2048.74 177.06 Q2048.88 176.381 2049.35 176.404 Q2049.98 176.404 2049.98 176.967 Q2049.98 177.388 2049.51 178.349 Q2049.07 179.285 2048.2 180.41 Q2047.33 181.534 2045.65 182.377 Q2043.99 183.22 2041.97 183.22 Q2037.76 183.22 2034.57 180.035 Q2031.41 176.826 2031.41 172.118 M2035.44 170.596 L2046.82 170.596 Q2046.82 169.589 2046.63 168.464 Q2046.47 167.34 2045.95 165.794 Q2045.46 164.225 2044.29 163.241 Q2043.12 162.257 2041.39 162.257 Q2040.61 162.257 2039.77 162.585 Q2038.95 162.913 2037.94 163.709 Q2036.94 164.506 2036.23 166.309 Q2035.53 168.113 2035.44 170.596 Z" fill="#000000" fill-rule="evenodd" fill-opacity="1" /><path clip-path="url(#clip960)" d="M2050.41 163.499 L2050.41 162.445 Q2052.61 162.351 2054.06 160.805 Q2055.54 159.236 2056.03 157.315 Q2056.54 155.395 2056.59 153.169 L2057.78 153.169 L2057.78 162 L2064.65 162 L2064.65 163.499 L2057.78 163.499 L2057.78 176.826 Q2057.78 182.002 2061.02 182.002 Q2062.4 182.002 2063.31 180.597 Q2064.22 179.168 2064.22 176.639 L2064.22 173.992 L2065.42 173.992 L2065.42 176.732 Q2065.42 179.332 2064.22 181.276 Q2063.03 183.22 2060.66 183.22 Q2059.8 183.22 2058.93 182.986 Q2058.09 182.775 2056.96 182.213 Q2055.86 181.628 2055.16 180.222 Q2054.48 178.794 2054.48 176.732 L2054.48 163.499 L2050.41 163.499 Z" fill="#000000" fill-rule="evenodd" fill-opacity="1" /><path clip-path="url(#clip960)" d="M2068.82 170.689 Q2068.82 162.585 2071.84 156.05 Q2073.13 153.31 2074.93 151.015 Q2076.74 148.719 2077.93 147.712 Q2079.13 146.705 2079.45 146.705 Q2079.92 146.705 2079.95 147.173 Q2079.95 147.407 2079.31 147.993 Q2071.58 155.863 2071.61 170.689 Q2071.61 185.563 2079.13 193.128 Q2079.95 193.948 2079.95 194.206 Q2079.95 194.674 2079.45 194.674 Q2079.13 194.674 2077.98 193.714 Q2076.83 192.753 2075.05 190.552 Q2073.27 188.35 2071.98 185.656 Q2068.82 179.121 2068.82 170.689 Z" fill="#000000" fill-rule="evenodd" fill-opacity="1" /><path clip-path="url(#clip960)" d="M2104.65 163.733 Q2104.65 163.756 2104.51 164.6 L2099.16 185.891 Q2098.88 187.015 2098.09 188.139 Q2097.31 189.287 2096.07 190.271 Q2094.86 191.278 2092.98 191.887 Q2091.13 192.519 2089 192.519 Q2085.6 192.519 2084.1 191.793 Q2082.63 191.09 2082.63 189.591 Q2082.63 188.28 2083.45 187.53 Q2084.27 186.804 2085.21 186.804 Q2086.1 186.804 2086.56 187.319 Q2087.03 187.835 2087.03 188.49 Q2087.03 189.217 2086.54 189.943 Q2086.05 190.692 2085.06 190.973 Q2086.63 191.465 2088.91 191.465 Q2093.71 191.465 2095.77 186.382 Q2095.82 186.312 2095.82 186.289 L2097.41 179.941 L2097.34 179.894 Q2096.94 180.363 2096.31 180.902 Q2095.7 181.417 2094.39 182.049 Q2093.07 182.682 2091.79 182.682 Q2089.09 182.682 2087.24 180.621 Q2085.42 178.536 2085.42 175.093 Q2085.42 172.587 2086.42 170.08 Q2087.45 167.551 2089.05 165.7 Q2090.66 163.827 2092.72 162.655 Q2094.81 161.484 2096.82 161.484 Q2098.23 161.484 2099.42 162.328 Q2100.62 163.147 2101.27 164.506 Q2101.39 163.382 2102.02 162.913 Q2102.68 162.445 2103.24 162.445 Q2103.87 162.445 2104.25 162.796 Q2104.65 163.124 2104.65 163.733 M2100.71 166.661 Q2100.71 166.52 2100.62 166.145 Q2100.52 165.747 2100.24 165.115 Q2099.98 164.482 2099.59 163.92 Q2099.19 163.358 2098.46 162.96 Q2097.76 162.538 2096.87 162.538 Q2095.42 162.538 2093.97 163.756 Q2092.51 164.951 2091.51 166.801 Q2090.57 168.581 2089.68 172.024 Q2088.81 175.468 2088.81 177.224 Q2088.81 178.958 2089.56 180.293 Q2090.31 181.628 2091.93 181.628 Q2093.8 181.628 2095.82 179.894 Q2097.9 178.091 2098.25 176.545 L2100.57 167.387 Q2100.71 166.825 2100.71 166.661 Z" fill="#000000" fill-rule="evenodd" fill-opacity="1" /><path clip-path="url(#clip960)" d="M2109.3 194.206 Q2109.3 193.971 2109.91 193.386 Q2117.64 185.516 2117.64 170.689 Q2117.64 155.816 2110.21 148.298 Q2109.3 147.431 2109.3 147.173 Q2109.3 146.705 2109.77 146.705 Q2110.09 146.705 2111.24 147.665 Q2112.41 148.625 2114.17 150.827 Q2115.95 153.029 2117.26 155.722 Q2120.42 162.257 2120.42 170.689 Q2120.42 178.794 2117.4 185.328 Q2116.11 188.069 2114.31 190.364 Q2112.51 192.66 2111.31 193.667 Q2110.12 194.674 2109.77 194.674 Q2109.3 194.674 2109.3 194.206 Z" fill="#000000" fill-rule="evenodd" fill-opacity="1" /><path clip-path="url(#clip960)" d="M2134 194.313 Q2130.55 190.755 2130.55 185.656 Q2130.55 180.541 2134.03 176.999 Q2137.5 173.458 2142.23 173.458 Q2143.41 173.458 2144.41 173.736 Q2145.42 173.999 2146.23 174.54 Q2147.03 175.064 2147.44 175.425 Q2147.87 175.77 2148.44 176.343 L2150.13 173.868 Q2150.39 173.458 2150.65 173.458 Q2150.93 173.458 2150.98 173.622 Q2151.03 173.769 2151.03 174.261 L2151.03 182.229 Q2151.03 182.77 2150.97 182.902 Q2150.9 183.033 2150.49 183.033 Q2150.16 183.033 2150.1 182.934 Q2150.03 182.836 2149.95 182.459 Q2149.44 178.836 2147.41 176.671 Q2145.39 174.507 2142.64 174.507 Q2141.83 174.507 2140.93 174.687 Q2140.05 174.868 2138.73 175.556 Q2137.44 176.245 2136.44 177.376 Q2135.46 178.491 2134.73 180.655 Q2134.01 182.803 2134.01 185.656 Q2134.01 188.476 2134.73 190.64 Q2135.46 192.805 2136.46 193.936 Q2137.47 195.051 2138.78 195.756 Q2140.11 196.461 2141.05 196.658 Q2142 196.838 2142.83 196.838 Q2143.41 196.838 2144.08 196.723 Q2144.75 196.592 2145.75 196.231 Q2146.77 195.854 2147.41 194.969 Q2148.05 194.084 2148.05 192.772 L2148.05 190.624 Q2148.05 189.624 2147.56 189.312 Q2147.06 189.001 2144.92 189.001 L2143.85 189.001 L2143.85 187.968 Q2145.06 188.066 2149.24 188.066 Q2149.62 188.066 2153.34 187.968 L2153.34 189.001 Q2151.74 189.001 2151.38 189.247 Q2151.03 189.476 2151.03 190.476 L2151.03 196.33 Q2151.03 197.1 2150.74 197.1 Q2150.47 197.1 2149.69 196.346 Q2148.92 195.592 2148.57 195.018 Q2147.77 196.428 2146.01 197.15 Q2144.28 197.871 2142.29 197.871 Q2137.46 197.871 2134 194.313 Z" fill="#000000" fill-rule="evenodd" fill-opacity="1" /><path clip-path="url(#clip960)" d="M2155.8 197.133 L2155.8 196.1 Q2157.59 196.1 2158 195.887 Q2158.43 195.658 2158.43 194.575 L2158.43 185.574 Q2158.43 184.328 2157.98 184.017 Q2157.56 183.705 2155.8 183.705 L2155.8 182.656 L2160.48 182.295 L2160.48 185.984 Q2160.95 184.541 2161.95 183.426 Q2162.97 182.295 2164.61 182.295 Q2165.69 182.295 2166.38 182.902 Q2167.08 183.508 2167.08 184.344 Q2167.08 185.082 2166.63 185.459 Q2166.18 185.82 2165.64 185.82 Q2165.04 185.82 2164.61 185.443 Q2164.2 185.049 2164.2 184.377 Q2164.2 183.967 2164.38 183.656 Q2164.58 183.328 2164.72 183.213 Q2164.87 183.098 2164.97 183.066 Q2164.9 183.033 2164.61 183.033 Q2162.76 183.033 2161.69 184.886 Q2160.64 186.722 2160.64 189.345 L2160.64 194.51 Q2160.64 195.477 2161.03 195.789 Q2161.44 196.1 2163.2 196.1 L2163.9 196.1 L2163.9 197.133 Q2162.56 197.035 2159.64 197.035 Q2159.23 197.035 2158.59 197.051 Q2157.95 197.068 2157.12 197.1 Q2156.28 197.133 2155.8 197.133 Z" fill="#000000" fill-rule="evenodd" fill-opacity="1" /><path clip-path="url(#clip960)" d="M2169.52 189.739 Q2169.52 186.574 2171.55 184.328 Q2173.58 182.082 2176.5 182.082 Q2179.45 182.082 2180.98 184 Q2182.52 185.918 2182.52 188.673 Q2182.52 189.181 2182.39 189.28 Q2182.26 189.378 2181.68 189.378 L2172.3 189.378 Q2172.3 192.805 2173.32 194.411 Q2174.73 196.658 2177.11 196.658 Q2177.44 196.658 2177.83 196.592 Q2178.22 196.526 2179.03 196.248 Q2179.83 195.953 2180.54 195.182 Q2181.24 194.411 2181.65 193.198 Q2181.75 192.723 2182.08 192.739 Q2182.52 192.739 2182.52 193.133 Q2182.52 193.428 2182.19 194.1 Q2181.88 194.756 2181.27 195.543 Q2180.67 196.33 2179.49 196.92 Q2178.32 197.51 2176.91 197.51 Q2173.96 197.51 2171.73 195.28 Q2169.52 193.034 2169.52 189.739 M2172.34 188.673 L2180.31 188.673 Q2180.31 187.968 2180.17 187.181 Q2180.06 186.394 2179.7 185.312 Q2179.36 184.213 2178.54 183.525 Q2177.72 182.836 2176.5 182.836 Q2175.96 182.836 2175.37 183.066 Q2174.8 183.295 2174.09 183.853 Q2173.39 184.41 2172.9 185.673 Q2172.4 186.935 2172.34 188.673 Z" fill="#000000" fill-rule="evenodd" fill-opacity="1" /><path clip-path="url(#clip960)" d="M2184.28 189.739 Q2184.28 186.574 2186.31 184.328 Q2188.34 182.082 2191.26 182.082 Q2194.21 182.082 2195.74 184 Q2197.28 185.918 2197.28 188.673 Q2197.28 189.181 2197.15 189.28 Q2197.02 189.378 2196.44 189.378 L2187.06 189.378 Q2187.06 192.805 2188.08 194.411 Q2189.49 196.658 2191.87 196.658 Q2192.19 196.658 2192.59 196.592 Q2192.98 196.526 2193.79 196.248 Q2194.59 195.953 2195.29 195.182 Q2196 194.411 2196.41 193.198 Q2196.51 192.723 2196.83 192.739 Q2197.28 192.739 2197.28 193.133 Q2197.28 193.428 2196.95 194.1 Q2196.64 194.756 2196.03 195.543 Q2195.42 196.33 2194.24 196.92 Q2193.08 197.51 2191.67 197.51 Q2188.72 197.51 2186.49 195.28 Q2184.28 193.034 2184.28 189.739 M2187.1 188.673 L2195.06 188.673 Q2195.06 187.968 2194.93 187.181 Q2194.82 186.394 2194.46 185.312 Q2194.11 184.213 2193.29 183.525 Q2192.47 182.836 2191.26 182.836 Q2190.72 182.836 2190.13 183.066 Q2189.56 183.295 2188.85 183.853 Q2188.15 184.41 2187.65 185.673 Q2187.16 186.935 2187.1 188.673 Z" fill="#000000" fill-rule="evenodd" fill-opacity="1" /><path clip-path="url(#clip960)" d="M2198.36 197.133 L2198.36 196.1 Q2200.15 196.1 2200.56 195.887 Q2200.97 195.658 2200.97 194.575 L2200.97 185.574 Q2200.97 184.328 2200.53 184.017 Q2200.1 183.705 2198.36 183.705 L2198.36 182.656 L2203.08 182.295 L2203.08 185.82 Q2204.66 182.295 2208.05 182.295 Q2210.58 182.295 2211.58 183.541 Q2212.31 184.377 2212.46 185.312 Q2212.63 186.246 2212.63 188.673 L2212.63 195.084 Q2212.66 195.789 2213.2 195.953 Q2213.74 196.1 2215.25 196.1 L2215.25 197.133 Q2211.82 197.035 2211.48 197.035 Q2211.22 197.035 2207.69 197.133 L2207.69 196.1 Q2209.48 196.1 2209.89 195.887 Q2210.31 195.658 2210.31 194.575 L2210.31 186.755 Q2210.31 185.049 2209.79 184.049 Q2209.26 183.033 2207.82 183.033 Q2206.08 183.033 2204.69 184.492 Q2203.3 185.951 2203.3 188.411 L2203.3 194.575 Q2203.3 195.658 2203.71 195.887 Q2204.13 196.1 2205.9 196.1 L2205.9 197.133 Q2202.48 197.035 2202.15 197.035 Q2201.89 197.035 2198.36 197.133 Z" fill="#000000" fill-rule="evenodd" fill-opacity="1" /><circle clip-path="url(#clip960)" cx="1869.06" cy="222.866" r="23" fill="#e26f46" fill-rule="evenodd" fill-opacity="1" stroke="#000000" stroke-opacity="1" stroke-width="5.12"/>
<path clip-path="url(#clip960)" d="M1965.83 241.87 L1974.2 228.967 L1977.6 246.089 L1978.24 249.208 Q1978.38 248.393 1978.81 247.01 Q1979.27 245.592 1979.34 245.238 L1990.57 202.098 Q1990.64 201.814 1990.75 201.353 Q1990.89 200.857 1990.96 200.68 Q1991.03 200.503 1991.14 200.148 Q1991.25 199.794 1991.32 199.687 Q1991.39 199.546 1991.5 199.297 Q1991.6 199.049 1991.74 198.978 Q1991.89 198.908 1992.06 198.766 Q1992.24 198.624 1992.45 198.588 Q1992.7 198.553 1992.95 198.518 Q1993.2 198.482 1993.55 198.482 L1999.9 198.482 Q2002.13 198.482 2002.13 199.935 Q2002.13 201.389 1999.97 201.389 L1993.76 201.389 L1979.12 257.361 Q1978.91 258.176 1978.73 258.495 Q1978.59 258.814 1978.1 259.098 Q1977.6 259.381 1976.71 259.381 L1976 259.381 L1971.36 236.305 L1967 243.04 L1965.83 241.87 Z" fill="#000000" fill-rule="evenodd" fill-opacity="1" /><path clip-path="url(#clip960)" d="
M1999.75 201.419 L2125.43 201.419 L2125.43 198.404 L1999.75 198.404  Z
  " fill="#000000" fill-rule="evenodd" fill-opacity="1"/>
<path clip-path="url(#clip960)" d="M2004.87 236.738 Q2004.87 232.171 2008.05 229.009 Q2011.24 225.847 2015.55 225.847 Q2019.2 225.847 2021.59 228.821 L2021.59 218.445 Q2021.59 216.665 2020.96 216.22 Q2020.35 215.775 2017.87 215.775 L2017.87 214.276 L2024.78 213.761 L2024.78 242.875 Q2024.78 244.655 2025.39 245.123 Q2026.02 245.568 2028.5 245.568 L2028.5 247.044 L2021.45 247.583 L2021.45 244.397 Q2018.97 247.559 2015.03 247.583 Q2010.91 247.583 2007.89 244.421 Q2004.87 241.259 2004.87 236.738 M2008.85 236.785 Q2008.85 241.235 2010.23 243.437 Q2012.15 246.505 2015.27 246.505 Q2018.83 246.505 2020.94 243.156 Q2021.47 242.336 2021.45 241.376 L2021.45 231.538 Q2021.45 230.578 2020.94 229.782 Q2018.97 226.901 2015.76 226.901 Q2012.41 226.901 2010.33 229.969 Q2008.85 232.264 2008.85 236.785 Z" fill="#000000" fill-rule="evenodd" fill-opacity="1" /><path clip-path="url(#clip960)" d="M2031.41 236.481 Q2031.41 231.96 2034.31 228.751 Q2037.22 225.542 2041.39 225.542 Q2045.6 225.542 2047.78 228.283 Q2049.98 231.023 2049.98 234.958 Q2049.98 235.684 2049.79 235.825 Q2049.61 235.965 2048.79 235.965 L2035.39 235.965 Q2035.39 240.861 2036.84 243.156 Q2038.86 246.365 2042.25 246.365 Q2042.72 246.365 2043.28 246.271 Q2043.85 246.177 2044.99 245.779 Q2046.14 245.358 2047.15 244.257 Q2048.15 243.156 2048.74 241.423 Q2048.88 240.743 2049.35 240.767 Q2049.98 240.767 2049.98 241.329 Q2049.98 241.751 2049.51 242.711 Q2049.07 243.648 2048.2 244.772 Q2047.33 245.896 2045.65 246.74 Q2043.99 247.583 2041.97 247.583 Q2037.76 247.583 2034.57 244.397 Q2031.41 241.188 2031.41 236.481 M2035.44 234.958 L2046.82 234.958 Q2046.82 233.951 2046.63 232.827 Q2046.47 231.702 2045.95 230.156 Q2045.46 228.587 2044.29 227.603 Q2043.12 226.62 2041.39 226.62 Q2040.61 226.62 2039.77 226.948 Q2038.95 227.276 2037.94 228.072 Q2036.94 228.868 2036.23 230.672 Q2035.53 232.475 2035.44 234.958 Z" fill="#000000" fill-rule="evenodd" fill-opacity="1" /><path clip-path="url(#clip960)" d="M2050.41 227.861 L2050.41 226.807 Q2052.61 226.713 2054.06 225.167 Q2055.54 223.598 2056.03 221.678 Q2056.54 219.757 2056.59 217.532 L2057.78 217.532 L2057.78 226.362 L2064.65 226.362 L2064.65 227.861 L2057.78 227.861 L2057.78 241.188 Q2057.78 246.365 2061.02 246.365 Q2062.4 246.365 2063.31 244.959 Q2064.22 243.531 2064.22 241.001 L2064.22 238.354 L2065.42 238.354 L2065.42 241.095 Q2065.42 243.695 2064.22 245.639 Q2063.03 247.583 2060.66 247.583 Q2059.8 247.583 2058.93 247.349 Q2058.09 247.138 2056.96 246.576 Q2055.86 245.99 2055.16 244.585 Q2054.48 243.156 2054.48 241.095 L2054.48 227.861 L2050.41 227.861 Z" fill="#000000" fill-rule="evenodd" fill-opacity="1" /><path clip-path="url(#clip960)" d="M2068.82 235.052 Q2068.82 226.948 2071.84 220.413 Q2073.13 217.672 2074.93 215.377 Q2076.74 213.082 2077.93 212.074 Q2079.13 211.067 2079.45 211.067 Q2079.92 211.067 2079.95 211.536 Q2079.95 211.77 2079.31 212.355 Q2071.58 220.225 2071.61 235.052 Q2071.61 249.925 2079.13 257.49 Q2079.95 258.31 2079.95 258.568 Q2079.95 259.036 2079.45 259.036 Q2079.13 259.036 2077.98 258.076 Q2076.83 257.116 2075.05 254.914 Q2073.27 252.712 2071.98 250.019 Q2068.82 243.484 2068.82 235.052 Z" fill="#000000" fill-rule="evenodd" fill-opacity="1" /><path clip-path="url(#clip960)" d="M2104.65 228.095 Q2104.65 228.119 2104.51 228.962 L2099.16 250.253 Q2098.88 251.377 2098.09 252.501 Q2097.31 253.649 2096.07 254.633 Q2094.86 255.64 2092.98 256.249 Q2091.13 256.881 2089 256.881 Q2085.6 256.881 2084.1 256.155 Q2082.63 255.453 2082.63 253.954 Q2082.63 252.642 2083.45 251.892 Q2084.27 251.166 2085.21 251.166 Q2086.1 251.166 2086.56 251.682 Q2087.03 252.197 2087.03 252.853 Q2087.03 253.579 2086.54 254.305 Q2086.05 255.055 2085.06 255.336 Q2086.63 255.827 2088.91 255.827 Q2093.71 255.827 2095.77 250.745 Q2095.82 250.675 2095.82 250.651 L2097.41 244.304 L2097.34 244.257 Q2096.94 244.725 2096.31 245.264 Q2095.7 245.779 2094.39 246.412 Q2093.07 247.044 2091.79 247.044 Q2089.09 247.044 2087.24 244.983 Q2085.42 242.898 2085.42 239.455 Q2085.42 236.949 2086.42 234.443 Q2087.45 231.913 2089.05 230.063 Q2090.66 228.189 2092.72 227.018 Q2094.81 225.847 2096.82 225.847 Q2098.23 225.847 2099.42 226.69 Q2100.62 227.51 2101.27 228.868 Q2101.39 227.744 2102.02 227.276 Q2102.68 226.807 2103.24 226.807 Q2103.87 226.807 2104.25 227.158 Q2104.65 227.486 2104.65 228.095 M2100.71 231.023 Q2100.71 230.883 2100.62 230.508 Q2100.52 230.11 2100.24 229.477 Q2099.98 228.845 2099.59 228.283 Q2099.19 227.721 2098.46 227.322 Q2097.76 226.901 2096.87 226.901 Q2095.42 226.901 2093.97 228.119 Q2092.51 229.313 2091.51 231.164 Q2090.57 232.944 2089.68 236.387 Q2088.81 239.83 2088.81 241.587 Q2088.81 243.32 2089.56 244.655 Q2090.31 245.99 2091.93 245.99 Q2093.8 245.99 2095.82 244.257 Q2097.9 242.453 2098.25 240.907 L2100.57 231.749 Q2100.71 231.187 2100.71 231.023 Z" fill="#000000" fill-rule="evenodd" fill-opacity="1" /><path clip-path="url(#clip960)" d="M2109.3 258.568 Q2109.3 258.334 2109.91 257.748 Q2117.64 249.878 2117.64 235.052 Q2117.64 220.179 2110.21 212.66 Q2109.3 211.793 2109.3 211.536 Q2109.3 211.067 2109.77 211.067 Q2110.09 211.067 2111.24 212.027 Q2112.41 212.988 2114.17 215.19 Q2115.95 217.391 2117.26 220.085 Q2120.42 226.62 2120.42 235.052 Q2120.42 243.156 2117.4 249.691 Q2116.11 252.431 2114.31 254.727 Q2112.51 257.022 2111.31 258.029 Q2110.12 259.036 2109.77 259.036 Q2109.3 259.036 2109.3 258.568 Z" fill="#000000" fill-rule="evenodd" fill-opacity="1" /><path clip-path="url(#clip960)" d="M2130.55 260.78 L2130.55 259.747 Q2132.34 259.747 2132.75 259.534 Q2133.16 259.305 2133.16 258.222 L2133.16 249.221 Q2133.16 247.975 2132.72 247.664 Q2132.29 247.352 2130.55 247.352 L2130.55 246.303 L2135.27 245.942 L2135.27 249.467 Q2136.85 245.942 2140.24 245.942 Q2144.18 245.942 2144.72 249.221 Q2145.29 247.942 2146.49 246.942 Q2147.7 245.942 2149.59 245.942 Q2152.11 245.942 2153.11 247.188 Q2153.85 248.024 2154 248.959 Q2154.15 249.893 2154.15 252.32 L2154.15 258.731 Q2154.18 259.436 2154.72 259.6 Q2155.26 259.747 2156.77 259.747 L2156.77 260.78 Q2153.34 260.682 2153.02 260.682 Q2152.75 260.682 2149.21 260.78 L2149.21 259.747 Q2151 259.747 2151.41 259.534 Q2151.83 259.305 2151.83 258.222 L2151.83 250.402 Q2151.83 248.697 2151.31 247.696 Q2150.79 246.68 2149.34 246.68 Q2147.6 246.68 2146.21 248.139 Q2144.82 249.598 2144.82 252.058 L2144.82 258.222 Q2144.82 259.305 2145.23 259.534 Q2145.65 259.747 2147.44 259.747 L2147.44 260.78 Q2144.01 260.682 2143.67 260.682 Q2143.41 260.682 2139.88 260.78 L2139.88 259.747 Q2141.67 259.747 2142.08 259.534 Q2142.51 259.305 2142.51 258.222 L2142.51 250.402 Q2142.51 248.697 2141.98 247.696 Q2141.46 246.68 2140.01 246.68 Q2138.28 246.68 2136.88 248.139 Q2135.49 249.598 2135.49 252.058 L2135.49 258.222 Q2135.49 259.305 2135.9 259.534 Q2136.32 259.747 2138.09 259.747 L2138.09 260.78 Q2134.67 260.682 2134.34 260.682 Q2134.08 260.682 2130.55 260.78 Z" fill="#000000" fill-rule="evenodd" fill-opacity="1" /><path clip-path="url(#clip960)" d="M2158.64 257.583 Q2158.64 254.73 2162 253.222 Q2164.02 252.254 2168.18 252.008 L2168.18 250.779 Q2168.18 248.697 2167.08 247.598 Q2166 246.483 2164.62 246.483 Q2162.16 246.483 2160.98 248.024 Q2161.98 248.057 2162.34 248.565 Q2162.7 249.057 2162.7 249.566 Q2162.7 250.238 2162.28 250.68 Q2161.87 251.107 2161.16 251.107 Q2160.49 251.107 2160.05 250.697 Q2159.6 250.271 2159.6 249.533 Q2159.6 247.893 2161.08 246.811 Q2162.57 245.729 2164.69 245.729 Q2167.44 245.729 2169.28 247.582 Q2169.85 248.155 2170.13 248.893 Q2170.43 249.631 2170.46 250.123 Q2170.49 250.598 2170.49 251.549 L2170.49 258.255 Q2170.49 258.452 2170.56 258.78 Q2170.62 259.108 2170.92 259.534 Q2171.23 259.944 2171.74 259.944 Q2172.95 259.944 2172.93 257.796 L2172.93 255.911 L2173.79 255.911 L2173.79 257.796 Q2173.79 259.583 2172.84 260.288 Q2171.9 260.977 2171.03 260.977 Q2169.92 260.977 2169.21 260.157 Q2168.51 259.337 2168.41 258.222 Q2167.9 259.501 2166.74 260.337 Q2165.59 261.157 2164.02 261.157 Q2162.8 261.157 2161.65 260.846 Q2160.52 260.551 2159.57 259.714 Q2158.64 258.862 2158.64 257.583 M2161.23 257.55 Q2161.23 258.796 2162.11 259.6 Q2163 260.403 2164.24 260.403 Q2165.65 260.403 2166.92 259.321 Q2168.18 258.222 2168.18 256.075 L2168.18 252.713 Q2164.46 252.845 2162.83 254.337 Q2161.23 255.812 2161.23 257.55 Z" fill="#000000" fill-rule="evenodd" fill-opacity="1" /><path clip-path="url(#clip960)" d="M2174.59 247.352 L2174.59 246.614 Q2176.13 246.549 2177.15 245.467 Q2178.18 244.368 2178.53 243.024 Q2178.89 241.679 2178.92 240.122 L2179.76 240.122 L2179.76 246.303 L2184.56 246.303 L2184.56 247.352 L2179.76 247.352 L2179.76 256.681 Q2179.76 260.305 2182.02 260.305 Q2182.98 260.305 2183.62 259.321 Q2184.26 258.321 2184.26 256.55 L2184.26 254.697 L2185.1 254.697 L2185.1 256.616 Q2185.1 258.436 2184.26 259.796 Q2183.43 261.157 2181.77 261.157 Q2181.17 261.157 2180.56 260.993 Q2179.97 260.846 2179.18 260.452 Q2178.41 260.042 2177.92 259.059 Q2177.44 258.058 2177.44 256.616 L2177.44 247.352 L2174.59 247.352 Z" fill="#000000" fill-rule="evenodd" fill-opacity="1" /><path clip-path="url(#clip960)" d="M2187.08 260.78 L2187.08 259.747 Q2188.87 259.747 2189.28 259.534 Q2189.7 259.305 2189.7 258.222 L2189.7 249.221 Q2189.7 247.975 2189.26 247.664 Q2188.83 247.352 2187.08 247.352 L2187.08 246.303 L2191.75 245.942 L2191.75 249.631 Q2192.23 248.188 2193.23 247.073 Q2194.24 245.942 2195.88 245.942 Q2196.96 245.942 2197.65 246.549 Q2198.36 247.155 2198.36 247.992 Q2198.36 248.729 2197.9 249.106 Q2197.46 249.467 2196.92 249.467 Q2196.31 249.467 2195.88 249.09 Q2195.47 248.697 2195.47 248.024 Q2195.47 247.614 2195.65 247.303 Q2195.85 246.975 2196 246.86 Q2196.14 246.745 2196.24 246.713 Q2196.18 246.68 2195.88 246.68 Q2194.03 246.68 2192.96 248.533 Q2191.91 250.369 2191.91 252.992 L2191.91 258.157 Q2191.91 259.124 2192.31 259.436 Q2192.72 259.747 2194.47 259.747 L2195.18 259.747 L2195.18 260.78 Q2193.83 260.682 2190.91 260.682 Q2190.5 260.682 2189.87 260.698 Q2189.23 260.715 2188.39 260.747 Q2187.55 260.78 2187.08 260.78 Z" fill="#000000" fill-rule="evenodd" fill-opacity="1" /><path clip-path="url(#clip960)" d="M2199.68 260.78 L2199.68 259.747 Q2201.47 259.747 2201.88 259.534 Q2202.29 259.305 2202.29 258.222 L2202.29 249.188 Q2202.29 247.942 2201.86 247.647 Q2201.45 247.352 2199.81 247.352 L2199.81 246.303 L2204.5 245.942 L2204.5 258.255 Q2204.5 259.255 2204.86 259.501 Q2205.22 259.747 2206.86 259.747 L2206.86 260.78 Q2203.44 260.682 2203.37 260.682 Q2202.91 260.682 2199.68 260.78 M2201.09 240.089 Q2201.09 239.417 2201.6 238.876 Q2202.12 238.318 2202.86 238.318 Q2203.6 238.318 2204.13 238.826 Q2204.65 239.318 2204.65 240.105 Q2204.65 240.876 2204.13 241.384 Q2203.6 241.876 2202.86 241.876 Q2202.09 241.876 2201.58 241.335 Q2201.09 240.794 2201.09 240.089 Z" fill="#000000" fill-rule="evenodd" fill-opacity="1" /><path clip-path="url(#clip960)" d="M2209.16 260.78 L2209.16 259.747 Q2211.78 259.747 2213.45 257.731 Q2213.45 257.731 2216.6 253.73 L2213.27 249.402 Q2212.09 247.893 2211.57 247.631 Q2211.06 247.352 2209.32 247.352 L2209.32 246.303 Q2210.7 246.401 2212.5 246.401 Q2213.5 246.401 2216.14 246.303 L2216.14 247.352 Q2214.96 247.418 2214.96 248.188 Q2214.96 248.451 2215.26 248.795 L2217.88 252.189 L2219.96 249.566 Q2220.47 248.959 2220.47 248.385 Q2220.47 247.45 2219.49 247.352 L2219.49 246.303 Q2220.8 246.401 2222.72 246.401 Q2224.16 246.401 2225.47 246.303 L2225.47 247.352 Q2222.91 247.418 2221.47 249.09 Q2220.83 249.795 2218.39 252.894 L2222.88 258.698 Q2223.42 259.403 2224.03 259.583 Q2224.63 259.747 2226.08 259.747 L2226.08 260.78 Q2224.57 260.682 2222.85 260.682 Q2222.24 260.682 2219.22 260.78 L2219.22 259.747 Q2219.83 259.714 2220.12 259.452 Q2220.44 259.173 2220.44 258.895 Q2220.44 258.764 2219.73 257.796 L2217.17 254.435 Q2214.62 257.452 2214.29 258.157 Q2214.16 258.452 2214.16 258.698 Q2214.16 259.6 2215.12 259.747 L2215.12 260.78 Q2212.71 260.682 2211.94 260.682 Q2210.47 260.682 2209.16 260.78 Z" fill="#000000" fill-rule="evenodd" fill-opacity="1" /></svg>
