<?xml version="1.0" encoding="utf-8"?>
<svg xmlns="http://www.w3.org/2000/svg" xmlns:xlink="http://www.w3.org/1999/xlink" width="600" height="400" viewBox="0 0 2400 1600">
<defs>
  <clipPath id="clip490">
    <rect x="0" y="0" width="2400" height="1600"/>
  </clipPath>
</defs>
<path clip-path="url(#clip490)" d="
M0 1600 L2400 1600 L2400 0 L0 0  Z
  " fill="#ffffff" fill-rule="evenodd" fill-opacity="1"/>
<defs>
  <clipPath id="clip491">
    <rect x="480" y="0" width="1681" height="1600"/>
  </clipPath>
</defs>
<defs>
  <clipPath id="clip492">
    <rect x="219" y="47" width="2134" height="1440"/>
  </clipPath>
</defs>
<path clip-path="url(#clip490)" d="
M219.38 1486.45 L2352.76 1486.45 L2352.76 47.2441 L219.38 47.2441  Z
  " fill="#ffffff" fill-rule="evenodd" fill-opacity="1"/>
<polyline clip-path="url(#clip492)" style="stroke:#000000; stroke-linecap:butt; stroke-linejoin:round; stroke-width:2; stroke-opacity:0.1; fill:none" points="
  279.759,1486.45 279.759,47.2441 
  "/>
<polyline clip-path="url(#clip492)" style="stroke:#000000; stroke-linecap:butt; stroke-linejoin:round; stroke-width:2; stroke-opacity:0.1; fill:none" points="
  941.627,1486.45 941.627,47.2441 
  "/>
<polyline clip-path="url(#clip492)" style="stroke:#000000; stroke-linecap:butt; stroke-linejoin:round; stroke-width:2; stroke-opacity:0.1; fill:none" points="
  1617,1486.45 1617,47.2441 
  "/>
<polyline clip-path="url(#clip492)" style="stroke:#000000; stroke-linecap:butt; stroke-linejoin:round; stroke-width:2; stroke-opacity:0.1; fill:none" points="
  2292.38,1486.45 2292.38,47.2441 
  "/>
<polyline clip-path="url(#clip490)" style="stroke:#000000; stroke-linecap:butt; stroke-linejoin:round; stroke-width:4; stroke-opacity:1; fill:none" points="
  219.38,1486.45 2352.76,1486.45 
  "/>
<polyline clip-path="url(#clip490)" style="stroke:#000000; stroke-linecap:butt; stroke-linejoin:round; stroke-width:4; stroke-opacity:1; fill:none" points="
  279.759,1486.45 279.759,1467.55 
  "/>
<polyline clip-path="url(#clip490)" style="stroke:#000000; stroke-linecap:butt; stroke-linejoin:round; stroke-width:4; stroke-opacity:1; fill:none" points="
  941.627,1486.45 941.627,1467.55 
  "/>
<polyline clip-path="url(#clip490)" style="stroke:#000000; stroke-linecap:butt; stroke-linejoin:round; stroke-width:4; stroke-opacity:1; fill:none" points="
  1617,1486.45 1617,1467.55 
  "/>
<polyline clip-path="url(#clip490)" style="stroke:#000000; stroke-linecap:butt; stroke-linejoin:round; stroke-width:4; stroke-opacity:1; fill:none" points="
  2292.38,1486.45 2292.38,1467.55 
  "/>
<path clip-path="url(#clip490)" d="M264.915 1554.64 L264.915 1553.16 L265.618 1553.16 Q268.171 1553.16 268.967 1552.81 Q269.787 1552.43 269.857 1551.08 L269.857 1525.48 Q269.81 1524.23 269.014 1523.86 Q268.218 1523.46 265.618 1523.46 L264.915 1523.46 L264.915 1522.01 Q267.164 1522.1 271.661 1522.1 Q273.488 1522.1 275.057 1522.06 Q276.65 1522.01 276.907 1522.01 L289.954 1522.01 L291.289 1532.81 L290.047 1532.81 Q289.672 1529.88 289.251 1528.36 Q288.853 1526.81 287.869 1525.57 Q286.885 1524.33 285.246 1523.91 Q283.606 1523.46 280.842 1523.46 L276.743 1523.46 Q275.197 1523.46 274.659 1523.77 Q274.12 1524.07 274.12 1525.33 L274.12 1550.94 Q274.12 1552.41 275.104 1552.79 Q276.087 1553.16 279.39 1553.16 L280.257 1553.16 L280.257 1554.64 Q276.181 1554.5 272.059 1554.5 L271.754 1554.5 Q268.756 1554.5 264.915 1554.64 Z" fill="#000000" fill-rule="evenodd" fill-opacity="1" /><path clip-path="url(#clip490)" d="M923.814 1554.71 L923.814 1553.23 Q926.016 1553.23 927.632 1552.55 Q929.248 1551.87 929.717 1551.38 Q930.208 1550.87 930.771 1550.05 L938.64 1538.45 L929.81 1525.1 Q929.131 1524.09 928.218 1523.77 Q927.327 1523.44 925.36 1523.44 L924.446 1523.44 L924.446 1521.94 Q927.093 1522.08 930.677 1522.08 Q935.994 1522.08 937.68 1521.94 L937.68 1523.44 Q936.251 1523.48 935.408 1523.95 Q934.565 1524.4 934.565 1524.87 Q934.565 1525.05 934.893 1525.59 L941.076 1534.84 L946.557 1526.74 Q946.979 1526.06 946.979 1525.64 Q946.979 1524.77 946.183 1524.14 Q945.41 1523.48 944.004 1523.44 L944.004 1521.94 Q945.925 1522.08 950.164 1522.08 Q950.703 1522.08 951.57 1522.06 Q952.46 1522.03 953.631 1521.99 Q954.802 1521.94 955.481 1521.94 L955.481 1523.44 Q950.633 1523.48 948.525 1526.55 L941.943 1536.18 L952.062 1551.5 Q952.788 1552.55 953.701 1552.9 Q954.615 1553.23 956.582 1553.23 L957.496 1553.23 L957.496 1554.71 Q954.474 1554.57 951.265 1554.57 Q945.948 1554.57 944.262 1554.71 L944.262 1553.23 Q945.691 1553.18 946.534 1552.74 Q947.377 1552.27 947.377 1551.78 Q947.377 1551.73 947.119 1551.26 L939.554 1539.79 L932.738 1549.86 Q932.27 1550.63 932.27 1551.01 Q932.27 1551.78 933.019 1552.48 Q933.792 1553.16 935.291 1553.23 L935.291 1554.71 Q933.558 1554.57 929.131 1554.57 Q928.99 1554.57 923.814 1554.71 Z" fill="#000000" fill-rule="evenodd" fill-opacity="1" /><path clip-path="url(#clip490)" d="M1595.26 1554.71 L1595.26 1553.23 Q1596.99 1553.23 1598.09 1552.9 Q1599.19 1552.55 1599.59 1551.92 Q1600.01 1551.26 1600.11 1550.84 Q1600.2 1550.4 1600.2 1549.67 L1600.2 1525.69 Q1600.2 1524.3 1599.59 1523.88 Q1599.01 1523.44 1596.41 1523.44 L1595.26 1523.44 L1595.26 1521.94 L1603.36 1521.94 Q1604.23 1521.94 1604.46 1522.1 Q1604.7 1522.24 1605.05 1522.99 L1615.45 1549.86 L1625.94 1522.85 Q1626.18 1522.17 1626.39 1522.06 Q1626.62 1521.94 1627.53 1521.94 L1635.64 1521.94 L1635.64 1523.44 L1634.49 1523.44 Q1631.89 1523.44 1631.28 1523.88 Q1630.7 1524.3 1630.7 1525.69 L1630.7 1550.96 Q1630.7 1552.34 1631.28 1552.79 Q1631.89 1553.23 1634.49 1553.23 L1635.64 1553.23 L1635.64 1554.71 Q1633.86 1554.57 1628.78 1554.57 Q1623.65 1554.57 1621.87 1554.71 L1621.87 1553.23 L1623.04 1553.23 Q1625.64 1553.23 1626.22 1552.81 Q1626.81 1552.36 1626.81 1550.96 L1626.81 1523.44 L1626.76 1523.44 L1614.98 1553.79 Q1614.65 1554.71 1614.11 1554.71 Q1613.53 1554.71 1613.15 1553.65 L1601.58 1523.81 L1601.54 1523.81 L1601.54 1549.67 Q1601.54 1550.4 1601.63 1550.84 Q1601.72 1551.26 1602.12 1551.92 Q1602.54 1552.55 1603.64 1552.9 Q1604.74 1553.23 1606.48 1553.23 L1606.48 1554.71 Q1601.44 1554.57 1600.86 1554.57 Q1600.29 1554.57 1595.26 1554.71 Z" fill="#000000" fill-rule="evenodd" fill-opacity="1" /><path clip-path="url(#clip490)" d="M2277.53 1554.64 L2277.53 1553.16 L2278.24 1553.16 Q2280.79 1553.16 2281.59 1552.81 Q2282.41 1552.43 2282.48 1551.08 L2282.48 1525.48 Q2282.43 1524.23 2281.63 1523.86 Q2280.84 1523.46 2278.24 1523.46 L2277.53 1523.46 L2277.53 1522.01 Q2279.78 1522.1 2284.28 1522.1 Q2286.11 1522.1 2287.68 1522.06 Q2289.27 1522.01 2289.53 1522.01 L2302.57 1522.01 L2303.91 1532.81 L2302.67 1532.81 Q2302.29 1529.88 2301.87 1528.36 Q2301.47 1526.81 2300.49 1525.57 Q2299.5 1524.33 2297.86 1523.91 Q2296.22 1523.46 2293.46 1523.46 L2289.36 1523.46 Q2287.82 1523.46 2287.28 1523.77 Q2286.74 1524.07 2286.74 1525.33 L2286.74 1550.94 Q2286.74 1552.41 2287.72 1552.79 Q2288.71 1553.16 2292.01 1553.16 L2292.88 1553.16 L2292.88 1554.64 Q2288.8 1554.5 2284.68 1554.5 L2284.37 1554.5 Q2281.37 1554.5 2277.53 1554.64 Z" fill="#000000" fill-rule="evenodd" fill-opacity="1" /><polyline clip-path="url(#clip492)" style="stroke:#000000; stroke-linecap:butt; stroke-linejoin:round; stroke-width:2; stroke-opacity:0.1; fill:none" points="
  219.38,1469.67 2352.76,1469.67 
  "/>
<polyline clip-path="url(#clip492)" style="stroke:#000000; stroke-linecap:butt; stroke-linejoin:round; stroke-width:2; stroke-opacity:0.1; fill:none" points="
  219.38,1157.36 2352.76,1157.36 
  "/>
<polyline clip-path="url(#clip492)" style="stroke:#000000; stroke-linecap:butt; stroke-linejoin:round; stroke-width:2; stroke-opacity:0.1; fill:none" points="
  219.38,845.061 2352.76,845.061 
  "/>
<polyline clip-path="url(#clip492)" style="stroke:#000000; stroke-linecap:butt; stroke-linejoin:round; stroke-width:2; stroke-opacity:0.1; fill:none" points="
  219.38,532.758 2352.76,532.758 
  "/>
<polyline clip-path="url(#clip492)" style="stroke:#000000; stroke-linecap:butt; stroke-linejoin:round; stroke-width:2; stroke-opacity:0.1; fill:none" points="
  219.38,220.456 2352.76,220.456 
  "/>
<polyline clip-path="url(#clip490)" style="stroke:#000000; stroke-linecap:butt; stroke-linejoin:round; stroke-width:4; stroke-opacity:1; fill:none" points="
  219.38,1486.45 219.38,47.2441 
  "/>
<polyline clip-path="url(#clip490)" style="stroke:#000000; stroke-linecap:butt; stroke-linejoin:round; stroke-width:4; stroke-opacity:1; fill:none" points="
  219.38,1469.67 238.278,1469.67 
  "/>
<polyline clip-path="url(#clip490)" style="stroke:#000000; stroke-linecap:butt; stroke-linejoin:round; stroke-width:4; stroke-opacity:1; fill:none" points="
  219.38,1157.36 238.278,1157.36 
  "/>
<polyline clip-path="url(#clip490)" style="stroke:#000000; stroke-linecap:butt; stroke-linejoin:round; stroke-width:4; stroke-opacity:1; fill:none" points="
  219.38,845.061 238.278,845.061 
  "/>
<polyline clip-path="url(#clip490)" style="stroke:#000000; stroke-linecap:butt; stroke-linejoin:round; stroke-width:4; stroke-opacity:1; fill:none" points="
  219.38,532.758 238.278,532.758 
  "/>
<polyline clip-path="url(#clip490)" style="stroke:#000000; stroke-linecap:butt; stroke-linejoin:round; stroke-width:4; stroke-opacity:1; fill:none" points="
  219.38,220.456 238.278,220.456 
  "/>
<path clip-path="url(#clip490)" d="M126.205 1455.46 Q122.593 1455.46 120.765 1459.03 Q118.959 1462.57 118.959 1469.7 Q118.959 1476.81 120.765 1480.37 Q122.593 1483.91 126.205 1483.91 Q129.839 1483.91 131.644 1480.37 Q133.473 1476.81 133.473 1469.7 Q133.473 1462.57 131.644 1459.03 Q129.839 1455.46 126.205 1455.46 M126.205 1451.76 Q132.015 1451.76 135.07 1456.37 Q138.149 1460.95 138.149 1469.7 Q138.149 1478.43 135.07 1483.03 Q132.015 1487.62 126.205 1487.62 Q120.394 1487.62 117.316 1483.03 Q114.26 1478.43 114.26 1469.7 Q114.26 1460.95 117.316 1456.37 Q120.394 1451.76 126.205 1451.76 Z" fill="#000000" fill-rule="evenodd" fill-opacity="1" /><path clip-path="url(#clip490)" d="M146.366 1481.07 L151.251 1481.07 L151.251 1486.95 L146.366 1486.95 L146.366 1481.07 Z" fill="#000000" fill-rule="evenodd" fill-opacity="1" /><path clip-path="url(#clip490)" d="M171.436 1455.46 Q167.825 1455.46 165.996 1459.03 Q164.19 1462.57 164.19 1469.7 Q164.19 1476.81 165.996 1480.37 Q167.825 1483.91 171.436 1483.91 Q175.07 1483.91 176.876 1480.37 Q178.704 1476.81 178.704 1469.7 Q178.704 1462.57 176.876 1459.03 Q175.07 1455.46 171.436 1455.46 M171.436 1451.76 Q177.246 1451.76 180.301 1456.37 Q183.38 1460.95 183.38 1469.7 Q183.38 1478.43 180.301 1483.03 Q177.246 1487.62 171.436 1487.62 Q165.626 1487.62 162.547 1483.03 Q159.491 1478.43 159.491 1469.7 Q159.491 1460.95 162.547 1456.37 Q165.626 1451.76 171.436 1451.76 Z" fill="#000000" fill-rule="evenodd" fill-opacity="1" /><path clip-path="url(#clip490)" d="M127.2 1143.16 Q123.589 1143.16 121.76 1146.73 Q119.955 1150.27 119.955 1157.4 Q119.955 1164.5 121.76 1168.07 Q123.589 1171.61 127.2 1171.61 Q130.834 1171.61 132.64 1168.07 Q134.468 1164.5 134.468 1157.4 Q134.468 1150.27 132.64 1146.73 Q130.834 1143.16 127.2 1143.16 M127.2 1139.46 Q133.01 1139.46 136.066 1144.06 Q139.144 1148.65 139.144 1157.4 Q139.144 1166.12 136.066 1170.73 Q133.01 1175.31 127.2 1175.31 Q121.39 1175.31 118.311 1170.73 Q115.256 1166.12 115.256 1157.4 Q115.256 1148.65 118.311 1144.06 Q121.39 1139.46 127.2 1139.46 Z" fill="#000000" fill-rule="evenodd" fill-opacity="1" /><path clip-path="url(#clip490)" d="M147.362 1168.76 L152.246 1168.76 L152.246 1174.64 L147.362 1174.64 L147.362 1168.76 Z" fill="#000000" fill-rule="evenodd" fill-opacity="1" /><path clip-path="url(#clip490)" d="M162.477 1140.08 L180.834 1140.08 L180.834 1144.02 L166.76 1144.02 L166.76 1152.49 Q167.778 1152.14 168.797 1151.98 Q169.815 1151.8 170.834 1151.8 Q176.621 1151.8 180.001 1154.97 Q183.38 1158.14 183.38 1163.56 Q183.38 1169.13 179.908 1172.24 Q176.436 1175.31 170.116 1175.31 Q167.94 1175.31 165.672 1174.94 Q163.427 1174.57 161.019 1173.83 L161.019 1169.13 Q163.102 1170.27 165.325 1170.82 Q167.547 1171.38 170.024 1171.38 Q174.028 1171.38 176.366 1169.27 Q178.704 1167.17 178.704 1163.56 Q178.704 1159.94 176.366 1157.84 Q174.028 1155.73 170.024 1155.73 Q168.149 1155.73 166.274 1156.15 Q164.422 1156.56 162.477 1157.44 L162.477 1140.08 Z" fill="#000000" fill-rule="evenodd" fill-opacity="1" /><path clip-path="url(#clip490)" d="M117.015 858.406 L124.654 858.406 L124.654 832.04 L116.343 833.707 L116.343 829.447 L124.607 827.781 L129.283 827.781 L129.283 858.406 L136.922 858.406 L136.922 862.341 L117.015 862.341 L117.015 858.406 Z" fill="#000000" fill-rule="evenodd" fill-opacity="1" /><path clip-path="url(#clip490)" d="M146.366 856.461 L151.251 856.461 L151.251 862.341 L146.366 862.341 L146.366 856.461 Z" fill="#000000" fill-rule="evenodd" fill-opacity="1" /><path clip-path="url(#clip490)" d="M171.436 830.859 Q167.825 830.859 165.996 834.424 Q164.19 837.966 164.19 845.095 Q164.19 852.202 165.996 855.767 Q167.825 859.308 171.436 859.308 Q175.07 859.308 176.876 855.767 Q178.704 852.202 178.704 845.095 Q178.704 837.966 176.876 834.424 Q175.07 830.859 171.436 830.859 M171.436 827.156 Q177.246 827.156 180.301 831.762 Q183.38 836.345 183.38 845.095 Q183.38 853.822 180.301 858.429 Q177.246 863.012 171.436 863.012 Q165.626 863.012 162.547 858.429 Q159.491 853.822 159.491 845.095 Q159.491 836.345 162.547 831.762 Q165.626 827.156 171.436 827.156 Z" fill="#000000" fill-rule="evenodd" fill-opacity="1" /><path clip-path="url(#clip490)" d="M118.01 546.103 L125.649 546.103 L125.649 519.738 L117.339 521.404 L117.339 517.145 L125.603 515.478 L130.279 515.478 L130.279 546.103 L137.917 546.103 L137.917 550.038 L118.01 550.038 L118.01 546.103 Z" fill="#000000" fill-rule="evenodd" fill-opacity="1" /><path clip-path="url(#clip490)" d="M147.362 544.159 L152.246 544.159 L152.246 550.038 L147.362 550.038 L147.362 544.159 Z" fill="#000000" fill-rule="evenodd" fill-opacity="1" /><path clip-path="url(#clip490)" d="M162.477 515.478 L180.834 515.478 L180.834 519.414 L166.76 519.414 L166.76 527.886 Q167.778 527.538 168.797 527.376 Q169.815 527.191 170.834 527.191 Q176.621 527.191 180.001 530.363 Q183.38 533.534 183.38 538.95 Q183.38 544.529 179.908 547.631 Q176.436 550.71 170.116 550.71 Q167.94 550.71 165.672 550.339 Q163.427 549.969 161.019 549.228 L161.019 544.529 Q163.102 545.663 165.325 546.219 Q167.547 546.774 170.024 546.774 Q174.028 546.774 176.366 544.668 Q178.704 542.562 178.704 538.95 Q178.704 535.339 176.366 533.233 Q174.028 531.126 170.024 531.126 Q168.149 531.126 166.274 531.543 Q164.422 531.96 162.477 532.839 L162.477 515.478 Z" fill="#000000" fill-rule="evenodd" fill-opacity="1" /><path clip-path="url(#clip490)" d="M120.232 233.801 L136.552 233.801 L136.552 237.736 L114.607 237.736 L114.607 233.801 Q117.269 231.046 121.853 226.417 Q126.459 221.764 127.64 220.421 Q129.885 217.898 130.765 216.162 Q131.667 214.403 131.667 212.713 Q131.667 209.958 129.723 208.222 Q127.802 206.486 124.7 206.486 Q122.501 206.486 120.047 207.25 Q117.617 208.014 114.839 209.565 L114.839 204.843 Q117.663 203.708 120.117 203.13 Q122.57 202.551 124.607 202.551 Q129.978 202.551 133.172 205.236 Q136.367 207.921 136.367 212.412 Q136.367 214.542 135.556 216.463 Q134.769 218.361 132.663 220.954 Q132.084 221.625 128.982 224.843 Q125.88 228.037 120.232 233.801 Z" fill="#000000" fill-rule="evenodd" fill-opacity="1" /><path clip-path="url(#clip490)" d="M146.366 231.856 L151.251 231.856 L151.251 237.736 L146.366 237.736 L146.366 231.856 Z" fill="#000000" fill-rule="evenodd" fill-opacity="1" /><path clip-path="url(#clip490)" d="M171.436 206.255 Q167.825 206.255 165.996 209.819 Q164.19 213.361 164.19 220.491 Q164.19 227.597 165.996 231.162 Q167.825 234.704 171.436 234.704 Q175.07 234.704 176.876 231.162 Q178.704 227.597 178.704 220.491 Q178.704 213.361 176.876 209.819 Q175.07 206.255 171.436 206.255 M171.436 202.551 Q177.246 202.551 180.301 207.157 Q183.38 211.741 183.38 220.491 Q183.38 229.218 180.301 233.824 Q177.246 238.407 171.436 238.407 Q165.626 238.407 162.547 233.824 Q159.491 229.218 159.491 220.491 Q159.491 211.741 162.547 207.157 Q165.626 202.551 171.436 202.551 Z" fill="#000000" fill-rule="evenodd" fill-opacity="1" /><path clip-path="url(#clip490)" d="M20.8447 994.42 Q20.8447 1001.42 26.0645 1005.56 Q31.2844 1009.67 40.2919 1009.67 Q49.2675 1009.67 54.4874 1005.56 Q59.7073 1001.42 59.7073 994.42 Q59.7073 987.418 54.4874 983.344 Q49.2675 979.238 40.2919 979.238 Q31.2844 979.238 26.0645 983.344 Q20.8447 987.418 20.8447 994.42 M63.1448 985.413 L72.4069 976.946 L72.4069 984.712 L64.7999 991.746 Q64.8635 992.797 64.8954 993.37 Q64.9272 993.911 64.9272 994.42 Q64.9272 1004.45 58.2432 1010.46 Q51.5274 1016.45 40.2919 1016.45 Q29.0246 1016.45 22.3406 1010.46 Q15.6248 1004.45 15.6248 994.42 Q15.6248 984.426 22.3406 978.442 Q29.0246 972.458 40.2919 972.458 Q48.5673 972.458 54.4556 975.8 Q60.3439 979.11 63.1448 985.413 Z" fill="#000000" fill-rule="evenodd" fill-opacity="1" /><path clip-path="url(#clip490)" d="M49.9359 963.26 L28.3562 963.26 L28.3562 957.403 L49.7131 957.403 Q54.7739 957.403 57.3202 955.43 Q59.8346 953.457 59.8346 949.51 Q59.8346 944.767 56.8109 942.03 Q53.7872 939.261 48.5673 939.261 L28.3562 939.261 L28.3562 933.405 L64.0042 933.405 L64.0042 939.261 L58.5296 939.261 Q61.7762 941.394 63.3676 944.226 Q64.9272 947.027 64.9272 950.751 Q64.9272 956.894 61.1078 960.077 Q57.2883 963.26 49.9359 963.26 M27.4968 948.523 L27.4968 948.523 Z" fill="#000000" fill-rule="evenodd" fill-opacity="1" /><path clip-path="url(#clip490)" d="M46.0847 905.141 Q46.0847 912.239 47.7079 914.976 Q49.3312 917.713 53.2461 917.713 Q56.3653 917.713 58.2114 915.676 Q60.0256 913.607 60.0256 910.074 Q60.0256 905.205 56.5881 902.276 Q53.1188 899.316 47.3897 899.316 L46.0847 899.316 L46.0847 905.141 M43.6657 893.46 L64.0042 893.46 L64.0042 899.316 L58.5933 899.316 Q61.8398 901.322 63.3994 904.313 Q64.9272 907.305 64.9272 911.634 Q64.9272 917.108 61.8716 920.355 Q58.7843 923.57 53.6281 923.57 Q47.6125 923.57 44.5569 919.559 Q41.5014 915.517 41.5014 907.528 L41.5014 899.316 L40.9285 899.316 Q36.8862 899.316 34.6901 901.99 Q32.4621 904.632 32.4621 909.438 Q32.4621 912.493 33.1941 915.39 Q33.9262 918.286 35.3903 920.96 L29.9795 920.96 Q28.7381 917.745 28.1334 914.721 Q27.4968 911.698 27.4968 908.833 Q27.4968 901.099 31.5072 897.279 Q35.5176 893.46 43.6657 893.46 Z" fill="#000000" fill-rule="evenodd" fill-opacity="1" /><path clip-path="url(#clip490)" d="M42.4881 851.765 L64.0042 851.765 L64.0042 857.621 L42.679 857.621 Q37.6183 857.621 35.1038 859.594 Q32.5894 861.568 32.5894 865.514 Q32.5894 870.257 35.6131 872.994 Q38.6368 875.731 43.8567 875.731 L64.0042 875.731 L64.0042 881.62 L28.3562 881.62 L28.3562 875.731 L33.8944 875.731 Q30.6797 873.631 29.0883 870.798 Q27.4968 867.933 27.4968 864.209 Q27.4968 858.067 31.3163 854.916 Q35.1038 851.765 42.4881 851.765 Z" fill="#000000" fill-rule="evenodd" fill-opacity="1" /><path clip-path="url(#clip490)" d="M18.2347 834.291 L28.3562 834.291 L28.3562 822.228 L32.9077 822.228 L32.9077 834.291 L52.2594 834.291 Q56.6199 834.291 57.8613 833.113 Q59.1026 831.904 59.1026 828.243 L59.1026 822.228 L64.0042 822.228 L64.0042 828.243 Q64.0042 835.023 61.4897 837.601 Q58.9434 840.179 52.2594 840.179 L32.9077 840.179 L32.9077 844.476 L28.3562 844.476 L28.3562 840.179 L18.2347 840.179 L18.2347 834.291 Z" fill="#000000" fill-rule="evenodd" fill-opacity="1" /><path clip-path="url(#clip490)" d="M49.9359 815.13 L28.3562 815.13 L28.3562 809.273 L49.7131 809.273 Q54.7739 809.273 57.3202 807.3 Q59.8346 805.327 59.8346 801.38 Q59.8346 796.637 56.8109 793.9 Q53.7872 791.131 48.5673 791.131 L28.3562 791.131 L28.3562 785.275 L64.0042 785.275 L64.0042 791.131 L58.5296 791.131 Q61.7762 793.264 63.3676 796.096 Q64.9272 798.897 64.9272 802.621 Q64.9272 808.764 61.1078 811.947 Q57.2883 815.13 49.9359 815.13 M27.4968 800.393 L27.4968 800.393 Z" fill="#000000" fill-rule="evenodd" fill-opacity="1" /><path clip-path="url(#clip490)" d="M35.1993 745.457 Q31.2526 743.261 29.3747 740.206 Q27.4968 737.15 27.4968 733.012 Q27.4968 727.442 31.4117 724.419 Q35.2948 721.395 42.4881 721.395 L64.0042 721.395 L64.0042 727.283 L42.679 727.283 Q37.5546 727.283 35.072 729.097 Q32.5894 730.912 32.5894 734.636 Q32.5894 739.187 35.6131 741.829 Q38.6368 744.471 43.8567 744.471 L64.0042 744.471 L64.0042 750.359 L42.679 750.359 Q37.5228 750.359 35.072 752.173 Q32.5894 753.987 32.5894 757.775 Q32.5894 762.263 35.6449 764.904 Q38.6686 767.546 43.8567 767.546 L64.0042 767.546 L64.0042 773.434 L28.3562 773.434 L28.3562 767.546 L33.8944 767.546 Q30.616 765.541 29.0564 762.74 Q27.4968 759.939 27.4968 756.088 Q27.4968 752.205 29.4702 749.499 Q31.4436 746.762 35.1993 745.457 Z" fill="#000000" fill-rule="evenodd" fill-opacity="1" /><path clip-path="url(#clip490)" d="M16.4842 709.459 L16.4842 699.879 L48.8219 687.752 L16.4842 675.562 L16.4842 665.981 L64.0042 665.981 L64.0042 672.252 L22.277 672.252 L54.8694 684.506 L54.8694 690.967 L22.277 703.221 L64.0042 703.221 L64.0042 709.459 L16.4842 709.459 Z" fill="#000000" fill-rule="evenodd" fill-opacity="1" /><path clip-path="url(#clip490)" d="M44.7161 622.981 L47.5806 622.981 L47.5806 649.908 Q53.6281 649.526 56.8109 646.28 Q59.9619 643.001 59.9619 637.177 Q59.9619 633.803 59.1344 630.652 Q58.3069 627.469 56.6518 624.35 L62.1899 624.35 Q63.5267 627.501 64.227 630.811 Q64.9272 634.121 64.9272 637.527 Q64.9272 646.057 59.9619 651.054 Q54.9967 656.019 46.5303 656.019 Q37.7774 656.019 32.6531 651.308 Q27.4968 646.566 27.4968 638.545 Q27.4968 631.352 32.1438 627.182 Q36.7589 622.981 44.7161 622.981 M42.9973 628.837 Q38.1912 628.901 35.3266 631.543 Q32.4621 634.153 32.4621 638.482 Q32.4621 643.383 35.2312 646.343 Q38.0002 649.271 43.0292 649.717 L42.9973 628.837 Z" fill="#000000" fill-rule="evenodd" fill-opacity="1" /><path clip-path="url(#clip490)" d="M18.2347 607.576 L28.3562 607.576 L28.3562 595.513 L32.9077 595.513 L32.9077 607.576 L52.2594 607.576 Q56.6199 607.576 57.8613 606.398 Q59.1026 605.189 59.1026 601.529 L59.1026 595.513 L64.0042 595.513 L64.0042 601.529 Q64.0042 608.308 61.4897 610.886 Q58.9434 613.464 52.2594 613.464 L32.9077 613.464 L32.9077 617.761 L28.3562 617.761 L28.3562 613.464 L18.2347 613.464 L18.2347 607.576 Z" fill="#000000" fill-rule="evenodd" fill-opacity="1" /><path clip-path="url(#clip490)" d="M33.8307 567.154 Q33.2578 568.14 33.0032 569.318 Q32.7167 570.464 32.7167 571.864 Q32.7167 576.83 35.9632 579.503 Q39.1779 582.145 45.2253 582.145 L64.0042 582.145 L64.0042 588.033 L28.3562 588.033 L28.3562 582.145 L33.8944 582.145 Q30.6479 580.299 29.0883 577.339 Q27.4968 574.379 27.4968 570.146 Q27.4968 569.541 27.5923 568.809 Q27.656 568.077 27.8151 567.186 L33.8307 567.154 Z" fill="#000000" fill-rule="evenodd" fill-opacity="1" /><path clip-path="url(#clip490)" d="M28.3562 561.011 L28.3562 555.154 L64.0042 555.154 L64.0042 561.011 L28.3562 561.011 M14.479 561.011 L14.479 555.154 L21.895 555.154 L21.895 561.011 L14.479 561.011 Z" fill="#000000" fill-rule="evenodd" fill-opacity="1" /><path clip-path="url(#clip490)" d="M29.7248 517.247 L35.1993 517.247 Q33.8307 519.729 33.1623 522.244 Q32.4621 524.726 32.4621 527.273 Q32.4621 532.97 36.0905 536.121 Q39.6872 539.272 46.212 539.272 Q52.7369 539.272 56.3653 536.121 Q59.9619 532.97 59.9619 527.273 Q59.9619 524.726 59.2935 522.244 Q58.5933 519.729 57.2247 517.247 L62.6355 517.247 Q63.7814 519.697 64.3543 522.339 Q64.9272 524.949 64.9272 527.909 Q64.9272 535.962 59.8664 540.704 Q54.8057 545.447 46.212 545.447 Q37.491 545.447 32.4939 540.672 Q27.4968 535.866 27.4968 527.527 Q27.4968 524.822 28.0697 522.244 Q28.6108 519.666 29.7248 517.247 Z" fill="#000000" fill-rule="evenodd" fill-opacity="1" /><circle clip-path="url(#clip492)" cx="279.759" cy="1444.45" r="14" fill="#009af9" fill-rule="evenodd" fill-opacity="1" stroke="#000000" stroke-opacity="1" stroke-width="3.2"/>
<circle clip-path="url(#clip492)" cx="293.266" cy="1444.47" r="14" fill="#009af9" fill-rule="evenodd" fill-opacity="1" stroke="#000000" stroke-opacity="1" stroke-width="3.2"/>
<circle clip-path="url(#clip492)" cx="306.774" cy="1444.49" r="14" fill="#009af9" fill-rule="evenodd" fill-opacity="1" stroke="#000000" stroke-opacity="1" stroke-width="3.2"/>
<circle clip-path="url(#clip492)" cx="320.281" cy="1444.53" r="14" fill="#009af9" fill-rule="evenodd" fill-opacity="1" stroke="#000000" stroke-opacity="1" stroke-width="3.2"/>
<circle clip-path="url(#clip492)" cx="333.789" cy="1444.57" r="14" fill="#009af9" fill-rule="evenodd" fill-opacity="1" stroke="#000000" stroke-opacity="1" stroke-width="3.2"/>
<circle clip-path="url(#clip492)" cx="347.296" cy="1444.62" r="14" fill="#009af9" fill-rule="evenodd" fill-opacity="1" stroke="#000000" stroke-opacity="1" stroke-width="3.2"/>
<circle clip-path="url(#clip492)" cx="360.804" cy="1444.68" r="14" fill="#009af9" fill-rule="evenodd" fill-opacity="1" stroke="#000000" stroke-opacity="1" stroke-width="3.2"/>
<circle clip-path="url(#clip492)" cx="374.311" cy="1444.75" r="14" fill="#009af9" fill-rule="evenodd" fill-opacity="1" stroke="#000000" stroke-opacity="1" stroke-width="3.2"/>
<circle clip-path="url(#clip492)" cx="387.819" cy="1444.83" r="14" fill="#009af9" fill-rule="evenodd" fill-opacity="1" stroke="#000000" stroke-opacity="1" stroke-width="3.2"/>
<circle clip-path="url(#clip492)" cx="401.326" cy="1444.91" r="14" fill="#009af9" fill-rule="evenodd" fill-opacity="1" stroke="#000000" stroke-opacity="1" stroke-width="3.2"/>
<circle clip-path="url(#clip492)" cx="414.834" cy="1445" r="14" fill="#009af9" fill-rule="evenodd" fill-opacity="1" stroke="#000000" stroke-opacity="1" stroke-width="3.2"/>
<circle clip-path="url(#clip492)" cx="428.341" cy="1445.09" r="14" fill="#009af9" fill-rule="evenodd" fill-opacity="1" stroke="#000000" stroke-opacity="1" stroke-width="3.2"/>
<circle clip-path="url(#clip492)" cx="441.849" cy="1445.19" r="14" fill="#009af9" fill-rule="evenodd" fill-opacity="1" stroke="#000000" stroke-opacity="1" stroke-width="3.2"/>
<circle clip-path="url(#clip492)" cx="455.356" cy="1445.29" r="14" fill="#009af9" fill-rule="evenodd" fill-opacity="1" stroke="#000000" stroke-opacity="1" stroke-width="3.2"/>
<circle clip-path="url(#clip492)" cx="468.864" cy="1445.38" r="14" fill="#009af9" fill-rule="evenodd" fill-opacity="1" stroke="#000000" stroke-opacity="1" stroke-width="3.2"/>
<circle clip-path="url(#clip492)" cx="482.371" cy="1445.47" r="14" fill="#009af9" fill-rule="evenodd" fill-opacity="1" stroke="#000000" stroke-opacity="1" stroke-width="3.2"/>
<circle clip-path="url(#clip492)" cx="495.879" cy="1445.56" r="14" fill="#009af9" fill-rule="evenodd" fill-opacity="1" stroke="#000000" stroke-opacity="1" stroke-width="3.2"/>
<circle clip-path="url(#clip492)" cx="509.386" cy="1445.63" r="14" fill="#009af9" fill-rule="evenodd" fill-opacity="1" stroke="#000000" stroke-opacity="1" stroke-width="3.2"/>
<circle clip-path="url(#clip492)" cx="522.894" cy="1445.68" r="14" fill="#009af9" fill-rule="evenodd" fill-opacity="1" stroke="#000000" stroke-opacity="1" stroke-width="3.2"/>
<circle clip-path="url(#clip492)" cx="536.401" cy="1445.72" r="14" fill="#009af9" fill-rule="evenodd" fill-opacity="1" stroke="#000000" stroke-opacity="1" stroke-width="3.2"/>
<circle clip-path="url(#clip492)" cx="549.909" cy="1445.72" r="14" fill="#009af9" fill-rule="evenodd" fill-opacity="1" stroke="#000000" stroke-opacity="1" stroke-width="3.2"/>
<circle clip-path="url(#clip492)" cx="563.416" cy="1445.68" r="14" fill="#009af9" fill-rule="evenodd" fill-opacity="1" stroke="#000000" stroke-opacity="1" stroke-width="3.2"/>
<circle clip-path="url(#clip492)" cx="576.924" cy="1445.58" r="14" fill="#009af9" fill-rule="evenodd" fill-opacity="1" stroke="#000000" stroke-opacity="1" stroke-width="3.2"/>
<circle clip-path="url(#clip492)" cx="590.431" cy="1445.43" r="14" fill="#009af9" fill-rule="evenodd" fill-opacity="1" stroke="#000000" stroke-opacity="1" stroke-width="3.2"/>
<circle clip-path="url(#clip492)" cx="603.939" cy="1445.19" r="14" fill="#009af9" fill-rule="evenodd" fill-opacity="1" stroke="#000000" stroke-opacity="1" stroke-width="3.2"/>
<circle clip-path="url(#clip492)" cx="617.446" cy="1444.85" r="14" fill="#009af9" fill-rule="evenodd" fill-opacity="1" stroke="#000000" stroke-opacity="1" stroke-width="3.2"/>
<circle clip-path="url(#clip492)" cx="630.954" cy="1444.38" r="14" fill="#009af9" fill-rule="evenodd" fill-opacity="1" stroke="#000000" stroke-opacity="1" stroke-width="3.2"/>
<circle clip-path="url(#clip492)" cx="644.461" cy="1443.77" r="14" fill="#009af9" fill-rule="evenodd" fill-opacity="1" stroke="#000000" stroke-opacity="1" stroke-width="3.2"/>
<circle clip-path="url(#clip492)" cx="657.969" cy="1442.96" r="14" fill="#009af9" fill-rule="evenodd" fill-opacity="1" stroke="#000000" stroke-opacity="1" stroke-width="3.2"/>
<circle clip-path="url(#clip492)" cx="671.476" cy="1441.92" r="14" fill="#009af9" fill-rule="evenodd" fill-opacity="1" stroke="#000000" stroke-opacity="1" stroke-width="3.2"/>
<circle clip-path="url(#clip492)" cx="684.984" cy="1440.61" r="14" fill="#009af9" fill-rule="evenodd" fill-opacity="1" stroke="#000000" stroke-opacity="1" stroke-width="3.2"/>
<circle clip-path="url(#clip492)" cx="698.491" cy="1438.96" r="14" fill="#009af9" fill-rule="evenodd" fill-opacity="1" stroke="#000000" stroke-opacity="1" stroke-width="3.2"/>
<circle clip-path="url(#clip492)" cx="711.999" cy="1436.92" r="14" fill="#009af9" fill-rule="evenodd" fill-opacity="1" stroke="#000000" stroke-opacity="1" stroke-width="3.2"/>
<circle clip-path="url(#clip492)" cx="725.506" cy="1434.41" r="14" fill="#009af9" fill-rule="evenodd" fill-opacity="1" stroke="#000000" stroke-opacity="1" stroke-width="3.2"/>
<circle clip-path="url(#clip492)" cx="739.014" cy="1431.36" r="14" fill="#009af9" fill-rule="evenodd" fill-opacity="1" stroke="#000000" stroke-opacity="1" stroke-width="3.2"/>
<circle clip-path="url(#clip492)" cx="752.521" cy="1427.69" r="14" fill="#009af9" fill-rule="evenodd" fill-opacity="1" stroke="#000000" stroke-opacity="1" stroke-width="3.2"/>
<circle clip-path="url(#clip492)" cx="766.029" cy="1423.3" r="14" fill="#009af9" fill-rule="evenodd" fill-opacity="1" stroke="#000000" stroke-opacity="1" stroke-width="3.2"/>
<circle clip-path="url(#clip492)" cx="779.536" cy="1418.12" r="14" fill="#009af9" fill-rule="evenodd" fill-opacity="1" stroke="#000000" stroke-opacity="1" stroke-width="3.2"/>
<circle clip-path="url(#clip492)" cx="793.044" cy="1412.11" r="14" fill="#009af9" fill-rule="evenodd" fill-opacity="1" stroke="#000000" stroke-opacity="1" stroke-width="3.2"/>
<circle clip-path="url(#clip492)" cx="806.552" cy="1405.22" r="14" fill="#009af9" fill-rule="evenodd" fill-opacity="1" stroke="#000000" stroke-opacity="1" stroke-width="3.2"/>
<circle clip-path="url(#clip492)" cx="820.059" cy="1397.48" r="14" fill="#009af9" fill-rule="evenodd" fill-opacity="1" stroke="#000000" stroke-opacity="1" stroke-width="3.2"/>
<circle clip-path="url(#clip492)" cx="833.567" cy="1388.99" r="14" fill="#009af9" fill-rule="evenodd" fill-opacity="1" stroke="#000000" stroke-opacity="1" stroke-width="3.2"/>
<circle clip-path="url(#clip492)" cx="847.074" cy="1379.91" r="14" fill="#009af9" fill-rule="evenodd" fill-opacity="1" stroke="#000000" stroke-opacity="1" stroke-width="3.2"/>
<circle clip-path="url(#clip492)" cx="860.582" cy="1370.54" r="14" fill="#009af9" fill-rule="evenodd" fill-opacity="1" stroke="#000000" stroke-opacity="1" stroke-width="3.2"/>
<circle clip-path="url(#clip492)" cx="874.089" cy="1361.26" r="14" fill="#009af9" fill-rule="evenodd" fill-opacity="1" stroke="#000000" stroke-opacity="1" stroke-width="3.2"/>
<circle clip-path="url(#clip492)" cx="887.597" cy="1352.56" r="14" fill="#009af9" fill-rule="evenodd" fill-opacity="1" stroke="#000000" stroke-opacity="1" stroke-width="3.2"/>
<circle clip-path="url(#clip492)" cx="901.104" cy="1345" r="14" fill="#009af9" fill-rule="evenodd" fill-opacity="1" stroke="#000000" stroke-opacity="1" stroke-width="3.2"/>
<circle clip-path="url(#clip492)" cx="914.612" cy="1339.1" r="14" fill="#009af9" fill-rule="evenodd" fill-opacity="1" stroke="#000000" stroke-opacity="1" stroke-width="3.2"/>
<circle clip-path="url(#clip492)" cx="928.119" cy="1335.35" r="14" fill="#009af9" fill-rule="evenodd" fill-opacity="1" stroke="#000000" stroke-opacity="1" stroke-width="3.2"/>
<circle clip-path="url(#clip492)" cx="941.627" cy="1334.07" r="14" fill="#009af9" fill-rule="evenodd" fill-opacity="1" stroke="#000000" stroke-opacity="1" stroke-width="3.2"/>
<circle clip-path="url(#clip492)" cx="955.134" cy="1333.98" r="14" fill="#009af9" fill-rule="evenodd" fill-opacity="1" stroke="#000000" stroke-opacity="1" stroke-width="3.2"/>
<circle clip-path="url(#clip492)" cx="968.642" cy="1333.7" r="14" fill="#009af9" fill-rule="evenodd" fill-opacity="1" stroke="#000000" stroke-opacity="1" stroke-width="3.2"/>
<circle clip-path="url(#clip492)" cx="982.149" cy="1333.25" r="14" fill="#009af9" fill-rule="evenodd" fill-opacity="1" stroke="#000000" stroke-opacity="1" stroke-width="3.2"/>
<circle clip-path="url(#clip492)" cx="995.657" cy="1332.6" r="14" fill="#009af9" fill-rule="evenodd" fill-opacity="1" stroke="#000000" stroke-opacity="1" stroke-width="3.2"/>
<circle clip-path="url(#clip492)" cx="1009.16" cy="1331.77" r="14" fill="#009af9" fill-rule="evenodd" fill-opacity="1" stroke="#000000" stroke-opacity="1" stroke-width="3.2"/>
<circle clip-path="url(#clip492)" cx="1022.67" cy="1330.73" r="14" fill="#009af9" fill-rule="evenodd" fill-opacity="1" stroke="#000000" stroke-opacity="1" stroke-width="3.2"/>
<circle clip-path="url(#clip492)" cx="1036.18" cy="1329.5" r="14" fill="#009af9" fill-rule="evenodd" fill-opacity="1" stroke="#000000" stroke-opacity="1" stroke-width="3.2"/>
<circle clip-path="url(#clip492)" cx="1049.69" cy="1328.04" r="14" fill="#009af9" fill-rule="evenodd" fill-opacity="1" stroke="#000000" stroke-opacity="1" stroke-width="3.2"/>
<circle clip-path="url(#clip492)" cx="1063.19" cy="1326.36" r="14" fill="#009af9" fill-rule="evenodd" fill-opacity="1" stroke="#000000" stroke-opacity="1" stroke-width="3.2"/>
<circle clip-path="url(#clip492)" cx="1076.7" cy="1324.44" r="14" fill="#009af9" fill-rule="evenodd" fill-opacity="1" stroke="#000000" stroke-opacity="1" stroke-width="3.2"/>
<circle clip-path="url(#clip492)" cx="1090.21" cy="1322.26" r="14" fill="#009af9" fill-rule="evenodd" fill-opacity="1" stroke="#000000" stroke-opacity="1" stroke-width="3.2"/>
<circle clip-path="url(#clip492)" cx="1103.72" cy="1319.81" r="14" fill="#009af9" fill-rule="evenodd" fill-opacity="1" stroke="#000000" stroke-opacity="1" stroke-width="3.2"/>
<circle clip-path="url(#clip492)" cx="1117.22" cy="1317.07" r="14" fill="#009af9" fill-rule="evenodd" fill-opacity="1" stroke="#000000" stroke-opacity="1" stroke-width="3.2"/>
<circle clip-path="url(#clip492)" cx="1130.73" cy="1314.01" r="14" fill="#009af9" fill-rule="evenodd" fill-opacity="1" stroke="#000000" stroke-opacity="1" stroke-width="3.2"/>
<circle clip-path="url(#clip492)" cx="1144.24" cy="1310.6" r="14" fill="#009af9" fill-rule="evenodd" fill-opacity="1" stroke="#000000" stroke-opacity="1" stroke-width="3.2"/>
<circle clip-path="url(#clip492)" cx="1157.75" cy="1306.82" r="14" fill="#009af9" fill-rule="evenodd" fill-opacity="1" stroke="#000000" stroke-opacity="1" stroke-width="3.2"/>
<circle clip-path="url(#clip492)" cx="1171.25" cy="1302.62" r="14" fill="#009af9" fill-rule="evenodd" fill-opacity="1" stroke="#000000" stroke-opacity="1" stroke-width="3.2"/>
<circle clip-path="url(#clip492)" cx="1184.76" cy="1297.97" r="14" fill="#009af9" fill-rule="evenodd" fill-opacity="1" stroke="#000000" stroke-opacity="1" stroke-width="3.2"/>
<circle clip-path="url(#clip492)" cx="1198.27" cy="1292.82" r="14" fill="#009af9" fill-rule="evenodd" fill-opacity="1" stroke="#000000" stroke-opacity="1" stroke-width="3.2"/>
<circle clip-path="url(#clip492)" cx="1211.78" cy="1287.1" r="14" fill="#009af9" fill-rule="evenodd" fill-opacity="1" stroke="#000000" stroke-opacity="1" stroke-width="3.2"/>
<circle clip-path="url(#clip492)" cx="1225.28" cy="1280.77" r="14" fill="#009af9" fill-rule="evenodd" fill-opacity="1" stroke="#000000" stroke-opacity="1" stroke-width="3.2"/>
<circle clip-path="url(#clip492)" cx="1238.79" cy="1273.74" r="14" fill="#009af9" fill-rule="evenodd" fill-opacity="1" stroke="#000000" stroke-opacity="1" stroke-width="3.2"/>
<circle clip-path="url(#clip492)" cx="1252.3" cy="1265.93" r="14" fill="#009af9" fill-rule="evenodd" fill-opacity="1" stroke="#000000" stroke-opacity="1" stroke-width="3.2"/>
<circle clip-path="url(#clip492)" cx="1265.81" cy="1257.24" r="14" fill="#009af9" fill-rule="evenodd" fill-opacity="1" stroke="#000000" stroke-opacity="1" stroke-width="3.2"/>
<circle clip-path="url(#clip492)" cx="1279.31" cy="1247.55" r="14" fill="#009af9" fill-rule="evenodd" fill-opacity="1" stroke="#000000" stroke-opacity="1" stroke-width="3.2"/>
<circle clip-path="url(#clip492)" cx="1292.82" cy="1236.72" r="14" fill="#009af9" fill-rule="evenodd" fill-opacity="1" stroke="#000000" stroke-opacity="1" stroke-width="3.2"/>
<circle clip-path="url(#clip492)" cx="1306.33" cy="1224.61" r="14" fill="#009af9" fill-rule="evenodd" fill-opacity="1" stroke="#000000" stroke-opacity="1" stroke-width="3.2"/>
<circle clip-path="url(#clip492)" cx="1319.84" cy="1211.02" r="14" fill="#009af9" fill-rule="evenodd" fill-opacity="1" stroke="#000000" stroke-opacity="1" stroke-width="3.2"/>
<circle clip-path="url(#clip492)" cx="1333.34" cy="1195.75" r="14" fill="#009af9" fill-rule="evenodd" fill-opacity="1" stroke="#000000" stroke-opacity="1" stroke-width="3.2"/>
<circle clip-path="url(#clip492)" cx="1346.85" cy="1178.52" r="14" fill="#009af9" fill-rule="evenodd" fill-opacity="1" stroke="#000000" stroke-opacity="1" stroke-width="3.2"/>
<circle clip-path="url(#clip492)" cx="1360.36" cy="1159.05" r="14" fill="#009af9" fill-rule="evenodd" fill-opacity="1" stroke="#000000" stroke-opacity="1" stroke-width="3.2"/>
<circle clip-path="url(#clip492)" cx="1373.87" cy="1136.97" r="14" fill="#009af9" fill-rule="evenodd" fill-opacity="1" stroke="#000000" stroke-opacity="1" stroke-width="3.2"/>
<circle clip-path="url(#clip492)" cx="1387.37" cy="1111.89" r="14" fill="#009af9" fill-rule="evenodd" fill-opacity="1" stroke="#000000" stroke-opacity="1" stroke-width="3.2"/>
<circle clip-path="url(#clip492)" cx="1400.88" cy="1083.32" r="14" fill="#009af9" fill-rule="evenodd" fill-opacity="1" stroke="#000000" stroke-opacity="1" stroke-width="3.2"/>
<circle clip-path="url(#clip492)" cx="1414.39" cy="1050.7" r="14" fill="#009af9" fill-rule="evenodd" fill-opacity="1" stroke="#000000" stroke-opacity="1" stroke-width="3.2"/>
<circle clip-path="url(#clip492)" cx="1427.9" cy="1013.41" r="14" fill="#009af9" fill-rule="evenodd" fill-opacity="1" stroke="#000000" stroke-opacity="1" stroke-width="3.2"/>
<circle clip-path="url(#clip492)" cx="1441.4" cy="970.738" r="14" fill="#009af9" fill-rule="evenodd" fill-opacity="1" stroke="#000000" stroke-opacity="1" stroke-width="3.2"/>
<circle clip-path="url(#clip492)" cx="1454.91" cy="921.919" r="14" fill="#009af9" fill-rule="evenodd" fill-opacity="1" stroke="#000000" stroke-opacity="1" stroke-width="3.2"/>
<circle clip-path="url(#clip492)" cx="1468.42" cy="866.169" r="14" fill="#009af9" fill-rule="evenodd" fill-opacity="1" stroke="#000000" stroke-opacity="1" stroke-width="3.2"/>
<circle clip-path="url(#clip492)" cx="1481.93" cy="802.762" r="14" fill="#009af9" fill-rule="evenodd" fill-opacity="1" stroke="#000000" stroke-opacity="1" stroke-width="3.2"/>
<circle clip-path="url(#clip492)" cx="1495.43" cy="731.163" r="14" fill="#009af9" fill-rule="evenodd" fill-opacity="1" stroke="#000000" stroke-opacity="1" stroke-width="3.2"/>
<circle clip-path="url(#clip492)" cx="1508.94" cy="651.26" r="14" fill="#009af9" fill-rule="evenodd" fill-opacity="1" stroke="#000000" stroke-opacity="1" stroke-width="3.2"/>
<circle clip-path="url(#clip492)" cx="1522.45" cy="563.783" r="14" fill="#009af9" fill-rule="evenodd" fill-opacity="1" stroke="#000000" stroke-opacity="1" stroke-width="3.2"/>
<circle clip-path="url(#clip492)" cx="1535.96" cy="471.038" r="14" fill="#009af9" fill-rule="evenodd" fill-opacity="1" stroke="#000000" stroke-opacity="1" stroke-width="3.2"/>
<circle clip-path="url(#clip492)" cx="1549.46" cy="377.646" r="14" fill="#009af9" fill-rule="evenodd" fill-opacity="1" stroke="#000000" stroke-opacity="1" stroke-width="3.2"/>
<circle clip-path="url(#clip492)" cx="1562.97" cy="289.224" r="14" fill="#009af9" fill-rule="evenodd" fill-opacity="1" stroke="#000000" stroke-opacity="1" stroke-width="3.2"/>
<circle clip-path="url(#clip492)" cx="1576.48" cy="209.97" r="14" fill="#009af9" fill-rule="evenodd" fill-opacity="1" stroke="#000000" stroke-opacity="1" stroke-width="3.2"/>
<circle clip-path="url(#clip492)" cx="1589.99" cy="145.425" r="14" fill="#009af9" fill-rule="evenodd" fill-opacity="1" stroke="#000000" stroke-opacity="1" stroke-width="3.2"/>
<circle clip-path="url(#clip492)" cx="1603.49" cy="102.862" r="14" fill="#009af9" fill-rule="evenodd" fill-opacity="1" stroke="#000000" stroke-opacity="1" stroke-width="3.2"/>
<circle clip-path="url(#clip492)" cx="1617" cy="87.9763" r="14" fill="#009af9" fill-rule="evenodd" fill-opacity="1" stroke="#000000" stroke-opacity="1" stroke-width="3.2"/>
<circle clip-path="url(#clip492)" cx="1630.51" cy="117.493" r="14" fill="#009af9" fill-rule="evenodd" fill-opacity="1" stroke="#000000" stroke-opacity="1" stroke-width="3.2"/>
<circle clip-path="url(#clip492)" cx="1644.02" cy="199.077" r="14" fill="#009af9" fill-rule="evenodd" fill-opacity="1" stroke="#000000" stroke-opacity="1" stroke-width="3.2"/>
<circle clip-path="url(#clip492)" cx="1657.52" cy="316.014" r="14" fill="#009af9" fill-rule="evenodd" fill-opacity="1" stroke="#000000" stroke-opacity="1" stroke-width="3.2"/>
<circle clip-path="url(#clip492)" cx="1671.03" cy="454.35" r="14" fill="#009af9" fill-rule="evenodd" fill-opacity="1" stroke="#000000" stroke-opacity="1" stroke-width="3.2"/>
<circle clip-path="url(#clip492)" cx="1684.54" cy="599.74" r="14" fill="#009af9" fill-rule="evenodd" fill-opacity="1" stroke="#000000" stroke-opacity="1" stroke-width="3.2"/>
<circle clip-path="url(#clip492)" cx="1698.05" cy="736.941" r="14" fill="#009af9" fill-rule="evenodd" fill-opacity="1" stroke="#000000" stroke-opacity="1" stroke-width="3.2"/>
<circle clip-path="url(#clip492)" cx="1711.55" cy="858.807" r="14" fill="#009af9" fill-rule="evenodd" fill-opacity="1" stroke="#000000" stroke-opacity="1" stroke-width="3.2"/>
<circle clip-path="url(#clip492)" cx="1725.06" cy="963.455" r="14" fill="#009af9" fill-rule="evenodd" fill-opacity="1" stroke="#000000" stroke-opacity="1" stroke-width="3.2"/>
<circle clip-path="url(#clip492)" cx="1738.57" cy="1051.46" r="14" fill="#009af9" fill-rule="evenodd" fill-opacity="1" stroke="#000000" stroke-opacity="1" stroke-width="3.2"/>
<circle clip-path="url(#clip492)" cx="1752.08" cy="1124.51" r="14" fill="#009af9" fill-rule="evenodd" fill-opacity="1" stroke="#000000" stroke-opacity="1" stroke-width="3.2"/>
<circle clip-path="url(#clip492)" cx="1765.58" cy="1184.65" r="14" fill="#009af9" fill-rule="evenodd" fill-opacity="1" stroke="#000000" stroke-opacity="1" stroke-width="3.2"/>
<circle clip-path="url(#clip492)" cx="1779.09" cy="1233.92" r="14" fill="#009af9" fill-rule="evenodd" fill-opacity="1" stroke="#000000" stroke-opacity="1" stroke-width="3.2"/>
<circle clip-path="url(#clip492)" cx="1792.6" cy="1274.16" r="14" fill="#009af9" fill-rule="evenodd" fill-opacity="1" stroke="#000000" stroke-opacity="1" stroke-width="3.2"/>
<circle clip-path="url(#clip492)" cx="1806.11" cy="1306.98" r="14" fill="#009af9" fill-rule="evenodd" fill-opacity="1" stroke="#000000" stroke-opacity="1" stroke-width="3.2"/>
<circle clip-path="url(#clip492)" cx="1819.61" cy="1333.71" r="14" fill="#009af9" fill-rule="evenodd" fill-opacity="1" stroke="#000000" stroke-opacity="1" stroke-width="3.2"/>
<circle clip-path="url(#clip492)" cx="1833.12" cy="1355.48" r="14" fill="#009af9" fill-rule="evenodd" fill-opacity="1" stroke="#000000" stroke-opacity="1" stroke-width="3.2"/>
<circle clip-path="url(#clip492)" cx="1846.63" cy="1373.2" r="14" fill="#009af9" fill-rule="evenodd" fill-opacity="1" stroke="#000000" stroke-opacity="1" stroke-width="3.2"/>
<circle clip-path="url(#clip492)" cx="1860.14" cy="1387.61" r="14" fill="#009af9" fill-rule="evenodd" fill-opacity="1" stroke="#000000" stroke-opacity="1" stroke-width="3.2"/>
<circle clip-path="url(#clip492)" cx="1873.64" cy="1399.32" r="14" fill="#009af9" fill-rule="evenodd" fill-opacity="1" stroke="#000000" stroke-opacity="1" stroke-width="3.2"/>
<circle clip-path="url(#clip492)" cx="1887.15" cy="1408.83" r="14" fill="#009af9" fill-rule="evenodd" fill-opacity="1" stroke="#000000" stroke-opacity="1" stroke-width="3.2"/>
<circle clip-path="url(#clip492)" cx="1900.66" cy="1416.54" r="14" fill="#009af9" fill-rule="evenodd" fill-opacity="1" stroke="#000000" stroke-opacity="1" stroke-width="3.2"/>
<circle clip-path="url(#clip492)" cx="1914.17" cy="1422.78" r="14" fill="#009af9" fill-rule="evenodd" fill-opacity="1" stroke="#000000" stroke-opacity="1" stroke-width="3.2"/>
<circle clip-path="url(#clip492)" cx="1927.67" cy="1427.81" r="14" fill="#009af9" fill-rule="evenodd" fill-opacity="1" stroke="#000000" stroke-opacity="1" stroke-width="3.2"/>
<circle clip-path="url(#clip492)" cx="1941.18" cy="1431.86" r="14" fill="#009af9" fill-rule="evenodd" fill-opacity="1" stroke="#000000" stroke-opacity="1" stroke-width="3.2"/>
<circle clip-path="url(#clip492)" cx="1954.69" cy="1435.1" r="14" fill="#009af9" fill-rule="evenodd" fill-opacity="1" stroke="#000000" stroke-opacity="1" stroke-width="3.2"/>
<circle clip-path="url(#clip492)" cx="1968.2" cy="1437.67" r="14" fill="#009af9" fill-rule="evenodd" fill-opacity="1" stroke="#000000" stroke-opacity="1" stroke-width="3.2"/>
<circle clip-path="url(#clip492)" cx="1981.7" cy="1439.71" r="14" fill="#009af9" fill-rule="evenodd" fill-opacity="1" stroke="#000000" stroke-opacity="1" stroke-width="3.2"/>
<circle clip-path="url(#clip492)" cx="1995.21" cy="1441.3" r="14" fill="#009af9" fill-rule="evenodd" fill-opacity="1" stroke="#000000" stroke-opacity="1" stroke-width="3.2"/>
<circle clip-path="url(#clip492)" cx="2008.72" cy="1442.53" r="14" fill="#009af9" fill-rule="evenodd" fill-opacity="1" stroke="#000000" stroke-opacity="1" stroke-width="3.2"/>
<circle clip-path="url(#clip492)" cx="2022.23" cy="1443.47" r="14" fill="#009af9" fill-rule="evenodd" fill-opacity="1" stroke="#000000" stroke-opacity="1" stroke-width="3.2"/>
<circle clip-path="url(#clip492)" cx="2035.73" cy="1444.17" r="14" fill="#009af9" fill-rule="evenodd" fill-opacity="1" stroke="#000000" stroke-opacity="1" stroke-width="3.2"/>
<circle clip-path="url(#clip492)" cx="2049.24" cy="1444.67" r="14" fill="#009af9" fill-rule="evenodd" fill-opacity="1" stroke="#000000" stroke-opacity="1" stroke-width="3.2"/>
<circle clip-path="url(#clip492)" cx="2062.75" cy="1445.02" r="14" fill="#009af9" fill-rule="evenodd" fill-opacity="1" stroke="#000000" stroke-opacity="1" stroke-width="3.2"/>
<circle clip-path="url(#clip492)" cx="2076.26" cy="1445.25" r="14" fill="#009af9" fill-rule="evenodd" fill-opacity="1" stroke="#000000" stroke-opacity="1" stroke-width="3.2"/>
<circle clip-path="url(#clip492)" cx="2089.76" cy="1445.38" r="14" fill="#009af9" fill-rule="evenodd" fill-opacity="1" stroke="#000000" stroke-opacity="1" stroke-width="3.2"/>
<circle clip-path="url(#clip492)" cx="2103.27" cy="1445.43" r="14" fill="#009af9" fill-rule="evenodd" fill-opacity="1" stroke="#000000" stroke-opacity="1" stroke-width="3.2"/>
<circle clip-path="url(#clip492)" cx="2116.78" cy="1445.43" r="14" fill="#009af9" fill-rule="evenodd" fill-opacity="1" stroke="#000000" stroke-opacity="1" stroke-width="3.2"/>
<circle clip-path="url(#clip492)" cx="2130.29" cy="1445.38" r="14" fill="#009af9" fill-rule="evenodd" fill-opacity="1" stroke="#000000" stroke-opacity="1" stroke-width="3.2"/>
<circle clip-path="url(#clip492)" cx="2143.79" cy="1445.31" r="14" fill="#009af9" fill-rule="evenodd" fill-opacity="1" stroke="#000000" stroke-opacity="1" stroke-width="3.2"/>
<circle clip-path="url(#clip492)" cx="2157.3" cy="1445.21" r="14" fill="#009af9" fill-rule="evenodd" fill-opacity="1" stroke="#000000" stroke-opacity="1" stroke-width="3.2"/>
<circle clip-path="url(#clip492)" cx="2170.81" cy="1445.1" r="14" fill="#009af9" fill-rule="evenodd" fill-opacity="1" stroke="#000000" stroke-opacity="1" stroke-width="3.2"/>
<circle clip-path="url(#clip492)" cx="2184.32" cy="1444.99" r="14" fill="#009af9" fill-rule="evenodd" fill-opacity="1" stroke="#000000" stroke-opacity="1" stroke-width="3.2"/>
<circle clip-path="url(#clip492)" cx="2197.82" cy="1444.88" r="14" fill="#009af9" fill-rule="evenodd" fill-opacity="1" stroke="#000000" stroke-opacity="1" stroke-width="3.2"/>
<circle clip-path="url(#clip492)" cx="2211.33" cy="1444.78" r="14" fill="#009af9" fill-rule="evenodd" fill-opacity="1" stroke="#000000" stroke-opacity="1" stroke-width="3.2"/>
<circle clip-path="url(#clip492)" cx="2224.84" cy="1444.68" r="14" fill="#009af9" fill-rule="evenodd" fill-opacity="1" stroke="#000000" stroke-opacity="1" stroke-width="3.2"/>
<circle clip-path="url(#clip492)" cx="2238.35" cy="1444.6" r="14" fill="#009af9" fill-rule="evenodd" fill-opacity="1" stroke="#000000" stroke-opacity="1" stroke-width="3.2"/>
<circle clip-path="url(#clip492)" cx="2251.85" cy="1444.54" r="14" fill="#009af9" fill-rule="evenodd" fill-opacity="1" stroke="#000000" stroke-opacity="1" stroke-width="3.2"/>
<circle clip-path="url(#clip492)" cx="2265.36" cy="1444.49" r="14" fill="#009af9" fill-rule="evenodd" fill-opacity="1" stroke="#000000" stroke-opacity="1" stroke-width="3.2"/>
<circle clip-path="url(#clip492)" cx="2278.87" cy="1444.46" r="14" fill="#009af9" fill-rule="evenodd" fill-opacity="1" stroke="#000000" stroke-opacity="1" stroke-width="3.2"/>
<circle clip-path="url(#clip492)" cx="2292.38" cy="1444.45" r="14" fill="#009af9" fill-rule="evenodd" fill-opacity="1" stroke="#000000" stroke-opacity="1" stroke-width="3.2"/>
<circle clip-path="url(#clip492)" cx="279.759" cy="1444.18" r="14" fill="#e26f46" fill-rule="evenodd" fill-opacity="1" stroke="#000000" stroke-opacity="1" stroke-width="3.2"/>
<circle clip-path="url(#clip492)" cx="293.266" cy="1444.19" r="14" fill="#e26f46" fill-rule="evenodd" fill-opacity="1" stroke="#000000" stroke-opacity="1" stroke-width="3.2"/>
<circle clip-path="url(#clip492)" cx="306.774" cy="1444.22" r="14" fill="#e26f46" fill-rule="evenodd" fill-opacity="1" stroke="#000000" stroke-opacity="1" stroke-width="3.2"/>
<circle clip-path="url(#clip492)" cx="320.281" cy="1444.25" r="14" fill="#e26f46" fill-rule="evenodd" fill-opacity="1" stroke="#000000" stroke-opacity="1" stroke-width="3.2"/>
<circle clip-path="url(#clip492)" cx="333.789" cy="1444.3" r="14" fill="#e26f46" fill-rule="evenodd" fill-opacity="1" stroke="#000000" stroke-opacity="1" stroke-width="3.2"/>
<circle clip-path="url(#clip492)" cx="347.296" cy="1444.35" r="14" fill="#e26f46" fill-rule="evenodd" fill-opacity="1" stroke="#000000" stroke-opacity="1" stroke-width="3.2"/>
<circle clip-path="url(#clip492)" cx="360.804" cy="1444.42" r="14" fill="#e26f46" fill-rule="evenodd" fill-opacity="1" stroke="#000000" stroke-opacity="1" stroke-width="3.2"/>
<circle clip-path="url(#clip492)" cx="374.311" cy="1444.49" r="14" fill="#e26f46" fill-rule="evenodd" fill-opacity="1" stroke="#000000" stroke-opacity="1" stroke-width="3.2"/>
<circle clip-path="url(#clip492)" cx="387.819" cy="1444.57" r="14" fill="#e26f46" fill-rule="evenodd" fill-opacity="1" stroke="#000000" stroke-opacity="1" stroke-width="3.2"/>
<circle clip-path="url(#clip492)" cx="401.326" cy="1444.66" r="14" fill="#e26f46" fill-rule="evenodd" fill-opacity="1" stroke="#000000" stroke-opacity="1" stroke-width="3.2"/>
<circle clip-path="url(#clip492)" cx="414.834" cy="1444.75" r="14" fill="#e26f46" fill-rule="evenodd" fill-opacity="1" stroke="#000000" stroke-opacity="1" stroke-width="3.2"/>
<circle clip-path="url(#clip492)" cx="428.341" cy="1444.85" r="14" fill="#e26f46" fill-rule="evenodd" fill-opacity="1" stroke="#000000" stroke-opacity="1" stroke-width="3.2"/>
<circle clip-path="url(#clip492)" cx="441.849" cy="1444.96" r="14" fill="#e26f46" fill-rule="evenodd" fill-opacity="1" stroke="#000000" stroke-opacity="1" stroke-width="3.2"/>
<circle clip-path="url(#clip492)" cx="455.356" cy="1445.06" r="14" fill="#e26f46" fill-rule="evenodd" fill-opacity="1" stroke="#000000" stroke-opacity="1" stroke-width="3.2"/>
<circle clip-path="url(#clip492)" cx="468.864" cy="1445.17" r="14" fill="#e26f46" fill-rule="evenodd" fill-opacity="1" stroke="#000000" stroke-opacity="1" stroke-width="3.2"/>
<circle clip-path="url(#clip492)" cx="482.371" cy="1445.27" r="14" fill="#e26f46" fill-rule="evenodd" fill-opacity="1" stroke="#000000" stroke-opacity="1" stroke-width="3.2"/>
<circle clip-path="url(#clip492)" cx="495.879" cy="1445.37" r="14" fill="#e26f46" fill-rule="evenodd" fill-opacity="1" stroke="#000000" stroke-opacity="1" stroke-width="3.2"/>
<circle clip-path="url(#clip492)" cx="509.386" cy="1445.45" r="14" fill="#e26f46" fill-rule="evenodd" fill-opacity="1" stroke="#000000" stroke-opacity="1" stroke-width="3.2"/>
<circle clip-path="url(#clip492)" cx="522.894" cy="1445.52" r="14" fill="#e26f46" fill-rule="evenodd" fill-opacity="1" stroke="#000000" stroke-opacity="1" stroke-width="3.2"/>
<circle clip-path="url(#clip492)" cx="536.401" cy="1445.57" r="14" fill="#e26f46" fill-rule="evenodd" fill-opacity="1" stroke="#000000" stroke-opacity="1" stroke-width="3.2"/>
<circle clip-path="url(#clip492)" cx="549.909" cy="1445.59" r="14" fill="#e26f46" fill-rule="evenodd" fill-opacity="1" stroke="#000000" stroke-opacity="1" stroke-width="3.2"/>
<circle clip-path="url(#clip492)" cx="563.416" cy="1445.57" r="14" fill="#e26f46" fill-rule="evenodd" fill-opacity="1" stroke="#000000" stroke-opacity="1" stroke-width="3.2"/>
<circle clip-path="url(#clip492)" cx="576.924" cy="1445.5" r="14" fill="#e26f46" fill-rule="evenodd" fill-opacity="1" stroke="#000000" stroke-opacity="1" stroke-width="3.2"/>
<circle clip-path="url(#clip492)" cx="590.431" cy="1445.37" r="14" fill="#e26f46" fill-rule="evenodd" fill-opacity="1" stroke="#000000" stroke-opacity="1" stroke-width="3.2"/>
<circle clip-path="url(#clip492)" cx="603.939" cy="1445.16" r="14" fill="#e26f46" fill-rule="evenodd" fill-opacity="1" stroke="#000000" stroke-opacity="1" stroke-width="3.2"/>
<circle clip-path="url(#clip492)" cx="617.446" cy="1444.85" r="14" fill="#e26f46" fill-rule="evenodd" fill-opacity="1" stroke="#000000" stroke-opacity="1" stroke-width="3.2"/>
<circle clip-path="url(#clip492)" cx="630.954" cy="1444.41" r="14" fill="#e26f46" fill-rule="evenodd" fill-opacity="1" stroke="#000000" stroke-opacity="1" stroke-width="3.2"/>
<circle clip-path="url(#clip492)" cx="644.461" cy="1443.82" r="14" fill="#e26f46" fill-rule="evenodd" fill-opacity="1" stroke="#000000" stroke-opacity="1" stroke-width="3.2"/>
<circle clip-path="url(#clip492)" cx="657.969" cy="1443.05" r="14" fill="#e26f46" fill-rule="evenodd" fill-opacity="1" stroke="#000000" stroke-opacity="1" stroke-width="3.2"/>
<circle clip-path="url(#clip492)" cx="671.476" cy="1442.05" r="14" fill="#e26f46" fill-rule="evenodd" fill-opacity="1" stroke="#000000" stroke-opacity="1" stroke-width="3.2"/>
<circle clip-path="url(#clip492)" cx="684.984" cy="1440.76" r="14" fill="#e26f46" fill-rule="evenodd" fill-opacity="1" stroke="#000000" stroke-opacity="1" stroke-width="3.2"/>
<circle clip-path="url(#clip492)" cx="698.491" cy="1439.15" r="14" fill="#e26f46" fill-rule="evenodd" fill-opacity="1" stroke="#000000" stroke-opacity="1" stroke-width="3.2"/>
<circle clip-path="url(#clip492)" cx="711.999" cy="1437.13" r="14" fill="#e26f46" fill-rule="evenodd" fill-opacity="1" stroke="#000000" stroke-opacity="1" stroke-width="3.2"/>
<circle clip-path="url(#clip492)" cx="725.506" cy="1434.64" r="14" fill="#e26f46" fill-rule="evenodd" fill-opacity="1" stroke="#000000" stroke-opacity="1" stroke-width="3.2"/>
<circle clip-path="url(#clip492)" cx="739.014" cy="1431.59" r="14" fill="#e26f46" fill-rule="evenodd" fill-opacity="1" stroke="#000000" stroke-opacity="1" stroke-width="3.2"/>
<circle clip-path="url(#clip492)" cx="752.521" cy="1427.9" r="14" fill="#e26f46" fill-rule="evenodd" fill-opacity="1" stroke="#000000" stroke-opacity="1" stroke-width="3.2"/>
<circle clip-path="url(#clip492)" cx="766.029" cy="1423.47" r="14" fill="#e26f46" fill-rule="evenodd" fill-opacity="1" stroke="#000000" stroke-opacity="1" stroke-width="3.2"/>
<circle clip-path="url(#clip492)" cx="779.536" cy="1418.23" r="14" fill="#e26f46" fill-rule="evenodd" fill-opacity="1" stroke="#000000" stroke-opacity="1" stroke-width="3.2"/>
<circle clip-path="url(#clip492)" cx="793.044" cy="1412.1" r="14" fill="#e26f46" fill-rule="evenodd" fill-opacity="1" stroke="#000000" stroke-opacity="1" stroke-width="3.2"/>
<circle clip-path="url(#clip492)" cx="806.552" cy="1405.05" r="14" fill="#e26f46" fill-rule="evenodd" fill-opacity="1" stroke="#000000" stroke-opacity="1" stroke-width="3.2"/>
<circle clip-path="url(#clip492)" cx="820.059" cy="1397.09" r="14" fill="#e26f46" fill-rule="evenodd" fill-opacity="1" stroke="#000000" stroke-opacity="1" stroke-width="3.2"/>
<circle clip-path="url(#clip492)" cx="833.567" cy="1388.32" r="14" fill="#e26f46" fill-rule="evenodd" fill-opacity="1" stroke="#000000" stroke-opacity="1" stroke-width="3.2"/>
<circle clip-path="url(#clip492)" cx="847.074" cy="1378.91" r="14" fill="#e26f46" fill-rule="evenodd" fill-opacity="1" stroke="#000000" stroke-opacity="1" stroke-width="3.2"/>
<circle clip-path="url(#clip492)" cx="860.582" cy="1369.15" r="14" fill="#e26f46" fill-rule="evenodd" fill-opacity="1" stroke="#000000" stroke-opacity="1" stroke-width="3.2"/>
<circle clip-path="url(#clip492)" cx="874.089" cy="1359.45" r="14" fill="#e26f46" fill-rule="evenodd" fill-opacity="1" stroke="#000000" stroke-opacity="1" stroke-width="3.2"/>
<circle clip-path="url(#clip492)" cx="887.597" cy="1350.34" r="14" fill="#e26f46" fill-rule="evenodd" fill-opacity="1" stroke="#000000" stroke-opacity="1" stroke-width="3.2"/>
<circle clip-path="url(#clip492)" cx="901.104" cy="1342.39" r="14" fill="#e26f46" fill-rule="evenodd" fill-opacity="1" stroke="#000000" stroke-opacity="1" stroke-width="3.2"/>
<circle clip-path="url(#clip492)" cx="914.612" cy="1336.18" r="14" fill="#e26f46" fill-rule="evenodd" fill-opacity="1" stroke="#000000" stroke-opacity="1" stroke-width="3.2"/>
<circle clip-path="url(#clip492)" cx="928.119" cy="1332.22" r="14" fill="#e26f46" fill-rule="evenodd" fill-opacity="1" stroke="#000000" stroke-opacity="1" stroke-width="3.2"/>
<circle clip-path="url(#clip492)" cx="941.627" cy="1330.86" r="14" fill="#e26f46" fill-rule="evenodd" fill-opacity="1" stroke="#000000" stroke-opacity="1" stroke-width="3.2"/>
<circle clip-path="url(#clip492)" cx="955.134" cy="1330.77" r="14" fill="#e26f46" fill-rule="evenodd" fill-opacity="1" stroke="#000000" stroke-opacity="1" stroke-width="3.2"/>
<circle clip-path="url(#clip492)" cx="968.642" cy="1330.5" r="14" fill="#e26f46" fill-rule="evenodd" fill-opacity="1" stroke="#000000" stroke-opacity="1" stroke-width="3.2"/>
<circle clip-path="url(#clip492)" cx="982.149" cy="1330.04" r="14" fill="#e26f46" fill-rule="evenodd" fill-opacity="1" stroke="#000000" stroke-opacity="1" stroke-width="3.2"/>
<circle clip-path="url(#clip492)" cx="995.657" cy="1329.39" r="14" fill="#e26f46" fill-rule="evenodd" fill-opacity="1" stroke="#000000" stroke-opacity="1" stroke-width="3.2"/>
<circle clip-path="url(#clip492)" cx="1009.16" cy="1328.55" r="14" fill="#e26f46" fill-rule="evenodd" fill-opacity="1" stroke="#000000" stroke-opacity="1" stroke-width="3.2"/>
<circle clip-path="url(#clip492)" cx="1022.67" cy="1327.51" r="14" fill="#e26f46" fill-rule="evenodd" fill-opacity="1" stroke="#000000" stroke-opacity="1" stroke-width="3.2"/>
<circle clip-path="url(#clip492)" cx="1036.18" cy="1326.26" r="14" fill="#e26f46" fill-rule="evenodd" fill-opacity="1" stroke="#000000" stroke-opacity="1" stroke-width="3.2"/>
<circle clip-path="url(#clip492)" cx="1049.69" cy="1324.79" r="14" fill="#e26f46" fill-rule="evenodd" fill-opacity="1" stroke="#000000" stroke-opacity="1" stroke-width="3.2"/>
<circle clip-path="url(#clip492)" cx="1063.19" cy="1323.1" r="14" fill="#e26f46" fill-rule="evenodd" fill-opacity="1" stroke="#000000" stroke-opacity="1" stroke-width="3.2"/>
<circle clip-path="url(#clip492)" cx="1076.7" cy="1321.17" r="14" fill="#e26f46" fill-rule="evenodd" fill-opacity="1" stroke="#000000" stroke-opacity="1" stroke-width="3.2"/>
<circle clip-path="url(#clip492)" cx="1090.21" cy="1318.98" r="14" fill="#e26f46" fill-rule="evenodd" fill-opacity="1" stroke="#000000" stroke-opacity="1" stroke-width="3.2"/>
<circle clip-path="url(#clip492)" cx="1103.72" cy="1316.53" r="14" fill="#e26f46" fill-rule="evenodd" fill-opacity="1" stroke="#000000" stroke-opacity="1" stroke-width="3.2"/>
<circle clip-path="url(#clip492)" cx="1117.22" cy="1313.77" r="14" fill="#e26f46" fill-rule="evenodd" fill-opacity="1" stroke="#000000" stroke-opacity="1" stroke-width="3.2"/>
<circle clip-path="url(#clip492)" cx="1130.73" cy="1310.71" r="14" fill="#e26f46" fill-rule="evenodd" fill-opacity="1" stroke="#000000" stroke-opacity="1" stroke-width="3.2"/>
<circle clip-path="url(#clip492)" cx="1144.24" cy="1307.3" r="14" fill="#e26f46" fill-rule="evenodd" fill-opacity="1" stroke="#000000" stroke-opacity="1" stroke-width="3.2"/>
<circle clip-path="url(#clip492)" cx="1157.75" cy="1303.51" r="14" fill="#e26f46" fill-rule="evenodd" fill-opacity="1" stroke="#000000" stroke-opacity="1" stroke-width="3.2"/>
<circle clip-path="url(#clip492)" cx="1171.25" cy="1299.32" r="14" fill="#e26f46" fill-rule="evenodd" fill-opacity="1" stroke="#000000" stroke-opacity="1" stroke-width="3.2"/>
<circle clip-path="url(#clip492)" cx="1184.76" cy="1294.68" r="14" fill="#e26f46" fill-rule="evenodd" fill-opacity="1" stroke="#000000" stroke-opacity="1" stroke-width="3.2"/>
<circle clip-path="url(#clip492)" cx="1198.27" cy="1289.55" r="14" fill="#e26f46" fill-rule="evenodd" fill-opacity="1" stroke="#000000" stroke-opacity="1" stroke-width="3.2"/>
<circle clip-path="url(#clip492)" cx="1211.78" cy="1283.87" r="14" fill="#e26f46" fill-rule="evenodd" fill-opacity="1" stroke="#000000" stroke-opacity="1" stroke-width="3.2"/>
<circle clip-path="url(#clip492)" cx="1225.28" cy="1277.59" r="14" fill="#e26f46" fill-rule="evenodd" fill-opacity="1" stroke="#000000" stroke-opacity="1" stroke-width="3.2"/>
<circle clip-path="url(#clip492)" cx="1238.79" cy="1270.63" r="14" fill="#e26f46" fill-rule="evenodd" fill-opacity="1" stroke="#000000" stroke-opacity="1" stroke-width="3.2"/>
<circle clip-path="url(#clip492)" cx="1252.3" cy="1262.91" r="14" fill="#e26f46" fill-rule="evenodd" fill-opacity="1" stroke="#000000" stroke-opacity="1" stroke-width="3.2"/>
<circle clip-path="url(#clip492)" cx="1265.81" cy="1254.34" r="14" fill="#e26f46" fill-rule="evenodd" fill-opacity="1" stroke="#000000" stroke-opacity="1" stroke-width="3.2"/>
<circle clip-path="url(#clip492)" cx="1279.31" cy="1244.81" r="14" fill="#e26f46" fill-rule="evenodd" fill-opacity="1" stroke="#000000" stroke-opacity="1" stroke-width="3.2"/>
<circle clip-path="url(#clip492)" cx="1292.82" cy="1234.2" r="14" fill="#e26f46" fill-rule="evenodd" fill-opacity="1" stroke="#000000" stroke-opacity="1" stroke-width="3.2"/>
<circle clip-path="url(#clip492)" cx="1306.33" cy="1222.36" r="14" fill="#e26f46" fill-rule="evenodd" fill-opacity="1" stroke="#000000" stroke-opacity="1" stroke-width="3.2"/>
<circle clip-path="url(#clip492)" cx="1319.84" cy="1209.13" r="14" fill="#e26f46" fill-rule="evenodd" fill-opacity="1" stroke="#000000" stroke-opacity="1" stroke-width="3.2"/>
<circle clip-path="url(#clip492)" cx="1333.34" cy="1194.3" r="14" fill="#e26f46" fill-rule="evenodd" fill-opacity="1" stroke="#000000" stroke-opacity="1" stroke-width="3.2"/>
<circle clip-path="url(#clip492)" cx="1346.85" cy="1177.65" r="14" fill="#e26f46" fill-rule="evenodd" fill-opacity="1" stroke="#000000" stroke-opacity="1" stroke-width="3.2"/>
<circle clip-path="url(#clip492)" cx="1360.36" cy="1158.92" r="14" fill="#e26f46" fill-rule="evenodd" fill-opacity="1" stroke="#000000" stroke-opacity="1" stroke-width="3.2"/>
<circle clip-path="url(#clip492)" cx="1373.87" cy="1137.81" r="14" fill="#e26f46" fill-rule="evenodd" fill-opacity="1" stroke="#000000" stroke-opacity="1" stroke-width="3.2"/>
<circle clip-path="url(#clip492)" cx="1387.37" cy="1113.94" r="14" fill="#e26f46" fill-rule="evenodd" fill-opacity="1" stroke="#000000" stroke-opacity="1" stroke-width="3.2"/>
<circle clip-path="url(#clip492)" cx="1400.88" cy="1086.94" r="14" fill="#e26f46" fill-rule="evenodd" fill-opacity="1" stroke="#000000" stroke-opacity="1" stroke-width="3.2"/>
<circle clip-path="url(#clip492)" cx="1414.39" cy="1056.33" r="14" fill="#e26f46" fill-rule="evenodd" fill-opacity="1" stroke="#000000" stroke-opacity="1" stroke-width="3.2"/>
<circle clip-path="url(#clip492)" cx="1427.9" cy="1021.61" r="14" fill="#e26f46" fill-rule="evenodd" fill-opacity="1" stroke="#000000" stroke-opacity="1" stroke-width="3.2"/>
<circle clip-path="url(#clip492)" cx="1441.4" cy="982.241" r="14" fill="#e26f46" fill-rule="evenodd" fill-opacity="1" stroke="#000000" stroke-opacity="1" stroke-width="3.2"/>
<circle clip-path="url(#clip492)" cx="1454.91" cy="937.658" r="14" fill="#e26f46" fill-rule="evenodd" fill-opacity="1" stroke="#000000" stroke-opacity="1" stroke-width="3.2"/>
<circle clip-path="url(#clip492)" cx="1468.42" cy="887.33" r="14" fill="#e26f46" fill-rule="evenodd" fill-opacity="1" stroke="#000000" stroke-opacity="1" stroke-width="3.2"/>
<circle clip-path="url(#clip492)" cx="1481.93" cy="830.825" r="14" fill="#e26f46" fill-rule="evenodd" fill-opacity="1" stroke="#000000" stroke-opacity="1" stroke-width="3.2"/>
<circle clip-path="url(#clip492)" cx="1495.43" cy="767.932" r="14" fill="#e26f46" fill-rule="evenodd" fill-opacity="1" stroke="#000000" stroke-opacity="1" stroke-width="3.2"/>
<circle clip-path="url(#clip492)" cx="1508.94" cy="698.826" r="14" fill="#e26f46" fill-rule="evenodd" fill-opacity="1" stroke="#000000" stroke-opacity="1" stroke-width="3.2"/>
<circle clip-path="url(#clip492)" cx="1522.45" cy="624.294" r="14" fill="#e26f46" fill-rule="evenodd" fill-opacity="1" stroke="#000000" stroke-opacity="1" stroke-width="3.2"/>
<circle clip-path="url(#clip492)" cx="1535.96" cy="545.992" r="14" fill="#e26f46" fill-rule="evenodd" fill-opacity="1" stroke="#000000" stroke-opacity="1" stroke-width="3.2"/>
<circle clip-path="url(#clip492)" cx="1549.46" cy="466.692" r="14" fill="#e26f46" fill-rule="evenodd" fill-opacity="1" stroke="#000000" stroke-opacity="1" stroke-width="3.2"/>
<circle clip-path="url(#clip492)" cx="1562.97" cy="390.401" r="14" fill="#e26f46" fill-rule="evenodd" fill-opacity="1" stroke="#000000" stroke-opacity="1" stroke-width="3.2"/>
<circle clip-path="url(#clip492)" cx="1576.48" cy="322.233" r="14" fill="#e26f46" fill-rule="evenodd" fill-opacity="1" stroke="#000000" stroke-opacity="1" stroke-width="3.2"/>
<circle clip-path="url(#clip492)" cx="1589.99" cy="267.873" r="14" fill="#e26f46" fill-rule="evenodd" fill-opacity="1" stroke="#000000" stroke-opacity="1" stroke-width="3.2"/>
<circle clip-path="url(#clip492)" cx="1603.49" cy="232.663" r="14" fill="#e26f46" fill-rule="evenodd" fill-opacity="1" stroke="#000000" stroke-opacity="1" stroke-width="3.2"/>
<circle clip-path="url(#clip492)" cx="1617" cy="220.456" r="14" fill="#e26f46" fill-rule="evenodd" fill-opacity="1" stroke="#000000" stroke-opacity="1" stroke-width="3.2"/>
<circle clip-path="url(#clip492)" cx="1630.51" cy="244.718" r="14" fill="#e26f46" fill-rule="evenodd" fill-opacity="1" stroke="#000000" stroke-opacity="1" stroke-width="3.2"/>
<circle clip-path="url(#clip492)" cx="1644.02" cy="313.031" r="14" fill="#e26f46" fill-rule="evenodd" fill-opacity="1" stroke="#000000" stroke-opacity="1" stroke-width="3.2"/>
<circle clip-path="url(#clip492)" cx="1657.52" cy="413.819" r="14" fill="#e26f46" fill-rule="evenodd" fill-opacity="1" stroke="#000000" stroke-opacity="1" stroke-width="3.2"/>
<circle clip-path="url(#clip492)" cx="1671.03" cy="532.663" r="14" fill="#e26f46" fill-rule="evenodd" fill-opacity="1" stroke="#000000" stroke-opacity="1" stroke-width="3.2"/>
<circle clip-path="url(#clip492)" cx="1684.54" cy="656.398" r="14" fill="#e26f46" fill-rule="evenodd" fill-opacity="1" stroke="#000000" stroke-opacity="1" stroke-width="3.2"/>
<circle clip-path="url(#clip492)" cx="1698.05" cy="775.388" r="14" fill="#e26f46" fill-rule="evenodd" fill-opacity="1" stroke="#000000" stroke-opacity="1" stroke-width="3.2"/>
<circle clip-path="url(#clip492)" cx="1711.55" cy="883.886" r="14" fill="#e26f46" fill-rule="evenodd" fill-opacity="1" stroke="#000000" stroke-opacity="1" stroke-width="3.2"/>
<circle clip-path="url(#clip492)" cx="1725.06" cy="979.308" r="14" fill="#e26f46" fill-rule="evenodd" fill-opacity="1" stroke="#000000" stroke-opacity="1" stroke-width="3.2"/>
<circle clip-path="url(#clip492)" cx="1738.57" cy="1061.2" r="14" fill="#e26f46" fill-rule="evenodd" fill-opacity="1" stroke="#000000" stroke-opacity="1" stroke-width="3.2"/>
<circle clip-path="url(#clip492)" cx="1752.08" cy="1130.3" r="14" fill="#e26f46" fill-rule="evenodd" fill-opacity="1" stroke="#000000" stroke-opacity="1" stroke-width="3.2"/>
<circle clip-path="url(#clip492)" cx="1765.58" cy="1187.98" r="14" fill="#e26f46" fill-rule="evenodd" fill-opacity="1" stroke="#000000" stroke-opacity="1" stroke-width="3.2"/>
<circle clip-path="url(#clip492)" cx="1779.09" cy="1235.74" r="14" fill="#e26f46" fill-rule="evenodd" fill-opacity="1" stroke="#000000" stroke-opacity="1" stroke-width="3.2"/>
<circle clip-path="url(#clip492)" cx="1792.6" cy="1275.1" r="14" fill="#e26f46" fill-rule="evenodd" fill-opacity="1" stroke="#000000" stroke-opacity="1" stroke-width="3.2"/>
<circle clip-path="url(#clip492)" cx="1806.11" cy="1307.42" r="14" fill="#e26f46" fill-rule="evenodd" fill-opacity="1" stroke="#000000" stroke-opacity="1" stroke-width="3.2"/>
<circle clip-path="url(#clip492)" cx="1819.61" cy="1333.88" r="14" fill="#e26f46" fill-rule="evenodd" fill-opacity="1" stroke="#000000" stroke-opacity="1" stroke-width="3.2"/>
<circle clip-path="url(#clip492)" cx="1833.12" cy="1355.52" r="14" fill="#e26f46" fill-rule="evenodd" fill-opacity="1" stroke="#000000" stroke-opacity="1" stroke-width="3.2"/>
<circle clip-path="url(#clip492)" cx="1846.63" cy="1373.18" r="14" fill="#e26f46" fill-rule="evenodd" fill-opacity="1" stroke="#000000" stroke-opacity="1" stroke-width="3.2"/>
<circle clip-path="url(#clip492)" cx="1860.14" cy="1387.58" r="14" fill="#e26f46" fill-rule="evenodd" fill-opacity="1" stroke="#000000" stroke-opacity="1" stroke-width="3.2"/>
<circle clip-path="url(#clip492)" cx="1873.64" cy="1399.29" r="14" fill="#e26f46" fill-rule="evenodd" fill-opacity="1" stroke="#000000" stroke-opacity="1" stroke-width="3.2"/>
<circle clip-path="url(#clip492)" cx="1887.15" cy="1408.82" r="14" fill="#e26f46" fill-rule="evenodd" fill-opacity="1" stroke="#000000" stroke-opacity="1" stroke-width="3.2"/>
<circle clip-path="url(#clip492)" cx="1900.66" cy="1416.53" r="14" fill="#e26f46" fill-rule="evenodd" fill-opacity="1" stroke="#000000" stroke-opacity="1" stroke-width="3.2"/>
<circle clip-path="url(#clip492)" cx="1914.17" cy="1422.78" r="14" fill="#e26f46" fill-rule="evenodd" fill-opacity="1" stroke="#000000" stroke-opacity="1" stroke-width="3.2"/>
<circle clip-path="url(#clip492)" cx="1927.67" cy="1427.81" r="14" fill="#e26f46" fill-rule="evenodd" fill-opacity="1" stroke="#000000" stroke-opacity="1" stroke-width="3.2"/>
<circle clip-path="url(#clip492)" cx="1941.18" cy="1431.85" r="14" fill="#e26f46" fill-rule="evenodd" fill-opacity="1" stroke="#000000" stroke-opacity="1" stroke-width="3.2"/>
<circle clip-path="url(#clip492)" cx="1954.69" cy="1435.09" r="14" fill="#e26f46" fill-rule="evenodd" fill-opacity="1" stroke="#000000" stroke-opacity="1" stroke-width="3.2"/>
<circle clip-path="url(#clip492)" cx="1968.2" cy="1437.65" r="14" fill="#e26f46" fill-rule="evenodd" fill-opacity="1" stroke="#000000" stroke-opacity="1" stroke-width="3.2"/>
<circle clip-path="url(#clip492)" cx="1981.7" cy="1439.67" r="14" fill="#e26f46" fill-rule="evenodd" fill-opacity="1" stroke="#000000" stroke-opacity="1" stroke-width="3.2"/>
<circle clip-path="url(#clip492)" cx="1995.21" cy="1441.25" r="14" fill="#e26f46" fill-rule="evenodd" fill-opacity="1" stroke="#000000" stroke-opacity="1" stroke-width="3.2"/>
<circle clip-path="url(#clip492)" cx="2008.72" cy="1442.46" r="14" fill="#e26f46" fill-rule="evenodd" fill-opacity="1" stroke="#000000" stroke-opacity="1" stroke-width="3.2"/>
<circle clip-path="url(#clip492)" cx="2022.23" cy="1443.38" r="14" fill="#e26f46" fill-rule="evenodd" fill-opacity="1" stroke="#000000" stroke-opacity="1" stroke-width="3.2"/>
<circle clip-path="url(#clip492)" cx="2035.73" cy="1444.06" r="14" fill="#e26f46" fill-rule="evenodd" fill-opacity="1" stroke="#000000" stroke-opacity="1" stroke-width="3.2"/>
<circle clip-path="url(#clip492)" cx="2049.24" cy="1444.55" r="14" fill="#e26f46" fill-rule="evenodd" fill-opacity="1" stroke="#000000" stroke-opacity="1" stroke-width="3.2"/>
<circle clip-path="url(#clip492)" cx="2062.75" cy="1444.88" r="14" fill="#e26f46" fill-rule="evenodd" fill-opacity="1" stroke="#000000" stroke-opacity="1" stroke-width="3.2"/>
<circle clip-path="url(#clip492)" cx="2076.26" cy="1445.1" r="14" fill="#e26f46" fill-rule="evenodd" fill-opacity="1" stroke="#000000" stroke-opacity="1" stroke-width="3.2"/>
<circle clip-path="url(#clip492)" cx="2089.76" cy="1445.21" r="14" fill="#e26f46" fill-rule="evenodd" fill-opacity="1" stroke="#000000" stroke-opacity="1" stroke-width="3.2"/>
<circle clip-path="url(#clip492)" cx="2103.27" cy="1445.25" r="14" fill="#e26f46" fill-rule="evenodd" fill-opacity="1" stroke="#000000" stroke-opacity="1" stroke-width="3.2"/>
<circle clip-path="url(#clip492)" cx="2116.78" cy="1445.23" r="14" fill="#e26f46" fill-rule="evenodd" fill-opacity="1" stroke="#000000" stroke-opacity="1" stroke-width="3.2"/>
<circle clip-path="url(#clip492)" cx="2130.29" cy="1445.17" r="14" fill="#e26f46" fill-rule="evenodd" fill-opacity="1" stroke="#000000" stroke-opacity="1" stroke-width="3.2"/>
<circle clip-path="url(#clip492)" cx="2143.79" cy="1445.09" r="14" fill="#e26f46" fill-rule="evenodd" fill-opacity="1" stroke="#000000" stroke-opacity="1" stroke-width="3.2"/>
<circle clip-path="url(#clip492)" cx="2157.3" cy="1444.98" r="14" fill="#e26f46" fill-rule="evenodd" fill-opacity="1" stroke="#000000" stroke-opacity="1" stroke-width="3.2"/>
<circle clip-path="url(#clip492)" cx="2170.81" cy="1444.86" r="14" fill="#e26f46" fill-rule="evenodd" fill-opacity="1" stroke="#000000" stroke-opacity="1" stroke-width="3.2"/>
<circle clip-path="url(#clip492)" cx="2184.32" cy="1444.74" r="14" fill="#e26f46" fill-rule="evenodd" fill-opacity="1" stroke="#000000" stroke-opacity="1" stroke-width="3.2"/>
<circle clip-path="url(#clip492)" cx="2197.82" cy="1444.62" r="14" fill="#e26f46" fill-rule="evenodd" fill-opacity="1" stroke="#000000" stroke-opacity="1" stroke-width="3.2"/>
<circle clip-path="url(#clip492)" cx="2211.33" cy="1444.51" r="14" fill="#e26f46" fill-rule="evenodd" fill-opacity="1" stroke="#000000" stroke-opacity="1" stroke-width="3.2"/>
<circle clip-path="url(#clip492)" cx="2224.84" cy="1444.42" r="14" fill="#e26f46" fill-rule="evenodd" fill-opacity="1" stroke="#000000" stroke-opacity="1" stroke-width="3.2"/>
<circle clip-path="url(#clip492)" cx="2238.35" cy="1444.33" r="14" fill="#e26f46" fill-rule="evenodd" fill-opacity="1" stroke="#000000" stroke-opacity="1" stroke-width="3.2"/>
<circle clip-path="url(#clip492)" cx="2251.85" cy="1444.26" r="14" fill="#e26f46" fill-rule="evenodd" fill-opacity="1" stroke="#000000" stroke-opacity="1" stroke-width="3.2"/>
<circle clip-path="url(#clip492)" cx="2265.36" cy="1444.21" r="14" fill="#e26f46" fill-rule="evenodd" fill-opacity="1" stroke="#000000" stroke-opacity="1" stroke-width="3.2"/>
<circle clip-path="url(#clip492)" cx="2278.87" cy="1444.18" r="14" fill="#e26f46" fill-rule="evenodd" fill-opacity="1" stroke="#000000" stroke-opacity="1" stroke-width="3.2"/>
<circle clip-path="url(#clip492)" cx="2292.38" cy="1444.17" r="14" fill="#e26f46" fill-rule="evenodd" fill-opacity="1" stroke="#000000" stroke-opacity="1" stroke-width="3.2"/>
<path clip-path="url(#clip490)" d="
M1834.05 282.106 L2281.64 282.106 L2281.64 95.2176 L1834.05 95.2176  Z
  " fill="#ffffff" fill-rule="evenodd" fill-opacity="1"/>
<polyline clip-path="url(#clip490)" style="stroke:#000000; stroke-linecap:butt; stroke-linejoin:round; stroke-width:4; stroke-opacity:1; fill:none" points="
  1834.05,282.106 2281.64,282.106 2281.64,95.2176 1834.05,95.2176 1834.05,282.106 
  "/>
<circle clip-path="url(#clip490)" cx="1928.87" cy="157.514" r="23" fill="#009af9" fill-rule="evenodd" fill-opacity="1" stroke="#000000" stroke-opacity="1" stroke-width="5.12"/>
<path clip-path="url(#clip490)" d="M2023.69 147.213 L2024.6 136.439 L2053.9 136.439 L2054.81 147.213 L2053.62 147.213 Q2053.43 145.059 2053.24 143.817 Q2053.08 142.576 2052.66 141.405 Q2052.26 140.21 2051.75 139.648 Q2051.25 139.062 2050.29 138.617 Q2049.33 138.149 2048.09 138.032 Q2046.85 137.915 2044.98 137.915 Q2042.77 137.915 2042.24 138.008 Q2041.65 138.149 2041.51 138.571 Q2041.37 138.969 2041.37 139.835 L2041.37 165.108 Q2041.37 166.069 2041.56 166.467 Q2041.77 166.842 2042.87 167.146 Q2043.97 167.427 2046.41 167.427 L2048.33 167.427 L2048.33 168.903 Q2046.36 168.762 2039.21 168.762 Q2032.12 168.762 2030.15 168.903 L2030.15 167.427 L2032.07 167.427 Q2034.51 167.427 2035.61 167.146 Q2036.73 166.842 2036.92 166.467 Q2037.11 166.069 2037.11 165.108 L2037.11 139.835 Q2037.11 139.156 2037.06 138.875 Q2037.01 138.594 2036.8 138.36 Q2036.59 138.102 2036.1 138.008 Q2035.63 137.915 2033.52 137.915 Q2031.65 137.915 2030.38 138.032 Q2029.14 138.149 2028.18 138.617 Q2027.22 139.062 2026.71 139.648 Q2026.21 140.21 2025.79 141.405 Q2025.4 142.576 2025.23 143.817 Q2025.07 145.059 2024.88 147.213 L2023.69 147.213 Z" fill="#000000" fill-rule="evenodd" fill-opacity="1" /><path clip-path="url(#clip490)" d="M2061.86 168.903 L2061.86 167.427 Q2064.41 167.427 2065 167.123 Q2065.61 166.795 2065.61 165.249 L2065.61 152.39 Q2065.61 150.61 2064.97 150.165 Q2064.37 149.72 2061.86 149.72 L2061.86 148.221 L2068.53 147.705 L2068.53 152.975 Q2069.21 150.914 2070.64 149.322 Q2072.09 147.705 2074.44 147.705 Q2075.98 147.705 2076.97 148.572 Q2077.97 149.439 2077.97 150.633 Q2077.97 151.687 2077.32 152.226 Q2076.69 152.741 2075.91 152.741 Q2075.05 152.741 2074.44 152.202 Q2073.85 151.64 2073.85 150.68 Q2073.85 150.094 2074.11 149.649 Q2074.39 149.181 2074.6 149.017 Q2074.81 148.853 2074.95 148.806 Q2074.86 148.759 2074.44 148.759 Q2071.79 148.759 2070.27 151.406 Q2068.77 154.029 2068.77 157.777 L2068.77 165.155 Q2068.77 166.537 2069.33 166.982 Q2069.92 167.427 2072.42 167.427 L2073.43 167.427 L2073.43 168.903 Q2071.51 168.762 2067.34 168.762 Q2066.75 168.762 2065.84 168.786 Q2064.93 168.809 2063.73 168.856 Q2062.54 168.903 2061.86 168.903 Z" fill="#000000" fill-rule="evenodd" fill-opacity="1" /><path clip-path="url(#clip490)" d="M2080.41 156.91 Q2080.41 148.806 2083.44 142.271 Q2084.72 139.531 2086.53 137.236 Q2088.33 134.94 2089.53 133.933 Q2090.72 132.926 2091.05 132.926 Q2091.52 132.926 2091.54 133.394 Q2091.54 133.628 2090.91 134.214 Q2083.18 142.084 2083.2 156.91 Q2083.2 171.784 2090.72 179.349 Q2091.54 180.169 2091.54 180.427 Q2091.54 180.895 2091.05 180.895 Q2090.72 180.895 2089.57 179.935 Q2088.42 178.974 2086.64 176.773 Q2084.86 174.571 2083.58 171.877 Q2080.41 165.342 2080.41 156.91 Z" fill="#000000" fill-rule="evenodd" fill-opacity="1" /><path clip-path="url(#clip490)" d="M2116.24 149.954 Q2116.24 149.977 2116.1 150.821 L2110.76 172.112 Q2110.48 173.236 2109.68 174.36 Q2108.91 175.508 2107.67 176.492 Q2106.45 177.499 2104.57 178.108 Q2102.72 178.74 2100.59 178.74 Q2097.2 178.74 2095.7 178.014 Q2094.22 177.311 2094.22 175.812 Q2094.22 174.501 2095.04 173.751 Q2095.86 173.025 2096.8 173.025 Q2097.69 173.025 2098.16 173.54 Q2098.62 174.056 2098.62 174.711 Q2098.62 175.438 2098.13 176.164 Q2097.64 176.913 2096.66 177.194 Q2098.23 177.686 2100.5 177.686 Q2105.3 177.686 2107.36 172.603 Q2107.41 172.533 2107.41 172.51 L2109 166.162 L2108.93 166.115 Q2108.53 166.584 2107.9 167.123 Q2107.29 167.638 2105.98 168.27 Q2104.67 168.903 2103.38 168.903 Q2100.69 168.903 2098.84 166.842 Q2097.01 164.757 2097.01 161.314 Q2097.01 158.808 2098.02 156.301 Q2099.05 153.772 2100.64 151.921 Q2102.26 150.048 2104.32 148.876 Q2106.4 147.705 2108.42 147.705 Q2109.82 147.705 2111.02 148.549 Q2112.21 149.368 2112.87 150.727 Q2112.98 149.603 2113.62 149.134 Q2114.27 148.666 2114.83 148.666 Q2115.47 148.666 2115.84 149.017 Q2116.24 149.345 2116.24 149.954 M2112.3 152.882 Q2112.3 152.741 2112.21 152.366 Q2112.12 151.968 2111.84 151.336 Q2111.58 150.703 2111.18 150.141 Q2110.78 149.579 2110.05 149.181 Q2109.35 148.759 2108.46 148.759 Q2107.01 148.759 2105.56 149.977 Q2104.11 151.172 2103.1 153.022 Q2102.16 154.802 2101.27 158.245 Q2100.4 161.689 2100.4 163.445 Q2100.4 165.179 2101.15 166.514 Q2101.9 167.849 2103.52 167.849 Q2105.39 167.849 2107.41 166.115 Q2109.49 164.312 2109.84 162.766 L2112.16 153.608 Q2112.3 153.046 2112.3 152.882 Z" fill="#000000" fill-rule="evenodd" fill-opacity="1" /><path clip-path="url(#clip490)" d="M2116.86 180.427 Q2116.86 180.192 2117.47 179.607 Q2125.2 171.737 2125.2 156.91 Q2125.2 142.037 2117.77 134.519 Q2116.86 133.652 2116.86 133.394 Q2116.86 132.926 2117.33 132.926 Q2117.65 132.926 2118.8 133.886 Q2119.97 134.846 2121.73 137.048 Q2123.51 139.25 2124.82 141.943 Q2127.98 148.478 2127.98 156.91 Q2127.98 165.015 2124.96 171.549 Q2123.67 174.29 2121.87 176.585 Q2120.07 178.881 2118.87 179.888 Q2117.68 180.895 2117.33 180.895 Q2116.86 180.895 2116.86 180.427 Z" fill="#000000" fill-rule="evenodd" fill-opacity="1" /><path clip-path="url(#clip490)" d="M2136.44 192.021 Q2132.99 188.463 2132.99 183.364 Q2132.99 178.249 2136.47 174.707 Q2139.95 171.166 2144.67 171.166 Q2145.85 171.166 2146.85 171.444 Q2147.86 171.707 2148.67 172.248 Q2149.47 172.772 2149.88 173.133 Q2150.31 173.478 2150.88 174.051 L2152.57 171.576 Q2152.83 171.166 2153.09 171.166 Q2153.37 171.166 2153.42 171.33 Q2153.47 171.477 2153.47 171.969 L2153.47 179.937 Q2153.47 180.478 2153.41 180.61 Q2153.34 180.741 2152.93 180.741 Q2152.6 180.741 2152.54 180.642 Q2152.47 180.544 2152.39 180.167 Q2151.88 176.544 2149.85 174.379 Q2147.83 172.215 2145.08 172.215 Q2144.27 172.215 2143.37 172.395 Q2142.49 172.576 2141.18 173.264 Q2139.88 173.953 2138.88 175.084 Q2137.9 176.199 2137.17 178.363 Q2136.45 180.511 2136.45 183.364 Q2136.45 186.184 2137.17 188.348 Q2137.9 190.513 2138.9 191.644 Q2139.91 192.759 2141.22 193.464 Q2142.55 194.169 2143.49 194.366 Q2144.44 194.546 2145.27 194.546 Q2145.85 194.546 2146.52 194.431 Q2147.19 194.3 2148.19 193.939 Q2149.21 193.562 2149.85 192.677 Q2150.49 191.792 2150.49 190.48 L2150.49 188.332 Q2150.49 187.332 2150 187.02 Q2149.5 186.709 2147.36 186.709 L2146.29 186.709 L2146.29 185.676 Q2147.5 185.774 2151.68 185.774 Q2152.06 185.774 2155.78 185.676 L2155.78 186.709 Q2154.18 186.709 2153.82 186.955 Q2153.47 187.184 2153.47 188.184 L2153.47 194.038 Q2153.47 194.808 2153.18 194.808 Q2152.91 194.808 2152.13 194.054 Q2151.36 193.3 2151.01 192.726 Q2150.21 194.136 2148.45 194.858 Q2146.72 195.579 2144.73 195.579 Q2139.9 195.579 2136.44 192.021 Z" fill="#000000" fill-rule="evenodd" fill-opacity="1" /><path clip-path="url(#clip490)" d="M2158.25 194.841 L2158.25 193.808 Q2160.03 193.808 2160.44 193.595 Q2160.87 193.366 2160.87 192.283 L2160.87 183.282 Q2160.87 182.036 2160.43 181.725 Q2160 181.413 2158.25 181.413 L2158.25 180.364 L2162.92 180.003 L2162.92 183.692 Q2163.39 182.249 2164.39 181.134 Q2165.41 180.003 2167.05 180.003 Q2168.13 180.003 2168.82 180.61 Q2169.53 181.216 2169.53 182.052 Q2169.53 182.79 2169.07 183.167 Q2168.62 183.528 2168.08 183.528 Q2167.48 183.528 2167.05 183.151 Q2166.64 182.757 2166.64 182.085 Q2166.64 181.675 2166.82 181.364 Q2167.02 181.036 2167.16 180.921 Q2167.31 180.806 2167.41 180.774 Q2167.34 180.741 2167.05 180.741 Q2165.2 180.741 2164.13 182.594 Q2163.08 184.43 2163.08 187.053 L2163.08 192.218 Q2163.08 193.185 2163.48 193.497 Q2163.89 193.808 2165.64 193.808 L2166.34 193.808 L2166.34 194.841 Q2165 194.743 2162.08 194.743 Q2161.67 194.743 2161.03 194.759 Q2160.39 194.776 2159.56 194.808 Q2158.72 194.841 2158.25 194.841 Z" fill="#000000" fill-rule="evenodd" fill-opacity="1" /><path clip-path="url(#clip490)" d="M2171.96 187.447 Q2171.96 184.282 2173.99 182.036 Q2176.02 179.79 2178.94 179.79 Q2181.89 179.79 2183.42 181.708 Q2184.96 183.626 2184.96 186.381 Q2184.96 186.889 2184.83 186.988 Q2184.7 187.086 2184.12 187.086 L2174.75 187.086 Q2174.75 190.513 2175.76 192.119 Q2177.17 194.366 2179.55 194.366 Q2179.88 194.366 2180.27 194.3 Q2180.66 194.234 2181.47 193.956 Q2182.27 193.661 2182.98 192.89 Q2183.68 192.119 2184.09 190.906 Q2184.19 190.431 2184.52 190.447 Q2184.96 190.447 2184.96 190.841 Q2184.96 191.136 2184.63 191.808 Q2184.32 192.464 2183.71 193.251 Q2183.11 194.038 2181.93 194.628 Q2180.76 195.218 2179.35 195.218 Q2176.4 195.218 2174.17 192.988 Q2171.96 190.742 2171.96 187.447 M2174.78 186.381 L2182.75 186.381 Q2182.75 185.676 2182.62 184.889 Q2182.5 184.102 2182.14 183.02 Q2181.8 181.921 2180.98 181.233 Q2180.16 180.544 2178.94 180.544 Q2178.4 180.544 2177.81 180.774 Q2177.24 181.003 2176.53 181.561 Q2175.83 182.118 2175.34 183.381 Q2174.84 184.643 2174.78 186.381 Z" fill="#000000" fill-rule="evenodd" fill-opacity="1" /><path clip-path="url(#clip490)" d="M2186.72 187.447 Q2186.72 184.282 2188.75 182.036 Q2190.78 179.79 2193.7 179.79 Q2196.65 179.79 2198.18 181.708 Q2199.72 183.626 2199.72 186.381 Q2199.72 186.889 2199.59 186.988 Q2199.46 187.086 2198.88 187.086 L2189.5 187.086 Q2189.5 190.513 2190.52 192.119 Q2191.93 194.366 2194.31 194.366 Q2194.64 194.366 2195.03 194.3 Q2195.42 194.234 2196.23 193.956 Q2197.03 193.661 2197.73 192.89 Q2198.44 192.119 2198.85 190.906 Q2198.95 190.431 2199.28 190.447 Q2199.72 190.447 2199.72 190.841 Q2199.72 191.136 2199.39 191.808 Q2199.08 192.464 2198.47 193.251 Q2197.87 194.038 2196.69 194.628 Q2195.52 195.218 2194.11 195.218 Q2191.16 195.218 2188.93 192.988 Q2186.72 190.742 2186.72 187.447 M2189.54 186.381 L2197.5 186.381 Q2197.5 185.676 2197.37 184.889 Q2197.26 184.102 2196.9 183.02 Q2196.55 181.921 2195.73 181.233 Q2194.91 180.544 2193.7 180.544 Q2193.16 180.544 2192.57 180.774 Q2192 181.003 2191.29 181.561 Q2190.59 182.118 2190.09 183.381 Q2189.6 184.643 2189.54 186.381 Z" fill="#000000" fill-rule="evenodd" fill-opacity="1" /><path clip-path="url(#clip490)" d="M2200.8 194.841 L2200.8 193.808 Q2202.59 193.808 2203 193.595 Q2203.41 193.366 2203.41 192.283 L2203.41 183.282 Q2203.41 182.036 2202.97 181.725 Q2202.54 181.413 2200.8 181.413 L2200.8 180.364 L2205.52 180.003 L2205.52 183.528 Q2207.1 180.003 2210.49 180.003 Q2213.02 180.003 2214.02 181.249 Q2214.76 182.085 2214.9 183.02 Q2215.07 183.954 2215.07 186.381 L2215.07 192.792 Q2215.1 193.497 2215.64 193.661 Q2216.18 193.808 2217.69 193.808 L2217.69 194.841 Q2214.26 194.743 2213.92 194.743 Q2213.66 194.743 2210.13 194.841 L2210.13 193.808 Q2211.92 193.808 2212.33 193.595 Q2212.75 193.366 2212.75 192.283 L2212.75 184.463 Q2212.75 182.757 2212.23 181.757 Q2211.71 180.741 2210.26 180.741 Q2208.52 180.741 2207.13 182.2 Q2205.74 183.659 2205.74 186.119 L2205.74 192.283 Q2205.74 193.366 2206.15 193.595 Q2206.57 193.808 2208.34 193.808 L2208.34 194.841 Q2204.92 194.743 2204.59 194.743 Q2204.33 194.743 2200.8 194.841 Z" fill="#000000" fill-rule="evenodd" fill-opacity="1" /><circle clip-path="url(#clip490)" cx="1928.87" cy="219.81" r="23" fill="#e26f46" fill-rule="evenodd" fill-opacity="1" stroke="#000000" stroke-opacity="1" stroke-width="5.12"/>
<path clip-path="url(#clip490)" d="M2023.69 210.048 L2024.6 199.274 L2053.9 199.274 L2054.81 210.048 L2053.62 210.048 Q2053.43 207.893 2053.24 206.652 Q2053.08 205.41 2052.66 204.239 Q2052.26 203.045 2051.75 202.482 Q2051.25 201.897 2050.29 201.452 Q2049.33 200.983 2048.09 200.866 Q2046.85 200.749 2044.98 200.749 Q2042.77 200.749 2042.24 200.843 Q2041.65 200.983 2041.51 201.405 Q2041.37 201.803 2041.37 202.67 L2041.37 227.943 Q2041.37 228.903 2041.56 229.301 Q2041.77 229.676 2042.87 229.98 Q2043.97 230.261 2046.41 230.261 L2048.33 230.261 L2048.33 231.737 Q2046.36 231.597 2039.21 231.597 Q2032.12 231.597 2030.15 231.737 L2030.15 230.261 L2032.07 230.261 Q2034.51 230.261 2035.61 229.98 Q2036.73 229.676 2036.92 229.301 Q2037.11 228.903 2037.11 227.943 L2037.11 202.67 Q2037.11 201.991 2037.06 201.709 Q2037.01 201.428 2036.8 201.194 Q2036.59 200.937 2036.1 200.843 Q2035.63 200.749 2033.52 200.749 Q2031.65 200.749 2030.38 200.866 Q2029.14 200.983 2028.18 201.452 Q2027.22 201.897 2026.71 202.482 Q2026.21 203.045 2025.79 204.239 Q2025.4 205.41 2025.23 206.652 Q2025.07 207.893 2024.88 210.048 L2023.69 210.048 Z" fill="#000000" fill-rule="evenodd" fill-opacity="1" /><path clip-path="url(#clip490)" d="M2061.86 231.737 L2061.86 230.261 Q2064.41 230.261 2065 229.957 Q2065.61 229.629 2065.61 228.083 L2065.61 215.224 Q2065.61 213.444 2064.97 212.999 Q2064.37 212.554 2061.86 212.554 L2061.86 211.055 L2068.53 210.54 L2068.53 215.81 Q2069.21 213.749 2070.64 212.156 Q2072.09 210.54 2074.44 210.54 Q2075.98 210.54 2076.97 211.406 Q2077.97 212.273 2077.97 213.468 Q2077.97 214.522 2077.32 215.06 Q2076.69 215.576 2075.91 215.576 Q2075.05 215.576 2074.44 215.037 Q2073.85 214.475 2073.85 213.514 Q2073.85 212.929 2074.11 212.484 Q2074.39 212.015 2074.6 211.851 Q2074.81 211.687 2074.95 211.641 Q2074.86 211.594 2074.44 211.594 Q2071.79 211.594 2070.27 214.24 Q2068.77 216.864 2068.77 220.611 L2068.77 227.989 Q2068.77 229.371 2069.33 229.816 Q2069.92 230.261 2072.42 230.261 L2073.43 230.261 L2073.43 231.737 Q2071.51 231.597 2067.34 231.597 Q2066.75 231.597 2065.84 231.62 Q2064.93 231.643 2063.73 231.69 Q2062.54 231.737 2061.86 231.737 Z" fill="#000000" fill-rule="evenodd" fill-opacity="1" /><path clip-path="url(#clip490)" d="M2080.41 219.745 Q2080.41 211.641 2083.44 205.106 Q2084.72 202.365 2086.53 200.07 Q2088.33 197.775 2089.53 196.767 Q2090.72 195.76 2091.05 195.76 Q2091.52 195.76 2091.54 196.229 Q2091.54 196.463 2090.91 197.048 Q2083.18 204.918 2083.2 219.745 Q2083.2 234.618 2090.72 242.183 Q2091.54 243.003 2091.54 243.261 Q2091.54 243.729 2091.05 243.729 Q2090.72 243.729 2089.57 242.769 Q2088.42 241.809 2086.64 239.607 Q2084.86 237.405 2083.58 234.712 Q2080.41 228.177 2080.41 219.745 Z" fill="#000000" fill-rule="evenodd" fill-opacity="1" /><path clip-path="url(#clip490)" d="M2116.24 212.788 Q2116.24 212.812 2116.1 213.655 L2110.76 234.946 Q2110.48 236.07 2109.68 237.194 Q2108.91 238.342 2107.67 239.326 Q2106.45 240.333 2104.57 240.942 Q2102.72 241.574 2100.59 241.574 Q2097.2 241.574 2095.7 240.848 Q2094.22 240.146 2094.22 238.647 Q2094.22 237.335 2095.04 236.585 Q2095.86 235.859 2096.8 235.859 Q2097.69 235.859 2098.16 236.375 Q2098.62 236.89 2098.62 237.546 Q2098.62 238.272 2098.13 238.998 Q2097.64 239.748 2096.66 240.029 Q2098.23 240.52 2100.5 240.52 Q2105.3 240.52 2107.36 235.438 Q2107.41 235.368 2107.41 235.344 L2109 228.997 L2108.93 228.95 Q2108.53 229.418 2107.9 229.957 Q2107.29 230.472 2105.98 231.105 Q2104.67 231.737 2103.38 231.737 Q2100.69 231.737 2098.84 229.676 Q2097.01 227.591 2097.01 224.148 Q2097.01 221.642 2098.02 219.136 Q2099.05 216.606 2100.64 214.756 Q2102.26 212.882 2104.32 211.711 Q2106.4 210.54 2108.42 210.54 Q2109.82 210.54 2111.02 211.383 Q2112.21 212.203 2112.87 213.561 Q2112.98 212.437 2113.62 211.969 Q2114.27 211.5 2114.83 211.5 Q2115.47 211.5 2115.84 211.851 Q2116.24 212.179 2116.24 212.788 M2112.3 215.716 Q2112.3 215.576 2112.21 215.201 Q2112.12 214.803 2111.84 214.17 Q2111.58 213.538 2111.18 212.976 Q2110.78 212.414 2110.05 212.015 Q2109.35 211.594 2108.46 211.594 Q2107.01 211.594 2105.56 212.812 Q2104.11 214.006 2103.1 215.857 Q2102.16 217.637 2101.27 221.08 Q2100.4 224.523 2100.4 226.28 Q2100.4 228.013 2101.15 229.348 Q2101.9 230.683 2103.52 230.683 Q2105.39 230.683 2107.41 228.95 Q2109.49 227.146 2109.84 225.6 L2112.16 216.442 Q2112.3 215.88 2112.3 215.716 Z" fill="#000000" fill-rule="evenodd" fill-opacity="1" /><path clip-path="url(#clip490)" d="M2116.86 243.261 Q2116.86 243.027 2117.47 242.441 Q2125.2 234.571 2125.2 219.745 Q2125.2 204.872 2117.77 197.353 Q2116.86 196.486 2116.86 196.229 Q2116.86 195.76 2117.33 195.76 Q2117.65 195.76 2118.8 196.72 Q2119.97 197.681 2121.73 199.883 Q2123.51 202.084 2124.82 204.778 Q2127.98 211.313 2127.98 219.745 Q2127.98 227.849 2124.96 234.384 Q2123.67 237.124 2121.87 239.42 Q2120.07 241.715 2118.87 242.722 Q2117.68 243.729 2117.33 243.729 Q2116.86 243.729 2116.86 243.261 Z" fill="#000000" fill-rule="evenodd" fill-opacity="1" /><path clip-path="url(#clip490)" d="M2132.99 256.96 L2132.99 255.927 Q2134.78 255.927 2135.19 255.714 Q2135.6 255.485 2135.6 254.402 L2135.6 245.401 Q2135.6 244.155 2135.16 243.844 Q2134.73 243.532 2132.99 243.532 L2132.99 242.483 L2137.72 242.122 L2137.72 245.647 Q2139.29 242.122 2142.68 242.122 Q2146.62 242.122 2147.16 245.401 Q2147.73 244.122 2148.93 243.122 Q2150.14 242.122 2152.03 242.122 Q2154.55 242.122 2155.55 243.368 Q2156.29 244.204 2156.44 245.139 Q2156.59 246.073 2156.59 248.5 L2156.59 254.911 Q2156.62 255.616 2157.16 255.78 Q2157.7 255.927 2159.21 255.927 L2159.21 256.96 Q2155.78 256.862 2155.46 256.862 Q2155.19 256.862 2151.65 256.96 L2151.65 255.927 Q2153.44 255.927 2153.85 255.714 Q2154.28 255.485 2154.28 254.402 L2154.28 246.582 Q2154.28 244.877 2153.75 243.876 Q2153.23 242.86 2151.78 242.86 Q2150.05 242.86 2148.65 244.319 Q2147.26 245.778 2147.26 248.238 L2147.26 254.402 Q2147.26 255.485 2147.67 255.714 Q2148.09 255.927 2149.88 255.927 L2149.88 256.96 Q2146.45 256.862 2146.11 256.862 Q2145.85 256.862 2142.32 256.96 L2142.32 255.927 Q2144.11 255.927 2144.52 255.714 Q2144.95 255.485 2144.95 254.402 L2144.95 246.582 Q2144.95 244.877 2144.42 243.876 Q2143.9 242.86 2142.45 242.86 Q2140.72 242.86 2139.32 244.319 Q2137.93 245.778 2137.93 248.238 L2137.93 254.402 Q2137.93 255.485 2138.34 255.714 Q2138.77 255.927 2140.54 255.927 L2140.54 256.96 Q2137.11 256.862 2136.78 256.862 Q2136.52 256.862 2132.99 256.96 Z" fill="#000000" fill-rule="evenodd" fill-opacity="1" /><path clip-path="url(#clip490)" d="M2161.08 253.763 Q2161.08 250.91 2164.44 249.402 Q2166.46 248.434 2170.62 248.188 L2170.62 246.959 Q2170.62 244.877 2169.52 243.778 Q2168.44 242.663 2167.06 242.663 Q2164.6 242.663 2163.42 244.204 Q2164.42 244.237 2164.78 244.745 Q2165.14 245.237 2165.14 245.746 Q2165.14 246.418 2164.72 246.86 Q2164.31 247.287 2163.6 247.287 Q2162.93 247.287 2162.49 246.877 Q2162.05 246.451 2162.05 245.713 Q2162.05 244.073 2163.52 242.991 Q2165.01 241.909 2167.13 241.909 Q2169.88 241.909 2171.72 243.762 Q2172.29 244.335 2172.57 245.073 Q2172.87 245.811 2172.9 246.303 Q2172.93 246.778 2172.93 247.729 L2172.93 254.435 Q2172.93 254.632 2173 254.96 Q2173.06 255.288 2173.36 255.714 Q2173.67 256.124 2174.18 256.124 Q2175.39 256.124 2175.38 253.976 L2175.38 252.091 L2176.23 252.091 L2176.23 253.976 Q2176.23 255.763 2175.28 256.468 Q2174.34 257.157 2173.47 257.157 Q2172.36 257.157 2171.65 256.337 Q2170.95 255.517 2170.85 254.402 Q2170.34 255.681 2169.18 256.517 Q2168.03 257.337 2166.46 257.337 Q2165.24 257.337 2164.1 257.026 Q2162.96 256.731 2162.01 255.894 Q2161.08 255.042 2161.08 253.763 M2163.67 253.73 Q2163.67 254.976 2164.55 255.78 Q2165.44 256.583 2166.69 256.583 Q2168.1 256.583 2169.36 255.501 Q2170.62 254.402 2170.62 252.255 L2170.62 248.893 Q2166.9 249.025 2165.28 250.517 Q2163.67 251.992 2163.67 253.73 Z" fill="#000000" fill-rule="evenodd" fill-opacity="1" /><path clip-path="url(#clip490)" d="M2177.03 243.532 L2177.03 242.794 Q2178.57 242.729 2179.59 241.647 Q2180.62 240.548 2180.97 239.204 Q2181.33 237.859 2181.36 236.302 L2182.2 236.302 L2182.2 242.483 L2187 242.483 L2187 243.532 L2182.2 243.532 L2182.2 252.861 Q2182.2 256.485 2184.46 256.485 Q2185.43 256.485 2186.07 255.501 Q2186.7 254.501 2186.7 252.73 L2186.7 250.877 L2187.54 250.877 L2187.54 252.796 Q2187.54 254.616 2186.7 255.976 Q2185.87 257.337 2184.21 257.337 Q2183.61 257.337 2183 257.173 Q2182.41 257.026 2181.62 256.632 Q2180.85 256.222 2180.36 255.239 Q2179.88 254.238 2179.88 252.796 L2179.88 243.532 L2177.03 243.532 Z" fill="#000000" fill-rule="evenodd" fill-opacity="1" /><path clip-path="url(#clip490)" d="M2189.52 256.96 L2189.52 255.927 Q2191.31 255.927 2191.72 255.714 Q2192.14 255.485 2192.14 254.402 L2192.14 245.401 Q2192.14 244.155 2191.7 243.844 Q2191.27 243.532 2189.52 243.532 L2189.52 242.483 L2194.19 242.122 L2194.19 245.811 Q2194.67 244.368 2195.67 243.253 Q2196.68 242.122 2198.32 242.122 Q2199.41 242.122 2200.09 242.729 Q2200.8 243.335 2200.8 244.172 Q2200.8 244.909 2200.34 245.286 Q2199.9 245.647 2199.36 245.647 Q2198.75 245.647 2198.32 245.27 Q2197.91 244.877 2197.91 244.204 Q2197.91 243.794 2198.09 243.483 Q2198.29 243.155 2198.44 243.04 Q2198.59 242.925 2198.68 242.893 Q2198.62 242.86 2198.32 242.86 Q2196.47 242.86 2195.4 244.713 Q2194.36 246.549 2194.36 249.172 L2194.36 254.337 Q2194.36 255.304 2194.75 255.616 Q2195.16 255.927 2196.91 255.927 L2197.62 255.927 L2197.62 256.96 Q2196.27 256.862 2193.36 256.862 Q2192.95 256.862 2192.31 256.878 Q2191.67 256.895 2190.83 256.927 Q2189.99 256.96 2189.52 256.96 Z" fill="#000000" fill-rule="evenodd" fill-opacity="1" /><path clip-path="url(#clip490)" d="M2202.12 256.96 L2202.12 255.927 Q2203.91 255.927 2204.32 255.714 Q2204.73 255.485 2204.73 254.402 L2204.73 245.368 Q2204.73 244.122 2204.3 243.827 Q2203.89 243.532 2202.25 243.532 L2202.25 242.483 L2206.94 242.122 L2206.94 254.435 Q2206.94 255.435 2207.3 255.681 Q2207.66 255.927 2209.3 255.927 L2209.3 256.96 Q2205.88 256.862 2205.81 256.862 Q2205.35 256.862 2202.12 256.96 M2203.53 236.269 Q2203.53 235.597 2204.04 235.056 Q2204.57 234.498 2205.3 234.498 Q2206.04 234.498 2206.57 235.006 Q2207.09 235.498 2207.09 236.285 Q2207.09 237.056 2206.57 237.564 Q2206.04 238.056 2205.3 238.056 Q2204.53 238.056 2204.02 237.515 Q2203.53 236.974 2203.53 236.269 Z" fill="#000000" fill-rule="evenodd" fill-opacity="1" /><path clip-path="url(#clip490)" d="M2211.6 256.96 L2211.6 255.927 Q2214.22 255.927 2215.89 253.911 Q2215.89 253.911 2219.04 249.91 L2215.71 245.582 Q2214.53 244.073 2214.01 243.811 Q2213.5 243.532 2211.76 243.532 L2211.76 242.483 Q2213.14 242.581 2214.94 242.581 Q2215.94 242.581 2218.58 242.483 L2218.58 243.532 Q2217.4 243.598 2217.4 244.368 Q2217.4 244.631 2217.7 244.975 L2220.32 248.369 L2222.4 245.746 Q2222.91 245.139 2222.91 244.565 Q2222.91 243.63 2221.93 243.532 L2221.93 242.483 Q2223.24 242.581 2225.16 242.581 Q2226.6 242.581 2227.91 242.483 L2227.91 243.532 Q2225.35 243.598 2223.91 245.27 Q2223.27 245.975 2220.83 249.074 L2225.32 254.878 Q2225.86 255.583 2226.47 255.763 Q2227.07 255.927 2228.52 255.927 L2228.52 256.96 Q2227.01 256.862 2225.29 256.862 Q2224.68 256.862 2221.66 256.96 L2221.66 255.927 Q2222.27 255.894 2222.57 255.632 Q2222.88 255.353 2222.88 255.075 Q2222.88 254.944 2222.17 253.976 L2219.61 250.615 Q2217.06 253.632 2216.73 254.337 Q2216.6 254.632 2216.6 254.878 Q2216.6 255.78 2217.57 255.927 L2217.57 256.96 Q2215.15 256.862 2214.38 256.862 Q2212.91 256.862 2211.6 256.96 Z" fill="#000000" fill-rule="evenodd" fill-opacity="1" /></svg>
