<?xml version="1.0" encoding="utf-8"?>
<svg xmlns="http://www.w3.org/2000/svg" xmlns:xlink="http://www.w3.org/1999/xlink" width="600" height="400" viewBox="0 0 2400 1600">
<defs>
  <clipPath id="clip750">
    <rect x="0" y="0" width="2400" height="1600"/>
  </clipPath>
</defs>
<path clip-path="url(#clip750)" d="
M0 1600 L2400 1600 L2400 0 L0 0  Z
  " fill="#ffffff" fill-rule="evenodd" fill-opacity="1"/>
<defs>
  <clipPath id="clip751">
    <rect x="480" y="0" width="1681" height="1600"/>
  </clipPath>
</defs>
<path clip-path="url(#clip750)" d="
M264.287 1486.45 L2352.76 1486.45 L2352.76 47.2441 L264.287 47.2441  Z
  " fill="#ffffff" fill-rule="evenodd" fill-opacity="1"/>
<defs>
  <clipPath id="clip752">
    <rect x="264" y="47" width="2089" height="1440"/>
  </clipPath>
</defs>
<polyline clip-path="url(#clip752)" style="stroke:#000000; stroke-linecap:butt; stroke-linejoin:round; stroke-width:2; stroke-opacity:0.1; fill:none" points="
  323.395,1486.45 323.395,47.2441 
  "/>
<polyline clip-path="url(#clip752)" style="stroke:#000000; stroke-linecap:butt; stroke-linejoin:round; stroke-width:2; stroke-opacity:0.1; fill:none" points="
  971.331,1486.45 971.331,47.2441 
  "/>
<polyline clip-path="url(#clip752)" style="stroke:#000000; stroke-linecap:butt; stroke-linejoin:round; stroke-width:2; stroke-opacity:0.1; fill:none" points="
  1632.49,1486.45 1632.49,47.2441 
  "/>
<polyline clip-path="url(#clip752)" style="stroke:#000000; stroke-linecap:butt; stroke-linejoin:round; stroke-width:2; stroke-opacity:0.1; fill:none" points="
  2293.65,1486.45 2293.65,47.2441 
  "/>
<polyline clip-path="url(#clip750)" style="stroke:#000000; stroke-linecap:butt; stroke-linejoin:round; stroke-width:4; stroke-opacity:1; fill:none" points="
  264.287,1486.45 2352.76,1486.45 
  "/>
<polyline clip-path="url(#clip750)" style="stroke:#000000; stroke-linecap:butt; stroke-linejoin:round; stroke-width:4; stroke-opacity:1; fill:none" points="
  323.395,1486.45 323.395,1467.55 
  "/>
<polyline clip-path="url(#clip750)" style="stroke:#000000; stroke-linecap:butt; stroke-linejoin:round; stroke-width:4; stroke-opacity:1; fill:none" points="
  971.331,1486.45 971.331,1467.55 
  "/>
<polyline clip-path="url(#clip750)" style="stroke:#000000; stroke-linecap:butt; stroke-linejoin:round; stroke-width:4; stroke-opacity:1; fill:none" points="
  1632.49,1486.45 1632.49,1467.55 
  "/>
<polyline clip-path="url(#clip750)" style="stroke:#000000; stroke-linecap:butt; stroke-linejoin:round; stroke-width:4; stroke-opacity:1; fill:none" points="
  2293.65,1486.45 2293.65,1467.55 
  "/>
<path clip-path="url(#clip750)" d="M308.551 1554.64 L308.551 1553.16 L309.254 1553.16 Q311.807 1553.16 312.603 1552.81 Q313.423 1552.43 313.493 1551.08 L313.493 1525.48 Q313.446 1524.23 312.65 1523.86 Q311.854 1523.46 309.254 1523.46 L308.551 1523.46 L308.551 1522.01 Q310.8 1522.1 315.297 1522.1 Q317.124 1522.1 318.693 1522.06 Q320.286 1522.01 320.543 1522.01 L333.59 1522.01 L334.925 1532.81 L333.683 1532.81 Q333.309 1529.88 332.887 1528.36 Q332.489 1526.81 331.505 1525.57 Q330.521 1524.33 328.882 1523.91 Q327.242 1523.46 324.478 1523.46 L320.38 1523.46 Q318.834 1523.46 318.295 1523.77 Q317.756 1524.07 317.756 1525.33 L317.756 1550.94 Q317.756 1552.41 318.74 1552.79 Q319.724 1553.16 323.026 1553.16 L323.893 1553.16 L323.893 1554.64 Q319.817 1554.5 315.695 1554.5 L315.391 1554.5 Q312.392 1554.5 308.551 1554.64 Z" fill="#000000" fill-rule="evenodd" fill-opacity="1" /><path clip-path="url(#clip750)" d="M953.518 1554.71 L953.518 1553.23 Q955.72 1553.23 957.336 1552.55 Q958.952 1551.87 959.421 1551.38 Q959.912 1550.87 960.475 1550.05 L968.345 1538.45 L959.514 1525.1 Q958.835 1524.09 957.922 1523.77 Q957.031 1523.44 955.064 1523.44 L954.151 1523.44 L954.151 1521.94 Q956.797 1522.08 960.381 1522.08 Q965.698 1522.08 967.384 1521.94 L967.384 1523.44 Q965.955 1523.48 965.112 1523.95 Q964.269 1524.4 964.269 1524.87 Q964.269 1525.05 964.597 1525.59 L970.78 1534.84 L976.261 1526.74 Q976.683 1526.06 976.683 1525.64 Q976.683 1524.77 975.887 1524.14 Q975.114 1523.48 973.708 1523.44 L973.708 1521.94 Q975.629 1522.08 979.868 1522.08 Q980.407 1522.08 981.274 1522.06 Q982.164 1522.03 983.335 1521.99 Q984.506 1521.94 985.185 1521.94 L985.185 1523.44 Q980.337 1523.48 978.229 1526.55 L971.647 1536.18 L981.766 1551.5 Q982.492 1552.55 983.405 1552.9 Q984.319 1553.23 986.286 1553.23 L987.2 1553.23 L987.2 1554.71 Q984.178 1554.57 980.969 1554.57 Q975.652 1554.57 973.966 1554.71 L973.966 1553.23 Q975.395 1553.18 976.238 1552.74 Q977.081 1552.27 977.081 1551.78 Q977.081 1551.73 976.823 1551.26 L969.258 1539.79 L962.442 1549.86 Q961.974 1550.63 961.974 1551.01 Q961.974 1551.78 962.723 1552.48 Q963.496 1553.16 964.995 1553.23 L964.995 1554.71 Q963.262 1554.57 958.835 1554.57 Q958.694 1554.57 953.518 1554.71 Z" fill="#000000" fill-rule="evenodd" fill-opacity="1" /><path clip-path="url(#clip750)" d="M1610.75 1554.71 L1610.75 1553.23 Q1612.48 1553.23 1613.58 1552.9 Q1614.68 1552.55 1615.08 1551.92 Q1615.5 1551.26 1615.59 1550.84 Q1615.69 1550.4 1615.69 1549.67 L1615.69 1525.69 Q1615.69 1524.3 1615.08 1523.88 Q1614.49 1523.44 1611.89 1523.44 L1610.75 1523.44 L1610.75 1521.94 L1618.85 1521.94 Q1619.72 1521.94 1619.95 1522.1 Q1620.18 1522.24 1620.54 1522.99 L1630.94 1549.86 L1641.43 1522.85 Q1641.66 1522.17 1641.87 1522.06 Q1642.11 1521.94 1643.02 1521.94 L1651.13 1521.94 L1651.13 1523.44 L1649.98 1523.44 Q1647.38 1523.44 1646.77 1523.88 Q1646.18 1524.3 1646.18 1525.69 L1646.18 1550.96 Q1646.18 1552.34 1646.77 1552.79 Q1647.38 1553.23 1649.98 1553.23 L1651.13 1553.23 L1651.13 1554.71 Q1649.35 1554.57 1644.26 1554.57 Q1639.13 1554.57 1637.35 1554.71 L1637.35 1553.23 L1638.52 1553.23 Q1641.12 1553.23 1641.71 1552.81 Q1642.3 1552.36 1642.3 1550.96 L1642.3 1523.44 L1642.25 1523.44 L1630.47 1553.79 Q1630.14 1554.71 1629.6 1554.71 Q1629.02 1554.71 1628.64 1553.65 L1617.07 1523.81 L1617.02 1523.81 L1617.02 1549.67 Q1617.02 1550.4 1617.12 1550.84 Q1617.21 1551.26 1617.61 1551.92 Q1618.03 1552.55 1619.13 1552.9 Q1620.23 1553.23 1621.97 1553.23 L1621.97 1554.71 Q1616.93 1554.57 1616.34 1554.57 Q1615.78 1554.57 1610.75 1554.71 Z" fill="#000000" fill-rule="evenodd" fill-opacity="1" /><path clip-path="url(#clip750)" d="M2278.8 1554.64 L2278.8 1553.16 L2279.51 1553.16 Q2282.06 1553.16 2282.86 1552.81 Q2283.68 1552.43 2283.75 1551.08 L2283.75 1525.48 Q2283.7 1524.23 2282.9 1523.86 Q2282.11 1523.46 2279.51 1523.46 L2278.8 1523.46 L2278.8 1522.01 Q2281.05 1522.1 2285.55 1522.1 Q2287.38 1522.1 2288.95 1522.06 Q2290.54 1522.01 2290.8 1522.01 L2303.84 1522.01 L2305.18 1532.81 L2303.94 1532.81 Q2303.56 1529.88 2303.14 1528.36 Q2302.74 1526.81 2301.76 1525.57 Q2300.77 1524.33 2299.14 1523.91 Q2297.5 1523.46 2294.73 1523.46 L2290.63 1523.46 Q2289.09 1523.46 2288.55 1523.77 Q2288.01 1524.07 2288.01 1525.33 L2288.01 1550.94 Q2288.01 1552.41 2288.99 1552.79 Q2289.98 1553.16 2293.28 1553.16 L2294.15 1553.16 L2294.15 1554.64 Q2290.07 1554.5 2285.95 1554.5 L2285.64 1554.5 Q2282.65 1554.5 2278.8 1554.64 Z" fill="#000000" fill-rule="evenodd" fill-opacity="1" /><polyline clip-path="url(#clip752)" style="stroke:#000000; stroke-linecap:butt; stroke-linejoin:round; stroke-width:2; stroke-opacity:0.1; fill:none" points="
  264.287,1445.72 2352.76,1445.72 
  "/>
<polyline clip-path="url(#clip752)" style="stroke:#000000; stroke-linecap:butt; stroke-linejoin:round; stroke-width:2; stroke-opacity:0.1; fill:none" points="
  264.287,1086.43 2352.76,1086.43 
  "/>
<polyline clip-path="url(#clip752)" style="stroke:#000000; stroke-linecap:butt; stroke-linejoin:round; stroke-width:2; stroke-opacity:0.1; fill:none" points="
  264.287,727.135 2352.76,727.135 
  "/>
<polyline clip-path="url(#clip752)" style="stroke:#000000; stroke-linecap:butt; stroke-linejoin:round; stroke-width:2; stroke-opacity:0.1; fill:none" points="
  264.287,367.845 2352.76,367.845 
  "/>
<polyline clip-path="url(#clip750)" style="stroke:#000000; stroke-linecap:butt; stroke-linejoin:round; stroke-width:4; stroke-opacity:1; fill:none" points="
  264.287,1486.45 264.287,47.2441 
  "/>
<polyline clip-path="url(#clip750)" style="stroke:#000000; stroke-linecap:butt; stroke-linejoin:round; stroke-width:4; stroke-opacity:1; fill:none" points="
  264.287,1445.72 283.185,1445.72 
  "/>
<polyline clip-path="url(#clip750)" style="stroke:#000000; stroke-linecap:butt; stroke-linejoin:round; stroke-width:4; stroke-opacity:1; fill:none" points="
  264.287,1086.43 283.185,1086.43 
  "/>
<polyline clip-path="url(#clip750)" style="stroke:#000000; stroke-linecap:butt; stroke-linejoin:round; stroke-width:4; stroke-opacity:1; fill:none" points="
  264.287,727.135 283.185,727.135 
  "/>
<polyline clip-path="url(#clip750)" style="stroke:#000000; stroke-linecap:butt; stroke-linejoin:round; stroke-width:4; stroke-opacity:1; fill:none" points="
  264.287,367.845 283.185,367.845 
  "/>
<path clip-path="url(#clip750)" d="M216.343 1431.51 Q212.732 1431.51 210.903 1435.08 Q209.098 1438.62 209.098 1445.75 Q209.098 1452.86 210.903 1456.42 Q212.732 1459.96 216.343 1459.96 Q219.977 1459.96 221.783 1456.42 Q223.611 1452.86 223.611 1445.75 Q223.611 1438.62 221.783 1435.08 Q219.977 1431.51 216.343 1431.51 M216.343 1427.81 Q222.153 1427.81 225.209 1432.42 Q228.287 1437 228.287 1445.75 Q228.287 1454.48 225.209 1459.08 Q222.153 1463.67 216.343 1463.67 Q210.533 1463.67 207.454 1459.08 Q204.399 1454.48 204.399 1445.75 Q204.399 1437 207.454 1432.42 Q210.533 1427.81 216.343 1427.81 Z" fill="#000000" fill-rule="evenodd" fill-opacity="1" /><path clip-path="url(#clip750)" d="M116.668 1099.77 L124.306 1099.77 L124.306 1073.4 L115.996 1075.07 L115.996 1070.81 L124.26 1069.15 L128.936 1069.15 L128.936 1099.77 L136.575 1099.77 L136.575 1103.71 L116.668 1103.71 L116.668 1099.77 Z" fill="#000000" fill-rule="evenodd" fill-opacity="1" /><path clip-path="url(#clip750)" d="M156.019 1072.22 Q152.408 1072.22 150.579 1075.79 Q148.774 1079.33 148.774 1086.46 Q148.774 1093.57 150.579 1097.13 Q152.408 1100.67 156.019 1100.67 Q159.653 1100.67 161.459 1097.13 Q163.288 1093.57 163.288 1086.46 Q163.288 1079.33 161.459 1075.79 Q159.653 1072.22 156.019 1072.22 M156.019 1068.52 Q161.829 1068.52 164.885 1073.13 Q167.964 1077.71 167.964 1086.46 Q167.964 1095.19 164.885 1099.79 Q161.829 1104.38 156.019 1104.38 Q150.209 1104.38 147.13 1099.79 Q144.075 1095.19 144.075 1086.46 Q144.075 1077.71 147.13 1073.13 Q150.209 1068.52 156.019 1068.52 Z" fill="#000000" fill-rule="evenodd" fill-opacity="1" /><path clip-path="url(#clip750)" d="M186.181 1072.22 Q182.57 1072.22 180.741 1075.79 Q178.936 1079.33 178.936 1086.46 Q178.936 1093.57 180.741 1097.13 Q182.57 1100.67 186.181 1100.67 Q189.815 1100.67 191.621 1097.13 Q193.45 1093.57 193.45 1086.46 Q193.45 1079.33 191.621 1075.79 Q189.815 1072.22 186.181 1072.22 M186.181 1068.52 Q191.991 1068.52 195.047 1073.13 Q198.125 1077.71 198.125 1086.46 Q198.125 1095.19 195.047 1099.79 Q191.991 1104.38 186.181 1104.38 Q180.371 1104.38 177.292 1099.79 Q174.237 1095.19 174.237 1086.46 Q174.237 1077.71 177.292 1073.13 Q180.371 1068.52 186.181 1068.52 Z" fill="#000000" fill-rule="evenodd" fill-opacity="1" /><path clip-path="url(#clip750)" d="M216.343 1072.22 Q212.732 1072.22 210.903 1075.79 Q209.098 1079.33 209.098 1086.46 Q209.098 1093.57 210.903 1097.13 Q212.732 1100.67 216.343 1100.67 Q219.977 1100.67 221.783 1097.13 Q223.611 1093.57 223.611 1086.46 Q223.611 1079.33 221.783 1075.79 Q219.977 1072.22 216.343 1072.22 M216.343 1068.52 Q222.153 1068.52 225.209 1073.13 Q228.287 1077.71 228.287 1086.46 Q228.287 1095.19 225.209 1099.79 Q222.153 1104.38 216.343 1104.38 Q210.533 1104.38 207.454 1099.79 Q204.399 1095.19 204.399 1086.46 Q204.399 1077.71 207.454 1073.13 Q210.533 1068.52 216.343 1068.52 Z" fill="#000000" fill-rule="evenodd" fill-opacity="1" /><path clip-path="url(#clip750)" d="M119.885 740.48 L136.204 740.48 L136.204 744.415 L114.26 744.415 L114.26 740.48 Q116.922 737.725 121.505 733.096 Q126.112 728.443 127.292 727.1 Q129.538 724.577 130.417 722.841 Q131.32 721.082 131.32 719.392 Q131.32 716.637 129.376 714.901 Q127.455 713.165 124.353 713.165 Q122.154 713.165 119.7 713.929 Q117.269 714.693 114.492 716.244 L114.492 711.522 Q117.316 710.387 119.769 709.809 Q122.223 709.23 124.26 709.23 Q129.63 709.23 132.825 711.915 Q136.019 714.6 136.019 719.091 Q136.019 721.221 135.209 723.142 Q134.422 725.04 132.316 727.633 Q131.737 728.304 128.635 731.522 Q125.533 734.716 119.885 740.48 Z" fill="#000000" fill-rule="evenodd" fill-opacity="1" /><path clip-path="url(#clip750)" d="M156.019 712.934 Q152.408 712.934 150.579 716.499 Q148.774 720.04 148.774 727.17 Q148.774 734.276 150.579 737.841 Q152.408 741.383 156.019 741.383 Q159.653 741.383 161.459 737.841 Q163.288 734.276 163.288 727.17 Q163.288 720.04 161.459 716.499 Q159.653 712.934 156.019 712.934 M156.019 709.23 Q161.829 709.23 164.885 713.837 Q167.964 718.42 167.964 727.17 Q167.964 735.897 164.885 740.503 Q161.829 745.086 156.019 745.086 Q150.209 745.086 147.13 740.503 Q144.075 735.897 144.075 727.17 Q144.075 718.42 147.13 713.837 Q150.209 709.23 156.019 709.23 Z" fill="#000000" fill-rule="evenodd" fill-opacity="1" /><path clip-path="url(#clip750)" d="M186.181 712.934 Q182.57 712.934 180.741 716.499 Q178.936 720.04 178.936 727.17 Q178.936 734.276 180.741 737.841 Q182.57 741.383 186.181 741.383 Q189.815 741.383 191.621 737.841 Q193.45 734.276 193.45 727.17 Q193.45 720.04 191.621 716.499 Q189.815 712.934 186.181 712.934 M186.181 709.23 Q191.991 709.23 195.047 713.837 Q198.125 718.42 198.125 727.17 Q198.125 735.897 195.047 740.503 Q191.991 745.086 186.181 745.086 Q180.371 745.086 177.292 740.503 Q174.237 735.897 174.237 727.17 Q174.237 718.42 177.292 713.837 Q180.371 709.23 186.181 709.23 Z" fill="#000000" fill-rule="evenodd" fill-opacity="1" /><path clip-path="url(#clip750)" d="M216.343 712.934 Q212.732 712.934 210.903 716.499 Q209.098 720.04 209.098 727.17 Q209.098 734.276 210.903 737.841 Q212.732 741.383 216.343 741.383 Q219.977 741.383 221.783 737.841 Q223.611 734.276 223.611 727.17 Q223.611 720.04 221.783 716.499 Q219.977 712.934 216.343 712.934 M216.343 709.23 Q222.153 709.23 225.209 713.837 Q228.287 718.42 228.287 727.17 Q228.287 735.897 225.209 740.503 Q222.153 745.086 216.343 745.086 Q210.533 745.086 207.454 740.503 Q204.399 735.897 204.399 727.17 Q204.399 718.42 207.454 713.837 Q210.533 709.23 216.343 709.23 Z" fill="#000000" fill-rule="evenodd" fill-opacity="1" /><path clip-path="url(#clip750)" d="M130.024 366.491 Q133.38 367.208 135.255 369.477 Q137.154 371.745 137.154 375.079 Q137.154 380.194 133.635 382.995 Q130.117 385.796 123.635 385.796 Q121.459 385.796 119.144 385.356 Q116.853 384.94 114.399 384.083 L114.399 379.569 Q116.343 380.704 118.658 381.282 Q120.973 381.861 123.496 381.861 Q127.894 381.861 130.186 380.125 Q132.501 378.389 132.501 375.079 Q132.501 372.023 130.348 370.31 Q128.218 368.574 124.399 368.574 L120.371 368.574 L120.371 364.731 L124.584 364.731 Q128.033 364.731 129.862 363.366 Q131.691 361.977 131.691 359.384 Q131.691 356.722 129.792 355.31 Q127.917 353.875 124.399 353.875 Q122.478 353.875 120.279 354.292 Q118.08 354.708 115.441 355.588 L115.441 351.421 Q118.103 350.681 120.418 350.31 Q122.755 349.94 124.816 349.94 Q130.14 349.94 133.242 352.37 Q136.343 354.778 136.343 358.898 Q136.343 361.768 134.7 363.759 Q133.056 365.727 130.024 366.491 Z" fill="#000000" fill-rule="evenodd" fill-opacity="1" /><path clip-path="url(#clip750)" d="M156.019 353.643 Q152.408 353.643 150.579 357.208 Q148.774 360.75 148.774 367.88 Q148.774 374.986 150.579 378.551 Q152.408 382.092 156.019 382.092 Q159.653 382.092 161.459 378.551 Q163.288 374.986 163.288 367.88 Q163.288 360.75 161.459 357.208 Q159.653 353.643 156.019 353.643 M156.019 349.94 Q161.829 349.94 164.885 354.546 Q167.964 359.13 167.964 367.88 Q167.964 376.606 164.885 381.213 Q161.829 385.796 156.019 385.796 Q150.209 385.796 147.13 381.213 Q144.075 376.606 144.075 367.88 Q144.075 359.13 147.13 354.546 Q150.209 349.94 156.019 349.94 Z" fill="#000000" fill-rule="evenodd" fill-opacity="1" /><path clip-path="url(#clip750)" d="M186.181 353.643 Q182.57 353.643 180.741 357.208 Q178.936 360.75 178.936 367.88 Q178.936 374.986 180.741 378.551 Q182.57 382.092 186.181 382.092 Q189.815 382.092 191.621 378.551 Q193.45 374.986 193.45 367.88 Q193.45 360.75 191.621 357.208 Q189.815 353.643 186.181 353.643 M186.181 349.94 Q191.991 349.94 195.047 354.546 Q198.125 359.13 198.125 367.88 Q198.125 376.606 195.047 381.213 Q191.991 385.796 186.181 385.796 Q180.371 385.796 177.292 381.213 Q174.237 376.606 174.237 367.88 Q174.237 359.13 177.292 354.546 Q180.371 349.94 186.181 349.94 Z" fill="#000000" fill-rule="evenodd" fill-opacity="1" /><path clip-path="url(#clip750)" d="M216.343 353.643 Q212.732 353.643 210.903 357.208 Q209.098 360.75 209.098 367.88 Q209.098 374.986 210.903 378.551 Q212.732 382.092 216.343 382.092 Q219.977 382.092 221.783 378.551 Q223.611 374.986 223.611 367.88 Q223.611 360.75 221.783 357.208 Q219.977 353.643 216.343 353.643 M216.343 349.94 Q222.153 349.94 225.209 354.546 Q228.287 359.13 228.287 367.88 Q228.287 376.606 225.209 381.213 Q222.153 385.796 216.343 385.796 Q210.533 385.796 207.454 381.213 Q204.399 376.606 204.399 367.88 Q204.399 359.13 207.454 354.546 Q210.533 349.94 216.343 349.94 Z" fill="#000000" fill-rule="evenodd" fill-opacity="1" /><path clip-path="url(#clip750)" d="M20.8447 994.42 Q20.8447 1001.42 26.0645 1005.56 Q31.2844 1009.67 40.2919 1009.67 Q49.2675 1009.67 54.4874 1005.56 Q59.7073 1001.42 59.7073 994.42 Q59.7073 987.418 54.4874 983.344 Q49.2675 979.238 40.2919 979.238 Q31.2844 979.238 26.0645 983.344 Q20.8447 987.418 20.8447 994.42 M63.1448 985.413 L72.4069 976.946 L72.4069 984.712 L64.7999 991.746 Q64.8635 992.797 64.8954 993.37 Q64.9272 993.911 64.9272 994.42 Q64.9272 1004.45 58.2432 1010.46 Q51.5274 1016.45 40.2919 1016.45 Q29.0246 1016.45 22.3406 1010.46 Q15.6248 1004.45 15.6248 994.42 Q15.6248 984.426 22.3406 978.442 Q29.0246 972.458 40.2919 972.458 Q48.5673 972.458 54.4556 975.8 Q60.3439 979.11 63.1448 985.413 Z" fill="#000000" fill-rule="evenodd" fill-opacity="1" /><path clip-path="url(#clip750)" d="M49.9359 963.26 L28.3562 963.26 L28.3562 957.403 L49.7131 957.403 Q54.7739 957.403 57.3202 955.43 Q59.8346 953.457 59.8346 949.51 Q59.8346 944.767 56.8109 942.03 Q53.7872 939.261 48.5673 939.261 L28.3562 939.261 L28.3562 933.405 L64.0042 933.405 L64.0042 939.261 L58.5296 939.261 Q61.7762 941.394 63.3676 944.226 Q64.9272 947.027 64.9272 950.751 Q64.9272 956.894 61.1078 960.077 Q57.2883 963.26 49.9359 963.26 M27.4968 948.523 L27.4968 948.523 Z" fill="#000000" fill-rule="evenodd" fill-opacity="1" /><path clip-path="url(#clip750)" d="M46.0847 905.141 Q46.0847 912.239 47.7079 914.976 Q49.3312 917.713 53.2461 917.713 Q56.3653 917.713 58.2114 915.676 Q60.0256 913.607 60.0256 910.074 Q60.0256 905.205 56.5881 902.276 Q53.1188 899.316 47.3897 899.316 L46.0847 899.316 L46.0847 905.141 M43.6657 893.46 L64.0042 893.46 L64.0042 899.316 L58.5933 899.316 Q61.8398 901.322 63.3994 904.313 Q64.9272 907.305 64.9272 911.634 Q64.9272 917.108 61.8716 920.355 Q58.7843 923.57 53.6281 923.57 Q47.6125 923.57 44.5569 919.559 Q41.5014 915.517 41.5014 907.528 L41.5014 899.316 L40.9285 899.316 Q36.8862 899.316 34.6901 901.99 Q32.4621 904.632 32.4621 909.438 Q32.4621 912.493 33.1941 915.39 Q33.9262 918.286 35.3903 920.96 L29.9795 920.96 Q28.7381 917.745 28.1334 914.721 Q27.4968 911.698 27.4968 908.833 Q27.4968 901.099 31.5072 897.279 Q35.5176 893.46 43.6657 893.46 Z" fill="#000000" fill-rule="evenodd" fill-opacity="1" /><path clip-path="url(#clip750)" d="M42.4881 851.765 L64.0042 851.765 L64.0042 857.621 L42.679 857.621 Q37.6183 857.621 35.1038 859.594 Q32.5894 861.568 32.5894 865.514 Q32.5894 870.257 35.6131 872.994 Q38.6368 875.731 43.8567 875.731 L64.0042 875.731 L64.0042 881.62 L28.3562 881.62 L28.3562 875.731 L33.8944 875.731 Q30.6797 873.631 29.0883 870.798 Q27.4968 867.933 27.4968 864.209 Q27.4968 858.067 31.3163 854.916 Q35.1038 851.765 42.4881 851.765 Z" fill="#000000" fill-rule="evenodd" fill-opacity="1" /><path clip-path="url(#clip750)" d="M18.2347 834.291 L28.3562 834.291 L28.3562 822.228 L32.9077 822.228 L32.9077 834.291 L52.2594 834.291 Q56.6199 834.291 57.8613 833.113 Q59.1026 831.904 59.1026 828.243 L59.1026 822.228 L64.0042 822.228 L64.0042 828.243 Q64.0042 835.023 61.4897 837.601 Q58.9434 840.179 52.2594 840.179 L32.9077 840.179 L32.9077 844.476 L28.3562 844.476 L28.3562 840.179 L18.2347 840.179 L18.2347 834.291 Z" fill="#000000" fill-rule="evenodd" fill-opacity="1" /><path clip-path="url(#clip750)" d="M49.9359 815.13 L28.3562 815.13 L28.3562 809.273 L49.7131 809.273 Q54.7739 809.273 57.3202 807.3 Q59.8346 805.327 59.8346 801.38 Q59.8346 796.637 56.8109 793.9 Q53.7872 791.131 48.5673 791.131 L28.3562 791.131 L28.3562 785.275 L64.0042 785.275 L64.0042 791.131 L58.5296 791.131 Q61.7762 793.264 63.3676 796.096 Q64.9272 798.897 64.9272 802.621 Q64.9272 808.764 61.1078 811.947 Q57.2883 815.13 49.9359 815.13 M27.4968 800.393 L27.4968 800.393 Z" fill="#000000" fill-rule="evenodd" fill-opacity="1" /><path clip-path="url(#clip750)" d="M35.1993 745.457 Q31.2526 743.261 29.3747 740.206 Q27.4968 737.15 27.4968 733.012 Q27.4968 727.442 31.4117 724.419 Q35.2948 721.395 42.4881 721.395 L64.0042 721.395 L64.0042 727.283 L42.679 727.283 Q37.5546 727.283 35.072 729.097 Q32.5894 730.912 32.5894 734.636 Q32.5894 739.187 35.6131 741.829 Q38.6368 744.471 43.8567 744.471 L64.0042 744.471 L64.0042 750.359 L42.679 750.359 Q37.5228 750.359 35.072 752.173 Q32.5894 753.987 32.5894 757.775 Q32.5894 762.263 35.6449 764.904 Q38.6686 767.546 43.8567 767.546 L64.0042 767.546 L64.0042 773.434 L28.3562 773.434 L28.3562 767.546 L33.8944 767.546 Q30.616 765.541 29.0564 762.74 Q27.4968 759.939 27.4968 756.088 Q27.4968 752.205 29.4702 749.499 Q31.4436 746.762 35.1993 745.457 Z" fill="#000000" fill-rule="evenodd" fill-opacity="1" /><path clip-path="url(#clip750)" d="M16.4842 709.459 L16.4842 699.879 L48.8219 687.752 L16.4842 675.562 L16.4842 665.981 L64.0042 665.981 L64.0042 672.252 L22.277 672.252 L54.8694 684.506 L54.8694 690.967 L22.277 703.221 L64.0042 703.221 L64.0042 709.459 L16.4842 709.459 Z" fill="#000000" fill-rule="evenodd" fill-opacity="1" /><path clip-path="url(#clip750)" d="M44.7161 622.981 L47.5806 622.981 L47.5806 649.908 Q53.6281 649.526 56.8109 646.28 Q59.9619 643.001 59.9619 637.177 Q59.9619 633.803 59.1344 630.652 Q58.3069 627.469 56.6518 624.35 L62.1899 624.35 Q63.5267 627.501 64.227 630.811 Q64.9272 634.121 64.9272 637.527 Q64.9272 646.057 59.9619 651.054 Q54.9967 656.019 46.5303 656.019 Q37.7774 656.019 32.6531 651.308 Q27.4968 646.566 27.4968 638.545 Q27.4968 631.352 32.1438 627.182 Q36.7589 622.981 44.7161 622.981 M42.9973 628.837 Q38.1912 628.901 35.3266 631.543 Q32.4621 634.153 32.4621 638.482 Q32.4621 643.383 35.2312 646.343 Q38.0002 649.271 43.0292 649.717 L42.9973 628.837 Z" fill="#000000" fill-rule="evenodd" fill-opacity="1" /><path clip-path="url(#clip750)" d="M18.2347 607.576 L28.3562 607.576 L28.3562 595.513 L32.9077 595.513 L32.9077 607.576 L52.2594 607.576 Q56.6199 607.576 57.8613 606.398 Q59.1026 605.189 59.1026 601.529 L59.1026 595.513 L64.0042 595.513 L64.0042 601.529 Q64.0042 608.308 61.4897 610.886 Q58.9434 613.464 52.2594 613.464 L32.9077 613.464 L32.9077 617.761 L28.3562 617.761 L28.3562 613.464 L18.2347 613.464 L18.2347 607.576 Z" fill="#000000" fill-rule="evenodd" fill-opacity="1" /><path clip-path="url(#clip750)" d="M33.8307 567.154 Q33.2578 568.14 33.0032 569.318 Q32.7167 570.464 32.7167 571.864 Q32.7167 576.83 35.9632 579.503 Q39.1779 582.145 45.2253 582.145 L64.0042 582.145 L64.0042 588.033 L28.3562 588.033 L28.3562 582.145 L33.8944 582.145 Q30.6479 580.299 29.0883 577.339 Q27.4968 574.379 27.4968 570.146 Q27.4968 569.541 27.5923 568.809 Q27.656 568.077 27.8151 567.186 L33.8307 567.154 Z" fill="#000000" fill-rule="evenodd" fill-opacity="1" /><path clip-path="url(#clip750)" d="M28.3562 561.011 L28.3562 555.154 L64.0042 555.154 L64.0042 561.011 L28.3562 561.011 M14.479 561.011 L14.479 555.154 L21.895 555.154 L21.895 561.011 L14.479 561.011 Z" fill="#000000" fill-rule="evenodd" fill-opacity="1" /><path clip-path="url(#clip750)" d="M29.7248 517.247 L35.1993 517.247 Q33.8307 519.729 33.1623 522.244 Q32.4621 524.726 32.4621 527.273 Q32.4621 532.97 36.0905 536.121 Q39.6872 539.272 46.212 539.272 Q52.7369 539.272 56.3653 536.121 Q59.9619 532.97 59.9619 527.273 Q59.9619 524.726 59.2935 522.244 Q58.5933 519.729 57.2247 517.247 L62.6355 517.247 Q63.7814 519.697 64.3543 522.339 Q64.9272 524.949 64.9272 527.909 Q64.9272 535.962 59.8664 540.704 Q54.8057 545.447 46.212 545.447 Q37.491 545.447 32.4939 540.672 Q27.4968 535.866 27.4968 527.527 Q27.4968 524.822 28.0697 522.244 Q28.6108 519.666 29.7248 517.247 Z" fill="#000000" fill-rule="evenodd" fill-opacity="1" /><polyline clip-path="url(#clip752)" style="stroke:#009af9; stroke-linecap:butt; stroke-linejoin:round; stroke-width:4; stroke-opacity:1; fill:none" points="
  323.395,1445.71 336.618,1445.71 349.841,1445.71 363.064,1445.71 376.288,1445.71 389.511,1445.71 402.734,1445.71 415.957,1445.71 429.18,1445.71 442.404,1445.71 
  455.627,1445.71 468.85,1445.71 482.073,1445.71 495.296,1445.71 508.519,1445.71 521.743,1445.71 534.966,1445.71 548.189,1445.71 561.412,1445.71 574.635,1445.71 
  587.858,1445.71 601.082,1445.71 614.305,1445.71 627.528,1445.71 640.751,1445.71 653.974,1445.71 667.198,1445.71 680.421,1445.71 693.644,1445.71 706.867,1445.7 
  720.09,1445.7 733.313,1445.7 746.537,1445.7 759.76,1445.7 772.983,1445.7 786.206,1445.7 799.429,1445.7 812.652,1445.7 825.876,1445.69 839.099,1445.69 
  852.322,1445.69 865.545,1445.69 878.768,1445.69 891.992,1445.68 905.215,1445.68 918.438,1445.68 931.661,1445.68 944.884,1445.68 958.107,1445.67 971.331,1445.67 
  984.554,1445.67 997.777,1445.67 1011,1445.67 1024.22,1445.67 1037.45,1445.67 1050.67,1445.67 1063.89,1445.67 1077.12,1445.67 1090.34,1445.67 1103.56,1445.67 
  1116.79,1445.67 1130.01,1445.67 1143.23,1445.67 1156.46,1445.67 1169.68,1445.67 1182.9,1445.67 1196.12,1445.67 1209.35,1445.66 1222.57,1445.66 1235.79,1445.66 
  1249.02,1445.66 1262.24,1445.66 1275.46,1445.66 1288.69,1445.65 1301.91,1445.65 1315.13,1445.65 1328.36,1445.64 1341.58,1445.64 1354.8,1445.63 1368.03,1445.63 
  1381.25,1445.62 1394.47,1445.61 1407.7,1445.6 1420.92,1445.59 1434.14,1445.57 1447.36,1445.55 1460.59,1445.53 1473.81,1445.5 1487.03,1445.46 1500.26,1445.41 
  1513.48,1445.34 1526.7,1445.24 1539.93,1445.09 1553.15,1444.86 1566.37,1444.47 1579.6,1443.71 1592.82,1441.97 1606.04,1436.9 1619.27,1420.68 1632.49,1401.54 
  1645.71,1429.51 1658.94,1441.5 1672.16,1444 1685.38,1444.81 1698.61,1445.16 1711.83,1445.35 1725.05,1445.46 1738.27,1445.53 1751.5,1445.58 1764.72,1445.61 
  1777.94,1445.63 1791.17,1445.65 1804.39,1445.66 1817.61,1445.67 1830.84,1445.68 1844.06,1445.69 1857.28,1445.69 1870.51,1445.69 1883.73,1445.7 1896.95,1445.7 
  1910.18,1445.7 1923.4,1445.7 1936.62,1445.7 1949.85,1445.7 1963.07,1445.71 1976.29,1445.71 1989.52,1445.71 2002.74,1445.71 2015.96,1445.71 2029.18,1445.71 
  2042.41,1445.71 2055.63,1445.71 2068.85,1445.71 2082.08,1445.71 2095.3,1445.71 2108.52,1445.71 2121.75,1445.71 2134.97,1445.71 2148.19,1445.71 2161.42,1445.71 
  2174.64,1445.71 2187.86,1445.71 2201.09,1445.71 2214.31,1445.71 2227.53,1445.71 2240.76,1445.71 2253.98,1445.71 2267.2,1445.71 2280.43,1445.71 2293.65,1445.71 
  
  "/>
<polyline clip-path="url(#clip752)" style="stroke:#e26f46; stroke-linecap:butt; stroke-linejoin:round; stroke-width:4; stroke-opacity:1; fill:none" points="
  323.395,1445.72 336.618,1445.72 349.841,1445.72 363.064,1445.72 376.288,1445.72 389.511,1445.72 402.734,1445.72 415.957,1445.72 429.18,1445.72 442.404,1445.72 
  455.627,1445.72 468.85,1445.72 482.073,1445.72 495.296,1445.72 508.519,1445.72 521.743,1445.72 534.966,1445.72 548.189,1445.72 561.412,1445.72 574.635,1445.72 
  587.858,1445.72 601.082,1445.72 614.305,1445.72 627.528,1445.72 640.751,1445.72 653.974,1445.72 667.198,1445.72 680.421,1445.72 693.644,1445.72 706.867,1445.72 
  720.09,1445.72 733.313,1445.72 746.537,1445.72 759.76,1445.72 772.983,1445.72 786.206,1445.72 799.429,1445.72 812.652,1445.72 825.876,1445.72 839.099,1445.72 
  852.322,1445.72 865.545,1445.72 878.768,1445.72 891.992,1445.71 905.215,1445.71 918.438,1445.71 931.661,1445.71 944.884,1445.71 958.107,1445.71 971.331,1445.71 
  984.554,1445.71 997.777,1445.71 1011,1445.71 1024.22,1445.71 1037.45,1445.71 1050.67,1445.71 1063.89,1445.71 1077.12,1445.71 1090.34,1445.71 1103.56,1445.71 
  1116.79,1445.71 1130.01,1445.71 1143.23,1445.71 1156.46,1445.71 1169.68,1445.71 1182.9,1445.71 1196.12,1445.71 1209.35,1445.71 1222.57,1445.71 1235.79,1445.71 
  1249.02,1445.71 1262.24,1445.71 1275.46,1445.71 1288.69,1445.71 1301.91,1445.71 1315.13,1445.71 1328.36,1445.71 1341.58,1445.71 1354.8,1445.71 1368.03,1445.71 
  1381.25,1445.71 1394.47,1445.71 1407.7,1445.71 1420.92,1445.71 1434.14,1445.71 1447.36,1445.7 1460.59,1445.7 1473.81,1445.69 1487.03,1445.69 1500.26,1445.67 
  1513.48,1445.65 1526.7,1445.61 1539.93,1445.54 1553.15,1445.37 1566.37,1444.95 1579.6,1443.58 1592.82,1437.44 1606.04,1394.76 1619.27,1012.26 1632.49,87.9763 
  1645.71,1266.23 1658.94,1434.97 1672.16,1444.14 1685.38,1445.3 1698.61,1445.56 1711.83,1445.65 1725.05,1445.68 1738.27,1445.7 1751.5,1445.7 1764.72,1445.71 
  1777.94,1445.71 1791.17,1445.71 1804.39,1445.71 1817.61,1445.71 1830.84,1445.71 1844.06,1445.72 1857.28,1445.72 1870.51,1445.72 1883.73,1445.72 1896.95,1445.72 
  1910.18,1445.72 1923.4,1445.72 1936.62,1445.72 1949.85,1445.72 1963.07,1445.72 1976.29,1445.72 1989.52,1445.72 2002.74,1445.72 2015.96,1445.72 2029.18,1445.72 
  2042.41,1445.72 2055.63,1445.72 2068.85,1445.72 2082.08,1445.72 2095.3,1445.72 2108.52,1445.72 2121.75,1445.72 2134.97,1445.72 2148.19,1445.72 2161.42,1445.72 
  2174.64,1445.72 2187.86,1445.72 2201.09,1445.72 2214.31,1445.72 2227.53,1445.72 2240.76,1445.72 2253.98,1445.72 2267.2,1445.72 2280.43,1445.72 2293.65,1445.72 
  
  "/>
<polyline clip-path="url(#clip752)" style="stroke:#3da44d; stroke-linecap:butt; stroke-linejoin:round; stroke-width:4; stroke-opacity:1; fill:none" points="
  323.395,1445.71 336.618,1445.71 349.841,1445.71 363.064,1445.71 376.288,1445.71 389.511,1445.71 402.734,1445.71 415.957,1445.71 429.18,1445.71 442.404,1445.71 
  455.627,1445.71 468.85,1445.71 482.073,1445.71 495.296,1445.71 508.519,1445.71 521.743,1445.71 534.966,1445.71 548.189,1445.71 561.412,1445.71 574.635,1445.71 
  587.858,1445.71 601.082,1445.71 614.305,1445.71 627.528,1445.71 640.751,1445.71 653.974,1445.71 667.198,1445.71 680.421,1445.71 693.644,1445.71 706.867,1445.71 
  720.09,1445.71 733.313,1445.71 746.537,1445.71 759.76,1445.71 772.983,1445.71 786.206,1445.71 799.429,1445.71 812.652,1445.71 825.876,1445.71 839.099,1445.71 
  852.322,1445.7 865.545,1445.7 878.768,1445.7 891.992,1445.7 905.215,1445.7 918.438,1445.7 931.661,1445.7 944.884,1445.7 958.107,1445.7 971.331,1445.7 
  984.554,1445.7 997.777,1445.7 1011,1445.7 1024.22,1445.69 1037.45,1445.69 1050.67,1445.69 1063.89,1445.69 1077.12,1445.69 1090.34,1445.69 1103.56,1445.69 
  1116.79,1445.69 1130.01,1445.69 1143.23,1445.69 1156.46,1445.69 1169.68,1445.69 1182.9,1445.69 1196.12,1445.69 1209.35,1445.69 1222.57,1445.69 1235.79,1445.69 
  1249.02,1445.69 1262.24,1445.69 1275.46,1445.69 1288.69,1445.69 1301.91,1445.68 1315.13,1445.68 1328.36,1445.68 1341.58,1445.68 1354.8,1445.68 1368.03,1445.67 
  1381.25,1445.67 1394.47,1445.67 1407.7,1445.66 1420.92,1445.66 1434.14,1445.65 1447.36,1445.65 1460.59,1445.64 1473.81,1445.63 1487.03,1445.61 1500.26,1445.59 
  1513.48,1445.56 1526.7,1445.52 1539.93,1445.46 1553.15,1445.36 1566.37,1445.19 1579.6,1444.84 1592.82,1443.99 1606.04,1441.44 1619.27,1433.24 1632.49,1423.63 
  1645.71,1437.69 1658.94,1443.75 1672.16,1444.96 1685.38,1445.33 1698.61,1445.48 1711.83,1445.56 1725.05,1445.6 1738.27,1445.63 1751.5,1445.65 1764.72,1445.66 
  1777.94,1445.68 1791.17,1445.68 1804.39,1445.69 1817.61,1445.69 1830.84,1445.7 1844.06,1445.7 1857.28,1445.7 1870.51,1445.71 1883.73,1445.71 1896.95,1445.71 
  1910.18,1445.71 1923.4,1445.71 1936.62,1445.71 1949.85,1445.71 1963.07,1445.72 1976.29,1445.71 1989.52,1445.71 2002.74,1445.71 2015.96,1445.71 2029.18,1445.71 
  2042.41,1445.71 2055.63,1445.71 2068.85,1445.71 2082.08,1445.71 2095.3,1445.71 2108.52,1445.71 2121.75,1445.71 2134.97,1445.71 2148.19,1445.71 2161.42,1445.71 
  2174.64,1445.71 2187.86,1445.71 2201.09,1445.71 2214.31,1445.71 2227.53,1445.71 2240.76,1445.71 2253.98,1445.71 2267.2,1445.71 2280.43,1445.71 2293.65,1445.71 
  
  "/>
<path clip-path="url(#clip750)" d="
M1891.49 338.83 L2283.14 338.83 L2283.14 95.2176 L1891.49 95.2176  Z
  " fill="#ffffff" fill-rule="evenodd" fill-opacity="1"/>
<polyline clip-path="url(#clip750)" style="stroke:#000000; stroke-linecap:butt; stroke-linejoin:round; stroke-width:4; stroke-opacity:1; fill:none" points="
  1891.49,338.83 2283.14,338.83 2283.14,95.2176 1891.49,95.2176 1891.49,338.83 
  "/>
<polyline clip-path="url(#clip750)" style="stroke:#009af9; stroke-linecap:butt; stroke-linejoin:round; stroke-width:4; stroke-opacity:1; fill:none" points="
  1914.69,156.121 2053.92,156.121 
  "/>
<path clip-path="url(#clip750)" d="M2077.13 153.218 L2078.04 142.444 L2107.34 142.444 L2108.26 153.218 L2107.06 153.218 Q2106.87 151.064 2106.69 149.822 Q2106.52 148.581 2106.1 147.41 Q2105.7 146.215 2105.19 145.653 Q2104.7 145.067 2103.74 144.622 Q2102.78 144.154 2101.53 144.037 Q2100.29 143.92 2098.42 143.92 Q2096.22 143.92 2095.68 144.013 Q2095.09 144.154 2094.95 144.575 Q2094.81 144.974 2094.81 145.84 L2094.81 171.113 Q2094.81 172.073 2095 172.472 Q2095.21 172.846 2096.31 173.151 Q2097.41 173.432 2099.85 173.432 L2101.77 173.432 L2101.77 174.908 Q2099.8 174.767 2092.66 174.767 Q2085.56 174.767 2083.59 174.908 L2083.59 173.432 L2085.51 173.432 Q2087.95 173.432 2089.05 173.151 Q2090.17 172.846 2090.36 172.472 Q2090.55 172.073 2090.55 171.113 L2090.55 145.84 Q2090.55 145.161 2090.5 144.88 Q2090.46 144.599 2090.24 144.365 Q2090.03 144.107 2089.54 144.013 Q2089.07 143.92 2086.97 143.92 Q2085.09 143.92 2083.83 144.037 Q2082.59 144.154 2081.63 144.622 Q2080.67 145.067 2080.15 145.653 Q2079.66 146.215 2079.24 147.41 Q2078.84 148.581 2078.67 149.822 Q2078.51 151.064 2078.32 153.218 L2077.13 153.218 Z" fill="#000000" fill-rule="evenodd" fill-opacity="1" /><path clip-path="url(#clip750)" d="M2115.3 174.908 L2115.3 173.432 Q2117.86 173.432 2118.44 173.127 Q2119.05 172.8 2119.05 171.254 L2119.05 158.395 Q2119.05 156.615 2118.42 156.17 Q2117.81 155.725 2115.3 155.725 L2115.3 154.226 L2121.98 153.71 L2121.98 158.98 Q2122.66 156.919 2124.09 155.326 Q2125.54 153.71 2127.88 153.71 Q2129.43 153.71 2130.41 154.577 Q2131.42 155.444 2131.42 156.638 Q2131.42 157.692 2130.76 158.231 Q2130.13 158.746 2129.36 158.746 Q2128.49 158.746 2127.88 158.207 Q2127.29 157.645 2127.29 156.685 Q2127.29 156.099 2127.55 155.654 Q2127.83 155.186 2128.04 155.022 Q2128.25 154.858 2128.4 154.811 Q2128.3 154.764 2127.88 154.764 Q2125.23 154.764 2123.71 157.411 Q2122.21 160.034 2122.21 163.782 L2122.21 171.16 Q2122.21 172.542 2122.77 172.987 Q2123.36 173.432 2125.87 173.432 L2126.87 173.432 L2126.87 174.908 Q2124.95 174.767 2120.78 174.767 Q2120.2 174.767 2119.28 174.79 Q2118.37 174.814 2117.18 174.861 Q2115.98 174.908 2115.3 174.908 Z" fill="#000000" fill-rule="evenodd" fill-opacity="1" /><path clip-path="url(#clip750)" d="M2133.86 162.915 Q2133.86 154.811 2136.88 148.276 Q2138.17 145.536 2139.97 143.24 Q2141.77 140.945 2142.97 139.938 Q2144.16 138.931 2144.49 138.931 Q2144.96 138.931 2144.98 139.399 Q2144.98 139.633 2144.35 140.219 Q2136.62 148.089 2136.64 162.915 Q2136.64 177.789 2144.16 185.354 Q2144.98 186.174 2144.98 186.431 Q2144.98 186.9 2144.49 186.9 Q2144.16 186.9 2143.01 185.94 Q2141.87 184.979 2140.09 182.777 Q2138.31 180.576 2137.02 177.882 Q2133.86 171.347 2133.86 162.915 Z" fill="#000000" fill-rule="evenodd" fill-opacity="1" /><path clip-path="url(#clip750)" d="M2169.68 155.959 Q2169.68 155.982 2169.54 156.825 L2164.2 178.116 Q2163.92 179.241 2163.12 180.365 Q2162.35 181.513 2161.11 182.496 Q2159.89 183.504 2158.02 184.113 Q2156.17 184.745 2154.04 184.745 Q2150.64 184.745 2149.14 184.019 Q2147.66 183.316 2147.66 181.817 Q2147.66 180.506 2148.48 179.756 Q2149.3 179.03 2150.24 179.03 Q2151.13 179.03 2151.6 179.545 Q2152.07 180.06 2152.07 180.716 Q2152.07 181.442 2151.58 182.169 Q2151.08 182.918 2150.1 183.199 Q2151.67 183.691 2153.94 183.691 Q2158.74 183.691 2160.8 178.608 Q2160.85 178.538 2160.85 178.515 L2162.44 172.167 L2162.37 172.12 Q2161.98 172.589 2161.34 173.127 Q2160.73 173.643 2159.42 174.275 Q2158.11 174.908 2156.82 174.908 Q2154.13 174.908 2152.28 172.846 Q2150.45 170.762 2150.45 167.319 Q2150.45 164.812 2151.46 162.306 Q2152.49 159.777 2154.08 157.926 Q2155.7 156.052 2157.76 154.881 Q2159.84 153.71 2161.86 153.71 Q2163.26 153.71 2164.46 154.553 Q2165.65 155.373 2166.31 156.732 Q2166.43 155.607 2167.06 155.139 Q2167.71 154.671 2168.28 154.671 Q2168.91 154.671 2169.28 155.022 Q2169.68 155.35 2169.68 155.959 M2165.75 158.887 Q2165.75 158.746 2165.65 158.371 Q2165.56 157.973 2165.28 157.341 Q2165.02 156.708 2164.62 156.146 Q2164.22 155.584 2163.5 155.186 Q2162.8 154.764 2161.91 154.764 Q2160.45 154.764 2159 155.982 Q2157.55 157.177 2156.54 159.027 Q2155.6 160.807 2154.71 164.25 Q2153.85 167.693 2153.85 169.45 Q2153.85 171.183 2154.6 172.518 Q2155.35 173.854 2156.96 173.854 Q2158.84 173.854 2160.85 172.12 Q2162.94 170.317 2163.29 168.771 L2165.61 159.613 Q2165.75 159.051 2165.75 158.887 Z" fill="#000000" fill-rule="evenodd" fill-opacity="1" /><path clip-path="url(#clip750)" d="M2174.33 186.431 Q2174.33 186.197 2174.94 185.612 Q2182.67 177.742 2182.67 162.915 Q2182.67 148.042 2175.25 140.523 Q2174.33 139.657 2174.33 139.399 Q2174.33 138.931 2174.8 138.931 Q2175.13 138.931 2176.28 139.891 Q2177.45 140.851 2179.2 143.053 Q2180.99 145.255 2182.3 147.948 Q2185.46 154.483 2185.46 162.915 Q2185.46 171.019 2182.44 177.554 Q2181.15 180.295 2179.35 182.59 Q2177.54 184.886 2176.35 185.893 Q2175.15 186.9 2174.8 186.9 Q2174.33 186.9 2174.33 186.431 Z" fill="#000000" fill-rule="evenodd" fill-opacity="1" /><polyline clip-path="url(#clip750)" style="stroke:#e26f46; stroke-linecap:butt; stroke-linejoin:round; stroke-width:4; stroke-opacity:1; fill:none" points="
  1914.69,217.024 2053.92,217.024 
  "/>
<path clip-path="url(#clip750)" d="M2077.13 225.505 Q2077.13 220.937 2080.31 217.775 Q2083.5 214.613 2087.81 214.613 Q2091.46 214.613 2093.85 217.588 L2093.85 207.212 Q2093.85 205.432 2093.22 204.987 Q2092.61 204.542 2090.13 204.542 L2090.13 203.043 L2097.04 202.527 L2097.04 231.641 Q2097.04 233.421 2097.65 233.89 Q2098.28 234.335 2100.76 234.335 L2100.76 235.811 L2093.71 236.349 L2093.71 233.164 Q2091.23 236.326 2087.29 236.349 Q2083.17 236.349 2080.15 233.187 Q2077.13 230.025 2077.13 225.505 M2081.11 225.552 Q2081.11 230.002 2082.49 232.203 Q2084.41 235.272 2087.53 235.272 Q2091.09 235.272 2093.2 231.922 Q2093.73 231.103 2093.71 230.142 L2093.71 220.305 Q2093.71 219.345 2093.2 218.548 Q2091.23 215.667 2088.02 215.667 Q2084.67 215.667 2082.59 218.736 Q2081.11 221.031 2081.11 225.552 Z" fill="#000000" fill-rule="evenodd" fill-opacity="1" /><path clip-path="url(#clip750)" d="M2103.67 225.247 Q2103.67 220.726 2106.57 217.518 Q2109.48 214.309 2113.65 214.309 Q2117.86 214.309 2120.04 217.049 Q2122.24 219.79 2122.24 223.725 Q2122.24 224.451 2122.05 224.591 Q2121.87 224.732 2121.05 224.732 L2107.65 224.732 Q2107.65 229.627 2109.1 231.922 Q2111.12 235.131 2114.51 235.131 Q2114.98 235.131 2115.54 235.038 Q2116.11 234.944 2117.25 234.546 Q2118.4 234.124 2119.41 233.023 Q2120.42 231.922 2121 230.189 Q2121.14 229.51 2121.61 229.533 Q2122.24 229.533 2122.24 230.095 Q2122.24 230.517 2121.77 231.477 Q2121.33 232.414 2120.46 233.539 Q2119.6 234.663 2117.91 235.506 Q2116.25 236.349 2114.23 236.349 Q2110.02 236.349 2106.83 233.164 Q2103.67 229.955 2103.67 225.247 M2107.7 223.725 L2119.08 223.725 Q2119.08 222.717 2118.89 221.593 Q2118.73 220.469 2118.21 218.923 Q2117.72 217.354 2116.55 216.37 Q2115.38 215.386 2113.65 215.386 Q2112.87 215.386 2112.03 215.714 Q2111.21 216.042 2110.2 216.838 Q2109.2 217.635 2108.49 219.438 Q2107.79 221.242 2107.7 223.725 Z" fill="#000000" fill-rule="evenodd" fill-opacity="1" /><path clip-path="url(#clip750)" d="M2122.67 216.628 L2122.67 215.574 Q2124.87 215.48 2126.32 213.934 Q2127.8 212.365 2128.29 210.444 Q2128.8 208.523 2128.85 206.298 L2130.04 206.298 L2130.04 215.129 L2136.91 215.129 L2136.91 216.628 L2130.04 216.628 L2130.04 229.955 Q2130.04 235.131 2133.28 235.131 Q2134.66 235.131 2135.57 233.726 Q2136.48 232.297 2136.48 229.768 L2136.48 227.121 L2137.68 227.121 L2137.68 229.861 Q2137.68 232.461 2136.48 234.405 Q2135.29 236.349 2132.92 236.349 Q2132.06 236.349 2131.19 236.115 Q2130.35 235.904 2129.22 235.342 Q2128.12 234.757 2127.42 233.351 Q2126.74 231.922 2126.74 229.861 L2126.74 216.628 L2122.67 216.628 Z" fill="#000000" fill-rule="evenodd" fill-opacity="1" /><path clip-path="url(#clip750)" d="M2141.08 223.818 Q2141.08 215.714 2144.1 209.179 Q2145.39 206.439 2147.19 204.143 Q2149 201.848 2150.19 200.841 Q2151.39 199.834 2151.72 199.834 Q2152.18 199.834 2152.21 200.302 Q2152.21 200.536 2151.57 201.122 Q2143.85 208.992 2143.87 223.818 Q2143.87 238.692 2151.39 246.257 Q2152.21 247.077 2152.21 247.334 Q2152.21 247.803 2151.72 247.803 Q2151.39 247.803 2150.24 246.843 Q2149.09 245.882 2147.31 243.68 Q2145.53 241.479 2144.24 238.785 Q2141.08 232.25 2141.08 223.818 Z" fill="#000000" fill-rule="evenodd" fill-opacity="1" /><path clip-path="url(#clip750)" d="M2176.91 216.862 Q2176.91 216.885 2176.77 217.728 L2171.43 239.019 Q2171.14 240.144 2170.35 241.268 Q2169.57 242.416 2168.33 243.399 Q2167.12 244.407 2165.24 245.016 Q2163.39 245.648 2161.26 245.648 Q2157.86 245.648 2156.36 244.922 Q2154.89 244.219 2154.89 242.72 Q2154.89 241.409 2155.71 240.659 Q2156.53 239.933 2157.47 239.933 Q2158.36 239.933 2158.82 240.448 Q2159.29 240.963 2159.29 241.619 Q2159.29 242.345 2158.8 243.072 Q2158.31 243.821 2157.32 244.102 Q2158.89 244.594 2161.17 244.594 Q2165.97 244.594 2168.03 239.511 Q2168.08 239.441 2168.08 239.418 L2169.67 233.07 L2169.6 233.023 Q2169.2 233.492 2168.57 234.03 Q2167.96 234.546 2166.65 235.178 Q2165.34 235.811 2164.05 235.811 Q2161.35 235.811 2159.5 233.749 Q2157.68 231.665 2157.68 228.222 Q2157.68 225.715 2158.68 223.209 Q2159.71 220.68 2161.31 218.829 Q2162.92 216.955 2164.98 215.784 Q2167.07 214.613 2169.08 214.613 Q2170.49 214.613 2171.68 215.456 Q2172.88 216.276 2173.53 217.635 Q2173.65 216.51 2174.28 216.042 Q2174.94 215.574 2175.5 215.574 Q2176.13 215.574 2176.51 215.925 Q2176.91 216.253 2176.91 216.862 M2172.97 219.79 Q2172.97 219.649 2172.88 219.274 Q2172.78 218.876 2172.5 218.244 Q2172.24 217.611 2171.85 217.049 Q2171.45 216.487 2170.72 216.089 Q2170.02 215.667 2169.13 215.667 Q2167.68 215.667 2166.23 216.885 Q2164.77 218.08 2163.77 219.93 Q2162.83 221.71 2161.94 225.153 Q2161.07 228.596 2161.07 230.353 Q2161.07 232.086 2161.82 233.421 Q2162.57 234.757 2164.19 234.757 Q2166.06 234.757 2168.08 233.023 Q2170.16 231.22 2170.51 229.674 L2172.83 220.516 Q2172.97 219.954 2172.97 219.79 Z" fill="#000000" fill-rule="evenodd" fill-opacity="1" /><path clip-path="url(#clip750)" d="M2181.56 247.334 Q2181.56 247.1 2182.17 246.515 Q2189.9 238.645 2189.9 223.818 Q2189.9 208.945 2182.47 201.426 Q2181.56 200.56 2181.56 200.302 Q2181.56 199.834 2182.03 199.834 Q2182.35 199.834 2183.5 200.794 Q2184.67 201.754 2186.43 203.956 Q2188.21 206.158 2189.52 208.851 Q2192.68 215.386 2192.68 223.818 Q2192.68 231.922 2189.66 238.457 Q2188.37 241.198 2186.57 243.493 Q2184.77 245.789 2183.57 246.796 Q2182.38 247.803 2182.03 247.803 Q2181.56 247.803 2181.56 247.334 Z" fill="#000000" fill-rule="evenodd" fill-opacity="1" /><polyline clip-path="url(#clip750)" style="stroke:#3da44d; stroke-linecap:butt; stroke-linejoin:round; stroke-width:4; stroke-opacity:1; fill:none" points="
  1914.69,277.927 2053.92,277.927 
  "/>
<path clip-path="url(#clip750)" d="M2077.13 297.853 L2085.49 284.95 L2088.9 302.072 L2089.54 305.191 Q2089.68 304.376 2090.1 302.993 Q2090.56 301.575 2090.63 301.221 L2101.87 258.081 Q2101.94 257.797 2102.05 257.336 Q2102.19 256.84 2102.26 256.663 Q2102.33 256.486 2102.44 256.131 Q2102.54 255.777 2102.62 255.67 Q2102.69 255.529 2102.79 255.28 Q2102.9 255.032 2103.04 254.961 Q2103.18 254.891 2103.36 254.749 Q2103.54 254.607 2103.75 254.571 Q2104 254.536 2104.25 254.501 Q2104.49 254.465 2104.85 254.465 L2111.19 254.465 Q2113.43 254.465 2113.43 255.918 Q2113.43 257.372 2111.26 257.372 L2105.06 257.372 L2090.42 313.344 Q2090.21 314.159 2090.03 314.478 Q2089.89 314.797 2089.39 315.081 Q2088.9 315.364 2088.01 315.364 L2087.3 315.364 L2082.66 292.288 L2078.3 299.023 L2077.13 297.853 Z" fill="#000000" fill-rule="evenodd" fill-opacity="1" /><path clip-path="url(#clip750)" d="
M2111.05 257.402 L2236.73 257.402 L2236.73 254.387 L2111.05 254.387  Z
  " fill="#000000" fill-rule="evenodd" fill-opacity="1"/>
<path clip-path="url(#clip750)" d="M2116.17 292.721 Q2116.17 288.154 2119.35 284.992 Q2122.54 281.83 2126.85 281.83 Q2130.5 281.83 2132.89 284.804 L2132.89 274.428 Q2132.89 272.648 2132.26 272.203 Q2131.65 271.758 2129.16 271.758 L2129.16 270.259 L2136.07 269.744 L2136.07 298.858 Q2136.07 300.638 2136.68 301.106 Q2137.32 301.551 2139.8 301.551 L2139.8 303.027 L2132.75 303.566 L2132.75 300.38 Q2130.27 303.542 2126.33 303.566 Q2122.21 303.566 2119.19 300.404 Q2116.17 297.242 2116.17 292.721 M2120.15 292.768 Q2120.15 297.218 2121.53 299.42 Q2123.45 302.488 2126.56 302.488 Q2130.12 302.488 2132.23 299.139 Q2132.77 298.319 2132.75 297.359 L2132.75 287.521 Q2132.75 286.561 2132.23 285.765 Q2130.27 282.884 2127.06 282.884 Q2123.71 282.884 2121.62 285.952 Q2120.15 288.247 2120.15 292.768 Z" fill="#000000" fill-rule="evenodd" fill-opacity="1" /><path clip-path="url(#clip750)" d="M2142.7 292.464 Q2142.7 287.943 2145.61 284.734 Q2148.51 281.525 2152.68 281.525 Q2156.9 281.525 2159.08 284.266 Q2161.28 287.006 2161.28 290.941 Q2161.28 291.667 2161.09 291.808 Q2160.9 291.948 2160.08 291.948 L2146.69 291.948 Q2146.69 296.844 2148.14 299.139 Q2150.15 302.348 2153.55 302.348 Q2154.02 302.348 2154.58 302.254 Q2155.14 302.16 2156.29 301.762 Q2157.44 301.341 2158.44 300.24 Q2159.45 299.139 2160.04 297.406 Q2160.18 296.726 2160.65 296.75 Q2161.28 296.75 2161.28 297.312 Q2161.28 297.734 2160.81 298.694 Q2160.37 299.631 2159.5 300.755 Q2158.63 301.879 2156.95 302.723 Q2155.28 303.566 2153.27 303.566 Q2149.05 303.566 2145.87 300.38 Q2142.7 297.171 2142.7 292.464 M2146.73 290.941 L2158.12 290.941 Q2158.12 289.934 2157.93 288.81 Q2157.77 287.685 2157.25 286.139 Q2156.76 284.57 2155.59 283.586 Q2154.42 282.603 2152.68 282.603 Q2151.91 282.603 2151.07 282.931 Q2150.25 283.259 2149.24 284.055 Q2148.23 284.851 2147.53 286.655 Q2146.83 288.458 2146.73 290.941 Z" fill="#000000" fill-rule="evenodd" fill-opacity="1" /><path clip-path="url(#clip750)" d="M2161.7 283.844 L2161.7 282.79 Q2163.9 282.696 2165.36 281.15 Q2166.83 279.581 2167.32 277.661 Q2167.84 275.74 2167.89 273.515 L2169.08 273.515 L2169.08 282.345 L2175.94 282.345 L2175.94 283.844 L2169.08 283.844 L2169.08 297.171 Q2169.08 302.348 2172.31 302.348 Q2173.69 302.348 2174.61 300.942 Q2175.52 299.514 2175.52 296.984 L2175.52 294.337 L2176.72 294.337 L2176.72 297.078 Q2176.72 299.678 2175.52 301.622 Q2174.33 303.566 2171.96 303.566 Q2171.09 303.566 2170.23 303.332 Q2169.39 303.121 2168.26 302.559 Q2167.16 301.973 2166.46 300.568 Q2165.78 299.139 2165.78 297.078 L2165.78 283.844 L2161.7 283.844 Z" fill="#000000" fill-rule="evenodd" fill-opacity="1" /><path clip-path="url(#clip750)" d="M2180.12 291.035 Q2180.12 282.931 2183.14 276.396 Q2184.43 273.655 2186.23 271.36 Q2188.03 269.065 2189.23 268.057 Q2190.42 267.05 2190.75 267.05 Q2191.22 267.05 2191.24 267.519 Q2191.24 267.753 2190.61 268.338 Q2182.88 276.208 2182.91 291.035 Q2182.91 305.908 2190.42 313.473 Q2191.24 314.293 2191.24 314.551 Q2191.24 315.019 2190.75 315.019 Q2190.42 315.019 2189.28 314.059 Q2188.13 313.099 2186.35 310.897 Q2184.57 308.695 2183.28 306.002 Q2180.12 299.467 2180.12 291.035 Z" fill="#000000" fill-rule="evenodd" fill-opacity="1" /><path clip-path="url(#clip750)" d="M2215.94 284.078 Q2215.94 284.102 2215.8 284.945 L2210.46 306.236 Q2210.18 307.36 2209.38 308.484 Q2208.61 309.632 2207.37 310.616 Q2206.15 311.623 2204.28 312.232 Q2202.43 312.864 2200.3 312.864 Q2196.9 312.864 2195.4 312.138 Q2193.93 311.436 2193.93 309.937 Q2193.93 308.625 2194.75 307.875 Q2195.57 307.149 2196.5 307.149 Q2197.39 307.149 2197.86 307.665 Q2198.33 308.18 2198.33 308.836 Q2198.33 309.562 2197.84 310.288 Q2197.35 311.038 2196.36 311.319 Q2197.93 311.81 2200.2 311.81 Q2205 311.81 2207.07 306.728 Q2207.11 306.658 2207.11 306.634 L2208.71 300.287 L2208.63 300.24 Q2208.24 300.708 2207.6 301.247 Q2207 301.762 2205.68 302.395 Q2204.37 303.027 2203.08 303.027 Q2200.39 303.027 2198.54 300.966 Q2196.71 298.881 2196.71 295.438 Q2196.71 292.932 2197.72 290.426 Q2198.75 287.896 2200.34 286.046 Q2201.96 284.172 2204.02 283.001 Q2206.11 281.83 2208.12 281.83 Q2209.52 281.83 2210.72 282.673 Q2211.91 283.493 2212.57 284.851 Q2212.69 283.727 2213.32 283.259 Q2213.98 282.79 2214.54 282.79 Q2215.17 282.79 2215.54 283.141 Q2215.94 283.469 2215.94 284.078 M2212.01 287.006 Q2212.01 286.866 2211.91 286.491 Q2211.82 286.093 2211.54 285.46 Q2211.28 284.828 2210.88 284.266 Q2210.49 283.704 2209.76 283.305 Q2209.06 282.884 2208.17 282.884 Q2206.71 282.884 2205.26 284.102 Q2203.81 285.296 2202.8 287.147 Q2201.87 288.927 2200.98 292.37 Q2200.11 295.813 2200.11 297.57 Q2200.11 299.303 2200.86 300.638 Q2201.61 301.973 2203.22 301.973 Q2205.1 301.973 2207.11 300.24 Q2209.2 298.436 2209.55 296.89 L2211.87 287.732 Q2212.01 287.17 2212.01 287.006 Z" fill="#000000" fill-rule="evenodd" fill-opacity="1" /><path clip-path="url(#clip750)" d="M2220.59 314.551 Q2220.59 314.317 2221.2 313.731 Q2228.93 305.861 2228.93 291.035 Q2228.93 276.162 2221.51 268.643 Q2220.59 267.776 2220.59 267.519 Q2220.59 267.05 2221.06 267.05 Q2221.39 267.05 2222.54 268.01 Q2223.71 268.971 2225.47 271.173 Q2227.25 273.374 2228.56 276.068 Q2231.72 282.603 2231.72 291.035 Q2231.72 299.139 2228.7 305.674 Q2227.41 308.414 2225.61 310.71 Q2223.8 313.005 2222.61 314.012 Q2221.41 315.019 2221.06 315.019 Q2220.59 315.019 2220.59 314.551 Z" fill="#000000" fill-rule="evenodd" fill-opacity="1" /></svg>
