<?xml version="1.0" encoding="utf-8"?>
<svg xmlns="http://www.w3.org/2000/svg" xmlns:xlink="http://www.w3.org/1999/xlink" width="600" height="400" viewBox="0 0 2400 1600">
<defs>
  <clipPath id="clip530">
    <rect x="0" y="0" width="2400" height="1600"/>
  </clipPath>
</defs>
<path clip-path="url(#clip530)" d="
M0 1600 L2400 1600 L2400 0 L0 0  Z
  " fill="#ffffff" fill-rule="evenodd" fill-opacity="1"/>
<defs>
  <clipPath id="clip531">
    <rect x="480" y="0" width="1681" height="1600"/>
  </clipPath>
</defs>
<path clip-path="url(#clip530)" d="
M174.149 1486.45 L2352.76 1486.45 L2352.76 47.2441 L174.149 47.2441  Z
  " fill="#ffffff" fill-rule="evenodd" fill-opacity="1"/>
<defs>
  <clipPath id="clip532">
    <rect x="174" y="47" width="2180" height="1440"/>
  </clipPath>
</defs>
<polyline clip-path="url(#clip532)" style="stroke:#000000; stroke-linecap:butt; stroke-linejoin:round; stroke-width:2; stroke-opacity:0.1; fill:none" points="
  235.808,1486.45 235.808,47.2441 
  "/>
<polyline clip-path="url(#clip532)" style="stroke:#000000; stroke-linecap:butt; stroke-linejoin:round; stroke-width:2; stroke-opacity:0.1; fill:none" points="
  911.708,1486.45 911.708,47.2441 
  "/>
<polyline clip-path="url(#clip532)" style="stroke:#000000; stroke-linecap:butt; stroke-linejoin:round; stroke-width:2; stroke-opacity:0.1; fill:none" points="
  1601.4,1486.45 1601.4,47.2441 
  "/>
<polyline clip-path="url(#clip532)" style="stroke:#000000; stroke-linecap:butt; stroke-linejoin:round; stroke-width:2; stroke-opacity:0.1; fill:none" points="
  2291.1,1486.45 2291.1,47.2441 
  "/>
<polyline clip-path="url(#clip530)" style="stroke:#000000; stroke-linecap:butt; stroke-linejoin:round; stroke-width:4; stroke-opacity:1; fill:none" points="
  174.149,1486.45 2352.76,1486.45 
  "/>
<polyline clip-path="url(#clip530)" style="stroke:#000000; stroke-linecap:butt; stroke-linejoin:round; stroke-width:4; stroke-opacity:1; fill:none" points="
  235.808,1486.45 235.808,1467.55 
  "/>
<polyline clip-path="url(#clip530)" style="stroke:#000000; stroke-linecap:butt; stroke-linejoin:round; stroke-width:4; stroke-opacity:1; fill:none" points="
  911.708,1486.45 911.708,1467.55 
  "/>
<polyline clip-path="url(#clip530)" style="stroke:#000000; stroke-linecap:butt; stroke-linejoin:round; stroke-width:4; stroke-opacity:1; fill:none" points="
  1601.4,1486.45 1601.4,1467.55 
  "/>
<polyline clip-path="url(#clip530)" style="stroke:#000000; stroke-linecap:butt; stroke-linejoin:round; stroke-width:4; stroke-opacity:1; fill:none" points="
  2291.1,1486.45 2291.1,1467.55 
  "/>
<path clip-path="url(#clip530)" d="M220.964 1554.64 L220.964 1553.16 L221.667 1553.16 Q224.22 1553.16 225.016 1552.81 Q225.836 1552.43 225.906 1551.08 L225.906 1525.48 Q225.859 1524.23 225.063 1523.86 Q224.266 1523.46 221.667 1523.46 L220.964 1523.46 L220.964 1522.01 Q223.212 1522.1 227.71 1522.1 Q229.536 1522.1 231.106 1522.06 Q232.699 1522.01 232.956 1522.01 L246.002 1522.01 L247.338 1532.81 L246.096 1532.81 Q245.721 1529.88 245.3 1528.36 Q244.902 1526.81 243.918 1525.57 Q242.934 1524.33 241.295 1523.91 Q239.655 1523.46 236.891 1523.46 L232.792 1523.46 Q231.246 1523.46 230.708 1523.77 Q230.169 1524.07 230.169 1525.33 L230.169 1550.94 Q230.169 1552.41 231.153 1552.79 Q232.136 1553.16 235.439 1553.16 L236.306 1553.16 L236.306 1554.64 Q232.23 1554.5 228.108 1554.5 L227.803 1554.5 Q224.805 1554.5 220.964 1554.64 Z" fill="#000000" fill-rule="evenodd" fill-opacity="1" /><path clip-path="url(#clip530)" d="M893.896 1554.71 L893.896 1553.23 Q896.097 1553.23 897.714 1552.55 Q899.33 1551.87 899.798 1551.38 Q900.29 1550.87 900.852 1550.05 L908.722 1538.45 L899.892 1525.1 Q899.213 1524.09 898.299 1523.77 Q897.409 1523.44 895.442 1523.44 L894.528 1523.44 L894.528 1521.94 Q897.175 1522.08 900.758 1522.08 Q906.075 1522.08 907.762 1521.94 L907.762 1523.44 Q906.333 1523.48 905.49 1523.95 Q904.647 1524.4 904.647 1524.87 Q904.647 1525.05 904.975 1525.59 L911.158 1534.84 L916.639 1526.74 Q917.061 1526.06 917.061 1525.64 Q917.061 1524.77 916.264 1524.14 Q915.491 1523.48 914.086 1523.44 L914.086 1521.94 Q916.007 1522.08 920.246 1522.08 Q920.785 1522.08 921.651 1522.06 Q922.541 1522.03 923.712 1521.99 Q924.884 1521.94 925.563 1521.94 L925.563 1523.44 Q920.714 1523.48 918.606 1526.55 L912.025 1536.18 L922.143 1551.5 Q922.869 1552.55 923.783 1552.9 Q924.696 1553.23 926.664 1553.23 L927.577 1553.23 L927.577 1554.71 Q924.556 1554.57 921.347 1554.57 Q916.03 1554.57 914.344 1554.71 L914.344 1553.23 Q915.772 1553.18 916.615 1552.74 Q917.459 1552.27 917.459 1551.78 Q917.459 1551.73 917.201 1551.26 L909.636 1539.79 L902.82 1549.86 Q902.351 1550.63 902.351 1551.01 Q902.351 1551.78 903.101 1552.48 Q903.874 1553.16 905.373 1553.23 L905.373 1554.71 Q903.639 1554.57 899.213 1554.57 Q899.072 1554.57 893.896 1554.71 Z" fill="#000000" fill-rule="evenodd" fill-opacity="1" /><path clip-path="url(#clip530)" d="M1579.66 1554.71 L1579.66 1553.23 Q1581.39 1553.23 1582.49 1552.9 Q1583.59 1552.55 1583.99 1551.92 Q1584.41 1551.26 1584.51 1550.84 Q1584.6 1550.4 1584.6 1549.67 L1584.6 1525.69 Q1584.6 1524.3 1583.99 1523.88 Q1583.41 1523.44 1580.81 1523.44 L1579.66 1523.44 L1579.66 1521.94 L1587.76 1521.94 Q1588.63 1521.94 1588.86 1522.1 Q1589.1 1522.24 1589.45 1522.99 L1599.85 1549.86 L1610.34 1522.85 Q1610.58 1522.17 1610.79 1522.06 Q1611.02 1521.94 1611.94 1521.94 L1620.04 1521.94 L1620.04 1523.44 L1618.89 1523.44 Q1616.29 1523.44 1615.68 1523.88 Q1615.1 1524.3 1615.1 1525.69 L1615.1 1550.96 Q1615.1 1552.34 1615.68 1552.79 Q1616.29 1553.23 1618.89 1553.23 L1620.04 1553.23 L1620.04 1554.71 Q1618.26 1554.57 1613.18 1554.57 Q1608.05 1554.57 1606.27 1554.71 L1606.27 1553.23 L1607.44 1553.23 Q1610.04 1553.23 1610.62 1552.81 Q1611.21 1552.36 1611.21 1550.96 L1611.21 1523.44 L1611.16 1523.44 L1599.38 1553.79 Q1599.05 1554.71 1598.51 1554.71 Q1597.93 1554.71 1597.55 1553.65 L1585.98 1523.81 L1585.94 1523.81 L1585.94 1549.67 Q1585.94 1550.4 1586.03 1550.84 Q1586.12 1551.26 1586.52 1551.92 Q1586.94 1552.55 1588.04 1552.9 Q1589.15 1553.23 1590.88 1553.23 L1590.88 1554.71 Q1585.84 1554.57 1585.26 1554.57 Q1584.69 1554.57 1579.66 1554.71 Z" fill="#000000" fill-rule="evenodd" fill-opacity="1" /><path clip-path="url(#clip530)" d="M2276.25 1554.64 L2276.25 1553.16 L2276.96 1553.16 Q2279.51 1553.16 2280.31 1552.81 Q2281.13 1552.43 2281.2 1551.08 L2281.2 1525.48 Q2281.15 1524.23 2280.35 1523.86 Q2279.56 1523.46 2276.96 1523.46 L2276.25 1523.46 L2276.25 1522.01 Q2278.5 1522.1 2283 1522.1 Q2284.83 1522.1 2286.4 1522.06 Q2287.99 1522.01 2288.25 1522.01 L2301.29 1522.01 L2302.63 1532.81 L2301.39 1532.81 Q2301.01 1529.88 2300.59 1528.36 Q2300.19 1526.81 2299.21 1525.57 Q2298.22 1524.33 2296.58 1523.91 Q2294.94 1523.46 2292.18 1523.46 L2288.08 1523.46 Q2286.54 1523.46 2286 1523.77 Q2285.46 1524.07 2285.46 1525.33 L2285.46 1550.94 Q2285.46 1552.41 2286.44 1552.79 Q2287.43 1553.16 2290.73 1553.16 L2291.6 1553.16 L2291.6 1554.64 Q2287.52 1554.5 2283.4 1554.5 L2283.09 1554.5 Q2280.09 1554.5 2276.25 1554.64 Z" fill="#000000" fill-rule="evenodd" fill-opacity="1" /><polyline clip-path="url(#clip532)" style="stroke:#000000; stroke-linecap:butt; stroke-linejoin:round; stroke-width:2; stroke-opacity:0.1; fill:none" points="
  174.149,1445.72 2352.76,1445.72 
  "/>
<polyline clip-path="url(#clip532)" style="stroke:#000000; stroke-linecap:butt; stroke-linejoin:round; stroke-width:2; stroke-opacity:0.1; fill:none" points="
  174.149,1088.42 2352.76,1088.42 
  "/>
<polyline clip-path="url(#clip532)" style="stroke:#000000; stroke-linecap:butt; stroke-linejoin:round; stroke-width:2; stroke-opacity:0.1; fill:none" points="
  174.149,731.128 2352.76,731.128 
  "/>
<polyline clip-path="url(#clip532)" style="stroke:#000000; stroke-linecap:butt; stroke-linejoin:round; stroke-width:2; stroke-opacity:0.1; fill:none" points="
  174.149,373.834 2352.76,373.834 
  "/>
<polyline clip-path="url(#clip530)" style="stroke:#000000; stroke-linecap:butt; stroke-linejoin:round; stroke-width:4; stroke-opacity:1; fill:none" points="
  174.149,1486.45 174.149,47.2441 
  "/>
<polyline clip-path="url(#clip530)" style="stroke:#000000; stroke-linecap:butt; stroke-linejoin:round; stroke-width:4; stroke-opacity:1; fill:none" points="
  174.149,1445.72 193.047,1445.72 
  "/>
<polyline clip-path="url(#clip530)" style="stroke:#000000; stroke-linecap:butt; stroke-linejoin:round; stroke-width:4; stroke-opacity:1; fill:none" points="
  174.149,1088.42 193.047,1088.42 
  "/>
<polyline clip-path="url(#clip530)" style="stroke:#000000; stroke-linecap:butt; stroke-linejoin:round; stroke-width:4; stroke-opacity:1; fill:none" points="
  174.149,731.128 193.047,731.128 
  "/>
<polyline clip-path="url(#clip530)" style="stroke:#000000; stroke-linecap:butt; stroke-linejoin:round; stroke-width:4; stroke-opacity:1; fill:none" points="
  174.149,373.834 193.047,373.834 
  "/>
<path clip-path="url(#clip530)" d="M126.205 1431.51 Q122.593 1431.51 120.765 1435.08 Q118.959 1438.62 118.959 1445.75 Q118.959 1452.86 120.765 1456.42 Q122.593 1459.96 126.205 1459.96 Q129.839 1459.96 131.644 1456.42 Q133.473 1452.86 133.473 1445.75 Q133.473 1438.62 131.644 1435.08 Q129.839 1431.51 126.205 1431.51 M126.205 1427.81 Q132.015 1427.81 135.07 1432.42 Q138.149 1437 138.149 1445.75 Q138.149 1454.48 135.07 1459.08 Q132.015 1463.67 126.205 1463.67 Q120.394 1463.67 117.316 1459.08 Q114.26 1454.48 114.26 1445.75 Q114.26 1437 117.316 1432.42 Q120.394 1427.81 126.205 1427.81 Z" fill="#000000" fill-rule="evenodd" fill-opacity="1" /><path clip-path="url(#clip530)" d="M118.242 1101.77 L125.88 1101.77 L125.88 1075.4 L117.57 1077.07 L117.57 1072.81 L125.834 1071.14 L130.51 1071.14 L130.51 1101.77 L138.149 1101.77 L138.149 1105.7 L118.242 1105.7 L118.242 1101.77 Z" fill="#000000" fill-rule="evenodd" fill-opacity="1" /><path clip-path="url(#clip530)" d="M121.83 744.473 L138.149 744.473 L138.149 748.408 L116.205 748.408 L116.205 744.473 Q118.867 741.718 123.45 737.088 Q128.056 732.436 129.237 731.093 Q131.482 728.57 132.362 726.834 Q133.265 725.075 133.265 723.385 Q133.265 720.63 131.32 718.894 Q129.399 717.158 126.297 717.158 Q124.098 717.158 121.644 717.922 Q119.214 718.686 116.436 720.237 L116.436 715.514 Q119.26 714.38 121.714 713.801 Q124.168 713.223 126.205 713.223 Q131.575 713.223 134.769 715.908 Q137.964 718.593 137.964 723.084 Q137.964 725.213 137.154 727.135 Q136.367 729.033 134.26 731.625 Q133.681 732.297 130.58 735.514 Q127.478 738.709 121.83 744.473 Z" fill="#000000" fill-rule="evenodd" fill-opacity="1" /><path clip-path="url(#clip530)" d="M131.019 372.48 Q134.376 373.197 136.251 375.466 Q138.149 377.734 138.149 381.068 Q138.149 386.183 134.63 388.984 Q131.112 391.785 124.63 391.785 Q122.455 391.785 120.14 391.345 Q117.848 390.929 115.394 390.072 L115.394 385.558 Q117.339 386.693 119.654 387.271 Q121.968 387.85 124.492 387.85 Q128.89 387.85 131.181 386.114 Q133.496 384.378 133.496 381.068 Q133.496 378.012 131.343 376.299 Q129.214 374.563 125.394 374.563 L121.367 374.563 L121.367 370.72 L125.58 370.72 Q129.029 370.72 130.857 369.355 Q132.686 367.966 132.686 365.373 Q132.686 362.711 130.788 361.299 Q128.913 359.864 125.394 359.864 Q123.473 359.864 121.274 360.281 Q119.075 360.697 116.436 361.577 L116.436 357.41 Q119.098 356.67 121.413 356.299 Q123.751 355.929 125.811 355.929 Q131.135 355.929 134.237 358.359 Q137.339 360.767 137.339 364.887 Q137.339 367.757 135.695 369.748 Q134.052 371.716 131.019 372.48 Z" fill="#000000" fill-rule="evenodd" fill-opacity="1" /><path clip-path="url(#clip530)" d="M20.8447 994.42 Q20.8447 1001.42 26.0645 1005.56 Q31.2844 1009.67 40.2919 1009.67 Q49.2675 1009.67 54.4874 1005.56 Q59.7073 1001.42 59.7073 994.42 Q59.7073 987.418 54.4874 983.344 Q49.2675 979.238 40.2919 979.238 Q31.2844 979.238 26.0645 983.344 Q20.8447 987.418 20.8447 994.42 M63.1448 985.413 L72.4069 976.946 L72.4069 984.712 L64.7999 991.746 Q64.8635 992.797 64.8954 993.37 Q64.9272 993.911 64.9272 994.42 Q64.9272 1004.45 58.2432 1010.46 Q51.5274 1016.45 40.2919 1016.45 Q29.0246 1016.45 22.3406 1010.46 Q15.6248 1004.45 15.6248 994.42 Q15.6248 984.426 22.3406 978.442 Q29.0246 972.458 40.2919 972.458 Q48.5673 972.458 54.4556 975.8 Q60.3439 979.11 63.1448 985.413 Z" fill="#000000" fill-rule="evenodd" fill-opacity="1" /><path clip-path="url(#clip530)" d="M49.9359 963.26 L28.3562 963.26 L28.3562 957.403 L49.7131 957.403 Q54.7739 957.403 57.3202 955.43 Q59.8346 953.457 59.8346 949.51 Q59.8346 944.767 56.8109 942.03 Q53.7872 939.261 48.5673 939.261 L28.3562 939.261 L28.3562 933.405 L64.0042 933.405 L64.0042 939.261 L58.5296 939.261 Q61.7762 941.394 63.3676 944.226 Q64.9272 947.027 64.9272 950.751 Q64.9272 956.894 61.1078 960.077 Q57.2883 963.26 49.9359 963.26 M27.4968 948.523 L27.4968 948.523 Z" fill="#000000" fill-rule="evenodd" fill-opacity="1" /><path clip-path="url(#clip530)" d="M46.0847 905.141 Q46.0847 912.239 47.7079 914.976 Q49.3312 917.713 53.2461 917.713 Q56.3653 917.713 58.2114 915.676 Q60.0256 913.607 60.0256 910.074 Q60.0256 905.205 56.5881 902.276 Q53.1188 899.316 47.3897 899.316 L46.0847 899.316 L46.0847 905.141 M43.6657 893.46 L64.0042 893.46 L64.0042 899.316 L58.5933 899.316 Q61.8398 901.322 63.3994 904.313 Q64.9272 907.305 64.9272 911.634 Q64.9272 917.108 61.8716 920.355 Q58.7843 923.57 53.6281 923.57 Q47.6125 923.57 44.5569 919.559 Q41.5014 915.517 41.5014 907.528 L41.5014 899.316 L40.9285 899.316 Q36.8862 899.316 34.6901 901.99 Q32.4621 904.632 32.4621 909.438 Q32.4621 912.493 33.1941 915.39 Q33.9262 918.286 35.3903 920.96 L29.9795 920.96 Q28.7381 917.745 28.1334 914.721 Q27.4968 911.698 27.4968 908.833 Q27.4968 901.099 31.5072 897.279 Q35.5176 893.46 43.6657 893.46 Z" fill="#000000" fill-rule="evenodd" fill-opacity="1" /><path clip-path="url(#clip530)" d="M42.4881 851.765 L64.0042 851.765 L64.0042 857.621 L42.679 857.621 Q37.6183 857.621 35.1038 859.594 Q32.5894 861.568 32.5894 865.514 Q32.5894 870.257 35.6131 872.994 Q38.6368 875.731 43.8567 875.731 L64.0042 875.731 L64.0042 881.62 L28.3562 881.62 L28.3562 875.731 L33.8944 875.731 Q30.6797 873.631 29.0883 870.798 Q27.4968 867.933 27.4968 864.209 Q27.4968 858.067 31.3163 854.916 Q35.1038 851.765 42.4881 851.765 Z" fill="#000000" fill-rule="evenodd" fill-opacity="1" /><path clip-path="url(#clip530)" d="M18.2347 834.291 L28.3562 834.291 L28.3562 822.228 L32.9077 822.228 L32.9077 834.291 L52.2594 834.291 Q56.6199 834.291 57.8613 833.113 Q59.1026 831.904 59.1026 828.243 L59.1026 822.228 L64.0042 822.228 L64.0042 828.243 Q64.0042 835.023 61.4897 837.601 Q58.9434 840.179 52.2594 840.179 L32.9077 840.179 L32.9077 844.476 L28.3562 844.476 L28.3562 840.179 L18.2347 840.179 L18.2347 834.291 Z" fill="#000000" fill-rule="evenodd" fill-opacity="1" /><path clip-path="url(#clip530)" d="M49.9359 815.13 L28.3562 815.13 L28.3562 809.273 L49.7131 809.273 Q54.7739 809.273 57.3202 807.3 Q59.8346 805.327 59.8346 801.38 Q59.8346 796.637 56.8109 793.9 Q53.7872 791.131 48.5673 791.131 L28.3562 791.131 L28.3562 785.275 L64.0042 785.275 L64.0042 791.131 L58.5296 791.131 Q61.7762 793.264 63.3676 796.096 Q64.9272 798.897 64.9272 802.621 Q64.9272 808.764 61.1078 811.947 Q57.2883 815.13 49.9359 815.13 M27.4968 800.393 L27.4968 800.393 Z" fill="#000000" fill-rule="evenodd" fill-opacity="1" /><path clip-path="url(#clip530)" d="M35.1993 745.457 Q31.2526 743.261 29.3747 740.206 Q27.4968 737.15 27.4968 733.012 Q27.4968 727.442 31.4117 724.419 Q35.2948 721.395 42.4881 721.395 L64.0042 721.395 L64.0042 727.283 L42.679 727.283 Q37.5546 727.283 35.072 729.097 Q32.5894 730.912 32.5894 734.636 Q32.5894 739.187 35.6131 741.829 Q38.6368 744.471 43.8567 744.471 L64.0042 744.471 L64.0042 750.359 L42.679 750.359 Q37.5228 750.359 35.072 752.173 Q32.5894 753.987 32.5894 757.775 Q32.5894 762.263 35.6449 764.904 Q38.6686 767.546 43.8567 767.546 L64.0042 767.546 L64.0042 773.434 L28.3562 773.434 L28.3562 767.546 L33.8944 767.546 Q30.616 765.541 29.0564 762.74 Q27.4968 759.939 27.4968 756.088 Q27.4968 752.205 29.4702 749.499 Q31.4436 746.762 35.1993 745.457 Z" fill="#000000" fill-rule="evenodd" fill-opacity="1" /><path clip-path="url(#clip530)" d="M16.4842 709.459 L16.4842 699.879 L48.8219 687.752 L16.4842 675.562 L16.4842 665.981 L64.0042 665.981 L64.0042 672.252 L22.277 672.252 L54.8694 684.506 L54.8694 690.967 L22.277 703.221 L64.0042 703.221 L64.0042 709.459 L16.4842 709.459 Z" fill="#000000" fill-rule="evenodd" fill-opacity="1" /><path clip-path="url(#clip530)" d="M44.7161 622.981 L47.5806 622.981 L47.5806 649.908 Q53.6281 649.526 56.8109 646.28 Q59.9619 643.001 59.9619 637.177 Q59.9619 633.803 59.1344 630.652 Q58.3069 627.469 56.6518 624.35 L62.1899 624.35 Q63.5267 627.501 64.227 630.811 Q64.9272 634.121 64.9272 637.527 Q64.9272 646.057 59.9619 651.054 Q54.9967 656.019 46.5303 656.019 Q37.7774 656.019 32.6531 651.308 Q27.4968 646.566 27.4968 638.545 Q27.4968 631.352 32.1438 627.182 Q36.7589 622.981 44.7161 622.981 M42.9973 628.837 Q38.1912 628.901 35.3266 631.543 Q32.4621 634.153 32.4621 638.482 Q32.4621 643.383 35.2312 646.343 Q38.0002 649.271 43.0292 649.717 L42.9973 628.837 Z" fill="#000000" fill-rule="evenodd" fill-opacity="1" /><path clip-path="url(#clip530)" d="M18.2347 607.576 L28.3562 607.576 L28.3562 595.513 L32.9077 595.513 L32.9077 607.576 L52.2594 607.576 Q56.6199 607.576 57.8613 606.398 Q59.1026 605.189 59.1026 601.529 L59.1026 595.513 L64.0042 595.513 L64.0042 601.529 Q64.0042 608.308 61.4897 610.886 Q58.9434 613.464 52.2594 613.464 L32.9077 613.464 L32.9077 617.761 L28.3562 617.761 L28.3562 613.464 L18.2347 613.464 L18.2347 607.576 Z" fill="#000000" fill-rule="evenodd" fill-opacity="1" /><path clip-path="url(#clip530)" d="M33.8307 567.154 Q33.2578 568.14 33.0032 569.318 Q32.7167 570.464 32.7167 571.864 Q32.7167 576.83 35.9632 579.503 Q39.1779 582.145 45.2253 582.145 L64.0042 582.145 L64.0042 588.033 L28.3562 588.033 L28.3562 582.145 L33.8944 582.145 Q30.6479 580.299 29.0883 577.339 Q27.4968 574.379 27.4968 570.146 Q27.4968 569.541 27.5923 568.809 Q27.656 568.077 27.8151 567.186 L33.8307 567.154 Z" fill="#000000" fill-rule="evenodd" fill-opacity="1" /><path clip-path="url(#clip530)" d="M28.3562 561.011 L28.3562 555.154 L64.0042 555.154 L64.0042 561.011 L28.3562 561.011 M14.479 561.011 L14.479 555.154 L21.895 555.154 L21.895 561.011 L14.479 561.011 Z" fill="#000000" fill-rule="evenodd" fill-opacity="1" /><path clip-path="url(#clip530)" d="M29.7248 517.247 L35.1993 517.247 Q33.8307 519.729 33.1623 522.244 Q32.4621 524.726 32.4621 527.273 Q32.4621 532.97 36.0905 536.121 Q39.6872 539.272 46.212 539.272 Q52.7369 539.272 56.3653 536.121 Q59.9619 532.97 59.9619 527.273 Q59.9619 524.726 59.2935 522.244 Q58.5933 519.729 57.2247 517.247 L62.6355 517.247 Q63.7814 519.697 64.3543 522.339 Q64.9272 524.949 64.9272 527.909 Q64.9272 535.962 59.8664 540.704 Q54.8057 545.447 46.212 545.447 Q37.491 545.447 32.4939 540.672 Q27.4968 535.866 27.4968 527.527 Q27.4968 524.822 28.0697 522.244 Q28.6108 519.666 29.7248 517.247 Z" fill="#000000" fill-rule="evenodd" fill-opacity="1" /><polyline clip-path="url(#clip532)" style="stroke:#009af9; stroke-linecap:butt; stroke-linejoin:round; stroke-width:4; stroke-opacity:1; fill:none" points="
  235.808,1437.64 249.601,1437.65 263.395,1437.67 277.189,1437.7 290.983,1437.73 304.777,1437.77 318.571,1437.82 332.365,1437.88 346.159,1437.94 359.953,1438 
  373.747,1438.08 387.54,1438.15 401.334,1438.23 415.128,1438.31 428.922,1438.4 442.716,1438.48 456.51,1438.56 470.304,1438.64 484.098,1438.71 497.892,1438.77 
  511.685,1438.82 525.479,1438.86 539.273,1438.88 553.067,1438.87 566.861,1438.84 580.655,1438.76 594.449,1438.65 608.243,1438.49 622.037,1438.27 635.83,1437.99 
  649.624,1437.63 663.418,1437.19 677.212,1436.65 691.006,1436.02 704.8,1435.27 718.594,1434.41 732.388,1433.43 746.182,1432.33 759.975,1431.12 773.769,1429.82 
  787.563,1428.44 801.357,1427.01 815.151,1425.57 828.945,1424.17 842.739,1422.85 856.533,1421.68 870.327,1420.69 884.12,1419.95 897.914,1419.49 911.708,1419.33 
  925.502,1419.33 939.296,1419.3 953.09,1419.25 966.884,1419.19 980.678,1419.11 994.472,1419 1008.27,1418.88 1022.06,1418.73 1035.85,1418.56 1049.65,1418.36 
  1063.44,1418.13 1077.23,1417.87 1091.03,1417.58 1104.82,1417.24 1118.62,1416.87 1132.41,1416.44 1146.2,1415.97 1160,1415.43 1173.79,1414.82 1187.59,1414.13 
  1201.38,1413.35 1215.17,1412.46 1228.97,1411.45 1242.76,1410.3 1256.56,1408.98 1270.35,1407.47 1284.14,1405.72 1297.94,1403.69 1311.73,1401.33 1325.52,1398.56 
  1339.32,1395.31 1353.11,1391.44 1366.91,1386.83 1380.7,1381.26 1394.49,1374.51 1408.29,1366.21 1422.08,1355.9 1435.88,1342.93 1449.67,1326.37 1463.46,1304.87 
  1477.26,1276.41 1491.05,1237.96 1504.85,1184.87 1518.64,1110.1 1532.43,1003.42 1546.23,852.104 1560.02,647.135 1573.81,402.107 1587.61,180.793 1601.4,87.9763 
  1615.2,263.439 1628.99,610.28 1642.78,902.322 1656.58,1091.77 1670.37,1207.48 1684.17,1279.31 1697.96,1325.63 1711.75,1356.72 1725.55,1378.32 1739.34,1393.76 
  1753.14,1405.07 1766.93,1413.49 1780.72,1419.86 1794.52,1424.72 1808.31,1428.47 1822.1,1431.36 1835.9,1433.61 1849.69,1435.35 1863.49,1436.69 1877.28,1437.72 
  1891.07,1438.49 1904.87,1439.07 1918.66,1439.49 1932.46,1439.77 1946.25,1439.95 1960.04,1440.05 1973.84,1440.08 1987.63,1440.06 2001.43,1439.99 2015.22,1439.89 
  2029.01,1439.77 2042.81,1439.63 2056.6,1439.48 2070.39,1439.31 2084.19,1439.15 2097.98,1438.98 2111.78,1438.82 2125.57,1438.66 2139.36,1438.51 2153.16,1438.37 
  2166.95,1438.24 2180.75,1438.11 2194.54,1438.01 2208.33,1437.91 2222.13,1437.83 2235.92,1437.76 2249.72,1437.7 2263.51,1437.67 2277.3,1437.64 2291.1,1437.64 
  
  "/>
<polyline clip-path="url(#clip532)" style="stroke:#e26f46; stroke-linecap:butt; stroke-linejoin:round; stroke-width:4; stroke-opacity:1; fill:none" points="
  235.808,1445.67 249.601,1445.67 263.395,1445.67 277.189,1445.67 290.983,1445.67 304.777,1445.67 318.571,1445.67 332.365,1445.67 346.159,1445.67 359.953,1445.67 
  373.747,1445.68 387.54,1445.68 401.334,1445.68 415.128,1445.68 428.922,1445.68 442.716,1445.68 456.51,1445.68 470.304,1445.69 484.098,1445.69 497.892,1445.69 
  511.685,1445.69 525.479,1445.7 539.273,1445.7 553.067,1445.7 566.861,1445.7 580.655,1445.71 594.449,1445.71 608.243,1445.71 622.037,1445.71 635.83,1445.71 
  649.624,1445.71 663.418,1445.7 677.212,1445.7 691.006,1445.69 704.8,1445.68 718.594,1445.66 732.388,1445.65 746.182,1445.62 759.975,1445.59 773.769,1445.56 
  787.563,1445.53 801.357,1445.48 815.151,1445.44 828.945,1445.4 842.739,1445.35 856.533,1445.31 870.327,1445.28 884.12,1445.25 897.914,1445.23 911.708,1445.23 
  925.502,1445.23 939.296,1445.23 953.09,1445.23 966.884,1445.22 980.678,1445.22 994.472,1445.22 1008.27,1445.21 1022.06,1445.21 1035.85,1445.2 1049.65,1445.19 
  1063.44,1445.19 1077.23,1445.18 1091.03,1445.17 1104.82,1445.16 1118.62,1445.15 1132.41,1445.13 1146.2,1445.12 1160,1445.11 1173.79,1445.09 1187.59,1445.07 
  1201.38,1445.05 1215.17,1445.03 1228.97,1445.01 1242.76,1444.98 1256.56,1444.95 1270.35,1444.92 1284.14,1444.89 1297.94,1444.85 1311.73,1444.8 1325.52,1444.74 
  1339.32,1444.67 1353.11,1444.59 1366.91,1444.48 1380.7,1444.33 1394.49,1444.11 1408.29,1443.81 1422.08,1443.34 1435.88,1442.59 1449.67,1441.36 1463.46,1439.24 
  1477.26,1435.45 1491.05,1428.38 1504.85,1414.71 1518.64,1387.48 1532.43,1332.36 1546.23,1222.15 1560.02,1016.16 1573.81,690.366 1587.61,326.856 1601.4,155.842 
  1615.2,469.641 1628.99,969.808 1642.78,1257.82 1656.58,1374.21 1670.37,1417 1684.17,1433.07 1697.96,1439.53 1711.75,1442.37 1725.55,1443.74 1739.34,1444.47 
  1753.14,1444.88 1766.93,1445.14 1780.72,1445.31 1794.52,1445.43 1808.31,1445.51 1822.1,1445.57 1835.9,1445.62 1849.69,1445.65 1863.49,1445.67 1877.28,1445.69 
  1891.07,1445.7 1904.87,1445.71 1918.66,1445.71 1932.46,1445.71 1946.25,1445.72 1960.04,1445.72 1973.84,1445.71 1987.63,1445.71 2001.43,1445.71 2015.22,1445.71 
  2029.01,1445.7 2042.81,1445.7 2056.6,1445.7 2070.39,1445.69 2084.19,1445.69 2097.98,1445.69 2111.78,1445.69 2125.57,1445.68 2139.36,1445.68 2153.16,1445.68 
  2166.95,1445.68 2180.75,1445.68 2194.54,1445.67 2208.33,1445.67 2222.13,1445.67 2235.92,1445.67 2249.72,1445.67 2263.51,1445.67 2277.3,1445.67 2291.1,1445.67 
  
  "/>
<polyline clip-path="url(#clip532)" style="stroke:#3da44d; stroke-linecap:butt; stroke-linejoin:round; stroke-width:4; stroke-opacity:1; fill:none" points="
  235.808,1441.68 249.601,1441.68 263.395,1441.69 277.189,1441.71 290.983,1441.73 304.777,1441.75 318.571,1441.77 332.365,1441.81 346.159,1441.84 359.953,1441.89 
  373.747,1441.94 387.54,1441.99 401.334,1442.06 415.128,1442.13 428.922,1442.21 442.716,1442.3 456.51,1442.4 470.304,1442.51 484.098,1442.64 497.892,1442.77 
  511.685,1442.92 525.479,1443.08 539.273,1443.26 553.067,1443.44 566.861,1443.64 580.655,1443.83 594.449,1444 608.243,1444.14 622.037,1444.2 635.83,1444.14 
  649.624,1443.95 663.418,1443.63 677.212,1443.2 691.006,1442.68 704.8,1442.09 718.594,1441.43 732.388,1440.71 746.182,1439.94 759.975,1439.14 773.769,1438.31 
  787.563,1437.47 801.357,1436.63 815.151,1435.81 828.945,1435.04 842.739,1434.33 856.533,1433.72 870.327,1433.21 884.12,1432.84 897.914,1432.6 911.708,1432.52 
  925.502,1432.52 939.296,1432.51 953.09,1432.48 966.884,1432.45 980.678,1432.41 994.472,1432.36 1008.27,1432.3 1022.06,1432.23 1035.85,1432.16 1049.65,1432.07 
  1063.44,1431.97 1077.23,1431.86 1091.03,1431.74 1104.82,1431.61 1118.62,1431.47 1132.41,1431.31 1146.2,1431.14 1160,1430.96 1173.79,1430.77 1187.59,1430.56 
  1201.38,1430.33 1215.17,1430.09 1228.97,1429.82 1242.76,1429.54 1256.56,1429.23 1270.35,1428.89 1284.14,1428.51 1297.94,1428.09 1311.73,1427.61 1325.52,1427.06 
  1339.32,1426.42 1353.11,1425.64 1366.91,1424.67 1380.7,1423.43 1394.49,1421.8 1408.29,1419.6 1422.08,1416.57 1435.88,1412.32 1449.67,1406.28 1463.46,1397.63 
  1477.26,1385.15 1491.05,1367.01 1504.85,1340.46 1518.64,1301.47 1532.43,1244.47 1546.23,1163.09 1560.02,1053.96 1573.81,926.214 1587.61,813.448 1601.4,766.846 
  1615.2,855.169 1628.99,1033.36 1642.78,1186.61 1656.58,1285.87 1670.37,1344.42 1684.17,1378.49 1697.96,1398.72 1711.75,1411.17 1725.55,1419.17 1739.34,1424.59 
  1753.14,1428.47 1766.93,1431.39 1780.72,1433.69 1794.52,1435.58 1808.31,1437.17 1822.1,1438.54 1835.9,1439.74 1849.69,1440.8 1863.49,1441.75 1877.28,1442.59 
  1891.07,1443.35 1904.87,1444.04 1918.66,1444.66 1932.46,1445.21 1946.25,1445.72 1960.04,1445.26 1973.84,1444.85 1987.63,1444.48 2001.43,1444.15 2015.22,1443.84 
  2029.01,1443.57 2042.81,1443.33 2056.6,1443.11 2070.39,1442.91 2084.19,1442.73 2097.98,1442.57 2111.78,1442.43 2125.57,1442.31 2139.36,1442.2 2153.16,1442.1 
  2166.95,1442.01 2180.75,1441.94 2194.54,1441.87 2208.33,1441.82 2222.13,1441.77 2235.92,1441.74 2249.72,1441.71 2263.51,1441.69 2277.3,1441.68 2291.1,1441.68 
  
  "/>
<path clip-path="url(#clip530)" d="
M1878.47 338.83 L2280.14 338.83 L2280.14 95.2176 L1878.47 95.2176  Z
  " fill="#ffffff" fill-rule="evenodd" fill-opacity="1"/>
<polyline clip-path="url(#clip530)" style="stroke:#000000; stroke-linecap:butt; stroke-linejoin:round; stroke-width:4; stroke-opacity:1; fill:none" points="
  1878.47,338.83 2280.14,338.83 2280.14,95.2176 1878.47,95.2176 1878.47,338.83 
  "/>
<polyline clip-path="url(#clip530)" style="stroke:#009af9; stroke-linecap:butt; stroke-linejoin:round; stroke-width:4; stroke-opacity:1; fill:none" points="
  1902.67,156.121 2047.91,156.121 
  "/>
<path clip-path="url(#clip530)" d="M2072.12 153.218 L2073.03 142.444 L2102.34 142.444 L2103.25 153.218 L2102.05 153.218 Q2101.87 151.064 2101.68 149.822 Q2101.52 148.581 2101.09 147.41 Q2100.7 146.215 2100.18 145.653 Q2099.69 145.067 2098.73 144.622 Q2097.77 144.154 2096.53 144.037 Q2095.29 143.92 2093.41 143.92 Q2091.21 143.92 2090.67 144.013 Q2090.09 144.154 2089.95 144.575 Q2089.8 144.974 2089.8 145.84 L2089.8 171.113 Q2089.8 172.073 2089.99 172.472 Q2090.2 172.846 2091.3 173.151 Q2092.4 173.432 2094.84 173.432 L2096.76 173.432 L2096.76 174.908 Q2094.79 174.767 2087.65 174.767 Q2080.55 174.767 2078.59 174.908 L2078.59 173.432 L2080.51 173.432 Q2082.94 173.432 2084.04 173.151 Q2085.17 172.846 2085.35 172.472 Q2085.54 172.073 2085.54 171.113 L2085.54 145.84 Q2085.54 145.161 2085.49 144.88 Q2085.45 144.599 2085.24 144.365 Q2085.03 144.107 2084.53 144.013 Q2084.07 143.92 2081.96 143.92 Q2080.08 143.92 2078.82 144.037 Q2077.58 144.154 2076.62 144.622 Q2075.66 145.067 2075.14 145.653 Q2074.65 146.215 2074.23 147.41 Q2073.83 148.581 2073.67 149.822 Q2073.5 151.064 2073.32 153.218 L2072.12 153.218 Z" fill="#000000" fill-rule="evenodd" fill-opacity="1" /><path clip-path="url(#clip530)" d="M2110.29 174.908 L2110.29 173.432 Q2112.85 173.432 2113.43 173.127 Q2114.04 172.8 2114.04 171.254 L2114.04 158.395 Q2114.04 156.615 2113.41 156.17 Q2112.8 155.725 2110.29 155.725 L2110.29 154.226 L2116.97 153.71 L2116.97 158.98 Q2117.65 156.919 2119.08 155.326 Q2120.53 153.71 2122.87 153.71 Q2124.42 153.71 2125.4 154.577 Q2126.41 155.444 2126.41 156.638 Q2126.41 157.692 2125.75 158.231 Q2125.12 158.746 2124.35 158.746 Q2123.48 158.746 2122.87 158.207 Q2122.29 157.645 2122.29 156.685 Q2122.29 156.099 2122.54 155.654 Q2122.83 155.186 2123.04 155.022 Q2123.25 154.858 2123.39 154.811 Q2123.29 154.764 2122.87 154.764 Q2120.23 154.764 2118.7 157.411 Q2117.2 160.034 2117.2 163.782 L2117.2 171.16 Q2117.2 172.542 2117.77 172.987 Q2118.35 173.432 2120.86 173.432 L2121.87 173.432 L2121.87 174.908 Q2119.94 174.767 2115.78 174.767 Q2115.19 174.767 2114.28 174.79 Q2113.36 174.814 2112.17 174.861 Q2110.97 174.908 2110.29 174.908 Z" fill="#000000" fill-rule="evenodd" fill-opacity="1" /><path clip-path="url(#clip530)" d="M2128.85 162.915 Q2128.85 154.811 2131.87 148.276 Q2133.16 145.536 2134.96 143.24 Q2136.77 140.945 2137.96 139.938 Q2139.15 138.931 2139.48 138.931 Q2139.95 138.931 2139.97 139.399 Q2139.97 139.633 2139.34 140.219 Q2131.61 148.089 2131.64 162.915 Q2131.64 177.789 2139.15 185.354 Q2139.97 186.174 2139.97 186.431 Q2139.97 186.9 2139.48 186.9 Q2139.15 186.9 2138.01 185.94 Q2136.86 184.979 2135.08 182.777 Q2133.3 180.576 2132.01 177.882 Q2128.85 171.347 2128.85 162.915 Z" fill="#000000" fill-rule="evenodd" fill-opacity="1" /><path clip-path="url(#clip530)" d="M2164.67 155.959 Q2164.67 155.982 2164.53 156.825 L2159.19 178.116 Q2158.91 179.241 2158.12 180.365 Q2157.34 181.513 2156.1 182.496 Q2154.88 183.504 2153.01 184.113 Q2151.16 184.745 2149.03 184.745 Q2145.63 184.745 2144.13 184.019 Q2142.66 183.316 2142.66 181.817 Q2142.66 180.506 2143.48 179.756 Q2144.3 179.03 2145.23 179.03 Q2146.12 179.03 2146.59 179.545 Q2147.06 180.06 2147.06 180.716 Q2147.06 181.442 2146.57 182.169 Q2146.08 182.918 2145.09 183.199 Q2146.66 183.691 2148.93 183.691 Q2153.74 183.691 2155.8 178.608 Q2155.84 178.538 2155.84 178.515 L2157.44 172.167 L2157.37 172.12 Q2156.97 172.589 2156.34 173.127 Q2155.73 173.643 2154.41 174.275 Q2153.1 174.908 2151.81 174.908 Q2149.12 174.908 2147.27 172.846 Q2145.44 170.762 2145.44 167.319 Q2145.44 164.812 2146.45 162.306 Q2147.48 159.777 2149.07 157.926 Q2150.69 156.052 2152.75 154.881 Q2154.84 153.71 2156.85 153.71 Q2158.26 153.71 2159.45 154.553 Q2160.65 155.373 2161.3 156.732 Q2161.42 155.607 2162.05 155.139 Q2162.71 154.671 2163.27 154.671 Q2163.9 154.671 2164.28 155.022 Q2164.67 155.35 2164.67 155.959 M2160.74 158.887 Q2160.74 158.746 2160.65 158.371 Q2160.55 157.973 2160.27 157.341 Q2160.01 156.708 2159.61 156.146 Q2159.22 155.584 2158.49 155.186 Q2157.79 154.764 2156.9 154.764 Q2155.45 154.764 2153.99 155.982 Q2152.54 157.177 2151.53 159.027 Q2150.6 160.807 2149.71 164.25 Q2148.84 167.693 2148.84 169.45 Q2148.84 171.183 2149.59 172.518 Q2150.34 173.854 2151.96 173.854 Q2153.83 173.854 2155.84 172.12 Q2157.93 170.317 2158.28 168.771 L2160.6 159.613 Q2160.74 159.051 2160.74 158.887 Z" fill="#000000" fill-rule="evenodd" fill-opacity="1" /><path clip-path="url(#clip530)" d="M2169.33 186.431 Q2169.33 186.197 2169.93 185.612 Q2177.66 177.742 2177.66 162.915 Q2177.66 148.042 2170.24 140.523 Q2169.33 139.657 2169.33 139.399 Q2169.33 138.931 2169.79 138.931 Q2170.12 138.931 2171.27 139.891 Q2172.44 140.851 2174.2 143.053 Q2175.98 145.255 2177.29 147.948 Q2180.45 154.483 2180.45 162.915 Q2180.45 171.019 2177.43 177.554 Q2176.14 180.295 2174.34 182.59 Q2172.53 184.886 2171.34 185.893 Q2170.15 186.9 2169.79 186.9 Q2169.33 186.9 2169.33 186.431 Z" fill="#000000" fill-rule="evenodd" fill-opacity="1" /><polyline clip-path="url(#clip530)" style="stroke:#e26f46; stroke-linecap:butt; stroke-linejoin:round; stroke-width:4; stroke-opacity:1; fill:none" points="
  1902.67,217.024 2047.91,217.024 
  "/>
<path clip-path="url(#clip530)" d="M2072.12 225.505 Q2072.12 220.937 2075.31 217.775 Q2078.49 214.613 2082.8 214.613 Q2086.46 214.613 2088.84 217.588 L2088.84 207.212 Q2088.84 205.432 2088.21 204.987 Q2087.6 204.542 2085.12 204.542 L2085.12 203.043 L2092.03 202.527 L2092.03 231.641 Q2092.03 233.421 2092.64 233.89 Q2093.27 234.335 2095.75 234.335 L2095.75 235.811 L2088.7 236.349 L2088.7 233.164 Q2086.22 236.326 2082.29 236.349 Q2078.16 236.349 2075.14 233.187 Q2072.12 230.025 2072.12 225.505 M2076.1 225.552 Q2076.1 230.002 2077.48 232.203 Q2079.41 235.272 2082.52 235.272 Q2086.08 235.272 2088.19 231.922 Q2088.73 231.103 2088.7 230.142 L2088.7 220.305 Q2088.7 219.345 2088.19 218.548 Q2086.22 215.667 2083.01 215.667 Q2079.66 215.667 2077.58 218.736 Q2076.1 221.031 2076.1 225.552 Z" fill="#000000" fill-rule="evenodd" fill-opacity="1" /><path clip-path="url(#clip530)" d="M2098.66 225.247 Q2098.66 220.726 2101.56 217.518 Q2104.47 214.309 2108.64 214.309 Q2112.85 214.309 2115.03 217.049 Q2117.23 219.79 2117.23 223.725 Q2117.23 224.451 2117.05 224.591 Q2116.86 224.732 2116.04 224.732 L2102.64 224.732 Q2102.64 229.627 2104.09 231.922 Q2106.11 235.131 2109.5 235.131 Q2109.97 235.131 2110.54 235.038 Q2111.1 234.944 2112.25 234.546 Q2113.39 234.124 2114.4 233.023 Q2115.41 231.922 2115.99 230.189 Q2116.13 229.51 2116.6 229.533 Q2117.23 229.533 2117.23 230.095 Q2117.23 230.517 2116.77 231.477 Q2116.32 232.414 2115.45 233.539 Q2114.59 234.663 2112.9 235.506 Q2111.24 236.349 2109.22 236.349 Q2105.01 236.349 2101.82 233.164 Q2098.66 229.955 2098.66 225.247 M2102.69 223.725 L2114.07 223.725 Q2114.07 222.717 2113.88 221.593 Q2113.72 220.469 2113.21 218.923 Q2112.71 217.354 2111.54 216.37 Q2110.37 215.386 2108.64 215.386 Q2107.87 215.386 2107.02 215.714 Q2106.2 216.042 2105.2 216.838 Q2104.19 217.635 2103.49 219.438 Q2102.78 221.242 2102.69 223.725 Z" fill="#000000" fill-rule="evenodd" fill-opacity="1" /><path clip-path="url(#clip530)" d="M2117.66 216.628 L2117.66 215.574 Q2119.86 215.48 2121.31 213.934 Q2122.79 212.365 2123.28 210.444 Q2123.79 208.523 2123.84 206.298 L2125.04 206.298 L2125.04 215.129 L2131.9 215.129 L2131.9 216.628 L2125.04 216.628 L2125.04 229.955 Q2125.04 235.131 2128.27 235.131 Q2129.65 235.131 2130.56 233.726 Q2131.48 232.297 2131.48 229.768 L2131.48 227.121 L2132.67 227.121 L2132.67 229.861 Q2132.67 232.461 2131.48 234.405 Q2130.28 236.349 2127.92 236.349 Q2127.05 236.349 2126.18 236.115 Q2125.34 235.904 2124.22 235.342 Q2123.12 234.757 2122.41 233.351 Q2121.73 231.922 2121.73 229.861 L2121.73 216.628 L2117.66 216.628 Z" fill="#000000" fill-rule="evenodd" fill-opacity="1" /><path clip-path="url(#clip530)" d="M2136.07 223.818 Q2136.07 215.714 2139.1 209.179 Q2140.38 206.439 2142.19 204.143 Q2143.99 201.848 2145.18 200.841 Q2146.38 199.834 2146.71 199.834 Q2147.18 199.834 2147.2 200.302 Q2147.2 200.536 2146.57 201.122 Q2138.84 208.992 2138.86 223.818 Q2138.86 238.692 2146.38 246.257 Q2147.2 247.077 2147.2 247.334 Q2147.2 247.803 2146.71 247.803 Q2146.38 247.803 2145.23 246.843 Q2144.08 245.882 2142.3 243.68 Q2140.52 241.479 2139.24 238.785 Q2136.07 232.25 2136.07 223.818 Z" fill="#000000" fill-rule="evenodd" fill-opacity="1" /><path clip-path="url(#clip530)" d="M2171.9 216.862 Q2171.9 216.885 2171.76 217.728 L2166.42 239.019 Q2166.14 240.144 2165.34 241.268 Q2164.57 242.416 2163.33 243.399 Q2162.11 244.407 2160.23 245.016 Q2158.38 245.648 2156.25 245.648 Q2152.86 245.648 2151.36 244.922 Q2149.88 244.219 2149.88 242.72 Q2149.88 241.409 2150.7 240.659 Q2151.52 239.933 2152.46 239.933 Q2153.35 239.933 2153.82 240.448 Q2154.28 240.963 2154.28 241.619 Q2154.28 242.345 2153.79 243.072 Q2153.3 243.821 2152.32 244.102 Q2153.89 244.594 2156.16 244.594 Q2160.96 244.594 2163.02 239.511 Q2163.07 239.441 2163.07 239.418 L2164.66 233.07 L2164.59 233.023 Q2164.19 233.492 2163.56 234.03 Q2162.95 234.546 2161.64 235.178 Q2160.33 235.811 2159.04 235.811 Q2156.35 235.811 2154.5 233.749 Q2152.67 231.665 2152.67 228.222 Q2152.67 225.715 2153.68 223.209 Q2154.71 220.68 2156.3 218.829 Q2157.92 216.955 2159.98 215.784 Q2162.06 214.613 2164.08 214.613 Q2165.48 214.613 2166.68 215.456 Q2167.87 216.276 2168.53 217.635 Q2168.64 216.51 2169.27 216.042 Q2169.93 215.574 2170.49 215.574 Q2171.13 215.574 2171.5 215.925 Q2171.9 216.253 2171.9 216.862 M2167.96 219.79 Q2167.96 219.649 2167.87 219.274 Q2167.78 218.876 2167.49 218.244 Q2167.24 217.611 2166.84 217.049 Q2166.44 216.487 2165.71 216.089 Q2165.01 215.667 2164.12 215.667 Q2162.67 215.667 2161.22 216.885 Q2159.77 218.08 2158.76 219.93 Q2157.82 221.71 2156.93 225.153 Q2156.06 228.596 2156.06 230.353 Q2156.06 232.086 2156.81 233.421 Q2157.56 234.757 2159.18 234.757 Q2161.05 234.757 2163.07 233.023 Q2165.15 231.22 2165.5 229.674 L2167.82 220.516 Q2167.96 219.954 2167.96 219.79 Z" fill="#000000" fill-rule="evenodd" fill-opacity="1" /><path clip-path="url(#clip530)" d="M2176.55 247.334 Q2176.55 247.1 2177.16 246.515 Q2184.89 238.645 2184.89 223.818 Q2184.89 208.945 2177.46 201.426 Q2176.55 200.56 2176.55 200.302 Q2176.55 199.834 2177.02 199.834 Q2177.35 199.834 2178.49 200.794 Q2179.67 201.754 2181.42 203.956 Q2183.2 206.158 2184.51 208.851 Q2187.68 215.386 2187.68 223.818 Q2187.68 231.922 2184.65 238.457 Q2183.37 241.198 2181.56 243.493 Q2179.76 245.789 2178.56 246.796 Q2177.37 247.803 2177.02 247.803 Q2176.55 247.803 2176.55 247.334 Z" fill="#000000" fill-rule="evenodd" fill-opacity="1" /><polyline clip-path="url(#clip530)" style="stroke:#3da44d; stroke-linecap:butt; stroke-linejoin:round; stroke-width:4; stroke-opacity:1; fill:none" points="
  1902.67,277.927 2047.91,277.927 
  "/>
<path clip-path="url(#clip530)" d="M2072.12 297.853 L2080.49 284.95 L2083.89 302.072 L2084.53 305.191 Q2084.67 304.376 2085.09 302.993 Q2085.56 301.575 2085.63 301.221 L2096.86 258.081 Q2096.93 257.797 2097.04 257.336 Q2097.18 256.84 2097.25 256.663 Q2097.32 256.486 2097.43 256.131 Q2097.54 255.777 2097.61 255.67 Q2097.68 255.529 2097.78 255.28 Q2097.89 255.032 2098.03 254.961 Q2098.17 254.891 2098.35 254.749 Q2098.53 254.607 2098.74 254.571 Q2098.99 254.536 2099.24 254.501 Q2099.49 254.465 2099.84 254.465 L2106.19 254.465 Q2108.42 254.465 2108.42 255.918 Q2108.42 257.372 2106.26 257.372 L2100.05 257.372 L2085.41 313.344 Q2085.2 314.159 2085.02 314.478 Q2084.88 314.797 2084.39 315.081 Q2083.89 315.364 2083 315.364 L2082.29 315.364 L2077.65 292.288 L2073.29 299.023 L2072.12 297.853 Z" fill="#000000" fill-rule="evenodd" fill-opacity="1" /><path clip-path="url(#clip530)" d="
M2106.04 257.402 L2231.72 257.402 L2231.72 254.387 L2106.04 254.387  Z
  " fill="#000000" fill-rule="evenodd" fill-opacity="1"/>
<path clip-path="url(#clip530)" d="M2111.16 292.721 Q2111.16 288.154 2114.34 284.992 Q2117.53 281.83 2121.84 281.83 Q2125.49 281.83 2127.88 284.804 L2127.88 274.428 Q2127.88 272.648 2127.25 272.203 Q2126.64 271.758 2124.16 271.758 L2124.16 270.259 L2131.07 269.744 L2131.07 298.858 Q2131.07 300.638 2131.68 301.106 Q2132.31 301.551 2134.79 301.551 L2134.79 303.027 L2127.74 303.566 L2127.74 300.38 Q2125.26 303.542 2121.32 303.566 Q2117.2 303.566 2114.18 300.404 Q2111.16 297.242 2111.16 292.721 M2115.14 292.768 Q2115.14 297.218 2116.52 299.42 Q2118.44 302.488 2121.56 302.488 Q2125.12 302.488 2127.23 299.139 Q2127.76 298.319 2127.74 297.359 L2127.74 287.521 Q2127.74 286.561 2127.23 285.765 Q2125.26 282.884 2122.05 282.884 Q2118.7 282.884 2116.61 285.952 Q2115.14 288.247 2115.14 292.768 Z" fill="#000000" fill-rule="evenodd" fill-opacity="1" /><path clip-path="url(#clip530)" d="M2137.7 292.464 Q2137.7 287.943 2140.6 284.734 Q2143.51 281.525 2147.67 281.525 Q2151.89 281.525 2154.07 284.266 Q2156.27 287.006 2156.27 290.941 Q2156.27 291.667 2156.08 291.808 Q2155.9 291.948 2155.08 291.948 L2141.68 291.948 Q2141.68 296.844 2143.13 299.139 Q2145.15 302.348 2148.54 302.348 Q2149.01 302.348 2149.57 302.254 Q2150.13 302.16 2151.28 301.762 Q2152.43 301.341 2153.44 300.24 Q2154.44 299.139 2155.03 297.406 Q2155.17 296.726 2155.64 296.75 Q2156.27 296.75 2156.27 297.312 Q2156.27 297.734 2155.8 298.694 Q2155.36 299.631 2154.49 300.755 Q2153.62 301.879 2151.94 302.723 Q2150.27 303.566 2148.26 303.566 Q2144.04 303.566 2140.86 300.38 Q2137.7 297.171 2137.7 292.464 M2141.73 290.941 L2153.11 290.941 Q2153.11 289.934 2152.92 288.81 Q2152.76 287.685 2152.24 286.139 Q2151.75 284.57 2150.58 283.586 Q2149.41 282.603 2147.67 282.603 Q2146.9 282.603 2146.06 282.931 Q2145.24 283.259 2144.23 284.055 Q2143.22 284.851 2142.52 286.655 Q2141.82 288.458 2141.73 290.941 Z" fill="#000000" fill-rule="evenodd" fill-opacity="1" /><path clip-path="url(#clip530)" d="M2156.69 283.844 L2156.69 282.79 Q2158.9 282.696 2160.35 281.15 Q2161.82 279.581 2162.32 277.661 Q2162.83 275.74 2162.88 273.515 L2164.07 273.515 L2164.07 282.345 L2170.94 282.345 L2170.94 283.844 L2164.07 283.844 L2164.07 297.171 Q2164.07 302.348 2167.31 302.348 Q2168.69 302.348 2169.6 300.942 Q2170.51 299.514 2170.51 296.984 L2170.51 294.337 L2171.71 294.337 L2171.71 297.078 Q2171.71 299.678 2170.51 301.622 Q2169.32 303.566 2166.95 303.566 Q2166.09 303.566 2165.22 303.332 Q2164.38 303.121 2163.25 302.559 Q2162.15 301.973 2161.45 300.568 Q2160.77 299.139 2160.77 297.078 L2160.77 283.844 L2156.69 283.844 Z" fill="#000000" fill-rule="evenodd" fill-opacity="1" /><path clip-path="url(#clip530)" d="M2175.11 291.035 Q2175.11 282.931 2178.13 276.396 Q2179.42 273.655 2181.22 271.36 Q2183.03 269.065 2184.22 268.057 Q2185.42 267.05 2185.74 267.05 Q2186.21 267.05 2186.24 267.519 Q2186.24 267.753 2185.6 268.338 Q2177.87 276.208 2177.9 291.035 Q2177.9 305.908 2185.42 313.473 Q2186.24 314.293 2186.24 314.551 Q2186.24 315.019 2185.74 315.019 Q2185.42 315.019 2184.27 314.059 Q2183.12 313.099 2181.34 310.897 Q2179.56 308.695 2178.27 306.002 Q2175.11 299.467 2175.11 291.035 Z" fill="#000000" fill-rule="evenodd" fill-opacity="1" /><path clip-path="url(#clip530)" d="M2210.93 284.078 Q2210.93 284.102 2210.79 284.945 L2205.45 306.236 Q2205.17 307.36 2204.38 308.484 Q2203.6 309.632 2202.36 310.616 Q2201.14 311.623 2199.27 312.232 Q2197.42 312.864 2195.29 312.864 Q2191.89 312.864 2190.39 312.138 Q2188.92 311.436 2188.92 309.937 Q2188.92 308.625 2189.74 307.875 Q2190.56 307.149 2191.49 307.149 Q2192.38 307.149 2192.85 307.665 Q2193.32 308.18 2193.32 308.836 Q2193.32 309.562 2192.83 310.288 Q2192.34 311.038 2191.35 311.319 Q2192.92 311.81 2195.2 311.81 Q2200 311.81 2202.06 306.728 Q2202.1 306.658 2202.1 306.634 L2203.7 300.287 L2203.63 300.24 Q2203.23 300.708 2202.6 301.247 Q2201.99 301.762 2200.68 302.395 Q2199.36 303.027 2198.08 303.027 Q2195.38 303.027 2193.53 300.966 Q2191.71 298.881 2191.71 295.438 Q2191.71 292.932 2192.71 290.426 Q2193.74 287.896 2195.34 286.046 Q2196.95 284.172 2199.01 283.001 Q2201.1 281.83 2203.11 281.83 Q2204.52 281.83 2205.71 282.673 Q2206.91 283.493 2207.56 284.851 Q2207.68 283.727 2208.31 283.259 Q2208.97 282.79 2209.53 282.79 Q2210.16 282.79 2210.54 283.141 Q2210.93 283.469 2210.93 284.078 M2207 287.006 Q2207 286.866 2206.91 286.491 Q2206.81 286.093 2206.53 285.46 Q2206.27 284.828 2205.88 284.266 Q2205.48 283.704 2204.75 283.305 Q2204.05 282.884 2203.16 282.884 Q2201.71 282.884 2200.25 284.102 Q2198.8 285.296 2197.79 287.147 Q2196.86 288.927 2195.97 292.37 Q2195.1 295.813 2195.1 297.57 Q2195.1 299.303 2195.85 300.638 Q2196.6 301.973 2198.22 301.973 Q2200.09 301.973 2202.1 300.24 Q2204.19 298.436 2204.54 296.89 L2206.86 287.732 Q2207 287.17 2207 287.006 Z" fill="#000000" fill-rule="evenodd" fill-opacity="1" /><path clip-path="url(#clip530)" d="M2215.59 314.551 Q2215.59 314.317 2216.2 313.731 Q2223.92 305.861 2223.92 291.035 Q2223.92 276.162 2216.5 268.643 Q2215.59 267.776 2215.59 267.519 Q2215.59 267.05 2216.06 267.05 Q2216.38 267.05 2217.53 268.01 Q2218.7 268.971 2220.46 271.173 Q2222.24 273.374 2223.55 276.068 Q2226.71 282.603 2226.71 291.035 Q2226.71 299.139 2223.69 305.674 Q2222.4 308.414 2220.6 310.71 Q2218.8 313.005 2217.6 314.012 Q2216.41 315.019 2216.06 315.019 Q2215.59 315.019 2215.59 314.551 Z" fill="#000000" fill-rule="evenodd" fill-opacity="1" /></svg>
