<?xml version="1.0" encoding="utf-8"?>
<svg xmlns="http://www.w3.org/2000/svg" xmlns:xlink="http://www.w3.org/1999/xlink" width="600" height="400" viewBox="0 0 2400 1600">
<defs>
  <clipPath id="clip560">
    <rect x="0" y="0" width="2400" height="1600"/>
  </clipPath>
</defs>
<path clip-path="url(#clip560)" d="
M0 1600 L2400 1600 L2400 0 L0 0  Z
  " fill="#ffffff" fill-rule="evenodd" fill-opacity="1"/>
<defs>
  <clipPath id="clip561">
    <rect x="480" y="0" width="1681" height="1600"/>
  </clipPath>
</defs>
<defs>
  <clipPath id="clip562">
    <rect x="174" y="47" width="2180" height="1440"/>
  </clipPath>
</defs>
<path clip-path="url(#clip560)" d="
M174.149 1486.45 L2352.76 1486.45 L2352.76 47.2441 L174.149 47.2441  Z
  " fill="#ffffff" fill-rule="evenodd" fill-opacity="1"/>
<polyline clip-path="url(#clip562)" style="stroke:#000000; stroke-linecap:butt; stroke-linejoin:round; stroke-width:2; stroke-opacity:0.1; fill:none" points="
  235.808,1486.45 235.808,47.2441 
  "/>
<polyline clip-path="url(#clip562)" style="stroke:#000000; stroke-linecap:butt; stroke-linejoin:round; stroke-width:2; stroke-opacity:0.1; fill:none" points="
  911.708,1486.45 911.708,47.2441 
  "/>
<polyline clip-path="url(#clip562)" style="stroke:#000000; stroke-linecap:butt; stroke-linejoin:round; stroke-width:2; stroke-opacity:0.1; fill:none" points="
  1601.4,1486.45 1601.4,47.2441 
  "/>
<polyline clip-path="url(#clip562)" style="stroke:#000000; stroke-linecap:butt; stroke-linejoin:round; stroke-width:2; stroke-opacity:0.1; fill:none" points="
  2291.1,1486.45 2291.1,47.2441 
  "/>
<polyline clip-path="url(#clip560)" style="stroke:#000000; stroke-linecap:butt; stroke-linejoin:round; stroke-width:4; stroke-opacity:1; fill:none" points="
  174.149,1486.45 2352.76,1486.45 
  "/>
<polyline clip-path="url(#clip560)" style="stroke:#000000; stroke-linecap:butt; stroke-linejoin:round; stroke-width:4; stroke-opacity:1; fill:none" points="
  235.808,1486.45 235.808,1467.55 
  "/>
<polyline clip-path="url(#clip560)" style="stroke:#000000; stroke-linecap:butt; stroke-linejoin:round; stroke-width:4; stroke-opacity:1; fill:none" points="
  911.708,1486.45 911.708,1467.55 
  "/>
<polyline clip-path="url(#clip560)" style="stroke:#000000; stroke-linecap:butt; stroke-linejoin:round; stroke-width:4; stroke-opacity:1; fill:none" points="
  1601.4,1486.45 1601.4,1467.55 
  "/>
<polyline clip-path="url(#clip560)" style="stroke:#000000; stroke-linecap:butt; stroke-linejoin:round; stroke-width:4; stroke-opacity:1; fill:none" points="
  2291.1,1486.45 2291.1,1467.55 
  "/>
<path clip-path="url(#clip560)" d="M220.964 1554.64 L220.964 1553.16 L221.667 1553.16 Q224.22 1553.16 225.016 1552.81 Q225.836 1552.43 225.906 1551.08 L225.906 1525.48 Q225.859 1524.23 225.063 1523.86 Q224.266 1523.46 221.667 1523.46 L220.964 1523.46 L220.964 1522.01 Q223.212 1522.1 227.71 1522.1 Q229.536 1522.1 231.106 1522.06 Q232.699 1522.01 232.956 1522.01 L246.002 1522.01 L247.338 1532.81 L246.096 1532.81 Q245.721 1529.88 245.3 1528.36 Q244.902 1526.81 243.918 1525.57 Q242.934 1524.33 241.295 1523.91 Q239.655 1523.46 236.891 1523.46 L232.792 1523.46 Q231.246 1523.46 230.708 1523.77 Q230.169 1524.07 230.169 1525.33 L230.169 1550.94 Q230.169 1552.41 231.153 1552.79 Q232.136 1553.16 235.439 1553.16 L236.306 1553.16 L236.306 1554.64 Q232.23 1554.5 228.108 1554.5 L227.803 1554.5 Q224.805 1554.5 220.964 1554.64 Z" fill="#000000" fill-rule="evenodd" fill-opacity="1" /><path clip-path="url(#clip560)" d="M893.896 1554.71 L893.896 1553.23 Q896.097 1553.23 897.714 1552.55 Q899.33 1551.87 899.798 1551.38 Q900.29 1550.87 900.852 1550.05 L908.722 1538.45 L899.892 1525.1 Q899.213 1524.09 898.299 1523.77 Q897.409 1523.44 895.442 1523.44 L894.528 1523.44 L894.528 1521.94 Q897.175 1522.08 900.758 1522.08 Q906.075 1522.08 907.762 1521.94 L907.762 1523.44 Q906.333 1523.48 905.49 1523.95 Q904.647 1524.4 904.647 1524.87 Q904.647 1525.05 904.975 1525.59 L911.158 1534.84 L916.639 1526.74 Q917.061 1526.06 917.061 1525.64 Q917.061 1524.77 916.264 1524.14 Q915.491 1523.48 914.086 1523.44 L914.086 1521.94 Q916.007 1522.08 920.246 1522.08 Q920.785 1522.08 921.651 1522.06 Q922.541 1522.03 923.712 1521.99 Q924.884 1521.94 925.563 1521.94 L925.563 1523.44 Q920.714 1523.48 918.606 1526.55 L912.025 1536.18 L922.143 1551.5 Q922.869 1552.55 923.783 1552.9 Q924.696 1553.23 926.664 1553.23 L927.577 1553.23 L927.577 1554.71 Q924.556 1554.57 921.347 1554.57 Q916.03 1554.57 914.344 1554.71 L914.344 1553.23 Q915.772 1553.18 916.615 1552.74 Q917.459 1552.27 917.459 1551.78 Q917.459 1551.73 917.201 1551.26 L909.636 1539.79 L902.82 1549.86 Q902.351 1550.63 902.351 1551.01 Q902.351 1551.78 903.101 1552.48 Q903.874 1553.16 905.373 1553.23 L905.373 1554.71 Q903.639 1554.57 899.213 1554.57 Q899.072 1554.57 893.896 1554.71 Z" fill="#000000" fill-rule="evenodd" fill-opacity="1" /><path clip-path="url(#clip560)" d="M1579.66 1554.71 L1579.66 1553.23 Q1581.39 1553.23 1582.49 1552.9 Q1583.59 1552.55 1583.99 1551.92 Q1584.41 1551.26 1584.51 1550.84 Q1584.6 1550.4 1584.6 1549.67 L1584.6 1525.69 Q1584.6 1524.3 1583.99 1523.88 Q1583.41 1523.44 1580.81 1523.44 L1579.66 1523.44 L1579.66 1521.94 L1587.76 1521.94 Q1588.63 1521.94 1588.86 1522.1 Q1589.1 1522.24 1589.45 1522.99 L1599.85 1549.86 L1610.34 1522.85 Q1610.58 1522.17 1610.79 1522.06 Q1611.02 1521.94 1611.94 1521.94 L1620.04 1521.94 L1620.04 1523.44 L1618.89 1523.44 Q1616.29 1523.44 1615.68 1523.88 Q1615.1 1524.3 1615.1 1525.69 L1615.1 1550.96 Q1615.1 1552.34 1615.68 1552.79 Q1616.29 1553.23 1618.89 1553.23 L1620.04 1553.23 L1620.04 1554.71 Q1618.26 1554.57 1613.18 1554.57 Q1608.05 1554.57 1606.27 1554.71 L1606.27 1553.23 L1607.44 1553.23 Q1610.04 1553.23 1610.62 1552.81 Q1611.21 1552.36 1611.21 1550.96 L1611.21 1523.44 L1611.16 1523.44 L1599.38 1553.79 Q1599.05 1554.71 1598.51 1554.71 Q1597.93 1554.71 1597.55 1553.65 L1585.98 1523.81 L1585.94 1523.81 L1585.94 1549.67 Q1585.94 1550.4 1586.03 1550.84 Q1586.12 1551.26 1586.52 1551.92 Q1586.94 1552.55 1588.04 1552.9 Q1589.15 1553.23 1590.88 1553.23 L1590.88 1554.71 Q1585.84 1554.57 1585.26 1554.57 Q1584.69 1554.57 1579.66 1554.71 Z" fill="#000000" fill-rule="evenodd" fill-opacity="1" /><path clip-path="url(#clip560)" d="M2276.25 1554.64 L2276.25 1553.16 L2276.96 1553.16 Q2279.51 1553.16 2280.31 1552.81 Q2281.13 1552.43 2281.2 1551.08 L2281.2 1525.48 Q2281.15 1524.23 2280.35 1523.86 Q2279.56 1523.46 2276.96 1523.46 L2276.25 1523.46 L2276.25 1522.01 Q2278.5 1522.1 2283 1522.1 Q2284.83 1522.1 2286.4 1522.06 Q2287.99 1522.01 2288.25 1522.01 L2301.29 1522.01 L2302.63 1532.81 L2301.39 1532.81 Q2301.01 1529.88 2300.59 1528.36 Q2300.19 1526.81 2299.21 1525.57 Q2298.22 1524.33 2296.58 1523.91 Q2294.94 1523.46 2292.18 1523.46 L2288.08 1523.46 Q2286.54 1523.46 2286 1523.77 Q2285.46 1524.07 2285.46 1525.33 L2285.46 1550.94 Q2285.46 1552.41 2286.44 1552.79 Q2287.43 1553.16 2290.73 1553.16 L2291.6 1553.16 L2291.6 1554.64 Q2287.52 1554.5 2283.4 1554.5 L2283.09 1554.5 Q2280.09 1554.5 2276.25 1554.64 Z" fill="#000000" fill-rule="evenodd" fill-opacity="1" /><polyline clip-path="url(#clip562)" style="stroke:#000000; stroke-linecap:butt; stroke-linejoin:round; stroke-width:2; stroke-opacity:0.1; fill:none" points="
  174.149,1451.38 2352.76,1451.38 
  "/>
<polyline clip-path="url(#clip562)" style="stroke:#000000; stroke-linecap:butt; stroke-linejoin:round; stroke-width:2; stroke-opacity:0.1; fill:none" points="
  174.149,1092.59 2352.76,1092.59 
  "/>
<polyline clip-path="url(#clip562)" style="stroke:#000000; stroke-linecap:butt; stroke-linejoin:round; stroke-width:2; stroke-opacity:0.1; fill:none" points="
  174.149,733.809 2352.76,733.809 
  "/>
<polyline clip-path="url(#clip562)" style="stroke:#000000; stroke-linecap:butt; stroke-linejoin:round; stroke-width:2; stroke-opacity:0.1; fill:none" points="
  174.149,375.025 2352.76,375.025 
  "/>
<polyline clip-path="url(#clip560)" style="stroke:#000000; stroke-linecap:butt; stroke-linejoin:round; stroke-width:4; stroke-opacity:1; fill:none" points="
  174.149,1486.45 174.149,47.2441 
  "/>
<polyline clip-path="url(#clip560)" style="stroke:#000000; stroke-linecap:butt; stroke-linejoin:round; stroke-width:4; stroke-opacity:1; fill:none" points="
  174.149,1451.38 193.047,1451.38 
  "/>
<polyline clip-path="url(#clip560)" style="stroke:#000000; stroke-linecap:butt; stroke-linejoin:round; stroke-width:4; stroke-opacity:1; fill:none" points="
  174.149,1092.59 193.047,1092.59 
  "/>
<polyline clip-path="url(#clip560)" style="stroke:#000000; stroke-linecap:butt; stroke-linejoin:round; stroke-width:4; stroke-opacity:1; fill:none" points="
  174.149,733.809 193.047,733.809 
  "/>
<polyline clip-path="url(#clip560)" style="stroke:#000000; stroke-linecap:butt; stroke-linejoin:round; stroke-width:4; stroke-opacity:1; fill:none" points="
  174.149,375.025 193.047,375.025 
  "/>
<path clip-path="url(#clip560)" d="M126.205 1437.17 Q122.593 1437.17 120.765 1440.74 Q118.959 1444.28 118.959 1451.41 Q118.959 1458.52 120.765 1462.08 Q122.593 1465.62 126.205 1465.62 Q129.839 1465.62 131.644 1462.08 Q133.473 1458.52 133.473 1451.41 Q133.473 1444.28 131.644 1440.74 Q129.839 1437.17 126.205 1437.17 M126.205 1433.47 Q132.015 1433.47 135.07 1438.08 Q138.149 1442.66 138.149 1451.41 Q138.149 1460.14 135.07 1464.74 Q132.015 1469.33 126.205 1469.33 Q120.394 1469.33 117.316 1464.74 Q114.26 1460.14 114.26 1451.41 Q114.26 1442.66 117.316 1438.08 Q120.394 1433.47 126.205 1433.47 Z" fill="#000000" fill-rule="evenodd" fill-opacity="1" /><path clip-path="url(#clip560)" d="M118.242 1105.94 L125.88 1105.94 L125.88 1079.57 L117.57 1081.24 L117.57 1076.98 L125.834 1075.31 L130.51 1075.31 L130.51 1105.94 L138.149 1105.94 L138.149 1109.87 L118.242 1109.87 L118.242 1105.94 Z" fill="#000000" fill-rule="evenodd" fill-opacity="1" /><path clip-path="url(#clip560)" d="M121.83 747.154 L138.149 747.154 L138.149 751.089 L116.205 751.089 L116.205 747.154 Q118.867 744.399 123.45 739.77 Q128.056 735.117 129.237 733.774 Q131.482 731.251 132.362 729.515 Q133.265 727.756 133.265 726.066 Q133.265 723.311 131.32 721.575 Q129.399 719.839 126.297 719.839 Q124.098 719.839 121.644 720.603 Q119.214 721.367 116.436 722.918 L116.436 718.196 Q119.26 717.061 121.714 716.483 Q124.168 715.904 126.205 715.904 Q131.575 715.904 134.769 718.589 Q137.964 721.274 137.964 725.765 Q137.964 727.895 137.154 729.816 Q136.367 731.714 134.26 734.307 Q133.681 734.978 130.58 738.195 Q127.478 741.39 121.83 747.154 Z" fill="#000000" fill-rule="evenodd" fill-opacity="1" /><path clip-path="url(#clip560)" d="M131.019 373.671 Q134.376 374.389 136.251 376.657 Q138.149 378.926 138.149 382.259 Q138.149 387.375 134.63 390.176 Q131.112 392.977 124.63 392.977 Q122.455 392.977 120.14 392.537 Q117.848 392.12 115.394 391.264 L115.394 386.75 Q117.339 387.884 119.654 388.463 Q121.968 389.042 124.492 389.042 Q128.89 389.042 131.181 387.306 Q133.496 385.569 133.496 382.259 Q133.496 379.204 131.343 377.491 Q129.214 375.755 125.394 375.755 L121.367 375.755 L121.367 371.912 L125.58 371.912 Q129.029 371.912 130.857 370.546 Q132.686 369.157 132.686 366.565 Q132.686 363.903 130.788 362.491 Q128.913 361.056 125.394 361.056 Q123.473 361.056 121.274 361.472 Q119.075 361.889 116.436 362.769 L116.436 358.602 Q119.098 357.861 121.413 357.491 Q123.751 357.12 125.811 357.12 Q131.135 357.12 134.237 359.551 Q137.339 361.958 137.339 366.079 Q137.339 368.949 135.695 370.94 Q134.052 372.907 131.019 373.671 Z" fill="#000000" fill-rule="evenodd" fill-opacity="1" /><path clip-path="url(#clip560)" d="M20.8447 994.42 Q20.8447 1001.42 26.0645 1005.56 Q31.2844 1009.67 40.2919 1009.67 Q49.2675 1009.67 54.4874 1005.56 Q59.7073 1001.42 59.7073 994.42 Q59.7073 987.418 54.4874 983.344 Q49.2675 979.238 40.2919 979.238 Q31.2844 979.238 26.0645 983.344 Q20.8447 987.418 20.8447 994.42 M63.1448 985.413 L72.4069 976.946 L72.4069 984.712 L64.7999 991.746 Q64.8635 992.797 64.8954 993.37 Q64.9272 993.911 64.9272 994.42 Q64.9272 1004.45 58.2432 1010.46 Q51.5274 1016.45 40.2919 1016.45 Q29.0246 1016.45 22.3406 1010.46 Q15.6248 1004.45 15.6248 994.42 Q15.6248 984.426 22.3406 978.442 Q29.0246 972.458 40.2919 972.458 Q48.5673 972.458 54.4556 975.8 Q60.3439 979.11 63.1448 985.413 Z" fill="#000000" fill-rule="evenodd" fill-opacity="1" /><path clip-path="url(#clip560)" d="M49.9359 963.26 L28.3562 963.26 L28.3562 957.403 L49.7131 957.403 Q54.7739 957.403 57.3202 955.43 Q59.8346 953.457 59.8346 949.51 Q59.8346 944.767 56.8109 942.03 Q53.7872 939.261 48.5673 939.261 L28.3562 939.261 L28.3562 933.405 L64.0042 933.405 L64.0042 939.261 L58.5296 939.261 Q61.7762 941.394 63.3676 944.226 Q64.9272 947.027 64.9272 950.751 Q64.9272 956.894 61.1078 960.077 Q57.2883 963.26 49.9359 963.26 M27.4968 948.523 L27.4968 948.523 Z" fill="#000000" fill-rule="evenodd" fill-opacity="1" /><path clip-path="url(#clip560)" d="M46.0847 905.141 Q46.0847 912.239 47.7079 914.976 Q49.3312 917.713 53.2461 917.713 Q56.3653 917.713 58.2114 915.676 Q60.0256 913.607 60.0256 910.074 Q60.0256 905.205 56.5881 902.276 Q53.1188 899.316 47.3897 899.316 L46.0847 899.316 L46.0847 905.141 M43.6657 893.46 L64.0042 893.46 L64.0042 899.316 L58.5933 899.316 Q61.8398 901.322 63.3994 904.313 Q64.9272 907.305 64.9272 911.634 Q64.9272 917.108 61.8716 920.355 Q58.7843 923.57 53.6281 923.57 Q47.6125 923.57 44.5569 919.559 Q41.5014 915.517 41.5014 907.528 L41.5014 899.316 L40.9285 899.316 Q36.8862 899.316 34.6901 901.99 Q32.4621 904.632 32.4621 909.438 Q32.4621 912.493 33.1941 915.39 Q33.9262 918.286 35.3903 920.96 L29.9795 920.96 Q28.7381 917.745 28.1334 914.721 Q27.4968 911.698 27.4968 908.833 Q27.4968 901.099 31.5072 897.279 Q35.5176 893.46 43.6657 893.46 Z" fill="#000000" fill-rule="evenodd" fill-opacity="1" /><path clip-path="url(#clip560)" d="M42.4881 851.765 L64.0042 851.765 L64.0042 857.621 L42.679 857.621 Q37.6183 857.621 35.1038 859.594 Q32.5894 861.568 32.5894 865.514 Q32.5894 870.257 35.6131 872.994 Q38.6368 875.731 43.8567 875.731 L64.0042 875.731 L64.0042 881.62 L28.3562 881.62 L28.3562 875.731 L33.8944 875.731 Q30.6797 873.631 29.0883 870.798 Q27.4968 867.933 27.4968 864.209 Q27.4968 858.067 31.3163 854.916 Q35.1038 851.765 42.4881 851.765 Z" fill="#000000" fill-rule="evenodd" fill-opacity="1" /><path clip-path="url(#clip560)" d="M18.2347 834.291 L28.3562 834.291 L28.3562 822.228 L32.9077 822.228 L32.9077 834.291 L52.2594 834.291 Q56.6199 834.291 57.8613 833.113 Q59.1026 831.904 59.1026 828.243 L59.1026 822.228 L64.0042 822.228 L64.0042 828.243 Q64.0042 835.023 61.4897 837.601 Q58.9434 840.179 52.2594 840.179 L32.9077 840.179 L32.9077 844.476 L28.3562 844.476 L28.3562 840.179 L18.2347 840.179 L18.2347 834.291 Z" fill="#000000" fill-rule="evenodd" fill-opacity="1" /><path clip-path="url(#clip560)" d="M49.9359 815.13 L28.3562 815.13 L28.3562 809.273 L49.7131 809.273 Q54.7739 809.273 57.3202 807.3 Q59.8346 805.327 59.8346 801.38 Q59.8346 796.637 56.8109 793.9 Q53.7872 791.131 48.5673 791.131 L28.3562 791.131 L28.3562 785.275 L64.0042 785.275 L64.0042 791.131 L58.5296 791.131 Q61.7762 793.264 63.3676 796.096 Q64.9272 798.897 64.9272 802.621 Q64.9272 808.764 61.1078 811.947 Q57.2883 815.13 49.9359 815.13 M27.4968 800.393 L27.4968 800.393 Z" fill="#000000" fill-rule="evenodd" fill-opacity="1" /><path clip-path="url(#clip560)" d="M35.1993 745.457 Q31.2526 743.261 29.3747 740.206 Q27.4968 737.15 27.4968 733.012 Q27.4968 727.442 31.4117 724.419 Q35.2948 721.395 42.4881 721.395 L64.0042 721.395 L64.0042 727.283 L42.679 727.283 Q37.5546 727.283 35.072 729.097 Q32.5894 730.912 32.5894 734.636 Q32.5894 739.187 35.6131 741.829 Q38.6368 744.471 43.8567 744.471 L64.0042 744.471 L64.0042 750.359 L42.679 750.359 Q37.5228 750.359 35.072 752.173 Q32.5894 753.987 32.5894 757.775 Q32.5894 762.263 35.6449 764.904 Q38.6686 767.546 43.8567 767.546 L64.0042 767.546 L64.0042 773.434 L28.3562 773.434 L28.3562 767.546 L33.8944 767.546 Q30.616 765.541 29.0564 762.74 Q27.4968 759.939 27.4968 756.088 Q27.4968 752.205 29.4702 749.499 Q31.4436 746.762 35.1993 745.457 Z" fill="#000000" fill-rule="evenodd" fill-opacity="1" /><path clip-path="url(#clip560)" d="M16.4842 709.459 L16.4842 699.879 L48.8219 687.752 L16.4842 675.562 L16.4842 665.981 L64.0042 665.981 L64.0042 672.252 L22.277 672.252 L54.8694 684.506 L54.8694 690.967 L22.277 703.221 L64.0042 703.221 L64.0042 709.459 L16.4842 709.459 Z" fill="#000000" fill-rule="evenodd" fill-opacity="1" /><path clip-path="url(#clip560)" d="M44.7161 622.981 L47.5806 622.981 L47.5806 649.908 Q53.6281 649.526 56.8109 646.28 Q59.9619 643.001 59.9619 637.177 Q59.9619 633.803 59.1344 630.652 Q58.3069 627.469 56.6518 624.35 L62.1899 624.35 Q63.5267 627.501 64.227 630.811 Q64.9272 634.121 64.9272 637.527 Q64.9272 646.057 59.9619 651.054 Q54.9967 656.019 46.5303 656.019 Q37.7774 656.019 32.6531 651.308 Q27.4968 646.566 27.4968 638.545 Q27.4968 631.352 32.1438 627.182 Q36.7589 622.981 44.7161 622.981 M42.9973 628.837 Q38.1912 628.901 35.3266 631.543 Q32.4621 634.153 32.4621 638.482 Q32.4621 643.383 35.2312 646.343 Q38.0002 649.271 43.0292 649.717 L42.9973 628.837 Z" fill="#000000" fill-rule="evenodd" fill-opacity="1" /><path clip-path="url(#clip560)" d="M18.2347 607.576 L28.3562 607.576 L28.3562 595.513 L32.9077 595.513 L32.9077 607.576 L52.2594 607.576 Q56.6199 607.576 57.8613 606.398 Q59.1026 605.189 59.1026 601.529 L59.1026 595.513 L64.0042 595.513 L64.0042 601.529 Q64.0042 608.308 61.4897 610.886 Q58.9434 613.464 52.2594 613.464 L32.9077 613.464 L32.9077 617.761 L28.3562 617.761 L28.3562 613.464 L18.2347 613.464 L18.2347 607.576 Z" fill="#000000" fill-rule="evenodd" fill-opacity="1" /><path clip-path="url(#clip560)" d="M33.8307 567.154 Q33.2578 568.14 33.0032 569.318 Q32.7167 570.464 32.7167 571.864 Q32.7167 576.83 35.9632 579.503 Q39.1779 582.145 45.2253 582.145 L64.0042 582.145 L64.0042 588.033 L28.3562 588.033 L28.3562 582.145 L33.8944 582.145 Q30.6479 580.299 29.0883 577.339 Q27.4968 574.379 27.4968 570.146 Q27.4968 569.541 27.5923 568.809 Q27.656 568.077 27.8151 567.186 L33.8307 567.154 Z" fill="#000000" fill-rule="evenodd" fill-opacity="1" /><path clip-path="url(#clip560)" d="M28.3562 561.011 L28.3562 555.154 L64.0042 555.154 L64.0042 561.011 L28.3562 561.011 M14.479 561.011 L14.479 555.154 L21.895 555.154 L21.895 561.011 L14.479 561.011 Z" fill="#000000" fill-rule="evenodd" fill-opacity="1" /><path clip-path="url(#clip560)" d="M29.7248 517.247 L35.1993 517.247 Q33.8307 519.729 33.1623 522.244 Q32.4621 524.726 32.4621 527.273 Q32.4621 532.97 36.0905 536.121 Q39.6872 539.272 46.212 539.272 Q52.7369 539.272 56.3653 536.121 Q59.9619 532.97 59.9619 527.273 Q59.9619 524.726 59.2935 522.244 Q58.5933 519.729 57.2247 517.247 L62.6355 517.247 Q63.7814 519.697 64.3543 522.339 Q64.9272 524.949 64.9272 527.909 Q64.9272 535.962 59.8664 540.704 Q54.8057 545.447 46.212 545.447 Q37.491 545.447 32.4939 540.672 Q27.4968 535.866 27.4968 527.527 Q27.4968 524.822 28.0697 522.244 Q28.6108 519.666 29.7248 517.247 Z" fill="#000000" fill-rule="evenodd" fill-opacity="1" /><circle clip-path="url(#clip562)" cx="235.808" cy="1443.27" r="14" fill="#009af9" fill-rule="evenodd" fill-opacity="1" stroke="#000000" stroke-opacity="1" stroke-width="3.2"/>
<circle clip-path="url(#clip562)" cx="249.601" cy="1443.28" r="14" fill="#009af9" fill-rule="evenodd" fill-opacity="1" stroke="#000000" stroke-opacity="1" stroke-width="3.2"/>
<circle clip-path="url(#clip562)" cx="263.395" cy="1443.3" r="14" fill="#009af9" fill-rule="evenodd" fill-opacity="1" stroke="#000000" stroke-opacity="1" stroke-width="3.2"/>
<circle clip-path="url(#clip562)" cx="277.189" cy="1443.32" r="14" fill="#009af9" fill-rule="evenodd" fill-opacity="1" stroke="#000000" stroke-opacity="1" stroke-width="3.2"/>
<circle clip-path="url(#clip562)" cx="290.983" cy="1443.36" r="14" fill="#009af9" fill-rule="evenodd" fill-opacity="1" stroke="#000000" stroke-opacity="1" stroke-width="3.2"/>
<circle clip-path="url(#clip562)" cx="304.777" cy="1443.4" r="14" fill="#009af9" fill-rule="evenodd" fill-opacity="1" stroke="#000000" stroke-opacity="1" stroke-width="3.2"/>
<circle clip-path="url(#clip562)" cx="318.571" cy="1443.45" r="14" fill="#009af9" fill-rule="evenodd" fill-opacity="1" stroke="#000000" stroke-opacity="1" stroke-width="3.2"/>
<circle clip-path="url(#clip562)" cx="332.365" cy="1443.5" r="14" fill="#009af9" fill-rule="evenodd" fill-opacity="1" stroke="#000000" stroke-opacity="1" stroke-width="3.2"/>
<circle clip-path="url(#clip562)" cx="346.159" cy="1443.56" r="14" fill="#009af9" fill-rule="evenodd" fill-opacity="1" stroke="#000000" stroke-opacity="1" stroke-width="3.2"/>
<circle clip-path="url(#clip562)" cx="359.953" cy="1443.63" r="14" fill="#009af9" fill-rule="evenodd" fill-opacity="1" stroke="#000000" stroke-opacity="1" stroke-width="3.2"/>
<circle clip-path="url(#clip562)" cx="373.747" cy="1443.7" r="14" fill="#009af9" fill-rule="evenodd" fill-opacity="1" stroke="#000000" stroke-opacity="1" stroke-width="3.2"/>
<circle clip-path="url(#clip562)" cx="387.54" cy="1443.78" r="14" fill="#009af9" fill-rule="evenodd" fill-opacity="1" stroke="#000000" stroke-opacity="1" stroke-width="3.2"/>
<circle clip-path="url(#clip562)" cx="401.334" cy="1443.86" r="14" fill="#009af9" fill-rule="evenodd" fill-opacity="1" stroke="#000000" stroke-opacity="1" stroke-width="3.2"/>
<circle clip-path="url(#clip562)" cx="415.128" cy="1443.94" r="14" fill="#009af9" fill-rule="evenodd" fill-opacity="1" stroke="#000000" stroke-opacity="1" stroke-width="3.2"/>
<circle clip-path="url(#clip562)" cx="428.922" cy="1444.03" r="14" fill="#009af9" fill-rule="evenodd" fill-opacity="1" stroke="#000000" stroke-opacity="1" stroke-width="3.2"/>
<circle clip-path="url(#clip562)" cx="442.716" cy="1444.11" r="14" fill="#009af9" fill-rule="evenodd" fill-opacity="1" stroke="#000000" stroke-opacity="1" stroke-width="3.2"/>
<circle clip-path="url(#clip562)" cx="456.51" cy="1444.19" r="14" fill="#009af9" fill-rule="evenodd" fill-opacity="1" stroke="#000000" stroke-opacity="1" stroke-width="3.2"/>
<circle clip-path="url(#clip562)" cx="470.304" cy="1444.27" r="14" fill="#009af9" fill-rule="evenodd" fill-opacity="1" stroke="#000000" stroke-opacity="1" stroke-width="3.2"/>
<circle clip-path="url(#clip562)" cx="484.098" cy="1444.34" r="14" fill="#009af9" fill-rule="evenodd" fill-opacity="1" stroke="#000000" stroke-opacity="1" stroke-width="3.2"/>
<circle clip-path="url(#clip562)" cx="497.892" cy="1444.4" r="14" fill="#009af9" fill-rule="evenodd" fill-opacity="1" stroke="#000000" stroke-opacity="1" stroke-width="3.2"/>
<circle clip-path="url(#clip562)" cx="511.685" cy="1444.46" r="14" fill="#009af9" fill-rule="evenodd" fill-opacity="1" stroke="#000000" stroke-opacity="1" stroke-width="3.2"/>
<circle clip-path="url(#clip562)" cx="525.479" cy="1444.49" r="14" fill="#009af9" fill-rule="evenodd" fill-opacity="1" stroke="#000000" stroke-opacity="1" stroke-width="3.2"/>
<circle clip-path="url(#clip562)" cx="539.273" cy="1444.51" r="14" fill="#009af9" fill-rule="evenodd" fill-opacity="1" stroke="#000000" stroke-opacity="1" stroke-width="3.2"/>
<circle clip-path="url(#clip562)" cx="553.067" cy="1444.5" r="14" fill="#009af9" fill-rule="evenodd" fill-opacity="1" stroke="#000000" stroke-opacity="1" stroke-width="3.2"/>
<circle clip-path="url(#clip562)" cx="566.861" cy="1444.47" r="14" fill="#009af9" fill-rule="evenodd" fill-opacity="1" stroke="#000000" stroke-opacity="1" stroke-width="3.2"/>
<circle clip-path="url(#clip562)" cx="580.655" cy="1444.4" r="14" fill="#009af9" fill-rule="evenodd" fill-opacity="1" stroke="#000000" stroke-opacity="1" stroke-width="3.2"/>
<circle clip-path="url(#clip562)" cx="594.449" cy="1444.28" r="14" fill="#009af9" fill-rule="evenodd" fill-opacity="1" stroke="#000000" stroke-opacity="1" stroke-width="3.2"/>
<circle clip-path="url(#clip562)" cx="608.243" cy="1444.12" r="14" fill="#009af9" fill-rule="evenodd" fill-opacity="1" stroke="#000000" stroke-opacity="1" stroke-width="3.2"/>
<circle clip-path="url(#clip562)" cx="622.037" cy="1443.9" r="14" fill="#009af9" fill-rule="evenodd" fill-opacity="1" stroke="#000000" stroke-opacity="1" stroke-width="3.2"/>
<circle clip-path="url(#clip562)" cx="635.83" cy="1443.62" r="14" fill="#009af9" fill-rule="evenodd" fill-opacity="1" stroke="#000000" stroke-opacity="1" stroke-width="3.2"/>
<circle clip-path="url(#clip562)" cx="649.624" cy="1443.26" r="14" fill="#009af9" fill-rule="evenodd" fill-opacity="1" stroke="#000000" stroke-opacity="1" stroke-width="3.2"/>
<circle clip-path="url(#clip562)" cx="663.418" cy="1442.81" r="14" fill="#009af9" fill-rule="evenodd" fill-opacity="1" stroke="#000000" stroke-opacity="1" stroke-width="3.2"/>
<circle clip-path="url(#clip562)" cx="677.212" cy="1442.27" r="14" fill="#009af9" fill-rule="evenodd" fill-opacity="1" stroke="#000000" stroke-opacity="1" stroke-width="3.2"/>
<circle clip-path="url(#clip562)" cx="691.006" cy="1441.63" r="14" fill="#009af9" fill-rule="evenodd" fill-opacity="1" stroke="#000000" stroke-opacity="1" stroke-width="3.2"/>
<circle clip-path="url(#clip562)" cx="704.8" cy="1440.88" r="14" fill="#009af9" fill-rule="evenodd" fill-opacity="1" stroke="#000000" stroke-opacity="1" stroke-width="3.2"/>
<circle clip-path="url(#clip562)" cx="718.594" cy="1440.02" r="14" fill="#009af9" fill-rule="evenodd" fill-opacity="1" stroke="#000000" stroke-opacity="1" stroke-width="3.2"/>
<circle clip-path="url(#clip562)" cx="732.388" cy="1439.03" r="14" fill="#009af9" fill-rule="evenodd" fill-opacity="1" stroke="#000000" stroke-opacity="1" stroke-width="3.2"/>
<circle clip-path="url(#clip562)" cx="746.182" cy="1437.93" r="14" fill="#009af9" fill-rule="evenodd" fill-opacity="1" stroke="#000000" stroke-opacity="1" stroke-width="3.2"/>
<circle clip-path="url(#clip562)" cx="759.975" cy="1436.72" r="14" fill="#009af9" fill-rule="evenodd" fill-opacity="1" stroke="#000000" stroke-opacity="1" stroke-width="3.2"/>
<circle clip-path="url(#clip562)" cx="773.769" cy="1435.41" r="14" fill="#009af9" fill-rule="evenodd" fill-opacity="1" stroke="#000000" stroke-opacity="1" stroke-width="3.2"/>
<circle clip-path="url(#clip562)" cx="787.563" cy="1434.03" r="14" fill="#009af9" fill-rule="evenodd" fill-opacity="1" stroke="#000000" stroke-opacity="1" stroke-width="3.2"/>
<circle clip-path="url(#clip562)" cx="801.357" cy="1432.59" r="14" fill="#009af9" fill-rule="evenodd" fill-opacity="1" stroke="#000000" stroke-opacity="1" stroke-width="3.2"/>
<circle clip-path="url(#clip562)" cx="815.151" cy="1431.15" r="14" fill="#009af9" fill-rule="evenodd" fill-opacity="1" stroke="#000000" stroke-opacity="1" stroke-width="3.2"/>
<circle clip-path="url(#clip562)" cx="828.945" cy="1429.74" r="14" fill="#009af9" fill-rule="evenodd" fill-opacity="1" stroke="#000000" stroke-opacity="1" stroke-width="3.2"/>
<circle clip-path="url(#clip562)" cx="842.739" cy="1428.42" r="14" fill="#009af9" fill-rule="evenodd" fill-opacity="1" stroke="#000000" stroke-opacity="1" stroke-width="3.2"/>
<circle clip-path="url(#clip562)" cx="856.533" cy="1427.24" r="14" fill="#009af9" fill-rule="evenodd" fill-opacity="1" stroke="#000000" stroke-opacity="1" stroke-width="3.2"/>
<circle clip-path="url(#clip562)" cx="870.327" cy="1426.25" r="14" fill="#009af9" fill-rule="evenodd" fill-opacity="1" stroke="#000000" stroke-opacity="1" stroke-width="3.2"/>
<circle clip-path="url(#clip562)" cx="884.12" cy="1425.51" r="14" fill="#009af9" fill-rule="evenodd" fill-opacity="1" stroke="#000000" stroke-opacity="1" stroke-width="3.2"/>
<circle clip-path="url(#clip562)" cx="897.914" cy="1425.04" r="14" fill="#009af9" fill-rule="evenodd" fill-opacity="1" stroke="#000000" stroke-opacity="1" stroke-width="3.2"/>
<circle clip-path="url(#clip562)" cx="911.708" cy="1424.88" r="14" fill="#009af9" fill-rule="evenodd" fill-opacity="1" stroke="#000000" stroke-opacity="1" stroke-width="3.2"/>
<circle clip-path="url(#clip562)" cx="925.502" cy="1424.88" r="14" fill="#009af9" fill-rule="evenodd" fill-opacity="1" stroke="#000000" stroke-opacity="1" stroke-width="3.2"/>
<circle clip-path="url(#clip562)" cx="939.296" cy="1424.85" r="14" fill="#009af9" fill-rule="evenodd" fill-opacity="1" stroke="#000000" stroke-opacity="1" stroke-width="3.2"/>
<circle clip-path="url(#clip562)" cx="953.09" cy="1424.8" r="14" fill="#009af9" fill-rule="evenodd" fill-opacity="1" stroke="#000000" stroke-opacity="1" stroke-width="3.2"/>
<circle clip-path="url(#clip562)" cx="966.884" cy="1424.74" r="14" fill="#009af9" fill-rule="evenodd" fill-opacity="1" stroke="#000000" stroke-opacity="1" stroke-width="3.2"/>
<circle clip-path="url(#clip562)" cx="980.678" cy="1424.65" r="14" fill="#009af9" fill-rule="evenodd" fill-opacity="1" stroke="#000000" stroke-opacity="1" stroke-width="3.2"/>
<circle clip-path="url(#clip562)" cx="994.472" cy="1424.55" r="14" fill="#009af9" fill-rule="evenodd" fill-opacity="1" stroke="#000000" stroke-opacity="1" stroke-width="3.2"/>
<circle clip-path="url(#clip562)" cx="1008.27" cy="1424.42" r="14" fill="#009af9" fill-rule="evenodd" fill-opacity="1" stroke="#000000" stroke-opacity="1" stroke-width="3.2"/>
<circle clip-path="url(#clip562)" cx="1022.06" cy="1424.28" r="14" fill="#009af9" fill-rule="evenodd" fill-opacity="1" stroke="#000000" stroke-opacity="1" stroke-width="3.2"/>
<circle clip-path="url(#clip562)" cx="1035.85" cy="1424.1" r="14" fill="#009af9" fill-rule="evenodd" fill-opacity="1" stroke="#000000" stroke-opacity="1" stroke-width="3.2"/>
<circle clip-path="url(#clip562)" cx="1049.65" cy="1423.9" r="14" fill="#009af9" fill-rule="evenodd" fill-opacity="1" stroke="#000000" stroke-opacity="1" stroke-width="3.2"/>
<circle clip-path="url(#clip562)" cx="1063.44" cy="1423.67" r="14" fill="#009af9" fill-rule="evenodd" fill-opacity="1" stroke="#000000" stroke-opacity="1" stroke-width="3.2"/>
<circle clip-path="url(#clip562)" cx="1077.23" cy="1423.41" r="14" fill="#009af9" fill-rule="evenodd" fill-opacity="1" stroke="#000000" stroke-opacity="1" stroke-width="3.2"/>
<circle clip-path="url(#clip562)" cx="1091.03" cy="1423.12" r="14" fill="#009af9" fill-rule="evenodd" fill-opacity="1" stroke="#000000" stroke-opacity="1" stroke-width="3.2"/>
<circle clip-path="url(#clip562)" cx="1104.82" cy="1422.78" r="14" fill="#009af9" fill-rule="evenodd" fill-opacity="1" stroke="#000000" stroke-opacity="1" stroke-width="3.2"/>
<circle clip-path="url(#clip562)" cx="1118.62" cy="1422.41" r="14" fill="#009af9" fill-rule="evenodd" fill-opacity="1" stroke="#000000" stroke-opacity="1" stroke-width="3.2"/>
<circle clip-path="url(#clip562)" cx="1132.41" cy="1421.98" r="14" fill="#009af9" fill-rule="evenodd" fill-opacity="1" stroke="#000000" stroke-opacity="1" stroke-width="3.2"/>
<circle clip-path="url(#clip562)" cx="1146.2" cy="1421.5" r="14" fill="#009af9" fill-rule="evenodd" fill-opacity="1" stroke="#000000" stroke-opacity="1" stroke-width="3.2"/>
<circle clip-path="url(#clip562)" cx="1160" cy="1420.96" r="14" fill="#009af9" fill-rule="evenodd" fill-opacity="1" stroke="#000000" stroke-opacity="1" stroke-width="3.2"/>
<circle clip-path="url(#clip562)" cx="1173.79" cy="1420.35" r="14" fill="#009af9" fill-rule="evenodd" fill-opacity="1" stroke="#000000" stroke-opacity="1" stroke-width="3.2"/>
<circle clip-path="url(#clip562)" cx="1187.59" cy="1419.66" r="14" fill="#009af9" fill-rule="evenodd" fill-opacity="1" stroke="#000000" stroke-opacity="1" stroke-width="3.2"/>
<circle clip-path="url(#clip562)" cx="1201.38" cy="1418.87" r="14" fill="#009af9" fill-rule="evenodd" fill-opacity="1" stroke="#000000" stroke-opacity="1" stroke-width="3.2"/>
<circle clip-path="url(#clip562)" cx="1215.17" cy="1417.98" r="14" fill="#009af9" fill-rule="evenodd" fill-opacity="1" stroke="#000000" stroke-opacity="1" stroke-width="3.2"/>
<circle clip-path="url(#clip562)" cx="1228.97" cy="1416.97" r="14" fill="#009af9" fill-rule="evenodd" fill-opacity="1" stroke="#000000" stroke-opacity="1" stroke-width="3.2"/>
<circle clip-path="url(#clip562)" cx="1242.76" cy="1415.81" r="14" fill="#009af9" fill-rule="evenodd" fill-opacity="1" stroke="#000000" stroke-opacity="1" stroke-width="3.2"/>
<circle clip-path="url(#clip562)" cx="1256.56" cy="1414.49" r="14" fill="#009af9" fill-rule="evenodd" fill-opacity="1" stroke="#000000" stroke-opacity="1" stroke-width="3.2"/>
<circle clip-path="url(#clip562)" cx="1270.35" cy="1412.97" r="14" fill="#009af9" fill-rule="evenodd" fill-opacity="1" stroke="#000000" stroke-opacity="1" stroke-width="3.2"/>
<circle clip-path="url(#clip562)" cx="1284.14" cy="1411.21" r="14" fill="#009af9" fill-rule="evenodd" fill-opacity="1" stroke="#000000" stroke-opacity="1" stroke-width="3.2"/>
<circle clip-path="url(#clip562)" cx="1297.94" cy="1409.18" r="14" fill="#009af9" fill-rule="evenodd" fill-opacity="1" stroke="#000000" stroke-opacity="1" stroke-width="3.2"/>
<circle clip-path="url(#clip562)" cx="1311.73" cy="1406.8" r="14" fill="#009af9" fill-rule="evenodd" fill-opacity="1" stroke="#000000" stroke-opacity="1" stroke-width="3.2"/>
<circle clip-path="url(#clip562)" cx="1325.52" cy="1404.03" r="14" fill="#009af9" fill-rule="evenodd" fill-opacity="1" stroke="#000000" stroke-opacity="1" stroke-width="3.2"/>
<circle clip-path="url(#clip562)" cx="1339.32" cy="1400.76" r="14" fill="#009af9" fill-rule="evenodd" fill-opacity="1" stroke="#000000" stroke-opacity="1" stroke-width="3.2"/>
<circle clip-path="url(#clip562)" cx="1353.11" cy="1396.88" r="14" fill="#009af9" fill-rule="evenodd" fill-opacity="1" stroke="#000000" stroke-opacity="1" stroke-width="3.2"/>
<circle clip-path="url(#clip562)" cx="1366.91" cy="1392.24" r="14" fill="#009af9" fill-rule="evenodd" fill-opacity="1" stroke="#000000" stroke-opacity="1" stroke-width="3.2"/>
<circle clip-path="url(#clip562)" cx="1380.7" cy="1386.66" r="14" fill="#009af9" fill-rule="evenodd" fill-opacity="1" stroke="#000000" stroke-opacity="1" stroke-width="3.2"/>
<circle clip-path="url(#clip562)" cx="1394.49" cy="1379.87" r="14" fill="#009af9" fill-rule="evenodd" fill-opacity="1" stroke="#000000" stroke-opacity="1" stroke-width="3.2"/>
<circle clip-path="url(#clip562)" cx="1408.29" cy="1371.54" r="14" fill="#009af9" fill-rule="evenodd" fill-opacity="1" stroke="#000000" stroke-opacity="1" stroke-width="3.2"/>
<circle clip-path="url(#clip562)" cx="1422.08" cy="1361.19" r="14" fill="#009af9" fill-rule="evenodd" fill-opacity="1" stroke="#000000" stroke-opacity="1" stroke-width="3.2"/>
<circle clip-path="url(#clip562)" cx="1435.88" cy="1348.16" r="14" fill="#009af9" fill-rule="evenodd" fill-opacity="1" stroke="#000000" stroke-opacity="1" stroke-width="3.2"/>
<circle clip-path="url(#clip562)" cx="1449.67" cy="1331.53" r="14" fill="#009af9" fill-rule="evenodd" fill-opacity="1" stroke="#000000" stroke-opacity="1" stroke-width="3.2"/>
<circle clip-path="url(#clip562)" cx="1463.46" cy="1309.94" r="14" fill="#009af9" fill-rule="evenodd" fill-opacity="1" stroke="#000000" stroke-opacity="1" stroke-width="3.2"/>
<circle clip-path="url(#clip562)" cx="1477.26" cy="1281.36" r="14" fill="#009af9" fill-rule="evenodd" fill-opacity="1" stroke="#000000" stroke-opacity="1" stroke-width="3.2"/>
<circle clip-path="url(#clip562)" cx="1491.05" cy="1242.75" r="14" fill="#009af9" fill-rule="evenodd" fill-opacity="1" stroke="#000000" stroke-opacity="1" stroke-width="3.2"/>
<circle clip-path="url(#clip562)" cx="1504.85" cy="1189.45" r="14" fill="#009af9" fill-rule="evenodd" fill-opacity="1" stroke="#000000" stroke-opacity="1" stroke-width="3.2"/>
<circle clip-path="url(#clip562)" cx="1518.64" cy="1114.36" r="14" fill="#009af9" fill-rule="evenodd" fill-opacity="1" stroke="#000000" stroke-opacity="1" stroke-width="3.2"/>
<circle clip-path="url(#clip562)" cx="1532.43" cy="1007.24" r="14" fill="#009af9" fill-rule="evenodd" fill-opacity="1" stroke="#000000" stroke-opacity="1" stroke-width="3.2"/>
<circle clip-path="url(#clip562)" cx="1546.23" cy="855.289" r="14" fill="#009af9" fill-rule="evenodd" fill-opacity="1" stroke="#000000" stroke-opacity="1" stroke-width="3.2"/>
<circle clip-path="url(#clip562)" cx="1560.02" cy="649.466" r="14" fill="#009af9" fill-rule="evenodd" fill-opacity="1" stroke="#000000" stroke-opacity="1" stroke-width="3.2"/>
<circle clip-path="url(#clip562)" cx="1573.81" cy="403.416" r="14" fill="#009af9" fill-rule="evenodd" fill-opacity="1" stroke="#000000" stroke-opacity="1" stroke-width="3.2"/>
<circle clip-path="url(#clip562)" cx="1587.61" cy="181.18" r="14" fill="#009af9" fill-rule="evenodd" fill-opacity="1" stroke="#000000" stroke-opacity="1" stroke-width="3.2"/>
<circle clip-path="url(#clip562)" cx="1601.4" cy="87.9763" r="14" fill="#009af9" fill-rule="evenodd" fill-opacity="1" stroke="#000000" stroke-opacity="1" stroke-width="3.2"/>
<circle clip-path="url(#clip562)" cx="1615.2" cy="264.171" r="14" fill="#009af9" fill-rule="evenodd" fill-opacity="1" stroke="#000000" stroke-opacity="1" stroke-width="3.2"/>
<circle clip-path="url(#clip562)" cx="1628.99" cy="612.458" r="14" fill="#009af9" fill-rule="evenodd" fill-opacity="1" stroke="#000000" stroke-opacity="1" stroke-width="3.2"/>
<circle clip-path="url(#clip562)" cx="1642.78" cy="905.717" r="14" fill="#009af9" fill-rule="evenodd" fill-opacity="1" stroke="#000000" stroke-opacity="1" stroke-width="3.2"/>
<circle clip-path="url(#clip562)" cx="1656.58" cy="1095.95" r="14" fill="#009af9" fill-rule="evenodd" fill-opacity="1" stroke="#000000" stroke-opacity="1" stroke-width="3.2"/>
<circle clip-path="url(#clip562)" cx="1670.37" cy="1212.15" r="14" fill="#009af9" fill-rule="evenodd" fill-opacity="1" stroke="#000000" stroke-opacity="1" stroke-width="3.2"/>
<circle clip-path="url(#clip562)" cx="1684.17" cy="1284.28" r="14" fill="#009af9" fill-rule="evenodd" fill-opacity="1" stroke="#000000" stroke-opacity="1" stroke-width="3.2"/>
<circle clip-path="url(#clip562)" cx="1697.96" cy="1330.79" r="14" fill="#009af9" fill-rule="evenodd" fill-opacity="1" stroke="#000000" stroke-opacity="1" stroke-width="3.2"/>
<circle clip-path="url(#clip562)" cx="1711.75" cy="1362.01" r="14" fill="#009af9" fill-rule="evenodd" fill-opacity="1" stroke="#000000" stroke-opacity="1" stroke-width="3.2"/>
<circle clip-path="url(#clip562)" cx="1725.55" cy="1383.7" r="14" fill="#009af9" fill-rule="evenodd" fill-opacity="1" stroke="#000000" stroke-opacity="1" stroke-width="3.2"/>
<circle clip-path="url(#clip562)" cx="1739.34" cy="1399.21" r="14" fill="#009af9" fill-rule="evenodd" fill-opacity="1" stroke="#000000" stroke-opacity="1" stroke-width="3.2"/>
<circle clip-path="url(#clip562)" cx="1753.14" cy="1410.56" r="14" fill="#009af9" fill-rule="evenodd" fill-opacity="1" stroke="#000000" stroke-opacity="1" stroke-width="3.2"/>
<circle clip-path="url(#clip562)" cx="1766.93" cy="1419.01" r="14" fill="#009af9" fill-rule="evenodd" fill-opacity="1" stroke="#000000" stroke-opacity="1" stroke-width="3.2"/>
<circle clip-path="url(#clip562)" cx="1780.72" cy="1425.41" r="14" fill="#009af9" fill-rule="evenodd" fill-opacity="1" stroke="#000000" stroke-opacity="1" stroke-width="3.2"/>
<circle clip-path="url(#clip562)" cx="1794.52" cy="1430.29" r="14" fill="#009af9" fill-rule="evenodd" fill-opacity="1" stroke="#000000" stroke-opacity="1" stroke-width="3.2"/>
<circle clip-path="url(#clip562)" cx="1808.31" cy="1434.05" r="14" fill="#009af9" fill-rule="evenodd" fill-opacity="1" stroke="#000000" stroke-opacity="1" stroke-width="3.2"/>
<circle clip-path="url(#clip562)" cx="1822.1" cy="1436.96" r="14" fill="#009af9" fill-rule="evenodd" fill-opacity="1" stroke="#000000" stroke-opacity="1" stroke-width="3.2"/>
<circle clip-path="url(#clip562)" cx="1835.9" cy="1439.22" r="14" fill="#009af9" fill-rule="evenodd" fill-opacity="1" stroke="#000000" stroke-opacity="1" stroke-width="3.2"/>
<circle clip-path="url(#clip562)" cx="1849.69" cy="1440.96" r="14" fill="#009af9" fill-rule="evenodd" fill-opacity="1" stroke="#000000" stroke-opacity="1" stroke-width="3.2"/>
<circle clip-path="url(#clip562)" cx="1863.49" cy="1442.31" r="14" fill="#009af9" fill-rule="evenodd" fill-opacity="1" stroke="#000000" stroke-opacity="1" stroke-width="3.2"/>
<circle clip-path="url(#clip562)" cx="1877.28" cy="1443.34" r="14" fill="#009af9" fill-rule="evenodd" fill-opacity="1" stroke="#000000" stroke-opacity="1" stroke-width="3.2"/>
<circle clip-path="url(#clip562)" cx="1891.07" cy="1444.12" r="14" fill="#009af9" fill-rule="evenodd" fill-opacity="1" stroke="#000000" stroke-opacity="1" stroke-width="3.2"/>
<circle clip-path="url(#clip562)" cx="1904.87" cy="1444.7" r="14" fill="#009af9" fill-rule="evenodd" fill-opacity="1" stroke="#000000" stroke-opacity="1" stroke-width="3.2"/>
<circle clip-path="url(#clip562)" cx="1918.66" cy="1445.12" r="14" fill="#009af9" fill-rule="evenodd" fill-opacity="1" stroke="#000000" stroke-opacity="1" stroke-width="3.2"/>
<circle clip-path="url(#clip562)" cx="1932.46" cy="1445.41" r="14" fill="#009af9" fill-rule="evenodd" fill-opacity="1" stroke="#000000" stroke-opacity="1" stroke-width="3.2"/>
<circle clip-path="url(#clip562)" cx="1946.25" cy="1445.59" r="14" fill="#009af9" fill-rule="evenodd" fill-opacity="1" stroke="#000000" stroke-opacity="1" stroke-width="3.2"/>
<circle clip-path="url(#clip562)" cx="1960.04" cy="1445.69" r="14" fill="#009af9" fill-rule="evenodd" fill-opacity="1" stroke="#000000" stroke-opacity="1" stroke-width="3.2"/>
<circle clip-path="url(#clip562)" cx="1973.84" cy="1445.72" r="14" fill="#009af9" fill-rule="evenodd" fill-opacity="1" stroke="#000000" stroke-opacity="1" stroke-width="3.2"/>
<circle clip-path="url(#clip562)" cx="1987.63" cy="1445.69" r="14" fill="#009af9" fill-rule="evenodd" fill-opacity="1" stroke="#000000" stroke-opacity="1" stroke-width="3.2"/>
<circle clip-path="url(#clip562)" cx="2001.43" cy="1445.63" r="14" fill="#009af9" fill-rule="evenodd" fill-opacity="1" stroke="#000000" stroke-opacity="1" stroke-width="3.2"/>
<circle clip-path="url(#clip562)" cx="2015.22" cy="1445.53" r="14" fill="#009af9" fill-rule="evenodd" fill-opacity="1" stroke="#000000" stroke-opacity="1" stroke-width="3.2"/>
<circle clip-path="url(#clip562)" cx="2029.01" cy="1445.4" r="14" fill="#009af9" fill-rule="evenodd" fill-opacity="1" stroke="#000000" stroke-opacity="1" stroke-width="3.2"/>
<circle clip-path="url(#clip562)" cx="2042.81" cy="1445.26" r="14" fill="#009af9" fill-rule="evenodd" fill-opacity="1" stroke="#000000" stroke-opacity="1" stroke-width="3.2"/>
<circle clip-path="url(#clip562)" cx="2056.6" cy="1445.11" r="14" fill="#009af9" fill-rule="evenodd" fill-opacity="1" stroke="#000000" stroke-opacity="1" stroke-width="3.2"/>
<circle clip-path="url(#clip562)" cx="2070.39" cy="1444.95" r="14" fill="#009af9" fill-rule="evenodd" fill-opacity="1" stroke="#000000" stroke-opacity="1" stroke-width="3.2"/>
<circle clip-path="url(#clip562)" cx="2084.19" cy="1444.78" r="14" fill="#009af9" fill-rule="evenodd" fill-opacity="1" stroke="#000000" stroke-opacity="1" stroke-width="3.2"/>
<circle clip-path="url(#clip562)" cx="2097.98" cy="1444.62" r="14" fill="#009af9" fill-rule="evenodd" fill-opacity="1" stroke="#000000" stroke-opacity="1" stroke-width="3.2"/>
<circle clip-path="url(#clip562)" cx="2111.78" cy="1444.45" r="14" fill="#009af9" fill-rule="evenodd" fill-opacity="1" stroke="#000000" stroke-opacity="1" stroke-width="3.2"/>
<circle clip-path="url(#clip562)" cx="2125.57" cy="1444.29" r="14" fill="#009af9" fill-rule="evenodd" fill-opacity="1" stroke="#000000" stroke-opacity="1" stroke-width="3.2"/>
<circle clip-path="url(#clip562)" cx="2139.36" cy="1444.14" r="14" fill="#009af9" fill-rule="evenodd" fill-opacity="1" stroke="#000000" stroke-opacity="1" stroke-width="3.2"/>
<circle clip-path="url(#clip562)" cx="2153.16" cy="1444" r="14" fill="#009af9" fill-rule="evenodd" fill-opacity="1" stroke="#000000" stroke-opacity="1" stroke-width="3.2"/>
<circle clip-path="url(#clip562)" cx="2166.95" cy="1443.87" r="14" fill="#009af9" fill-rule="evenodd" fill-opacity="1" stroke="#000000" stroke-opacity="1" stroke-width="3.2"/>
<circle clip-path="url(#clip562)" cx="2180.75" cy="1443.74" r="14" fill="#009af9" fill-rule="evenodd" fill-opacity="1" stroke="#000000" stroke-opacity="1" stroke-width="3.2"/>
<circle clip-path="url(#clip562)" cx="2194.54" cy="1443.63" r="14" fill="#009af9" fill-rule="evenodd" fill-opacity="1" stroke="#000000" stroke-opacity="1" stroke-width="3.2"/>
<circle clip-path="url(#clip562)" cx="2208.33" cy="1443.54" r="14" fill="#009af9" fill-rule="evenodd" fill-opacity="1" stroke="#000000" stroke-opacity="1" stroke-width="3.2"/>
<circle clip-path="url(#clip562)" cx="2222.13" cy="1443.45" r="14" fill="#009af9" fill-rule="evenodd" fill-opacity="1" stroke="#000000" stroke-opacity="1" stroke-width="3.2"/>
<circle clip-path="url(#clip562)" cx="2235.92" cy="1443.39" r="14" fill="#009af9" fill-rule="evenodd" fill-opacity="1" stroke="#000000" stroke-opacity="1" stroke-width="3.2"/>
<circle clip-path="url(#clip562)" cx="2249.72" cy="1443.33" r="14" fill="#009af9" fill-rule="evenodd" fill-opacity="1" stroke="#000000" stroke-opacity="1" stroke-width="3.2"/>
<circle clip-path="url(#clip562)" cx="2263.51" cy="1443.29" r="14" fill="#009af9" fill-rule="evenodd" fill-opacity="1" stroke="#000000" stroke-opacity="1" stroke-width="3.2"/>
<circle clip-path="url(#clip562)" cx="2277.3" cy="1443.27" r="14" fill="#009af9" fill-rule="evenodd" fill-opacity="1" stroke="#000000" stroke-opacity="1" stroke-width="3.2"/>
<circle clip-path="url(#clip562)" cx="2291.1" cy="1443.26" r="14" fill="#009af9" fill-rule="evenodd" fill-opacity="1" stroke="#000000" stroke-opacity="1" stroke-width="3.2"/>
<circle clip-path="url(#clip562)" cx="235.808" cy="1436.73" r="14" fill="#e26f46" fill-rule="evenodd" fill-opacity="1" stroke="#000000" stroke-opacity="1" stroke-width="3.2"/>
<circle clip-path="url(#clip562)" cx="249.601" cy="1436.74" r="14" fill="#e26f46" fill-rule="evenodd" fill-opacity="1" stroke="#000000" stroke-opacity="1" stroke-width="3.2"/>
<circle clip-path="url(#clip562)" cx="263.395" cy="1436.76" r="14" fill="#e26f46" fill-rule="evenodd" fill-opacity="1" stroke="#000000" stroke-opacity="1" stroke-width="3.2"/>
<circle clip-path="url(#clip562)" cx="277.189" cy="1436.78" r="14" fill="#e26f46" fill-rule="evenodd" fill-opacity="1" stroke="#000000" stroke-opacity="1" stroke-width="3.2"/>
<circle clip-path="url(#clip562)" cx="290.983" cy="1436.8" r="14" fill="#e26f46" fill-rule="evenodd" fill-opacity="1" stroke="#000000" stroke-opacity="1" stroke-width="3.2"/>
<circle clip-path="url(#clip562)" cx="304.777" cy="1436.84" r="14" fill="#e26f46" fill-rule="evenodd" fill-opacity="1" stroke="#000000" stroke-opacity="1" stroke-width="3.2"/>
<circle clip-path="url(#clip562)" cx="318.571" cy="1436.87" r="14" fill="#e26f46" fill-rule="evenodd" fill-opacity="1" stroke="#000000" stroke-opacity="1" stroke-width="3.2"/>
<circle clip-path="url(#clip562)" cx="332.365" cy="1436.91" r="14" fill="#e26f46" fill-rule="evenodd" fill-opacity="1" stroke="#000000" stroke-opacity="1" stroke-width="3.2"/>
<circle clip-path="url(#clip562)" cx="346.159" cy="1436.96" r="14" fill="#e26f46" fill-rule="evenodd" fill-opacity="1" stroke="#000000" stroke-opacity="1" stroke-width="3.2"/>
<circle clip-path="url(#clip562)" cx="359.953" cy="1437.01" r="14" fill="#e26f46" fill-rule="evenodd" fill-opacity="1" stroke="#000000" stroke-opacity="1" stroke-width="3.2"/>
<circle clip-path="url(#clip562)" cx="373.747" cy="1437.07" r="14" fill="#e26f46" fill-rule="evenodd" fill-opacity="1" stroke="#000000" stroke-opacity="1" stroke-width="3.2"/>
<circle clip-path="url(#clip562)" cx="387.54" cy="1437.12" r="14" fill="#e26f46" fill-rule="evenodd" fill-opacity="1" stroke="#000000" stroke-opacity="1" stroke-width="3.2"/>
<circle clip-path="url(#clip562)" cx="401.334" cy="1437.18" r="14" fill="#e26f46" fill-rule="evenodd" fill-opacity="1" stroke="#000000" stroke-opacity="1" stroke-width="3.2"/>
<circle clip-path="url(#clip562)" cx="415.128" cy="1437.24" r="14" fill="#e26f46" fill-rule="evenodd" fill-opacity="1" stroke="#000000" stroke-opacity="1" stroke-width="3.2"/>
<circle clip-path="url(#clip562)" cx="428.922" cy="1437.3" r="14" fill="#e26f46" fill-rule="evenodd" fill-opacity="1" stroke="#000000" stroke-opacity="1" stroke-width="3.2"/>
<circle clip-path="url(#clip562)" cx="442.716" cy="1437.36" r="14" fill="#e26f46" fill-rule="evenodd" fill-opacity="1" stroke="#000000" stroke-opacity="1" stroke-width="3.2"/>
<circle clip-path="url(#clip562)" cx="456.51" cy="1437.42" r="14" fill="#e26f46" fill-rule="evenodd" fill-opacity="1" stroke="#000000" stroke-opacity="1" stroke-width="3.2"/>
<circle clip-path="url(#clip562)" cx="470.304" cy="1437.47" r="14" fill="#e26f46" fill-rule="evenodd" fill-opacity="1" stroke="#000000" stroke-opacity="1" stroke-width="3.2"/>
<circle clip-path="url(#clip562)" cx="484.098" cy="1437.51" r="14" fill="#e26f46" fill-rule="evenodd" fill-opacity="1" stroke="#000000" stroke-opacity="1" stroke-width="3.2"/>
<circle clip-path="url(#clip562)" cx="497.892" cy="1437.53" r="14" fill="#e26f46" fill-rule="evenodd" fill-opacity="1" stroke="#000000" stroke-opacity="1" stroke-width="3.2"/>
<circle clip-path="url(#clip562)" cx="511.685" cy="1437.55" r="14" fill="#e26f46" fill-rule="evenodd" fill-opacity="1" stroke="#000000" stroke-opacity="1" stroke-width="3.2"/>
<circle clip-path="url(#clip562)" cx="525.479" cy="1437.53" r="14" fill="#e26f46" fill-rule="evenodd" fill-opacity="1" stroke="#000000" stroke-opacity="1" stroke-width="3.2"/>
<circle clip-path="url(#clip562)" cx="539.273" cy="1437.49" r="14" fill="#e26f46" fill-rule="evenodd" fill-opacity="1" stroke="#000000" stroke-opacity="1" stroke-width="3.2"/>
<circle clip-path="url(#clip562)" cx="553.067" cy="1437.42" r="14" fill="#e26f46" fill-rule="evenodd" fill-opacity="1" stroke="#000000" stroke-opacity="1" stroke-width="3.2"/>
<circle clip-path="url(#clip562)" cx="566.861" cy="1437.3" r="14" fill="#e26f46" fill-rule="evenodd" fill-opacity="1" stroke="#000000" stroke-opacity="1" stroke-width="3.2"/>
<circle clip-path="url(#clip562)" cx="580.655" cy="1437.12" r="14" fill="#e26f46" fill-rule="evenodd" fill-opacity="1" stroke="#000000" stroke-opacity="1" stroke-width="3.2"/>
<circle clip-path="url(#clip562)" cx="594.449" cy="1436.87" r="14" fill="#e26f46" fill-rule="evenodd" fill-opacity="1" stroke="#000000" stroke-opacity="1" stroke-width="3.2"/>
<circle clip-path="url(#clip562)" cx="608.243" cy="1436.53" r="14" fill="#e26f46" fill-rule="evenodd" fill-opacity="1" stroke="#000000" stroke-opacity="1" stroke-width="3.2"/>
<circle clip-path="url(#clip562)" cx="622.037" cy="1436.09" r="14" fill="#e26f46" fill-rule="evenodd" fill-opacity="1" stroke="#000000" stroke-opacity="1" stroke-width="3.2"/>
<circle clip-path="url(#clip562)" cx="635.83" cy="1435.51" r="14" fill="#e26f46" fill-rule="evenodd" fill-opacity="1" stroke="#000000" stroke-opacity="1" stroke-width="3.2"/>
<circle clip-path="url(#clip562)" cx="649.624" cy="1434.77" r="14" fill="#e26f46" fill-rule="evenodd" fill-opacity="1" stroke="#000000" stroke-opacity="1" stroke-width="3.2"/>
<circle clip-path="url(#clip562)" cx="663.418" cy="1433.85" r="14" fill="#e26f46" fill-rule="evenodd" fill-opacity="1" stroke="#000000" stroke-opacity="1" stroke-width="3.2"/>
<circle clip-path="url(#clip562)" cx="677.212" cy="1432.69" r="14" fill="#e26f46" fill-rule="evenodd" fill-opacity="1" stroke="#000000" stroke-opacity="1" stroke-width="3.2"/>
<circle clip-path="url(#clip562)" cx="691.006" cy="1431.26" r="14" fill="#e26f46" fill-rule="evenodd" fill-opacity="1" stroke="#000000" stroke-opacity="1" stroke-width="3.2"/>
<circle clip-path="url(#clip562)" cx="704.8" cy="1429.51" r="14" fill="#e26f46" fill-rule="evenodd" fill-opacity="1" stroke="#000000" stroke-opacity="1" stroke-width="3.2"/>
<circle clip-path="url(#clip562)" cx="718.594" cy="1427.38" r="14" fill="#e26f46" fill-rule="evenodd" fill-opacity="1" stroke="#000000" stroke-opacity="1" stroke-width="3.2"/>
<circle clip-path="url(#clip562)" cx="732.388" cy="1424.84" r="14" fill="#e26f46" fill-rule="evenodd" fill-opacity="1" stroke="#000000" stroke-opacity="1" stroke-width="3.2"/>
<circle clip-path="url(#clip562)" cx="746.182" cy="1421.83" r="14" fill="#e26f46" fill-rule="evenodd" fill-opacity="1" stroke="#000000" stroke-opacity="1" stroke-width="3.2"/>
<circle clip-path="url(#clip562)" cx="759.975" cy="1418.31" r="14" fill="#e26f46" fill-rule="evenodd" fill-opacity="1" stroke="#000000" stroke-opacity="1" stroke-width="3.2"/>
<circle clip-path="url(#clip562)" cx="773.769" cy="1414.26" r="14" fill="#e26f46" fill-rule="evenodd" fill-opacity="1" stroke="#000000" stroke-opacity="1" stroke-width="3.2"/>
<circle clip-path="url(#clip562)" cx="787.563" cy="1409.69" r="14" fill="#e26f46" fill-rule="evenodd" fill-opacity="1" stroke="#000000" stroke-opacity="1" stroke-width="3.2"/>
<circle clip-path="url(#clip562)" cx="801.357" cy="1404.65" r="14" fill="#e26f46" fill-rule="evenodd" fill-opacity="1" stroke="#000000" stroke-opacity="1" stroke-width="3.2"/>
<circle clip-path="url(#clip562)" cx="815.151" cy="1399.24" r="14" fill="#e26f46" fill-rule="evenodd" fill-opacity="1" stroke="#000000" stroke-opacity="1" stroke-width="3.2"/>
<circle clip-path="url(#clip562)" cx="828.945" cy="1393.64" r="14" fill="#e26f46" fill-rule="evenodd" fill-opacity="1" stroke="#000000" stroke-opacity="1" stroke-width="3.2"/>
<circle clip-path="url(#clip562)" cx="842.739" cy="1388.07" r="14" fill="#e26f46" fill-rule="evenodd" fill-opacity="1" stroke="#000000" stroke-opacity="1" stroke-width="3.2"/>
<circle clip-path="url(#clip562)" cx="856.533" cy="1382.83" r="14" fill="#e26f46" fill-rule="evenodd" fill-opacity="1" stroke="#000000" stroke-opacity="1" stroke-width="3.2"/>
<circle clip-path="url(#clip562)" cx="870.327" cy="1378.26" r="14" fill="#e26f46" fill-rule="evenodd" fill-opacity="1" stroke="#000000" stroke-opacity="1" stroke-width="3.2"/>
<circle clip-path="url(#clip562)" cx="884.12" cy="1374.7" r="14" fill="#e26f46" fill-rule="evenodd" fill-opacity="1" stroke="#000000" stroke-opacity="1" stroke-width="3.2"/>
<circle clip-path="url(#clip562)" cx="897.914" cy="1372.43" r="14" fill="#e26f46" fill-rule="evenodd" fill-opacity="1" stroke="#000000" stroke-opacity="1" stroke-width="3.2"/>
<circle clip-path="url(#clip562)" cx="911.708" cy="1371.65" r="14" fill="#e26f46" fill-rule="evenodd" fill-opacity="1" stroke="#000000" stroke-opacity="1" stroke-width="3.2"/>
<circle clip-path="url(#clip562)" cx="925.502" cy="1371.59" r="14" fill="#e26f46" fill-rule="evenodd" fill-opacity="1" stroke="#000000" stroke-opacity="1" stroke-width="3.2"/>
<circle clip-path="url(#clip562)" cx="939.296" cy="1371.44" r="14" fill="#e26f46" fill-rule="evenodd" fill-opacity="1" stroke="#000000" stroke-opacity="1" stroke-width="3.2"/>
<circle clip-path="url(#clip562)" cx="953.09" cy="1371.17" r="14" fill="#e26f46" fill-rule="evenodd" fill-opacity="1" stroke="#000000" stroke-opacity="1" stroke-width="3.2"/>
<circle clip-path="url(#clip562)" cx="966.884" cy="1370.8" r="14" fill="#e26f46" fill-rule="evenodd" fill-opacity="1" stroke="#000000" stroke-opacity="1" stroke-width="3.2"/>
<circle clip-path="url(#clip562)" cx="980.678" cy="1370.32" r="14" fill="#e26f46" fill-rule="evenodd" fill-opacity="1" stroke="#000000" stroke-opacity="1" stroke-width="3.2"/>
<circle clip-path="url(#clip562)" cx="994.472" cy="1369.72" r="14" fill="#e26f46" fill-rule="evenodd" fill-opacity="1" stroke="#000000" stroke-opacity="1" stroke-width="3.2"/>
<circle clip-path="url(#clip562)" cx="1008.27" cy="1369" r="14" fill="#e26f46" fill-rule="evenodd" fill-opacity="1" stroke="#000000" stroke-opacity="1" stroke-width="3.2"/>
<circle clip-path="url(#clip562)" cx="1022.06" cy="1368.16" r="14" fill="#e26f46" fill-rule="evenodd" fill-opacity="1" stroke="#000000" stroke-opacity="1" stroke-width="3.2"/>
<circle clip-path="url(#clip562)" cx="1035.85" cy="1367.19" r="14" fill="#e26f46" fill-rule="evenodd" fill-opacity="1" stroke="#000000" stroke-opacity="1" stroke-width="3.2"/>
<circle clip-path="url(#clip562)" cx="1049.65" cy="1366.08" r="14" fill="#e26f46" fill-rule="evenodd" fill-opacity="1" stroke="#000000" stroke-opacity="1" stroke-width="3.2"/>
<circle clip-path="url(#clip562)" cx="1063.44" cy="1364.82" r="14" fill="#e26f46" fill-rule="evenodd" fill-opacity="1" stroke="#000000" stroke-opacity="1" stroke-width="3.2"/>
<circle clip-path="url(#clip562)" cx="1077.23" cy="1363.41" r="14" fill="#e26f46" fill-rule="evenodd" fill-opacity="1" stroke="#000000" stroke-opacity="1" stroke-width="3.2"/>
<circle clip-path="url(#clip562)" cx="1091.03" cy="1361.83" r="14" fill="#e26f46" fill-rule="evenodd" fill-opacity="1" stroke="#000000" stroke-opacity="1" stroke-width="3.2"/>
<circle clip-path="url(#clip562)" cx="1104.82" cy="1360.07" r="14" fill="#e26f46" fill-rule="evenodd" fill-opacity="1" stroke="#000000" stroke-opacity="1" stroke-width="3.2"/>
<circle clip-path="url(#clip562)" cx="1118.62" cy="1358.11" r="14" fill="#e26f46" fill-rule="evenodd" fill-opacity="1" stroke="#000000" stroke-opacity="1" stroke-width="3.2"/>
<circle clip-path="url(#clip562)" cx="1132.41" cy="1355.94" r="14" fill="#e26f46" fill-rule="evenodd" fill-opacity="1" stroke="#000000" stroke-opacity="1" stroke-width="3.2"/>
<circle clip-path="url(#clip562)" cx="1146.2" cy="1353.53" r="14" fill="#e26f46" fill-rule="evenodd" fill-opacity="1" stroke="#000000" stroke-opacity="1" stroke-width="3.2"/>
<circle clip-path="url(#clip562)" cx="1160" cy="1350.86" r="14" fill="#e26f46" fill-rule="evenodd" fill-opacity="1" stroke="#000000" stroke-opacity="1" stroke-width="3.2"/>
<circle clip-path="url(#clip562)" cx="1173.79" cy="1347.92" r="14" fill="#e26f46" fill-rule="evenodd" fill-opacity="1" stroke="#000000" stroke-opacity="1" stroke-width="3.2"/>
<circle clip-path="url(#clip562)" cx="1187.59" cy="1344.65" r="14" fill="#e26f46" fill-rule="evenodd" fill-opacity="1" stroke="#000000" stroke-opacity="1" stroke-width="3.2"/>
<circle clip-path="url(#clip562)" cx="1201.38" cy="1341.04" r="14" fill="#e26f46" fill-rule="evenodd" fill-opacity="1" stroke="#000000" stroke-opacity="1" stroke-width="3.2"/>
<circle clip-path="url(#clip562)" cx="1215.17" cy="1337.04" r="14" fill="#e26f46" fill-rule="evenodd" fill-opacity="1" stroke="#000000" stroke-opacity="1" stroke-width="3.2"/>
<circle clip-path="url(#clip562)" cx="1228.97" cy="1332.61" r="14" fill="#e26f46" fill-rule="evenodd" fill-opacity="1" stroke="#000000" stroke-opacity="1" stroke-width="3.2"/>
<circle clip-path="url(#clip562)" cx="1242.76" cy="1327.69" r="14" fill="#e26f46" fill-rule="evenodd" fill-opacity="1" stroke="#000000" stroke-opacity="1" stroke-width="3.2"/>
<circle clip-path="url(#clip562)" cx="1256.56" cy="1322.21" r="14" fill="#e26f46" fill-rule="evenodd" fill-opacity="1" stroke="#000000" stroke-opacity="1" stroke-width="3.2"/>
<circle clip-path="url(#clip562)" cx="1270.35" cy="1316.12" r="14" fill="#e26f46" fill-rule="evenodd" fill-opacity="1" stroke="#000000" stroke-opacity="1" stroke-width="3.2"/>
<circle clip-path="url(#clip562)" cx="1284.14" cy="1309.32" r="14" fill="#e26f46" fill-rule="evenodd" fill-opacity="1" stroke="#000000" stroke-opacity="1" stroke-width="3.2"/>
<circle clip-path="url(#clip562)" cx="1297.94" cy="1301.72" r="14" fill="#e26f46" fill-rule="evenodd" fill-opacity="1" stroke="#000000" stroke-opacity="1" stroke-width="3.2"/>
<circle clip-path="url(#clip562)" cx="1311.73" cy="1293.2" r="14" fill="#e26f46" fill-rule="evenodd" fill-opacity="1" stroke="#000000" stroke-opacity="1" stroke-width="3.2"/>
<circle clip-path="url(#clip562)" cx="1325.52" cy="1283.64" r="14" fill="#e26f46" fill-rule="evenodd" fill-opacity="1" stroke="#000000" stroke-opacity="1" stroke-width="3.2"/>
<circle clip-path="url(#clip562)" cx="1339.32" cy="1272.88" r="14" fill="#e26f46" fill-rule="evenodd" fill-opacity="1" stroke="#000000" stroke-opacity="1" stroke-width="3.2"/>
<circle clip-path="url(#clip562)" cx="1353.11" cy="1260.75" r="14" fill="#e26f46" fill-rule="evenodd" fill-opacity="1" stroke="#000000" stroke-opacity="1" stroke-width="3.2"/>
<circle clip-path="url(#clip562)" cx="1366.91" cy="1247.04" r="14" fill="#e26f46" fill-rule="evenodd" fill-opacity="1" stroke="#000000" stroke-opacity="1" stroke-width="3.2"/>
<circle clip-path="url(#clip562)" cx="1380.7" cy="1231.53" r="14" fill="#e26f46" fill-rule="evenodd" fill-opacity="1" stroke="#000000" stroke-opacity="1" stroke-width="3.2"/>
<circle clip-path="url(#clip562)" cx="1394.49" cy="1213.95" r="14" fill="#e26f46" fill-rule="evenodd" fill-opacity="1" stroke="#000000" stroke-opacity="1" stroke-width="3.2"/>
<circle clip-path="url(#clip562)" cx="1408.29" cy="1194.01" r="14" fill="#e26f46" fill-rule="evenodd" fill-opacity="1" stroke="#000000" stroke-opacity="1" stroke-width="3.2"/>
<circle clip-path="url(#clip562)" cx="1422.08" cy="1171.39" r="14" fill="#e26f46" fill-rule="evenodd" fill-opacity="1" stroke="#000000" stroke-opacity="1" stroke-width="3.2"/>
<circle clip-path="url(#clip562)" cx="1435.88" cy="1145.78" r="14" fill="#e26f46" fill-rule="evenodd" fill-opacity="1" stroke="#000000" stroke-opacity="1" stroke-width="3.2"/>
<circle clip-path="url(#clip562)" cx="1449.67" cy="1116.87" r="14" fill="#e26f46" fill-rule="evenodd" fill-opacity="1" stroke="#000000" stroke-opacity="1" stroke-width="3.2"/>
<circle clip-path="url(#clip562)" cx="1463.46" cy="1084.41" r="14" fill="#e26f46" fill-rule="evenodd" fill-opacity="1" stroke="#000000" stroke-opacity="1" stroke-width="3.2"/>
<circle clip-path="url(#clip562)" cx="1477.26" cy="1048.29" r="14" fill="#e26f46" fill-rule="evenodd" fill-opacity="1" stroke="#000000" stroke-opacity="1" stroke-width="3.2"/>
<circle clip-path="url(#clip562)" cx="1491.05" cy="1008.59" r="14" fill="#e26f46" fill-rule="evenodd" fill-opacity="1" stroke="#000000" stroke-opacity="1" stroke-width="3.2"/>
<circle clip-path="url(#clip562)" cx="1504.85" cy="965.78" r="14" fill="#e26f46" fill-rule="evenodd" fill-opacity="1" stroke="#000000" stroke-opacity="1" stroke-width="3.2"/>
<circle clip-path="url(#clip562)" cx="1518.64" cy="920.802" r="14" fill="#e26f46" fill-rule="evenodd" fill-opacity="1" stroke="#000000" stroke-opacity="1" stroke-width="3.2"/>
<circle clip-path="url(#clip562)" cx="1532.43" cy="875.251" r="14" fill="#e26f46" fill-rule="evenodd" fill-opacity="1" stroke="#000000" stroke-opacity="1" stroke-width="3.2"/>
<circle clip-path="url(#clip562)" cx="1546.23" cy="831.428" r="14" fill="#e26f46" fill-rule="evenodd" fill-opacity="1" stroke="#000000" stroke-opacity="1" stroke-width="3.2"/>
<circle clip-path="url(#clip562)" cx="1560.02" cy="792.271" r="14" fill="#e26f46" fill-rule="evenodd" fill-opacity="1" stroke="#000000" stroke-opacity="1" stroke-width="3.2"/>
<circle clip-path="url(#clip562)" cx="1573.81" cy="761.046" r="14" fill="#e26f46" fill-rule="evenodd" fill-opacity="1" stroke="#000000" stroke-opacity="1" stroke-width="3.2"/>
<circle clip-path="url(#clip562)" cx="1587.61" cy="740.821" r="14" fill="#e26f46" fill-rule="evenodd" fill-opacity="1" stroke="#000000" stroke-opacity="1" stroke-width="3.2"/>
<circle clip-path="url(#clip562)" cx="1601.4" cy="733.809" r="14" fill="#e26f46" fill-rule="evenodd" fill-opacity="1" stroke="#000000" stroke-opacity="1" stroke-width="3.2"/>
<circle clip-path="url(#clip562)" cx="1615.2" cy="747.746" r="14" fill="#e26f46" fill-rule="evenodd" fill-opacity="1" stroke="#000000" stroke-opacity="1" stroke-width="3.2"/>
<circle clip-path="url(#clip562)" cx="1628.99" cy="786.986" r="14" fill="#e26f46" fill-rule="evenodd" fill-opacity="1" stroke="#000000" stroke-opacity="1" stroke-width="3.2"/>
<circle clip-path="url(#clip562)" cx="1642.78" cy="844.88" r="14" fill="#e26f46" fill-rule="evenodd" fill-opacity="1" stroke="#000000" stroke-opacity="1" stroke-width="3.2"/>
<circle clip-path="url(#clip562)" cx="1656.58" cy="913.146" r="14" fill="#e26f46" fill-rule="evenodd" fill-opacity="1" stroke="#000000" stroke-opacity="1" stroke-width="3.2"/>
<circle clip-path="url(#clip562)" cx="1670.37" cy="984.221" r="14" fill="#e26f46" fill-rule="evenodd" fill-opacity="1" stroke="#000000" stroke-opacity="1" stroke-width="3.2"/>
<circle clip-path="url(#clip562)" cx="1684.17" cy="1052.57" r="14" fill="#e26f46" fill-rule="evenodd" fill-opacity="1" stroke="#000000" stroke-opacity="1" stroke-width="3.2"/>
<circle clip-path="url(#clip562)" cx="1697.96" cy="1114.89" r="14" fill="#e26f46" fill-rule="evenodd" fill-opacity="1" stroke="#000000" stroke-opacity="1" stroke-width="3.2"/>
<circle clip-path="url(#clip562)" cx="1711.75" cy="1169.71" r="14" fill="#e26f46" fill-rule="evenodd" fill-opacity="1" stroke="#000000" stroke-opacity="1" stroke-width="3.2"/>
<circle clip-path="url(#clip562)" cx="1725.55" cy="1216.74" r="14" fill="#e26f46" fill-rule="evenodd" fill-opacity="1" stroke="#000000" stroke-opacity="1" stroke-width="3.2"/>
<circle clip-path="url(#clip562)" cx="1739.34" cy="1256.44" r="14" fill="#e26f46" fill-rule="evenodd" fill-opacity="1" stroke="#000000" stroke-opacity="1" stroke-width="3.2"/>
<circle clip-path="url(#clip562)" cx="1753.14" cy="1289.57" r="14" fill="#e26f46" fill-rule="evenodd" fill-opacity="1" stroke="#000000" stroke-opacity="1" stroke-width="3.2"/>
<circle clip-path="url(#clip562)" cx="1766.93" cy="1317.01" r="14" fill="#e26f46" fill-rule="evenodd" fill-opacity="1" stroke="#000000" stroke-opacity="1" stroke-width="3.2"/>
<circle clip-path="url(#clip562)" cx="1780.72" cy="1339.61" r="14" fill="#e26f46" fill-rule="evenodd" fill-opacity="1" stroke="#000000" stroke-opacity="1" stroke-width="3.2"/>
<circle clip-path="url(#clip562)" cx="1794.52" cy="1358.18" r="14" fill="#e26f46" fill-rule="evenodd" fill-opacity="1" stroke="#000000" stroke-opacity="1" stroke-width="3.2"/>
<circle clip-path="url(#clip562)" cx="1808.31" cy="1373.38" r="14" fill="#e26f46" fill-rule="evenodd" fill-opacity="1" stroke="#000000" stroke-opacity="1" stroke-width="3.2"/>
<circle clip-path="url(#clip562)" cx="1822.1" cy="1385.81" r="14" fill="#e26f46" fill-rule="evenodd" fill-opacity="1" stroke="#000000" stroke-opacity="1" stroke-width="3.2"/>
<circle clip-path="url(#clip562)" cx="1835.9" cy="1395.95" r="14" fill="#e26f46" fill-rule="evenodd" fill-opacity="1" stroke="#000000" stroke-opacity="1" stroke-width="3.2"/>
<circle clip-path="url(#clip562)" cx="1849.69" cy="1404.22" r="14" fill="#e26f46" fill-rule="evenodd" fill-opacity="1" stroke="#000000" stroke-opacity="1" stroke-width="3.2"/>
<circle clip-path="url(#clip562)" cx="1863.49" cy="1410.95" r="14" fill="#e26f46" fill-rule="evenodd" fill-opacity="1" stroke="#000000" stroke-opacity="1" stroke-width="3.2"/>
<circle clip-path="url(#clip562)" cx="1877.28" cy="1416.42" r="14" fill="#e26f46" fill-rule="evenodd" fill-opacity="1" stroke="#000000" stroke-opacity="1" stroke-width="3.2"/>
<circle clip-path="url(#clip562)" cx="1891.07" cy="1420.86" r="14" fill="#e26f46" fill-rule="evenodd" fill-opacity="1" stroke="#000000" stroke-opacity="1" stroke-width="3.2"/>
<circle clip-path="url(#clip562)" cx="1904.87" cy="1424.44" r="14" fill="#e26f46" fill-rule="evenodd" fill-opacity="1" stroke="#000000" stroke-opacity="1" stroke-width="3.2"/>
<circle clip-path="url(#clip562)" cx="1918.66" cy="1427.33" r="14" fill="#e26f46" fill-rule="evenodd" fill-opacity="1" stroke="#000000" stroke-opacity="1" stroke-width="3.2"/>
<circle clip-path="url(#clip562)" cx="1932.46" cy="1429.66" r="14" fill="#e26f46" fill-rule="evenodd" fill-opacity="1" stroke="#000000" stroke-opacity="1" stroke-width="3.2"/>
<circle clip-path="url(#clip562)" cx="1946.25" cy="1431.51" r="14" fill="#e26f46" fill-rule="evenodd" fill-opacity="1" stroke="#000000" stroke-opacity="1" stroke-width="3.2"/>
<circle clip-path="url(#clip562)" cx="1960.04" cy="1432.99" r="14" fill="#e26f46" fill-rule="evenodd" fill-opacity="1" stroke="#000000" stroke-opacity="1" stroke-width="3.2"/>
<circle clip-path="url(#clip562)" cx="1973.84" cy="1434.15" r="14" fill="#e26f46" fill-rule="evenodd" fill-opacity="1" stroke="#000000" stroke-opacity="1" stroke-width="3.2"/>
<circle clip-path="url(#clip562)" cx="1987.63" cy="1435.05" r="14" fill="#e26f46" fill-rule="evenodd" fill-opacity="1" stroke="#000000" stroke-opacity="1" stroke-width="3.2"/>
<circle clip-path="url(#clip562)" cx="2001.43" cy="1435.75" r="14" fill="#e26f46" fill-rule="evenodd" fill-opacity="1" stroke="#000000" stroke-opacity="1" stroke-width="3.2"/>
<circle clip-path="url(#clip562)" cx="2015.22" cy="1436.28" r="14" fill="#e26f46" fill-rule="evenodd" fill-opacity="1" stroke="#000000" stroke-opacity="1" stroke-width="3.2"/>
<circle clip-path="url(#clip562)" cx="2029.01" cy="1436.67" r="14" fill="#e26f46" fill-rule="evenodd" fill-opacity="1" stroke="#000000" stroke-opacity="1" stroke-width="3.2"/>
<circle clip-path="url(#clip562)" cx="2042.81" cy="1436.95" r="14" fill="#e26f46" fill-rule="evenodd" fill-opacity="1" stroke="#000000" stroke-opacity="1" stroke-width="3.2"/>
<circle clip-path="url(#clip562)" cx="2056.6" cy="1437.14" r="14" fill="#e26f46" fill-rule="evenodd" fill-opacity="1" stroke="#000000" stroke-opacity="1" stroke-width="3.2"/>
<circle clip-path="url(#clip562)" cx="2070.39" cy="1437.26" r="14" fill="#e26f46" fill-rule="evenodd" fill-opacity="1" stroke="#000000" stroke-opacity="1" stroke-width="3.2"/>
<circle clip-path="url(#clip562)" cx="2084.19" cy="1437.33" r="14" fill="#e26f46" fill-rule="evenodd" fill-opacity="1" stroke="#000000" stroke-opacity="1" stroke-width="3.2"/>
<circle clip-path="url(#clip562)" cx="2097.98" cy="1437.35" r="14" fill="#e26f46" fill-rule="evenodd" fill-opacity="1" stroke="#000000" stroke-opacity="1" stroke-width="3.2"/>
<circle clip-path="url(#clip562)" cx="2111.78" cy="1437.34" r="14" fill="#e26f46" fill-rule="evenodd" fill-opacity="1" stroke="#000000" stroke-opacity="1" stroke-width="3.2"/>
<circle clip-path="url(#clip562)" cx="2125.57" cy="1437.31" r="14" fill="#e26f46" fill-rule="evenodd" fill-opacity="1" stroke="#000000" stroke-opacity="1" stroke-width="3.2"/>
<circle clip-path="url(#clip562)" cx="2139.36" cy="1437.26" r="14" fill="#e26f46" fill-rule="evenodd" fill-opacity="1" stroke="#000000" stroke-opacity="1" stroke-width="3.2"/>
<circle clip-path="url(#clip562)" cx="2153.16" cy="1437.2" r="14" fill="#e26f46" fill-rule="evenodd" fill-opacity="1" stroke="#000000" stroke-opacity="1" stroke-width="3.2"/>
<circle clip-path="url(#clip562)" cx="2166.95" cy="1437.13" r="14" fill="#e26f46" fill-rule="evenodd" fill-opacity="1" stroke="#000000" stroke-opacity="1" stroke-width="3.2"/>
<circle clip-path="url(#clip562)" cx="2180.75" cy="1437.06" r="14" fill="#e26f46" fill-rule="evenodd" fill-opacity="1" stroke="#000000" stroke-opacity="1" stroke-width="3.2"/>
<circle clip-path="url(#clip562)" cx="2194.54" cy="1436.99" r="14" fill="#e26f46" fill-rule="evenodd" fill-opacity="1" stroke="#000000" stroke-opacity="1" stroke-width="3.2"/>
<circle clip-path="url(#clip562)" cx="2208.33" cy="1436.93" r="14" fill="#e26f46" fill-rule="evenodd" fill-opacity="1" stroke="#000000" stroke-opacity="1" stroke-width="3.2"/>
<circle clip-path="url(#clip562)" cx="2222.13" cy="1436.87" r="14" fill="#e26f46" fill-rule="evenodd" fill-opacity="1" stroke="#000000" stroke-opacity="1" stroke-width="3.2"/>
<circle clip-path="url(#clip562)" cx="2235.92" cy="1436.82" r="14" fill="#e26f46" fill-rule="evenodd" fill-opacity="1" stroke="#000000" stroke-opacity="1" stroke-width="3.2"/>
<circle clip-path="url(#clip562)" cx="2249.72" cy="1436.78" r="14" fill="#e26f46" fill-rule="evenodd" fill-opacity="1" stroke="#000000" stroke-opacity="1" stroke-width="3.2"/>
<circle clip-path="url(#clip562)" cx="2263.51" cy="1436.75" r="14" fill="#e26f46" fill-rule="evenodd" fill-opacity="1" stroke="#000000" stroke-opacity="1" stroke-width="3.2"/>
<circle clip-path="url(#clip562)" cx="2277.3" cy="1436.74" r="14" fill="#e26f46" fill-rule="evenodd" fill-opacity="1" stroke="#000000" stroke-opacity="1" stroke-width="3.2"/>
<circle clip-path="url(#clip562)" cx="2291.1" cy="1436.73" r="14" fill="#e26f46" fill-rule="evenodd" fill-opacity="1" stroke="#000000" stroke-opacity="1" stroke-width="3.2"/>
<path clip-path="url(#clip560)" d="
M1827.52 282.106 L2280.14 282.106 L2280.14 95.2176 L1827.52 95.2176  Z
  " fill="#ffffff" fill-rule="evenodd" fill-opacity="1"/>
<polyline clip-path="url(#clip560)" style="stroke:#000000; stroke-linecap:butt; stroke-linejoin:round; stroke-width:4; stroke-opacity:1; fill:none" points="
  1827.52,282.106 2280.14,282.106 2280.14,95.2176 1827.52,95.2176 1827.52,282.106 
  "/>
<circle clip-path="url(#clip560)" cx="1924.35" cy="157.514" r="23" fill="#009af9" fill-rule="evenodd" fill-opacity="1" stroke="#000000" stroke-opacity="1" stroke-width="5.12"/>
<path clip-path="url(#clip560)" d="M2021.17 147.213 L2022.09 136.439 L2051.39 136.439 L2052.3 147.213 L2051.11 147.213 Q2050.92 145.059 2050.73 143.817 Q2050.57 142.576 2050.15 141.405 Q2049.75 140.21 2049.23 139.648 Q2048.74 139.062 2047.78 138.617 Q2046.82 138.149 2045.58 138.032 Q2044.34 137.915 2042.46 137.915 Q2040.26 137.915 2039.72 138.008 Q2039.14 138.149 2039 138.571 Q2038.86 138.969 2038.86 139.835 L2038.86 165.108 Q2038.86 166.069 2039.04 166.467 Q2039.25 166.842 2040.36 167.146 Q2041.46 167.427 2043.89 167.427 L2045.81 167.427 L2045.81 168.903 Q2043.85 168.762 2036.7 168.762 Q2029.6 168.762 2027.64 168.903 L2027.64 167.427 L2029.56 167.427 Q2031.99 167.427 2033.09 167.146 Q2034.22 166.842 2034.41 166.467 Q2034.59 166.069 2034.59 165.108 L2034.59 139.835 Q2034.59 139.156 2034.55 138.875 Q2034.5 138.594 2034.29 138.36 Q2034.08 138.102 2033.59 138.008 Q2033.12 137.915 2031.01 137.915 Q2029.14 137.915 2027.87 138.032 Q2026.63 138.149 2025.67 138.617 Q2024.71 139.062 2024.19 139.648 Q2023.7 140.21 2023.28 141.405 Q2022.88 142.576 2022.72 143.817 Q2022.55 145.059 2022.37 147.213 L2021.17 147.213 Z" fill="#000000" fill-rule="evenodd" fill-opacity="1" /><path clip-path="url(#clip560)" d="M2059.35 168.903 L2059.35 167.427 Q2061.9 167.427 2062.48 167.123 Q2063.09 166.795 2063.09 165.249 L2063.09 152.39 Q2063.09 150.61 2062.46 150.165 Q2061.85 149.72 2059.35 149.72 L2059.35 148.221 L2066.02 147.705 L2066.02 152.975 Q2066.7 150.914 2068.13 149.322 Q2069.58 147.705 2071.92 147.705 Q2073.47 147.705 2074.45 148.572 Q2075.46 149.439 2075.46 150.633 Q2075.46 151.687 2074.81 152.226 Q2074.17 152.741 2073.4 152.741 Q2072.53 152.741 2071.92 152.202 Q2071.34 151.64 2071.34 150.68 Q2071.34 150.094 2071.6 149.649 Q2071.88 149.181 2072.09 149.017 Q2072.3 148.853 2072.44 148.806 Q2072.35 148.759 2071.92 148.759 Q2069.28 148.759 2067.75 151.406 Q2066.26 154.029 2066.26 157.777 L2066.26 165.155 Q2066.26 166.537 2066.82 166.982 Q2067.4 167.427 2069.91 167.427 L2070.92 167.427 L2070.92 168.903 Q2069 168.762 2064.83 168.762 Q2064.24 168.762 2063.33 168.786 Q2062.41 168.809 2061.22 168.856 Q2060.03 168.903 2059.35 168.903 Z" fill="#000000" fill-rule="evenodd" fill-opacity="1" /><path clip-path="url(#clip560)" d="M2077.9 156.91 Q2077.9 148.806 2080.92 142.271 Q2082.21 139.531 2084.01 137.236 Q2085.82 134.94 2087.01 133.933 Q2088.21 132.926 2088.53 132.926 Q2089 132.926 2089.03 133.394 Q2089.03 133.628 2088.39 134.214 Q2080.66 142.084 2080.69 156.91 Q2080.69 171.784 2088.21 179.349 Q2089.03 180.169 2089.03 180.427 Q2089.03 180.895 2088.53 180.895 Q2088.21 180.895 2087.06 179.935 Q2085.91 178.974 2084.13 176.773 Q2082.35 174.571 2081.06 171.877 Q2077.9 165.342 2077.9 156.91 Z" fill="#000000" fill-rule="evenodd" fill-opacity="1" /><path clip-path="url(#clip560)" d="M2113.73 149.954 Q2113.73 149.977 2113.59 150.821 L2108.24 172.112 Q2107.96 173.236 2107.17 174.36 Q2106.39 175.508 2105.15 176.492 Q2103.94 177.499 2102.06 178.108 Q2100.21 178.74 2098.08 178.74 Q2094.68 178.74 2093.18 178.014 Q2091.71 177.311 2091.71 175.812 Q2091.71 174.501 2092.53 173.751 Q2093.35 173.025 2094.28 173.025 Q2095.18 173.025 2095.64 173.54 Q2096.11 174.056 2096.11 174.711 Q2096.11 175.438 2095.62 176.164 Q2095.13 176.913 2094.14 177.194 Q2095.71 177.686 2097.99 177.686 Q2102.79 177.686 2104.85 172.603 Q2104.9 172.533 2104.9 172.51 L2106.49 166.162 L2106.42 166.115 Q2106.02 166.584 2105.39 167.123 Q2104.78 167.638 2103.47 168.27 Q2102.15 168.903 2100.87 168.903 Q2098.17 168.903 2096.32 166.842 Q2094.5 164.757 2094.5 161.314 Q2094.5 158.808 2095.5 156.301 Q2096.53 153.772 2098.13 151.921 Q2099.74 150.048 2101.8 148.876 Q2103.89 147.705 2105.9 147.705 Q2107.31 147.705 2108.5 148.549 Q2109.7 149.368 2110.35 150.727 Q2110.47 149.603 2111.1 149.134 Q2111.76 148.666 2112.32 148.666 Q2112.95 148.666 2113.33 149.017 Q2113.73 149.345 2113.73 149.954 M2109.79 152.882 Q2109.79 152.741 2109.7 152.366 Q2109.6 151.968 2109.32 151.336 Q2109.06 150.703 2108.67 150.141 Q2108.27 149.579 2107.54 149.181 Q2106.84 148.759 2105.95 148.759 Q2104.5 148.759 2103.04 149.977 Q2101.59 151.172 2100.59 153.022 Q2099.65 154.802 2098.76 158.245 Q2097.89 161.689 2097.89 163.445 Q2097.89 165.179 2098.64 166.514 Q2099.39 167.849 2101.01 167.849 Q2102.88 167.849 2104.9 166.115 Q2106.98 164.312 2107.33 162.766 L2109.65 153.608 Q2109.79 153.046 2109.79 152.882 Z" fill="#000000" fill-rule="evenodd" fill-opacity="1" /><path clip-path="url(#clip560)" d="M2114.35 180.427 Q2114.35 180.192 2114.95 179.607 Q2122.68 171.737 2122.68 156.91 Q2122.68 142.037 2115.26 134.519 Q2114.35 133.652 2114.35 133.394 Q2114.35 132.926 2114.81 132.926 Q2115.14 132.926 2116.29 133.886 Q2117.46 134.846 2119.22 137.048 Q2121 139.25 2122.31 141.943 Q2125.47 148.478 2125.47 156.91 Q2125.47 165.015 2122.45 171.549 Q2121.16 174.29 2119.36 176.585 Q2117.55 178.881 2116.36 179.888 Q2115.17 180.895 2114.81 180.895 Q2114.35 180.895 2114.35 180.427 Z" fill="#000000" fill-rule="evenodd" fill-opacity="1" /><path clip-path="url(#clip560)" d="M2133.92 192.021 Q2130.48 188.463 2130.48 183.364 Q2130.48 178.249 2133.96 174.707 Q2137.43 171.166 2142.15 171.166 Q2143.34 171.166 2144.34 171.444 Q2145.35 171.707 2146.16 172.248 Q2146.96 172.772 2147.37 173.133 Q2147.79 173.478 2148.37 174.051 L2150.06 171.576 Q2150.32 171.166 2150.58 171.166 Q2150.86 171.166 2150.91 171.33 Q2150.96 171.477 2150.96 171.969 L2150.96 179.937 Q2150.96 180.478 2150.89 180.61 Q2150.83 180.741 2150.42 180.741 Q2150.09 180.741 2150.02 180.642 Q2149.96 180.544 2149.88 180.167 Q2149.37 176.544 2147.34 174.379 Q2145.32 172.215 2142.56 172.215 Q2141.76 172.215 2140.86 172.395 Q2139.97 172.576 2138.66 173.264 Q2137.37 173.953 2136.37 175.084 Q2135.38 176.199 2134.66 178.363 Q2133.94 180.511 2133.94 183.364 Q2133.94 186.184 2134.66 188.348 Q2135.38 190.513 2136.38 191.644 Q2137.4 192.759 2138.71 193.464 Q2140.04 194.169 2140.97 194.366 Q2141.93 194.546 2142.76 194.546 Q2143.34 194.546 2144.01 194.431 Q2144.68 194.3 2145.68 193.939 Q2146.7 193.562 2147.34 192.677 Q2147.98 191.792 2147.98 190.48 L2147.98 188.332 Q2147.98 187.332 2147.48 187.02 Q2146.99 186.709 2144.84 186.709 L2143.78 186.709 L2143.78 185.676 Q2144.99 185.774 2149.17 185.774 Q2149.55 185.774 2153.27 185.676 L2153.27 186.709 Q2151.66 186.709 2151.3 186.955 Q2150.96 187.184 2150.96 188.184 L2150.96 194.038 Q2150.96 194.808 2150.66 194.808 Q2150.4 194.808 2149.61 194.054 Q2148.84 193.3 2148.5 192.726 Q2147.7 194.136 2145.94 194.858 Q2144.2 195.579 2142.22 195.579 Q2137.38 195.579 2133.92 192.021 Z" fill="#000000" fill-rule="evenodd" fill-opacity="1" /><path clip-path="url(#clip560)" d="M2155.73 194.841 L2155.73 193.808 Q2157.52 193.808 2157.93 193.595 Q2158.36 193.366 2158.36 192.283 L2158.36 183.282 Q2158.36 182.036 2157.91 181.725 Q2157.49 181.413 2155.73 181.413 L2155.73 180.364 L2160.4 180.003 L2160.4 183.692 Q2160.88 182.249 2161.88 181.134 Q2162.9 180.003 2164.54 180.003 Q2165.62 180.003 2166.31 180.61 Q2167.01 181.216 2167.01 182.052 Q2167.01 182.79 2166.55 183.167 Q2166.11 183.528 2165.57 183.528 Q2164.96 183.528 2164.54 183.151 Q2164.13 182.757 2164.13 182.085 Q2164.13 181.675 2164.31 181.364 Q2164.5 181.036 2164.65 180.921 Q2164.8 180.806 2164.9 180.774 Q2164.83 180.741 2164.54 180.741 Q2162.68 180.741 2161.62 182.594 Q2160.57 184.43 2160.57 187.053 L2160.57 192.218 Q2160.57 193.185 2160.96 193.497 Q2161.37 193.808 2163.13 193.808 L2163.83 193.808 L2163.83 194.841 Q2162.49 194.743 2159.57 194.743 Q2159.16 194.743 2158.52 194.759 Q2157.88 194.776 2157.04 194.808 Q2156.21 194.841 2155.73 194.841 Z" fill="#000000" fill-rule="evenodd" fill-opacity="1" /><path clip-path="url(#clip560)" d="M2169.45 187.447 Q2169.45 184.282 2171.48 182.036 Q2173.51 179.79 2176.43 179.79 Q2179.38 179.79 2180.91 181.708 Q2182.45 183.626 2182.45 186.381 Q2182.45 186.889 2182.32 186.988 Q2182.19 187.086 2181.61 187.086 L2172.23 187.086 Q2172.23 190.513 2173.25 192.119 Q2174.66 194.366 2177.04 194.366 Q2177.36 194.366 2177.76 194.3 Q2178.15 194.234 2178.96 193.956 Q2179.76 193.661 2180.46 192.89 Q2181.17 192.119 2181.58 190.906 Q2181.68 190.431 2182 190.447 Q2182.45 190.447 2182.45 190.841 Q2182.45 191.136 2182.12 191.808 Q2181.81 192.464 2181.2 193.251 Q2180.59 194.038 2179.41 194.628 Q2178.25 195.218 2176.84 195.218 Q2173.89 195.218 2171.66 192.988 Q2169.45 190.742 2169.45 187.447 M2172.27 186.381 L2180.23 186.381 Q2180.23 185.676 2180.1 184.889 Q2179.99 184.102 2179.63 183.02 Q2179.28 181.921 2178.46 181.233 Q2177.64 180.544 2176.43 180.544 Q2175.89 180.544 2175.3 180.774 Q2174.73 181.003 2174.02 181.561 Q2173.32 182.118 2172.82 183.381 Q2172.33 184.643 2172.27 186.381 Z" fill="#000000" fill-rule="evenodd" fill-opacity="1" /><path clip-path="url(#clip560)" d="M2184.2 187.447 Q2184.2 184.282 2186.24 182.036 Q2188.27 179.79 2191.19 179.79 Q2194.14 179.79 2195.66 181.708 Q2197.21 183.626 2197.21 186.381 Q2197.21 186.889 2197.07 186.988 Q2196.94 187.086 2196.37 187.086 L2186.99 187.086 Q2186.99 190.513 2188.01 192.119 Q2189.42 194.366 2191.79 194.366 Q2192.12 194.366 2192.52 194.3 Q2192.91 194.234 2193.71 193.956 Q2194.52 193.661 2195.22 192.89 Q2195.93 192.119 2196.34 190.906 Q2196.43 190.431 2196.76 190.447 Q2197.21 190.447 2197.21 190.841 Q2197.21 191.136 2196.88 191.808 Q2196.57 192.464 2195.96 193.251 Q2195.35 194.038 2194.17 194.628 Q2193.01 195.218 2191.6 195.218 Q2188.65 195.218 2186.42 192.988 Q2184.2 190.742 2184.2 187.447 M2187.02 186.381 L2194.99 186.381 Q2194.99 185.676 2194.86 184.889 Q2194.75 184.102 2194.39 183.02 Q2194.04 181.921 2193.22 181.233 Q2192.4 180.544 2191.19 180.544 Q2190.65 180.544 2190.06 180.774 Q2189.48 181.003 2188.78 181.561 Q2188.07 182.118 2187.58 183.381 Q2187.09 184.643 2187.02 186.381 Z" fill="#000000" fill-rule="evenodd" fill-opacity="1" /><path clip-path="url(#clip560)" d="M2198.29 194.841 L2198.29 193.808 Q2200.08 193.808 2200.49 193.595 Q2200.9 193.366 2200.9 192.283 L2200.9 183.282 Q2200.9 182.036 2200.45 181.725 Q2200.03 181.413 2198.29 181.413 L2198.29 180.364 L2203.01 180.003 L2203.01 183.528 Q2204.59 180.003 2207.98 180.003 Q2210.5 180.003 2211.5 181.249 Q2212.24 182.085 2212.39 183.02 Q2212.55 183.954 2212.55 186.381 L2212.55 192.792 Q2212.59 193.497 2213.13 193.661 Q2213.67 193.808 2215.18 193.808 L2215.18 194.841 Q2211.75 194.743 2211.41 194.743 Q2211.14 194.743 2207.62 194.841 L2207.62 193.808 Q2209.41 193.808 2209.82 193.595 Q2210.24 193.366 2210.24 192.283 L2210.24 184.463 Q2210.24 182.757 2209.72 181.757 Q2209.19 180.741 2207.75 180.741 Q2206.01 180.741 2204.62 182.2 Q2203.22 183.659 2203.22 186.119 L2203.22 192.283 Q2203.22 193.366 2203.63 193.595 Q2204.06 193.808 2205.83 193.808 L2205.83 194.841 Q2202.4 194.743 2202.08 194.743 Q2201.81 194.743 2198.29 194.841 Z" fill="#000000" fill-rule="evenodd" fill-opacity="1" /><circle clip-path="url(#clip560)" cx="1924.35" cy="219.81" r="23" fill="#e26f46" fill-rule="evenodd" fill-opacity="1" stroke="#000000" stroke-opacity="1" stroke-width="5.12"/>
<path clip-path="url(#clip560)" d="M2021.17 210.048 L2022.09 199.274 L2051.39 199.274 L2052.3 210.048 L2051.11 210.048 Q2050.92 207.893 2050.73 206.652 Q2050.57 205.41 2050.15 204.239 Q2049.75 203.045 2049.23 202.482 Q2048.74 201.897 2047.78 201.452 Q2046.82 200.983 2045.58 200.866 Q2044.34 200.749 2042.46 200.749 Q2040.26 200.749 2039.72 200.843 Q2039.14 200.983 2039 201.405 Q2038.86 201.803 2038.86 202.67 L2038.86 227.943 Q2038.86 228.903 2039.04 229.301 Q2039.25 229.676 2040.36 229.98 Q2041.46 230.261 2043.89 230.261 L2045.81 230.261 L2045.81 231.737 Q2043.85 231.597 2036.7 231.597 Q2029.6 231.597 2027.64 231.737 L2027.64 230.261 L2029.56 230.261 Q2031.99 230.261 2033.09 229.98 Q2034.22 229.676 2034.41 229.301 Q2034.59 228.903 2034.59 227.943 L2034.59 202.67 Q2034.59 201.991 2034.55 201.709 Q2034.5 201.428 2034.29 201.194 Q2034.08 200.937 2033.59 200.843 Q2033.12 200.749 2031.01 200.749 Q2029.14 200.749 2027.87 200.866 Q2026.63 200.983 2025.67 201.452 Q2024.71 201.897 2024.19 202.482 Q2023.7 203.045 2023.28 204.239 Q2022.88 205.41 2022.72 206.652 Q2022.55 207.893 2022.37 210.048 L2021.17 210.048 Z" fill="#000000" fill-rule="evenodd" fill-opacity="1" /><path clip-path="url(#clip560)" d="M2059.35 231.737 L2059.35 230.261 Q2061.9 230.261 2062.48 229.957 Q2063.09 229.629 2063.09 228.083 L2063.09 215.224 Q2063.09 213.444 2062.46 212.999 Q2061.85 212.554 2059.35 212.554 L2059.35 211.055 L2066.02 210.54 L2066.02 215.81 Q2066.7 213.749 2068.13 212.156 Q2069.58 210.54 2071.92 210.54 Q2073.47 210.54 2074.45 211.406 Q2075.46 212.273 2075.46 213.468 Q2075.46 214.522 2074.81 215.06 Q2074.17 215.576 2073.4 215.576 Q2072.53 215.576 2071.92 215.037 Q2071.34 214.475 2071.34 213.514 Q2071.34 212.929 2071.6 212.484 Q2071.88 212.015 2072.09 211.851 Q2072.3 211.687 2072.44 211.641 Q2072.35 211.594 2071.92 211.594 Q2069.28 211.594 2067.75 214.24 Q2066.26 216.864 2066.26 220.611 L2066.26 227.989 Q2066.26 229.371 2066.82 229.816 Q2067.4 230.261 2069.91 230.261 L2070.92 230.261 L2070.92 231.737 Q2069 231.597 2064.83 231.597 Q2064.24 231.597 2063.33 231.62 Q2062.41 231.643 2061.22 231.69 Q2060.03 231.737 2059.35 231.737 Z" fill="#000000" fill-rule="evenodd" fill-opacity="1" /><path clip-path="url(#clip560)" d="M2077.9 219.745 Q2077.9 211.641 2080.92 205.106 Q2082.21 202.365 2084.01 200.07 Q2085.82 197.775 2087.01 196.767 Q2088.21 195.76 2088.53 195.76 Q2089 195.76 2089.03 196.229 Q2089.03 196.463 2088.39 197.048 Q2080.66 204.918 2080.69 219.745 Q2080.69 234.618 2088.21 242.183 Q2089.03 243.003 2089.03 243.261 Q2089.03 243.729 2088.53 243.729 Q2088.21 243.729 2087.06 242.769 Q2085.91 241.809 2084.13 239.607 Q2082.35 237.405 2081.06 234.712 Q2077.9 228.177 2077.9 219.745 Z" fill="#000000" fill-rule="evenodd" fill-opacity="1" /><path clip-path="url(#clip560)" d="M2113.73 212.788 Q2113.73 212.812 2113.59 213.655 L2108.24 234.946 Q2107.96 236.07 2107.17 237.194 Q2106.39 238.342 2105.15 239.326 Q2103.94 240.333 2102.06 240.942 Q2100.21 241.574 2098.08 241.574 Q2094.68 241.574 2093.18 240.848 Q2091.71 240.146 2091.71 238.647 Q2091.71 237.335 2092.53 236.585 Q2093.35 235.859 2094.28 235.859 Q2095.18 235.859 2095.64 236.375 Q2096.11 236.89 2096.11 237.546 Q2096.11 238.272 2095.62 238.998 Q2095.13 239.748 2094.14 240.029 Q2095.71 240.52 2097.99 240.52 Q2102.79 240.52 2104.85 235.438 Q2104.9 235.368 2104.9 235.344 L2106.49 228.997 L2106.42 228.95 Q2106.02 229.418 2105.39 229.957 Q2104.78 230.472 2103.47 231.105 Q2102.15 231.737 2100.87 231.737 Q2098.17 231.737 2096.32 229.676 Q2094.5 227.591 2094.5 224.148 Q2094.5 221.642 2095.5 219.136 Q2096.53 216.606 2098.13 214.756 Q2099.74 212.882 2101.8 211.711 Q2103.89 210.54 2105.9 210.54 Q2107.31 210.54 2108.5 211.383 Q2109.7 212.203 2110.35 213.561 Q2110.47 212.437 2111.1 211.969 Q2111.76 211.5 2112.32 211.5 Q2112.95 211.5 2113.33 211.851 Q2113.73 212.179 2113.73 212.788 M2109.79 215.716 Q2109.79 215.576 2109.7 215.201 Q2109.6 214.803 2109.32 214.17 Q2109.06 213.538 2108.67 212.976 Q2108.27 212.414 2107.54 212.015 Q2106.84 211.594 2105.95 211.594 Q2104.5 211.594 2103.04 212.812 Q2101.59 214.006 2100.59 215.857 Q2099.65 217.637 2098.76 221.08 Q2097.89 224.523 2097.89 226.28 Q2097.89 228.013 2098.64 229.348 Q2099.39 230.683 2101.01 230.683 Q2102.88 230.683 2104.9 228.95 Q2106.98 227.146 2107.33 225.6 L2109.65 216.442 Q2109.79 215.88 2109.79 215.716 Z" fill="#000000" fill-rule="evenodd" fill-opacity="1" /><path clip-path="url(#clip560)" d="M2114.35 243.261 Q2114.35 243.027 2114.95 242.441 Q2122.68 234.571 2122.68 219.745 Q2122.68 204.872 2115.26 197.353 Q2114.35 196.486 2114.35 196.229 Q2114.35 195.76 2114.81 195.76 Q2115.14 195.76 2116.29 196.72 Q2117.46 197.681 2119.22 199.883 Q2121 202.084 2122.31 204.778 Q2125.47 211.313 2125.47 219.745 Q2125.47 227.849 2122.45 234.384 Q2121.16 237.124 2119.36 239.42 Q2117.55 241.715 2116.36 242.722 Q2115.17 243.729 2114.81 243.729 Q2114.35 243.729 2114.35 243.261 Z" fill="#000000" fill-rule="evenodd" fill-opacity="1" /><path clip-path="url(#clip560)" d="M2130.48 256.96 L2130.48 255.927 Q2132.27 255.927 2132.68 255.714 Q2133.09 255.485 2133.09 254.402 L2133.09 245.401 Q2133.09 244.155 2132.65 243.844 Q2132.22 243.532 2130.48 243.532 L2130.48 242.483 L2135.2 242.122 L2135.2 245.647 Q2136.78 242.122 2140.17 242.122 Q2144.11 242.122 2144.65 245.401 Q2145.22 244.122 2146.42 243.122 Q2147.63 242.122 2149.52 242.122 Q2152.04 242.122 2153.04 243.368 Q2153.78 244.204 2153.93 245.139 Q2154.07 246.073 2154.07 248.5 L2154.07 254.911 Q2154.11 255.616 2154.65 255.78 Q2155.19 255.927 2156.7 255.927 L2156.7 256.96 Q2153.27 256.862 2152.94 256.862 Q2152.68 256.862 2149.14 256.96 L2149.14 255.927 Q2150.93 255.927 2151.34 255.714 Q2151.76 255.485 2151.76 254.402 L2151.76 246.582 Q2151.76 244.877 2151.24 243.876 Q2150.71 242.86 2149.27 242.86 Q2147.53 242.86 2146.14 244.319 Q2144.75 245.778 2144.75 248.238 L2144.75 254.402 Q2144.75 255.485 2145.16 255.714 Q2145.58 255.927 2147.37 255.927 L2147.37 256.96 Q2143.94 256.862 2143.6 256.862 Q2143.34 256.862 2139.81 256.96 L2139.81 255.927 Q2141.6 255.927 2142.01 255.714 Q2142.43 255.485 2142.43 254.402 L2142.43 246.582 Q2142.43 244.877 2141.91 243.876 Q2141.38 242.86 2139.94 242.86 Q2138.2 242.86 2136.81 244.319 Q2135.42 245.778 2135.42 248.238 L2135.42 254.402 Q2135.42 255.485 2135.83 255.714 Q2136.25 255.927 2138.02 255.927 L2138.02 256.96 Q2134.6 256.862 2134.27 256.862 Q2134.01 256.862 2130.48 256.96 Z" fill="#000000" fill-rule="evenodd" fill-opacity="1" /><path clip-path="url(#clip560)" d="M2158.57 253.763 Q2158.57 250.91 2161.93 249.402 Q2163.94 248.434 2168.11 248.188 L2168.11 246.959 Q2168.11 244.877 2167.01 243.778 Q2165.93 242.663 2164.55 242.663 Q2162.09 242.663 2160.91 244.204 Q2161.91 244.237 2162.27 244.745 Q2162.63 245.237 2162.63 245.746 Q2162.63 246.418 2162.21 246.86 Q2161.8 247.287 2161.09 247.287 Q2160.42 247.287 2159.98 246.877 Q2159.53 246.451 2159.53 245.713 Q2159.53 244.073 2161.01 242.991 Q2162.5 241.909 2164.62 241.909 Q2167.37 241.909 2169.21 243.762 Q2169.78 244.335 2170.06 245.073 Q2170.35 245.811 2170.39 246.303 Q2170.42 246.778 2170.42 247.729 L2170.42 254.435 Q2170.42 254.632 2170.49 254.96 Q2170.55 255.288 2170.85 255.714 Q2171.16 256.124 2171.67 256.124 Q2172.88 256.124 2172.86 253.976 L2172.86 252.091 L2173.71 252.091 L2173.71 253.976 Q2173.71 255.763 2172.76 256.468 Q2171.83 257.157 2170.96 257.157 Q2169.85 257.157 2169.14 256.337 Q2168.44 255.517 2168.34 254.402 Q2167.83 255.681 2166.66 256.517 Q2165.52 257.337 2163.94 257.337 Q2162.73 257.337 2161.58 257.026 Q2160.45 256.731 2159.5 255.894 Q2158.57 255.042 2158.57 253.763 M2161.16 253.73 Q2161.16 254.976 2162.04 255.78 Q2162.93 256.583 2164.17 256.583 Q2165.58 256.583 2166.85 255.501 Q2168.11 254.402 2168.11 252.255 L2168.11 248.893 Q2164.39 249.025 2162.76 250.517 Q2161.16 251.992 2161.16 253.73 Z" fill="#000000" fill-rule="evenodd" fill-opacity="1" /><path clip-path="url(#clip560)" d="M2174.52 243.532 L2174.52 242.794 Q2176.06 242.729 2177.08 241.647 Q2178.11 240.548 2178.45 239.204 Q2178.81 237.859 2178.85 236.302 L2179.68 236.302 L2179.68 242.483 L2184.49 242.483 L2184.49 243.532 L2179.68 243.532 L2179.68 252.861 Q2179.68 256.485 2181.95 256.485 Q2182.91 256.485 2183.55 255.501 Q2184.19 254.501 2184.19 252.73 L2184.19 250.877 L2185.03 250.877 L2185.03 252.796 Q2185.03 254.616 2184.19 255.976 Q2183.36 257.337 2181.7 257.337 Q2181.09 257.337 2180.49 257.173 Q2179.9 257.026 2179.11 256.632 Q2178.34 256.222 2177.85 255.239 Q2177.37 254.238 2177.37 252.796 L2177.37 243.532 L2174.52 243.532 Z" fill="#000000" fill-rule="evenodd" fill-opacity="1" /><path clip-path="url(#clip560)" d="M2187.01 256.96 L2187.01 255.927 Q2188.79 255.927 2189.2 255.714 Q2189.63 255.485 2189.63 254.402 L2189.63 245.401 Q2189.63 244.155 2189.19 243.844 Q2188.76 243.532 2187.01 243.532 L2187.01 242.483 L2191.68 242.122 L2191.68 245.811 Q2192.15 244.368 2193.15 243.253 Q2194.17 242.122 2195.81 242.122 Q2196.89 242.122 2197.58 242.729 Q2198.29 243.335 2198.29 244.172 Q2198.29 244.909 2197.83 245.286 Q2197.38 245.647 2196.84 245.647 Q2196.24 245.647 2195.81 245.27 Q2195.4 244.877 2195.4 244.204 Q2195.4 243.794 2195.58 243.483 Q2195.78 243.155 2195.93 243.04 Q2196.07 242.925 2196.17 242.893 Q2196.11 242.86 2195.81 242.86 Q2193.96 242.86 2192.89 244.713 Q2191.84 246.549 2191.84 249.172 L2191.84 254.337 Q2191.84 255.304 2192.24 255.616 Q2192.65 255.927 2194.4 255.927 L2195.11 255.927 L2195.11 256.96 Q2193.76 256.862 2190.84 256.862 Q2190.43 256.862 2189.79 256.878 Q2189.15 256.895 2188.32 256.927 Q2187.48 256.96 2187.01 256.96 Z" fill="#000000" fill-rule="evenodd" fill-opacity="1" /><path clip-path="url(#clip560)" d="M2199.61 256.96 L2199.61 255.927 Q2201.4 255.927 2201.81 255.714 Q2202.22 255.485 2202.22 254.402 L2202.22 245.368 Q2202.22 244.122 2201.79 243.827 Q2201.38 243.532 2199.74 243.532 L2199.74 242.483 L2204.43 242.122 L2204.43 254.435 Q2204.43 255.435 2204.79 255.681 Q2205.15 255.927 2206.79 255.927 L2206.79 256.96 Q2203.36 256.862 2203.3 256.862 Q2202.84 256.862 2199.61 256.96 M2201.02 236.269 Q2201.02 235.597 2201.53 235.056 Q2202.05 234.498 2202.79 234.498 Q2203.53 234.498 2204.05 235.006 Q2204.58 235.498 2204.58 236.285 Q2204.58 237.056 2204.05 237.564 Q2203.53 238.056 2202.79 238.056 Q2202.02 238.056 2201.51 237.515 Q2201.02 236.974 2201.02 236.269 Z" fill="#000000" fill-rule="evenodd" fill-opacity="1" /><path clip-path="url(#clip560)" d="M2209.08 256.96 L2209.08 255.927 Q2211.71 255.927 2213.38 253.911 Q2213.38 253.911 2216.53 249.91 L2213.2 245.582 Q2212.02 244.073 2211.49 243.811 Q2210.99 243.532 2209.25 243.532 L2209.25 242.483 Q2210.63 242.581 2212.43 242.581 Q2213.43 242.581 2216.07 242.483 L2216.07 243.532 Q2214.89 243.598 2214.89 244.368 Q2214.89 244.631 2215.18 244.975 L2217.81 248.369 L2219.89 245.746 Q2220.4 245.139 2220.4 244.565 Q2220.4 243.63 2219.41 243.532 L2219.41 242.483 Q2220.73 242.581 2222.64 242.581 Q2224.09 242.581 2225.4 242.483 L2225.4 243.532 Q2222.84 243.598 2221.4 245.27 Q2220.76 245.975 2218.32 249.074 L2222.81 254.878 Q2223.35 255.583 2223.96 255.763 Q2224.56 255.927 2226 255.927 L2226 256.96 Q2224.5 256.862 2222.77 256.862 Q2222.17 256.862 2219.15 256.96 L2219.15 255.927 Q2219.76 255.894 2220.05 255.632 Q2220.36 255.353 2220.36 255.075 Q2220.36 254.944 2219.66 253.976 L2217.1 250.615 Q2214.54 253.632 2214.22 254.337 Q2214.08 254.632 2214.08 254.878 Q2214.08 255.78 2215.05 255.927 L2215.05 256.96 Q2212.64 256.862 2211.87 256.862 Q2210.4 256.862 2209.08 256.96 Z" fill="#000000" fill-rule="evenodd" fill-opacity="1" /></svg>
