<?xml version="1.0" encoding="utf-8"?>
<svg xmlns="http://www.w3.org/2000/svg" xmlns:xlink="http://www.w3.org/1999/xlink" width="600" height="400" viewBox="0 0 2400 1600">
<defs>
  <clipPath id="clip900">
    <rect x="0" y="0" width="2400" height="1600"/>
  </clipPath>
</defs>
<path clip-path="url(#clip900)" d="
M0 1600 L2400 1600 L2400 0 L0 0  Z
  " fill="#ffffff" fill-rule="evenodd" fill-opacity="1"/>
<defs>
  <clipPath id="clip901">
    <rect x="480" y="0" width="1681" height="1600"/>
  </clipPath>
</defs>
<path clip-path="url(#clip900)" d="
M205.121 1486.45 L2352.76 1486.45 L2352.76 47.2441 L205.121 47.2441  Z
  " fill="#ffffff" fill-rule="evenodd" fill-opacity="1"/>
<defs>
  <clipPath id="clip902">
    <rect x="205" y="47" width="2149" height="1440"/>
  </clipPath>
</defs>
<polyline clip-path="url(#clip902)" style="stroke:#000000; stroke-linecap:butt; stroke-linejoin:round; stroke-width:2; stroke-opacity:0.1; fill:none" points="
  265.903,1486.45 265.903,47.2441 
  "/>
<polyline clip-path="url(#clip902)" style="stroke:#000000; stroke-linecap:butt; stroke-linejoin:round; stroke-width:2; stroke-opacity:0.1; fill:none" points="
  932.195,1486.45 932.195,47.2441 
  "/>
<polyline clip-path="url(#clip902)" style="stroke:#000000; stroke-linecap:butt; stroke-linejoin:round; stroke-width:2; stroke-opacity:0.1; fill:none" points="
  1612.08,1486.45 1612.08,47.2441 
  "/>
<polyline clip-path="url(#clip902)" style="stroke:#000000; stroke-linecap:butt; stroke-linejoin:round; stroke-width:2; stroke-opacity:0.1; fill:none" points="
  2291.97,1486.45 2291.97,47.2441 
  "/>
<polyline clip-path="url(#clip900)" style="stroke:#000000; stroke-linecap:butt; stroke-linejoin:round; stroke-width:4; stroke-opacity:1; fill:none" points="
  205.121,1486.45 2352.76,1486.45 
  "/>
<polyline clip-path="url(#clip900)" style="stroke:#000000; stroke-linecap:butt; stroke-linejoin:round; stroke-width:4; stroke-opacity:1; fill:none" points="
  265.903,1486.45 265.903,1467.55 
  "/>
<polyline clip-path="url(#clip900)" style="stroke:#000000; stroke-linecap:butt; stroke-linejoin:round; stroke-width:4; stroke-opacity:1; fill:none" points="
  932.195,1486.45 932.195,1467.55 
  "/>
<polyline clip-path="url(#clip900)" style="stroke:#000000; stroke-linecap:butt; stroke-linejoin:round; stroke-width:4; stroke-opacity:1; fill:none" points="
  1612.08,1486.45 1612.08,1467.55 
  "/>
<polyline clip-path="url(#clip900)" style="stroke:#000000; stroke-linecap:butt; stroke-linejoin:round; stroke-width:4; stroke-opacity:1; fill:none" points="
  2291.97,1486.45 2291.97,1467.55 
  "/>
<path clip-path="url(#clip900)" d="M251.059 1554.64 L251.059 1553.16 L251.762 1553.16 Q254.315 1553.16 255.111 1552.81 Q255.931 1552.43 256.001 1551.08 L256.001 1525.48 Q255.955 1524.23 255.158 1523.86 Q254.362 1523.46 251.762 1523.46 L251.059 1523.46 L251.059 1522.01 Q253.308 1522.1 257.805 1522.1 Q259.632 1522.1 261.201 1522.06 Q262.794 1522.01 263.052 1522.01 L276.098 1522.01 L277.433 1532.81 L276.192 1532.81 Q275.817 1529.88 275.395 1528.36 Q274.997 1526.81 274.013 1525.57 Q273.03 1524.33 271.39 1523.91 Q269.75 1523.46 266.987 1523.46 L262.888 1523.46 Q261.342 1523.46 260.803 1523.77 Q260.264 1524.07 260.264 1525.33 L260.264 1550.94 Q260.264 1552.41 261.248 1552.79 Q262.232 1553.16 265.534 1553.16 L266.401 1553.16 L266.401 1554.64 Q262.326 1554.5 258.203 1554.5 L257.899 1554.5 Q254.901 1554.5 251.059 1554.64 Z" fill="#000000" fill-rule="evenodd" fill-opacity="1" /><path clip-path="url(#clip900)" d="M914.382 1554.71 L914.382 1553.23 Q916.584 1553.23 918.2 1552.55 Q919.816 1551.87 920.285 1551.38 Q920.777 1550.87 921.339 1550.05 L929.209 1538.45 L920.378 1525.1 Q919.699 1524.09 918.786 1523.77 Q917.896 1523.44 915.928 1523.44 L915.015 1523.44 L915.015 1521.94 Q917.661 1522.08 921.245 1522.08 Q926.562 1522.08 928.248 1521.94 L928.248 1523.44 Q926.82 1523.48 925.976 1523.95 Q925.133 1524.4 925.133 1524.87 Q925.133 1525.05 925.461 1525.59 L931.645 1534.84 L937.125 1526.74 Q937.547 1526.06 937.547 1525.64 Q937.547 1524.77 936.751 1524.14 Q935.978 1523.48 934.572 1523.44 L934.572 1521.94 Q936.493 1522.08 940.733 1522.08 Q941.271 1522.08 942.138 1522.06 Q943.028 1522.03 944.199 1521.99 Q945.37 1521.94 946.049 1521.94 L946.049 1523.44 Q941.201 1523.48 939.093 1526.55 L932.511 1536.18 L942.63 1551.5 Q943.356 1552.55 944.269 1552.9 Q945.183 1553.23 947.15 1553.23 L948.064 1553.23 L948.064 1554.71 Q945.042 1554.57 941.833 1554.57 Q936.517 1554.57 934.83 1554.71 L934.83 1553.23 Q936.259 1553.18 937.102 1552.74 Q937.945 1552.27 937.945 1551.78 Q937.945 1551.73 937.688 1551.26 L930.122 1539.79 L923.306 1549.86 Q922.838 1550.63 922.838 1551.01 Q922.838 1551.78 923.587 1552.48 Q924.36 1553.16 925.859 1553.23 L925.859 1554.71 Q924.126 1554.57 919.699 1554.57 Q919.559 1554.57 914.382 1554.71 Z" fill="#000000" fill-rule="evenodd" fill-opacity="1" /><path clip-path="url(#clip900)" d="M1590.34 1554.71 L1590.34 1553.23 Q1592.07 1553.23 1593.17 1552.9 Q1594.28 1552.55 1594.67 1551.92 Q1595.1 1551.26 1595.19 1550.84 Q1595.28 1550.4 1595.28 1549.67 L1595.28 1525.69 Q1595.28 1524.3 1594.67 1523.88 Q1594.09 1523.44 1591.49 1523.44 L1590.34 1523.44 L1590.34 1521.94 L1598.44 1521.94 Q1599.31 1521.94 1599.55 1522.1 Q1599.78 1522.24 1600.13 1522.99 L1610.53 1549.86 L1621.02 1522.85 Q1621.26 1522.17 1621.47 1522.06 Q1621.7 1521.94 1622.62 1521.94 L1630.72 1521.94 L1630.72 1523.44 L1629.57 1523.44 Q1626.97 1523.44 1626.36 1523.88 Q1625.78 1524.3 1625.78 1525.69 L1625.78 1550.96 Q1625.78 1552.34 1626.36 1552.79 Q1626.97 1553.23 1629.57 1553.23 L1630.72 1553.23 L1630.72 1554.71 Q1628.94 1554.57 1623.86 1554.57 Q1618.73 1554.57 1616.95 1554.71 L1616.95 1553.23 L1618.12 1553.23 Q1620.72 1553.23 1621.3 1552.81 Q1621.89 1552.36 1621.89 1550.96 L1621.89 1523.44 L1621.84 1523.44 L1610.06 1553.79 Q1609.73 1554.71 1609.2 1554.71 Q1608.61 1554.71 1608.24 1553.65 L1596.66 1523.81 L1596.62 1523.81 L1596.62 1549.67 Q1596.62 1550.4 1596.71 1550.84 Q1596.81 1551.26 1597.2 1551.92 Q1597.62 1552.55 1598.73 1552.9 Q1599.83 1553.23 1601.56 1553.23 L1601.56 1554.71 Q1596.52 1554.57 1595.94 1554.57 Q1595.38 1554.57 1590.34 1554.71 Z" fill="#000000" fill-rule="evenodd" fill-opacity="1" /><path clip-path="url(#clip900)" d="M2277.13 1554.64 L2277.13 1553.16 L2277.83 1553.16 Q2280.39 1553.16 2281.18 1552.81 Q2282 1552.43 2282.07 1551.08 L2282.07 1525.48 Q2282.03 1524.23 2281.23 1523.86 Q2280.43 1523.46 2277.83 1523.46 L2277.13 1523.46 L2277.13 1522.01 Q2279.38 1522.1 2283.88 1522.1 Q2285.7 1522.1 2287.27 1522.06 Q2288.86 1522.01 2289.12 1522.01 L2302.17 1522.01 L2303.5 1532.81 L2302.26 1532.81 Q2301.89 1529.88 2301.47 1528.36 Q2301.07 1526.81 2300.08 1525.57 Q2299.1 1524.33 2297.46 1523.91 Q2295.82 1523.46 2293.06 1523.46 L2288.96 1523.46 Q2287.41 1523.46 2286.87 1523.77 Q2286.34 1524.07 2286.34 1525.33 L2286.34 1550.94 Q2286.34 1552.41 2287.32 1552.79 Q2288.3 1553.16 2291.61 1553.16 L2292.47 1553.16 L2292.47 1554.64 Q2288.4 1554.5 2284.27 1554.5 L2283.97 1554.5 Q2280.97 1554.5 2277.13 1554.64 Z" fill="#000000" fill-rule="evenodd" fill-opacity="1" /><polyline clip-path="url(#clip902)" style="stroke:#000000; stroke-linecap:butt; stroke-linejoin:round; stroke-width:2; stroke-opacity:0.1; fill:none" points="
  205.121,1445.72 2352.76,1445.72 
  "/>
<polyline clip-path="url(#clip902)" style="stroke:#000000; stroke-linecap:butt; stroke-linejoin:round; stroke-width:2; stroke-opacity:0.1; fill:none" points="
  205.121,1188.15 2352.76,1188.15 
  "/>
<polyline clip-path="url(#clip902)" style="stroke:#000000; stroke-linecap:butt; stroke-linejoin:round; stroke-width:2; stroke-opacity:0.1; fill:none" points="
  205.121,930.587 2352.76,930.587 
  "/>
<polyline clip-path="url(#clip902)" style="stroke:#000000; stroke-linecap:butt; stroke-linejoin:round; stroke-width:2; stroke-opacity:0.1; fill:none" points="
  205.121,673.023 2352.76,673.023 
  "/>
<polyline clip-path="url(#clip902)" style="stroke:#000000; stroke-linecap:butt; stroke-linejoin:round; stroke-width:2; stroke-opacity:0.1; fill:none" points="
  205.121,415.459 2352.76,415.459 
  "/>
<polyline clip-path="url(#clip902)" style="stroke:#000000; stroke-linecap:butt; stroke-linejoin:round; stroke-width:2; stroke-opacity:0.1; fill:none" points="
  205.121,157.895 2352.76,157.895 
  "/>
<polyline clip-path="url(#clip900)" style="stroke:#000000; stroke-linecap:butt; stroke-linejoin:round; stroke-width:4; stroke-opacity:1; fill:none" points="
  205.121,1486.45 205.121,47.2441 
  "/>
<polyline clip-path="url(#clip900)" style="stroke:#000000; stroke-linecap:butt; stroke-linejoin:round; stroke-width:4; stroke-opacity:1; fill:none" points="
  205.121,1445.72 224.019,1445.72 
  "/>
<polyline clip-path="url(#clip900)" style="stroke:#000000; stroke-linecap:butt; stroke-linejoin:round; stroke-width:4; stroke-opacity:1; fill:none" points="
  205.121,1188.15 224.019,1188.15 
  "/>
<polyline clip-path="url(#clip900)" style="stroke:#000000; stroke-linecap:butt; stroke-linejoin:round; stroke-width:4; stroke-opacity:1; fill:none" points="
  205.121,930.587 224.019,930.587 
  "/>
<polyline clip-path="url(#clip900)" style="stroke:#000000; stroke-linecap:butt; stroke-linejoin:round; stroke-width:4; stroke-opacity:1; fill:none" points="
  205.121,673.023 224.019,673.023 
  "/>
<polyline clip-path="url(#clip900)" style="stroke:#000000; stroke-linecap:butt; stroke-linejoin:round; stroke-width:4; stroke-opacity:1; fill:none" points="
  205.121,415.459 224.019,415.459 
  "/>
<polyline clip-path="url(#clip900)" style="stroke:#000000; stroke-linecap:butt; stroke-linejoin:round; stroke-width:4; stroke-opacity:1; fill:none" points="
  205.121,157.895 224.019,157.895 
  "/>
<path clip-path="url(#clip900)" d="M157.177 1431.51 Q153.566 1431.51 151.737 1435.08 Q149.931 1438.62 149.931 1445.75 Q149.931 1452.86 151.737 1456.42 Q153.566 1459.96 157.177 1459.96 Q160.811 1459.96 162.616 1456.42 Q164.445 1452.86 164.445 1445.75 Q164.445 1438.62 162.616 1435.08 Q160.811 1431.51 157.177 1431.51 M157.177 1427.81 Q162.987 1427.81 166.042 1432.42 Q169.121 1437 169.121 1445.75 Q169.121 1454.48 166.042 1459.08 Q162.987 1463.67 157.177 1463.67 Q151.366 1463.67 148.288 1459.08 Q145.232 1454.48 145.232 1445.75 Q145.232 1437 148.288 1432.42 Q151.366 1427.81 157.177 1427.81 Z" fill="#000000" fill-rule="evenodd" fill-opacity="1" /><path clip-path="url(#clip900)" d="M117.825 1201.5 L125.464 1201.5 L125.464 1175.13 L117.154 1176.8 L117.154 1172.54 L125.418 1170.87 L130.093 1170.87 L130.093 1201.5 L137.732 1201.5 L137.732 1205.43 L117.825 1205.43 L117.825 1201.5 Z" fill="#000000" fill-rule="evenodd" fill-opacity="1" /><path clip-path="url(#clip900)" d="M157.177 1173.95 Q153.566 1173.95 151.737 1177.52 Q149.931 1181.06 149.931 1188.19 Q149.931 1195.29 151.737 1198.86 Q153.566 1202.4 157.177 1202.4 Q160.811 1202.4 162.616 1198.86 Q164.445 1195.29 164.445 1188.19 Q164.445 1181.06 162.616 1177.52 Q160.811 1173.95 157.177 1173.95 M157.177 1170.25 Q162.987 1170.25 166.042 1174.85 Q169.121 1179.44 169.121 1188.19 Q169.121 1196.91 166.042 1201.52 Q162.987 1206.1 157.177 1206.1 Q151.366 1206.1 148.288 1201.52 Q145.232 1196.91 145.232 1188.19 Q145.232 1179.44 148.288 1174.85 Q151.366 1170.25 157.177 1170.25 Z" fill="#000000" fill-rule="evenodd" fill-opacity="1" /><path clip-path="url(#clip900)" d="M121.043 943.932 L137.362 943.932 L137.362 947.867 L115.418 947.867 L115.418 943.932 Q118.08 941.178 122.663 936.548 Q127.269 931.895 128.45 930.553 Q130.695 928.03 131.575 926.293 Q132.478 924.534 132.478 922.844 Q132.478 920.09 130.533 918.354 Q128.612 916.618 125.51 916.618 Q123.311 916.618 120.857 917.381 Q118.427 918.145 115.649 919.696 L115.649 914.974 Q118.473 913.84 120.927 913.261 Q123.38 912.682 125.418 912.682 Q130.788 912.682 133.982 915.368 Q137.177 918.053 137.177 922.544 Q137.177 924.673 136.367 926.594 Q135.579 928.493 133.473 931.085 Q132.894 931.756 129.792 934.974 Q126.691 938.168 121.043 943.932 Z" fill="#000000" fill-rule="evenodd" fill-opacity="1" /><path clip-path="url(#clip900)" d="M157.177 916.386 Q153.566 916.386 151.737 919.951 Q149.931 923.493 149.931 930.622 Q149.931 937.729 151.737 941.293 Q153.566 944.835 157.177 944.835 Q160.811 944.835 162.616 941.293 Q164.445 937.729 164.445 930.622 Q164.445 923.493 162.616 919.951 Q160.811 916.386 157.177 916.386 M157.177 912.682 Q162.987 912.682 166.042 917.289 Q169.121 921.872 169.121 930.622 Q169.121 939.349 166.042 943.955 Q162.987 948.539 157.177 948.539 Q151.366 948.539 148.288 943.955 Q145.232 939.349 145.232 930.622 Q145.232 921.872 148.288 917.289 Q151.366 912.682 157.177 912.682 Z" fill="#000000" fill-rule="evenodd" fill-opacity="1" /><path clip-path="url(#clip900)" d="M131.181 671.669 Q134.538 672.387 136.413 674.655 Q138.311 676.924 138.311 680.257 Q138.311 685.373 134.792 688.174 Q131.274 690.975 124.793 690.975 Q122.617 690.975 120.302 690.535 Q118.01 690.118 115.556 689.262 L115.556 684.748 Q117.501 685.882 119.816 686.461 Q122.13 687.039 124.654 687.039 Q129.052 687.039 131.343 685.303 Q133.658 683.567 133.658 680.257 Q133.658 677.202 131.505 675.489 Q129.376 673.752 125.556 673.752 L121.529 673.752 L121.529 669.91 L125.742 669.91 Q129.191 669.91 131.019 668.544 Q132.848 667.155 132.848 664.563 Q132.848 661.901 130.95 660.489 Q129.075 659.053 125.556 659.053 Q123.635 659.053 121.436 659.47 Q119.237 659.887 116.598 660.766 L116.598 656.6 Q119.26 655.859 121.575 655.489 Q123.913 655.118 125.973 655.118 Q131.297 655.118 134.399 657.549 Q137.501 659.956 137.501 664.077 Q137.501 666.947 135.857 668.938 Q134.214 670.905 131.181 671.669 Z" fill="#000000" fill-rule="evenodd" fill-opacity="1" /><path clip-path="url(#clip900)" d="M157.177 658.822 Q153.566 658.822 151.737 662.387 Q149.931 665.928 149.931 673.058 Q149.931 680.164 151.737 683.729 Q153.566 687.271 157.177 687.271 Q160.811 687.271 162.616 683.729 Q164.445 680.164 164.445 673.058 Q164.445 665.928 162.616 662.387 Q160.811 658.822 157.177 658.822 M157.177 655.118 Q162.987 655.118 166.042 659.725 Q169.121 664.308 169.121 673.058 Q169.121 681.785 166.042 686.391 Q162.987 690.975 157.177 690.975 Q151.366 690.975 148.288 686.391 Q145.232 681.785 145.232 673.058 Q145.232 664.308 148.288 659.725 Q151.366 655.118 157.177 655.118 Z" fill="#000000" fill-rule="evenodd" fill-opacity="1" /><path clip-path="url(#clip900)" d="M129.862 402.253 L118.056 420.702 L129.862 420.702 L129.862 402.253 M128.635 398.179 L134.515 398.179 L134.515 420.702 L139.445 420.702 L139.445 424.591 L134.515 424.591 L134.515 432.739 L129.862 432.739 L129.862 424.591 L114.26 424.591 L114.26 420.077 L128.635 398.179 Z" fill="#000000" fill-rule="evenodd" fill-opacity="1" /><path clip-path="url(#clip900)" d="M157.177 401.258 Q153.566 401.258 151.737 404.823 Q149.931 408.364 149.931 415.494 Q149.931 422.6 151.737 426.165 Q153.566 429.707 157.177 429.707 Q160.811 429.707 162.616 426.165 Q164.445 422.6 164.445 415.494 Q164.445 408.364 162.616 404.823 Q160.811 401.258 157.177 401.258 M157.177 397.554 Q162.987 397.554 166.042 402.161 Q169.121 406.744 169.121 415.494 Q169.121 424.221 166.042 428.827 Q162.987 433.41 157.177 433.41 Q151.366 433.41 148.288 428.827 Q145.232 424.221 145.232 415.494 Q145.232 406.744 148.288 402.161 Q151.366 397.554 157.177 397.554 Z" fill="#000000" fill-rule="evenodd" fill-opacity="1" /><path clip-path="url(#clip900)" d="M117.061 140.615 L135.417 140.615 L135.417 144.55 L121.343 144.55 L121.343 153.022 Q122.362 152.675 123.38 152.513 Q124.399 152.328 125.418 152.328 Q131.205 152.328 134.584 155.499 Q137.964 158.671 137.964 164.087 Q137.964 169.666 134.492 172.768 Q131.019 175.846 124.7 175.846 Q122.524 175.846 120.255 175.476 Q118.01 175.106 115.603 174.365 L115.603 169.666 Q117.686 170.8 119.908 171.356 Q122.13 171.911 124.607 171.911 Q128.612 171.911 130.95 169.805 Q133.288 167.698 133.288 164.087 Q133.288 160.476 130.95 158.37 Q128.612 156.263 124.607 156.263 Q122.732 156.263 120.857 156.68 Q119.006 157.096 117.061 157.976 L117.061 140.615 Z" fill="#000000" fill-rule="evenodd" fill-opacity="1" /><path clip-path="url(#clip900)" d="M157.177 143.694 Q153.566 143.694 151.737 147.259 Q149.931 150.8 149.931 157.93 Q149.931 165.036 151.737 168.601 Q153.566 172.143 157.177 172.143 Q160.811 172.143 162.616 168.601 Q164.445 165.036 164.445 157.93 Q164.445 150.8 162.616 147.259 Q160.811 143.694 157.177 143.694 M157.177 139.99 Q162.987 139.99 166.042 144.597 Q169.121 149.18 169.121 157.93 Q169.121 166.657 166.042 171.263 Q162.987 175.846 157.177 175.846 Q151.366 175.846 148.288 171.263 Q145.232 166.657 145.232 157.93 Q145.232 149.18 148.288 144.597 Q151.366 139.99 157.177 139.99 Z" fill="#000000" fill-rule="evenodd" fill-opacity="1" /><path clip-path="url(#clip900)" d="M20.8447 994.42 Q20.8447 1001.42 26.0645 1005.56 Q31.2844 1009.67 40.2919 1009.67 Q49.2675 1009.67 54.4874 1005.56 Q59.7073 1001.42 59.7073 994.42 Q59.7073 987.418 54.4874 983.344 Q49.2675 979.238 40.2919 979.238 Q31.2844 979.238 26.0645 983.344 Q20.8447 987.418 20.8447 994.42 M63.1448 985.413 L72.4069 976.946 L72.4069 984.712 L64.7999 991.746 Q64.8635 992.797 64.8954 993.37 Q64.9272 993.911 64.9272 994.42 Q64.9272 1004.45 58.2432 1010.46 Q51.5274 1016.45 40.2919 1016.45 Q29.0246 1016.45 22.3406 1010.46 Q15.6248 1004.45 15.6248 994.42 Q15.6248 984.426 22.3406 978.442 Q29.0246 972.458 40.2919 972.458 Q48.5673 972.458 54.4556 975.8 Q60.3439 979.11 63.1448 985.413 Z" fill="#000000" fill-rule="evenodd" fill-opacity="1" /><path clip-path="url(#clip900)" d="M49.9359 963.26 L28.3562 963.26 L28.3562 957.403 L49.7131 957.403 Q54.7739 957.403 57.3202 955.43 Q59.8346 953.457 59.8346 949.51 Q59.8346 944.767 56.8109 942.03 Q53.7872 939.261 48.5673 939.261 L28.3562 939.261 L28.3562 933.405 L64.0042 933.405 L64.0042 939.261 L58.5296 939.261 Q61.7762 941.394 63.3676 944.226 Q64.9272 947.027 64.9272 950.751 Q64.9272 956.894 61.1078 960.077 Q57.2883 963.26 49.9359 963.26 M27.4968 948.523 L27.4968 948.523 Z" fill="#000000" fill-rule="evenodd" fill-opacity="1" /><path clip-path="url(#clip900)" d="M46.0847 905.141 Q46.0847 912.239 47.7079 914.976 Q49.3312 917.713 53.2461 917.713 Q56.3653 917.713 58.2114 915.676 Q60.0256 913.607 60.0256 910.074 Q60.0256 905.205 56.5881 902.276 Q53.1188 899.316 47.3897 899.316 L46.0847 899.316 L46.0847 905.141 M43.6657 893.46 L64.0042 893.46 L64.0042 899.316 L58.5933 899.316 Q61.8398 901.322 63.3994 904.313 Q64.9272 907.305 64.9272 911.634 Q64.9272 917.108 61.8716 920.355 Q58.7843 923.57 53.6281 923.57 Q47.6125 923.57 44.5569 919.559 Q41.5014 915.517 41.5014 907.528 L41.5014 899.316 L40.9285 899.316 Q36.8862 899.316 34.6901 901.99 Q32.4621 904.632 32.4621 909.438 Q32.4621 912.493 33.1941 915.39 Q33.9262 918.286 35.3903 920.96 L29.9795 920.96 Q28.7381 917.745 28.1334 914.721 Q27.4968 911.698 27.4968 908.833 Q27.4968 901.099 31.5072 897.279 Q35.5176 893.46 43.6657 893.46 Z" fill="#000000" fill-rule="evenodd" fill-opacity="1" /><path clip-path="url(#clip900)" d="M42.4881 851.765 L64.0042 851.765 L64.0042 857.621 L42.679 857.621 Q37.6183 857.621 35.1038 859.594 Q32.5894 861.568 32.5894 865.514 Q32.5894 870.257 35.6131 872.994 Q38.6368 875.731 43.8567 875.731 L64.0042 875.731 L64.0042 881.62 L28.3562 881.62 L28.3562 875.731 L33.8944 875.731 Q30.6797 873.631 29.0883 870.798 Q27.4968 867.933 27.4968 864.209 Q27.4968 858.067 31.3163 854.916 Q35.1038 851.765 42.4881 851.765 Z" fill="#000000" fill-rule="evenodd" fill-opacity="1" /><path clip-path="url(#clip900)" d="M18.2347 834.291 L28.3562 834.291 L28.3562 822.228 L32.9077 822.228 L32.9077 834.291 L52.2594 834.291 Q56.6199 834.291 57.8613 833.113 Q59.1026 831.904 59.1026 828.243 L59.1026 822.228 L64.0042 822.228 L64.0042 828.243 Q64.0042 835.023 61.4897 837.601 Q58.9434 840.179 52.2594 840.179 L32.9077 840.179 L32.9077 844.476 L28.3562 844.476 L28.3562 840.179 L18.2347 840.179 L18.2347 834.291 Z" fill="#000000" fill-rule="evenodd" fill-opacity="1" /><path clip-path="url(#clip900)" d="M49.9359 815.13 L28.3562 815.13 L28.3562 809.273 L49.7131 809.273 Q54.7739 809.273 57.3202 807.3 Q59.8346 805.327 59.8346 801.38 Q59.8346 796.637 56.8109 793.9 Q53.7872 791.131 48.5673 791.131 L28.3562 791.131 L28.3562 785.275 L64.0042 785.275 L64.0042 791.131 L58.5296 791.131 Q61.7762 793.264 63.3676 796.096 Q64.9272 798.897 64.9272 802.621 Q64.9272 808.764 61.1078 811.947 Q57.2883 815.13 49.9359 815.13 M27.4968 800.393 L27.4968 800.393 Z" fill="#000000" fill-rule="evenodd" fill-opacity="1" /><path clip-path="url(#clip900)" d="M35.1993 745.457 Q31.2526 743.261 29.3747 740.206 Q27.4968 737.15 27.4968 733.012 Q27.4968 727.442 31.4117 724.419 Q35.2948 721.395 42.4881 721.395 L64.0042 721.395 L64.0042 727.283 L42.679 727.283 Q37.5546 727.283 35.072 729.097 Q32.5894 730.912 32.5894 734.636 Q32.5894 739.187 35.6131 741.829 Q38.6368 744.471 43.8567 744.471 L64.0042 744.471 L64.0042 750.359 L42.679 750.359 Q37.5228 750.359 35.072 752.173 Q32.5894 753.987 32.5894 757.775 Q32.5894 762.263 35.6449 764.904 Q38.6686 767.546 43.8567 767.546 L64.0042 767.546 L64.0042 773.434 L28.3562 773.434 L28.3562 767.546 L33.8944 767.546 Q30.616 765.541 29.0564 762.74 Q27.4968 759.939 27.4968 756.088 Q27.4968 752.205 29.4702 749.499 Q31.4436 746.762 35.1993 745.457 Z" fill="#000000" fill-rule="evenodd" fill-opacity="1" /><path clip-path="url(#clip900)" d="M16.4842 709.459 L16.4842 699.879 L48.8219 687.752 L16.4842 675.562 L16.4842 665.981 L64.0042 665.981 L64.0042 672.252 L22.277 672.252 L54.8694 684.506 L54.8694 690.967 L22.277 703.221 L64.0042 703.221 L64.0042 709.459 L16.4842 709.459 Z" fill="#000000" fill-rule="evenodd" fill-opacity="1" /><path clip-path="url(#clip900)" d="M44.7161 622.981 L47.5806 622.981 L47.5806 649.908 Q53.6281 649.526 56.8109 646.28 Q59.9619 643.001 59.9619 637.177 Q59.9619 633.803 59.1344 630.652 Q58.3069 627.469 56.6518 624.35 L62.1899 624.35 Q63.5267 627.501 64.227 630.811 Q64.9272 634.121 64.9272 637.527 Q64.9272 646.057 59.9619 651.054 Q54.9967 656.019 46.5303 656.019 Q37.7774 656.019 32.6531 651.308 Q27.4968 646.566 27.4968 638.545 Q27.4968 631.352 32.1438 627.182 Q36.7589 622.981 44.7161 622.981 M42.9973 628.837 Q38.1912 628.901 35.3266 631.543 Q32.4621 634.153 32.4621 638.482 Q32.4621 643.383 35.2312 646.343 Q38.0002 649.271 43.0292 649.717 L42.9973 628.837 Z" fill="#000000" fill-rule="evenodd" fill-opacity="1" /><path clip-path="url(#clip900)" d="M18.2347 607.576 L28.3562 607.576 L28.3562 595.513 L32.9077 595.513 L32.9077 607.576 L52.2594 607.576 Q56.6199 607.576 57.8613 606.398 Q59.1026 605.189 59.1026 601.529 L59.1026 595.513 L64.0042 595.513 L64.0042 601.529 Q64.0042 608.308 61.4897 610.886 Q58.9434 613.464 52.2594 613.464 L32.9077 613.464 L32.9077 617.761 L28.3562 617.761 L28.3562 613.464 L18.2347 613.464 L18.2347 607.576 Z" fill="#000000" fill-rule="evenodd" fill-opacity="1" /><path clip-path="url(#clip900)" d="M33.8307 567.154 Q33.2578 568.14 33.0032 569.318 Q32.7167 570.464 32.7167 571.864 Q32.7167 576.83 35.9632 579.503 Q39.1779 582.145 45.2253 582.145 L64.0042 582.145 L64.0042 588.033 L28.3562 588.033 L28.3562 582.145 L33.8944 582.145 Q30.6479 580.299 29.0883 577.339 Q27.4968 574.379 27.4968 570.146 Q27.4968 569.541 27.5923 568.809 Q27.656 568.077 27.8151 567.186 L33.8307 567.154 Z" fill="#000000" fill-rule="evenodd" fill-opacity="1" /><path clip-path="url(#clip900)" d="M28.3562 561.011 L28.3562 555.154 L64.0042 555.154 L64.0042 561.011 L28.3562 561.011 M14.479 561.011 L14.479 555.154 L21.895 555.154 L21.895 561.011 L14.479 561.011 Z" fill="#000000" fill-rule="evenodd" fill-opacity="1" /><path clip-path="url(#clip900)" d="M29.7248 517.247 L35.1993 517.247 Q33.8307 519.729 33.1623 522.244 Q32.4621 524.726 32.4621 527.273 Q32.4621 532.97 36.0905 536.121 Q39.6872 539.272 46.212 539.272 Q52.7369 539.272 56.3653 536.121 Q59.9619 532.97 59.9619 527.273 Q59.9619 524.726 59.2935 522.244 Q58.5933 519.729 57.2247 517.247 L62.6355 517.247 Q63.7814 519.697 64.3543 522.339 Q64.9272 524.949 64.9272 527.909 Q64.9272 535.962 59.8664 540.704 Q54.8057 545.447 46.212 545.447 Q37.491 545.447 32.4939 540.672 Q27.4968 535.866 27.4968 527.527 Q27.4968 524.822 28.0697 522.244 Q28.6108 519.666 29.7248 517.247 Z" fill="#000000" fill-rule="evenodd" fill-opacity="1" /><polyline clip-path="url(#clip902)" style="stroke:#009af9; stroke-linecap:butt; stroke-linejoin:round; stroke-width:4; stroke-opacity:1; fill:none" points="
  265.903,1444.87 279.501,1444.87 293.099,1444.87 306.696,1444.87 320.294,1444.87 333.892,1444.88 347.49,1444.88 361.088,1444.88 374.685,1444.89 388.283,1444.89 
  401.881,1444.89 415.479,1444.9 429.077,1444.9 442.674,1444.91 456.272,1444.91 469.87,1444.92 483.468,1444.92 497.066,1444.93 510.663,1444.93 524.261,1444.93 
  537.859,1444.94 551.457,1444.94 565.054,1444.93 578.652,1444.93 592.25,1444.92 605.848,1444.91 619.446,1444.9 633.043,1444.88 646.641,1444.85 660.239,1444.82 
  673.837,1444.78 687.435,1444.72 701.032,1444.66 714.63,1444.58 728.228,1444.49 741.826,1444.38 755.424,1444.25 769.021,1444.1 782.619,1443.93 796.217,1443.74 
  809.815,1443.53 823.412,1443.31 837.01,1443.08 850.608,1442.84 864.206,1442.62 877.804,1442.41 891.401,1442.24 904.999,1442.1 918.597,1442.02 932.195,1441.99 
  945.793,1441.99 959.39,1441.98 972.988,1441.97 986.586,1441.95 1000.18,1441.93 1013.78,1441.9 1027.38,1441.87 1040.98,1441.83 1054.57,1441.79 1068.17,1441.74 
  1081.77,1441.68 1095.37,1441.62 1108.97,1441.54 1122.56,1441.46 1136.16,1441.37 1149.76,1441.27 1163.36,1441.16 1176.96,1441.03 1190.55,1440.89 1204.15,1440.73 
  1217.75,1440.55 1231.35,1440.35 1244.94,1440.12 1258.54,1439.87 1272.14,1439.58 1285.74,1439.26 1299.34,1438.88 1312.93,1438.45 1326.53,1437.96 1340.13,1437.39 
  1353.73,1436.72 1367.32,1435.93 1380.92,1434.99 1394.52,1433.87 1408.12,1432.52 1421.72,1430.85 1435.31,1428.79 1448.91,1426.18 1462.51,1422.82 1476.11,1418.42 
  1489.7,1412.51 1503.3,1404.38 1516.9,1393.14 1530.5,1377.61 1544.1,1354.81 1557.69,1320.1 1571.29,1267.22 1584.89,1192.39 1598.49,1110.76 1612.08,1071.71 
  1625.68,1143.04 1639.28,1256.99 1652.88,1332.22 1666.48,1374.03 1680.07,1397.98 1693.67,1412.97 1707.27,1422.38 1720.87,1428.52 1734.46,1432.7 1748.06,1435.66 
  1761.66,1437.82 1775.26,1439.42 1788.86,1440.63 1802.45,1441.56 1816.05,1442.29 1829.65,1442.86 1843.25,1443.31 1856.84,1443.66 1870.44,1443.95 1884.04,1444.17 
  1897.64,1444.35 1911.24,1444.5 1924.83,1444.61 1938.43,1444.7 1952.03,1444.77 1965.63,1444.82 1979.22,1444.86 1992.82,1444.89 2006.42,1444.91 2020.02,1444.93 
  2033.62,1444.94 2047.21,1444.94 2060.81,1444.95 2074.41,1444.94 2088.01,1444.94 2101.6,1444.94 2115.2,1444.93 2128.8,1444.92 2142.4,1444.92 2156,1444.91 
  2169.59,1444.9 2183.19,1444.9 2196.79,1444.89 2210.39,1444.88 2223.98,1444.88 2237.58,1444.87 2251.18,1444.87 2264.78,1444.87 2278.38,1444.87 2291.97,1444.87 
  
  "/>
<polyline clip-path="url(#clip902)" style="stroke:#e26f46; stroke-linecap:butt; stroke-linejoin:round; stroke-width:4; stroke-opacity:1; fill:none" points="
  265.903,1445.71 279.501,1445.71 293.099,1445.71 306.696,1445.71 320.294,1445.71 333.892,1445.71 347.49,1445.71 361.088,1445.71 374.685,1445.71 388.283,1445.71 
  401.881,1445.71 415.479,1445.71 429.077,1445.71 442.674,1445.71 456.272,1445.71 469.87,1445.71 483.468,1445.71 497.066,1445.71 510.663,1445.71 524.261,1445.71 
  537.859,1445.71 551.457,1445.71 565.054,1445.71 578.652,1445.71 592.25,1445.71 605.848,1445.71 619.446,1445.71 633.043,1445.71 646.641,1445.71 660.239,1445.71 
  673.837,1445.71 687.435,1445.71 701.032,1445.71 714.63,1445.71 728.228,1445.71 741.826,1445.71 755.424,1445.7 769.021,1445.7 782.619,1445.69 796.217,1445.68 
  809.815,1445.67 823.412,1445.66 837.01,1445.65 850.608,1445.64 864.206,1445.62 877.804,1445.61 891.401,1445.6 904.999,1445.59 918.597,1445.58 932.195,1445.58 
  945.793,1445.58 959.39,1445.58 972.988,1445.58 986.586,1445.58 1000.18,1445.58 1013.78,1445.57 1027.38,1445.57 1040.98,1445.57 1054.57,1445.57 1068.17,1445.56 
  1081.77,1445.56 1095.37,1445.55 1108.97,1445.55 1122.56,1445.54 1136.16,1445.53 1149.76,1445.53 1163.36,1445.52 1176.96,1445.51 1190.55,1445.49 1204.15,1445.48 
  1217.75,1445.46 1231.35,1445.45 1244.94,1445.42 1258.54,1445.4 1272.14,1445.37 1285.74,1445.34 1299.34,1445.29 1312.93,1445.24 1326.53,1445.18 1340.13,1445.11 
  1353.73,1445.02 1367.32,1444.9 1380.92,1444.74 1394.52,1444.54 1408.12,1444.28 1421.72,1443.91 1435.31,1443.38 1448.91,1442.63 1462.51,1441.48 1476.11,1439.68 
  1489.7,1436.71 1503.3,1431.58 1516.9,1422.4 1530.5,1405.55 1544.1,1371.89 1557.69,1300.14 1571.29,1143.64 1584.89,826.817 1598.49,357.284 1612.08,87.9763 
  1625.68,557.872 1639.28,1105.42 1652.88,1326.14 1666.48,1399.38 1680.07,1425.51 1693.67,1436.23 1707.27,1440.85 1720.87,1443.03 1734.46,1444.14 1748.06,1444.76 
  1761.66,1445.11 1775.26,1445.33 1788.86,1445.47 1802.45,1445.55 1816.05,1445.61 1829.65,1445.65 1843.25,1445.67 1856.84,1445.69 1870.44,1445.7 1884.04,1445.71 
  1897.64,1445.71 1911.24,1445.71 1924.83,1445.71 1938.43,1445.72 1952.03,1445.72 1965.63,1445.72 1979.22,1445.72 1992.82,1445.71 2006.42,1445.71 2020.02,1445.71 
  2033.62,1445.71 2047.21,1445.71 2060.81,1445.71 2074.41,1445.71 2088.01,1445.71 2101.6,1445.71 2115.2,1445.71 2128.8,1445.71 2142.4,1445.71 2156,1445.71 
  2169.59,1445.71 2183.19,1445.71 2196.79,1445.71 2210.39,1445.71 2223.98,1445.71 2237.58,1445.71 2251.18,1445.71 2264.78,1445.71 2278.38,1445.71 2291.97,1445.71 
  
  "/>
<polyline clip-path="url(#clip902)" style="stroke:#3da44d; stroke-linecap:butt; stroke-linejoin:round; stroke-width:4; stroke-opacity:1; fill:none" points="
  265.903,1445.29 279.501,1445.29 293.099,1445.29 306.696,1445.29 320.294,1445.29 333.892,1445.3 347.49,1445.3 361.088,1445.3 374.685,1445.3 388.283,1445.31 
  401.881,1445.31 415.479,1445.31 429.077,1445.32 442.674,1445.32 456.272,1445.33 469.87,1445.34 483.468,1445.34 497.066,1445.35 510.663,1445.36 524.261,1445.37 
  537.859,1445.39 551.457,1445.4 565.054,1445.42 578.652,1445.43 592.25,1445.45 605.848,1445.47 619.446,1445.49 633.043,1445.51 646.641,1445.53 660.239,1445.53 
  673.837,1445.53 687.435,1445.51 701.032,1445.46 714.63,1445.41 728.228,1445.34 741.826,1445.25 755.424,1445.16 769.021,1445.06 782.619,1444.94 796.217,1444.82 
  809.815,1444.69 823.412,1444.56 837.01,1444.43 850.608,1444.3 864.206,1444.18 877.804,1444.07 891.401,1443.98 904.999,1443.91 918.597,1443.87 932.195,1443.85 
  945.793,1443.85 959.39,1443.85 972.988,1443.84 986.586,1443.83 1000.18,1443.82 1013.78,1443.81 1027.38,1443.79 1040.98,1443.77 1054.57,1443.75 1068.17,1443.73 
  1081.77,1443.7 1095.37,1443.67 1108.97,1443.63 1122.56,1443.59 1136.16,1443.55 1149.76,1443.5 1163.36,1443.45 1176.96,1443.39 1190.55,1443.32 1204.15,1443.25 
  1217.75,1443.17 1231.35,1443.08 1244.94,1442.97 1258.54,1442.86 1272.14,1442.73 1285.74,1442.59 1299.34,1442.42 1312.93,1442.23 1326.53,1442.01 1340.13,1441.76 
  1353.73,1441.47 1367.32,1441.12 1380.92,1440.71 1394.52,1440.22 1408.12,1439.62 1421.72,1438.89 1435.31,1437.97 1448.91,1436.79 1462.51,1435.27 1476.11,1433.25 
  1489.7,1430.49 1503.3,1426.63 1516.9,1421.21 1530.5,1413.55 1544.1,1402.11 1557.69,1384.48 1571.29,1357.51 1584.89,1319.46 1598.49,1278.28 1612.08,1258.71 
  1625.68,1294.5 1639.28,1352.1 1652.88,1390.22 1666.48,1411.17 1680.07,1422.9 1693.67,1430.08 1707.27,1434.52 1720.87,1437.39 1734.46,1439.35 1748.06,1440.75 
  1761.66,1441.78 1775.26,1442.57 1788.86,1443.18 1802.45,1443.67 1816.05,1444.06 1829.65,1444.38 1843.25,1444.65 1856.84,1444.87 1870.44,1445.06 1884.04,1445.22 
  1897.64,1445.35 1911.24,1445.46 1924.83,1445.56 1938.43,1445.64 1952.03,1445.72 1965.63,1445.65 1979.22,1445.6 1992.82,1445.56 2006.42,1445.52 2020.02,1445.48 
  2033.62,1445.45 2047.21,1445.43 2060.81,1445.41 2074.41,1445.39 2088.01,1445.37 2101.6,1445.36 2115.2,1445.35 2128.8,1445.34 2142.4,1445.33 2156,1445.32 
  2169.59,1445.31 2183.19,1445.31 2196.79,1445.3 2210.39,1445.3 2223.98,1445.3 2237.58,1445.3 2251.18,1445.29 2264.78,1445.29 2278.38,1445.29 2291.97,1445.29 
  
  "/>
<path clip-path="url(#clip900)" d="
M1882.94 338.83 L2281.17 338.83 L2281.17 95.2176 L1882.94 95.2176  Z
  " fill="#ffffff" fill-rule="evenodd" fill-opacity="1"/>
<polyline clip-path="url(#clip900)" style="stroke:#000000; stroke-linecap:butt; stroke-linejoin:round; stroke-width:4; stroke-opacity:1; fill:none" points="
  1882.94,338.83 2281.17,338.83 2281.17,95.2176 1882.94,95.2176 1882.94,338.83 
  "/>
<polyline clip-path="url(#clip900)" style="stroke:#009af9; stroke-linecap:butt; stroke-linejoin:round; stroke-width:4; stroke-opacity:1; fill:none" points="
  1906.8,156.121 2049.98,156.121 
  "/>
<path clip-path="url(#clip900)" d="M2073.84 153.218 L2074.75 142.444 L2104.06 142.444 L2104.97 153.218 L2103.78 153.218 Q2103.59 151.064 2103.4 149.822 Q2103.24 148.581 2102.81 147.41 Q2102.42 146.215 2101.9 145.653 Q2101.41 145.067 2100.45 144.622 Q2099.49 144.154 2098.25 144.037 Q2097.01 143.92 2095.13 143.92 Q2092.93 143.92 2092.39 144.013 Q2091.81 144.154 2091.67 144.575 Q2091.53 144.974 2091.53 145.84 L2091.53 171.113 Q2091.53 172.073 2091.71 172.472 Q2091.92 172.846 2093.02 173.151 Q2094.13 173.432 2096.56 173.432 L2098.48 173.432 L2098.48 174.908 Q2096.51 174.767 2089.37 174.767 Q2082.27 174.767 2080.31 174.908 L2080.31 173.432 L2082.23 173.432 Q2084.66 173.432 2085.76 173.151 Q2086.89 172.846 2087.07 172.472 Q2087.26 172.073 2087.26 171.113 L2087.26 145.84 Q2087.26 145.161 2087.22 144.88 Q2087.17 144.599 2086.96 144.365 Q2086.75 144.107 2086.26 144.013 Q2085.79 143.92 2083.68 143.92 Q2081.8 143.92 2080.54 144.037 Q2079.3 144.154 2078.34 144.622 Q2077.38 145.067 2076.86 145.653 Q2076.37 146.215 2075.95 147.41 Q2075.55 148.581 2075.39 149.822 Q2075.22 151.064 2075.04 153.218 L2073.84 153.218 Z" fill="#000000" fill-rule="evenodd" fill-opacity="1" /><path clip-path="url(#clip900)" d="M2112.02 174.908 L2112.02 173.432 Q2114.57 173.432 2115.15 173.127 Q2115.76 172.8 2115.76 171.254 L2115.76 158.395 Q2115.76 156.615 2115.13 156.17 Q2114.52 155.725 2112.02 155.725 L2112.02 154.226 L2118.69 153.71 L2118.69 158.98 Q2119.37 156.919 2120.8 155.326 Q2122.25 153.71 2124.59 153.71 Q2126.14 153.71 2127.12 154.577 Q2128.13 155.444 2128.13 156.638 Q2128.13 157.692 2127.47 158.231 Q2126.84 158.746 2126.07 158.746 Q2125.2 158.746 2124.59 158.207 Q2124.01 157.645 2124.01 156.685 Q2124.01 156.099 2124.27 155.654 Q2124.55 155.186 2124.76 155.022 Q2124.97 154.858 2125.11 154.811 Q2125.01 154.764 2124.59 154.764 Q2121.95 154.764 2120.42 157.411 Q2118.92 160.034 2118.92 163.782 L2118.92 171.16 Q2118.92 172.542 2119.49 172.987 Q2120.07 173.432 2122.58 173.432 L2123.59 173.432 L2123.59 174.908 Q2121.67 174.767 2117.5 174.767 Q2116.91 174.767 2116 174.79 Q2115.08 174.814 2113.89 174.861 Q2112.69 174.908 2112.02 174.908 Z" fill="#000000" fill-rule="evenodd" fill-opacity="1" /><path clip-path="url(#clip900)" d="M2130.57 162.915 Q2130.57 154.811 2133.59 148.276 Q2134.88 145.536 2136.68 143.24 Q2138.49 140.945 2139.68 139.938 Q2140.88 138.931 2141.2 138.931 Q2141.67 138.931 2141.7 139.399 Q2141.7 139.633 2141.06 140.219 Q2133.33 148.089 2133.36 162.915 Q2133.36 177.789 2140.88 185.354 Q2141.7 186.174 2141.7 186.431 Q2141.7 186.9 2141.2 186.9 Q2140.88 186.9 2139.73 185.94 Q2138.58 184.979 2136.8 182.777 Q2135.02 180.576 2133.73 177.882 Q2130.57 171.347 2130.57 162.915 Z" fill="#000000" fill-rule="evenodd" fill-opacity="1" /><path clip-path="url(#clip900)" d="M2166.39 155.959 Q2166.39 155.982 2166.25 156.825 L2160.91 178.116 Q2160.63 179.241 2159.84 180.365 Q2159.06 181.513 2157.82 182.496 Q2156.6 183.504 2154.73 184.113 Q2152.88 184.745 2150.75 184.745 Q2147.35 184.745 2145.85 184.019 Q2144.38 183.316 2144.38 181.817 Q2144.38 180.506 2145.2 179.756 Q2146.02 179.03 2146.95 179.03 Q2147.84 179.03 2148.31 179.545 Q2148.78 180.06 2148.78 180.716 Q2148.78 181.442 2148.29 182.169 Q2147.8 182.918 2146.81 183.199 Q2148.38 183.691 2150.65 183.691 Q2155.46 183.691 2157.52 178.608 Q2157.56 178.538 2157.56 178.515 L2159.16 172.167 L2159.09 172.12 Q2158.69 172.589 2158.06 173.127 Q2157.45 173.643 2156.14 174.275 Q2154.82 174.908 2153.54 174.908 Q2150.84 174.908 2148.99 172.846 Q2147.16 170.762 2147.16 167.319 Q2147.16 164.812 2148.17 162.306 Q2149.2 159.777 2150.8 157.926 Q2152.41 156.052 2154.47 154.881 Q2156.56 153.71 2158.57 153.71 Q2159.98 153.71 2161.17 154.553 Q2162.37 155.373 2163.02 156.732 Q2163.14 155.607 2163.77 155.139 Q2164.43 154.671 2164.99 154.671 Q2165.62 154.671 2166 155.022 Q2166.39 155.35 2166.39 155.959 M2162.46 158.887 Q2162.46 158.746 2162.37 158.371 Q2162.27 157.973 2161.99 157.341 Q2161.73 156.708 2161.34 156.146 Q2160.94 155.584 2160.21 155.186 Q2159.51 154.764 2158.62 154.764 Q2157.17 154.764 2155.71 155.982 Q2154.26 157.177 2153.25 159.027 Q2152.32 160.807 2151.43 164.25 Q2150.56 167.693 2150.56 169.45 Q2150.56 171.183 2151.31 172.518 Q2152.06 173.854 2153.68 173.854 Q2155.55 173.854 2157.56 172.12 Q2159.65 170.317 2160 168.771 L2162.32 159.613 Q2162.46 159.051 2162.46 158.887 Z" fill="#000000" fill-rule="evenodd" fill-opacity="1" /><path clip-path="url(#clip900)" d="M2171.05 186.431 Q2171.05 186.197 2171.66 185.612 Q2179.38 177.742 2179.38 162.915 Q2179.38 148.042 2171.96 140.523 Q2171.05 139.657 2171.05 139.399 Q2171.05 138.931 2171.51 138.931 Q2171.84 138.931 2172.99 139.891 Q2174.16 140.851 2175.92 143.053 Q2177.7 145.255 2179.01 147.948 Q2182.17 154.483 2182.17 162.915 Q2182.17 171.019 2179.15 177.554 Q2177.86 180.295 2176.06 182.59 Q2174.25 184.886 2173.06 185.893 Q2171.87 186.9 2171.51 186.9 Q2171.05 186.9 2171.05 186.431 Z" fill="#000000" fill-rule="evenodd" fill-opacity="1" /><polyline clip-path="url(#clip900)" style="stroke:#e26f46; stroke-linecap:butt; stroke-linejoin:round; stroke-width:4; stroke-opacity:1; fill:none" points="
  1906.8,217.024 2049.98,217.024 
  "/>
<path clip-path="url(#clip900)" d="M2073.84 225.505 Q2073.84 220.937 2077.03 217.775 Q2080.21 214.613 2084.52 214.613 Q2088.18 214.613 2090.56 217.588 L2090.56 207.212 Q2090.56 205.432 2089.93 204.987 Q2089.32 204.542 2086.84 204.542 L2086.84 203.043 L2093.75 202.527 L2093.75 231.641 Q2093.75 233.421 2094.36 233.89 Q2094.99 234.335 2097.47 234.335 L2097.47 235.811 L2090.42 236.349 L2090.42 233.164 Q2087.94 236.326 2084.01 236.349 Q2079.88 236.349 2076.86 233.187 Q2073.84 230.025 2073.84 225.505 M2077.82 225.552 Q2077.82 230.002 2079.21 232.203 Q2081.13 235.272 2084.24 235.272 Q2087.8 235.272 2089.91 231.922 Q2090.45 231.103 2090.42 230.142 L2090.42 220.305 Q2090.42 219.345 2089.91 218.548 Q2087.94 215.667 2084.73 215.667 Q2081.38 215.667 2079.3 218.736 Q2077.82 221.031 2077.82 225.552 Z" fill="#000000" fill-rule="evenodd" fill-opacity="1" /><path clip-path="url(#clip900)" d="M2100.38 225.247 Q2100.38 220.726 2103.29 217.518 Q2106.19 214.309 2110.36 214.309 Q2114.57 214.309 2116.75 217.049 Q2118.95 219.79 2118.95 223.725 Q2118.95 224.451 2118.77 224.591 Q2118.58 224.732 2117.76 224.732 L2104.36 224.732 Q2104.36 229.627 2105.81 231.922 Q2107.83 235.131 2111.23 235.131 Q2111.69 235.131 2112.26 235.038 Q2112.82 234.944 2113.97 234.546 Q2115.11 234.124 2116.12 233.023 Q2117.13 231.922 2117.71 230.189 Q2117.85 229.51 2118.32 229.533 Q2118.95 229.533 2118.95 230.095 Q2118.95 230.517 2118.49 231.477 Q2118.04 232.414 2117.17 233.539 Q2116.31 234.663 2114.62 235.506 Q2112.96 236.349 2110.94 236.349 Q2106.73 236.349 2103.54 233.164 Q2100.38 229.955 2100.38 225.247 M2104.41 223.725 L2115.79 223.725 Q2115.79 222.717 2115.61 221.593 Q2115.44 220.469 2114.93 218.923 Q2114.43 217.354 2113.26 216.37 Q2112.09 215.386 2110.36 215.386 Q2109.59 215.386 2108.74 215.714 Q2107.92 216.042 2106.92 216.838 Q2105.91 217.635 2105.21 219.438 Q2104.5 221.242 2104.41 223.725 Z" fill="#000000" fill-rule="evenodd" fill-opacity="1" /><path clip-path="url(#clip900)" d="M2119.38 216.628 L2119.38 215.574 Q2121.58 215.48 2123.03 213.934 Q2124.51 212.365 2125 210.444 Q2125.52 208.523 2125.56 206.298 L2126.76 206.298 L2126.76 215.129 L2133.62 215.129 L2133.62 216.628 L2126.76 216.628 L2126.76 229.955 Q2126.76 235.131 2129.99 235.131 Q2131.37 235.131 2132.28 233.726 Q2133.2 232.297 2133.2 229.768 L2133.2 227.121 L2134.39 227.121 L2134.39 229.861 Q2134.39 232.461 2133.2 234.405 Q2132 236.349 2129.64 236.349 Q2128.77 236.349 2127.9 236.115 Q2127.06 235.904 2125.94 235.342 Q2124.84 234.757 2124.13 233.351 Q2123.45 231.922 2123.45 229.861 L2123.45 216.628 L2119.38 216.628 Z" fill="#000000" fill-rule="evenodd" fill-opacity="1" /><path clip-path="url(#clip900)" d="M2137.79 223.818 Q2137.79 215.714 2140.82 209.179 Q2142.1 206.439 2143.91 204.143 Q2145.71 201.848 2146.91 200.841 Q2148.1 199.834 2148.43 199.834 Q2148.9 199.834 2148.92 200.302 Q2148.92 200.536 2148.29 201.122 Q2140.56 208.992 2140.58 223.818 Q2140.58 238.692 2148.1 246.257 Q2148.92 247.077 2148.92 247.334 Q2148.92 247.803 2148.43 247.803 Q2148.1 247.803 2146.95 246.843 Q2145.8 245.882 2144.02 243.68 Q2142.24 241.479 2140.96 238.785 Q2137.79 232.25 2137.79 223.818 Z" fill="#000000" fill-rule="evenodd" fill-opacity="1" /><path clip-path="url(#clip900)" d="M2173.62 216.862 Q2173.62 216.885 2173.48 217.728 L2168.14 239.019 Q2167.86 240.144 2167.06 241.268 Q2166.29 242.416 2165.05 243.399 Q2163.83 244.407 2161.95 245.016 Q2160.1 245.648 2157.97 245.648 Q2154.58 245.648 2153.08 244.922 Q2151.6 244.219 2151.6 242.72 Q2151.6 241.409 2152.42 240.659 Q2153.24 239.933 2154.18 239.933 Q2155.07 239.933 2155.54 240.448 Q2156.01 240.963 2156.01 241.619 Q2156.01 242.345 2155.51 243.072 Q2155.02 243.821 2154.04 244.102 Q2155.61 244.594 2157.88 244.594 Q2162.68 244.594 2164.74 239.511 Q2164.79 239.441 2164.79 239.418 L2166.38 233.07 L2166.31 233.023 Q2165.91 233.492 2165.28 234.03 Q2164.67 234.546 2163.36 235.178 Q2162.05 235.811 2160.76 235.811 Q2158.07 235.811 2156.22 233.749 Q2154.39 231.665 2154.39 228.222 Q2154.39 225.715 2155.4 223.209 Q2156.43 220.68 2158.02 218.829 Q2159.64 216.955 2161.7 215.784 Q2163.78 214.613 2165.8 214.613 Q2167.2 214.613 2168.4 215.456 Q2169.59 216.276 2170.25 217.635 Q2170.36 216.51 2171 216.042 Q2171.65 215.574 2172.21 215.574 Q2172.85 215.574 2173.22 215.925 Q2173.62 216.253 2173.62 216.862 M2169.68 219.79 Q2169.68 219.649 2169.59 219.274 Q2169.5 218.876 2169.22 218.244 Q2168.96 217.611 2168.56 217.049 Q2168.16 216.487 2167.44 216.089 Q2166.73 215.667 2165.84 215.667 Q2164.39 215.667 2162.94 216.885 Q2161.49 218.08 2160.48 219.93 Q2159.54 221.71 2158.65 225.153 Q2157.79 228.596 2157.79 230.353 Q2157.79 232.086 2158.53 233.421 Q2159.28 234.757 2160.9 234.757 Q2162.77 234.757 2164.79 233.023 Q2166.87 231.22 2167.22 229.674 L2169.54 220.516 Q2169.68 219.954 2169.68 219.79 Z" fill="#000000" fill-rule="evenodd" fill-opacity="1" /><path clip-path="url(#clip900)" d="M2178.27 247.334 Q2178.27 247.1 2178.88 246.515 Q2186.61 238.645 2186.61 223.818 Q2186.61 208.945 2179.18 201.426 Q2178.27 200.56 2178.27 200.302 Q2178.27 199.834 2178.74 199.834 Q2179.07 199.834 2180.21 200.794 Q2181.39 201.754 2183.14 203.956 Q2184.92 206.158 2186.23 208.851 Q2189.4 215.386 2189.4 223.818 Q2189.4 231.922 2186.37 238.457 Q2185.09 241.198 2183.28 243.493 Q2181.48 245.789 2180.28 246.796 Q2179.09 247.803 2178.74 247.803 Q2178.27 247.803 2178.27 247.334 Z" fill="#000000" fill-rule="evenodd" fill-opacity="1" /><polyline clip-path="url(#clip900)" style="stroke:#3da44d; stroke-linecap:butt; stroke-linejoin:round; stroke-width:4; stroke-opacity:1; fill:none" points="
  1906.8,277.927 2049.98,277.927 
  "/>
<path clip-path="url(#clip900)" d="M2073.84 297.853 L2082.21 284.95 L2085.61 302.072 L2086.25 305.191 Q2086.39 304.376 2086.82 302.993 Q2087.28 301.575 2087.35 301.221 L2098.58 258.081 Q2098.65 257.797 2098.76 257.336 Q2098.9 256.84 2098.97 256.663 Q2099.04 256.486 2099.15 256.131 Q2099.26 255.777 2099.33 255.67 Q2099.4 255.529 2099.51 255.28 Q2099.61 255.032 2099.75 254.961 Q2099.9 254.891 2100.07 254.749 Q2100.25 254.607 2100.46 254.571 Q2100.71 254.536 2100.96 254.501 Q2101.21 254.465 2101.56 254.465 L2107.91 254.465 Q2110.14 254.465 2110.14 255.918 Q2110.14 257.372 2107.98 257.372 L2101.77 257.372 L2087.13 313.344 Q2086.92 314.159 2086.74 314.478 Q2086.6 314.797 2086.11 315.081 Q2085.61 315.364 2084.72 315.364 L2084.01 315.364 L2079.37 292.288 L2075.01 299.023 L2073.84 297.853 Z" fill="#000000" fill-rule="evenodd" fill-opacity="1" /><path clip-path="url(#clip900)" d="
M2107.76 257.402 L2233.44 257.402 L2233.44 254.387 L2107.76 254.387  Z
  " fill="#000000" fill-rule="evenodd" fill-opacity="1"/>
<path clip-path="url(#clip900)" d="M2112.88 292.721 Q2112.88 288.154 2116.06 284.992 Q2119.25 281.83 2123.56 281.83 Q2127.21 281.83 2129.6 284.804 L2129.6 274.428 Q2129.6 272.648 2128.97 272.203 Q2128.36 271.758 2125.88 271.758 L2125.88 270.259 L2132.79 269.744 L2132.79 298.858 Q2132.79 300.638 2133.4 301.106 Q2134.03 301.551 2136.51 301.551 L2136.51 303.027 L2129.46 303.566 L2129.46 300.38 Q2126.98 303.542 2123.04 303.566 Q2118.92 303.566 2115.9 300.404 Q2112.88 297.242 2112.88 292.721 M2116.86 292.768 Q2116.86 297.218 2118.24 299.42 Q2120.16 302.488 2123.28 302.488 Q2126.84 302.488 2128.95 299.139 Q2129.48 298.319 2129.46 297.359 L2129.46 287.521 Q2129.46 286.561 2128.95 285.765 Q2126.98 282.884 2123.77 282.884 Q2120.42 282.884 2118.34 285.952 Q2116.86 288.247 2116.86 292.768 Z" fill="#000000" fill-rule="evenodd" fill-opacity="1" /><path clip-path="url(#clip900)" d="M2139.42 292.464 Q2139.42 287.943 2142.32 284.734 Q2145.23 281.525 2149.4 281.525 Q2153.61 281.525 2155.79 284.266 Q2157.99 287.006 2157.99 290.941 Q2157.99 291.667 2157.8 291.808 Q2157.62 291.948 2156.8 291.948 L2143.4 291.948 Q2143.4 296.844 2144.85 299.139 Q2146.87 302.348 2150.26 302.348 Q2150.73 302.348 2151.29 302.254 Q2151.86 302.16 2153 301.762 Q2154.15 301.341 2155.16 300.24 Q2156.16 299.139 2156.75 297.406 Q2156.89 296.726 2157.36 296.75 Q2157.99 296.75 2157.99 297.312 Q2157.99 297.734 2157.52 298.694 Q2157.08 299.631 2156.21 300.755 Q2155.34 301.879 2153.66 302.723 Q2152 303.566 2149.98 303.566 Q2145.77 303.566 2142.58 300.38 Q2139.42 297.171 2139.42 292.464 M2143.45 290.941 L2154.83 290.941 Q2154.83 289.934 2154.64 288.81 Q2154.48 287.685 2153.96 286.139 Q2153.47 284.57 2152.3 283.586 Q2151.13 282.603 2149.4 282.603 Q2148.62 282.603 2147.78 282.931 Q2146.96 283.259 2145.95 284.055 Q2144.95 284.851 2144.24 286.655 Q2143.54 288.458 2143.45 290.941 Z" fill="#000000" fill-rule="evenodd" fill-opacity="1" /><path clip-path="url(#clip900)" d="M2158.42 283.844 L2158.42 282.79 Q2160.62 282.696 2162.07 281.15 Q2163.54 279.581 2164.04 277.661 Q2164.55 275.74 2164.6 273.515 L2165.79 273.515 L2165.79 282.345 L2172.66 282.345 L2172.66 283.844 L2165.79 283.844 L2165.79 297.171 Q2165.79 302.348 2169.03 302.348 Q2170.41 302.348 2171.32 300.942 Q2172.23 299.514 2172.23 296.984 L2172.23 294.337 L2173.43 294.337 L2173.43 297.078 Q2173.43 299.678 2172.23 301.622 Q2171.04 303.566 2168.67 303.566 Q2167.81 303.566 2166.94 303.332 Q2166.1 303.121 2164.97 302.559 Q2163.87 301.973 2163.17 300.568 Q2162.49 299.139 2162.49 297.078 L2162.49 283.844 L2158.42 283.844 Z" fill="#000000" fill-rule="evenodd" fill-opacity="1" /><path clip-path="url(#clip900)" d="M2176.83 291.035 Q2176.83 282.931 2179.85 276.396 Q2181.14 273.655 2182.94 271.36 Q2184.75 269.065 2185.94 268.057 Q2187.14 267.05 2187.46 267.05 Q2187.93 267.05 2187.96 267.519 Q2187.96 267.753 2187.32 268.338 Q2179.59 276.208 2179.62 291.035 Q2179.62 305.908 2187.14 313.473 Q2187.96 314.293 2187.96 314.551 Q2187.96 315.019 2187.46 315.019 Q2187.14 315.019 2185.99 314.059 Q2184.84 313.099 2183.06 310.897 Q2181.28 308.695 2179.99 306.002 Q2176.83 299.467 2176.83 291.035 Z" fill="#000000" fill-rule="evenodd" fill-opacity="1" /><path clip-path="url(#clip900)" d="M2212.66 284.078 Q2212.66 284.102 2212.52 284.945 L2207.17 306.236 Q2206.89 307.36 2206.1 308.484 Q2205.32 309.632 2204.08 310.616 Q2202.87 311.623 2200.99 312.232 Q2199.14 312.864 2197.01 312.864 Q2193.61 312.864 2192.11 312.138 Q2190.64 311.436 2190.64 309.937 Q2190.64 308.625 2191.46 307.875 Q2192.28 307.149 2193.21 307.149 Q2194.11 307.149 2194.57 307.665 Q2195.04 308.18 2195.04 308.836 Q2195.04 309.562 2194.55 310.288 Q2194.06 311.038 2193.07 311.319 Q2194.64 311.81 2196.92 311.81 Q2201.72 311.81 2203.78 306.728 Q2203.83 306.658 2203.83 306.634 L2205.42 300.287 L2205.35 300.24 Q2204.95 300.708 2204.32 301.247 Q2203.71 301.762 2202.4 302.395 Q2201.08 303.027 2199.8 303.027 Q2197.1 303.027 2195.25 300.966 Q2193.43 298.881 2193.43 295.438 Q2193.43 292.932 2194.43 290.426 Q2195.46 287.896 2197.06 286.046 Q2198.67 284.172 2200.73 283.001 Q2202.82 281.83 2204.83 281.83 Q2206.24 281.83 2207.43 282.673 Q2208.63 283.493 2209.28 284.851 Q2209.4 283.727 2210.03 283.259 Q2210.69 282.79 2211.25 282.79 Q2211.88 282.79 2212.26 283.141 Q2212.66 283.469 2212.66 284.078 M2208.72 287.006 Q2208.72 286.866 2208.63 286.491 Q2208.53 286.093 2208.25 285.46 Q2207.99 284.828 2207.6 284.266 Q2207.2 283.704 2206.47 283.305 Q2205.77 282.884 2204.88 282.884 Q2203.43 282.884 2201.97 284.102 Q2200.52 285.296 2199.52 287.147 Q2198.58 288.927 2197.69 292.37 Q2196.82 295.813 2196.82 297.57 Q2196.82 299.303 2197.57 300.638 Q2198.32 301.973 2199.94 301.973 Q2201.81 301.973 2203.83 300.24 Q2205.91 298.436 2206.26 296.89 L2208.58 287.732 Q2208.72 287.17 2208.72 287.006 Z" fill="#000000" fill-rule="evenodd" fill-opacity="1" /><path clip-path="url(#clip900)" d="M2217.31 314.551 Q2217.31 314.317 2217.92 313.731 Q2225.65 305.861 2225.65 291.035 Q2225.65 276.162 2218.22 268.643 Q2217.31 267.776 2217.31 267.519 Q2217.31 267.05 2217.78 267.05 Q2218.1 267.05 2219.25 268.01 Q2220.42 268.971 2222.18 271.173 Q2223.96 273.374 2225.27 276.068 Q2228.43 282.603 2228.43 291.035 Q2228.43 299.139 2225.41 305.674 Q2224.12 308.414 2222.32 310.71 Q2220.52 313.005 2219.32 314.012 Q2218.13 315.019 2217.78 315.019 Q2217.31 315.019 2217.31 314.551 Z" fill="#000000" fill-rule="evenodd" fill-opacity="1" /></svg>
