<?xml version="1.0" encoding="utf-8"?>
<svg xmlns="http://www.w3.org/2000/svg" xmlns:xlink="http://www.w3.org/1999/xlink" width="600" height="400" viewBox="0 0 2400 1600">
<defs>
  <clipPath id="clip930">
    <rect x="0" y="0" width="2400" height="1600"/>
  </clipPath>
</defs>
<path clip-path="url(#clip930)" d="
M0 1600 L2400 1600 L2400 0 L0 0  Z
  " fill="#ffffff" fill-rule="evenodd" fill-opacity="1"/>
<defs>
  <clipPath id="clip931">
    <rect x="480" y="0" width="1681" height="1600"/>
  </clipPath>
</defs>
<defs>
  <clipPath id="clip932">
    <rect x="205" y="47" width="2149" height="1440"/>
  </clipPath>
</defs>
<path clip-path="url(#clip930)" d="
M200.63 1486.45 L2352.76 1486.45 L2352.76 47.2441 L200.63 47.2441  Z
  " fill="#ffffff" fill-rule="evenodd" fill-opacity="1"/>
<defs>
  <clipPath id="clip933">
    <rect x="200" y="47" width="2153" height="1440"/>
  </clipPath>
</defs>
<polyline clip-path="url(#clip933)" style="stroke:#000000; stroke-linecap:butt; stroke-linejoin:round; stroke-width:2; stroke-opacity:0.1; fill:none" points="
  261.539,1486.45 261.539,47.2441 
  "/>
<polyline clip-path="url(#clip933)" style="stroke:#000000; stroke-linecap:butt; stroke-linejoin:round; stroke-width:2; stroke-opacity:0.1; fill:none" points="
  929.224,1486.45 929.224,47.2441 
  "/>
<polyline clip-path="url(#clip933)" style="stroke:#000000; stroke-linecap:butt; stroke-linejoin:round; stroke-width:2; stroke-opacity:0.1; fill:none" points="
  1610.54,1486.45 1610.54,47.2441 
  "/>
<polyline clip-path="url(#clip933)" style="stroke:#000000; stroke-linecap:butt; stroke-linejoin:round; stroke-width:2; stroke-opacity:0.1; fill:none" points="
  2291.85,1486.45 2291.85,47.2441 
  "/>
<polyline clip-path="url(#clip930)" style="stroke:#000000; stroke-linecap:butt; stroke-linejoin:round; stroke-width:4; stroke-opacity:1; fill:none" points="
  200.63,1486.45 2352.76,1486.45 
  "/>
<polyline clip-path="url(#clip930)" style="stroke:#000000; stroke-linecap:butt; stroke-linejoin:round; stroke-width:4; stroke-opacity:1; fill:none" points="
  261.539,1486.45 261.539,1467.55 
  "/>
<polyline clip-path="url(#clip930)" style="stroke:#000000; stroke-linecap:butt; stroke-linejoin:round; stroke-width:4; stroke-opacity:1; fill:none" points="
  929.224,1486.45 929.224,1467.55 
  "/>
<polyline clip-path="url(#clip930)" style="stroke:#000000; stroke-linecap:butt; stroke-linejoin:round; stroke-width:4; stroke-opacity:1; fill:none" points="
  1610.54,1486.45 1610.54,1467.55 
  "/>
<polyline clip-path="url(#clip930)" style="stroke:#000000; stroke-linecap:butt; stroke-linejoin:round; stroke-width:4; stroke-opacity:1; fill:none" points="
  2291.85,1486.45 2291.85,1467.55 
  "/>
<path clip-path="url(#clip930)" d="M246.696 1554.64 L246.696 1553.16 L247.398 1553.16 Q249.951 1553.16 250.748 1552.81 Q251.568 1552.43 251.638 1551.08 L251.638 1525.48 Q251.591 1524.23 250.795 1523.86 Q249.998 1523.46 247.398 1523.46 L246.696 1523.46 L246.696 1522.01 Q248.944 1522.1 253.441 1522.1 Q255.268 1522.1 256.838 1522.06 Q258.43 1522.01 258.688 1522.01 L271.734 1522.01 L273.069 1532.81 L271.828 1532.81 Q271.453 1529.88 271.032 1528.36 Q270.633 1526.81 269.65 1525.57 Q268.666 1524.33 267.026 1523.91 Q265.387 1523.46 262.623 1523.46 L258.524 1523.46 Q256.978 1523.46 256.439 1523.77 Q255.901 1524.07 255.901 1525.33 L255.901 1550.94 Q255.901 1552.41 256.884 1552.79 Q257.868 1553.16 261.171 1553.16 L262.037 1553.16 L262.037 1554.64 Q257.962 1554.5 253.84 1554.5 L253.535 1554.5 Q250.537 1554.5 246.696 1554.64 Z" fill="#000000" fill-rule="evenodd" fill-opacity="1" /><path clip-path="url(#clip930)" d="M911.412 1554.71 L911.412 1553.23 Q913.614 1553.23 915.23 1552.55 Q916.846 1551.87 917.314 1551.38 Q917.806 1550.87 918.368 1550.05 L926.238 1538.45 L917.408 1525.1 Q916.729 1524.09 915.815 1523.77 Q914.925 1523.44 912.958 1523.44 L912.044 1523.44 L912.044 1521.94 Q914.691 1522.08 918.275 1522.08 Q923.592 1522.08 925.278 1521.94 L925.278 1523.44 Q923.849 1523.48 923.006 1523.95 Q922.163 1524.4 922.163 1524.87 Q922.163 1525.05 922.491 1525.59 L928.674 1534.84 L934.155 1526.74 Q934.577 1526.06 934.577 1525.64 Q934.577 1524.77 933.78 1524.14 Q933.007 1523.48 931.602 1523.44 L931.602 1521.94 Q933.523 1522.08 937.762 1522.08 Q938.301 1522.08 939.167 1522.06 Q940.058 1522.03 941.229 1521.99 Q942.4 1521.94 943.079 1521.94 L943.079 1523.44 Q938.231 1523.48 936.123 1526.55 L929.541 1536.18 L939.659 1551.5 Q940.385 1552.55 941.299 1552.9 Q942.212 1553.23 944.18 1553.23 L945.093 1553.23 L945.093 1554.71 Q942.072 1554.57 938.863 1554.57 Q933.546 1554.57 931.86 1554.71 L931.86 1553.23 Q933.288 1553.18 934.132 1552.74 Q934.975 1552.27 934.975 1551.78 Q934.975 1551.73 934.717 1551.26 L927.152 1539.79 L920.336 1549.86 Q919.867 1550.63 919.867 1551.01 Q919.867 1551.78 920.617 1552.48 Q921.39 1553.16 922.889 1553.23 L922.889 1554.71 Q921.156 1554.57 916.729 1554.57 Q916.588 1554.57 911.412 1554.71 Z" fill="#000000" fill-rule="evenodd" fill-opacity="1" /><path clip-path="url(#clip930)" d="M1588.79 1554.71 L1588.79 1553.23 Q1590.53 1553.23 1591.63 1552.9 Q1592.73 1552.55 1593.12 1551.92 Q1593.55 1551.26 1593.64 1550.84 Q1593.73 1550.4 1593.73 1549.67 L1593.73 1525.69 Q1593.73 1524.3 1593.12 1523.88 Q1592.54 1523.44 1589.94 1523.44 L1588.79 1523.44 L1588.79 1521.94 L1596.9 1521.94 Q1597.76 1521.94 1598 1522.1 Q1598.23 1522.24 1598.58 1522.99 L1608.98 1549.86 L1619.48 1522.85 Q1619.71 1522.17 1619.92 1522.06 Q1620.15 1521.94 1621.07 1521.94 L1629.17 1521.94 L1629.17 1523.44 L1628.02 1523.44 Q1625.42 1523.44 1624.82 1523.88 Q1624.23 1524.3 1624.23 1525.69 L1624.23 1550.96 Q1624.23 1552.34 1624.82 1552.79 Q1625.42 1553.23 1628.02 1553.23 L1629.17 1553.23 L1629.17 1554.71 Q1627.39 1554.57 1622.31 1554.57 Q1617.18 1554.57 1615.4 1554.71 L1615.4 1553.23 L1616.57 1553.23 Q1619.17 1553.23 1619.76 1552.81 Q1620.34 1552.36 1620.34 1550.96 L1620.34 1523.44 L1620.29 1523.44 L1608.51 1553.79 Q1608.19 1554.71 1607.65 1554.71 Q1607.06 1554.71 1606.69 1553.65 L1595.12 1523.81 L1595.07 1523.81 L1595.07 1549.67 Q1595.07 1550.4 1595.16 1550.84 Q1595.26 1551.26 1595.65 1551.92 Q1596.08 1552.55 1597.18 1552.9 Q1598.28 1553.23 1600.01 1553.23 L1600.01 1554.71 Q1594.98 1554.57 1594.39 1554.57 Q1593.83 1554.57 1588.79 1554.71 Z" fill="#000000" fill-rule="evenodd" fill-opacity="1" /><path clip-path="url(#clip930)" d="M2277 1554.64 L2277 1553.16 L2277.71 1553.16 Q2280.26 1553.16 2281.06 1552.81 Q2281.87 1552.43 2281.95 1551.08 L2281.95 1525.48 Q2281.9 1524.23 2281.1 1523.86 Q2280.31 1523.46 2277.71 1523.46 L2277 1523.46 L2277 1522.01 Q2279.25 1522.1 2283.75 1522.1 Q2285.58 1522.1 2287.14 1522.06 Q2288.74 1522.01 2289 1522.01 L2302.04 1522.01 L2303.38 1532.81 L2302.14 1532.81 Q2301.76 1529.88 2301.34 1528.36 Q2300.94 1526.81 2299.96 1525.57 Q2298.97 1524.33 2297.33 1523.91 Q2295.69 1523.46 2292.93 1523.46 L2288.83 1523.46 Q2287.29 1523.46 2286.75 1523.77 Q2286.21 1524.07 2286.21 1525.33 L2286.21 1550.94 Q2286.21 1552.41 2287.19 1552.79 Q2288.18 1553.16 2291.48 1553.16 L2292.34 1553.16 L2292.34 1554.64 Q2288.27 1554.5 2284.15 1554.5 L2283.84 1554.5 Q2280.84 1554.5 2277 1554.64 Z" fill="#000000" fill-rule="evenodd" fill-opacity="1" /><polyline clip-path="url(#clip933)" style="stroke:#000000; stroke-linecap:butt; stroke-linejoin:round; stroke-width:2; stroke-opacity:0.1; fill:none" points="
  200.63,1448.52 2352.76,1448.52 
  "/>
<polyline clip-path="url(#clip933)" style="stroke:#000000; stroke-linecap:butt; stroke-linejoin:round; stroke-width:2; stroke-opacity:0.1; fill:none" points="
  200.63,1167.43 2352.76,1167.43 
  "/>
<polyline clip-path="url(#clip933)" style="stroke:#000000; stroke-linecap:butt; stroke-linejoin:round; stroke-width:2; stroke-opacity:0.1; fill:none" points="
  200.63,886.348 2352.76,886.348 
  "/>
<polyline clip-path="url(#clip933)" style="stroke:#000000; stroke-linecap:butt; stroke-linejoin:round; stroke-width:2; stroke-opacity:0.1; fill:none" points="
  200.63,605.263 2352.76,605.263 
  "/>
<polyline clip-path="url(#clip933)" style="stroke:#000000; stroke-linecap:butt; stroke-linejoin:round; stroke-width:2; stroke-opacity:0.1; fill:none" points="
  200.63,324.178 2352.76,324.178 
  "/>
<polyline clip-path="url(#clip930)" style="stroke:#000000; stroke-linecap:butt; stroke-linejoin:round; stroke-width:4; stroke-opacity:1; fill:none" points="
  200.63,1486.45 200.63,47.2441 
  "/>
<polyline clip-path="url(#clip930)" style="stroke:#000000; stroke-linecap:butt; stroke-linejoin:round; stroke-width:4; stroke-opacity:1; fill:none" points="
  200.63,1448.52 219.528,1448.52 
  "/>
<polyline clip-path="url(#clip930)" style="stroke:#000000; stroke-linecap:butt; stroke-linejoin:round; stroke-width:4; stroke-opacity:1; fill:none" points="
  200.63,1167.43 219.528,1167.43 
  "/>
<polyline clip-path="url(#clip930)" style="stroke:#000000; stroke-linecap:butt; stroke-linejoin:round; stroke-width:4; stroke-opacity:1; fill:none" points="
  200.63,886.348 219.528,886.348 
  "/>
<polyline clip-path="url(#clip930)" style="stroke:#000000; stroke-linecap:butt; stroke-linejoin:round; stroke-width:4; stroke-opacity:1; fill:none" points="
  200.63,605.263 219.528,605.263 
  "/>
<polyline clip-path="url(#clip930)" style="stroke:#000000; stroke-linecap:butt; stroke-linejoin:round; stroke-width:4; stroke-opacity:1; fill:none" points="
  200.63,324.178 219.528,324.178 
  "/>
<path clip-path="url(#clip930)" d="M152.686 1434.32 Q149.075 1434.32 147.246 1437.88 Q145.441 1441.42 145.441 1448.55 Q145.441 1455.66 147.246 1459.22 Q149.075 1462.77 152.686 1462.77 Q156.32 1462.77 158.126 1459.22 Q159.954 1455.66 159.954 1448.55 Q159.954 1441.42 158.126 1437.88 Q156.32 1434.32 152.686 1434.32 M152.686 1430.61 Q158.496 1430.61 161.552 1435.22 Q164.63 1439.8 164.63 1448.55 Q164.63 1457.28 161.552 1461.89 Q158.496 1466.47 152.686 1466.47 Q146.876 1466.47 143.797 1461.89 Q140.741 1457.28 140.741 1448.55 Q140.741 1439.8 143.797 1435.22 Q146.876 1430.61 152.686 1430.61 Z" fill="#000000" fill-rule="evenodd" fill-opacity="1" /><path clip-path="url(#clip930)" d="M157.501 1166.08 Q160.857 1166.8 162.732 1169.07 Q164.63 1171.33 164.63 1174.67 Q164.63 1179.78 161.112 1182.58 Q157.593 1185.38 151.112 1185.38 Q148.936 1185.38 146.621 1184.94 Q144.329 1184.53 141.876 1183.67 L141.876 1179.16 Q143.82 1180.29 146.135 1180.87 Q148.45 1181.45 150.973 1181.45 Q155.371 1181.45 157.663 1179.71 Q159.978 1177.98 159.978 1174.67 Q159.978 1171.61 157.825 1169.9 Q155.695 1168.16 151.876 1168.16 L147.848 1168.16 L147.848 1164.32 L152.061 1164.32 Q155.51 1164.32 157.339 1162.95 Q159.167 1161.57 159.167 1158.97 Q159.167 1156.31 157.269 1154.9 Q155.394 1153.46 151.876 1153.46 Q149.954 1153.46 147.755 1153.88 Q145.556 1154.3 142.917 1155.18 L142.917 1151.01 Q145.579 1150.27 147.894 1149.9 Q150.232 1149.53 152.292 1149.53 Q157.616 1149.53 160.718 1151.96 Q163.82 1154.37 163.82 1158.49 Q163.82 1161.36 162.177 1163.35 Q160.533 1165.32 157.501 1166.08 Z" fill="#000000" fill-rule="evenodd" fill-opacity="1" /><path clip-path="url(#clip930)" d="M153.103 884.485 Q149.954 884.485 148.103 886.638 Q146.274 888.791 146.274 892.541 Q146.274 896.267 148.103 898.443 Q149.954 900.596 153.103 900.596 Q156.251 900.596 158.079 898.443 Q159.931 896.267 159.931 892.541 Q159.931 888.791 158.079 886.638 Q156.251 884.485 153.103 884.485 M162.385 869.832 L162.385 874.092 Q160.626 873.258 158.82 872.818 Q157.038 872.379 155.278 872.379 Q150.649 872.379 148.195 875.504 Q145.765 878.629 145.417 884.948 Q146.783 882.934 148.843 881.869 Q150.903 880.781 153.38 880.781 Q158.589 880.781 161.598 883.953 Q164.63 887.101 164.63 892.541 Q164.63 897.865 161.482 901.082 Q158.334 904.3 153.103 904.3 Q147.107 904.3 143.936 899.716 Q140.765 895.11 140.765 886.383 Q140.765 878.189 144.654 873.328 Q148.542 868.443 155.093 868.443 Q156.853 868.443 158.635 868.791 Q160.44 869.138 162.385 869.832 Z" fill="#000000" fill-rule="evenodd" fill-opacity="1" /><path clip-path="url(#clip930)" d="M143.01 621.826 L143.01 617.567 Q144.769 618.4 146.575 618.84 Q148.38 619.279 150.116 619.279 Q154.746 619.279 157.177 616.178 Q159.63 613.053 159.978 606.71 Q158.635 608.701 156.575 609.766 Q154.515 610.83 152.015 610.83 Q146.829 610.83 143.797 607.705 Q140.788 604.557 140.788 599.118 Q140.788 593.794 143.936 590.576 Q147.084 587.358 152.316 587.358 Q158.311 587.358 161.459 591.965 Q164.63 596.548 164.63 605.298 Q164.63 613.469 160.741 618.354 Q156.876 623.215 150.325 623.215 Q148.566 623.215 146.76 622.867 Q144.954 622.52 143.01 621.826 M152.316 607.173 Q155.464 607.173 157.292 605.02 Q159.144 602.868 159.144 599.118 Q159.144 595.391 157.292 593.238 Q155.464 591.062 152.316 591.062 Q149.167 591.062 147.316 593.238 Q145.487 595.391 145.487 599.118 Q145.487 602.868 147.316 605.02 Q149.167 607.173 152.316 607.173 Z" fill="#000000" fill-rule="evenodd" fill-opacity="1" /><path clip-path="url(#clip930)" d="M114.931 337.523 L122.57 337.523 L122.57 311.158 L114.26 312.824 L114.26 308.565 L122.524 306.898 L127.2 306.898 L127.2 337.523 L134.839 337.523 L134.839 341.458 L114.931 341.458 L114.931 337.523 Z" fill="#000000" fill-rule="evenodd" fill-opacity="1" /><path clip-path="url(#clip930)" d="M148.311 337.523 L164.63 337.523 L164.63 341.458 L142.686 341.458 L142.686 337.523 Q145.348 334.769 149.931 330.139 Q154.538 325.486 155.718 324.144 Q157.964 321.62 158.843 319.884 Q159.746 318.125 159.746 316.435 Q159.746 313.681 157.802 311.945 Q155.88 310.208 152.778 310.208 Q150.579 310.208 148.126 310.972 Q145.695 311.736 142.917 313.287 L142.917 308.565 Q145.741 307.431 148.195 306.852 Q150.649 306.273 152.686 306.273 Q158.056 306.273 161.251 308.958 Q164.445 311.644 164.445 316.134 Q164.445 318.264 163.635 320.185 Q162.848 322.083 160.741 324.676 Q160.163 325.347 157.061 328.565 Q153.959 331.759 148.311 337.523 Z" fill="#000000" fill-rule="evenodd" fill-opacity="1" /><path clip-path="url(#clip930)" d="M20.8447 994.42 Q20.8447 1001.42 26.0645 1005.56 Q31.2844 1009.67 40.2919 1009.67 Q49.2675 1009.67 54.4874 1005.56 Q59.7073 1001.42 59.7073 994.42 Q59.7073 987.418 54.4874 983.344 Q49.2675 979.238 40.2919 979.238 Q31.2844 979.238 26.0645 983.344 Q20.8447 987.418 20.8447 994.42 M63.1448 985.413 L72.4069 976.946 L72.4069 984.712 L64.7999 991.746 Q64.8635 992.797 64.8954 993.37 Q64.9272 993.911 64.9272 994.42 Q64.9272 1004.45 58.2432 1010.46 Q51.5274 1016.45 40.2919 1016.45 Q29.0246 1016.45 22.3406 1010.46 Q15.6248 1004.45 15.6248 994.42 Q15.6248 984.426 22.3406 978.442 Q29.0246 972.458 40.2919 972.458 Q48.5673 972.458 54.4556 975.8 Q60.3439 979.11 63.1448 985.413 Z" fill="#000000" fill-rule="evenodd" fill-opacity="1" /><path clip-path="url(#clip930)" d="M49.9359 963.26 L28.3562 963.26 L28.3562 957.403 L49.7131 957.403 Q54.7739 957.403 57.3202 955.43 Q59.8346 953.457 59.8346 949.51 Q59.8346 944.767 56.8109 942.03 Q53.7872 939.261 48.5673 939.261 L28.3562 939.261 L28.3562 933.405 L64.0042 933.405 L64.0042 939.261 L58.5296 939.261 Q61.7762 941.394 63.3676 944.226 Q64.9272 947.027 64.9272 950.751 Q64.9272 956.894 61.1078 960.077 Q57.2883 963.26 49.9359 963.26 M27.4968 948.523 L27.4968 948.523 Z" fill="#000000" fill-rule="evenodd" fill-opacity="1" /><path clip-path="url(#clip930)" d="M46.0847 905.141 Q46.0847 912.239 47.7079 914.976 Q49.3312 917.713 53.2461 917.713 Q56.3653 917.713 58.2114 915.676 Q60.0256 913.607 60.0256 910.074 Q60.0256 905.205 56.5881 902.276 Q53.1188 899.316 47.3897 899.316 L46.0847 899.316 L46.0847 905.141 M43.6657 893.46 L64.0042 893.46 L64.0042 899.316 L58.5933 899.316 Q61.8398 901.322 63.3994 904.313 Q64.9272 907.305 64.9272 911.634 Q64.9272 917.108 61.8716 920.355 Q58.7843 923.57 53.6281 923.57 Q47.6125 923.57 44.5569 919.559 Q41.5014 915.517 41.5014 907.528 L41.5014 899.316 L40.9285 899.316 Q36.8862 899.316 34.6901 901.99 Q32.4621 904.632 32.4621 909.438 Q32.4621 912.493 33.1941 915.39 Q33.9262 918.286 35.3903 920.96 L29.9795 920.96 Q28.7381 917.745 28.1334 914.721 Q27.4968 911.698 27.4968 908.833 Q27.4968 901.099 31.5072 897.279 Q35.5176 893.46 43.6657 893.46 Z" fill="#000000" fill-rule="evenodd" fill-opacity="1" /><path clip-path="url(#clip930)" d="M42.4881 851.765 L64.0042 851.765 L64.0042 857.621 L42.679 857.621 Q37.6183 857.621 35.1038 859.594 Q32.5894 861.568 32.5894 865.514 Q32.5894 870.257 35.6131 872.994 Q38.6368 875.731 43.8567 875.731 L64.0042 875.731 L64.0042 881.62 L28.3562 881.62 L28.3562 875.731 L33.8944 875.731 Q30.6797 873.631 29.0883 870.798 Q27.4968 867.933 27.4968 864.209 Q27.4968 858.067 31.3163 854.916 Q35.1038 851.765 42.4881 851.765 Z" fill="#000000" fill-rule="evenodd" fill-opacity="1" /><path clip-path="url(#clip930)" d="M18.2347 834.291 L28.3562 834.291 L28.3562 822.228 L32.9077 822.228 L32.9077 834.291 L52.2594 834.291 Q56.6199 834.291 57.8613 833.113 Q59.1026 831.904 59.1026 828.243 L59.1026 822.228 L64.0042 822.228 L64.0042 828.243 Q64.0042 835.023 61.4897 837.601 Q58.9434 840.179 52.2594 840.179 L32.9077 840.179 L32.9077 844.476 L28.3562 844.476 L28.3562 840.179 L18.2347 840.179 L18.2347 834.291 Z" fill="#000000" fill-rule="evenodd" fill-opacity="1" /><path clip-path="url(#clip930)" d="M49.9359 815.13 L28.3562 815.13 L28.3562 809.273 L49.7131 809.273 Q54.7739 809.273 57.3202 807.3 Q59.8346 805.327 59.8346 801.38 Q59.8346 796.637 56.8109 793.9 Q53.7872 791.131 48.5673 791.131 L28.3562 791.131 L28.3562 785.275 L64.0042 785.275 L64.0042 791.131 L58.5296 791.131 Q61.7762 793.264 63.3676 796.096 Q64.9272 798.897 64.9272 802.621 Q64.9272 808.764 61.1078 811.947 Q57.2883 815.13 49.9359 815.13 M27.4968 800.393 L27.4968 800.393 Z" fill="#000000" fill-rule="evenodd" fill-opacity="1" /><path clip-path="url(#clip930)" d="M35.1993 745.457 Q31.2526 743.261 29.3747 740.206 Q27.4968 737.15 27.4968 733.012 Q27.4968 727.442 31.4117 724.419 Q35.2948 721.395 42.4881 721.395 L64.0042 721.395 L64.0042 727.283 L42.679 727.283 Q37.5546 727.283 35.072 729.097 Q32.5894 730.912 32.5894 734.636 Q32.5894 739.187 35.6131 741.829 Q38.6368 744.471 43.8567 744.471 L64.0042 744.471 L64.0042 750.359 L42.679 750.359 Q37.5228 750.359 35.072 752.173 Q32.5894 753.987 32.5894 757.775 Q32.5894 762.263 35.6449 764.904 Q38.6686 767.546 43.8567 767.546 L64.0042 767.546 L64.0042 773.434 L28.3562 773.434 L28.3562 767.546 L33.8944 767.546 Q30.616 765.541 29.0564 762.74 Q27.4968 759.939 27.4968 756.088 Q27.4968 752.205 29.4702 749.499 Q31.4436 746.762 35.1993 745.457 Z" fill="#000000" fill-rule="evenodd" fill-opacity="1" /><path clip-path="url(#clip930)" d="M16.4842 709.459 L16.4842 699.879 L48.8219 687.752 L16.4842 675.562 L16.4842 665.981 L64.0042 665.981 L64.0042 672.252 L22.277 672.252 L54.8694 684.506 L54.8694 690.967 L22.277 703.221 L64.0042 703.221 L64.0042 709.459 L16.4842 709.459 Z" fill="#000000" fill-rule="evenodd" fill-opacity="1" /><path clip-path="url(#clip930)" d="M44.7161 622.981 L47.5806 622.981 L47.5806 649.908 Q53.6281 649.526 56.8109 646.28 Q59.9619 643.001 59.9619 637.177 Q59.9619 633.803 59.1344 630.652 Q58.3069 627.469 56.6518 624.35 L62.1899 624.35 Q63.5267 627.501 64.227 630.811 Q64.9272 634.121 64.9272 637.527 Q64.9272 646.057 59.9619 651.054 Q54.9967 656.019 46.5303 656.019 Q37.7774 656.019 32.6531 651.308 Q27.4968 646.566 27.4968 638.545 Q27.4968 631.352 32.1438 627.182 Q36.7589 622.981 44.7161 622.981 M42.9973 628.837 Q38.1912 628.901 35.3266 631.543 Q32.4621 634.153 32.4621 638.482 Q32.4621 643.383 35.2312 646.343 Q38.0002 649.271 43.0292 649.717 L42.9973 628.837 Z" fill="#000000" fill-rule="evenodd" fill-opacity="1" /><path clip-path="url(#clip930)" d="M18.2347 607.576 L28.3562 607.576 L28.3562 595.513 L32.9077 595.513 L32.9077 607.576 L52.2594 607.576 Q56.6199 607.576 57.8613 606.398 Q59.1026 605.189 59.1026 601.529 L59.1026 595.513 L64.0042 595.513 L64.0042 601.529 Q64.0042 608.308 61.4897 610.886 Q58.9434 613.464 52.2594 613.464 L32.9077 613.464 L32.9077 617.761 L28.3562 617.761 L28.3562 613.464 L18.2347 613.464 L18.2347 607.576 Z" fill="#000000" fill-rule="evenodd" fill-opacity="1" /><path clip-path="url(#clip930)" d="M33.8307 567.154 Q33.2578 568.14 33.0032 569.318 Q32.7167 570.464 32.7167 571.864 Q32.7167 576.83 35.9632 579.503 Q39.1779 582.145 45.2253 582.145 L64.0042 582.145 L64.0042 588.033 L28.3562 588.033 L28.3562 582.145 L33.8944 582.145 Q30.6479 580.299 29.0883 577.339 Q27.4968 574.379 27.4968 570.146 Q27.4968 569.541 27.5923 568.809 Q27.656 568.077 27.8151 567.186 L33.8307 567.154 Z" fill="#000000" fill-rule="evenodd" fill-opacity="1" /><path clip-path="url(#clip930)" d="M28.3562 561.011 L28.3562 555.154 L64.0042 555.154 L64.0042 561.011 L28.3562 561.011 M14.479 561.011 L14.479 555.154 L21.895 555.154 L21.895 561.011 L14.479 561.011 Z" fill="#000000" fill-rule="evenodd" fill-opacity="1" /><path clip-path="url(#clip930)" d="M29.7248 517.247 L35.1993 517.247 Q33.8307 519.729 33.1623 522.244 Q32.4621 524.726 32.4621 527.273 Q32.4621 532.97 36.0905 536.121 Q39.6872 539.272 46.212 539.272 Q52.7369 539.272 56.3653 536.121 Q59.9619 532.97 59.9619 527.273 Q59.9619 524.726 59.2935 522.244 Q58.5933 519.729 57.2247 517.247 L62.6355 517.247 Q63.7814 519.697 64.3543 522.339 Q64.9272 524.949 64.9272 527.909 Q64.9272 535.962 59.8664 540.704 Q54.8057 545.447 46.212 545.447 Q37.491 545.447 32.4939 540.672 Q27.4968 535.866 27.4968 527.527 Q27.4968 524.822 28.0697 522.244 Q28.6108 519.666 29.7248 517.247 Z" fill="#000000" fill-rule="evenodd" fill-opacity="1" /><circle clip-path="url(#clip933)" cx="261.539" cy="1445.43" r="14" fill="#009af9" fill-rule="evenodd" fill-opacity="1" stroke="#000000" stroke-opacity="1" stroke-width="3.2"/>
<circle clip-path="url(#clip933)" cx="275.166" cy="1445.44" r="14" fill="#009af9" fill-rule="evenodd" fill-opacity="1" stroke="#000000" stroke-opacity="1" stroke-width="3.2"/>
<circle clip-path="url(#clip933)" cx="288.792" cy="1445.44" r="14" fill="#009af9" fill-rule="evenodd" fill-opacity="1" stroke="#000000" stroke-opacity="1" stroke-width="3.2"/>
<circle clip-path="url(#clip933)" cx="302.418" cy="1445.45" r="14" fill="#009af9" fill-rule="evenodd" fill-opacity="1" stroke="#000000" stroke-opacity="1" stroke-width="3.2"/>
<circle clip-path="url(#clip933)" cx="316.044" cy="1445.45" r="14" fill="#009af9" fill-rule="evenodd" fill-opacity="1" stroke="#000000" stroke-opacity="1" stroke-width="3.2"/>
<circle clip-path="url(#clip933)" cx="329.671" cy="1445.46" r="14" fill="#009af9" fill-rule="evenodd" fill-opacity="1" stroke="#000000" stroke-opacity="1" stroke-width="3.2"/>
<circle clip-path="url(#clip933)" cx="343.297" cy="1445.47" r="14" fill="#009af9" fill-rule="evenodd" fill-opacity="1" stroke="#000000" stroke-opacity="1" stroke-width="3.2"/>
<circle clip-path="url(#clip933)" cx="356.923" cy="1445.49" r="14" fill="#009af9" fill-rule="evenodd" fill-opacity="1" stroke="#000000" stroke-opacity="1" stroke-width="3.2"/>
<circle clip-path="url(#clip933)" cx="370.549" cy="1445.5" r="14" fill="#009af9" fill-rule="evenodd" fill-opacity="1" stroke="#000000" stroke-opacity="1" stroke-width="3.2"/>
<circle clip-path="url(#clip933)" cx="384.175" cy="1445.51" r="14" fill="#009af9" fill-rule="evenodd" fill-opacity="1" stroke="#000000" stroke-opacity="1" stroke-width="3.2"/>
<circle clip-path="url(#clip933)" cx="397.802" cy="1445.53" r="14" fill="#009af9" fill-rule="evenodd" fill-opacity="1" stroke="#000000" stroke-opacity="1" stroke-width="3.2"/>
<circle clip-path="url(#clip933)" cx="411.428" cy="1445.55" r="14" fill="#009af9" fill-rule="evenodd" fill-opacity="1" stroke="#000000" stroke-opacity="1" stroke-width="3.2"/>
<circle clip-path="url(#clip933)" cx="425.054" cy="1445.56" r="14" fill="#009af9" fill-rule="evenodd" fill-opacity="1" stroke="#000000" stroke-opacity="1" stroke-width="3.2"/>
<circle clip-path="url(#clip933)" cx="438.68" cy="1445.58" r="14" fill="#009af9" fill-rule="evenodd" fill-opacity="1" stroke="#000000" stroke-opacity="1" stroke-width="3.2"/>
<circle clip-path="url(#clip933)" cx="452.307" cy="1445.6" r="14" fill="#009af9" fill-rule="evenodd" fill-opacity="1" stroke="#000000" stroke-opacity="1" stroke-width="3.2"/>
<circle clip-path="url(#clip933)" cx="465.933" cy="1445.62" r="14" fill="#009af9" fill-rule="evenodd" fill-opacity="1" stroke="#000000" stroke-opacity="1" stroke-width="3.2"/>
<circle clip-path="url(#clip933)" cx="479.559" cy="1445.63" r="14" fill="#009af9" fill-rule="evenodd" fill-opacity="1" stroke="#000000" stroke-opacity="1" stroke-width="3.2"/>
<circle clip-path="url(#clip933)" cx="493.185" cy="1445.65" r="14" fill="#009af9" fill-rule="evenodd" fill-opacity="1" stroke="#000000" stroke-opacity="1" stroke-width="3.2"/>
<circle clip-path="url(#clip933)" cx="506.811" cy="1445.66" r="14" fill="#009af9" fill-rule="evenodd" fill-opacity="1" stroke="#000000" stroke-opacity="1" stroke-width="3.2"/>
<circle clip-path="url(#clip933)" cx="520.438" cy="1445.67" r="14" fill="#009af9" fill-rule="evenodd" fill-opacity="1" stroke="#000000" stroke-opacity="1" stroke-width="3.2"/>
<circle clip-path="url(#clip933)" cx="534.064" cy="1445.68" r="14" fill="#009af9" fill-rule="evenodd" fill-opacity="1" stroke="#000000" stroke-opacity="1" stroke-width="3.2"/>
<circle clip-path="url(#clip933)" cx="547.69" cy="1445.68" r="14" fill="#009af9" fill-rule="evenodd" fill-opacity="1" stroke="#000000" stroke-opacity="1" stroke-width="3.2"/>
<circle clip-path="url(#clip933)" cx="561.316" cy="1445.68" r="14" fill="#009af9" fill-rule="evenodd" fill-opacity="1" stroke="#000000" stroke-opacity="1" stroke-width="3.2"/>
<circle clip-path="url(#clip933)" cx="574.943" cy="1445.66" r="14" fill="#009af9" fill-rule="evenodd" fill-opacity="1" stroke="#000000" stroke-opacity="1" stroke-width="3.2"/>
<circle clip-path="url(#clip933)" cx="588.569" cy="1445.64" r="14" fill="#009af9" fill-rule="evenodd" fill-opacity="1" stroke="#000000" stroke-opacity="1" stroke-width="3.2"/>
<circle clip-path="url(#clip933)" cx="602.195" cy="1445.6" r="14" fill="#009af9" fill-rule="evenodd" fill-opacity="1" stroke="#000000" stroke-opacity="1" stroke-width="3.2"/>
<circle clip-path="url(#clip933)" cx="615.821" cy="1445.55" r="14" fill="#009af9" fill-rule="evenodd" fill-opacity="1" stroke="#000000" stroke-opacity="1" stroke-width="3.2"/>
<circle clip-path="url(#clip933)" cx="629.447" cy="1445.47" r="14" fill="#009af9" fill-rule="evenodd" fill-opacity="1" stroke="#000000" stroke-opacity="1" stroke-width="3.2"/>
<circle clip-path="url(#clip933)" cx="643.074" cy="1445.38" r="14" fill="#009af9" fill-rule="evenodd" fill-opacity="1" stroke="#000000" stroke-opacity="1" stroke-width="3.2"/>
<circle clip-path="url(#clip933)" cx="656.7" cy="1445.26" r="14" fill="#009af9" fill-rule="evenodd" fill-opacity="1" stroke="#000000" stroke-opacity="1" stroke-width="3.2"/>
<circle clip-path="url(#clip933)" cx="670.326" cy="1445.1" r="14" fill="#009af9" fill-rule="evenodd" fill-opacity="1" stroke="#000000" stroke-opacity="1" stroke-width="3.2"/>
<circle clip-path="url(#clip933)" cx="683.952" cy="1444.91" r="14" fill="#009af9" fill-rule="evenodd" fill-opacity="1" stroke="#000000" stroke-opacity="1" stroke-width="3.2"/>
<circle clip-path="url(#clip933)" cx="697.579" cy="1444.68" r="14" fill="#009af9" fill-rule="evenodd" fill-opacity="1" stroke="#000000" stroke-opacity="1" stroke-width="3.2"/>
<circle clip-path="url(#clip933)" cx="711.205" cy="1444.39" r="14" fill="#009af9" fill-rule="evenodd" fill-opacity="1" stroke="#000000" stroke-opacity="1" stroke-width="3.2"/>
<circle clip-path="url(#clip933)" cx="724.831" cy="1444.05" r="14" fill="#009af9" fill-rule="evenodd" fill-opacity="1" stroke="#000000" stroke-opacity="1" stroke-width="3.2"/>
<circle clip-path="url(#clip933)" cx="738.457" cy="1443.65" r="14" fill="#009af9" fill-rule="evenodd" fill-opacity="1" stroke="#000000" stroke-opacity="1" stroke-width="3.2"/>
<circle clip-path="url(#clip933)" cx="752.083" cy="1443.17" r="14" fill="#009af9" fill-rule="evenodd" fill-opacity="1" stroke="#000000" stroke-opacity="1" stroke-width="3.2"/>
<circle clip-path="url(#clip933)" cx="765.71" cy="1442.63" r="14" fill="#009af9" fill-rule="evenodd" fill-opacity="1" stroke="#000000" stroke-opacity="1" stroke-width="3.2"/>
<circle clip-path="url(#clip933)" cx="779.336" cy="1442.01" r="14" fill="#009af9" fill-rule="evenodd" fill-opacity="1" stroke="#000000" stroke-opacity="1" stroke-width="3.2"/>
<circle clip-path="url(#clip933)" cx="792.962" cy="1441.32" r="14" fill="#009af9" fill-rule="evenodd" fill-opacity="1" stroke="#000000" stroke-opacity="1" stroke-width="3.2"/>
<circle clip-path="url(#clip933)" cx="806.588" cy="1440.57" r="14" fill="#009af9" fill-rule="evenodd" fill-opacity="1" stroke="#000000" stroke-opacity="1" stroke-width="3.2"/>
<circle clip-path="url(#clip933)" cx="820.215" cy="1439.76" r="14" fill="#009af9" fill-rule="evenodd" fill-opacity="1" stroke="#000000" stroke-opacity="1" stroke-width="3.2"/>
<circle clip-path="url(#clip933)" cx="833.841" cy="1438.92" r="14" fill="#009af9" fill-rule="evenodd" fill-opacity="1" stroke="#000000" stroke-opacity="1" stroke-width="3.2"/>
<circle clip-path="url(#clip933)" cx="847.467" cy="1438.07" r="14" fill="#009af9" fill-rule="evenodd" fill-opacity="1" stroke="#000000" stroke-opacity="1" stroke-width="3.2"/>
<circle clip-path="url(#clip933)" cx="861.093" cy="1437.25" r="14" fill="#009af9" fill-rule="evenodd" fill-opacity="1" stroke="#000000" stroke-opacity="1" stroke-width="3.2"/>
<circle clip-path="url(#clip933)" cx="874.72" cy="1436.5" r="14" fill="#009af9" fill-rule="evenodd" fill-opacity="1" stroke="#000000" stroke-opacity="1" stroke-width="3.2"/>
<circle clip-path="url(#clip933)" cx="888.346" cy="1435.86" r="14" fill="#009af9" fill-rule="evenodd" fill-opacity="1" stroke="#000000" stroke-opacity="1" stroke-width="3.2"/>
<circle clip-path="url(#clip933)" cx="901.972" cy="1435.37" r="14" fill="#009af9" fill-rule="evenodd" fill-opacity="1" stroke="#000000" stroke-opacity="1" stroke-width="3.2"/>
<circle clip-path="url(#clip933)" cx="915.598" cy="1435.06" r="14" fill="#009af9" fill-rule="evenodd" fill-opacity="1" stroke="#000000" stroke-opacity="1" stroke-width="3.2"/>
<circle clip-path="url(#clip933)" cx="929.224" cy="1434.96" r="14" fill="#009af9" fill-rule="evenodd" fill-opacity="1" stroke="#000000" stroke-opacity="1" stroke-width="3.2"/>
<circle clip-path="url(#clip933)" cx="942.851" cy="1434.95" r="14" fill="#009af9" fill-rule="evenodd" fill-opacity="1" stroke="#000000" stroke-opacity="1" stroke-width="3.2"/>
<circle clip-path="url(#clip933)" cx="956.477" cy="1434.92" r="14" fill="#009af9" fill-rule="evenodd" fill-opacity="1" stroke="#000000" stroke-opacity="1" stroke-width="3.2"/>
<circle clip-path="url(#clip933)" cx="970.103" cy="1434.88" r="14" fill="#009af9" fill-rule="evenodd" fill-opacity="1" stroke="#000000" stroke-opacity="1" stroke-width="3.2"/>
<circle clip-path="url(#clip933)" cx="983.729" cy="1434.82" r="14" fill="#009af9" fill-rule="evenodd" fill-opacity="1" stroke="#000000" stroke-opacity="1" stroke-width="3.2"/>
<circle clip-path="url(#clip933)" cx="997.356" cy="1434.74" r="14" fill="#009af9" fill-rule="evenodd" fill-opacity="1" stroke="#000000" stroke-opacity="1" stroke-width="3.2"/>
<circle clip-path="url(#clip933)" cx="1010.98" cy="1434.64" r="14" fill="#009af9" fill-rule="evenodd" fill-opacity="1" stroke="#000000" stroke-opacity="1" stroke-width="3.2"/>
<circle clip-path="url(#clip933)" cx="1024.61" cy="1434.53" r="14" fill="#009af9" fill-rule="evenodd" fill-opacity="1" stroke="#000000" stroke-opacity="1" stroke-width="3.2"/>
<circle clip-path="url(#clip933)" cx="1038.23" cy="1434.39" r="14" fill="#009af9" fill-rule="evenodd" fill-opacity="1" stroke="#000000" stroke-opacity="1" stroke-width="3.2"/>
<circle clip-path="url(#clip933)" cx="1051.86" cy="1434.23" r="14" fill="#009af9" fill-rule="evenodd" fill-opacity="1" stroke="#000000" stroke-opacity="1" stroke-width="3.2"/>
<circle clip-path="url(#clip933)" cx="1065.49" cy="1434.05" r="14" fill="#009af9" fill-rule="evenodd" fill-opacity="1" stroke="#000000" stroke-opacity="1" stroke-width="3.2"/>
<circle clip-path="url(#clip933)" cx="1079.11" cy="1433.84" r="14" fill="#009af9" fill-rule="evenodd" fill-opacity="1" stroke="#000000" stroke-opacity="1" stroke-width="3.2"/>
<circle clip-path="url(#clip933)" cx="1092.74" cy="1433.61" r="14" fill="#009af9" fill-rule="evenodd" fill-opacity="1" stroke="#000000" stroke-opacity="1" stroke-width="3.2"/>
<circle clip-path="url(#clip933)" cx="1106.37" cy="1433.34" r="14" fill="#009af9" fill-rule="evenodd" fill-opacity="1" stroke="#000000" stroke-opacity="1" stroke-width="3.2"/>
<circle clip-path="url(#clip933)" cx="1119.99" cy="1433.05" r="14" fill="#009af9" fill-rule="evenodd" fill-opacity="1" stroke="#000000" stroke-opacity="1" stroke-width="3.2"/>
<circle clip-path="url(#clip933)" cx="1133.62" cy="1432.71" r="14" fill="#009af9" fill-rule="evenodd" fill-opacity="1" stroke="#000000" stroke-opacity="1" stroke-width="3.2"/>
<circle clip-path="url(#clip933)" cx="1147.24" cy="1432.34" r="14" fill="#009af9" fill-rule="evenodd" fill-opacity="1" stroke="#000000" stroke-opacity="1" stroke-width="3.2"/>
<circle clip-path="url(#clip933)" cx="1160.87" cy="1431.93" r="14" fill="#009af9" fill-rule="evenodd" fill-opacity="1" stroke="#000000" stroke-opacity="1" stroke-width="3.2"/>
<circle clip-path="url(#clip933)" cx="1174.5" cy="1431.47" r="14" fill="#009af9" fill-rule="evenodd" fill-opacity="1" stroke="#000000" stroke-opacity="1" stroke-width="3.2"/>
<circle clip-path="url(#clip933)" cx="1188.12" cy="1430.95" r="14" fill="#009af9" fill-rule="evenodd" fill-opacity="1" stroke="#000000" stroke-opacity="1" stroke-width="3.2"/>
<circle clip-path="url(#clip933)" cx="1201.75" cy="1430.37" r="14" fill="#009af9" fill-rule="evenodd" fill-opacity="1" stroke="#000000" stroke-opacity="1" stroke-width="3.2"/>
<circle clip-path="url(#clip933)" cx="1215.38" cy="1429.72" r="14" fill="#009af9" fill-rule="evenodd" fill-opacity="1" stroke="#000000" stroke-opacity="1" stroke-width="3.2"/>
<circle clip-path="url(#clip933)" cx="1229" cy="1429" r="14" fill="#009af9" fill-rule="evenodd" fill-opacity="1" stroke="#000000" stroke-opacity="1" stroke-width="3.2"/>
<circle clip-path="url(#clip933)" cx="1242.63" cy="1428.18" r="14" fill="#009af9" fill-rule="evenodd" fill-opacity="1" stroke="#000000" stroke-opacity="1" stroke-width="3.2"/>
<circle clip-path="url(#clip933)" cx="1256.25" cy="1427.25" r="14" fill="#009af9" fill-rule="evenodd" fill-opacity="1" stroke="#000000" stroke-opacity="1" stroke-width="3.2"/>
<circle clip-path="url(#clip933)" cx="1269.88" cy="1426.21" r="14" fill="#009af9" fill-rule="evenodd" fill-opacity="1" stroke="#000000" stroke-opacity="1" stroke-width="3.2"/>
<circle clip-path="url(#clip933)" cx="1283.51" cy="1425.02" r="14" fill="#009af9" fill-rule="evenodd" fill-opacity="1" stroke="#000000" stroke-opacity="1" stroke-width="3.2"/>
<circle clip-path="url(#clip933)" cx="1297.13" cy="1423.66" r="14" fill="#009af9" fill-rule="evenodd" fill-opacity="1" stroke="#000000" stroke-opacity="1" stroke-width="3.2"/>
<circle clip-path="url(#clip933)" cx="1310.76" cy="1422.1" r="14" fill="#009af9" fill-rule="evenodd" fill-opacity="1" stroke="#000000" stroke-opacity="1" stroke-width="3.2"/>
<circle clip-path="url(#clip933)" cx="1324.38" cy="1420.31" r="14" fill="#009af9" fill-rule="evenodd" fill-opacity="1" stroke="#000000" stroke-opacity="1" stroke-width="3.2"/>
<circle clip-path="url(#clip933)" cx="1338.01" cy="1418.22" r="14" fill="#009af9" fill-rule="evenodd" fill-opacity="1" stroke="#000000" stroke-opacity="1" stroke-width="3.2"/>
<circle clip-path="url(#clip933)" cx="1351.64" cy="1415.79" r="14" fill="#009af9" fill-rule="evenodd" fill-opacity="1" stroke="#000000" stroke-opacity="1" stroke-width="3.2"/>
<circle clip-path="url(#clip933)" cx="1365.26" cy="1412.92" r="14" fill="#009af9" fill-rule="evenodd" fill-opacity="1" stroke="#000000" stroke-opacity="1" stroke-width="3.2"/>
<circle clip-path="url(#clip933)" cx="1378.89" cy="1409.52" r="14" fill="#009af9" fill-rule="evenodd" fill-opacity="1" stroke="#000000" stroke-opacity="1" stroke-width="3.2"/>
<circle clip-path="url(#clip933)" cx="1392.52" cy="1405.44" r="14" fill="#009af9" fill-rule="evenodd" fill-opacity="1" stroke="#000000" stroke-opacity="1" stroke-width="3.2"/>
<circle clip-path="url(#clip933)" cx="1406.14" cy="1400.5" r="14" fill="#009af9" fill-rule="evenodd" fill-opacity="1" stroke="#000000" stroke-opacity="1" stroke-width="3.2"/>
<circle clip-path="url(#clip933)" cx="1419.77" cy="1394.45" r="14" fill="#009af9" fill-rule="evenodd" fill-opacity="1" stroke="#000000" stroke-opacity="1" stroke-width="3.2"/>
<circle clip-path="url(#clip933)" cx="1433.39" cy="1386.93" r="14" fill="#009af9" fill-rule="evenodd" fill-opacity="1" stroke="#000000" stroke-opacity="1" stroke-width="3.2"/>
<circle clip-path="url(#clip933)" cx="1447.02" cy="1377.44" r="14" fill="#009af9" fill-rule="evenodd" fill-opacity="1" stroke="#000000" stroke-opacity="1" stroke-width="3.2"/>
<circle clip-path="url(#clip933)" cx="1460.65" cy="1365.25" r="14" fill="#009af9" fill-rule="evenodd" fill-opacity="1" stroke="#000000" stroke-opacity="1" stroke-width="3.2"/>
<circle clip-path="url(#clip933)" cx="1474.27" cy="1349.24" r="14" fill="#009af9" fill-rule="evenodd" fill-opacity="1" stroke="#000000" stroke-opacity="1" stroke-width="3.2"/>
<circle clip-path="url(#clip933)" cx="1487.9" cy="1327.72" r="14" fill="#009af9" fill-rule="evenodd" fill-opacity="1" stroke="#000000" stroke-opacity="1" stroke-width="3.2"/>
<circle clip-path="url(#clip933)" cx="1501.53" cy="1298.14" r="14" fill="#009af9" fill-rule="evenodd" fill-opacity="1" stroke="#000000" stroke-opacity="1" stroke-width="3.2"/>
<circle clip-path="url(#clip933)" cx="1515.15" cy="1257.27" r="14" fill="#009af9" fill-rule="evenodd" fill-opacity="1" stroke="#000000" stroke-opacity="1" stroke-width="3.2"/>
<circle clip-path="url(#clip933)" cx="1528.78" cy="1200.76" r="14" fill="#009af9" fill-rule="evenodd" fill-opacity="1" stroke="#000000" stroke-opacity="1" stroke-width="3.2"/>
<circle clip-path="url(#clip933)" cx="1542.4" cy="1117.81" r="14" fill="#009af9" fill-rule="evenodd" fill-opacity="1" stroke="#000000" stroke-opacity="1" stroke-width="3.2"/>
<circle clip-path="url(#clip933)" cx="1556.03" cy="991.544" r="14" fill="#009af9" fill-rule="evenodd" fill-opacity="1" stroke="#000000" stroke-opacity="1" stroke-width="3.2"/>
<circle clip-path="url(#clip933)" cx="1569.66" cy="799.19" r="14" fill="#009af9" fill-rule="evenodd" fill-opacity="1" stroke="#000000" stroke-opacity="1" stroke-width="3.2"/>
<circle clip-path="url(#clip933)" cx="1583.28" cy="526.994" r="14" fill="#009af9" fill-rule="evenodd" fill-opacity="1" stroke="#000000" stroke-opacity="1" stroke-width="3.2"/>
<circle clip-path="url(#clip933)" cx="1596.91" cy="230.052" r="14" fill="#009af9" fill-rule="evenodd" fill-opacity="1" stroke="#000000" stroke-opacity="1" stroke-width="3.2"/>
<circle clip-path="url(#clip933)" cx="1610.54" cy="87.9763" r="14" fill="#009af9" fill-rule="evenodd" fill-opacity="1" stroke="#000000" stroke-opacity="1" stroke-width="3.2"/>
<circle clip-path="url(#clip933)" cx="1624.16" cy="347.468" r="14" fill="#009af9" fill-rule="evenodd" fill-opacity="1" stroke="#000000" stroke-opacity="1" stroke-width="3.2"/>
<circle clip-path="url(#clip933)" cx="1637.79" cy="761.971" r="14" fill="#009af9" fill-rule="evenodd" fill-opacity="1" stroke="#000000" stroke-opacity="1" stroke-width="3.2"/>
<circle clip-path="url(#clip933)" cx="1651.41" cy="1035.65" r="14" fill="#009af9" fill-rule="evenodd" fill-opacity="1" stroke="#000000" stroke-opacity="1" stroke-width="3.2"/>
<circle clip-path="url(#clip933)" cx="1665.04" cy="1187.75" r="14" fill="#009af9" fill-rule="evenodd" fill-opacity="1" stroke="#000000" stroke-opacity="1" stroke-width="3.2"/>
<circle clip-path="url(#clip933)" cx="1678.67" cy="1274.86" r="14" fill="#009af9" fill-rule="evenodd" fill-opacity="1" stroke="#000000" stroke-opacity="1" stroke-width="3.2"/>
<circle clip-path="url(#clip933)" cx="1692.29" cy="1329.39" r="14" fill="#009af9" fill-rule="evenodd" fill-opacity="1" stroke="#000000" stroke-opacity="1" stroke-width="3.2"/>
<circle clip-path="url(#clip933)" cx="1705.92" cy="1363.63" r="14" fill="#009af9" fill-rule="evenodd" fill-opacity="1" stroke="#000000" stroke-opacity="1" stroke-width="3.2"/>
<circle clip-path="url(#clip933)" cx="1719.55" cy="1385.96" r="14" fill="#009af9" fill-rule="evenodd" fill-opacity="1" stroke="#000000" stroke-opacity="1" stroke-width="3.2"/>
<circle clip-path="url(#clip933)" cx="1733.17" cy="1401.19" r="14" fill="#009af9" fill-rule="evenodd" fill-opacity="1" stroke="#000000" stroke-opacity="1" stroke-width="3.2"/>
<circle clip-path="url(#clip933)" cx="1746.8" cy="1411.95" r="14" fill="#009af9" fill-rule="evenodd" fill-opacity="1" stroke="#000000" stroke-opacity="1" stroke-width="3.2"/>
<circle clip-path="url(#clip933)" cx="1760.42" cy="1419.78" r="14" fill="#009af9" fill-rule="evenodd" fill-opacity="1" stroke="#000000" stroke-opacity="1" stroke-width="3.2"/>
<circle clip-path="url(#clip933)" cx="1774.05" cy="1425.61" r="14" fill="#009af9" fill-rule="evenodd" fill-opacity="1" stroke="#000000" stroke-opacity="1" stroke-width="3.2"/>
<circle clip-path="url(#clip933)" cx="1787.68" cy="1430.02" r="14" fill="#009af9" fill-rule="evenodd" fill-opacity="1" stroke="#000000" stroke-opacity="1" stroke-width="3.2"/>
<circle clip-path="url(#clip933)" cx="1801.3" cy="1433.41" r="14" fill="#009af9" fill-rule="evenodd" fill-opacity="1" stroke="#000000" stroke-opacity="1" stroke-width="3.2"/>
<circle clip-path="url(#clip933)" cx="1814.93" cy="1436.05" r="14" fill="#009af9" fill-rule="evenodd" fill-opacity="1" stroke="#000000" stroke-opacity="1" stroke-width="3.2"/>
<circle clip-path="url(#clip933)" cx="1828.56" cy="1438.12" r="14" fill="#009af9" fill-rule="evenodd" fill-opacity="1" stroke="#000000" stroke-opacity="1" stroke-width="3.2"/>
<circle clip-path="url(#clip933)" cx="1842.18" cy="1439.76" r="14" fill="#009af9" fill-rule="evenodd" fill-opacity="1" stroke="#000000" stroke-opacity="1" stroke-width="3.2"/>
<circle clip-path="url(#clip933)" cx="1855.81" cy="1441.05" r="14" fill="#009af9" fill-rule="evenodd" fill-opacity="1" stroke="#000000" stroke-opacity="1" stroke-width="3.2"/>
<circle clip-path="url(#clip933)" cx="1869.43" cy="1442.08" r="14" fill="#009af9" fill-rule="evenodd" fill-opacity="1" stroke="#000000" stroke-opacity="1" stroke-width="3.2"/>
<circle clip-path="url(#clip933)" cx="1883.06" cy="1442.91" r="14" fill="#009af9" fill-rule="evenodd" fill-opacity="1" stroke="#000000" stroke-opacity="1" stroke-width="3.2"/>
<circle clip-path="url(#clip933)" cx="1896.69" cy="1443.56" r="14" fill="#009af9" fill-rule="evenodd" fill-opacity="1" stroke="#000000" stroke-opacity="1" stroke-width="3.2"/>
<circle clip-path="url(#clip933)" cx="1910.31" cy="1444.08" r="14" fill="#009af9" fill-rule="evenodd" fill-opacity="1" stroke="#000000" stroke-opacity="1" stroke-width="3.2"/>
<circle clip-path="url(#clip933)" cx="1923.94" cy="1444.49" r="14" fill="#009af9" fill-rule="evenodd" fill-opacity="1" stroke="#000000" stroke-opacity="1" stroke-width="3.2"/>
<circle clip-path="url(#clip933)" cx="1937.56" cy="1444.82" r="14" fill="#009af9" fill-rule="evenodd" fill-opacity="1" stroke="#000000" stroke-opacity="1" stroke-width="3.2"/>
<circle clip-path="url(#clip933)" cx="1951.19" cy="1445.07" r="14" fill="#009af9" fill-rule="evenodd" fill-opacity="1" stroke="#000000" stroke-opacity="1" stroke-width="3.2"/>
<circle clip-path="url(#clip933)" cx="1964.82" cy="1445.27" r="14" fill="#009af9" fill-rule="evenodd" fill-opacity="1" stroke="#000000" stroke-opacity="1" stroke-width="3.2"/>
<circle clip-path="url(#clip933)" cx="1978.44" cy="1445.42" r="14" fill="#009af9" fill-rule="evenodd" fill-opacity="1" stroke="#000000" stroke-opacity="1" stroke-width="3.2"/>
<circle clip-path="url(#clip933)" cx="1992.07" cy="1445.53" r="14" fill="#009af9" fill-rule="evenodd" fill-opacity="1" stroke="#000000" stroke-opacity="1" stroke-width="3.2"/>
<circle clip-path="url(#clip933)" cx="2005.7" cy="1445.6" r="14" fill="#009af9" fill-rule="evenodd" fill-opacity="1" stroke="#000000" stroke-opacity="1" stroke-width="3.2"/>
<circle clip-path="url(#clip933)" cx="2019.32" cy="1445.66" r="14" fill="#009af9" fill-rule="evenodd" fill-opacity="1" stroke="#000000" stroke-opacity="1" stroke-width="3.2"/>
<circle clip-path="url(#clip933)" cx="2032.95" cy="1445.69" r="14" fill="#009af9" fill-rule="evenodd" fill-opacity="1" stroke="#000000" stroke-opacity="1" stroke-width="3.2"/>
<circle clip-path="url(#clip933)" cx="2046.57" cy="1445.71" r="14" fill="#009af9" fill-rule="evenodd" fill-opacity="1" stroke="#000000" stroke-opacity="1" stroke-width="3.2"/>
<circle clip-path="url(#clip933)" cx="2060.2" cy="1445.72" r="14" fill="#009af9" fill-rule="evenodd" fill-opacity="1" stroke="#000000" stroke-opacity="1" stroke-width="3.2"/>
<circle clip-path="url(#clip933)" cx="2073.83" cy="1445.71" r="14" fill="#009af9" fill-rule="evenodd" fill-opacity="1" stroke="#000000" stroke-opacity="1" stroke-width="3.2"/>
<circle clip-path="url(#clip933)" cx="2087.45" cy="1445.7" r="14" fill="#009af9" fill-rule="evenodd" fill-opacity="1" stroke="#000000" stroke-opacity="1" stroke-width="3.2"/>
<circle clip-path="url(#clip933)" cx="2101.08" cy="1445.68" r="14" fill="#009af9" fill-rule="evenodd" fill-opacity="1" stroke="#000000" stroke-opacity="1" stroke-width="3.2"/>
<circle clip-path="url(#clip933)" cx="2114.71" cy="1445.66" r="14" fill="#009af9" fill-rule="evenodd" fill-opacity="1" stroke="#000000" stroke-opacity="1" stroke-width="3.2"/>
<circle clip-path="url(#clip933)" cx="2128.33" cy="1445.64" r="14" fill="#009af9" fill-rule="evenodd" fill-opacity="1" stroke="#000000" stroke-opacity="1" stroke-width="3.2"/>
<circle clip-path="url(#clip933)" cx="2141.96" cy="1445.61" r="14" fill="#009af9" fill-rule="evenodd" fill-opacity="1" stroke="#000000" stroke-opacity="1" stroke-width="3.2"/>
<circle clip-path="url(#clip933)" cx="2155.58" cy="1445.58" r="14" fill="#009af9" fill-rule="evenodd" fill-opacity="1" stroke="#000000" stroke-opacity="1" stroke-width="3.2"/>
<circle clip-path="url(#clip933)" cx="2169.21" cy="1445.56" r="14" fill="#009af9" fill-rule="evenodd" fill-opacity="1" stroke="#000000" stroke-opacity="1" stroke-width="3.2"/>
<circle clip-path="url(#clip933)" cx="2182.84" cy="1445.53" r="14" fill="#009af9" fill-rule="evenodd" fill-opacity="1" stroke="#000000" stroke-opacity="1" stroke-width="3.2"/>
<circle clip-path="url(#clip933)" cx="2196.46" cy="1445.51" r="14" fill="#009af9" fill-rule="evenodd" fill-opacity="1" stroke="#000000" stroke-opacity="1" stroke-width="3.2"/>
<circle clip-path="url(#clip933)" cx="2210.09" cy="1445.49" r="14" fill="#009af9" fill-rule="evenodd" fill-opacity="1" stroke="#000000" stroke-opacity="1" stroke-width="3.2"/>
<circle clip-path="url(#clip933)" cx="2223.72" cy="1445.47" r="14" fill="#009af9" fill-rule="evenodd" fill-opacity="1" stroke="#000000" stroke-opacity="1" stroke-width="3.2"/>
<circle clip-path="url(#clip933)" cx="2237.34" cy="1445.46" r="14" fill="#009af9" fill-rule="evenodd" fill-opacity="1" stroke="#000000" stroke-opacity="1" stroke-width="3.2"/>
<circle clip-path="url(#clip933)" cx="2250.97" cy="1445.45" r="14" fill="#009af9" fill-rule="evenodd" fill-opacity="1" stroke="#000000" stroke-opacity="1" stroke-width="3.2"/>
<circle clip-path="url(#clip933)" cx="2264.59" cy="1445.44" r="14" fill="#009af9" fill-rule="evenodd" fill-opacity="1" stroke="#000000" stroke-opacity="1" stroke-width="3.2"/>
<circle clip-path="url(#clip933)" cx="2278.22" cy="1445.43" r="14" fill="#009af9" fill-rule="evenodd" fill-opacity="1" stroke="#000000" stroke-opacity="1" stroke-width="3.2"/>
<circle clip-path="url(#clip933)" cx="2291.85" cy="1445.43" r="14" fill="#009af9" fill-rule="evenodd" fill-opacity="1" stroke="#000000" stroke-opacity="1" stroke-width="3.2"/>
<circle clip-path="url(#clip933)" cx="261.539" cy="1444.7" r="14" fill="#e26f46" fill-rule="evenodd" fill-opacity="1" stroke="#000000" stroke-opacity="1" stroke-width="3.2"/>
<circle clip-path="url(#clip933)" cx="275.166" cy="1444.7" r="14" fill="#e26f46" fill-rule="evenodd" fill-opacity="1" stroke="#000000" stroke-opacity="1" stroke-width="3.2"/>
<circle clip-path="url(#clip933)" cx="288.792" cy="1444.7" r="14" fill="#e26f46" fill-rule="evenodd" fill-opacity="1" stroke="#000000" stroke-opacity="1" stroke-width="3.2"/>
<circle clip-path="url(#clip933)" cx="302.418" cy="1444.71" r="14" fill="#e26f46" fill-rule="evenodd" fill-opacity="1" stroke="#000000" stroke-opacity="1" stroke-width="3.2"/>
<circle clip-path="url(#clip933)" cx="316.044" cy="1444.71" r="14" fill="#e26f46" fill-rule="evenodd" fill-opacity="1" stroke="#000000" stroke-opacity="1" stroke-width="3.2"/>
<circle clip-path="url(#clip933)" cx="329.671" cy="1444.72" r="14" fill="#e26f46" fill-rule="evenodd" fill-opacity="1" stroke="#000000" stroke-opacity="1" stroke-width="3.2"/>
<circle clip-path="url(#clip933)" cx="343.297" cy="1444.73" r="14" fill="#e26f46" fill-rule="evenodd" fill-opacity="1" stroke="#000000" stroke-opacity="1" stroke-width="3.2"/>
<circle clip-path="url(#clip933)" cx="356.923" cy="1444.74" r="14" fill="#e26f46" fill-rule="evenodd" fill-opacity="1" stroke="#000000" stroke-opacity="1" stroke-width="3.2"/>
<circle clip-path="url(#clip933)" cx="370.549" cy="1444.75" r="14" fill="#e26f46" fill-rule="evenodd" fill-opacity="1" stroke="#000000" stroke-opacity="1" stroke-width="3.2"/>
<circle clip-path="url(#clip933)" cx="384.175" cy="1444.77" r="14" fill="#e26f46" fill-rule="evenodd" fill-opacity="1" stroke="#000000" stroke-opacity="1" stroke-width="3.2"/>
<circle clip-path="url(#clip933)" cx="397.802" cy="1444.78" r="14" fill="#e26f46" fill-rule="evenodd" fill-opacity="1" stroke="#000000" stroke-opacity="1" stroke-width="3.2"/>
<circle clip-path="url(#clip933)" cx="411.428" cy="1444.8" r="14" fill="#e26f46" fill-rule="evenodd" fill-opacity="1" stroke="#000000" stroke-opacity="1" stroke-width="3.2"/>
<circle clip-path="url(#clip933)" cx="425.054" cy="1444.81" r="14" fill="#e26f46" fill-rule="evenodd" fill-opacity="1" stroke="#000000" stroke-opacity="1" stroke-width="3.2"/>
<circle clip-path="url(#clip933)" cx="438.68" cy="1444.83" r="14" fill="#e26f46" fill-rule="evenodd" fill-opacity="1" stroke="#000000" stroke-opacity="1" stroke-width="3.2"/>
<circle clip-path="url(#clip933)" cx="452.307" cy="1444.84" r="14" fill="#e26f46" fill-rule="evenodd" fill-opacity="1" stroke="#000000" stroke-opacity="1" stroke-width="3.2"/>
<circle clip-path="url(#clip933)" cx="465.933" cy="1444.86" r="14" fill="#e26f46" fill-rule="evenodd" fill-opacity="1" stroke="#000000" stroke-opacity="1" stroke-width="3.2"/>
<circle clip-path="url(#clip933)" cx="479.559" cy="1444.87" r="14" fill="#e26f46" fill-rule="evenodd" fill-opacity="1" stroke="#000000" stroke-opacity="1" stroke-width="3.2"/>
<circle clip-path="url(#clip933)" cx="493.185" cy="1444.89" r="14" fill="#e26f46" fill-rule="evenodd" fill-opacity="1" stroke="#000000" stroke-opacity="1" stroke-width="3.2"/>
<circle clip-path="url(#clip933)" cx="506.811" cy="1444.9" r="14" fill="#e26f46" fill-rule="evenodd" fill-opacity="1" stroke="#000000" stroke-opacity="1" stroke-width="3.2"/>
<circle clip-path="url(#clip933)" cx="520.438" cy="1444.9" r="14" fill="#e26f46" fill-rule="evenodd" fill-opacity="1" stroke="#000000" stroke-opacity="1" stroke-width="3.2"/>
<circle clip-path="url(#clip933)" cx="534.064" cy="1444.91" r="14" fill="#e26f46" fill-rule="evenodd" fill-opacity="1" stroke="#000000" stroke-opacity="1" stroke-width="3.2"/>
<circle clip-path="url(#clip933)" cx="547.69" cy="1444.9" r="14" fill="#e26f46" fill-rule="evenodd" fill-opacity="1" stroke="#000000" stroke-opacity="1" stroke-width="3.2"/>
<circle clip-path="url(#clip933)" cx="561.316" cy="1444.89" r="14" fill="#e26f46" fill-rule="evenodd" fill-opacity="1" stroke="#000000" stroke-opacity="1" stroke-width="3.2"/>
<circle clip-path="url(#clip933)" cx="574.943" cy="1444.87" r="14" fill="#e26f46" fill-rule="evenodd" fill-opacity="1" stroke="#000000" stroke-opacity="1" stroke-width="3.2"/>
<circle clip-path="url(#clip933)" cx="588.569" cy="1444.84" r="14" fill="#e26f46" fill-rule="evenodd" fill-opacity="1" stroke="#000000" stroke-opacity="1" stroke-width="3.2"/>
<circle clip-path="url(#clip933)" cx="602.195" cy="1444.8" r="14" fill="#e26f46" fill-rule="evenodd" fill-opacity="1" stroke="#000000" stroke-opacity="1" stroke-width="3.2"/>
<circle clip-path="url(#clip933)" cx="615.821" cy="1444.73" r="14" fill="#e26f46" fill-rule="evenodd" fill-opacity="1" stroke="#000000" stroke-opacity="1" stroke-width="3.2"/>
<circle clip-path="url(#clip933)" cx="629.447" cy="1444.64" r="14" fill="#e26f46" fill-rule="evenodd" fill-opacity="1" stroke="#000000" stroke-opacity="1" stroke-width="3.2"/>
<circle clip-path="url(#clip933)" cx="643.074" cy="1444.53" r="14" fill="#e26f46" fill-rule="evenodd" fill-opacity="1" stroke="#000000" stroke-opacity="1" stroke-width="3.2"/>
<circle clip-path="url(#clip933)" cx="656.7" cy="1444.38" r="14" fill="#e26f46" fill-rule="evenodd" fill-opacity="1" stroke="#000000" stroke-opacity="1" stroke-width="3.2"/>
<circle clip-path="url(#clip933)" cx="670.326" cy="1444.18" r="14" fill="#e26f46" fill-rule="evenodd" fill-opacity="1" stroke="#000000" stroke-opacity="1" stroke-width="3.2"/>
<circle clip-path="url(#clip933)" cx="683.952" cy="1443.94" r="14" fill="#e26f46" fill-rule="evenodd" fill-opacity="1" stroke="#000000" stroke-opacity="1" stroke-width="3.2"/>
<circle clip-path="url(#clip933)" cx="697.579" cy="1443.64" r="14" fill="#e26f46" fill-rule="evenodd" fill-opacity="1" stroke="#000000" stroke-opacity="1" stroke-width="3.2"/>
<circle clip-path="url(#clip933)" cx="711.205" cy="1443.26" r="14" fill="#e26f46" fill-rule="evenodd" fill-opacity="1" stroke="#000000" stroke-opacity="1" stroke-width="3.2"/>
<circle clip-path="url(#clip933)" cx="724.831" cy="1442.81" r="14" fill="#e26f46" fill-rule="evenodd" fill-opacity="1" stroke="#000000" stroke-opacity="1" stroke-width="3.2"/>
<circle clip-path="url(#clip933)" cx="738.457" cy="1442.25" r="14" fill="#e26f46" fill-rule="evenodd" fill-opacity="1" stroke="#000000" stroke-opacity="1" stroke-width="3.2"/>
<circle clip-path="url(#clip933)" cx="752.083" cy="1441.59" r="14" fill="#e26f46" fill-rule="evenodd" fill-opacity="1" stroke="#000000" stroke-opacity="1" stroke-width="3.2"/>
<circle clip-path="url(#clip933)" cx="765.71" cy="1440.8" r="14" fill="#e26f46" fill-rule="evenodd" fill-opacity="1" stroke="#000000" stroke-opacity="1" stroke-width="3.2"/>
<circle clip-path="url(#clip933)" cx="779.336" cy="1439.88" r="14" fill="#e26f46" fill-rule="evenodd" fill-opacity="1" stroke="#000000" stroke-opacity="1" stroke-width="3.2"/>
<circle clip-path="url(#clip933)" cx="792.962" cy="1438.83" r="14" fill="#e26f46" fill-rule="evenodd" fill-opacity="1" stroke="#000000" stroke-opacity="1" stroke-width="3.2"/>
<circle clip-path="url(#clip933)" cx="806.588" cy="1437.63" r="14" fill="#e26f46" fill-rule="evenodd" fill-opacity="1" stroke="#000000" stroke-opacity="1" stroke-width="3.2"/>
<circle clip-path="url(#clip933)" cx="820.215" cy="1436.32" r="14" fill="#e26f46" fill-rule="evenodd" fill-opacity="1" stroke="#000000" stroke-opacity="1" stroke-width="3.2"/>
<circle clip-path="url(#clip933)" cx="833.841" cy="1434.9" r="14" fill="#e26f46" fill-rule="evenodd" fill-opacity="1" stroke="#000000" stroke-opacity="1" stroke-width="3.2"/>
<circle clip-path="url(#clip933)" cx="847.467" cy="1433.44" r="14" fill="#e26f46" fill-rule="evenodd" fill-opacity="1" stroke="#000000" stroke-opacity="1" stroke-width="3.2"/>
<circle clip-path="url(#clip933)" cx="861.093" cy="1431.99" r="14" fill="#e26f46" fill-rule="evenodd" fill-opacity="1" stroke="#000000" stroke-opacity="1" stroke-width="3.2"/>
<circle clip-path="url(#clip933)" cx="874.72" cy="1430.62" r="14" fill="#e26f46" fill-rule="evenodd" fill-opacity="1" stroke="#000000" stroke-opacity="1" stroke-width="3.2"/>
<circle clip-path="url(#clip933)" cx="888.346" cy="1429.43" r="14" fill="#e26f46" fill-rule="evenodd" fill-opacity="1" stroke="#000000" stroke-opacity="1" stroke-width="3.2"/>
<circle clip-path="url(#clip933)" cx="901.972" cy="1428.49" r="14" fill="#e26f46" fill-rule="evenodd" fill-opacity="1" stroke="#000000" stroke-opacity="1" stroke-width="3.2"/>
<circle clip-path="url(#clip933)" cx="915.598" cy="1427.9" r="14" fill="#e26f46" fill-rule="evenodd" fill-opacity="1" stroke="#000000" stroke-opacity="1" stroke-width="3.2"/>
<circle clip-path="url(#clip933)" cx="929.224" cy="1427.7" r="14" fill="#e26f46" fill-rule="evenodd" fill-opacity="1" stroke="#000000" stroke-opacity="1" stroke-width="3.2"/>
<circle clip-path="url(#clip933)" cx="942.851" cy="1427.68" r="14" fill="#e26f46" fill-rule="evenodd" fill-opacity="1" stroke="#000000" stroke-opacity="1" stroke-width="3.2"/>
<circle clip-path="url(#clip933)" cx="956.477" cy="1427.64" r="14" fill="#e26f46" fill-rule="evenodd" fill-opacity="1" stroke="#000000" stroke-opacity="1" stroke-width="3.2"/>
<circle clip-path="url(#clip933)" cx="970.103" cy="1427.57" r="14" fill="#e26f46" fill-rule="evenodd" fill-opacity="1" stroke="#000000" stroke-opacity="1" stroke-width="3.2"/>
<circle clip-path="url(#clip933)" cx="983.729" cy="1427.48" r="14" fill="#e26f46" fill-rule="evenodd" fill-opacity="1" stroke="#000000" stroke-opacity="1" stroke-width="3.2"/>
<circle clip-path="url(#clip933)" cx="997.356" cy="1427.35" r="14" fill="#e26f46" fill-rule="evenodd" fill-opacity="1" stroke="#000000" stroke-opacity="1" stroke-width="3.2"/>
<circle clip-path="url(#clip933)" cx="1010.98" cy="1427.19" r="14" fill="#e26f46" fill-rule="evenodd" fill-opacity="1" stroke="#000000" stroke-opacity="1" stroke-width="3.2"/>
<circle clip-path="url(#clip933)" cx="1024.61" cy="1427.01" r="14" fill="#e26f46" fill-rule="evenodd" fill-opacity="1" stroke="#000000" stroke-opacity="1" stroke-width="3.2"/>
<circle clip-path="url(#clip933)" cx="1038.23" cy="1426.79" r="14" fill="#e26f46" fill-rule="evenodd" fill-opacity="1" stroke="#000000" stroke-opacity="1" stroke-width="3.2"/>
<circle clip-path="url(#clip933)" cx="1051.86" cy="1426.53" r="14" fill="#e26f46" fill-rule="evenodd" fill-opacity="1" stroke="#000000" stroke-opacity="1" stroke-width="3.2"/>
<circle clip-path="url(#clip933)" cx="1065.49" cy="1426.24" r="14" fill="#e26f46" fill-rule="evenodd" fill-opacity="1" stroke="#000000" stroke-opacity="1" stroke-width="3.2"/>
<circle clip-path="url(#clip933)" cx="1079.11" cy="1425.92" r="14" fill="#e26f46" fill-rule="evenodd" fill-opacity="1" stroke="#000000" stroke-opacity="1" stroke-width="3.2"/>
<circle clip-path="url(#clip933)" cx="1092.74" cy="1425.55" r="14" fill="#e26f46" fill-rule="evenodd" fill-opacity="1" stroke="#000000" stroke-opacity="1" stroke-width="3.2"/>
<circle clip-path="url(#clip933)" cx="1106.37" cy="1425.13" r="14" fill="#e26f46" fill-rule="evenodd" fill-opacity="1" stroke="#000000" stroke-opacity="1" stroke-width="3.2"/>
<circle clip-path="url(#clip933)" cx="1119.99" cy="1424.67" r="14" fill="#e26f46" fill-rule="evenodd" fill-opacity="1" stroke="#000000" stroke-opacity="1" stroke-width="3.2"/>
<circle clip-path="url(#clip933)" cx="1133.62" cy="1424.16" r="14" fill="#e26f46" fill-rule="evenodd" fill-opacity="1" stroke="#000000" stroke-opacity="1" stroke-width="3.2"/>
<circle clip-path="url(#clip933)" cx="1147.24" cy="1423.59" r="14" fill="#e26f46" fill-rule="evenodd" fill-opacity="1" stroke="#000000" stroke-opacity="1" stroke-width="3.2"/>
<circle clip-path="url(#clip933)" cx="1160.87" cy="1422.97" r="14" fill="#e26f46" fill-rule="evenodd" fill-opacity="1" stroke="#000000" stroke-opacity="1" stroke-width="3.2"/>
<circle clip-path="url(#clip933)" cx="1174.5" cy="1422.27" r="14" fill="#e26f46" fill-rule="evenodd" fill-opacity="1" stroke="#000000" stroke-opacity="1" stroke-width="3.2"/>
<circle clip-path="url(#clip933)" cx="1188.12" cy="1421.5" r="14" fill="#e26f46" fill-rule="evenodd" fill-opacity="1" stroke="#000000" stroke-opacity="1" stroke-width="3.2"/>
<circle clip-path="url(#clip933)" cx="1201.75" cy="1420.65" r="14" fill="#e26f46" fill-rule="evenodd" fill-opacity="1" stroke="#000000" stroke-opacity="1" stroke-width="3.2"/>
<circle clip-path="url(#clip933)" cx="1215.38" cy="1419.71" r="14" fill="#e26f46" fill-rule="evenodd" fill-opacity="1" stroke="#000000" stroke-opacity="1" stroke-width="3.2"/>
<circle clip-path="url(#clip933)" cx="1229" cy="1418.66" r="14" fill="#e26f46" fill-rule="evenodd" fill-opacity="1" stroke="#000000" stroke-opacity="1" stroke-width="3.2"/>
<circle clip-path="url(#clip933)" cx="1242.63" cy="1417.5" r="14" fill="#e26f46" fill-rule="evenodd" fill-opacity="1" stroke="#000000" stroke-opacity="1" stroke-width="3.2"/>
<circle clip-path="url(#clip933)" cx="1256.25" cy="1416.22" r="14" fill="#e26f46" fill-rule="evenodd" fill-opacity="1" stroke="#000000" stroke-opacity="1" stroke-width="3.2"/>
<circle clip-path="url(#clip933)" cx="1269.88" cy="1414.79" r="14" fill="#e26f46" fill-rule="evenodd" fill-opacity="1" stroke="#000000" stroke-opacity="1" stroke-width="3.2"/>
<circle clip-path="url(#clip933)" cx="1283.51" cy="1413.2" r="14" fill="#e26f46" fill-rule="evenodd" fill-opacity="1" stroke="#000000" stroke-opacity="1" stroke-width="3.2"/>
<circle clip-path="url(#clip933)" cx="1297.13" cy="1411.42" r="14" fill="#e26f46" fill-rule="evenodd" fill-opacity="1" stroke="#000000" stroke-opacity="1" stroke-width="3.2"/>
<circle clip-path="url(#clip933)" cx="1310.76" cy="1409.44" r="14" fill="#e26f46" fill-rule="evenodd" fill-opacity="1" stroke="#000000" stroke-opacity="1" stroke-width="3.2"/>
<circle clip-path="url(#clip933)" cx="1324.38" cy="1407.21" r="14" fill="#e26f46" fill-rule="evenodd" fill-opacity="1" stroke="#000000" stroke-opacity="1" stroke-width="3.2"/>
<circle clip-path="url(#clip933)" cx="1338.01" cy="1404.71" r="14" fill="#e26f46" fill-rule="evenodd" fill-opacity="1" stroke="#000000" stroke-opacity="1" stroke-width="3.2"/>
<circle clip-path="url(#clip933)" cx="1351.64" cy="1401.91" r="14" fill="#e26f46" fill-rule="evenodd" fill-opacity="1" stroke="#000000" stroke-opacity="1" stroke-width="3.2"/>
<circle clip-path="url(#clip933)" cx="1365.26" cy="1398.74" r="14" fill="#e26f46" fill-rule="evenodd" fill-opacity="1" stroke="#000000" stroke-opacity="1" stroke-width="3.2"/>
<circle clip-path="url(#clip933)" cx="1378.89" cy="1395.16" r="14" fill="#e26f46" fill-rule="evenodd" fill-opacity="1" stroke="#000000" stroke-opacity="1" stroke-width="3.2"/>
<circle clip-path="url(#clip933)" cx="1392.52" cy="1391.11" r="14" fill="#e26f46" fill-rule="evenodd" fill-opacity="1" stroke="#000000" stroke-opacity="1" stroke-width="3.2"/>
<circle clip-path="url(#clip933)" cx="1406.14" cy="1386.51" r="14" fill="#e26f46" fill-rule="evenodd" fill-opacity="1" stroke="#000000" stroke-opacity="1" stroke-width="3.2"/>
<circle clip-path="url(#clip933)" cx="1419.77" cy="1381.31" r="14" fill="#e26f46" fill-rule="evenodd" fill-opacity="1" stroke="#000000" stroke-opacity="1" stroke-width="3.2"/>
<circle clip-path="url(#clip933)" cx="1433.39" cy="1375.4" r="14" fill="#e26f46" fill-rule="evenodd" fill-opacity="1" stroke="#000000" stroke-opacity="1" stroke-width="3.2"/>
<circle clip-path="url(#clip933)" cx="1447.02" cy="1368.71" r="14" fill="#e26f46" fill-rule="evenodd" fill-opacity="1" stroke="#000000" stroke-opacity="1" stroke-width="3.2"/>
<circle clip-path="url(#clip933)" cx="1460.65" cy="1361.16" r="14" fill="#e26f46" fill-rule="evenodd" fill-opacity="1" stroke="#000000" stroke-opacity="1" stroke-width="3.2"/>
<circle clip-path="url(#clip933)" cx="1474.27" cy="1352.69" r="14" fill="#e26f46" fill-rule="evenodd" fill-opacity="1" stroke="#000000" stroke-opacity="1" stroke-width="3.2"/>
<circle clip-path="url(#clip933)" cx="1487.9" cy="1343.25" r="14" fill="#e26f46" fill-rule="evenodd" fill-opacity="1" stroke="#000000" stroke-opacity="1" stroke-width="3.2"/>
<circle clip-path="url(#clip933)" cx="1501.53" cy="1332.89" r="14" fill="#e26f46" fill-rule="evenodd" fill-opacity="1" stroke="#000000" stroke-opacity="1" stroke-width="3.2"/>
<circle clip-path="url(#clip933)" cx="1515.15" cy="1321.71" r="14" fill="#e26f46" fill-rule="evenodd" fill-opacity="1" stroke="#000000" stroke-opacity="1" stroke-width="3.2"/>
<circle clip-path="url(#clip933)" cx="1528.78" cy="1309.96" r="14" fill="#e26f46" fill-rule="evenodd" fill-opacity="1" stroke="#000000" stroke-opacity="1" stroke-width="3.2"/>
<circle clip-path="url(#clip933)" cx="1542.4" cy="1298.07" r="14" fill="#e26f46" fill-rule="evenodd" fill-opacity="1" stroke="#000000" stroke-opacity="1" stroke-width="3.2"/>
<circle clip-path="url(#clip933)" cx="1556.03" cy="1286.62" r="14" fill="#e26f46" fill-rule="evenodd" fill-opacity="1" stroke="#000000" stroke-opacity="1" stroke-width="3.2"/>
<circle clip-path="url(#clip933)" cx="1569.66" cy="1276.4" r="14" fill="#e26f46" fill-rule="evenodd" fill-opacity="1" stroke="#000000" stroke-opacity="1" stroke-width="3.2"/>
<circle clip-path="url(#clip933)" cx="1583.28" cy="1268.24" r="14" fill="#e26f46" fill-rule="evenodd" fill-opacity="1" stroke="#000000" stroke-opacity="1" stroke-width="3.2"/>
<circle clip-path="url(#clip933)" cx="1596.91" cy="1262.96" r="14" fill="#e26f46" fill-rule="evenodd" fill-opacity="1" stroke="#000000" stroke-opacity="1" stroke-width="3.2"/>
<circle clip-path="url(#clip933)" cx="1610.54" cy="1261.13" r="14" fill="#e26f46" fill-rule="evenodd" fill-opacity="1" stroke="#000000" stroke-opacity="1" stroke-width="3.2"/>
<circle clip-path="url(#clip933)" cx="1624.16" cy="1264.77" r="14" fill="#e26f46" fill-rule="evenodd" fill-opacity="1" stroke="#000000" stroke-opacity="1" stroke-width="3.2"/>
<circle clip-path="url(#clip933)" cx="1637.79" cy="1275.02" r="14" fill="#e26f46" fill-rule="evenodd" fill-opacity="1" stroke="#000000" stroke-opacity="1" stroke-width="3.2"/>
<circle clip-path="url(#clip933)" cx="1651.41" cy="1290.13" r="14" fill="#e26f46" fill-rule="evenodd" fill-opacity="1" stroke="#000000" stroke-opacity="1" stroke-width="3.2"/>
<circle clip-path="url(#clip933)" cx="1665.04" cy="1307.96" r="14" fill="#e26f46" fill-rule="evenodd" fill-opacity="1" stroke="#000000" stroke-opacity="1" stroke-width="3.2"/>
<circle clip-path="url(#clip933)" cx="1678.67" cy="1326.52" r="14" fill="#e26f46" fill-rule="evenodd" fill-opacity="1" stroke="#000000" stroke-opacity="1" stroke-width="3.2"/>
<circle clip-path="url(#clip933)" cx="1692.29" cy="1344.37" r="14" fill="#e26f46" fill-rule="evenodd" fill-opacity="1" stroke="#000000" stroke-opacity="1" stroke-width="3.2"/>
<circle clip-path="url(#clip933)" cx="1705.92" cy="1360.65" r="14" fill="#e26f46" fill-rule="evenodd" fill-opacity="1" stroke="#000000" stroke-opacity="1" stroke-width="3.2"/>
<circle clip-path="url(#clip933)" cx="1719.55" cy="1374.96" r="14" fill="#e26f46" fill-rule="evenodd" fill-opacity="1" stroke="#000000" stroke-opacity="1" stroke-width="3.2"/>
<circle clip-path="url(#clip933)" cx="1733.17" cy="1387.25" r="14" fill="#e26f46" fill-rule="evenodd" fill-opacity="1" stroke="#000000" stroke-opacity="1" stroke-width="3.2"/>
<circle clip-path="url(#clip933)" cx="1746.8" cy="1397.61" r="14" fill="#e26f46" fill-rule="evenodd" fill-opacity="1" stroke="#000000" stroke-opacity="1" stroke-width="3.2"/>
<circle clip-path="url(#clip933)" cx="1760.42" cy="1406.26" r="14" fill="#e26f46" fill-rule="evenodd" fill-opacity="1" stroke="#000000" stroke-opacity="1" stroke-width="3.2"/>
<circle clip-path="url(#clip933)" cx="1774.05" cy="1413.43" r="14" fill="#e26f46" fill-rule="evenodd" fill-opacity="1" stroke="#000000" stroke-opacity="1" stroke-width="3.2"/>
<circle clip-path="url(#clip933)" cx="1787.68" cy="1419.33" r="14" fill="#e26f46" fill-rule="evenodd" fill-opacity="1" stroke="#000000" stroke-opacity="1" stroke-width="3.2"/>
<circle clip-path="url(#clip933)" cx="1801.3" cy="1424.18" r="14" fill="#e26f46" fill-rule="evenodd" fill-opacity="1" stroke="#000000" stroke-opacity="1" stroke-width="3.2"/>
<circle clip-path="url(#clip933)" cx="1814.93" cy="1428.15" r="14" fill="#e26f46" fill-rule="evenodd" fill-opacity="1" stroke="#000000" stroke-opacity="1" stroke-width="3.2"/>
<circle clip-path="url(#clip933)" cx="1828.56" cy="1431.4" r="14" fill="#e26f46" fill-rule="evenodd" fill-opacity="1" stroke="#000000" stroke-opacity="1" stroke-width="3.2"/>
<circle clip-path="url(#clip933)" cx="1842.18" cy="1434.05" r="14" fill="#e26f46" fill-rule="evenodd" fill-opacity="1" stroke="#000000" stroke-opacity="1" stroke-width="3.2"/>
<circle clip-path="url(#clip933)" cx="1855.81" cy="1436.2" r="14" fill="#e26f46" fill-rule="evenodd" fill-opacity="1" stroke="#000000" stroke-opacity="1" stroke-width="3.2"/>
<circle clip-path="url(#clip933)" cx="1869.43" cy="1437.96" r="14" fill="#e26f46" fill-rule="evenodd" fill-opacity="1" stroke="#000000" stroke-opacity="1" stroke-width="3.2"/>
<circle clip-path="url(#clip933)" cx="1883.06" cy="1439.39" r="14" fill="#e26f46" fill-rule="evenodd" fill-opacity="1" stroke="#000000" stroke-opacity="1" stroke-width="3.2"/>
<circle clip-path="url(#clip933)" cx="1896.69" cy="1440.55" r="14" fill="#e26f46" fill-rule="evenodd" fill-opacity="1" stroke="#000000" stroke-opacity="1" stroke-width="3.2"/>
<circle clip-path="url(#clip933)" cx="1910.31" cy="1441.49" r="14" fill="#e26f46" fill-rule="evenodd" fill-opacity="1" stroke="#000000" stroke-opacity="1" stroke-width="3.2"/>
<circle clip-path="url(#clip933)" cx="1923.94" cy="1442.24" r="14" fill="#e26f46" fill-rule="evenodd" fill-opacity="1" stroke="#000000" stroke-opacity="1" stroke-width="3.2"/>
<circle clip-path="url(#clip933)" cx="1937.56" cy="1442.85" r="14" fill="#e26f46" fill-rule="evenodd" fill-opacity="1" stroke="#000000" stroke-opacity="1" stroke-width="3.2"/>
<circle clip-path="url(#clip933)" cx="1951.19" cy="1443.33" r="14" fill="#e26f46" fill-rule="evenodd" fill-opacity="1" stroke="#000000" stroke-opacity="1" stroke-width="3.2"/>
<circle clip-path="url(#clip933)" cx="1964.82" cy="1443.72" r="14" fill="#e26f46" fill-rule="evenodd" fill-opacity="1" stroke="#000000" stroke-opacity="1" stroke-width="3.2"/>
<circle clip-path="url(#clip933)" cx="1978.44" cy="1444.02" r="14" fill="#e26f46" fill-rule="evenodd" fill-opacity="1" stroke="#000000" stroke-opacity="1" stroke-width="3.2"/>
<circle clip-path="url(#clip933)" cx="1992.07" cy="1444.26" r="14" fill="#e26f46" fill-rule="evenodd" fill-opacity="1" stroke="#000000" stroke-opacity="1" stroke-width="3.2"/>
<circle clip-path="url(#clip933)" cx="2005.7" cy="1444.44" r="14" fill="#e26f46" fill-rule="evenodd" fill-opacity="1" stroke="#000000" stroke-opacity="1" stroke-width="3.2"/>
<circle clip-path="url(#clip933)" cx="2019.32" cy="1444.58" r="14" fill="#e26f46" fill-rule="evenodd" fill-opacity="1" stroke="#000000" stroke-opacity="1" stroke-width="3.2"/>
<circle clip-path="url(#clip933)" cx="2032.95" cy="1444.68" r="14" fill="#e26f46" fill-rule="evenodd" fill-opacity="1" stroke="#000000" stroke-opacity="1" stroke-width="3.2"/>
<circle clip-path="url(#clip933)" cx="2046.57" cy="1444.75" r="14" fill="#e26f46" fill-rule="evenodd" fill-opacity="1" stroke="#000000" stroke-opacity="1" stroke-width="3.2"/>
<circle clip-path="url(#clip933)" cx="2060.2" cy="1444.8" r="14" fill="#e26f46" fill-rule="evenodd" fill-opacity="1" stroke="#000000" stroke-opacity="1" stroke-width="3.2"/>
<circle clip-path="url(#clip933)" cx="2073.83" cy="1444.83" r="14" fill="#e26f46" fill-rule="evenodd" fill-opacity="1" stroke="#000000" stroke-opacity="1" stroke-width="3.2"/>
<circle clip-path="url(#clip933)" cx="2087.45" cy="1444.85" r="14" fill="#e26f46" fill-rule="evenodd" fill-opacity="1" stroke="#000000" stroke-opacity="1" stroke-width="3.2"/>
<circle clip-path="url(#clip933)" cx="2101.08" cy="1444.86" r="14" fill="#e26f46" fill-rule="evenodd" fill-opacity="1" stroke="#000000" stroke-opacity="1" stroke-width="3.2"/>
<circle clip-path="url(#clip933)" cx="2114.71" cy="1444.85" r="14" fill="#e26f46" fill-rule="evenodd" fill-opacity="1" stroke="#000000" stroke-opacity="1" stroke-width="3.2"/>
<circle clip-path="url(#clip933)" cx="2128.33" cy="1444.84" r="14" fill="#e26f46" fill-rule="evenodd" fill-opacity="1" stroke="#000000" stroke-opacity="1" stroke-width="3.2"/>
<circle clip-path="url(#clip933)" cx="2141.96" cy="1444.83" r="14" fill="#e26f46" fill-rule="evenodd" fill-opacity="1" stroke="#000000" stroke-opacity="1" stroke-width="3.2"/>
<circle clip-path="url(#clip933)" cx="2155.58" cy="1444.82" r="14" fill="#e26f46" fill-rule="evenodd" fill-opacity="1" stroke="#000000" stroke-opacity="1" stroke-width="3.2"/>
<circle clip-path="url(#clip933)" cx="2169.21" cy="1444.8" r="14" fill="#e26f46" fill-rule="evenodd" fill-opacity="1" stroke="#000000" stroke-opacity="1" stroke-width="3.2"/>
<circle clip-path="url(#clip933)" cx="2182.84" cy="1444.78" r="14" fill="#e26f46" fill-rule="evenodd" fill-opacity="1" stroke="#000000" stroke-opacity="1" stroke-width="3.2"/>
<circle clip-path="url(#clip933)" cx="2196.46" cy="1444.76" r="14" fill="#e26f46" fill-rule="evenodd" fill-opacity="1" stroke="#000000" stroke-opacity="1" stroke-width="3.2"/>
<circle clip-path="url(#clip933)" cx="2210.09" cy="1444.75" r="14" fill="#e26f46" fill-rule="evenodd" fill-opacity="1" stroke="#000000" stroke-opacity="1" stroke-width="3.2"/>
<circle clip-path="url(#clip933)" cx="2223.72" cy="1444.73" r="14" fill="#e26f46" fill-rule="evenodd" fill-opacity="1" stroke="#000000" stroke-opacity="1" stroke-width="3.2"/>
<circle clip-path="url(#clip933)" cx="2237.34" cy="1444.72" r="14" fill="#e26f46" fill-rule="evenodd" fill-opacity="1" stroke="#000000" stroke-opacity="1" stroke-width="3.2"/>
<circle clip-path="url(#clip933)" cx="2250.97" cy="1444.71" r="14" fill="#e26f46" fill-rule="evenodd" fill-opacity="1" stroke="#000000" stroke-opacity="1" stroke-width="3.2"/>
<circle clip-path="url(#clip933)" cx="2264.59" cy="1444.7" r="14" fill="#e26f46" fill-rule="evenodd" fill-opacity="1" stroke="#000000" stroke-opacity="1" stroke-width="3.2"/>
<circle clip-path="url(#clip933)" cx="2278.22" cy="1444.7" r="14" fill="#e26f46" fill-rule="evenodd" fill-opacity="1" stroke="#000000" stroke-opacity="1" stroke-width="3.2"/>
<circle clip-path="url(#clip933)" cx="2291.85" cy="1444.69" r="14" fill="#e26f46" fill-rule="evenodd" fill-opacity="1" stroke="#000000" stroke-opacity="1" stroke-width="3.2"/>
<path clip-path="url(#clip930)" d="
M1831.34 282.106 L2281.02 282.106 L2281.02 95.2176 L1831.34 95.2176  Z
  " fill="#ffffff" fill-rule="evenodd" fill-opacity="1"/>
<polyline clip-path="url(#clip930)" style="stroke:#000000; stroke-linecap:butt; stroke-linejoin:round; stroke-width:4; stroke-opacity:1; fill:none" points="
  1831.34,282.106 2281.02,282.106 2281.02,95.2176 1831.34,95.2176 1831.34,282.106 
  "/>
<circle clip-path="url(#clip930)" cx="1926.99" cy="157.514" r="23" fill="#009af9" fill-rule="evenodd" fill-opacity="1" stroke="#000000" stroke-opacity="1" stroke-width="5.12"/>
<path clip-path="url(#clip930)" d="M2022.64 147.213 L2023.56 136.439 L2052.86 136.439 L2053.77 147.213 L2052.58 147.213 Q2052.39 145.059 2052.2 143.817 Q2052.04 142.576 2051.62 141.405 Q2051.22 140.21 2050.7 139.648 Q2050.21 139.062 2049.25 138.617 Q2048.29 138.149 2047.05 138.032 Q2045.81 137.915 2043.93 137.915 Q2041.73 137.915 2041.19 138.008 Q2040.61 138.149 2040.47 138.571 Q2040.33 138.969 2040.33 139.835 L2040.33 165.108 Q2040.33 166.069 2040.52 166.467 Q2040.73 166.842 2041.83 167.146 Q2042.93 167.427 2045.36 167.427 L2047.28 167.427 L2047.28 168.903 Q2045.32 168.762 2038.17 168.762 Q2031.08 168.762 2029.11 168.903 L2029.11 167.427 L2031.03 167.427 Q2033.46 167.427 2034.57 167.146 Q2035.69 166.842 2035.88 166.467 Q2036.06 166.069 2036.06 165.108 L2036.06 139.835 Q2036.06 139.156 2036.02 138.875 Q2035.97 138.594 2035.76 138.36 Q2035.55 138.102 2035.06 138.008 Q2034.59 137.915 2032.48 137.915 Q2030.61 137.915 2029.34 138.032 Q2028.1 138.149 2027.14 138.617 Q2026.18 139.062 2025.67 139.648 Q2025.17 140.21 2024.75 141.405 Q2024.35 142.576 2024.19 143.817 Q2024.03 145.059 2023.84 147.213 L2022.64 147.213 Z" fill="#000000" fill-rule="evenodd" fill-opacity="1" /><path clip-path="url(#clip930)" d="M2060.82 168.903 L2060.82 167.427 Q2063.37 167.427 2063.96 167.123 Q2064.57 166.795 2064.57 165.249 L2064.57 152.39 Q2064.57 150.61 2063.93 150.165 Q2063.32 149.72 2060.82 149.72 L2060.82 148.221 L2067.49 147.705 L2067.49 152.975 Q2068.17 150.914 2069.6 149.322 Q2071.05 147.705 2073.4 147.705 Q2074.94 147.705 2075.92 148.572 Q2076.93 149.439 2076.93 150.633 Q2076.93 151.687 2076.28 152.226 Q2075.64 152.741 2074.87 152.741 Q2074 152.741 2073.4 152.202 Q2072.81 151.64 2072.81 150.68 Q2072.81 150.094 2073.07 149.649 Q2073.35 149.181 2073.56 149.017 Q2073.77 148.853 2073.91 148.806 Q2073.82 148.759 2073.4 148.759 Q2070.75 148.759 2069.23 151.406 Q2067.73 154.029 2067.73 157.777 L2067.73 165.155 Q2067.73 166.537 2068.29 166.982 Q2068.87 167.427 2071.38 167.427 L2072.39 167.427 L2072.39 168.903 Q2070.47 168.762 2066.3 168.762 Q2065.71 168.762 2064.8 168.786 Q2063.89 168.809 2062.69 168.856 Q2061.5 168.903 2060.82 168.903 Z" fill="#000000" fill-rule="evenodd" fill-opacity="1" /><path clip-path="url(#clip930)" d="M2079.37 156.91 Q2079.37 148.806 2082.39 142.271 Q2083.68 139.531 2085.49 137.236 Q2087.29 134.94 2088.48 133.933 Q2089.68 132.926 2090.01 132.926 Q2090.47 132.926 2090.5 133.394 Q2090.5 133.628 2089.87 134.214 Q2082.14 142.084 2082.16 156.91 Q2082.16 171.784 2089.68 179.349 Q2090.5 180.169 2090.5 180.427 Q2090.5 180.895 2090.01 180.895 Q2089.68 180.895 2088.53 179.935 Q2087.38 178.974 2085.6 176.773 Q2083.82 174.571 2082.53 171.877 Q2079.37 165.342 2079.37 156.91 Z" fill="#000000" fill-rule="evenodd" fill-opacity="1" /><path clip-path="url(#clip930)" d="M2115.2 149.954 Q2115.2 149.977 2115.06 150.821 L2109.72 172.112 Q2109.43 173.236 2108.64 174.36 Q2107.87 175.508 2106.62 176.492 Q2105.41 177.499 2103.53 178.108 Q2101.68 178.74 2099.55 178.74 Q2096.15 178.74 2094.66 178.014 Q2093.18 177.311 2093.18 175.812 Q2093.18 174.501 2094 173.751 Q2094.82 173.025 2095.76 173.025 Q2096.65 173.025 2097.11 173.54 Q2097.58 174.056 2097.58 174.711 Q2097.58 175.438 2097.09 176.164 Q2096.6 176.913 2095.62 177.194 Q2097.18 177.686 2099.46 177.686 Q2104.26 177.686 2106.32 172.603 Q2106.37 172.533 2106.37 172.51 L2107.96 166.162 L2107.89 166.115 Q2107.49 166.584 2106.86 167.123 Q2106.25 167.638 2104.94 168.27 Q2103.63 168.903 2102.34 168.903 Q2099.64 168.903 2097.79 166.842 Q2095.97 164.757 2095.97 161.314 Q2095.97 158.808 2096.97 156.301 Q2098 153.772 2099.6 151.921 Q2101.21 150.048 2103.27 148.876 Q2105.36 147.705 2107.37 147.705 Q2108.78 147.705 2109.97 148.549 Q2111.17 149.368 2111.82 150.727 Q2111.94 149.603 2112.57 149.134 Q2113.23 148.666 2113.79 148.666 Q2114.42 148.666 2114.8 149.017 Q2115.2 149.345 2115.2 149.954 M2111.26 152.882 Q2111.26 152.741 2111.17 152.366 Q2111.07 151.968 2110.79 151.336 Q2110.54 150.703 2110.14 150.141 Q2109.74 149.579 2109.01 149.181 Q2108.31 148.759 2107.42 148.759 Q2105.97 148.759 2104.52 149.977 Q2103.06 151.172 2102.06 153.022 Q2101.12 154.802 2100.23 158.245 Q2099.36 161.689 2099.36 163.445 Q2099.36 165.179 2100.11 166.514 Q2100.86 167.849 2102.48 167.849 Q2104.35 167.849 2106.37 166.115 Q2108.45 164.312 2108.8 162.766 L2111.12 153.608 Q2111.26 153.046 2111.26 152.882 Z" fill="#000000" fill-rule="evenodd" fill-opacity="1" /><path clip-path="url(#clip930)" d="M2115.82 180.427 Q2115.82 180.192 2116.43 179.607 Q2124.15 171.737 2124.15 156.91 Q2124.15 142.037 2116.73 134.519 Q2115.82 133.652 2115.82 133.394 Q2115.82 132.926 2116.28 132.926 Q2116.61 132.926 2117.76 133.886 Q2118.93 134.846 2120.69 137.048 Q2122.47 139.25 2123.78 141.943 Q2126.94 148.478 2126.94 156.91 Q2126.94 165.015 2123.92 171.549 Q2122.63 174.29 2120.83 176.585 Q2119.03 178.881 2117.83 179.888 Q2116.64 180.895 2116.28 180.895 Q2115.82 180.895 2115.82 180.427 Z" fill="#000000" fill-rule="evenodd" fill-opacity="1" /><path clip-path="url(#clip930)" d="M2135.4 192.021 Q2131.95 188.463 2131.95 183.364 Q2131.95 178.249 2135.43 174.707 Q2138.9 171.166 2143.63 171.166 Q2144.81 171.166 2145.81 171.444 Q2146.82 171.707 2147.63 172.248 Q2148.43 172.772 2148.84 173.133 Q2149.27 173.478 2149.84 174.051 L2151.53 171.576 Q2151.79 171.166 2152.05 171.166 Q2152.33 171.166 2152.38 171.33 Q2152.43 171.477 2152.43 171.969 L2152.43 179.937 Q2152.43 180.478 2152.36 180.61 Q2152.3 180.741 2151.89 180.741 Q2151.56 180.741 2151.5 180.642 Q2151.43 180.544 2151.35 180.167 Q2150.84 176.544 2148.81 174.379 Q2146.79 172.215 2144.04 172.215 Q2143.23 172.215 2142.33 172.395 Q2141.45 172.576 2140.13 173.264 Q2138.84 173.953 2137.84 175.084 Q2136.85 176.199 2136.13 178.363 Q2135.41 180.511 2135.41 183.364 Q2135.41 186.184 2136.13 188.348 Q2136.85 190.513 2137.85 191.644 Q2138.87 192.759 2140.18 193.464 Q2141.51 194.169 2142.45 194.366 Q2143.4 194.546 2144.23 194.546 Q2144.81 194.546 2145.48 194.431 Q2146.15 194.3 2147.15 193.939 Q2148.17 193.562 2148.81 192.677 Q2149.45 191.792 2149.45 190.48 L2149.45 188.332 Q2149.45 187.332 2148.95 187.02 Q2148.46 186.709 2146.31 186.709 L2145.25 186.709 L2145.25 185.676 Q2146.46 185.774 2150.64 185.774 Q2151.02 185.774 2154.74 185.676 L2154.74 186.709 Q2153.14 186.709 2152.77 186.955 Q2152.43 187.184 2152.43 188.184 L2152.43 194.038 Q2152.43 194.808 2152.14 194.808 Q2151.87 194.808 2151.09 194.054 Q2150.32 193.3 2149.97 192.726 Q2149.17 194.136 2147.41 194.858 Q2145.68 195.579 2143.69 195.579 Q2138.85 195.579 2135.4 192.021 Z" fill="#000000" fill-rule="evenodd" fill-opacity="1" /><path clip-path="url(#clip930)" d="M2157.2 194.841 L2157.2 193.808 Q2158.99 193.808 2159.4 193.595 Q2159.83 193.366 2159.83 192.283 L2159.83 183.282 Q2159.83 182.036 2159.38 181.725 Q2158.96 181.413 2157.2 181.413 L2157.2 180.364 L2161.88 180.003 L2161.88 183.692 Q2162.35 182.249 2163.35 181.134 Q2164.37 180.003 2166.01 180.003 Q2167.09 180.003 2167.78 180.61 Q2168.48 181.216 2168.48 182.052 Q2168.48 182.79 2168.02 183.167 Q2167.58 183.528 2167.04 183.528 Q2166.43 183.528 2166.01 183.151 Q2165.6 182.757 2165.6 182.085 Q2165.6 181.675 2165.78 181.364 Q2165.98 181.036 2166.12 180.921 Q2166.27 180.806 2166.37 180.774 Q2166.3 180.741 2166.01 180.741 Q2164.16 180.741 2163.09 182.594 Q2162.04 184.43 2162.04 187.053 L2162.04 192.218 Q2162.04 193.185 2162.43 193.497 Q2162.84 193.808 2164.6 193.808 L2165.3 193.808 L2165.3 194.841 Q2163.96 194.743 2161.04 194.743 Q2160.63 194.743 2159.99 194.759 Q2159.35 194.776 2158.52 194.808 Q2157.68 194.841 2157.2 194.841 Z" fill="#000000" fill-rule="evenodd" fill-opacity="1" /><path clip-path="url(#clip930)" d="M2170.92 187.447 Q2170.92 184.282 2172.95 182.036 Q2174.98 179.79 2177.9 179.79 Q2180.85 179.79 2182.38 181.708 Q2183.92 183.626 2183.92 186.381 Q2183.92 186.889 2183.79 186.988 Q2183.66 187.086 2183.08 187.086 L2173.7 187.086 Q2173.7 190.513 2174.72 192.119 Q2176.13 194.366 2178.51 194.366 Q2178.84 194.366 2179.23 194.3 Q2179.62 194.234 2180.43 193.956 Q2181.23 193.661 2181.93 192.89 Q2182.64 192.119 2183.05 190.906 Q2183.15 190.431 2183.48 190.447 Q2183.92 190.447 2183.92 190.841 Q2183.92 191.136 2183.59 191.808 Q2183.28 192.464 2182.67 193.251 Q2182.07 194.038 2180.89 194.628 Q2179.72 195.218 2178.31 195.218 Q2175.36 195.218 2173.13 192.988 Q2170.92 190.742 2170.92 187.447 M2173.74 186.381 L2181.71 186.381 Q2181.71 185.676 2181.57 184.889 Q2181.46 184.102 2181.1 183.02 Q2180.75 181.921 2179.93 181.233 Q2179.11 180.544 2177.9 180.544 Q2177.36 180.544 2176.77 180.774 Q2176.2 181.003 2175.49 181.561 Q2174.79 182.118 2174.29 183.381 Q2173.8 184.643 2173.74 186.381 Z" fill="#000000" fill-rule="evenodd" fill-opacity="1" /><path clip-path="url(#clip930)" d="M2185.67 187.447 Q2185.67 184.282 2187.71 182.036 Q2189.74 179.79 2192.66 179.79 Q2195.61 179.79 2197.14 181.708 Q2198.68 183.626 2198.68 186.381 Q2198.68 186.889 2198.55 186.988 Q2198.41 187.086 2197.84 187.086 L2188.46 187.086 Q2188.46 190.513 2189.48 192.119 Q2190.89 194.366 2193.27 194.366 Q2193.59 194.366 2193.99 194.3 Q2194.38 194.234 2195.18 193.956 Q2195.99 193.661 2196.69 192.89 Q2197.4 192.119 2197.81 190.906 Q2197.91 190.431 2198.23 190.447 Q2198.68 190.447 2198.68 190.841 Q2198.68 191.136 2198.35 191.808 Q2198.04 192.464 2197.43 193.251 Q2196.82 194.038 2195.64 194.628 Q2194.48 195.218 2193.07 195.218 Q2190.12 195.218 2187.89 192.988 Q2185.67 190.742 2185.67 187.447 M2188.49 186.381 L2196.46 186.381 Q2196.46 185.676 2196.33 184.889 Q2196.22 184.102 2195.86 183.02 Q2195.51 181.921 2194.69 181.233 Q2193.87 180.544 2192.66 180.544 Q2192.12 180.544 2191.53 180.774 Q2190.95 181.003 2190.25 181.561 Q2189.54 182.118 2189.05 183.381 Q2188.56 184.643 2188.49 186.381 Z" fill="#000000" fill-rule="evenodd" fill-opacity="1" /><path clip-path="url(#clip930)" d="M2199.76 194.841 L2199.76 193.808 Q2201.55 193.808 2201.96 193.595 Q2202.37 193.366 2202.37 192.283 L2202.37 183.282 Q2202.37 182.036 2201.92 181.725 Q2201.5 181.413 2199.76 181.413 L2199.76 180.364 L2204.48 180.003 L2204.48 183.528 Q2206.06 180.003 2209.45 180.003 Q2211.98 180.003 2212.98 181.249 Q2213.71 182.085 2213.86 183.02 Q2214.03 183.954 2214.03 186.381 L2214.03 192.792 Q2214.06 193.497 2214.6 193.661 Q2215.14 193.808 2216.65 193.808 L2216.65 194.841 Q2213.22 194.743 2212.88 194.743 Q2212.61 194.743 2209.09 194.841 L2209.09 193.808 Q2210.88 193.808 2211.29 193.595 Q2211.71 193.366 2211.71 192.283 L2211.71 184.463 Q2211.71 182.757 2211.19 181.757 Q2210.66 180.741 2209.22 180.741 Q2207.48 180.741 2206.09 182.2 Q2204.7 183.659 2204.7 186.119 L2204.7 192.283 Q2204.7 193.366 2205.11 193.595 Q2205.53 193.808 2207.3 193.808 L2207.3 194.841 Q2203.88 194.743 2203.55 194.743 Q2203.29 194.743 2199.76 194.841 Z" fill="#000000" fill-rule="evenodd" fill-opacity="1" /><circle clip-path="url(#clip930)" cx="1926.99" cy="219.81" r="23" fill="#e26f46" fill-rule="evenodd" fill-opacity="1" stroke="#000000" stroke-opacity="1" stroke-width="5.12"/>
<path clip-path="url(#clip930)" d="M2022.64 210.048 L2023.56 199.274 L2052.86 199.274 L2053.77 210.048 L2052.58 210.048 Q2052.39 207.893 2052.2 206.652 Q2052.04 205.41 2051.62 204.239 Q2051.22 203.045 2050.7 202.482 Q2050.21 201.897 2049.25 201.452 Q2048.29 200.983 2047.05 200.866 Q2045.81 200.749 2043.93 200.749 Q2041.73 200.749 2041.19 200.843 Q2040.61 200.983 2040.47 201.405 Q2040.33 201.803 2040.33 202.67 L2040.33 227.943 Q2040.33 228.903 2040.52 229.301 Q2040.73 229.676 2041.83 229.98 Q2042.93 230.261 2045.36 230.261 L2047.28 230.261 L2047.28 231.737 Q2045.32 231.597 2038.17 231.597 Q2031.08 231.597 2029.11 231.737 L2029.11 230.261 L2031.03 230.261 Q2033.46 230.261 2034.57 229.98 Q2035.69 229.676 2035.88 229.301 Q2036.06 228.903 2036.06 227.943 L2036.06 202.67 Q2036.06 201.991 2036.02 201.709 Q2035.97 201.428 2035.76 201.194 Q2035.55 200.937 2035.06 200.843 Q2034.59 200.749 2032.48 200.749 Q2030.61 200.749 2029.34 200.866 Q2028.1 200.983 2027.14 201.452 Q2026.18 201.897 2025.67 202.482 Q2025.17 203.045 2024.75 204.239 Q2024.35 205.41 2024.19 206.652 Q2024.03 207.893 2023.84 210.048 L2022.64 210.048 Z" fill="#000000" fill-rule="evenodd" fill-opacity="1" /><path clip-path="url(#clip930)" d="M2060.82 231.737 L2060.82 230.261 Q2063.37 230.261 2063.96 229.957 Q2064.57 229.629 2064.57 228.083 L2064.57 215.224 Q2064.57 213.444 2063.93 212.999 Q2063.32 212.554 2060.82 212.554 L2060.82 211.055 L2067.49 210.54 L2067.49 215.81 Q2068.17 213.749 2069.6 212.156 Q2071.05 210.54 2073.4 210.54 Q2074.94 210.54 2075.92 211.406 Q2076.93 212.273 2076.93 213.468 Q2076.93 214.522 2076.28 215.06 Q2075.64 215.576 2074.87 215.576 Q2074 215.576 2073.4 215.037 Q2072.81 214.475 2072.81 213.514 Q2072.81 212.929 2073.07 212.484 Q2073.35 212.015 2073.56 211.851 Q2073.77 211.687 2073.91 211.641 Q2073.82 211.594 2073.4 211.594 Q2070.75 211.594 2069.23 214.24 Q2067.73 216.864 2067.73 220.611 L2067.73 227.989 Q2067.73 229.371 2068.29 229.816 Q2068.87 230.261 2071.38 230.261 L2072.39 230.261 L2072.39 231.737 Q2070.47 231.597 2066.3 231.597 Q2065.71 231.597 2064.8 231.62 Q2063.89 231.643 2062.69 231.69 Q2061.5 231.737 2060.82 231.737 Z" fill="#000000" fill-rule="evenodd" fill-opacity="1" /><path clip-path="url(#clip930)" d="M2079.37 219.745 Q2079.37 211.641 2082.39 205.106 Q2083.68 202.365 2085.49 200.07 Q2087.29 197.775 2088.48 196.767 Q2089.68 195.76 2090.01 195.76 Q2090.47 195.76 2090.5 196.229 Q2090.5 196.463 2089.87 197.048 Q2082.14 204.918 2082.16 219.745 Q2082.16 234.618 2089.68 242.183 Q2090.5 243.003 2090.5 243.261 Q2090.5 243.729 2090.01 243.729 Q2089.68 243.729 2088.53 242.769 Q2087.38 241.809 2085.6 239.607 Q2083.82 237.405 2082.53 234.712 Q2079.37 228.177 2079.37 219.745 Z" fill="#000000" fill-rule="evenodd" fill-opacity="1" /><path clip-path="url(#clip930)" d="M2115.2 212.788 Q2115.2 212.812 2115.06 213.655 L2109.72 234.946 Q2109.43 236.07 2108.64 237.194 Q2107.87 238.342 2106.62 239.326 Q2105.41 240.333 2103.53 240.942 Q2101.68 241.574 2099.55 241.574 Q2096.15 241.574 2094.66 240.848 Q2093.18 240.146 2093.18 238.647 Q2093.18 237.335 2094 236.585 Q2094.82 235.859 2095.76 235.859 Q2096.65 235.859 2097.11 236.375 Q2097.58 236.89 2097.58 237.546 Q2097.58 238.272 2097.09 238.998 Q2096.6 239.748 2095.62 240.029 Q2097.18 240.52 2099.46 240.52 Q2104.26 240.52 2106.32 235.438 Q2106.37 235.368 2106.37 235.344 L2107.96 228.997 L2107.89 228.95 Q2107.49 229.418 2106.86 229.957 Q2106.25 230.472 2104.94 231.105 Q2103.63 231.737 2102.34 231.737 Q2099.64 231.737 2097.79 229.676 Q2095.97 227.591 2095.97 224.148 Q2095.97 221.642 2096.97 219.136 Q2098 216.606 2099.6 214.756 Q2101.21 212.882 2103.27 211.711 Q2105.36 210.54 2107.37 210.54 Q2108.78 210.54 2109.97 211.383 Q2111.17 212.203 2111.82 213.561 Q2111.94 212.437 2112.57 211.969 Q2113.23 211.5 2113.79 211.5 Q2114.42 211.5 2114.8 211.851 Q2115.2 212.179 2115.2 212.788 M2111.26 215.716 Q2111.26 215.576 2111.17 215.201 Q2111.07 214.803 2110.79 214.17 Q2110.54 213.538 2110.14 212.976 Q2109.74 212.414 2109.01 212.015 Q2108.31 211.594 2107.42 211.594 Q2105.97 211.594 2104.52 212.812 Q2103.06 214.006 2102.06 215.857 Q2101.12 217.637 2100.23 221.08 Q2099.36 224.523 2099.36 226.28 Q2099.36 228.013 2100.11 229.348 Q2100.86 230.683 2102.48 230.683 Q2104.35 230.683 2106.37 228.95 Q2108.45 227.146 2108.8 225.6 L2111.12 216.442 Q2111.26 215.88 2111.26 215.716 Z" fill="#000000" fill-rule="evenodd" fill-opacity="1" /><path clip-path="url(#clip930)" d="M2115.82 243.261 Q2115.82 243.027 2116.43 242.441 Q2124.15 234.571 2124.15 219.745 Q2124.15 204.872 2116.73 197.353 Q2115.82 196.486 2115.82 196.229 Q2115.82 195.76 2116.28 195.76 Q2116.61 195.76 2117.76 196.72 Q2118.93 197.681 2120.69 199.883 Q2122.47 202.084 2123.78 204.778 Q2126.94 211.313 2126.94 219.745 Q2126.94 227.849 2123.92 234.384 Q2122.63 237.124 2120.83 239.42 Q2119.03 241.715 2117.83 242.722 Q2116.64 243.729 2116.28 243.729 Q2115.82 243.729 2115.82 243.261 Z" fill="#000000" fill-rule="evenodd" fill-opacity="1" /><path clip-path="url(#clip930)" d="M2131.95 256.96 L2131.95 255.927 Q2133.74 255.927 2134.15 255.714 Q2134.56 255.485 2134.56 254.402 L2134.56 245.401 Q2134.56 244.155 2134.12 243.844 Q2133.69 243.532 2131.95 243.532 L2131.95 242.483 L2136.67 242.122 L2136.67 245.647 Q2138.25 242.122 2141.64 242.122 Q2145.58 242.122 2146.12 245.401 Q2146.69 244.122 2147.89 243.122 Q2149.1 242.122 2150.99 242.122 Q2153.51 242.122 2154.51 243.368 Q2155.25 244.204 2155.4 245.139 Q2155.55 246.073 2155.55 248.5 L2155.55 254.911 Q2155.58 255.616 2156.12 255.78 Q2156.66 255.927 2158.17 255.927 L2158.17 256.96 Q2154.74 256.862 2154.41 256.862 Q2154.15 256.862 2150.61 256.96 L2150.61 255.927 Q2152.4 255.927 2152.81 255.714 Q2153.23 255.485 2153.23 254.402 L2153.23 246.582 Q2153.23 244.877 2152.71 243.876 Q2152.18 242.86 2150.74 242.86 Q2149 242.86 2147.61 244.319 Q2146.22 245.778 2146.22 248.238 L2146.22 254.402 Q2146.22 255.485 2146.63 255.714 Q2147.05 255.927 2148.84 255.927 L2148.84 256.96 Q2145.41 256.862 2145.07 256.862 Q2144.81 256.862 2141.28 256.96 L2141.28 255.927 Q2143.07 255.927 2143.48 255.714 Q2143.9 255.485 2143.9 254.402 L2143.9 246.582 Q2143.9 244.877 2143.38 243.876 Q2142.86 242.86 2141.41 242.86 Q2139.67 242.86 2138.28 244.319 Q2136.89 245.778 2136.89 248.238 L2136.89 254.402 Q2136.89 255.485 2137.3 255.714 Q2137.72 255.927 2139.49 255.927 L2139.49 256.96 Q2136.07 256.862 2135.74 256.862 Q2135.48 256.862 2131.95 256.96 Z" fill="#000000" fill-rule="evenodd" fill-opacity="1" /><path clip-path="url(#clip930)" d="M2160.04 253.763 Q2160.04 250.91 2163.4 249.402 Q2165.41 248.434 2169.58 248.188 L2169.58 246.959 Q2169.58 244.877 2168.48 243.778 Q2167.4 242.663 2166.02 242.663 Q2163.56 242.663 2162.38 244.204 Q2163.38 244.237 2163.74 244.745 Q2164.1 245.237 2164.1 245.746 Q2164.1 246.418 2163.68 246.86 Q2163.27 247.287 2162.56 247.287 Q2161.89 247.287 2161.45 246.877 Q2161 246.451 2161 245.713 Q2161 244.073 2162.48 242.991 Q2163.97 241.909 2166.09 241.909 Q2168.84 241.909 2170.68 243.762 Q2171.25 244.335 2171.53 245.073 Q2171.83 245.811 2171.86 246.303 Q2171.89 246.778 2171.89 247.729 L2171.89 254.435 Q2171.89 254.632 2171.96 254.96 Q2172.02 255.288 2172.32 255.714 Q2172.63 256.124 2173.14 256.124 Q2174.35 256.124 2174.33 253.976 L2174.33 252.091 L2175.19 252.091 L2175.19 253.976 Q2175.19 255.763 2174.24 256.468 Q2173.3 257.157 2172.43 257.157 Q2171.32 257.157 2170.61 256.337 Q2169.91 255.517 2169.81 254.402 Q2169.3 255.681 2168.14 256.517 Q2166.99 257.337 2165.41 257.337 Q2164.2 257.337 2163.05 257.026 Q2161.92 256.731 2160.97 255.894 Q2160.04 255.042 2160.04 253.763 M2162.63 253.73 Q2162.63 254.976 2163.51 255.78 Q2164.4 256.583 2165.64 256.583 Q2167.05 256.583 2168.32 255.501 Q2169.58 254.402 2169.58 252.255 L2169.58 248.893 Q2165.86 249.025 2164.23 250.517 Q2162.63 251.992 2162.63 253.73 Z" fill="#000000" fill-rule="evenodd" fill-opacity="1" /><path clip-path="url(#clip930)" d="M2175.99 243.532 L2175.99 242.794 Q2177.53 242.729 2178.55 241.647 Q2179.58 240.548 2179.92 239.204 Q2180.29 237.859 2180.32 236.302 L2181.15 236.302 L2181.15 242.483 L2185.96 242.483 L2185.96 243.532 L2181.15 243.532 L2181.15 252.861 Q2181.15 256.485 2183.42 256.485 Q2184.38 256.485 2185.02 255.501 Q2185.66 254.501 2185.66 252.73 L2185.66 250.877 L2186.5 250.877 L2186.5 252.796 Q2186.5 254.616 2185.66 255.976 Q2184.83 257.337 2183.17 257.337 Q2182.56 257.337 2181.96 257.173 Q2181.37 257.026 2180.58 256.632 Q2179.81 256.222 2179.32 255.239 Q2178.84 254.238 2178.84 252.796 L2178.84 243.532 L2175.99 243.532 Z" fill="#000000" fill-rule="evenodd" fill-opacity="1" /><path clip-path="url(#clip930)" d="M2188.48 256.96 L2188.48 255.927 Q2190.26 255.927 2190.67 255.714 Q2191.1 255.485 2191.1 254.402 L2191.1 245.401 Q2191.1 244.155 2190.66 243.844 Q2190.23 243.532 2188.48 243.532 L2188.48 242.483 L2193.15 242.122 L2193.15 245.811 Q2193.63 244.368 2194.63 243.253 Q2195.64 242.122 2197.28 242.122 Q2198.36 242.122 2199.05 242.729 Q2199.76 243.335 2199.76 244.172 Q2199.76 244.909 2199.3 245.286 Q2198.86 245.647 2198.31 245.647 Q2197.71 245.647 2197.28 245.27 Q2196.87 244.877 2196.87 244.204 Q2196.87 243.794 2197.05 243.483 Q2197.25 243.155 2197.4 243.04 Q2197.54 242.925 2197.64 242.893 Q2197.58 242.86 2197.28 242.86 Q2195.43 242.86 2194.36 244.713 Q2193.31 246.549 2193.31 249.172 L2193.31 254.337 Q2193.31 255.304 2193.71 255.616 Q2194.12 255.927 2195.87 255.927 L2196.58 255.927 L2196.58 256.96 Q2195.23 256.862 2192.31 256.862 Q2191.9 256.862 2191.26 256.878 Q2190.63 256.895 2189.79 256.927 Q2188.95 256.96 2188.48 256.96 Z" fill="#000000" fill-rule="evenodd" fill-opacity="1" /><path clip-path="url(#clip930)" d="M2201.08 256.96 L2201.08 255.927 Q2202.87 255.927 2203.28 255.714 Q2203.69 255.485 2203.69 254.402 L2203.69 245.368 Q2203.69 244.122 2203.26 243.827 Q2202.85 243.532 2201.21 243.532 L2201.21 242.483 L2205.9 242.122 L2205.9 254.435 Q2205.9 255.435 2206.26 255.681 Q2206.62 255.927 2208.26 255.927 L2208.26 256.96 Q2204.84 256.862 2204.77 256.862 Q2204.31 256.862 2201.08 256.96 M2202.49 236.269 Q2202.49 235.597 2203 235.056 Q2203.52 234.498 2204.26 234.498 Q2205 234.498 2205.52 235.006 Q2206.05 235.498 2206.05 236.285 Q2206.05 237.056 2205.52 237.564 Q2205 238.056 2204.26 238.056 Q2203.49 238.056 2202.98 237.515 Q2202.49 236.974 2202.49 236.269 Z" fill="#000000" fill-rule="evenodd" fill-opacity="1" /><path clip-path="url(#clip930)" d="M2210.56 256.96 L2210.56 255.927 Q2213.18 255.927 2214.85 253.911 Q2214.85 253.911 2218 249.91 L2214.67 245.582 Q2213.49 244.073 2212.97 243.811 Q2212.46 243.532 2210.72 243.532 L2210.72 242.483 Q2212.1 242.581 2213.9 242.581 Q2214.9 242.581 2217.54 242.483 L2217.54 243.532 Q2216.36 243.598 2216.36 244.368 Q2216.36 244.631 2216.65 244.975 L2219.28 248.369 L2221.36 245.746 Q2221.87 245.139 2221.87 244.565 Q2221.87 243.63 2220.88 243.532 L2220.88 242.483 Q2222.2 242.581 2224.11 242.581 Q2225.56 242.581 2226.87 242.483 L2226.87 243.532 Q2224.31 243.598 2222.87 245.27 Q2222.23 245.975 2219.79 249.074 L2224.28 254.878 Q2224.82 255.583 2225.43 255.763 Q2226.03 255.927 2227.48 255.927 L2227.48 256.96 Q2225.97 256.862 2224.25 256.862 Q2223.64 256.862 2220.62 256.96 L2220.62 255.927 Q2221.23 255.894 2221.52 255.632 Q2221.84 255.353 2221.84 255.075 Q2221.84 254.944 2221.13 253.976 L2218.57 250.615 Q2216.02 253.632 2215.69 254.337 Q2215.56 254.632 2215.56 254.878 Q2215.56 255.78 2216.52 255.927 L2216.52 256.96 Q2214.11 256.862 2213.34 256.862 Q2211.87 256.862 2210.56 256.96 Z" fill="#000000" fill-rule="evenodd" fill-opacity="1" /></svg>
