<?xml version="1.0" encoding="utf-8"?>
<svg xmlns="http://www.w3.org/2000/svg" xmlns:xlink="http://www.w3.org/1999/xlink" width="600" height="400" viewBox="0 0 2400 1600">
<defs>
  <clipPath id="clip910">
    <rect x="0" y="0" width="2400" height="1600"/>
  </clipPath>
</defs>
<path clip-path="url(#clip910)" d="
M0 1600 L2400 1600 L2400 0 L0 0  Z
  " fill="#ffffff" fill-rule="evenodd" fill-opacity="1"/>
<defs>
  <clipPath id="clip911">
    <rect x="480" y="0" width="1681" height="1600"/>
  </clipPath>
</defs>
<path clip-path="url(#clip910)" d="
M232.389 1486.45 L2352.76 1486.45 L2352.76 47.2441 L232.389 47.2441  Z
  " fill="#ffffff" fill-rule="evenodd" fill-opacity="1"/>
<defs>
  <clipPath id="clip912">
    <rect x="232" y="47" width="2121" height="1440"/>
  </clipPath>
</defs>
<polyline clip-path="url(#clip912)" style="stroke:#000000; stroke-linecap:butt; stroke-linejoin:round; stroke-width:2; stroke-opacity:0.1; fill:none" points="
  292.4,1486.45 292.4,47.2441 
  "/>
<polyline clip-path="url(#clip912)" style="stroke:#000000; stroke-linecap:butt; stroke-linejoin:round; stroke-width:2; stroke-opacity:0.1; fill:none" points="
  950.232,1486.45 950.232,47.2441 
  "/>
<polyline clip-path="url(#clip912)" style="stroke:#000000; stroke-linecap:butt; stroke-linejoin:round; stroke-width:2; stroke-opacity:0.1; fill:none" points="
  1621.49,1486.45 1621.49,47.2441 
  "/>
<polyline clip-path="url(#clip912)" style="stroke:#000000; stroke-linecap:butt; stroke-linejoin:round; stroke-width:2; stroke-opacity:0.1; fill:none" points="
  2292.75,1486.45 2292.75,47.2441 
  "/>
<polyline clip-path="url(#clip910)" style="stroke:#000000; stroke-linecap:butt; stroke-linejoin:round; stroke-width:4; stroke-opacity:1; fill:none" points="
  232.389,1486.45 2352.76,1486.45 
  "/>
<polyline clip-path="url(#clip910)" style="stroke:#000000; stroke-linecap:butt; stroke-linejoin:round; stroke-width:4; stroke-opacity:1; fill:none" points="
  292.4,1486.45 292.4,1467.55 
  "/>
<polyline clip-path="url(#clip910)" style="stroke:#000000; stroke-linecap:butt; stroke-linejoin:round; stroke-width:4; stroke-opacity:1; fill:none" points="
  950.232,1486.45 950.232,1467.55 
  "/>
<polyline clip-path="url(#clip910)" style="stroke:#000000; stroke-linecap:butt; stroke-linejoin:round; stroke-width:4; stroke-opacity:1; fill:none" points="
  1621.49,1486.45 1621.49,1467.55 
  "/>
<polyline clip-path="url(#clip910)" style="stroke:#000000; stroke-linecap:butt; stroke-linejoin:round; stroke-width:4; stroke-opacity:1; fill:none" points="
  2292.75,1486.45 2292.75,1467.55 
  "/>
<path clip-path="url(#clip910)" d="M277.556 1554.64 L277.556 1553.16 L278.259 1553.16 Q280.812 1553.16 281.608 1552.81 Q282.428 1552.43 282.498 1551.08 L282.498 1525.48 Q282.451 1524.23 281.655 1523.86 Q280.859 1523.46 278.259 1523.46 L277.556 1523.46 L277.556 1522.01 Q279.805 1522.1 284.302 1522.1 Q286.129 1522.1 287.698 1522.06 Q289.291 1522.01 289.548 1522.01 L302.595 1522.01 L303.93 1532.81 L302.688 1532.81 Q302.313 1529.88 301.892 1528.36 Q301.494 1526.81 300.51 1525.57 Q299.526 1524.33 297.887 1523.91 Q296.247 1523.46 293.483 1523.46 L289.384 1523.46 Q287.838 1523.46 287.3 1523.77 Q286.761 1524.07 286.761 1525.33 L286.761 1550.94 Q286.761 1552.41 287.745 1552.79 Q288.728 1553.16 292.031 1553.16 L292.898 1553.16 L292.898 1554.64 Q288.822 1554.5 284.7 1554.5 L284.395 1554.5 Q281.397 1554.5 277.556 1554.64 Z" fill="#000000" fill-rule="evenodd" fill-opacity="1" /><path clip-path="url(#clip910)" d="M932.419 1554.71 L932.419 1553.23 Q934.621 1553.23 936.237 1552.55 Q937.853 1551.87 938.322 1551.38 Q938.813 1550.87 939.376 1550.05 L947.245 1538.45 L938.415 1525.1 Q937.736 1524.09 936.822 1523.77 Q935.932 1523.44 933.965 1523.44 L933.051 1523.44 L933.051 1521.94 Q935.698 1522.08 939.282 1522.08 Q944.599 1522.08 946.285 1521.94 L946.285 1523.44 Q944.856 1523.48 944.013 1523.95 Q943.17 1524.4 943.17 1524.87 Q943.17 1525.05 943.498 1525.59 L949.681 1534.84 L955.162 1526.74 Q955.584 1526.06 955.584 1525.64 Q955.584 1524.77 954.787 1524.14 Q954.015 1523.48 952.609 1523.44 L952.609 1521.94 Q954.53 1522.08 958.769 1522.08 Q959.308 1522.08 960.175 1522.06 Q961.065 1522.03 962.236 1521.99 Q963.407 1521.94 964.086 1521.94 L964.086 1523.44 Q959.238 1523.48 957.13 1526.55 L950.548 1536.18 L960.667 1551.5 Q961.393 1552.55 962.306 1552.9 Q963.22 1553.23 965.187 1553.23 L966.101 1553.23 L966.101 1554.71 Q963.079 1554.57 959.87 1554.57 Q954.553 1554.57 952.867 1554.71 L952.867 1553.23 Q954.296 1553.18 955.139 1552.74 Q955.982 1552.27 955.982 1551.78 Q955.982 1551.73 955.724 1551.26 L948.159 1539.79 L941.343 1549.86 Q940.875 1550.63 940.875 1551.01 Q940.875 1551.78 941.624 1552.48 Q942.397 1553.16 943.896 1553.23 L943.896 1554.71 Q942.163 1554.57 937.736 1554.57 Q937.595 1554.57 932.419 1554.71 Z" fill="#000000" fill-rule="evenodd" fill-opacity="1" /><path clip-path="url(#clip910)" d="M1599.74 1554.71 L1599.74 1553.23 Q1601.48 1553.23 1602.58 1552.9 Q1603.68 1552.55 1604.08 1551.92 Q1604.5 1551.26 1604.59 1550.84 Q1604.69 1550.4 1604.69 1549.67 L1604.69 1525.69 Q1604.69 1524.3 1604.08 1523.88 Q1603.49 1523.44 1600.89 1523.44 L1599.74 1523.44 L1599.74 1521.94 L1607.85 1521.94 Q1608.72 1521.94 1608.95 1522.1 Q1609.18 1522.24 1609.54 1522.99 L1619.93 1549.86 L1630.43 1522.85 Q1630.66 1522.17 1630.87 1522.06 Q1631.11 1521.94 1632.02 1521.94 L1640.13 1521.94 L1640.13 1523.44 L1638.98 1523.44 Q1636.38 1523.44 1635.77 1523.88 Q1635.18 1524.3 1635.18 1525.69 L1635.18 1550.96 Q1635.18 1552.34 1635.77 1552.79 Q1636.38 1553.23 1638.98 1553.23 L1640.13 1553.23 L1640.13 1554.71 Q1638.34 1554.57 1633.26 1554.57 Q1628.13 1554.57 1626.35 1554.71 L1626.35 1553.23 L1627.52 1553.23 Q1630.12 1553.23 1630.71 1552.81 Q1631.29 1552.36 1631.29 1550.96 L1631.29 1523.44 L1631.25 1523.44 L1619.47 1553.79 Q1619.14 1554.71 1618.6 1554.71 Q1618.01 1554.71 1617.64 1553.65 L1606.07 1523.81 L1606.02 1523.81 L1606.02 1549.67 Q1606.02 1550.4 1606.12 1550.84 Q1606.21 1551.26 1606.61 1551.92 Q1607.03 1552.55 1608.13 1552.9 Q1609.23 1553.23 1610.96 1553.23 L1610.96 1554.71 Q1605.93 1554.57 1605.34 1554.57 Q1604.78 1554.57 1599.74 1554.71 Z" fill="#000000" fill-rule="evenodd" fill-opacity="1" /><path clip-path="url(#clip910)" d="M2277.9 1554.64 L2277.9 1553.16 L2278.6 1553.16 Q2281.16 1553.16 2281.95 1552.81 Q2282.77 1552.43 2282.84 1551.08 L2282.84 1525.48 Q2282.8 1524.23 2282 1523.86 Q2281.2 1523.46 2278.6 1523.46 L2277.9 1523.46 L2277.9 1522.01 Q2280.15 1522.1 2284.65 1522.1 Q2286.47 1522.1 2288.04 1522.06 Q2289.64 1522.01 2289.89 1522.01 L2302.94 1522.01 L2304.28 1532.81 L2303.03 1532.81 Q2302.66 1529.88 2302.24 1528.36 Q2301.84 1526.81 2300.86 1525.57 Q2299.87 1524.33 2298.23 1523.91 Q2296.59 1523.46 2293.83 1523.46 L2289.73 1523.46 Q2288.18 1523.46 2287.65 1523.77 Q2287.11 1524.07 2287.11 1525.33 L2287.11 1550.94 Q2287.11 1552.41 2288.09 1552.79 Q2289.07 1553.16 2292.38 1553.16 L2293.24 1553.16 L2293.24 1554.64 Q2289.17 1554.5 2285.05 1554.5 L2284.74 1554.5 Q2281.74 1554.5 2277.9 1554.64 Z" fill="#000000" fill-rule="evenodd" fill-opacity="1" /><polyline clip-path="url(#clip912)" style="stroke:#000000; stroke-linecap:butt; stroke-linejoin:round; stroke-width:2; stroke-opacity:0.1; fill:none" points="
  232.389,1445.72 2352.76,1445.72 
  "/>
<polyline clip-path="url(#clip912)" style="stroke:#000000; stroke-linecap:butt; stroke-linejoin:round; stroke-width:2; stroke-opacity:0.1; fill:none" points="
  232.389,1144.79 2352.76,1144.79 
  "/>
<polyline clip-path="url(#clip912)" style="stroke:#000000; stroke-linecap:butt; stroke-linejoin:round; stroke-width:2; stroke-opacity:0.1; fill:none" points="
  232.389,843.855 2352.76,843.855 
  "/>
<polyline clip-path="url(#clip912)" style="stroke:#000000; stroke-linecap:butt; stroke-linejoin:round; stroke-width:2; stroke-opacity:0.1; fill:none" points="
  232.389,542.925 2352.76,542.925 
  "/>
<polyline clip-path="url(#clip912)" style="stroke:#000000; stroke-linecap:butt; stroke-linejoin:round; stroke-width:2; stroke-opacity:0.1; fill:none" points="
  232.389,241.994 2352.76,241.994 
  "/>
<polyline clip-path="url(#clip910)" style="stroke:#000000; stroke-linecap:butt; stroke-linejoin:round; stroke-width:4; stroke-opacity:1; fill:none" points="
  232.389,1486.45 232.389,47.2441 
  "/>
<polyline clip-path="url(#clip910)" style="stroke:#000000; stroke-linecap:butt; stroke-linejoin:round; stroke-width:4; stroke-opacity:1; fill:none" points="
  232.389,1445.72 251.287,1445.72 
  "/>
<polyline clip-path="url(#clip910)" style="stroke:#000000; stroke-linecap:butt; stroke-linejoin:round; stroke-width:4; stroke-opacity:1; fill:none" points="
  232.389,1144.79 251.287,1144.79 
  "/>
<polyline clip-path="url(#clip910)" style="stroke:#000000; stroke-linecap:butt; stroke-linejoin:round; stroke-width:4; stroke-opacity:1; fill:none" points="
  232.389,843.855 251.287,843.855 
  "/>
<polyline clip-path="url(#clip910)" style="stroke:#000000; stroke-linecap:butt; stroke-linejoin:round; stroke-width:4; stroke-opacity:1; fill:none" points="
  232.389,542.925 251.287,542.925 
  "/>
<polyline clip-path="url(#clip910)" style="stroke:#000000; stroke-linecap:butt; stroke-linejoin:round; stroke-width:4; stroke-opacity:1; fill:none" points="
  232.389,241.994 251.287,241.994 
  "/>
<path clip-path="url(#clip910)" d="M184.445 1431.51 Q180.834 1431.51 179.005 1435.08 Q177.2 1438.62 177.2 1445.75 Q177.2 1452.86 179.005 1456.42 Q180.834 1459.96 184.445 1459.96 Q188.079 1459.96 189.885 1456.42 Q191.713 1452.86 191.713 1445.75 Q191.713 1438.62 189.885 1435.08 Q188.079 1431.51 184.445 1431.51 M184.445 1427.81 Q190.255 1427.81 193.311 1432.42 Q196.389 1437 196.389 1445.75 Q196.389 1454.48 193.311 1459.08 Q190.255 1463.67 184.445 1463.67 Q178.635 1463.67 175.556 1459.08 Q172.501 1454.48 172.501 1445.75 Q172.501 1437 175.556 1432.42 Q178.635 1427.81 184.445 1427.81 Z" fill="#000000" fill-rule="evenodd" fill-opacity="1" /><path clip-path="url(#clip910)" d="M149.306 1158.13 L165.626 1158.13 L165.626 1162.07 L143.681 1162.07 L143.681 1158.13 Q146.343 1155.38 150.927 1150.75 Q155.533 1146.09 156.714 1144.75 Q158.959 1142.23 159.839 1140.49 Q160.741 1138.73 160.741 1137.04 Q160.741 1134.29 158.797 1132.55 Q156.876 1130.82 153.774 1130.82 Q151.575 1130.82 149.121 1131.58 Q146.691 1132.34 143.913 1133.89 L143.913 1129.17 Q146.737 1128.04 149.191 1127.46 Q151.644 1126.88 153.681 1126.88 Q159.052 1126.88 162.246 1129.57 Q165.44 1132.25 165.44 1136.74 Q165.44 1138.87 164.63 1140.79 Q163.843 1142.69 161.737 1145.28 Q161.158 1145.95 158.056 1149.17 Q154.954 1152.37 149.306 1158.13 Z" fill="#000000" fill-rule="evenodd" fill-opacity="1" /><path clip-path="url(#clip910)" d="M175.487 1127.51 L193.843 1127.51 L193.843 1131.44 L179.769 1131.44 L179.769 1139.91 Q180.788 1139.57 181.806 1139.4 Q182.825 1139.22 183.843 1139.22 Q189.63 1139.22 193.01 1142.39 Q196.389 1145.56 196.389 1150.98 Q196.389 1156.56 192.917 1159.66 Q189.445 1162.74 183.126 1162.74 Q180.95 1162.74 178.681 1162.37 Q176.436 1162 174.028 1161.26 L174.028 1156.56 Q176.112 1157.69 178.334 1158.25 Q180.556 1158.8 183.033 1158.8 Q187.038 1158.8 189.375 1156.7 Q191.713 1154.59 191.713 1150.98 Q191.713 1147.37 189.375 1145.26 Q187.038 1143.15 183.033 1143.15 Q181.158 1143.15 179.283 1143.57 Q177.431 1143.99 175.487 1144.87 L175.487 1127.51 Z" fill="#000000" fill-rule="evenodd" fill-opacity="1" /><path clip-path="url(#clip910)" d="M144.329 826.575 L162.686 826.575 L162.686 830.51 L148.612 830.51 L148.612 838.982 Q149.63 838.635 150.649 838.473 Q151.667 838.288 152.686 838.288 Q158.473 838.288 161.852 841.459 Q165.232 844.63 165.232 850.047 Q165.232 855.626 161.76 858.728 Q158.288 861.806 151.968 861.806 Q149.792 861.806 147.524 861.436 Q145.279 861.066 142.871 860.325 L142.871 855.626 Q144.954 856.76 147.177 857.316 Q149.399 857.871 151.876 857.871 Q155.88 857.871 158.218 855.765 Q160.556 853.658 160.556 850.047 Q160.556 846.436 158.218 844.33 Q155.88 842.223 151.876 842.223 Q150.001 842.223 148.126 842.64 Q146.274 843.056 144.329 843.936 L144.329 826.575 Z" fill="#000000" fill-rule="evenodd" fill-opacity="1" /><path clip-path="url(#clip910)" d="M184.445 829.654 Q180.834 829.654 179.005 833.219 Q177.2 836.76 177.2 843.89 Q177.2 850.996 179.005 854.561 Q180.834 858.103 184.445 858.103 Q188.079 858.103 189.885 854.561 Q191.713 850.996 191.713 843.89 Q191.713 836.76 189.885 833.219 Q188.079 829.654 184.445 829.654 M184.445 825.95 Q190.255 825.95 193.311 830.556 Q196.389 835.14 196.389 843.89 Q196.389 852.617 193.311 857.223 Q190.255 861.806 184.445 861.806 Q178.635 861.806 175.556 857.223 Q172.501 852.617 172.501 843.89 Q172.501 835.14 175.556 830.556 Q178.635 825.95 184.445 825.95 Z" fill="#000000" fill-rule="evenodd" fill-opacity="1" /><path clip-path="url(#clip910)" d="M144.098 525.645 L166.32 525.645 L166.32 527.635 L153.774 560.205 L148.89 560.205 L160.695 529.58 L144.098 529.58 L144.098 525.645 Z" fill="#000000" fill-rule="evenodd" fill-opacity="1" /><path clip-path="url(#clip910)" d="M175.487 525.645 L193.843 525.645 L193.843 529.58 L179.769 529.58 L179.769 538.052 Q180.788 537.705 181.806 537.543 Q182.825 537.358 183.843 537.358 Q189.63 537.358 193.01 540.529 Q196.389 543.7 196.389 549.117 Q196.389 554.695 192.917 557.797 Q189.445 560.876 183.126 560.876 Q180.95 560.876 178.681 560.506 Q176.436 560.135 174.028 559.395 L174.028 554.695 Q176.112 555.83 178.334 556.385 Q180.556 556.941 183.033 556.941 Q187.038 556.941 189.375 554.834 Q191.713 552.728 191.713 549.117 Q191.713 545.506 189.375 543.399 Q187.038 541.293 183.033 541.293 Q181.158 541.293 179.283 541.709 Q177.431 542.126 175.487 543.006 L175.487 525.645 Z" fill="#000000" fill-rule="evenodd" fill-opacity="1" /><path clip-path="url(#clip910)" d="M114.931 255.339 L122.57 255.339 L122.57 228.974 L114.26 230.64 L114.26 226.381 L122.524 224.714 L127.2 224.714 L127.2 255.339 L134.839 255.339 L134.839 259.274 L114.931 259.274 L114.931 255.339 Z" fill="#000000" fill-rule="evenodd" fill-opacity="1" /><path clip-path="url(#clip910)" d="M154.283 227.793 Q150.672 227.793 148.843 231.358 Q147.038 234.9 147.038 242.029 Q147.038 249.136 148.843 252.7 Q150.672 256.242 154.283 256.242 Q157.917 256.242 159.723 252.7 Q161.552 249.136 161.552 242.029 Q161.552 234.9 159.723 231.358 Q157.917 227.793 154.283 227.793 M154.283 224.089 Q160.093 224.089 163.149 228.696 Q166.227 233.279 166.227 242.029 Q166.227 250.756 163.149 255.362 Q160.093 259.946 154.283 259.946 Q148.473 259.946 145.394 255.362 Q142.339 250.756 142.339 242.029 Q142.339 233.279 145.394 228.696 Q148.473 224.089 154.283 224.089 Z" fill="#000000" fill-rule="evenodd" fill-opacity="1" /><path clip-path="url(#clip910)" d="M184.445 227.793 Q180.834 227.793 179.005 231.358 Q177.2 234.9 177.2 242.029 Q177.2 249.136 179.005 252.7 Q180.834 256.242 184.445 256.242 Q188.079 256.242 189.885 252.7 Q191.713 249.136 191.713 242.029 Q191.713 234.9 189.885 231.358 Q188.079 227.793 184.445 227.793 M184.445 224.089 Q190.255 224.089 193.311 228.696 Q196.389 233.279 196.389 242.029 Q196.389 250.756 193.311 255.362 Q190.255 259.946 184.445 259.946 Q178.635 259.946 175.556 255.362 Q172.501 250.756 172.501 242.029 Q172.501 233.279 175.556 228.696 Q178.635 224.089 184.445 224.089 Z" fill="#000000" fill-rule="evenodd" fill-opacity="1" /><path clip-path="url(#clip910)" d="M20.8447 994.42 Q20.8447 1001.42 26.0645 1005.56 Q31.2844 1009.67 40.2919 1009.67 Q49.2675 1009.67 54.4874 1005.56 Q59.7073 1001.42 59.7073 994.42 Q59.7073 987.418 54.4874 983.344 Q49.2675 979.238 40.2919 979.238 Q31.2844 979.238 26.0645 983.344 Q20.8447 987.418 20.8447 994.42 M63.1448 985.413 L72.4069 976.946 L72.4069 984.712 L64.7999 991.746 Q64.8635 992.797 64.8954 993.37 Q64.9272 993.911 64.9272 994.42 Q64.9272 1004.45 58.2432 1010.46 Q51.5274 1016.45 40.2919 1016.45 Q29.0246 1016.45 22.3406 1010.46 Q15.6248 1004.45 15.6248 994.42 Q15.6248 984.426 22.3406 978.442 Q29.0246 972.458 40.2919 972.458 Q48.5673 972.458 54.4556 975.8 Q60.3439 979.11 63.1448 985.413 Z" fill="#000000" fill-rule="evenodd" fill-opacity="1" /><path clip-path="url(#clip910)" d="M49.9359 963.26 L28.3562 963.26 L28.3562 957.403 L49.7131 957.403 Q54.7739 957.403 57.3202 955.43 Q59.8346 953.457 59.8346 949.51 Q59.8346 944.767 56.8109 942.03 Q53.7872 939.261 48.5673 939.261 L28.3562 939.261 L28.3562 933.405 L64.0042 933.405 L64.0042 939.261 L58.5296 939.261 Q61.7762 941.394 63.3676 944.226 Q64.9272 947.027 64.9272 950.751 Q64.9272 956.894 61.1078 960.077 Q57.2883 963.26 49.9359 963.26 M27.4968 948.523 L27.4968 948.523 Z" fill="#000000" fill-rule="evenodd" fill-opacity="1" /><path clip-path="url(#clip910)" d="M46.0847 905.141 Q46.0847 912.239 47.7079 914.976 Q49.3312 917.713 53.2461 917.713 Q56.3653 917.713 58.2114 915.676 Q60.0256 913.607 60.0256 910.074 Q60.0256 905.205 56.5881 902.276 Q53.1188 899.316 47.3897 899.316 L46.0847 899.316 L46.0847 905.141 M43.6657 893.46 L64.0042 893.46 L64.0042 899.316 L58.5933 899.316 Q61.8398 901.322 63.3994 904.313 Q64.9272 907.305 64.9272 911.634 Q64.9272 917.108 61.8716 920.355 Q58.7843 923.57 53.6281 923.57 Q47.6125 923.57 44.5569 919.559 Q41.5014 915.517 41.5014 907.528 L41.5014 899.316 L40.9285 899.316 Q36.8862 899.316 34.6901 901.99 Q32.4621 904.632 32.4621 909.438 Q32.4621 912.493 33.1941 915.39 Q33.9262 918.286 35.3903 920.96 L29.9795 920.96 Q28.7381 917.745 28.1334 914.721 Q27.4968 911.698 27.4968 908.833 Q27.4968 901.099 31.5072 897.279 Q35.5176 893.46 43.6657 893.46 Z" fill="#000000" fill-rule="evenodd" fill-opacity="1" /><path clip-path="url(#clip910)" d="M42.4881 851.765 L64.0042 851.765 L64.0042 857.621 L42.679 857.621 Q37.6183 857.621 35.1038 859.594 Q32.5894 861.568 32.5894 865.514 Q32.5894 870.257 35.6131 872.994 Q38.6368 875.731 43.8567 875.731 L64.0042 875.731 L64.0042 881.62 L28.3562 881.62 L28.3562 875.731 L33.8944 875.731 Q30.6797 873.631 29.0883 870.798 Q27.4968 867.933 27.4968 864.209 Q27.4968 858.067 31.3163 854.916 Q35.1038 851.765 42.4881 851.765 Z" fill="#000000" fill-rule="evenodd" fill-opacity="1" /><path clip-path="url(#clip910)" d="M18.2347 834.291 L28.3562 834.291 L28.3562 822.228 L32.9077 822.228 L32.9077 834.291 L52.2594 834.291 Q56.6199 834.291 57.8613 833.113 Q59.1026 831.904 59.1026 828.243 L59.1026 822.228 L64.0042 822.228 L64.0042 828.243 Q64.0042 835.023 61.4897 837.601 Q58.9434 840.179 52.2594 840.179 L32.9077 840.179 L32.9077 844.476 L28.3562 844.476 L28.3562 840.179 L18.2347 840.179 L18.2347 834.291 Z" fill="#000000" fill-rule="evenodd" fill-opacity="1" /><path clip-path="url(#clip910)" d="M49.9359 815.13 L28.3562 815.13 L28.3562 809.273 L49.7131 809.273 Q54.7739 809.273 57.3202 807.3 Q59.8346 805.327 59.8346 801.38 Q59.8346 796.637 56.8109 793.9 Q53.7872 791.131 48.5673 791.131 L28.3562 791.131 L28.3562 785.275 L64.0042 785.275 L64.0042 791.131 L58.5296 791.131 Q61.7762 793.264 63.3676 796.096 Q64.9272 798.897 64.9272 802.621 Q64.9272 808.764 61.1078 811.947 Q57.2883 815.13 49.9359 815.13 M27.4968 800.393 L27.4968 800.393 Z" fill="#000000" fill-rule="evenodd" fill-opacity="1" /><path clip-path="url(#clip910)" d="M35.1993 745.457 Q31.2526 743.261 29.3747 740.206 Q27.4968 737.15 27.4968 733.012 Q27.4968 727.442 31.4117 724.419 Q35.2948 721.395 42.4881 721.395 L64.0042 721.395 L64.0042 727.283 L42.679 727.283 Q37.5546 727.283 35.072 729.097 Q32.5894 730.912 32.5894 734.636 Q32.5894 739.187 35.6131 741.829 Q38.6368 744.471 43.8567 744.471 L64.0042 744.471 L64.0042 750.359 L42.679 750.359 Q37.5228 750.359 35.072 752.173 Q32.5894 753.987 32.5894 757.775 Q32.5894 762.263 35.6449 764.904 Q38.6686 767.546 43.8567 767.546 L64.0042 767.546 L64.0042 773.434 L28.3562 773.434 L28.3562 767.546 L33.8944 767.546 Q30.616 765.541 29.0564 762.74 Q27.4968 759.939 27.4968 756.088 Q27.4968 752.205 29.4702 749.499 Q31.4436 746.762 35.1993 745.457 Z" fill="#000000" fill-rule="evenodd" fill-opacity="1" /><path clip-path="url(#clip910)" d="M16.4842 709.459 L16.4842 699.879 L48.8219 687.752 L16.4842 675.562 L16.4842 665.981 L64.0042 665.981 L64.0042 672.252 L22.277 672.252 L54.8694 684.506 L54.8694 690.967 L22.277 703.221 L64.0042 703.221 L64.0042 709.459 L16.4842 709.459 Z" fill="#000000" fill-rule="evenodd" fill-opacity="1" /><path clip-path="url(#clip910)" d="M44.7161 622.981 L47.5806 622.981 L47.5806 649.908 Q53.6281 649.526 56.8109 646.28 Q59.9619 643.001 59.9619 637.177 Q59.9619 633.803 59.1344 630.652 Q58.3069 627.469 56.6518 624.35 L62.1899 624.35 Q63.5267 627.501 64.227 630.811 Q64.9272 634.121 64.9272 637.527 Q64.9272 646.057 59.9619 651.054 Q54.9967 656.019 46.5303 656.019 Q37.7774 656.019 32.6531 651.308 Q27.4968 646.566 27.4968 638.545 Q27.4968 631.352 32.1438 627.182 Q36.7589 622.981 44.7161 622.981 M42.9973 628.837 Q38.1912 628.901 35.3266 631.543 Q32.4621 634.153 32.4621 638.482 Q32.4621 643.383 35.2312 646.343 Q38.0002 649.271 43.0292 649.717 L42.9973 628.837 Z" fill="#000000" fill-rule="evenodd" fill-opacity="1" /><path clip-path="url(#clip910)" d="M18.2347 607.576 L28.3562 607.576 L28.3562 595.513 L32.9077 595.513 L32.9077 607.576 L52.2594 607.576 Q56.6199 607.576 57.8613 606.398 Q59.1026 605.189 59.1026 601.529 L59.1026 595.513 L64.0042 595.513 L64.0042 601.529 Q64.0042 608.308 61.4897 610.886 Q58.9434 613.464 52.2594 613.464 L32.9077 613.464 L32.9077 617.761 L28.3562 617.761 L28.3562 613.464 L18.2347 613.464 L18.2347 607.576 Z" fill="#000000" fill-rule="evenodd" fill-opacity="1" /><path clip-path="url(#clip910)" d="M33.8307 567.154 Q33.2578 568.14 33.0032 569.318 Q32.7167 570.464 32.7167 571.864 Q32.7167 576.83 35.9632 579.503 Q39.1779 582.145 45.2253 582.145 L64.0042 582.145 L64.0042 588.033 L28.3562 588.033 L28.3562 582.145 L33.8944 582.145 Q30.6479 580.299 29.0883 577.339 Q27.4968 574.379 27.4968 570.146 Q27.4968 569.541 27.5923 568.809 Q27.656 568.077 27.8151 567.186 L33.8307 567.154 Z" fill="#000000" fill-rule="evenodd" fill-opacity="1" /><path clip-path="url(#clip910)" d="M28.3562 561.011 L28.3562 555.154 L64.0042 555.154 L64.0042 561.011 L28.3562 561.011 M14.479 561.011 L14.479 555.154 L21.895 555.154 L21.895 561.011 L14.479 561.011 Z" fill="#000000" fill-rule="evenodd" fill-opacity="1" /><path clip-path="url(#clip910)" d="M29.7248 517.247 L35.1993 517.247 Q33.8307 519.729 33.1623 522.244 Q32.4621 524.726 32.4621 527.273 Q32.4621 532.97 36.0905 536.121 Q39.6872 539.272 46.212 539.272 Q52.7369 539.272 56.3653 536.121 Q59.9619 532.97 59.9619 527.273 Q59.9619 524.726 59.2935 522.244 Q58.5933 519.729 57.2247 517.247 L62.6355 517.247 Q63.7814 519.697 64.3543 522.339 Q64.9272 524.949 64.9272 527.909 Q64.9272 535.962 59.8664 540.704 Q54.8057 545.447 46.212 545.447 Q37.491 545.447 32.4939 540.672 Q27.4968 535.866 27.4968 527.527 Q27.4968 524.822 28.0697 522.244 Q28.6108 519.666 29.7248 517.247 Z" fill="#000000" fill-rule="evenodd" fill-opacity="1" /><polyline clip-path="url(#clip912)" style="stroke:#009af9; stroke-linecap:butt; stroke-linejoin:round; stroke-width:4; stroke-opacity:1; fill:none" points="
  292.4,1445.33 305.825,1445.33 319.25,1445.33 332.675,1445.33 346.1,1445.33 359.525,1445.33 372.951,1445.33 386.376,1445.34 399.801,1445.34 413.226,1445.34 
  426.651,1445.34 440.076,1445.34 453.501,1445.35 466.927,1445.35 480.352,1445.35 493.777,1445.35 507.202,1445.36 520.627,1445.36 534.052,1445.36 547.477,1445.36 
  560.903,1445.36 574.328,1445.36 587.753,1445.36 601.178,1445.36 614.603,1445.36 628.028,1445.35 641.453,1445.34 654.878,1445.34 668.304,1445.32 681.729,1445.31 
  695.154,1445.29 708.579,1445.27 722.004,1445.24 735.429,1445.2 748.854,1445.16 762.28,1445.11 775.705,1445.05 789.13,1444.98 802.555,1444.91 815.98,1444.82 
  829.405,1444.73 842.83,1444.63 856.256,1444.53 869.681,1444.43 883.106,1444.33 896.531,1444.24 909.956,1444.16 923.381,1444.1 936.806,1444.07 950.232,1444.05 
  963.657,1444.05 977.082,1444.05 990.507,1444.05 1003.93,1444.04 1017.36,1444.03 1030.78,1444.02 1044.21,1444 1057.63,1443.99 1071.06,1443.97 1084.48,1443.94 
  1097.91,1443.92 1111.33,1443.89 1124.76,1443.86 1138.18,1443.82 1151.61,1443.78 1165.03,1443.74 1178.46,1443.69 1191.88,1443.63 1205.31,1443.57 1218.73,1443.5 
  1232.16,1443.42 1245.58,1443.33 1259.01,1443.23 1272.43,1443.12 1285.86,1442.99 1299.29,1442.85 1312.71,1442.68 1326.14,1442.49 1339.56,1442.27 1352.99,1442.02 
  1366.41,1441.72 1379.84,1441.37 1393.26,1440.95 1406.69,1440.45 1420.11,1439.84 1433.54,1439.09 1446.96,1438.15 1460.39,1436.97 1473.81,1435.45 1487.24,1433.43 
  1500.66,1430.7 1514.09,1426.91 1527.51,1421.51 1540.94,1413.71 1554.36,1401.76 1567.79,1382.33 1581.21,1349.64 1594.64,1296.33 1608.06,1227.45 1621.49,1190.03 
  1634.91,1256.13 1648.34,1342.85 1661.76,1389.3 1675.19,1411.88 1688.61,1423.88 1702.04,1430.95 1715.46,1435.27 1728.89,1438.06 1742.31,1439.94 1755.74,1441.26 
  1769.17,1442.22 1782.59,1442.93 1796.02,1443.47 1809.44,1443.88 1822.87,1444.2 1836.29,1444.46 1849.72,1444.65 1863.14,1444.81 1876.57,1444.93 1889.99,1445.03 
  1903.42,1445.11 1916.84,1445.17 1930.27,1445.22 1943.69,1445.26 1957.12,1445.29 1970.54,1445.32 1983.97,1445.33 1997.39,1445.35 2010.82,1445.36 2024.24,1445.36 
  2037.67,1445.37 2051.09,1445.37 2064.52,1445.37 2077.94,1445.37 2091.37,1445.36 2104.79,1445.36 2118.22,1445.36 2131.64,1445.36 2145.07,1445.35 2158.49,1445.35 
  2171.92,1445.35 2185.34,1445.34 2198.77,1445.34 2212.19,1445.34 2225.62,1445.33 2239.04,1445.33 2252.47,1445.33 2265.9,1445.33 2279.32,1445.33 2292.75,1445.33 
  
  "/>
<polyline clip-path="url(#clip912)" style="stroke:#e26f46; stroke-linecap:butt; stroke-linejoin:round; stroke-width:4; stroke-opacity:1; fill:none" points="
  292.4,1445.71 305.825,1445.71 319.25,1445.71 332.675,1445.71 346.1,1445.71 359.525,1445.71 372.951,1445.71 386.376,1445.71 399.801,1445.71 413.226,1445.71 
  426.651,1445.71 440.076,1445.71 453.501,1445.71 466.927,1445.71 480.352,1445.71 493.777,1445.71 507.202,1445.71 520.627,1445.71 534.052,1445.71 547.477,1445.71 
  560.903,1445.71 574.328,1445.71 587.753,1445.71 601.178,1445.71 614.603,1445.71 628.028,1445.71 641.453,1445.71 654.878,1445.71 668.304,1445.72 681.729,1445.72 
  695.154,1445.72 708.579,1445.71 722.004,1445.71 735.429,1445.71 748.854,1445.71 762.28,1445.71 775.705,1445.71 789.13,1445.71 802.555,1445.71 815.98,1445.7 
  829.405,1445.7 842.83,1445.69 856.256,1445.69 869.681,1445.68 883.106,1445.68 896.531,1445.67 909.956,1445.67 923.381,1445.66 936.806,1445.66 950.232,1445.66 
  963.657,1445.66 977.082,1445.66 990.507,1445.66 1003.93,1445.66 1017.36,1445.66 1030.78,1445.66 1044.21,1445.65 1057.63,1445.65 1071.06,1445.65 1084.48,1445.65 
  1097.91,1445.65 1111.33,1445.65 1124.76,1445.64 1138.18,1445.64 1151.61,1445.64 1165.03,1445.64 1178.46,1445.63 1191.88,1445.63 1205.31,1445.62 1218.73,1445.62 
  1232.16,1445.61 1245.58,1445.6 1259.01,1445.59 1272.43,1445.58 1285.86,1445.57 1299.29,1445.56 1312.71,1445.54 1326.14,1445.52 1339.56,1445.49 1352.99,1445.46 
  1366.41,1445.42 1379.84,1445.38 1393.26,1445.31 1406.69,1445.23 1420.11,1445.12 1433.54,1444.97 1446.96,1444.75 1460.39,1444.44 1473.81,1443.96 1487.24,1443.2 
  1500.66,1441.94 1514.09,1439.72 1527.51,1435.6 1540.94,1427.51 1554.36,1410.09 1567.79,1368.51 1581.21,1261.24 1594.64,987.453 1608.06,457.202 1621.49,87.9763 
  1634.91,701.475 1648.34,1231.95 1661.76,1384.13 1675.19,1424.39 1688.61,1437 1702.04,1441.73 1715.46,1443.69 1728.89,1444.6 1742.31,1445.06 1755.74,1445.32 
  1769.17,1445.47 1782.59,1445.56 1796.02,1445.61 1809.44,1445.65 1822.87,1445.67 1836.29,1445.69 1849.72,1445.7 1863.14,1445.7 1876.57,1445.71 1889.99,1445.71 
  1903.42,1445.71 1916.84,1445.71 1930.27,1445.72 1943.69,1445.72 1957.12,1445.72 1970.54,1445.72 1983.97,1445.72 1997.39,1445.72 2010.82,1445.72 2024.24,1445.71 
  2037.67,1445.71 2051.09,1445.71 2064.52,1445.71 2077.94,1445.71 2091.37,1445.71 2104.79,1445.71 2118.22,1445.71 2131.64,1445.71 2145.07,1445.71 2158.49,1445.71 
  2171.92,1445.71 2185.34,1445.71 2198.77,1445.71 2212.19,1445.71 2225.62,1445.71 2239.04,1445.71 2252.47,1445.71 2265.9,1445.71 2279.32,1445.71 2292.75,1445.71 
  
  "/>
<polyline clip-path="url(#clip912)" style="stroke:#3da44d; stroke-linecap:butt; stroke-linejoin:round; stroke-width:4; stroke-opacity:1; fill:none" points="
  292.4,1445.52 305.825,1445.52 319.25,1445.52 332.675,1445.52 346.1,1445.52 359.525,1445.52 372.951,1445.53 386.376,1445.53 399.801,1445.53 413.226,1445.53 
  426.651,1445.53 440.076,1445.53 453.501,1445.53 466.927,1445.54 480.352,1445.54 493.777,1445.54 507.202,1445.55 520.627,1445.55 534.052,1445.55 547.477,1445.56 
  560.903,1445.57 574.328,1445.57 587.753,1445.58 601.178,1445.59 614.603,1445.6 628.028,1445.6 641.453,1445.61 654.878,1445.62 668.304,1445.63 681.729,1445.63 
  695.154,1445.63 708.579,1445.62 722.004,1445.6 735.429,1445.57 748.854,1445.54 762.28,1445.5 775.705,1445.46 789.13,1445.41 802.555,1445.36 815.98,1445.31 
  829.405,1445.25 842.83,1445.2 856.256,1445.14 869.681,1445.08 883.106,1445.03 896.531,1444.98 909.956,1444.94 923.381,1444.91 936.806,1444.89 950.232,1444.89 
  963.657,1444.88 977.082,1444.88 990.507,1444.88 1003.93,1444.88 1017.36,1444.87 1030.78,1444.87 1044.21,1444.86 1057.63,1444.85 1071.06,1444.84 1084.48,1444.83 
  1097.91,1444.82 1111.33,1444.8 1124.76,1444.79 1138.18,1444.77 1151.61,1444.75 1165.03,1444.73 1178.46,1444.71 1191.88,1444.68 1205.31,1444.65 1218.73,1444.62 
  1232.16,1444.59 1245.58,1444.55 1259.01,1444.5 1272.43,1444.45 1285.86,1444.39 1299.29,1444.33 1312.71,1444.26 1326.14,1444.18 1339.56,1444.08 1352.99,1443.97 
  1366.41,1443.84 1379.84,1443.69 1393.26,1443.51 1406.69,1443.3 1420.11,1443.04 1433.54,1442.71 1446.96,1442.31 1460.39,1441.79 1473.81,1441.12 1487.24,1440.22 
  1500.66,1438.98 1514.09,1437.22 1527.51,1434.68 1540.94,1430.91 1554.36,1425.01 1567.79,1415.23 1581.21,1398.59 1594.64,1371.44 1608.06,1336.63 1621.49,1317.87 
  1634.91,1351.07 1648.34,1394.99 1661.76,1418.49 1675.19,1429.69 1688.61,1435.47 1702.04,1438.79 1715.46,1440.78 1728.89,1442.05 1742.31,1442.92 1755.74,1443.53 
  1769.17,1443.98 1782.59,1444.33 1796.02,1444.59 1809.44,1444.81 1822.87,1444.98 1836.29,1445.12 1849.72,1445.24 1863.14,1445.34 1876.57,1445.42 1889.99,1445.49 
  1903.42,1445.55 1916.84,1445.6 1930.27,1445.65 1943.69,1445.68 1957.12,1445.72 1970.54,1445.69 1983.97,1445.66 1997.39,1445.64 2010.82,1445.63 2024.24,1445.61 
  2037.67,1445.6 2051.09,1445.59 2064.52,1445.58 2077.94,1445.57 2091.37,1445.56 2104.79,1445.55 2118.22,1445.55 2131.64,1445.54 2145.07,1445.54 2158.49,1445.54 
  2171.92,1445.53 2185.34,1445.53 2198.77,1445.53 2212.19,1445.53 2225.62,1445.53 2239.04,1445.52 2252.47,1445.52 2265.9,1445.52 2279.32,1445.52 2292.75,1445.52 
  
  "/>
<path clip-path="url(#clip910)" d="
M1886.88 338.83 L2282.08 338.83 L2282.08 95.2176 L1886.88 95.2176  Z
  " fill="#ffffff" fill-rule="evenodd" fill-opacity="1"/>
<polyline clip-path="url(#clip910)" style="stroke:#000000; stroke-linecap:butt; stroke-linejoin:round; stroke-width:4; stroke-opacity:1; fill:none" points="
  1886.88,338.83 2282.08,338.83 2282.08,95.2176 1886.88,95.2176 1886.88,338.83 
  "/>
<polyline clip-path="url(#clip910)" style="stroke:#009af9; stroke-linecap:butt; stroke-linejoin:round; stroke-width:4; stroke-opacity:1; fill:none" points="
  1910.44,156.121 2051.8,156.121 
  "/>
<path clip-path="url(#clip910)" d="M2075.36 153.218 L2076.27 142.444 L2105.57 142.444 L2106.48 153.218 L2105.29 153.218 Q2105.1 151.064 2104.92 149.822 Q2104.75 148.581 2104.33 147.41 Q2103.93 146.215 2103.42 145.653 Q2102.92 145.067 2101.96 144.622 Q2101 144.154 2099.76 144.037 Q2098.52 143.92 2096.65 143.92 Q2094.45 143.92 2093.91 144.013 Q2093.32 144.154 2093.18 144.575 Q2093.04 144.974 2093.04 145.84 L2093.04 171.113 Q2093.04 172.073 2093.23 172.472 Q2093.44 172.846 2094.54 173.151 Q2095.64 173.432 2098.08 173.432 L2100 173.432 L2100 174.908 Q2098.03 174.767 2090.89 174.767 Q2083.79 174.767 2081.82 174.908 L2081.82 173.432 L2083.74 173.432 Q2086.18 173.432 2087.28 173.151 Q2088.4 172.846 2088.59 172.472 Q2088.78 172.073 2088.78 171.113 L2088.78 145.84 Q2088.78 145.161 2088.73 144.88 Q2088.68 144.599 2088.47 144.365 Q2088.26 144.107 2087.77 144.013 Q2087.3 143.92 2085.19 143.92 Q2083.32 143.92 2082.06 144.037 Q2080.81 144.154 2079.85 144.622 Q2078.89 145.067 2078.38 145.653 Q2077.89 146.215 2077.46 147.41 Q2077.07 148.581 2076.9 149.822 Q2076.74 151.064 2076.55 153.218 L2075.36 153.218 Z" fill="#000000" fill-rule="evenodd" fill-opacity="1" /><path clip-path="url(#clip910)" d="M2113.53 174.908 L2113.53 173.432 Q2116.08 173.432 2116.67 173.127 Q2117.28 172.8 2117.28 171.254 L2117.28 158.395 Q2117.28 156.615 2116.65 156.17 Q2116.04 155.725 2113.53 155.725 L2113.53 154.226 L2120.21 153.71 L2120.21 158.98 Q2120.88 156.919 2122.31 155.326 Q2123.77 153.71 2126.11 153.71 Q2127.65 153.71 2128.64 154.577 Q2129.64 155.444 2129.64 156.638 Q2129.64 157.692 2128.99 158.231 Q2128.36 158.746 2127.58 158.746 Q2126.72 158.746 2126.11 158.207 Q2125.52 157.645 2125.52 156.685 Q2125.52 156.099 2125.78 155.654 Q2126.06 155.186 2126.27 155.022 Q2126.48 154.858 2126.62 154.811 Q2126.53 154.764 2126.11 154.764 Q2123.46 154.764 2121.94 157.411 Q2120.44 160.034 2120.44 163.782 L2120.44 171.16 Q2120.44 172.542 2121 172.987 Q2121.59 173.432 2124.09 173.432 L2125.1 173.432 L2125.1 174.908 Q2123.18 174.767 2119.01 174.767 Q2118.43 174.767 2117.51 174.79 Q2116.6 174.814 2115.4 174.861 Q2114.21 174.908 2113.53 174.908 Z" fill="#000000" fill-rule="evenodd" fill-opacity="1" /><path clip-path="url(#clip910)" d="M2132.08 162.915 Q2132.08 154.811 2135.11 148.276 Q2136.39 145.536 2138.2 143.24 Q2140 140.945 2141.2 139.938 Q2142.39 138.931 2142.72 138.931 Q2143.19 138.931 2143.21 139.399 Q2143.21 139.633 2142.58 140.219 Q2134.85 148.089 2134.87 162.915 Q2134.87 177.789 2142.39 185.354 Q2143.21 186.174 2143.21 186.431 Q2143.21 186.9 2142.72 186.9 Q2142.39 186.9 2141.24 185.94 Q2140.1 184.979 2138.32 182.777 Q2136.53 180.576 2135.25 177.882 Q2132.08 171.347 2132.08 162.915 Z" fill="#000000" fill-rule="evenodd" fill-opacity="1" /><path clip-path="url(#clip910)" d="M2167.91 155.959 Q2167.91 155.982 2167.77 156.825 L2162.43 178.116 Q2162.15 179.241 2161.35 180.365 Q2160.58 181.513 2159.34 182.496 Q2158.12 183.504 2156.24 184.113 Q2154.39 184.745 2152.26 184.745 Q2148.87 184.745 2147.37 184.019 Q2145.89 183.316 2145.89 181.817 Q2145.89 180.506 2146.71 179.756 Q2147.53 179.03 2148.47 179.03 Q2149.36 179.03 2149.83 179.545 Q2150.3 180.06 2150.3 180.716 Q2150.3 181.442 2149.8 182.169 Q2149.31 182.918 2148.33 183.199 Q2149.9 183.691 2152.17 183.691 Q2156.97 183.691 2159.03 178.608 Q2159.08 178.538 2159.08 178.515 L2160.67 172.167 L2160.6 172.12 Q2160.2 172.589 2159.57 173.127 Q2158.96 173.643 2157.65 174.275 Q2156.34 174.908 2155.05 174.908 Q2152.36 174.908 2150.51 172.846 Q2148.68 170.762 2148.68 167.319 Q2148.68 164.812 2149.69 162.306 Q2150.72 159.777 2152.31 157.926 Q2153.93 156.052 2155.99 154.881 Q2158.07 153.71 2160.09 153.71 Q2161.49 153.71 2162.69 154.553 Q2163.88 155.373 2164.54 156.732 Q2164.65 155.607 2165.29 155.139 Q2165.94 154.671 2166.5 154.671 Q2167.14 154.671 2167.51 155.022 Q2167.91 155.35 2167.91 155.959 M2163.97 158.887 Q2163.97 158.746 2163.88 158.371 Q2163.79 157.973 2163.51 157.341 Q2163.25 156.708 2162.85 156.146 Q2162.45 155.584 2161.73 155.186 Q2161.02 154.764 2160.13 154.764 Q2158.68 154.764 2157.23 155.982 Q2155.78 157.177 2154.77 159.027 Q2153.83 160.807 2152.94 164.25 Q2152.08 167.693 2152.08 169.45 Q2152.08 171.183 2152.83 172.518 Q2153.57 173.854 2155.19 173.854 Q2157.06 173.854 2159.08 172.12 Q2161.16 170.317 2161.51 168.771 L2163.83 159.613 Q2163.97 159.051 2163.97 158.887 Z" fill="#000000" fill-rule="evenodd" fill-opacity="1" /><path clip-path="url(#clip910)" d="M2172.56 186.431 Q2172.56 186.197 2173.17 185.612 Q2180.9 177.742 2180.9 162.915 Q2180.9 148.042 2173.47 140.523 Q2172.56 139.657 2172.56 139.399 Q2172.56 138.931 2173.03 138.931 Q2173.36 138.931 2174.51 139.891 Q2175.68 140.851 2177.43 143.053 Q2179.21 145.255 2180.52 147.948 Q2183.69 154.483 2183.69 162.915 Q2183.69 171.019 2180.67 177.554 Q2179.38 180.295 2177.57 182.59 Q2175.77 184.886 2174.58 185.893 Q2173.38 186.9 2173.03 186.9 Q2172.56 186.9 2172.56 186.431 Z" fill="#000000" fill-rule="evenodd" fill-opacity="1" /><polyline clip-path="url(#clip910)" style="stroke:#e26f46; stroke-linecap:butt; stroke-linejoin:round; stroke-width:4; stroke-opacity:1; fill:none" points="
  1910.44,217.024 2051.8,217.024 
  "/>
<path clip-path="url(#clip910)" d="M2075.36 225.505 Q2075.36 220.937 2078.54 217.775 Q2081.73 214.613 2086.04 214.613 Q2089.69 214.613 2092.08 217.588 L2092.08 207.212 Q2092.08 205.432 2091.45 204.987 Q2090.84 204.542 2088.36 204.542 L2088.36 203.043 L2095.27 202.527 L2095.27 231.641 Q2095.27 233.421 2095.87 233.89 Q2096.51 234.335 2098.99 234.335 L2098.99 235.811 L2091.94 236.349 L2091.94 233.164 Q2089.46 236.326 2085.52 236.349 Q2081.4 236.349 2078.38 233.187 Q2075.36 230.025 2075.36 225.505 M2079.34 225.552 Q2079.34 230.002 2080.72 232.203 Q2082.64 235.272 2085.76 235.272 Q2089.32 235.272 2091.42 231.922 Q2091.96 231.103 2091.94 230.142 L2091.94 220.305 Q2091.94 219.345 2091.42 218.548 Q2089.46 215.667 2086.25 215.667 Q2082.9 215.667 2080.81 218.736 Q2079.34 221.031 2079.34 225.552 Z" fill="#000000" fill-rule="evenodd" fill-opacity="1" /><path clip-path="url(#clip910)" d="M2101.9 225.247 Q2101.9 220.726 2104.8 217.518 Q2107.7 214.309 2111.87 214.309 Q2116.09 214.309 2118.27 217.049 Q2120.47 219.79 2120.47 223.725 Q2120.47 224.451 2120.28 224.591 Q2120.1 224.732 2119.28 224.732 L2105.88 224.732 Q2105.88 229.627 2107.33 231.922 Q2109.34 235.131 2112.74 235.131 Q2113.21 235.131 2113.77 235.038 Q2114.33 234.944 2115.48 234.546 Q2116.63 234.124 2117.64 233.023 Q2118.64 231.922 2119.23 230.189 Q2119.37 229.51 2119.84 229.533 Q2120.47 229.533 2120.47 230.095 Q2120.47 230.517 2120 231.477 Q2119.56 232.414 2118.69 233.539 Q2117.82 234.663 2116.14 235.506 Q2114.47 236.349 2112.46 236.349 Q2108.24 236.349 2105.06 233.164 Q2101.9 229.955 2101.9 225.247 M2105.92 223.725 L2117.31 223.725 Q2117.31 222.717 2117.12 221.593 Q2116.96 220.469 2116.44 218.923 Q2115.95 217.354 2114.78 216.37 Q2113.61 215.386 2111.87 215.386 Q2111.1 215.386 2110.26 215.714 Q2109.44 216.042 2108.43 216.838 Q2107.42 217.635 2106.72 219.438 Q2106.02 221.242 2105.92 223.725 Z" fill="#000000" fill-rule="evenodd" fill-opacity="1" /><path clip-path="url(#clip910)" d="M2120.89 216.628 L2120.89 215.574 Q2123.1 215.48 2124.55 213.934 Q2126.02 212.365 2126.52 210.444 Q2127.03 208.523 2127.08 206.298 L2128.27 206.298 L2128.27 215.129 L2135.13 215.129 L2135.13 216.628 L2128.27 216.628 L2128.27 229.955 Q2128.27 235.131 2131.5 235.131 Q2132.89 235.131 2133.8 233.726 Q2134.71 232.297 2134.71 229.768 L2134.71 227.121 L2135.91 227.121 L2135.91 229.861 Q2135.91 232.461 2134.71 234.405 Q2133.52 236.349 2131.15 236.349 Q2130.29 236.349 2129.42 236.115 Q2128.58 235.904 2127.45 235.342 Q2126.35 234.757 2125.65 233.351 Q2124.97 231.922 2124.97 229.861 L2124.97 216.628 L2120.89 216.628 Z" fill="#000000" fill-rule="evenodd" fill-opacity="1" /><path clip-path="url(#clip910)" d="M2139.31 223.818 Q2139.31 215.714 2142.33 209.179 Q2143.62 206.439 2145.42 204.143 Q2147.23 201.848 2148.42 200.841 Q2149.62 199.834 2149.94 199.834 Q2150.41 199.834 2150.43 200.302 Q2150.43 200.536 2149.8 201.122 Q2142.07 208.992 2142.1 223.818 Q2142.1 238.692 2149.62 246.257 Q2150.43 247.077 2150.43 247.334 Q2150.43 247.803 2149.94 247.803 Q2149.62 247.803 2148.47 246.843 Q2147.32 245.882 2145.54 243.68 Q2143.76 241.479 2142.47 238.785 Q2139.31 232.25 2139.31 223.818 Z" fill="#000000" fill-rule="evenodd" fill-opacity="1" /><path clip-path="url(#clip910)" d="M2175.13 216.862 Q2175.13 216.885 2174.99 217.728 L2169.65 239.019 Q2169.37 240.144 2168.58 241.268 Q2167.8 242.416 2166.56 243.399 Q2165.34 244.407 2163.47 245.016 Q2161.62 245.648 2159.49 245.648 Q2156.09 245.648 2154.59 244.922 Q2153.12 244.219 2153.12 242.72 Q2153.12 241.409 2153.94 240.659 Q2154.76 239.933 2155.69 239.933 Q2156.58 239.933 2157.05 240.448 Q2157.52 240.963 2157.52 241.619 Q2157.52 242.345 2157.03 243.072 Q2156.54 243.821 2155.55 244.102 Q2157.12 244.594 2159.39 244.594 Q2164.2 244.594 2166.26 239.511 Q2166.3 239.441 2166.3 239.418 L2167.9 233.07 L2167.83 233.023 Q2167.43 233.492 2166.8 234.03 Q2166.19 234.546 2164.87 235.178 Q2163.56 235.811 2162.27 235.811 Q2159.58 235.811 2157.73 233.749 Q2155.9 231.665 2155.9 228.222 Q2155.9 225.715 2156.91 223.209 Q2157.94 220.68 2159.53 218.829 Q2161.15 216.955 2163.21 215.784 Q2165.3 214.613 2167.31 214.613 Q2168.72 214.613 2169.91 215.456 Q2171.11 216.276 2171.76 217.635 Q2171.88 216.51 2172.51 216.042 Q2173.17 215.574 2173.73 215.574 Q2174.36 215.574 2174.74 215.925 Q2175.13 216.253 2175.13 216.862 M2171.2 219.79 Q2171.2 219.649 2171.11 219.274 Q2171.01 218.876 2170.73 218.244 Q2170.47 217.611 2170.07 217.049 Q2169.68 216.487 2168.95 216.089 Q2168.25 215.667 2167.36 215.667 Q2165.91 215.667 2164.45 216.885 Q2163 218.08 2161.99 219.93 Q2161.06 221.71 2160.17 225.153 Q2159.3 228.596 2159.3 230.353 Q2159.3 232.086 2160.05 233.421 Q2160.8 234.757 2162.42 234.757 Q2164.29 234.757 2166.3 233.023 Q2168.39 231.22 2168.74 229.674 L2171.06 220.516 Q2171.2 219.954 2171.2 219.79 Z" fill="#000000" fill-rule="evenodd" fill-opacity="1" /><path clip-path="url(#clip910)" d="M2179.79 247.334 Q2179.79 247.1 2180.39 246.515 Q2188.12 238.645 2188.12 223.818 Q2188.12 208.945 2180.7 201.426 Q2179.79 200.56 2179.79 200.302 Q2179.79 199.834 2180.25 199.834 Q2180.58 199.834 2181.73 200.794 Q2182.9 201.754 2184.66 203.956 Q2186.44 206.158 2187.75 208.851 Q2190.91 215.386 2190.91 223.818 Q2190.91 231.922 2187.89 238.457 Q2186.6 241.198 2184.8 243.493 Q2182.99 245.789 2181.8 246.796 Q2180.61 247.803 2180.25 247.803 Q2179.79 247.803 2179.79 247.334 Z" fill="#000000" fill-rule="evenodd" fill-opacity="1" /><polyline clip-path="url(#clip910)" style="stroke:#3da44d; stroke-linecap:butt; stroke-linejoin:round; stroke-width:4; stroke-opacity:1; fill:none" points="
  1910.44,277.927 2051.8,277.927 
  "/>
<path clip-path="url(#clip910)" d="M2075.36 297.853 L2083.72 284.95 L2087.12 302.072 L2087.76 305.191 Q2087.9 304.376 2088.33 302.993 Q2088.79 301.575 2088.86 301.221 L2100.1 258.081 Q2100.17 257.797 2100.28 257.336 Q2100.42 256.84 2100.49 256.663 Q2100.56 256.486 2100.67 256.131 Q2100.77 255.777 2100.84 255.67 Q2100.91 255.529 2101.02 255.28 Q2101.13 255.032 2101.27 254.961 Q2101.41 254.891 2101.59 254.749 Q2101.76 254.607 2101.98 254.571 Q2102.23 254.536 2102.47 254.501 Q2102.72 254.465 2103.08 254.465 L2109.42 254.465 Q2111.65 254.465 2111.65 255.918 Q2111.65 257.372 2109.49 257.372 L2103.29 257.372 L2088.65 313.344 Q2088.44 314.159 2088.26 314.478 Q2088.12 314.797 2087.62 315.081 Q2087.12 315.364 2086.24 315.364 L2085.53 315.364 L2080.89 292.288 L2076.53 299.023 L2075.36 297.853 Z" fill="#000000" fill-rule="evenodd" fill-opacity="1" /><path clip-path="url(#clip910)" d="
M2109.27 257.402 L2234.96 257.402 L2234.96 254.387 L2109.27 254.387  Z
  " fill="#000000" fill-rule="evenodd" fill-opacity="1"/>
<path clip-path="url(#clip910)" d="M2114.39 292.721 Q2114.39 288.154 2117.58 284.992 Q2120.76 281.83 2125.07 281.83 Q2128.73 281.83 2131.12 284.804 L2131.12 274.428 Q2131.12 272.648 2130.48 272.203 Q2129.88 271.758 2127.39 271.758 L2127.39 270.259 L2134.3 269.744 L2134.3 298.858 Q2134.3 300.638 2134.91 301.106 Q2135.54 301.551 2138.03 301.551 L2138.03 303.027 L2130.98 303.566 L2130.98 300.38 Q2128.49 303.542 2124.56 303.566 Q2120.44 303.566 2117.41 300.404 Q2114.39 297.242 2114.39 292.721 M2118.37 292.768 Q2118.37 297.218 2119.76 299.42 Q2121.68 302.488 2124.79 302.488 Q2128.35 302.488 2130.46 299.139 Q2131 298.319 2130.98 297.359 L2130.98 287.521 Q2130.98 286.561 2130.46 285.765 Q2128.49 282.884 2125.28 282.884 Q2121.93 282.884 2119.85 285.952 Q2118.37 288.247 2118.37 292.768 Z" fill="#000000" fill-rule="evenodd" fill-opacity="1" /><path clip-path="url(#clip910)" d="M2140.93 292.464 Q2140.93 287.943 2143.84 284.734 Q2146.74 281.525 2150.91 281.525 Q2155.13 281.525 2157.3 284.266 Q2159.51 287.006 2159.51 290.941 Q2159.51 291.667 2159.32 291.808 Q2159.13 291.948 2158.31 291.948 L2144.91 291.948 Q2144.91 296.844 2146.37 299.139 Q2148.38 302.348 2151.78 302.348 Q2152.25 302.348 2152.81 302.254 Q2153.37 302.16 2154.52 301.762 Q2155.67 301.341 2156.67 300.24 Q2157.68 299.139 2158.27 297.406 Q2158.41 296.726 2158.87 296.75 Q2159.51 296.75 2159.51 297.312 Q2159.51 297.734 2159.04 298.694 Q2158.59 299.631 2157.73 300.755 Q2156.86 301.879 2155.17 302.723 Q2153.51 303.566 2151.5 303.566 Q2147.28 303.566 2144.09 300.38 Q2140.93 297.171 2140.93 292.464 M2144.96 290.941 L2156.34 290.941 Q2156.34 289.934 2156.16 288.81 Q2155.99 287.685 2155.48 286.139 Q2154.99 284.57 2153.81 283.586 Q2152.64 282.603 2150.91 282.603 Q2150.14 282.603 2149.29 282.931 Q2148.47 283.259 2147.47 284.055 Q2146.46 284.851 2145.76 286.655 Q2145.05 288.458 2144.96 290.941 Z" fill="#000000" fill-rule="evenodd" fill-opacity="1" /><path clip-path="url(#clip910)" d="M2159.93 283.844 L2159.93 282.79 Q2162.13 282.696 2163.58 281.15 Q2165.06 279.581 2165.55 277.661 Q2166.07 275.74 2166.11 273.515 L2167.31 273.515 L2167.31 282.345 L2174.17 282.345 L2174.17 283.844 L2167.31 283.844 L2167.31 297.171 Q2167.31 302.348 2170.54 302.348 Q2171.92 302.348 2172.84 300.942 Q2173.75 299.514 2173.75 296.984 L2173.75 294.337 L2174.94 294.337 L2174.94 297.078 Q2174.94 299.678 2173.75 301.622 Q2172.56 303.566 2170.19 303.566 Q2169.32 303.566 2168.46 303.332 Q2167.61 303.121 2166.49 302.559 Q2165.39 301.973 2164.69 300.568 Q2164.01 299.139 2164.01 297.078 L2164.01 283.844 L2159.93 283.844 Z" fill="#000000" fill-rule="evenodd" fill-opacity="1" /><path clip-path="url(#clip910)" d="M2178.35 291.035 Q2178.35 282.931 2181.37 276.396 Q2182.66 273.655 2184.46 271.36 Q2186.26 269.065 2187.46 268.057 Q2188.65 267.05 2188.98 267.05 Q2189.45 267.05 2189.47 267.519 Q2189.47 267.753 2188.84 268.338 Q2181.11 276.208 2181.13 291.035 Q2181.13 305.908 2188.65 313.473 Q2189.47 314.293 2189.47 314.551 Q2189.47 315.019 2188.98 315.019 Q2188.65 315.019 2187.5 314.059 Q2186.36 313.099 2184.58 310.897 Q2182.8 308.695 2181.51 306.002 Q2178.35 299.467 2178.35 291.035 Z" fill="#000000" fill-rule="evenodd" fill-opacity="1" /><path clip-path="url(#clip910)" d="M2214.17 284.078 Q2214.17 284.102 2214.03 284.945 L2208.69 306.236 Q2208.41 307.36 2207.61 308.484 Q2206.84 309.632 2205.6 310.616 Q2204.38 311.623 2202.51 312.232 Q2200.66 312.864 2198.52 312.864 Q2195.13 312.864 2193.63 312.138 Q2192.15 311.436 2192.15 309.937 Q2192.15 308.625 2192.97 307.875 Q2193.79 307.149 2194.73 307.149 Q2195.62 307.149 2196.09 307.665 Q2196.56 308.18 2196.56 308.836 Q2196.56 309.562 2196.06 310.288 Q2195.57 311.038 2194.59 311.319 Q2196.16 311.81 2198.43 311.81 Q2203.23 311.81 2205.29 306.728 Q2205.34 306.658 2205.34 306.634 L2206.93 300.287 L2206.86 300.24 Q2206.46 300.708 2205.83 301.247 Q2205.22 301.762 2203.91 302.395 Q2202.6 303.027 2201.31 303.027 Q2198.62 303.027 2196.77 300.966 Q2194.94 298.881 2194.94 295.438 Q2194.94 292.932 2195.95 290.426 Q2196.98 287.896 2198.57 286.046 Q2200.19 284.172 2202.25 283.001 Q2204.33 281.83 2206.35 281.83 Q2207.75 281.83 2208.95 282.673 Q2210.14 283.493 2210.8 284.851 Q2210.91 283.727 2211.55 283.259 Q2212.2 282.79 2212.77 282.79 Q2213.4 282.79 2213.77 283.141 Q2214.17 283.469 2214.17 284.078 M2210.24 287.006 Q2210.24 286.866 2210.14 286.491 Q2210.05 286.093 2209.77 285.46 Q2209.51 284.828 2209.11 284.266 Q2208.71 283.704 2207.99 283.305 Q2207.28 282.884 2206.39 282.884 Q2204.94 282.884 2203.49 284.102 Q2202.04 285.296 2201.03 287.147 Q2200.09 288.927 2199.2 292.37 Q2198.34 295.813 2198.34 297.57 Q2198.34 299.303 2199.09 300.638 Q2199.84 301.973 2201.45 301.973 Q2203.33 301.973 2205.34 300.24 Q2207.42 298.436 2207.78 296.89 L2210.1 287.732 Q2210.24 287.17 2210.24 287.006 Z" fill="#000000" fill-rule="evenodd" fill-opacity="1" /><path clip-path="url(#clip910)" d="M2218.82 314.551 Q2218.82 314.317 2219.43 313.731 Q2227.16 305.861 2227.16 291.035 Q2227.16 276.162 2219.74 268.643 Q2218.82 267.776 2218.82 267.519 Q2218.82 267.05 2219.29 267.05 Q2219.62 267.05 2220.77 268.01 Q2221.94 268.971 2223.69 271.173 Q2225.47 273.374 2226.79 276.068 Q2229.95 282.603 2229.95 291.035 Q2229.95 299.139 2226.93 305.674 Q2225.64 308.414 2223.83 310.71 Q2222.03 313.005 2220.84 314.012 Q2219.64 315.019 2219.29 315.019 Q2218.82 315.019 2218.82 314.551 Z" fill="#000000" fill-rule="evenodd" fill-opacity="1" /></svg>
