<?xml version="1.0" encoding="utf-8"?>
<svg xmlns="http://www.w3.org/2000/svg" xmlns:xlink="http://www.w3.org/1999/xlink" width="600" height="400" viewBox="0 0 2400 1600">
<defs>
  <clipPath id="clip460">
    <rect x="0" y="0" width="2400" height="1600"/>
  </clipPath>
</defs>
<path clip-path="url(#clip460)" d="
M0 1600 L2400 1600 L2400 0 L0 0  Z
  " fill="#ffffff" fill-rule="evenodd" fill-opacity="1"/>
<defs>
  <clipPath id="clip461">
    <rect x="480" y="0" width="1681" height="1600"/>
  </clipPath>
</defs>
<path clip-path="url(#clip460)" d="
M175.445 1486.45 L2352.76 1486.45 L2352.76 47.2441 L175.445 47.2441  Z
  " fill="#ffffff" fill-rule="evenodd" fill-opacity="1"/>
<defs>
  <clipPath id="clip462">
    <rect x="175" y="47" width="2178" height="1440"/>
  </clipPath>
</defs>
<polyline clip-path="url(#clip462)" style="stroke:#000000; stroke-linecap:butt; stroke-linejoin:round; stroke-width:2; stroke-opacity:0.1; fill:none" points="
  237.067,1486.45 237.067,47.2441 
  "/>
<polyline clip-path="url(#clip462)" style="stroke:#000000; stroke-linecap:butt; stroke-linejoin:round; stroke-width:2; stroke-opacity:0.1; fill:none" points="
  912.566,1486.45 912.566,47.2441 
  "/>
<polyline clip-path="url(#clip462)" style="stroke:#000000; stroke-linecap:butt; stroke-linejoin:round; stroke-width:2; stroke-opacity:0.1; fill:none" points="
  1601.85,1486.45 1601.85,47.2441 
  "/>
<polyline clip-path="url(#clip462)" style="stroke:#000000; stroke-linecap:butt; stroke-linejoin:round; stroke-width:2; stroke-opacity:0.1; fill:none" points="
  2291.13,1486.45 2291.13,47.2441 
  "/>
<polyline clip-path="url(#clip460)" style="stroke:#000000; stroke-linecap:butt; stroke-linejoin:round; stroke-width:4; stroke-opacity:1; fill:none" points="
  175.445,1486.45 2352.76,1486.45 
  "/>
<polyline clip-path="url(#clip460)" style="stroke:#000000; stroke-linecap:butt; stroke-linejoin:round; stroke-width:4; stroke-opacity:1; fill:none" points="
  237.067,1486.45 237.067,1467.55 
  "/>
<polyline clip-path="url(#clip460)" style="stroke:#000000; stroke-linecap:butt; stroke-linejoin:round; stroke-width:4; stroke-opacity:1; fill:none" points="
  912.566,1486.45 912.566,1467.55 
  "/>
<polyline clip-path="url(#clip460)" style="stroke:#000000; stroke-linecap:butt; stroke-linejoin:round; stroke-width:4; stroke-opacity:1; fill:none" points="
  1601.85,1486.45 1601.85,1467.55 
  "/>
<polyline clip-path="url(#clip460)" style="stroke:#000000; stroke-linecap:butt; stroke-linejoin:round; stroke-width:4; stroke-opacity:1; fill:none" points="
  2291.13,1486.45 2291.13,1467.55 
  "/>
<path clip-path="url(#clip460)" d="M222.223 1554.64 L222.223 1553.16 L222.926 1553.16 Q225.479 1553.16 226.276 1552.81 Q227.095 1552.43 227.166 1551.08 L227.166 1525.48 Q227.119 1524.23 226.322 1523.86 Q225.526 1523.46 222.926 1523.46 L222.223 1523.46 L222.223 1522.01 Q224.472 1522.1 228.969 1522.1 Q230.796 1522.1 232.365 1522.06 Q233.958 1522.01 234.216 1522.01 L247.262 1522.01 L248.597 1532.81 L247.356 1532.81 Q246.981 1529.88 246.559 1528.36 Q246.161 1526.81 245.177 1525.57 Q244.194 1524.33 242.554 1523.91 Q240.915 1523.46 238.151 1523.46 L234.052 1523.46 Q232.506 1523.46 231.967 1523.77 Q231.428 1524.07 231.428 1525.33 L231.428 1550.94 Q231.428 1552.41 232.412 1552.79 Q233.396 1553.16 236.699 1553.16 L237.565 1553.16 L237.565 1554.64 Q233.49 1554.5 229.367 1554.5 L229.063 1554.5 Q226.065 1554.5 222.223 1554.64 Z" fill="#000000" fill-rule="evenodd" fill-opacity="1" /><path clip-path="url(#clip460)" d="M894.753 1554.71 L894.753 1553.23 Q896.955 1553.23 898.571 1552.55 Q900.187 1551.87 900.656 1551.38 Q901.147 1550.87 901.71 1550.05 L909.58 1538.45 L900.749 1525.1 Q900.07 1524.09 899.157 1523.77 Q898.267 1523.44 896.299 1523.44 L895.386 1523.44 L895.386 1521.94 Q898.032 1522.08 901.616 1522.08 Q906.933 1522.08 908.619 1521.94 L908.619 1523.44 Q907.19 1523.48 906.347 1523.95 Q905.504 1524.4 905.504 1524.87 Q905.504 1525.05 905.832 1525.59 L912.015 1534.84 L917.496 1526.74 Q917.918 1526.06 917.918 1525.64 Q917.918 1524.77 917.122 1524.14 Q916.349 1523.48 914.943 1523.44 L914.943 1521.94 Q916.864 1522.08 921.103 1522.08 Q921.642 1522.08 922.509 1522.06 Q923.399 1522.03 924.57 1521.99 Q925.741 1521.94 926.42 1521.94 L926.42 1523.44 Q921.572 1523.48 919.464 1526.55 L912.882 1536.18 L923.001 1551.5 Q923.727 1552.55 924.64 1552.9 Q925.554 1553.23 927.521 1553.23 L928.435 1553.23 L928.435 1554.71 Q925.413 1554.57 922.204 1554.57 Q916.887 1554.57 915.201 1554.71 L915.201 1553.23 Q916.63 1553.18 917.473 1552.74 Q918.316 1552.27 918.316 1551.78 Q918.316 1551.73 918.058 1551.26 L910.493 1539.79 L903.677 1549.86 Q903.209 1550.63 903.209 1551.01 Q903.209 1551.78 903.958 1552.48 Q904.731 1553.16 906.23 1553.23 L906.23 1554.71 Q904.497 1554.57 900.07 1554.57 Q899.93 1554.57 894.753 1554.71 Z" fill="#000000" fill-rule="evenodd" fill-opacity="1" /><path clip-path="url(#clip460)" d="M1580.11 1554.71 L1580.11 1553.23 Q1581.84 1553.23 1582.94 1552.9 Q1584.04 1552.55 1584.44 1551.92 Q1584.86 1551.26 1584.95 1550.84 Q1585.05 1550.4 1585.05 1549.67 L1585.05 1525.69 Q1585.05 1524.3 1584.44 1523.88 Q1583.85 1523.44 1581.25 1523.44 L1580.11 1523.44 L1580.11 1521.94 L1588.21 1521.94 Q1589.08 1521.94 1589.31 1522.1 Q1589.55 1522.24 1589.9 1522.99 L1600.3 1549.86 L1610.79 1522.85 Q1611.02 1522.17 1611.23 1522.06 Q1611.47 1521.94 1612.38 1521.94 L1620.49 1521.94 L1620.49 1523.44 L1619.34 1523.44 Q1616.74 1523.44 1616.13 1523.88 Q1615.54 1524.3 1615.54 1525.69 L1615.54 1550.96 Q1615.54 1552.34 1616.13 1552.79 Q1616.74 1553.23 1619.34 1553.23 L1620.49 1553.23 L1620.49 1554.71 Q1618.71 1554.57 1613.62 1554.57 Q1608.49 1554.57 1606.71 1554.71 L1606.71 1553.23 L1607.89 1553.23 Q1610.48 1553.23 1611.07 1552.81 Q1611.66 1552.36 1611.66 1550.96 L1611.66 1523.44 L1611.61 1523.44 L1599.83 1553.79 Q1599.5 1554.71 1598.96 1554.71 Q1598.38 1554.71 1598 1553.65 L1586.43 1523.81 L1586.38 1523.81 L1586.38 1549.67 Q1586.38 1550.4 1586.48 1550.84 Q1586.57 1551.26 1586.97 1551.92 Q1587.39 1552.55 1588.49 1552.9 Q1589.59 1553.23 1591.33 1553.23 L1591.33 1554.71 Q1586.29 1554.57 1585.7 1554.57 Q1585.14 1554.57 1580.11 1554.71 Z" fill="#000000" fill-rule="evenodd" fill-opacity="1" /><path clip-path="url(#clip460)" d="M2276.29 1554.64 L2276.29 1553.16 L2276.99 1553.16 Q2279.55 1553.16 2280.34 1552.81 Q2281.16 1552.43 2281.23 1551.08 L2281.23 1525.48 Q2281.19 1524.23 2280.39 1523.86 Q2279.59 1523.46 2276.99 1523.46 L2276.29 1523.46 L2276.29 1522.01 Q2278.54 1522.1 2283.04 1522.1 Q2284.86 1522.1 2286.43 1522.06 Q2288.02 1522.01 2288.28 1522.01 L2301.33 1522.01 L2302.66 1532.81 L2301.42 1532.81 Q2301.05 1529.88 2300.63 1528.36 Q2300.23 1526.81 2299.24 1525.57 Q2298.26 1524.33 2296.62 1523.91 Q2294.98 1523.46 2292.22 1523.46 L2288.12 1523.46 Q2286.57 1523.46 2286.03 1523.77 Q2285.5 1524.07 2285.5 1525.33 L2285.5 1550.94 Q2285.5 1552.41 2286.48 1552.79 Q2287.46 1553.16 2290.77 1553.16 L2291.63 1553.16 L2291.63 1554.64 Q2287.56 1554.5 2283.43 1554.5 L2283.13 1554.5 Q2280.13 1554.5 2276.29 1554.64 Z" fill="#000000" fill-rule="evenodd" fill-opacity="1" /><polyline clip-path="url(#clip462)" style="stroke:#000000; stroke-linecap:butt; stroke-linejoin:round; stroke-width:2; stroke-opacity:0.1; fill:none" points="
  175.445,1445.72 2352.76,1445.72 
  "/>
<polyline clip-path="url(#clip462)" style="stroke:#000000; stroke-linecap:butt; stroke-linejoin:round; stroke-width:2; stroke-opacity:0.1; fill:none" points="
  175.445,1125.97 2352.76,1125.97 
  "/>
<polyline clip-path="url(#clip462)" style="stroke:#000000; stroke-linecap:butt; stroke-linejoin:round; stroke-width:2; stroke-opacity:0.1; fill:none" points="
  175.445,806.223 2352.76,806.223 
  "/>
<polyline clip-path="url(#clip462)" style="stroke:#000000; stroke-linecap:butt; stroke-linejoin:round; stroke-width:2; stroke-opacity:0.1; fill:none" points="
  175.445,486.476 2352.76,486.476 
  "/>
<polyline clip-path="url(#clip462)" style="stroke:#000000; stroke-linecap:butt; stroke-linejoin:round; stroke-width:2; stroke-opacity:0.1; fill:none" points="
  175.445,166.73 2352.76,166.73 
  "/>
<polyline clip-path="url(#clip460)" style="stroke:#000000; stroke-linecap:butt; stroke-linejoin:round; stroke-width:4; stroke-opacity:1; fill:none" points="
  175.445,1486.45 175.445,47.2441 
  "/>
<polyline clip-path="url(#clip460)" style="stroke:#000000; stroke-linecap:butt; stroke-linejoin:round; stroke-width:4; stroke-opacity:1; fill:none" points="
  175.445,1445.72 194.343,1445.72 
  "/>
<polyline clip-path="url(#clip460)" style="stroke:#000000; stroke-linecap:butt; stroke-linejoin:round; stroke-width:4; stroke-opacity:1; fill:none" points="
  175.445,1125.97 194.343,1125.97 
  "/>
<polyline clip-path="url(#clip460)" style="stroke:#000000; stroke-linecap:butt; stroke-linejoin:round; stroke-width:4; stroke-opacity:1; fill:none" points="
  175.445,806.223 194.343,806.223 
  "/>
<polyline clip-path="url(#clip460)" style="stroke:#000000; stroke-linecap:butt; stroke-linejoin:round; stroke-width:4; stroke-opacity:1; fill:none" points="
  175.445,486.476 194.343,486.476 
  "/>
<polyline clip-path="url(#clip460)" style="stroke:#000000; stroke-linecap:butt; stroke-linejoin:round; stroke-width:4; stroke-opacity:1; fill:none" points="
  175.445,166.73 194.343,166.73 
  "/>
<path clip-path="url(#clip460)" d="M127.501 1431.51 Q123.89 1431.51 122.061 1435.08 Q120.255 1438.62 120.255 1445.75 Q120.255 1452.86 122.061 1456.42 Q123.89 1459.96 127.501 1459.96 Q131.135 1459.96 132.941 1456.42 Q134.769 1452.86 134.769 1445.75 Q134.769 1438.62 132.941 1435.08 Q131.135 1431.51 127.501 1431.51 M127.501 1427.81 Q133.311 1427.81 136.367 1432.42 Q139.445 1437 139.445 1445.75 Q139.445 1454.48 136.367 1459.08 Q133.311 1463.67 127.501 1463.67 Q121.691 1463.67 118.612 1459.08 Q115.556 1454.48 115.556 1445.75 Q115.556 1437 118.612 1432.42 Q121.691 1427.81 127.501 1427.81 Z" fill="#000000" fill-rule="evenodd" fill-opacity="1" /><path clip-path="url(#clip460)" d="M119.538 1139.31 L127.177 1139.31 L127.177 1112.95 L118.867 1114.62 L118.867 1110.36 L127.13 1108.69 L131.806 1108.69 L131.806 1139.31 L139.445 1139.31 L139.445 1143.25 L119.538 1143.25 L119.538 1139.31 Z" fill="#000000" fill-rule="evenodd" fill-opacity="1" /><path clip-path="url(#clip460)" d="M123.126 819.568 L139.445 819.568 L139.445 823.503 L117.501 823.503 L117.501 819.568 Q120.163 816.813 124.746 812.183 Q129.353 807.531 130.533 806.188 Q132.779 803.665 133.658 801.929 Q134.561 800.17 134.561 798.48 Q134.561 795.725 132.617 793.989 Q130.695 792.253 127.593 792.253 Q125.394 792.253 122.941 793.017 Q120.51 793.781 117.732 795.332 L117.732 790.61 Q120.556 789.475 123.01 788.897 Q125.464 788.318 127.501 788.318 Q132.871 788.318 136.066 791.003 Q139.26 793.688 139.26 798.179 Q139.26 800.309 138.45 802.23 Q137.663 804.128 135.556 806.721 Q134.978 807.392 131.876 810.609 Q128.774 813.804 123.126 819.568 Z" fill="#000000" fill-rule="evenodd" fill-opacity="1" /><path clip-path="url(#clip460)" d="M132.316 485.122 Q135.672 485.84 137.547 488.108 Q139.445 490.377 139.445 493.71 Q139.445 498.826 135.927 501.627 Q132.408 504.428 125.927 504.428 Q123.751 504.428 121.436 503.988 Q119.144 503.571 116.691 502.715 L116.691 498.201 Q118.635 499.335 120.95 499.914 Q123.265 500.493 125.788 500.493 Q130.186 500.493 132.478 498.757 Q134.792 497.02 134.792 493.71 Q134.792 490.655 132.64 488.942 Q130.51 487.206 126.691 487.206 L122.663 487.206 L122.663 483.363 L126.876 483.363 Q130.325 483.363 132.154 481.997 Q133.982 480.608 133.982 478.016 Q133.982 475.354 132.084 473.942 Q130.209 472.507 126.691 472.507 Q124.769 472.507 122.57 472.923 Q120.371 473.34 117.732 474.22 L117.732 470.053 Q120.394 469.312 122.709 468.942 Q125.047 468.571 127.107 468.571 Q132.431 468.571 135.533 471.002 Q138.635 473.409 138.635 477.53 Q138.635 480.4 136.992 482.391 Q135.348 484.358 132.316 485.122 Z" fill="#000000" fill-rule="evenodd" fill-opacity="1" /><path clip-path="url(#clip460)" d="M129.862 153.524 L118.056 171.973 L129.862 171.973 L129.862 153.524 M128.635 149.45 L134.515 149.45 L134.515 171.973 L139.445 171.973 L139.445 175.862 L134.515 175.862 L134.515 184.01 L129.862 184.01 L129.862 175.862 L114.26 175.862 L114.26 171.348 L128.635 149.45 Z" fill="#000000" fill-rule="evenodd" fill-opacity="1" /><path clip-path="url(#clip460)" d="M20.8447 994.42 Q20.8447 1001.42 26.0645 1005.56 Q31.2844 1009.67 40.2919 1009.67 Q49.2675 1009.67 54.4874 1005.56 Q59.7073 1001.42 59.7073 994.42 Q59.7073 987.418 54.4874 983.344 Q49.2675 979.238 40.2919 979.238 Q31.2844 979.238 26.0645 983.344 Q20.8447 987.418 20.8447 994.42 M63.1448 985.413 L72.4069 976.946 L72.4069 984.712 L64.7999 991.746 Q64.8635 992.797 64.8954 993.37 Q64.9272 993.911 64.9272 994.42 Q64.9272 1004.45 58.2432 1010.46 Q51.5274 1016.45 40.2919 1016.45 Q29.0246 1016.45 22.3406 1010.46 Q15.6248 1004.45 15.6248 994.42 Q15.6248 984.426 22.3406 978.442 Q29.0246 972.458 40.2919 972.458 Q48.5673 972.458 54.4556 975.8 Q60.3439 979.11 63.1448 985.413 Z" fill="#000000" fill-rule="evenodd" fill-opacity="1" /><path clip-path="url(#clip460)" d="M49.9359 963.26 L28.3562 963.26 L28.3562 957.403 L49.7131 957.403 Q54.7739 957.403 57.3202 955.43 Q59.8346 953.457 59.8346 949.51 Q59.8346 944.767 56.8109 942.03 Q53.7872 939.261 48.5673 939.261 L28.3562 939.261 L28.3562 933.405 L64.0042 933.405 L64.0042 939.261 L58.5296 939.261 Q61.7762 941.394 63.3676 944.226 Q64.9272 947.027 64.9272 950.751 Q64.9272 956.894 61.1078 960.077 Q57.2883 963.26 49.9359 963.26 M27.4968 948.523 L27.4968 948.523 Z" fill="#000000" fill-rule="evenodd" fill-opacity="1" /><path clip-path="url(#clip460)" d="M46.0847 905.141 Q46.0847 912.239 47.7079 914.976 Q49.3312 917.713 53.2461 917.713 Q56.3653 917.713 58.2114 915.676 Q60.0256 913.607 60.0256 910.074 Q60.0256 905.205 56.5881 902.276 Q53.1188 899.316 47.3897 899.316 L46.0847 899.316 L46.0847 905.141 M43.6657 893.46 L64.0042 893.46 L64.0042 899.316 L58.5933 899.316 Q61.8398 901.322 63.3994 904.313 Q64.9272 907.305 64.9272 911.634 Q64.9272 917.108 61.8716 920.355 Q58.7843 923.57 53.6281 923.57 Q47.6125 923.57 44.5569 919.559 Q41.5014 915.517 41.5014 907.528 L41.5014 899.316 L40.9285 899.316 Q36.8862 899.316 34.6901 901.99 Q32.4621 904.632 32.4621 909.438 Q32.4621 912.493 33.1941 915.39 Q33.9262 918.286 35.3903 920.96 L29.9795 920.96 Q28.7381 917.745 28.1334 914.721 Q27.4968 911.698 27.4968 908.833 Q27.4968 901.099 31.5072 897.279 Q35.5176 893.46 43.6657 893.46 Z" fill="#000000" fill-rule="evenodd" fill-opacity="1" /><path clip-path="url(#clip460)" d="M42.4881 851.765 L64.0042 851.765 L64.0042 857.621 L42.679 857.621 Q37.6183 857.621 35.1038 859.594 Q32.5894 861.568 32.5894 865.514 Q32.5894 870.257 35.6131 872.994 Q38.6368 875.731 43.8567 875.731 L64.0042 875.731 L64.0042 881.62 L28.3562 881.62 L28.3562 875.731 L33.8944 875.731 Q30.6797 873.631 29.0883 870.798 Q27.4968 867.933 27.4968 864.209 Q27.4968 858.067 31.3163 854.916 Q35.1038 851.765 42.4881 851.765 Z" fill="#000000" fill-rule="evenodd" fill-opacity="1" /><path clip-path="url(#clip460)" d="M18.2347 834.291 L28.3562 834.291 L28.3562 822.228 L32.9077 822.228 L32.9077 834.291 L52.2594 834.291 Q56.6199 834.291 57.8613 833.113 Q59.1026 831.904 59.1026 828.243 L59.1026 822.228 L64.0042 822.228 L64.0042 828.243 Q64.0042 835.023 61.4897 837.601 Q58.9434 840.179 52.2594 840.179 L32.9077 840.179 L32.9077 844.476 L28.3562 844.476 L28.3562 840.179 L18.2347 840.179 L18.2347 834.291 Z" fill="#000000" fill-rule="evenodd" fill-opacity="1" /><path clip-path="url(#clip460)" d="M49.9359 815.13 L28.3562 815.13 L28.3562 809.273 L49.7131 809.273 Q54.7739 809.273 57.3202 807.3 Q59.8346 805.327 59.8346 801.38 Q59.8346 796.637 56.8109 793.9 Q53.7872 791.131 48.5673 791.131 L28.3562 791.131 L28.3562 785.275 L64.0042 785.275 L64.0042 791.131 L58.5296 791.131 Q61.7762 793.264 63.3676 796.096 Q64.9272 798.897 64.9272 802.621 Q64.9272 808.764 61.1078 811.947 Q57.2883 815.13 49.9359 815.13 M27.4968 800.393 L27.4968 800.393 Z" fill="#000000" fill-rule="evenodd" fill-opacity="1" /><path clip-path="url(#clip460)" d="M35.1993 745.457 Q31.2526 743.261 29.3747 740.206 Q27.4968 737.15 27.4968 733.012 Q27.4968 727.442 31.4117 724.419 Q35.2948 721.395 42.4881 721.395 L64.0042 721.395 L64.0042 727.283 L42.679 727.283 Q37.5546 727.283 35.072 729.097 Q32.5894 730.912 32.5894 734.636 Q32.5894 739.187 35.6131 741.829 Q38.6368 744.471 43.8567 744.471 L64.0042 744.471 L64.0042 750.359 L42.679 750.359 Q37.5228 750.359 35.072 752.173 Q32.5894 753.987 32.5894 757.775 Q32.5894 762.263 35.6449 764.904 Q38.6686 767.546 43.8567 767.546 L64.0042 767.546 L64.0042 773.434 L28.3562 773.434 L28.3562 767.546 L33.8944 767.546 Q30.616 765.541 29.0564 762.74 Q27.4968 759.939 27.4968 756.088 Q27.4968 752.205 29.4702 749.499 Q31.4436 746.762 35.1993 745.457 Z" fill="#000000" fill-rule="evenodd" fill-opacity="1" /><path clip-path="url(#clip460)" d="M16.4842 709.459 L16.4842 699.879 L48.8219 687.752 L16.4842 675.562 L16.4842 665.981 L64.0042 665.981 L64.0042 672.252 L22.277 672.252 L54.8694 684.506 L54.8694 690.967 L22.277 703.221 L64.0042 703.221 L64.0042 709.459 L16.4842 709.459 Z" fill="#000000" fill-rule="evenodd" fill-opacity="1" /><path clip-path="url(#clip460)" d="M44.7161 622.981 L47.5806 622.981 L47.5806 649.908 Q53.6281 649.526 56.8109 646.28 Q59.9619 643.001 59.9619 637.177 Q59.9619 633.803 59.1344 630.652 Q58.3069 627.469 56.6518 624.35 L62.1899 624.35 Q63.5267 627.501 64.227 630.811 Q64.9272 634.121 64.9272 637.527 Q64.9272 646.057 59.9619 651.054 Q54.9967 656.019 46.5303 656.019 Q37.7774 656.019 32.6531 651.308 Q27.4968 646.566 27.4968 638.545 Q27.4968 631.352 32.1438 627.182 Q36.7589 622.981 44.7161 622.981 M42.9973 628.837 Q38.1912 628.901 35.3266 631.543 Q32.4621 634.153 32.4621 638.482 Q32.4621 643.383 35.2312 646.343 Q38.0002 649.271 43.0292 649.717 L42.9973 628.837 Z" fill="#000000" fill-rule="evenodd" fill-opacity="1" /><path clip-path="url(#clip460)" d="M18.2347 607.576 L28.3562 607.576 L28.3562 595.513 L32.9077 595.513 L32.9077 607.576 L52.2594 607.576 Q56.6199 607.576 57.8613 606.398 Q59.1026 605.189 59.1026 601.529 L59.1026 595.513 L64.0042 595.513 L64.0042 601.529 Q64.0042 608.308 61.4897 610.886 Q58.9434 613.464 52.2594 613.464 L32.9077 613.464 L32.9077 617.761 L28.3562 617.761 L28.3562 613.464 L18.2347 613.464 L18.2347 607.576 Z" fill="#000000" fill-rule="evenodd" fill-opacity="1" /><path clip-path="url(#clip460)" d="M33.8307 567.154 Q33.2578 568.14 33.0032 569.318 Q32.7167 570.464 32.7167 571.864 Q32.7167 576.83 35.9632 579.503 Q39.1779 582.145 45.2253 582.145 L64.0042 582.145 L64.0042 588.033 L28.3562 588.033 L28.3562 582.145 L33.8944 582.145 Q30.6479 580.299 29.0883 577.339 Q27.4968 574.379 27.4968 570.146 Q27.4968 569.541 27.5923 568.809 Q27.656 568.077 27.8151 567.186 L33.8307 567.154 Z" fill="#000000" fill-rule="evenodd" fill-opacity="1" /><path clip-path="url(#clip460)" d="M28.3562 561.011 L28.3562 555.154 L64.0042 555.154 L64.0042 561.011 L28.3562 561.011 M14.479 561.011 L14.479 555.154 L21.895 555.154 L21.895 561.011 L14.479 561.011 Z" fill="#000000" fill-rule="evenodd" fill-opacity="1" /><path clip-path="url(#clip460)" d="M29.7248 517.247 L35.1993 517.247 Q33.8307 519.729 33.1623 522.244 Q32.4621 524.726 32.4621 527.273 Q32.4621 532.97 36.0905 536.121 Q39.6872 539.272 46.212 539.272 Q52.7369 539.272 56.3653 536.121 Q59.9619 532.97 59.9619 527.273 Q59.9619 524.726 59.2935 522.244 Q58.5933 519.729 57.2247 517.247 L62.6355 517.247 Q63.7814 519.697 64.3543 522.339 Q64.9272 524.949 64.9272 527.909 Q64.9272 535.962 59.8664 540.704 Q54.8057 545.447 46.212 545.447 Q37.491 545.447 32.4939 540.672 Q27.4968 535.866 27.4968 527.527 Q27.4968 524.822 28.0697 522.244 Q28.6108 519.666 29.7248 517.247 Z" fill="#000000" fill-rule="evenodd" fill-opacity="1" /><polyline clip-path="url(#clip462)" style="stroke:#009af9; stroke-linecap:butt; stroke-linejoin:round; stroke-width:4; stroke-opacity:1; fill:none" points="
  237.067,1433.84 250.853,1433.85 264.639,1433.87 278.424,1433.88 292.21,1433.91 305.996,1433.94 319.781,1433.97 333.567,1434.01 347.353,1434.06 361.138,1434.11 
  374.924,1434.16 388.71,1434.21 402.495,1434.27 416.281,1434.33 430.067,1434.39 443.852,1434.44 457.638,1434.49 471.424,1434.54 485.209,1434.58 498.995,1434.61 
  512.781,1434.63 526.567,1434.62 540.352,1434.59 554.138,1434.53 567.924,1434.43 581.709,1434.28 595.495,1434.07 609.281,1433.79 623.066,1433.42 636.852,1432.95 
  650.638,1432.34 664.423,1431.59 678.209,1430.66 691.995,1429.51 705.78,1428.13 719.566,1426.48 733.352,1424.53 747.137,1422.25 760.923,1419.63 774.709,1416.66 
  788.495,1413.37 802.28,1409.79 816.066,1406.02 829.852,1402.18 843.637,1398.42 857.423,1394.93 871.209,1391.92 884.994,1389.6 898.78,1388.13 912.566,1387.63 
  926.351,1387.59 940.137,1387.47 953.923,1387.28 967.708,1387.01 981.494,1386.66 995.28,1386.22 1009.07,1385.7 1022.85,1385.08 1036.64,1384.37 1050.42,1383.55 
  1064.21,1382.62 1077.99,1381.58 1091.78,1380.4 1105.57,1379.09 1119.35,1377.62 1133.14,1375.98 1146.92,1374.16 1160.71,1372.13 1174.49,1369.87 1188.28,1367.35 
  1202.06,1364.54 1215.85,1361.4 1229.64,1357.88 1243.42,1353.93 1257.21,1349.48 1270.99,1344.46 1284.78,1338.77 1298.56,1332.3 1312.35,1324.9 1326.14,1316.41 
  1339.92,1306.62 1353.71,1295.26 1367.49,1281.99 1381.28,1266.4 1395.06,1247.94 1408.85,1225.94 1422.64,1199.47 1436.42,1167.39 1450.21,1128.14 1463.99,1079.73 
  1477.78,1019.66 1491.56,945.765 1505.35,858.928 1519.14,758.484 1532.92,641.745 1546.71,511.219 1560.49,375.487 1574.28,251.018 1588.06,161.075 1601.85,127.941 
  1615.64,192.744 1629.42,355.133 1643.21,552.287 1656.99,738.048 1670.78,894.05 1684.56,1022.63 1698.35,1121.08 1712.14,1193.8 1725.92,1247.99 1739.71,1288.87 
  1753.49,1320.09 1767.28,1344.19 1781.06,1362.98 1794.85,1377.74 1808.64,1389.41 1822.42,1398.7 1836.21,1406.11 1849.99,1412.06 1863.78,1416.82 1877.56,1420.65 
  1891.35,1423.73 1905.13,1426.19 1918.92,1428.17 1932.71,1429.74 1946.49,1430.98 1960.28,1431.95 1974.06,1432.71 1987.85,1433.3 2001.63,1433.73 2015.42,1434.05 
  2029.21,1434.28 2042.99,1434.43 2056.78,1434.52 2070.56,1434.57 2084.35,1434.57 2098.13,1434.55 2111.92,1434.51 2125.71,1434.45 2139.49,1434.38 2153.28,1434.31 
  2167.06,1434.24 2180.85,1434.16 2194.63,1434.09 2208.42,1434.03 2222.21,1433.98 2235.99,1433.93 2249.78,1433.89 2263.56,1433.86 2277.35,1433.85 2291.13,1433.84 
  
  "/>
<polyline clip-path="url(#clip462)" style="stroke:#e26f46; stroke-linecap:butt; stroke-linejoin:round; stroke-width:4; stroke-opacity:1; fill:none" points="
  237.067,1445.61 250.853,1445.61 264.639,1445.61 278.424,1445.61 292.21,1445.61 305.996,1445.61 319.781,1445.61 333.567,1445.61 347.353,1445.61 361.138,1445.61 
  374.924,1445.61 388.71,1445.61 402.495,1445.62 416.281,1445.62 430.067,1445.62 443.852,1445.62 457.638,1445.63 471.424,1445.63 485.209,1445.64 498.995,1445.64 
  512.781,1445.65 526.567,1445.65 540.352,1445.66 554.138,1445.66 567.924,1445.67 581.709,1445.68 595.495,1445.69 609.281,1445.69 623.066,1445.7 636.852,1445.7 
  650.638,1445.7 664.423,1445.7 678.209,1445.69 691.995,1445.67 705.78,1445.64 719.566,1445.6 733.352,1445.54 747.137,1445.45 760.923,1445.34 774.709,1445.19 
  788.495,1445.01 802.28,1444.8 816.066,1444.55 829.852,1444.28 843.637,1443.99 857.423,1443.71 871.209,1443.46 884.994,1443.25 898.78,1443.12 912.566,1443.08 
  926.351,1443.07 940.137,1443.06 953.923,1443.05 967.708,1443.02 981.494,1442.99 995.28,1442.95 1009.07,1442.9 1022.85,1442.84 1036.64,1442.77 1050.42,1442.7 
  1064.21,1442.61 1077.99,1442.51 1091.78,1442.39 1105.57,1442.26 1119.35,1442.11 1133.14,1441.93 1146.92,1441.74 1160.71,1441.52 1174.49,1441.27 1188.28,1440.98 
  1202.06,1440.64 1215.85,1440.26 1229.64,1439.81 1243.42,1439.29 1257.21,1438.67 1270.99,1437.95 1284.78,1437.09 1298.56,1436.05 1312.35,1434.79 1326.14,1433.25 
  1339.92,1431.35 1353.71,1428.97 1367.49,1425.94 1381.28,1422.05 1395.06,1416.97 1408.85,1410.22 1422.64,1401.12 1436.42,1388.61 1450.21,1371.08 1463.99,1346.06 
  1477.78,1309.75 1491.56,1257.04 1505.35,1183.63 1519.14,1083.24 1532.92,945.988 1546.71,766.759 1560.49,552.06 1574.28,330.28 1588.06,155.436 1601.85,87.9763 
  1615.64,218.293 1629.42,516.422 1643.21,823.167 1656.99,1056.12 1670.78,1209.41 1684.56,1306.76 1698.35,1363.77 1712.14,1396.24 1725.92,1415.16 1739.71,1426.49 
  1753.49,1433.44 1767.28,1437.8 1781.06,1440.58 1794.85,1442.38 1808.64,1443.56 1822.42,1444.33 1836.21,1444.84 1849.99,1445.17 1863.78,1445.39 1877.56,1445.53 
  1891.35,1445.62 1905.13,1445.67 1918.92,1445.7 1932.71,1445.71 1946.49,1445.72 1960.28,1445.71 1974.06,1445.71 1987.85,1445.7 2001.63,1445.69 2015.42,1445.68 
  2029.21,1445.67 2042.99,1445.66 2056.78,1445.65 2070.56,1445.65 2084.35,1445.64 2098.13,1445.63 2111.92,1445.63 2125.71,1445.63 2139.49,1445.62 2153.28,1445.62 
  2167.06,1445.62 2180.85,1445.61 2194.63,1445.61 2208.42,1445.61 2222.21,1445.61 2235.99,1445.61 2249.78,1445.61 2263.56,1445.61 2277.35,1445.61 2291.13,1445.61 
  
  "/>
<polyline clip-path="url(#clip462)" style="stroke:#3da44d; stroke-linecap:butt; stroke-linejoin:round; stroke-width:4; stroke-opacity:1; fill:none" points="
  237.067,1439.78 250.853,1439.78 264.639,1439.79 278.424,1439.8 292.21,1439.81 305.996,1439.83 319.781,1439.85 333.567,1439.88 347.353,1439.91 361.138,1439.94 
  374.924,1439.99 388.71,1440.04 402.495,1440.09 416.281,1440.16 430.067,1440.24 443.852,1440.32 457.638,1440.43 471.424,1440.54 485.209,1440.68 498.995,1440.83 
  512.781,1441 526.567,1441.2 540.352,1441.43 554.138,1441.68 567.924,1441.97 581.709,1442.28 595.495,1442.62 609.281,1442.97 623.066,1443.31 636.852,1443.55 
  650.638,1443.61 664.423,1443.36 678.209,1442.78 691.995,1441.94 705.78,1440.87 719.566,1439.6 733.352,1438.15 747.137,1436.52 760.923,1434.74 774.709,1432.8 
  788.495,1430.74 802.28,1428.6 816.066,1426.43 829.852,1424.28 843.637,1422.24 857.423,1420.4 871.209,1418.85 884.994,1417.66 898.78,1416.92 912.566,1416.67 
  926.351,1416.65 940.137,1416.59 953.923,1416.5 967.708,1416.36 981.494,1416.19 995.28,1415.97 1009.07,1415.71 1022.85,1415.4 1036.64,1415.05 1050.42,1414.65 
  1064.21,1414.19 1077.99,1413.68 1091.78,1413.1 1105.57,1412.46 1119.35,1411.74 1133.14,1410.95 1146.92,1410.06 1160.71,1409.08 1174.49,1407.99 1188.28,1406.78 
  1202.06,1405.44 1215.85,1403.93 1229.64,1402.26 1243.42,1400.38 1257.21,1398.27 1270.99,1395.88 1284.78,1393.19 1298.56,1390.12 1312.35,1386.62 1326.14,1382.59 
  1339.92,1377.94 1353.71,1372.53 1367.49,1366.2 1381.28,1358.72 1395.06,1349.84 1408.85,1339.19 1422.64,1326.3 1436.42,1310.58 1450.21,1291.23 1463.99,1267.21 
  1477.78,1237.21 1491.56,1200.1 1505.35,1156.23 1519.14,1105.27 1532.92,1045.98 1546.71,979.782 1560.49,911.166 1574.28,848.508 1588.06,803.406 1601.85,786.829 
  1615.64,819.246 1629.42,900.612 1643.21,999.557 1656.99,1092.77 1670.78,1170.84 1684.56,1234.93 1698.35,1283.84 1712.14,1319.93 1725.92,1346.87 1739.71,1367.31 
  1753.49,1383.08 1767.28,1395.42 1781.06,1405.21 1794.85,1413.07 1808.64,1419.45 1822.42,1424.67 1836.21,1428.98 1849.99,1432.55 1863.78,1435.52 1877.56,1438.02 
  1891.35,1440.11 1905.13,1441.88 1918.92,1443.38 1932.71,1444.64 1946.49,1445.72 1960.28,1444.8 1974.06,1444.03 1987.85,1443.37 2001.63,1442.8 2015.42,1442.32 
  2029.21,1441.92 2042.99,1441.57 2056.78,1441.27 2070.56,1441.02 2084.35,1440.8 2098.13,1440.62 2111.92,1440.47 2125.71,1440.33 2139.49,1440.22 2153.28,1440.13 
  2167.06,1440.05 2180.85,1439.99 2194.63,1439.93 2208.42,1439.89 2222.21,1439.85 2235.99,1439.82 2249.78,1439.8 2263.56,1439.79 2277.35,1439.78 2291.13,1439.78 
  
  "/>
<path clip-path="url(#clip460)" d="
M1878.65 338.83 L2280.18 338.83 L2280.18 95.2176 L1878.65 95.2176  Z
  " fill="#ffffff" fill-rule="evenodd" fill-opacity="1"/>
<polyline clip-path="url(#clip460)" style="stroke:#000000; stroke-linecap:butt; stroke-linejoin:round; stroke-width:4; stroke-opacity:1; fill:none" points="
  1878.65,338.83 2280.18,338.83 2280.18,95.2176 1878.65,95.2176 1878.65,338.83 
  "/>
<polyline clip-path="url(#clip460)" style="stroke:#009af9; stroke-linecap:butt; stroke-linejoin:round; stroke-width:4; stroke-opacity:1; fill:none" points="
  1902.85,156.121 2048,156.121 
  "/>
<path clip-path="url(#clip460)" d="M2072.19 153.218 L2073.11 142.444 L2102.41 142.444 L2103.32 153.218 L2102.13 153.218 Q2101.94 151.064 2101.75 149.822 Q2101.59 148.581 2101.17 147.41 Q2100.77 146.215 2100.25 145.653 Q2099.76 145.067 2098.8 144.622 Q2097.84 144.154 2096.6 144.037 Q2095.36 143.92 2093.48 143.92 Q2091.28 143.92 2090.74 144.013 Q2090.16 144.154 2090.02 144.575 Q2089.88 144.974 2089.88 145.84 L2089.88 171.113 Q2089.88 172.073 2090.06 172.472 Q2090.27 172.846 2091.38 173.151 Q2092.48 173.432 2094.91 173.432 L2096.83 173.432 L2096.83 174.908 Q2094.87 174.767 2087.72 174.767 Q2080.62 174.767 2078.66 174.908 L2078.66 173.432 L2080.58 173.432 Q2083.01 173.432 2084.11 173.151 Q2085.24 172.846 2085.43 172.472 Q2085.61 172.073 2085.61 171.113 L2085.61 145.84 Q2085.61 145.161 2085.57 144.88 Q2085.52 144.599 2085.31 144.365 Q2085.1 144.107 2084.61 144.013 Q2084.14 143.92 2082.03 143.92 Q2080.16 143.92 2078.89 144.037 Q2077.65 144.154 2076.69 144.622 Q2075.73 145.067 2075.21 145.653 Q2074.72 146.215 2074.3 147.41 Q2073.9 148.581 2073.74 149.822 Q2073.57 151.064 2073.39 153.218 L2072.19 153.218 Z" fill="#000000" fill-rule="evenodd" fill-opacity="1" /><path clip-path="url(#clip460)" d="M2110.37 174.908 L2110.37 173.432 Q2112.92 173.432 2113.51 173.127 Q2114.11 172.8 2114.11 171.254 L2114.11 158.395 Q2114.11 156.615 2113.48 156.17 Q2112.87 155.725 2110.37 155.725 L2110.37 154.226 L2117.04 153.71 L2117.04 158.98 Q2117.72 156.919 2119.15 155.326 Q2120.6 153.71 2122.94 153.71 Q2124.49 153.71 2125.47 154.577 Q2126.48 155.444 2126.48 156.638 Q2126.48 157.692 2125.83 158.231 Q2125.19 158.746 2124.42 158.746 Q2123.55 158.746 2122.94 158.207 Q2122.36 157.645 2122.36 156.685 Q2122.36 156.099 2122.62 155.654 Q2122.9 155.186 2123.11 155.022 Q2123.32 154.858 2123.46 154.811 Q2123.37 154.764 2122.94 154.764 Q2120.3 154.764 2118.78 157.411 Q2117.28 160.034 2117.28 163.782 L2117.28 171.16 Q2117.28 172.542 2117.84 172.987 Q2118.42 173.432 2120.93 173.432 L2121.94 173.432 L2121.94 174.908 Q2120.02 174.767 2115.85 174.767 Q2115.26 174.767 2114.35 174.79 Q2113.43 174.814 2112.24 174.861 Q2111.05 174.908 2110.37 174.908 Z" fill="#000000" fill-rule="evenodd" fill-opacity="1" /><path clip-path="url(#clip460)" d="M2128.92 162.915 Q2128.92 154.811 2131.94 148.276 Q2133.23 145.536 2135.03 143.24 Q2136.84 140.945 2138.03 139.938 Q2139.23 138.931 2139.55 138.931 Q2140.02 138.931 2140.05 139.399 Q2140.05 139.633 2139.41 140.219 Q2131.68 148.089 2131.71 162.915 Q2131.71 177.789 2139.23 185.354 Q2140.05 186.174 2140.05 186.431 Q2140.05 186.9 2139.55 186.9 Q2139.23 186.9 2138.08 185.94 Q2136.93 184.979 2135.15 182.777 Q2133.37 180.576 2132.08 177.882 Q2128.92 171.347 2128.92 162.915 Z" fill="#000000" fill-rule="evenodd" fill-opacity="1" /><path clip-path="url(#clip460)" d="M2164.75 155.959 Q2164.75 155.982 2164.61 156.825 L2159.26 178.116 Q2158.98 179.241 2158.19 180.365 Q2157.41 181.513 2156.17 182.496 Q2154.96 183.504 2153.08 184.113 Q2151.23 184.745 2149.1 184.745 Q2145.7 184.745 2144.2 184.019 Q2142.73 183.316 2142.73 181.817 Q2142.73 180.506 2143.55 179.756 Q2144.37 179.03 2145.31 179.03 Q2146.2 179.03 2146.66 179.545 Q2147.13 180.06 2147.13 180.716 Q2147.13 181.442 2146.64 182.169 Q2146.15 182.918 2145.16 183.199 Q2146.73 183.691 2149.01 183.691 Q2153.81 183.691 2155.87 178.608 Q2155.92 178.538 2155.92 178.515 L2157.51 172.167 L2157.44 172.12 Q2157.04 172.589 2156.41 173.127 Q2155.8 173.643 2154.49 174.275 Q2153.18 174.908 2151.89 174.908 Q2149.19 174.908 2147.34 172.846 Q2145.52 170.762 2145.52 167.319 Q2145.52 164.812 2146.52 162.306 Q2147.55 159.777 2149.15 157.926 Q2150.76 156.052 2152.82 154.881 Q2154.91 153.71 2156.92 153.71 Q2158.33 153.71 2159.52 154.553 Q2160.72 155.373 2161.37 156.732 Q2161.49 155.607 2162.12 155.139 Q2162.78 154.671 2163.34 154.671 Q2163.97 154.671 2164.35 155.022 Q2164.75 155.35 2164.75 155.959 M2160.81 158.887 Q2160.81 158.746 2160.72 158.371 Q2160.62 157.973 2160.34 157.341 Q2160.08 156.708 2159.69 156.146 Q2159.29 155.584 2158.56 155.186 Q2157.86 154.764 2156.97 154.764 Q2155.52 154.764 2154.07 155.982 Q2152.61 157.177 2151.61 159.027 Q2150.67 160.807 2149.78 164.25 Q2148.91 167.693 2148.91 169.45 Q2148.91 171.183 2149.66 172.518 Q2150.41 173.854 2152.03 173.854 Q2153.9 173.854 2155.92 172.12 Q2158 170.317 2158.35 168.771 L2160.67 159.613 Q2160.81 159.051 2160.81 158.887 Z" fill="#000000" fill-rule="evenodd" fill-opacity="1" /><path clip-path="url(#clip460)" d="M2169.4 186.431 Q2169.4 186.197 2170.01 185.612 Q2177.74 177.742 2177.74 162.915 Q2177.74 148.042 2170.31 140.523 Q2169.4 139.657 2169.4 139.399 Q2169.4 138.931 2169.87 138.931 Q2170.19 138.931 2171.34 139.891 Q2172.51 140.851 2174.27 143.053 Q2176.05 145.255 2177.36 147.948 Q2180.52 154.483 2180.52 162.915 Q2180.52 171.019 2177.5 177.554 Q2176.21 180.295 2174.41 182.59 Q2172.61 184.886 2171.41 185.893 Q2170.22 186.9 2169.87 186.9 Q2169.4 186.9 2169.4 186.431 Z" fill="#000000" fill-rule="evenodd" fill-opacity="1" /><polyline clip-path="url(#clip460)" style="stroke:#e26f46; stroke-linecap:butt; stroke-linejoin:round; stroke-width:4; stroke-opacity:1; fill:none" points="
  1902.85,217.024 2048,217.024 
  "/>
<path clip-path="url(#clip460)" d="M2072.19 225.505 Q2072.19 220.937 2075.38 217.775 Q2078.56 214.613 2082.87 214.613 Q2086.53 214.613 2088.92 217.588 L2088.92 207.212 Q2088.92 205.432 2088.28 204.987 Q2087.67 204.542 2085.19 204.542 L2085.19 203.043 L2092.1 202.527 L2092.1 231.641 Q2092.1 233.421 2092.71 233.89 Q2093.34 234.335 2095.83 234.335 L2095.83 235.811 L2088.78 236.349 L2088.78 233.164 Q2086.29 236.326 2082.36 236.349 Q2078.24 236.349 2075.21 233.187 Q2072.19 230.025 2072.19 225.505 M2076.17 225.552 Q2076.17 230.002 2077.56 232.203 Q2079.48 235.272 2082.59 235.272 Q2086.15 235.272 2088.26 231.922 Q2088.8 231.103 2088.78 230.142 L2088.78 220.305 Q2088.78 219.345 2088.26 218.548 Q2086.29 215.667 2083.08 215.667 Q2079.73 215.667 2077.65 218.736 Q2076.17 221.031 2076.17 225.552 Z" fill="#000000" fill-rule="evenodd" fill-opacity="1" /><path clip-path="url(#clip460)" d="M2098.73 225.247 Q2098.73 220.726 2101.64 217.518 Q2104.54 214.309 2108.71 214.309 Q2112.93 214.309 2115.1 217.049 Q2117.31 219.79 2117.31 223.725 Q2117.31 224.451 2117.12 224.591 Q2116.93 224.732 2116.11 224.732 L2102.71 224.732 Q2102.71 229.627 2104.17 231.922 Q2106.18 235.131 2109.58 235.131 Q2110.05 235.131 2110.61 235.038 Q2111.17 234.944 2112.32 234.546 Q2113.47 234.124 2114.47 233.023 Q2115.48 231.922 2116.06 230.189 Q2116.21 229.51 2116.67 229.533 Q2117.31 229.533 2117.31 230.095 Q2117.31 230.517 2116.84 231.477 Q2116.39 232.414 2115.53 233.539 Q2114.66 234.663 2112.97 235.506 Q2111.31 236.349 2109.3 236.349 Q2105.08 236.349 2101.89 233.164 Q2098.73 229.955 2098.73 225.247 M2102.76 223.725 L2114.14 223.725 Q2114.14 222.717 2113.96 221.593 Q2113.79 220.469 2113.28 218.923 Q2112.79 217.354 2111.61 216.37 Q2110.44 215.386 2108.71 215.386 Q2107.94 215.386 2107.09 215.714 Q2106.27 216.042 2105.27 216.838 Q2104.26 217.635 2103.56 219.438 Q2102.85 221.242 2102.76 223.725 Z" fill="#000000" fill-rule="evenodd" fill-opacity="1" /><path clip-path="url(#clip460)" d="M2117.73 216.628 L2117.73 215.574 Q2119.93 215.48 2121.38 213.934 Q2122.86 212.365 2123.35 210.444 Q2123.87 208.523 2123.91 206.298 L2125.11 206.298 L2125.11 215.129 L2131.97 215.129 L2131.97 216.628 L2125.11 216.628 L2125.11 229.955 Q2125.11 235.131 2128.34 235.131 Q2129.72 235.131 2130.64 233.726 Q2131.55 232.297 2131.55 229.768 L2131.55 227.121 L2132.74 227.121 L2132.74 229.861 Q2132.74 232.461 2131.55 234.405 Q2130.35 236.349 2127.99 236.349 Q2127.12 236.349 2126.26 236.115 Q2125.41 235.904 2124.29 235.342 Q2123.19 234.757 2122.48 233.351 Q2121.81 231.922 2121.81 229.861 L2121.81 216.628 L2117.73 216.628 Z" fill="#000000" fill-rule="evenodd" fill-opacity="1" /><path clip-path="url(#clip460)" d="M2136.15 223.818 Q2136.15 215.714 2139.17 209.179 Q2140.46 206.439 2142.26 204.143 Q2144.06 201.848 2145.26 200.841 Q2146.45 199.834 2146.78 199.834 Q2147.25 199.834 2147.27 200.302 Q2147.27 200.536 2146.64 201.122 Q2138.91 208.992 2138.93 223.818 Q2138.93 238.692 2146.45 246.257 Q2147.27 247.077 2147.27 247.334 Q2147.27 247.803 2146.78 247.803 Q2146.45 247.803 2145.3 246.843 Q2144.16 245.882 2142.38 243.68 Q2140.6 241.479 2139.31 238.785 Q2136.15 232.25 2136.15 223.818 Z" fill="#000000" fill-rule="evenodd" fill-opacity="1" /><path clip-path="url(#clip460)" d="M2171.97 216.862 Q2171.97 216.885 2171.83 217.728 L2166.49 239.019 Q2166.21 240.144 2165.41 241.268 Q2164.64 242.416 2163.4 243.399 Q2162.18 244.407 2160.31 245.016 Q2158.46 245.648 2156.32 245.648 Q2152.93 245.648 2151.43 244.922 Q2149.95 244.219 2149.95 242.72 Q2149.95 241.409 2150.77 240.659 Q2151.59 239.933 2152.53 239.933 Q2153.42 239.933 2153.89 240.448 Q2154.36 240.963 2154.36 241.619 Q2154.36 242.345 2153.86 243.072 Q2153.37 243.821 2152.39 244.102 Q2153.96 244.594 2156.23 244.594 Q2161.03 244.594 2163.09 239.511 Q2163.14 239.441 2163.14 239.418 L2164.73 233.07 L2164.66 233.023 Q2164.26 233.492 2163.63 234.03 Q2163.02 234.546 2161.71 235.178 Q2160.4 235.811 2159.11 235.811 Q2156.42 235.811 2154.57 233.749 Q2152.74 231.665 2152.74 228.222 Q2152.74 225.715 2153.75 223.209 Q2154.78 220.68 2156.37 218.829 Q2157.99 216.955 2160.05 215.784 Q2162.13 214.613 2164.15 214.613 Q2165.55 214.613 2166.75 215.456 Q2167.94 216.276 2168.6 217.635 Q2168.71 216.51 2169.35 216.042 Q2170 215.574 2170.56 215.574 Q2171.2 215.574 2171.57 215.925 Q2171.97 216.253 2171.97 216.862 M2168.04 219.79 Q2168.04 219.649 2167.94 219.274 Q2167.85 218.876 2167.57 218.244 Q2167.31 217.611 2166.91 217.049 Q2166.51 216.487 2165.79 216.089 Q2165.08 215.667 2164.19 215.667 Q2162.74 215.667 2161.29 216.885 Q2159.84 218.08 2158.83 219.93 Q2157.89 221.71 2157 225.153 Q2156.14 228.596 2156.14 230.353 Q2156.14 232.086 2156.89 233.421 Q2157.64 234.757 2159.25 234.757 Q2161.13 234.757 2163.14 233.023 Q2165.22 231.22 2165.58 229.674 L2167.89 220.516 Q2168.04 219.954 2168.04 219.79 Z" fill="#000000" fill-rule="evenodd" fill-opacity="1" /><path clip-path="url(#clip460)" d="M2176.62 247.334 Q2176.62 247.1 2177.23 246.515 Q2184.96 238.645 2184.96 223.818 Q2184.96 208.945 2177.54 201.426 Q2176.62 200.56 2176.62 200.302 Q2176.62 199.834 2177.09 199.834 Q2177.42 199.834 2178.57 200.794 Q2179.74 201.754 2181.49 203.956 Q2183.27 206.158 2184.59 208.851 Q2187.75 215.386 2187.75 223.818 Q2187.75 231.922 2184.73 238.457 Q2183.44 241.198 2181.63 243.493 Q2179.83 245.789 2178.64 246.796 Q2177.44 247.803 2177.09 247.803 Q2176.62 247.803 2176.62 247.334 Z" fill="#000000" fill-rule="evenodd" fill-opacity="1" /><polyline clip-path="url(#clip460)" style="stroke:#3da44d; stroke-linecap:butt; stroke-linejoin:round; stroke-width:4; stroke-opacity:1; fill:none" points="
  1902.85,277.927 2048,277.927 
  "/>
<path clip-path="url(#clip460)" d="M2072.19 297.853 L2080.56 284.95 L2083.96 302.072 L2084.6 305.191 Q2084.74 304.376 2085.17 302.993 Q2085.63 301.575 2085.7 301.221 L2096.94 258.081 Q2097.01 257.797 2097.11 257.336 Q2097.25 256.84 2097.33 256.663 Q2097.4 256.486 2097.5 256.131 Q2097.61 255.777 2097.68 255.67 Q2097.75 255.529 2097.86 255.28 Q2097.96 255.032 2098.11 254.961 Q2098.25 254.891 2098.42 254.749 Q2098.6 254.607 2098.81 254.571 Q2099.06 254.536 2099.31 254.501 Q2099.56 254.465 2099.91 254.465 L2106.26 254.465 Q2108.49 254.465 2108.49 255.918 Q2108.49 257.372 2106.33 257.372 L2100.13 257.372 L2085.49 313.344 Q2085.27 314.159 2085.1 314.478 Q2084.95 314.797 2084.46 315.081 Q2083.96 315.364 2083.08 315.364 L2082.37 315.364 L2077.72 292.288 L2073.36 299.023 L2072.19 297.853 Z" fill="#000000" fill-rule="evenodd" fill-opacity="1" /><path clip-path="url(#clip460)" d="
M2106.11 257.402 L2231.79 257.402 L2231.79 254.387 L2106.11 254.387  Z
  " fill="#000000" fill-rule="evenodd" fill-opacity="1"/>
<path clip-path="url(#clip460)" d="M2111.23 292.721 Q2111.23 288.154 2114.41 284.992 Q2117.6 281.83 2121.91 281.83 Q2125.56 281.83 2127.95 284.804 L2127.95 274.428 Q2127.95 272.648 2127.32 272.203 Q2126.71 271.758 2124.23 271.758 L2124.23 270.259 L2131.14 269.744 L2131.14 298.858 Q2131.14 300.638 2131.75 301.106 Q2132.38 301.551 2134.86 301.551 L2134.86 303.027 L2127.81 303.566 L2127.81 300.38 Q2125.33 303.542 2121.39 303.566 Q2117.27 303.566 2114.25 300.404 Q2111.23 297.242 2111.23 292.721 M2115.21 292.768 Q2115.21 297.218 2116.59 299.42 Q2118.51 302.488 2121.63 302.488 Q2125.19 302.488 2127.3 299.139 Q2127.84 298.319 2127.81 297.359 L2127.81 287.521 Q2127.81 286.561 2127.3 285.765 Q2125.33 282.884 2122.12 282.884 Q2118.77 282.884 2116.69 285.952 Q2115.21 288.247 2115.21 292.768 Z" fill="#000000" fill-rule="evenodd" fill-opacity="1" /><path clip-path="url(#clip460)" d="M2137.77 292.464 Q2137.77 287.943 2140.67 284.734 Q2143.58 281.525 2147.75 281.525 Q2151.96 281.525 2154.14 284.266 Q2156.34 287.006 2156.34 290.941 Q2156.34 291.667 2156.16 291.808 Q2155.97 291.948 2155.15 291.948 L2141.75 291.948 Q2141.75 296.844 2143.2 299.139 Q2145.22 302.348 2148.61 302.348 Q2149.08 302.348 2149.64 302.254 Q2150.21 302.16 2151.35 301.762 Q2152.5 301.341 2153.51 300.24 Q2154.52 299.139 2155.1 297.406 Q2155.24 296.726 2155.71 296.75 Q2156.34 296.75 2156.34 297.312 Q2156.34 297.734 2155.87 298.694 Q2155.43 299.631 2154.56 300.755 Q2153.7 301.879 2152.01 302.723 Q2150.35 303.566 2148.33 303.566 Q2144.12 303.566 2140.93 300.38 Q2137.77 297.171 2137.77 292.464 M2141.8 290.941 L2153.18 290.941 Q2153.18 289.934 2152.99 288.81 Q2152.83 287.685 2152.31 286.139 Q2151.82 284.57 2150.65 283.586 Q2149.48 282.603 2147.75 282.603 Q2146.97 282.603 2146.13 282.931 Q2145.31 283.259 2144.3 284.055 Q2143.3 284.851 2142.59 286.655 Q2141.89 288.458 2141.8 290.941 Z" fill="#000000" fill-rule="evenodd" fill-opacity="1" /><path clip-path="url(#clip460)" d="M2156.77 283.844 L2156.77 282.79 Q2158.97 282.696 2160.42 281.15 Q2161.9 279.581 2162.39 277.661 Q2162.9 275.74 2162.95 273.515 L2164.14 273.515 L2164.14 282.345 L2171.01 282.345 L2171.01 283.844 L2164.14 283.844 L2164.14 297.171 Q2164.14 302.348 2167.38 302.348 Q2168.76 302.348 2169.67 300.942 Q2170.59 299.514 2170.59 296.984 L2170.59 294.337 L2171.78 294.337 L2171.78 297.078 Q2171.78 299.678 2170.59 301.622 Q2169.39 303.566 2167.03 303.566 Q2166.16 303.566 2165.29 303.332 Q2164.45 303.121 2163.33 302.559 Q2162.22 301.973 2161.52 300.568 Q2160.84 299.139 2160.84 297.078 L2160.84 283.844 L2156.77 283.844 Z" fill="#000000" fill-rule="evenodd" fill-opacity="1" /><path clip-path="url(#clip460)" d="M2175.18 291.035 Q2175.18 282.931 2178.2 276.396 Q2179.49 273.655 2181.3 271.36 Q2183.1 269.065 2184.29 268.057 Q2185.49 267.05 2185.82 267.05 Q2186.28 267.05 2186.31 267.519 Q2186.31 267.753 2185.68 268.338 Q2177.95 276.208 2177.97 291.035 Q2177.97 305.908 2185.49 313.473 Q2186.31 314.293 2186.31 314.551 Q2186.31 315.019 2185.82 315.019 Q2185.49 315.019 2184.34 314.059 Q2183.19 313.099 2181.41 310.897 Q2179.63 308.695 2178.34 306.002 Q2175.18 299.467 2175.18 291.035 Z" fill="#000000" fill-rule="evenodd" fill-opacity="1" /><path clip-path="url(#clip460)" d="M2211.01 284.078 Q2211.01 284.102 2210.87 284.945 L2205.53 306.236 Q2205.25 307.36 2204.45 308.484 Q2203.68 309.632 2202.43 310.616 Q2201.22 311.623 2199.34 312.232 Q2197.49 312.864 2195.36 312.864 Q2191.96 312.864 2190.47 312.138 Q2188.99 311.436 2188.99 309.937 Q2188.99 308.625 2189.81 307.875 Q2190.63 307.149 2191.57 307.149 Q2192.46 307.149 2192.92 307.665 Q2193.39 308.18 2193.39 308.836 Q2193.39 309.562 2192.9 310.288 Q2192.41 311.038 2191.43 311.319 Q2193 311.81 2195.27 311.81 Q2200.07 311.81 2202.13 306.728 Q2202.18 306.658 2202.18 306.634 L2203.77 300.287 L2203.7 300.24 Q2203.3 300.708 2202.67 301.247 Q2202.06 301.762 2200.75 302.395 Q2199.44 303.027 2198.15 303.027 Q2195.45 303.027 2193.6 300.966 Q2191.78 298.881 2191.78 295.438 Q2191.78 292.932 2192.78 290.426 Q2193.81 287.896 2195.41 286.046 Q2197.02 284.172 2199.08 283.001 Q2201.17 281.83 2203.18 281.83 Q2204.59 281.83 2205.78 282.673 Q2206.98 283.493 2207.63 284.851 Q2207.75 283.727 2208.38 283.259 Q2209.04 282.79 2209.6 282.79 Q2210.23 282.79 2210.61 283.141 Q2211.01 283.469 2211.01 284.078 M2207.07 287.006 Q2207.07 286.866 2206.98 286.491 Q2206.88 286.093 2206.6 285.46 Q2206.35 284.828 2205.95 284.266 Q2205.55 283.704 2204.82 283.305 Q2204.12 282.884 2203.23 282.884 Q2201.78 282.884 2200.33 284.102 Q2198.87 285.296 2197.87 287.147 Q2196.93 288.927 2196.04 292.37 Q2195.17 295.813 2195.17 297.57 Q2195.17 299.303 2195.92 300.638 Q2196.67 301.973 2198.29 301.973 Q2200.16 301.973 2202.18 300.24 Q2204.26 298.436 2204.61 296.89 L2206.93 287.732 Q2207.07 287.17 2207.07 287.006 Z" fill="#000000" fill-rule="evenodd" fill-opacity="1" /><path clip-path="url(#clip460)" d="M2215.66 314.551 Q2215.66 314.317 2216.27 313.731 Q2224 305.861 2224 291.035 Q2224 276.162 2216.57 268.643 Q2215.66 267.776 2215.66 267.519 Q2215.66 267.05 2216.13 267.05 Q2216.45 267.05 2217.6 268.01 Q2218.77 268.971 2220.53 271.173 Q2222.31 273.374 2223.62 276.068 Q2226.78 282.603 2226.78 291.035 Q2226.78 299.139 2223.76 305.674 Q2222.47 308.414 2220.67 310.71 Q2218.87 313.005 2217.67 314.012 Q2216.48 315.019 2216.13 315.019 Q2215.66 315.019 2215.66 314.551 Z" fill="#000000" fill-rule="evenodd" fill-opacity="1" /></svg>
