<?xml version="1.0" encoding="utf-8"?>
<svg xmlns="http://www.w3.org/2000/svg" xmlns:xlink="http://www.w3.org/1999/xlink" width="600" height="400" viewBox="0 0 2400 1600">
<defs>
  <clipPath id="clip760">
    <rect x="0" y="0" width="2400" height="1600"/>
  </clipPath>
</defs>
<path clip-path="url(#clip760)" d="
M0 1600 L2400 1600 L2400 0 L0 0  Z
  " fill="#ffffff" fill-rule="evenodd" fill-opacity="1"/>
<defs>
  <clipPath id="clip761">
    <rect x="480" y="0" width="1681" height="1600"/>
  </clipPath>
</defs>
<path clip-path="url(#clip760)" d="
M250.028 1486.45 L2352.76 1486.45 L2352.76 47.2441 L250.028 47.2441  Z
  " fill="#ffffff" fill-rule="evenodd" fill-opacity="1"/>
<defs>
  <clipPath id="clip762">
    <rect x="250" y="47" width="2104" height="1440"/>
  </clipPath>
</defs>
<polyline clip-path="url(#clip762)" style="stroke:#000000; stroke-linecap:butt; stroke-linejoin:round; stroke-width:2; stroke-opacity:0.1; fill:none" points="
  309.539,1486.45 309.539,47.2441 
  "/>
<polyline clip-path="url(#clip762)" style="stroke:#000000; stroke-linecap:butt; stroke-linejoin:round; stroke-width:2; stroke-opacity:0.1; fill:none" points="
  961.899,1486.45 961.899,47.2441 
  "/>
<polyline clip-path="url(#clip762)" style="stroke:#000000; stroke-linecap:butt; stroke-linejoin:round; stroke-width:2; stroke-opacity:0.1; fill:none" points="
  1627.57,1486.45 1627.57,47.2441 
  "/>
<polyline clip-path="url(#clip762)" style="stroke:#000000; stroke-linecap:butt; stroke-linejoin:round; stroke-width:2; stroke-opacity:0.1; fill:none" points="
  2293.24,1486.45 2293.24,47.2441 
  "/>
<polyline clip-path="url(#clip760)" style="stroke:#000000; stroke-linecap:butt; stroke-linejoin:round; stroke-width:4; stroke-opacity:1; fill:none" points="
  250.028,1486.45 2352.76,1486.45 
  "/>
<polyline clip-path="url(#clip760)" style="stroke:#000000; stroke-linecap:butt; stroke-linejoin:round; stroke-width:4; stroke-opacity:1; fill:none" points="
  309.539,1486.45 309.539,1467.55 
  "/>
<polyline clip-path="url(#clip760)" style="stroke:#000000; stroke-linecap:butt; stroke-linejoin:round; stroke-width:4; stroke-opacity:1; fill:none" points="
  961.899,1486.45 961.899,1467.55 
  "/>
<polyline clip-path="url(#clip760)" style="stroke:#000000; stroke-linecap:butt; stroke-linejoin:round; stroke-width:4; stroke-opacity:1; fill:none" points="
  1627.57,1486.45 1627.57,1467.55 
  "/>
<polyline clip-path="url(#clip760)" style="stroke:#000000; stroke-linecap:butt; stroke-linejoin:round; stroke-width:4; stroke-opacity:1; fill:none" points="
  2293.24,1486.45 2293.24,1467.55 
  "/>
<path clip-path="url(#clip760)" d="M294.696 1554.64 L294.696 1553.16 L295.398 1553.16 Q297.951 1553.16 298.748 1552.81 Q299.567 1552.43 299.638 1551.08 L299.638 1525.48 Q299.591 1524.23 298.794 1523.86 Q297.998 1523.46 295.398 1523.46 L294.696 1523.46 L294.696 1522.01 Q296.944 1522.1 301.441 1522.1 Q303.268 1522.1 304.837 1522.06 Q306.43 1522.01 306.688 1522.01 L319.734 1522.01 L321.069 1532.81 L319.828 1532.81 Q319.453 1529.88 319.031 1528.36 Q318.633 1526.81 317.65 1525.57 Q316.666 1524.33 315.026 1523.91 Q313.387 1523.46 310.623 1523.46 L306.524 1523.46 Q304.978 1523.46 304.439 1523.77 Q303.901 1524.07 303.901 1525.33 L303.901 1550.94 Q303.901 1552.41 304.884 1552.79 Q305.868 1553.16 309.171 1553.16 L310.037 1553.16 L310.037 1554.64 Q305.962 1554.5 301.839 1554.5 L301.535 1554.5 Q298.537 1554.5 294.696 1554.64 Z" fill="#000000" fill-rule="evenodd" fill-opacity="1" /><path clip-path="url(#clip760)" d="M944.086 1554.71 L944.086 1553.23 Q946.288 1553.23 947.904 1552.55 Q949.52 1551.87 949.989 1551.38 Q950.481 1550.87 951.043 1550.05 L958.913 1538.45 L950.082 1525.1 Q949.403 1524.09 948.49 1523.77 Q947.6 1523.44 945.632 1523.44 L944.719 1523.44 L944.719 1521.94 Q947.365 1522.08 950.949 1522.08 Q956.266 1522.08 957.952 1521.94 L957.952 1523.44 Q956.524 1523.48 955.68 1523.95 Q954.837 1524.4 954.837 1524.87 Q954.837 1525.05 955.165 1525.59 L961.349 1534.84 L966.83 1526.74 Q967.251 1526.06 967.251 1525.64 Q967.251 1524.77 966.455 1524.14 Q965.682 1523.48 964.276 1523.44 L964.276 1521.94 Q966.197 1522.08 970.437 1522.08 Q970.975 1522.08 971.842 1522.06 Q972.732 1522.03 973.903 1521.99 Q975.074 1521.94 975.753 1521.94 L975.753 1523.44 Q970.905 1523.48 968.797 1526.55 L962.215 1536.18 L972.334 1551.5 Q973.06 1552.55 973.973 1552.9 Q974.887 1553.23 976.854 1553.23 L977.768 1553.23 L977.768 1554.71 Q974.746 1554.57 971.537 1554.57 Q966.221 1554.57 964.534 1554.71 L964.534 1553.23 Q965.963 1553.18 966.806 1552.74 Q967.649 1552.27 967.649 1551.78 Q967.649 1551.73 967.392 1551.26 L959.826 1539.79 L953.01 1549.86 Q952.542 1550.63 952.542 1551.01 Q952.542 1551.78 953.291 1552.48 Q954.064 1553.16 955.563 1553.23 L955.563 1554.71 Q953.83 1554.57 949.403 1554.57 Q949.263 1554.57 944.086 1554.71 Z" fill="#000000" fill-rule="evenodd" fill-opacity="1" /><path clip-path="url(#clip760)" d="M1605.83 1554.71 L1605.83 1553.23 Q1607.56 1553.23 1608.66 1552.9 Q1609.76 1552.55 1610.16 1551.92 Q1610.58 1551.26 1610.68 1550.84 Q1610.77 1550.4 1610.77 1549.67 L1610.77 1525.69 Q1610.77 1524.3 1610.16 1523.88 Q1609.58 1523.44 1606.98 1523.44 L1605.83 1523.44 L1605.83 1521.94 L1613.93 1521.94 Q1614.8 1521.94 1615.03 1522.1 Q1615.27 1522.24 1615.62 1522.99 L1626.02 1549.86 L1636.51 1522.85 Q1636.75 1522.17 1636.96 1522.06 Q1637.19 1521.94 1638.1 1521.94 L1646.21 1521.94 L1646.21 1523.44 L1645.06 1523.44 Q1642.46 1523.44 1641.85 1523.88 Q1641.27 1524.3 1641.27 1525.69 L1641.27 1550.96 Q1641.27 1552.34 1641.85 1552.79 Q1642.46 1553.23 1645.06 1553.23 L1646.21 1553.23 L1646.21 1554.71 Q1644.43 1554.57 1639.35 1554.57 Q1634.22 1554.57 1632.44 1554.71 L1632.44 1553.23 L1633.61 1553.23 Q1636.21 1553.23 1636.79 1552.81 Q1637.38 1552.36 1637.38 1550.96 L1637.38 1523.44 L1637.33 1523.44 L1625.55 1553.79 Q1625.22 1554.71 1624.68 1554.71 Q1624.1 1554.71 1623.72 1553.65 L1612.15 1523.81 L1612.11 1523.81 L1612.11 1549.67 Q1612.11 1550.4 1612.2 1550.84 Q1612.29 1551.26 1612.69 1551.92 Q1613.11 1552.55 1614.21 1552.9 Q1615.31 1553.23 1617.05 1553.23 L1617.05 1554.71 Q1612.01 1554.57 1611.43 1554.57 Q1610.86 1554.57 1605.83 1554.71 Z" fill="#000000" fill-rule="evenodd" fill-opacity="1" /><path clip-path="url(#clip760)" d="M2278.4 1554.64 L2278.4 1553.16 L2279.1 1553.16 Q2281.66 1553.16 2282.45 1552.81 Q2283.27 1552.43 2283.34 1551.08 L2283.34 1525.48 Q2283.3 1524.23 2282.5 1523.86 Q2281.7 1523.46 2279.1 1523.46 L2278.4 1523.46 L2278.4 1522.01 Q2280.65 1522.1 2285.15 1522.1 Q2286.97 1522.1 2288.54 1522.06 Q2290.14 1522.01 2290.39 1522.01 L2303.44 1522.01 L2304.77 1532.81 L2303.53 1532.81 Q2303.16 1529.88 2302.74 1528.36 Q2302.34 1526.81 2301.35 1525.57 Q2300.37 1524.33 2298.73 1523.91 Q2297.09 1523.46 2294.33 1523.46 L2290.23 1523.46 Q2288.68 1523.46 2288.14 1523.77 Q2287.61 1524.07 2287.61 1525.33 L2287.61 1550.94 Q2287.61 1552.41 2288.59 1552.79 Q2289.57 1553.16 2292.88 1553.16 L2293.74 1553.16 L2293.74 1554.64 Q2289.67 1554.5 2285.54 1554.5 L2285.24 1554.5 Q2282.24 1554.5 2278.4 1554.64 Z" fill="#000000" fill-rule="evenodd" fill-opacity="1" /><polyline clip-path="url(#clip762)" style="stroke:#000000; stroke-linecap:butt; stroke-linejoin:round; stroke-width:2; stroke-opacity:0.1; fill:none" points="
  250.028,1445.72 2352.76,1445.72 
  "/>
<polyline clip-path="url(#clip762)" style="stroke:#000000; stroke-linecap:butt; stroke-linejoin:round; stroke-width:2; stroke-opacity:0.1; fill:none" points="
  250.028,1231.61 2352.76,1231.61 
  "/>
<polyline clip-path="url(#clip762)" style="stroke:#000000; stroke-linecap:butt; stroke-linejoin:round; stroke-width:2; stroke-opacity:0.1; fill:none" points="
  250.028,1017.5 2352.76,1017.5 
  "/>
<polyline clip-path="url(#clip762)" style="stroke:#000000; stroke-linecap:butt; stroke-linejoin:round; stroke-width:2; stroke-opacity:0.1; fill:none" points="
  250.028,803.389 2352.76,803.389 
  "/>
<polyline clip-path="url(#clip762)" style="stroke:#000000; stroke-linecap:butt; stroke-linejoin:round; stroke-width:2; stroke-opacity:0.1; fill:none" points="
  250.028,589.28 2352.76,589.28 
  "/>
<polyline clip-path="url(#clip762)" style="stroke:#000000; stroke-linecap:butt; stroke-linejoin:round; stroke-width:2; stroke-opacity:0.1; fill:none" points="
  250.028,375.171 2352.76,375.171 
  "/>
<polyline clip-path="url(#clip762)" style="stroke:#000000; stroke-linecap:butt; stroke-linejoin:round; stroke-width:2; stroke-opacity:0.1; fill:none" points="
  250.028,161.062 2352.76,161.062 
  "/>
<polyline clip-path="url(#clip760)" style="stroke:#000000; stroke-linecap:butt; stroke-linejoin:round; stroke-width:4; stroke-opacity:1; fill:none" points="
  250.028,1486.45 250.028,47.2441 
  "/>
<polyline clip-path="url(#clip760)" style="stroke:#000000; stroke-linecap:butt; stroke-linejoin:round; stroke-width:4; stroke-opacity:1; fill:none" points="
  250.028,1445.72 268.926,1445.72 
  "/>
<polyline clip-path="url(#clip760)" style="stroke:#000000; stroke-linecap:butt; stroke-linejoin:round; stroke-width:4; stroke-opacity:1; fill:none" points="
  250.028,1231.61 268.926,1231.61 
  "/>
<polyline clip-path="url(#clip760)" style="stroke:#000000; stroke-linecap:butt; stroke-linejoin:round; stroke-width:4; stroke-opacity:1; fill:none" points="
  250.028,1017.5 268.926,1017.5 
  "/>
<polyline clip-path="url(#clip760)" style="stroke:#000000; stroke-linecap:butt; stroke-linejoin:round; stroke-width:4; stroke-opacity:1; fill:none" points="
  250.028,803.389 268.926,803.389 
  "/>
<polyline clip-path="url(#clip760)" style="stroke:#000000; stroke-linecap:butt; stroke-linejoin:round; stroke-width:4; stroke-opacity:1; fill:none" points="
  250.028,589.28 268.926,589.28 
  "/>
<polyline clip-path="url(#clip760)" style="stroke:#000000; stroke-linecap:butt; stroke-linejoin:round; stroke-width:4; stroke-opacity:1; fill:none" points="
  250.028,375.171 268.926,375.171 
  "/>
<polyline clip-path="url(#clip760)" style="stroke:#000000; stroke-linecap:butt; stroke-linejoin:round; stroke-width:4; stroke-opacity:1; fill:none" points="
  250.028,161.062 268.926,161.062 
  "/>
<path clip-path="url(#clip760)" d="M126.691 1431.51 Q123.08 1431.51 121.251 1435.08 Q119.445 1438.62 119.445 1445.75 Q119.445 1452.86 121.251 1456.42 Q123.08 1459.96 126.691 1459.96 Q130.325 1459.96 132.13 1456.42 Q133.959 1452.86 133.959 1445.75 Q133.959 1438.62 132.13 1435.08 Q130.325 1431.51 126.691 1431.51 M126.691 1427.81 Q132.501 1427.81 135.556 1432.42 Q138.635 1437 138.635 1445.75 Q138.635 1454.48 135.556 1459.08 Q132.501 1463.67 126.691 1463.67 Q120.88 1463.67 117.802 1459.08 Q114.746 1454.48 114.746 1445.75 Q114.746 1437 117.802 1432.42 Q120.88 1427.81 126.691 1427.81 Z" fill="#000000" fill-rule="evenodd" fill-opacity="1" /><path clip-path="url(#clip760)" d="M146.853 1457.12 L151.737 1457.12 L151.737 1463 L146.853 1463 L146.853 1457.12 Z" fill="#000000" fill-rule="evenodd" fill-opacity="1" /><path clip-path="url(#clip760)" d="M171.922 1431.51 Q168.311 1431.51 166.482 1435.08 Q164.677 1438.62 164.677 1445.75 Q164.677 1452.86 166.482 1456.42 Q168.311 1459.96 171.922 1459.96 Q175.556 1459.96 177.362 1456.42 Q179.19 1452.86 179.19 1445.75 Q179.19 1438.62 177.362 1435.08 Q175.556 1431.51 171.922 1431.51 M171.922 1427.81 Q177.732 1427.81 180.788 1432.42 Q183.866 1437 183.866 1445.75 Q183.866 1454.48 180.788 1459.08 Q177.732 1463.67 171.922 1463.67 Q166.112 1463.67 163.033 1459.08 Q159.978 1454.48 159.978 1445.75 Q159.978 1437 163.033 1432.42 Q166.112 1427.81 171.922 1427.81 Z" fill="#000000" fill-rule="evenodd" fill-opacity="1" /><path clip-path="url(#clip760)" d="M202.084 1431.51 Q198.473 1431.51 196.644 1435.08 Q194.838 1438.62 194.838 1445.75 Q194.838 1452.86 196.644 1456.42 Q198.473 1459.96 202.084 1459.96 Q205.718 1459.96 207.524 1456.42 Q209.352 1452.86 209.352 1445.75 Q209.352 1438.62 207.524 1435.08 Q205.718 1431.51 202.084 1431.51 M202.084 1427.81 Q207.894 1427.81 210.949 1432.42 Q214.028 1437 214.028 1445.75 Q214.028 1454.48 210.949 1459.08 Q207.894 1463.67 202.084 1463.67 Q196.274 1463.67 193.195 1459.08 Q190.139 1454.48 190.139 1445.75 Q190.139 1437 193.195 1432.42 Q196.274 1427.81 202.084 1427.81 Z" fill="#000000" fill-rule="evenodd" fill-opacity="1" /><path clip-path="url(#clip760)" d="M128.288 1217.41 Q124.677 1217.41 122.848 1220.97 Q121.043 1224.51 121.043 1231.64 Q121.043 1238.75 122.848 1242.31 Q124.677 1245.85 128.288 1245.85 Q131.922 1245.85 133.728 1242.31 Q135.556 1238.75 135.556 1231.64 Q135.556 1224.51 133.728 1220.97 Q131.922 1217.41 128.288 1217.41 M128.288 1213.7 Q134.098 1213.7 137.154 1218.31 Q140.232 1222.89 140.232 1231.64 Q140.232 1240.37 137.154 1244.97 Q134.098 1249.56 128.288 1249.56 Q122.478 1249.56 119.399 1244.97 Q116.343 1240.37 116.343 1231.64 Q116.343 1222.89 119.399 1218.31 Q122.478 1213.7 128.288 1213.7 Z" fill="#000000" fill-rule="evenodd" fill-opacity="1" /><path clip-path="url(#clip760)" d="M148.45 1243.01 L153.334 1243.01 L153.334 1248.89 L148.45 1248.89 L148.45 1243.01 Z" fill="#000000" fill-rule="evenodd" fill-opacity="1" /><path clip-path="url(#clip760)" d="M173.519 1217.41 Q169.908 1217.41 168.079 1220.97 Q166.274 1224.51 166.274 1231.64 Q166.274 1238.75 168.079 1242.31 Q169.908 1245.85 173.519 1245.85 Q177.153 1245.85 178.959 1242.31 Q180.788 1238.75 180.788 1231.64 Q180.788 1224.51 178.959 1220.97 Q177.153 1217.41 173.519 1217.41 M173.519 1213.7 Q179.329 1213.7 182.385 1218.31 Q185.463 1222.89 185.463 1231.64 Q185.463 1240.37 182.385 1244.97 Q179.329 1249.56 173.519 1249.56 Q167.709 1249.56 164.63 1244.97 Q161.575 1240.37 161.575 1231.64 Q161.575 1222.89 164.63 1218.31 Q167.709 1213.7 173.519 1213.7 Z" fill="#000000" fill-rule="evenodd" fill-opacity="1" /><path clip-path="url(#clip760)" d="M197.709 1244.95 L214.028 1244.95 L214.028 1248.89 L192.084 1248.89 L192.084 1244.95 Q194.746 1242.2 199.329 1237.57 Q203.936 1232.91 205.116 1231.57 Q207.362 1229.05 208.241 1227.31 Q209.144 1225.55 209.144 1223.86 Q209.144 1221.11 207.199 1219.37 Q205.278 1217.64 202.176 1217.64 Q199.977 1217.64 197.524 1218.4 Q195.093 1219.16 192.315 1220.72 L192.315 1215.99 Q195.139 1214.86 197.593 1214.28 Q200.047 1213.7 202.084 1213.7 Q207.454 1213.7 210.649 1216.39 Q213.843 1219.07 213.843 1223.56 Q213.843 1225.69 213.033 1227.61 Q212.246 1229.51 210.139 1232.1 Q209.561 1232.78 206.459 1235.99 Q203.357 1239.19 197.709 1244.95 Z" fill="#000000" fill-rule="evenodd" fill-opacity="1" /><path clip-path="url(#clip760)" d="M126.205 1003.3 Q122.593 1003.3 120.765 1006.86 Q118.959 1010.4 118.959 1017.53 Q118.959 1024.64 120.765 1028.2 Q122.593 1031.75 126.205 1031.75 Q129.839 1031.75 131.644 1028.2 Q133.473 1024.64 133.473 1017.53 Q133.473 1010.4 131.644 1006.86 Q129.839 1003.3 126.205 1003.3 M126.205 999.593 Q132.015 999.593 135.07 1004.2 Q138.149 1008.78 138.149 1017.53 Q138.149 1026.26 135.07 1030.87 Q132.015 1035.45 126.205 1035.45 Q120.394 1035.45 117.316 1030.87 Q114.26 1026.26 114.26 1017.53 Q114.26 1008.78 117.316 1004.2 Q120.394 999.593 126.205 999.593 Z" fill="#000000" fill-rule="evenodd" fill-opacity="1" /><path clip-path="url(#clip760)" d="M146.366 1028.9 L151.251 1028.9 L151.251 1034.78 L146.366 1034.78 L146.366 1028.9 Z" fill="#000000" fill-rule="evenodd" fill-opacity="1" /><path clip-path="url(#clip760)" d="M171.436 1003.3 Q167.825 1003.3 165.996 1006.86 Q164.19 1010.4 164.19 1017.53 Q164.19 1024.64 165.996 1028.2 Q167.825 1031.75 171.436 1031.75 Q175.07 1031.75 176.876 1028.2 Q178.704 1024.64 178.704 1017.53 Q178.704 1010.4 176.876 1006.86 Q175.07 1003.3 171.436 1003.3 M171.436 999.593 Q177.246 999.593 180.301 1004.2 Q183.38 1008.78 183.38 1017.53 Q183.38 1026.26 180.301 1030.87 Q177.246 1035.45 171.436 1035.45 Q165.626 1035.45 162.547 1030.87 Q159.491 1026.26 159.491 1017.53 Q159.491 1008.78 162.547 1004.2 Q165.626 999.593 171.436 999.593 Z" fill="#000000" fill-rule="evenodd" fill-opacity="1" /><path clip-path="url(#clip760)" d="M204.445 1004.29 L192.639 1022.74 L204.445 1022.74 L204.445 1004.29 M203.218 1000.22 L209.098 1000.22 L209.098 1022.74 L214.028 1022.74 L214.028 1026.63 L209.098 1026.63 L209.098 1034.78 L204.445 1034.78 L204.445 1026.63 L188.843 1026.63 L188.843 1022.12 L203.218 1000.22 Z" fill="#000000" fill-rule="evenodd" fill-opacity="1" /><path clip-path="url(#clip760)" d="M126.529 789.188 Q122.918 789.188 121.089 792.753 Q119.283 796.294 119.283 803.424 Q119.283 810.53 121.089 814.095 Q122.918 817.637 126.529 817.637 Q130.163 817.637 131.968 814.095 Q133.797 810.53 133.797 803.424 Q133.797 796.294 131.968 792.753 Q130.163 789.188 126.529 789.188 M126.529 785.484 Q132.339 785.484 135.394 790.091 Q138.473 794.674 138.473 803.424 Q138.473 812.151 135.394 816.757 Q132.339 821.34 126.529 821.34 Q120.718 821.34 117.64 816.757 Q114.584 812.151 114.584 803.424 Q114.584 794.674 117.64 790.091 Q120.718 785.484 126.529 785.484 Z" fill="#000000" fill-rule="evenodd" fill-opacity="1" /><path clip-path="url(#clip760)" d="M146.691 814.789 L151.575 814.789 L151.575 820.669 L146.691 820.669 L146.691 814.789 Z" fill="#000000" fill-rule="evenodd" fill-opacity="1" /><path clip-path="url(#clip760)" d="M171.76 789.188 Q168.149 789.188 166.32 792.753 Q164.515 796.294 164.515 803.424 Q164.515 810.53 166.32 814.095 Q168.149 817.637 171.76 817.637 Q175.394 817.637 177.2 814.095 Q179.028 810.53 179.028 803.424 Q179.028 796.294 177.2 792.753 Q175.394 789.188 171.76 789.188 M171.76 785.484 Q177.57 785.484 180.626 790.091 Q183.704 794.674 183.704 803.424 Q183.704 812.151 180.626 816.757 Q177.57 821.34 171.76 821.34 Q165.95 821.34 162.871 816.757 Q159.815 812.151 159.815 803.424 Q159.815 794.674 162.871 790.091 Q165.95 785.484 171.76 785.484 Z" fill="#000000" fill-rule="evenodd" fill-opacity="1" /><path clip-path="url(#clip760)" d="M202.5 801.526 Q199.352 801.526 197.5 803.678 Q195.672 805.831 195.672 809.581 Q195.672 813.308 197.5 815.484 Q199.352 817.637 202.5 817.637 Q205.649 817.637 207.477 815.484 Q209.329 813.308 209.329 809.581 Q209.329 805.831 207.477 803.678 Q205.649 801.526 202.5 801.526 M211.783 786.873 L211.783 791.132 Q210.024 790.299 208.218 789.859 Q206.436 789.419 204.676 789.419 Q200.047 789.419 197.593 792.544 Q195.163 795.669 194.815 801.989 Q196.181 799.975 198.241 798.91 Q200.301 797.822 202.778 797.822 Q207.987 797.822 210.996 800.993 Q214.028 804.141 214.028 809.581 Q214.028 814.905 210.88 818.123 Q207.732 821.34 202.5 821.34 Q196.505 821.34 193.334 816.757 Q190.163 812.151 190.163 803.424 Q190.163 795.229 194.051 790.368 Q197.94 785.484 204.491 785.484 Q206.25 785.484 208.033 785.831 Q209.838 786.178 211.783 786.873 Z" fill="#000000" fill-rule="evenodd" fill-opacity="1" /><path clip-path="url(#clip760)" d="M126.783 575.079 Q123.172 575.079 121.343 578.644 Q119.538 582.185 119.538 589.315 Q119.538 596.421 121.343 599.986 Q123.172 603.528 126.783 603.528 Q130.417 603.528 132.223 599.986 Q134.052 596.421 134.052 589.315 Q134.052 582.185 132.223 578.644 Q130.417 575.079 126.783 575.079 M126.783 571.375 Q132.593 571.375 135.649 575.982 Q138.728 580.565 138.728 589.315 Q138.728 598.042 135.649 602.648 Q132.593 607.231 126.783 607.231 Q120.973 607.231 117.894 602.648 Q114.839 598.042 114.839 589.315 Q114.839 580.565 117.894 575.982 Q120.973 571.375 126.783 571.375 Z" fill="#000000" fill-rule="evenodd" fill-opacity="1" /><path clip-path="url(#clip760)" d="M146.945 600.681 L151.829 600.681 L151.829 606.56 L146.945 606.56 L146.945 600.681 Z" fill="#000000" fill-rule="evenodd" fill-opacity="1" /><path clip-path="url(#clip760)" d="M172.014 575.079 Q168.403 575.079 166.575 578.644 Q164.769 582.185 164.769 589.315 Q164.769 596.421 166.575 599.986 Q168.403 603.528 172.014 603.528 Q175.649 603.528 177.454 599.986 Q179.283 596.421 179.283 589.315 Q179.283 582.185 177.454 578.644 Q175.649 575.079 172.014 575.079 M172.014 571.375 Q177.825 571.375 180.88 575.982 Q183.959 580.565 183.959 589.315 Q183.959 598.042 180.88 602.648 Q177.825 607.231 172.014 607.231 Q166.204 607.231 163.126 602.648 Q160.07 598.042 160.07 589.315 Q160.07 580.565 163.126 575.982 Q166.204 571.375 172.014 571.375 Z" fill="#000000" fill-rule="evenodd" fill-opacity="1" /><path clip-path="url(#clip760)" d="M202.176 590.148 Q198.843 590.148 196.922 591.931 Q195.024 593.713 195.024 596.838 Q195.024 599.963 196.922 601.745 Q198.843 603.528 202.176 603.528 Q205.51 603.528 207.431 601.745 Q209.352 599.94 209.352 596.838 Q209.352 593.713 207.431 591.931 Q205.533 590.148 202.176 590.148 M197.5 588.157 Q194.491 587.417 192.801 585.357 Q191.135 583.296 191.135 580.333 Q191.135 576.19 194.075 573.783 Q197.037 571.375 202.176 571.375 Q207.338 571.375 210.278 573.783 Q213.218 576.19 213.218 580.333 Q213.218 583.296 211.528 585.357 Q209.861 587.417 206.875 588.157 Q210.255 588.945 212.13 591.236 Q214.028 593.528 214.028 596.838 Q214.028 601.861 210.949 604.546 Q207.894 607.231 202.176 607.231 Q196.459 607.231 193.38 604.546 Q190.325 601.861 190.325 596.838 Q190.325 593.528 192.223 591.236 Q194.121 588.945 197.5 588.157 M195.787 580.773 Q195.787 583.458 197.454 584.963 Q199.144 586.468 202.176 586.468 Q205.186 586.468 206.875 584.963 Q208.588 583.458 208.588 580.773 Q208.588 578.088 206.875 576.583 Q205.186 575.079 202.176 575.079 Q199.144 575.079 197.454 576.583 Q195.787 578.088 195.787 580.773 Z" fill="#000000" fill-rule="evenodd" fill-opacity="1" /><path clip-path="url(#clip760)" d="M126.691 360.97 Q123.08 360.97 121.251 364.535 Q119.445 368.076 119.445 375.206 Q119.445 382.312 121.251 385.877 Q123.08 389.419 126.691 389.419 Q130.325 389.419 132.13 385.877 Q133.959 382.312 133.959 375.206 Q133.959 368.076 132.13 364.535 Q130.325 360.97 126.691 360.97 M126.691 357.266 Q132.501 357.266 135.556 361.873 Q138.635 366.456 138.635 375.206 Q138.635 383.933 135.556 388.539 Q132.501 393.123 126.691 393.123 Q120.88 393.123 117.802 388.539 Q114.746 383.933 114.746 375.206 Q114.746 366.456 117.802 361.873 Q120.88 357.266 126.691 357.266 Z" fill="#000000" fill-rule="evenodd" fill-opacity="1" /><path clip-path="url(#clip760)" d="M146.853 386.572 L151.737 386.572 L151.737 392.451 L146.853 392.451 L146.853 386.572 Z" fill="#000000" fill-rule="evenodd" fill-opacity="1" /><path clip-path="url(#clip760)" d="M162.732 388.516 L170.371 388.516 L170.371 362.151 L162.061 363.817 L162.061 359.558 L170.325 357.891 L175.001 357.891 L175.001 388.516 L182.639 388.516 L182.639 392.451 L162.732 392.451 L162.732 388.516 Z" fill="#000000" fill-rule="evenodd" fill-opacity="1" /><path clip-path="url(#clip760)" d="M202.084 360.97 Q198.473 360.97 196.644 364.535 Q194.838 368.076 194.838 375.206 Q194.838 382.312 196.644 385.877 Q198.473 389.419 202.084 389.419 Q205.718 389.419 207.524 385.877 Q209.352 382.312 209.352 375.206 Q209.352 368.076 207.524 364.535 Q205.718 360.97 202.084 360.97 M202.084 357.266 Q207.894 357.266 210.949 361.873 Q214.028 366.456 214.028 375.206 Q214.028 383.933 210.949 388.539 Q207.894 393.123 202.084 393.123 Q196.274 393.123 193.195 388.539 Q190.139 383.933 190.139 375.206 Q190.139 366.456 193.195 361.873 Q196.274 357.266 202.084 357.266 Z" fill="#000000" fill-rule="evenodd" fill-opacity="1" /><path clip-path="url(#clip760)" d="M128.288 146.861 Q124.677 146.861 122.848 150.426 Q121.043 153.968 121.043 161.097 Q121.043 168.204 122.848 171.768 Q124.677 175.31 128.288 175.31 Q131.922 175.31 133.728 171.768 Q135.556 168.204 135.556 161.097 Q135.556 153.968 133.728 150.426 Q131.922 146.861 128.288 146.861 M128.288 143.157 Q134.098 143.157 137.154 147.764 Q140.232 152.347 140.232 161.097 Q140.232 169.824 137.154 174.43 Q134.098 179.014 128.288 179.014 Q122.478 179.014 119.399 174.43 Q116.343 169.824 116.343 161.097 Q116.343 152.347 119.399 147.764 Q122.478 143.157 128.288 143.157 Z" fill="#000000" fill-rule="evenodd" fill-opacity="1" /><path clip-path="url(#clip760)" d="M148.45 172.463 L153.334 172.463 L153.334 178.342 L148.45 178.342 L148.45 172.463 Z" fill="#000000" fill-rule="evenodd" fill-opacity="1" /><path clip-path="url(#clip760)" d="M164.329 174.407 L171.968 174.407 L171.968 148.042 L163.658 149.708 L163.658 145.449 L171.922 143.782 L176.598 143.782 L176.598 174.407 L184.237 174.407 L184.237 178.342 L164.329 178.342 L164.329 174.407 Z" fill="#000000" fill-rule="evenodd" fill-opacity="1" /><path clip-path="url(#clip760)" d="M197.709 174.407 L214.028 174.407 L214.028 178.342 L192.084 178.342 L192.084 174.407 Q194.746 171.653 199.329 167.023 Q203.936 162.37 205.116 161.028 Q207.362 158.505 208.241 156.768 Q209.144 155.009 209.144 153.319 Q209.144 150.565 207.199 148.829 Q205.278 147.093 202.176 147.093 Q199.977 147.093 197.524 147.856 Q195.093 148.62 192.315 150.171 L192.315 145.449 Q195.139 144.315 197.593 143.736 Q200.047 143.157 202.084 143.157 Q207.454 143.157 210.649 145.843 Q213.843 148.528 213.843 153.018 Q213.843 155.148 213.033 157.069 Q212.246 158.968 210.139 161.56 Q209.561 162.231 206.459 165.449 Q203.357 168.643 197.709 174.407 Z" fill="#000000" fill-rule="evenodd" fill-opacity="1" /><path clip-path="url(#clip760)" d="M20.8447 994.42 Q20.8447 1001.42 26.0645 1005.56 Q31.2844 1009.67 40.2919 1009.67 Q49.2675 1009.67 54.4874 1005.56 Q59.7073 1001.42 59.7073 994.42 Q59.7073 987.418 54.4874 983.344 Q49.2675 979.238 40.2919 979.238 Q31.2844 979.238 26.0645 983.344 Q20.8447 987.418 20.8447 994.42 M63.1448 985.413 L72.4069 976.946 L72.4069 984.712 L64.7999 991.746 Q64.8635 992.797 64.8954 993.37 Q64.9272 993.911 64.9272 994.42 Q64.9272 1004.45 58.2432 1010.46 Q51.5274 1016.45 40.2919 1016.45 Q29.0246 1016.45 22.3406 1010.46 Q15.6248 1004.45 15.6248 994.42 Q15.6248 984.426 22.3406 978.442 Q29.0246 972.458 40.2919 972.458 Q48.5673 972.458 54.4556 975.8 Q60.3439 979.11 63.1448 985.413 Z" fill="#000000" fill-rule="evenodd" fill-opacity="1" /><path clip-path="url(#clip760)" d="M49.9359 963.26 L28.3562 963.26 L28.3562 957.403 L49.7131 957.403 Q54.7739 957.403 57.3202 955.43 Q59.8346 953.457 59.8346 949.51 Q59.8346 944.767 56.8109 942.03 Q53.7872 939.261 48.5673 939.261 L28.3562 939.261 L28.3562 933.405 L64.0042 933.405 L64.0042 939.261 L58.5296 939.261 Q61.7762 941.394 63.3676 944.226 Q64.9272 947.027 64.9272 950.751 Q64.9272 956.894 61.1078 960.077 Q57.2883 963.26 49.9359 963.26 M27.4968 948.523 L27.4968 948.523 Z" fill="#000000" fill-rule="evenodd" fill-opacity="1" /><path clip-path="url(#clip760)" d="M46.0847 905.141 Q46.0847 912.239 47.7079 914.976 Q49.3312 917.713 53.2461 917.713 Q56.3653 917.713 58.2114 915.676 Q60.0256 913.607 60.0256 910.074 Q60.0256 905.205 56.5881 902.276 Q53.1188 899.316 47.3897 899.316 L46.0847 899.316 L46.0847 905.141 M43.6657 893.46 L64.0042 893.46 L64.0042 899.316 L58.5933 899.316 Q61.8398 901.322 63.3994 904.313 Q64.9272 907.305 64.9272 911.634 Q64.9272 917.108 61.8716 920.355 Q58.7843 923.57 53.6281 923.57 Q47.6125 923.57 44.5569 919.559 Q41.5014 915.517 41.5014 907.528 L41.5014 899.316 L40.9285 899.316 Q36.8862 899.316 34.6901 901.99 Q32.4621 904.632 32.4621 909.438 Q32.4621 912.493 33.1941 915.39 Q33.9262 918.286 35.3903 920.96 L29.9795 920.96 Q28.7381 917.745 28.1334 914.721 Q27.4968 911.698 27.4968 908.833 Q27.4968 901.099 31.5072 897.279 Q35.5176 893.46 43.6657 893.46 Z" fill="#000000" fill-rule="evenodd" fill-opacity="1" /><path clip-path="url(#clip760)" d="M42.4881 851.765 L64.0042 851.765 L64.0042 857.621 L42.679 857.621 Q37.6183 857.621 35.1038 859.594 Q32.5894 861.568 32.5894 865.514 Q32.5894 870.257 35.6131 872.994 Q38.6368 875.731 43.8567 875.731 L64.0042 875.731 L64.0042 881.62 L28.3562 881.62 L28.3562 875.731 L33.8944 875.731 Q30.6797 873.631 29.0883 870.798 Q27.4968 867.933 27.4968 864.209 Q27.4968 858.067 31.3163 854.916 Q35.1038 851.765 42.4881 851.765 Z" fill="#000000" fill-rule="evenodd" fill-opacity="1" /><path clip-path="url(#clip760)" d="M18.2347 834.291 L28.3562 834.291 L28.3562 822.228 L32.9077 822.228 L32.9077 834.291 L52.2594 834.291 Q56.6199 834.291 57.8613 833.113 Q59.1026 831.904 59.1026 828.243 L59.1026 822.228 L64.0042 822.228 L64.0042 828.243 Q64.0042 835.023 61.4897 837.601 Q58.9434 840.179 52.2594 840.179 L32.9077 840.179 L32.9077 844.476 L28.3562 844.476 L28.3562 840.179 L18.2347 840.179 L18.2347 834.291 Z" fill="#000000" fill-rule="evenodd" fill-opacity="1" /><path clip-path="url(#clip760)" d="M49.9359 815.13 L28.3562 815.13 L28.3562 809.273 L49.7131 809.273 Q54.7739 809.273 57.3202 807.3 Q59.8346 805.327 59.8346 801.38 Q59.8346 796.637 56.8109 793.9 Q53.7872 791.131 48.5673 791.131 L28.3562 791.131 L28.3562 785.275 L64.0042 785.275 L64.0042 791.131 L58.5296 791.131 Q61.7762 793.264 63.3676 796.096 Q64.9272 798.897 64.9272 802.621 Q64.9272 808.764 61.1078 811.947 Q57.2883 815.13 49.9359 815.13 M27.4968 800.393 L27.4968 800.393 Z" fill="#000000" fill-rule="evenodd" fill-opacity="1" /><path clip-path="url(#clip760)" d="M35.1993 745.457 Q31.2526 743.261 29.3747 740.206 Q27.4968 737.15 27.4968 733.012 Q27.4968 727.442 31.4117 724.419 Q35.2948 721.395 42.4881 721.395 L64.0042 721.395 L64.0042 727.283 L42.679 727.283 Q37.5546 727.283 35.072 729.097 Q32.5894 730.912 32.5894 734.636 Q32.5894 739.187 35.6131 741.829 Q38.6368 744.471 43.8567 744.471 L64.0042 744.471 L64.0042 750.359 L42.679 750.359 Q37.5228 750.359 35.072 752.173 Q32.5894 753.987 32.5894 757.775 Q32.5894 762.263 35.6449 764.904 Q38.6686 767.546 43.8567 767.546 L64.0042 767.546 L64.0042 773.434 L28.3562 773.434 L28.3562 767.546 L33.8944 767.546 Q30.616 765.541 29.0564 762.74 Q27.4968 759.939 27.4968 756.088 Q27.4968 752.205 29.4702 749.499 Q31.4436 746.762 35.1993 745.457 Z" fill="#000000" fill-rule="evenodd" fill-opacity="1" /><path clip-path="url(#clip760)" d="M16.4842 709.459 L16.4842 699.879 L48.8219 687.752 L16.4842 675.562 L16.4842 665.981 L64.0042 665.981 L64.0042 672.252 L22.277 672.252 L54.8694 684.506 L54.8694 690.967 L22.277 703.221 L64.0042 703.221 L64.0042 709.459 L16.4842 709.459 Z" fill="#000000" fill-rule="evenodd" fill-opacity="1" /><path clip-path="url(#clip760)" d="M44.7161 622.981 L47.5806 622.981 L47.5806 649.908 Q53.6281 649.526 56.8109 646.28 Q59.9619 643.001 59.9619 637.177 Q59.9619 633.803 59.1344 630.652 Q58.3069 627.469 56.6518 624.35 L62.1899 624.35 Q63.5267 627.501 64.227 630.811 Q64.9272 634.121 64.9272 637.527 Q64.9272 646.057 59.9619 651.054 Q54.9967 656.019 46.5303 656.019 Q37.7774 656.019 32.6531 651.308 Q27.4968 646.566 27.4968 638.545 Q27.4968 631.352 32.1438 627.182 Q36.7589 622.981 44.7161 622.981 M42.9973 628.837 Q38.1912 628.901 35.3266 631.543 Q32.4621 634.153 32.4621 638.482 Q32.4621 643.383 35.2312 646.343 Q38.0002 649.271 43.0292 649.717 L42.9973 628.837 Z" fill="#000000" fill-rule="evenodd" fill-opacity="1" /><path clip-path="url(#clip760)" d="M18.2347 607.576 L28.3562 607.576 L28.3562 595.513 L32.9077 595.513 L32.9077 607.576 L52.2594 607.576 Q56.6199 607.576 57.8613 606.398 Q59.1026 605.189 59.1026 601.529 L59.1026 595.513 L64.0042 595.513 L64.0042 601.529 Q64.0042 608.308 61.4897 610.886 Q58.9434 613.464 52.2594 613.464 L32.9077 613.464 L32.9077 617.761 L28.3562 617.761 L28.3562 613.464 L18.2347 613.464 L18.2347 607.576 Z" fill="#000000" fill-rule="evenodd" fill-opacity="1" /><path clip-path="url(#clip760)" d="M33.8307 567.154 Q33.2578 568.14 33.0032 569.318 Q32.7167 570.464 32.7167 571.864 Q32.7167 576.83 35.9632 579.503 Q39.1779 582.145 45.2253 582.145 L64.0042 582.145 L64.0042 588.033 L28.3562 588.033 L28.3562 582.145 L33.8944 582.145 Q30.6479 580.299 29.0883 577.339 Q27.4968 574.379 27.4968 570.146 Q27.4968 569.541 27.5923 568.809 Q27.656 568.077 27.8151 567.186 L33.8307 567.154 Z" fill="#000000" fill-rule="evenodd" fill-opacity="1" /><path clip-path="url(#clip760)" d="M28.3562 561.011 L28.3562 555.154 L64.0042 555.154 L64.0042 561.011 L28.3562 561.011 M14.479 561.011 L14.479 555.154 L21.895 555.154 L21.895 561.011 L14.479 561.011 Z" fill="#000000" fill-rule="evenodd" fill-opacity="1" /><path clip-path="url(#clip760)" d="M29.7248 517.247 L35.1993 517.247 Q33.8307 519.729 33.1623 522.244 Q32.4621 524.726 32.4621 527.273 Q32.4621 532.97 36.0905 536.121 Q39.6872 539.272 46.212 539.272 Q52.7369 539.272 56.3653 536.121 Q59.9619 532.97 59.9619 527.273 Q59.9619 524.726 59.2935 522.244 Q58.5933 519.729 57.2247 517.247 L62.6355 517.247 Q63.7814 519.697 64.3543 522.339 Q64.9272 524.949 64.9272 527.909 Q64.9272 535.962 59.8664 540.704 Q54.8057 545.447 46.212 545.447 Q37.491 545.447 32.4939 540.672 Q27.4968 535.866 27.4968 527.527 Q27.4968 524.822 28.0697 522.244 Q28.6108 519.666 29.7248 517.247 Z" fill="#000000" fill-rule="evenodd" fill-opacity="1" /><polyline clip-path="url(#clip762)" style="stroke:#009af9; stroke-linecap:butt; stroke-linejoin:round; stroke-width:4; stroke-opacity:1; fill:none" points="
  309.539,1290.45 322.853,1290.73 336.166,1291.19 349.48,1291.84 362.793,1292.66 376.107,1293.65 389.42,1294.8 402.734,1296.1 416.047,1297.53 429.36,1299.07 
  442.674,1300.72 455.987,1302.44 469.301,1304.21 482.614,1306.01 495.928,1307.79 509.241,1309.54 522.555,1311.2 535.868,1312.73 549.182,1314.08 562.495,1315.21 
  575.808,1316.04 589.122,1316.52 602.435,1316.58 615.749,1316.14 629.062,1315.13 642.376,1313.47 655.689,1311.08 669.003,1307.88 682.316,1303.8 695.63,1298.76 
  708.943,1292.7 722.257,1285.58 735.57,1277.36 748.883,1268.04 762.197,1257.64 775.51,1246.22 788.824,1233.86 802.137,1220.69 815.451,1206.9 828.764,1192.71 
  842.078,1178.38 855.391,1164.22 868.705,1150.56 882.018,1137.74 895.332,1126.14 908.645,1116.09 921.958,1107.91 935.272,1101.86 948.585,1098.14 961.899,1096.89 
  975.212,1096.94 988.526,1097.1 1001.84,1097.36 1015.15,1097.72 1028.47,1098.17 1041.78,1098.71 1055.09,1099.31 1068.41,1099.97 1081.72,1100.66 1095.03,1101.38 
  1108.35,1102.08 1121.66,1102.75 1134.97,1103.34 1148.29,1103.82 1161.6,1104.13 1174.91,1104.22 1188.23,1104.02 1201.54,1103.46 1214.85,1102.43 1228.17,1100.85 
  1241.48,1098.58 1254.79,1095.49 1268.11,1091.42 1281.42,1086.18 1294.74,1079.56 1308.05,1071.32 1321.36,1061.2 1334.68,1048.89 1347.99,1034.07 1361.3,1016.38 
  1374.62,995.432 1387.93,970.819 1401.24,942.135 1414.56,908.983 1427.87,871.001 1441.18,827.899 1454.5,779.502 1467.81,725.798 1481.12,667.007 1494.44,603.638 
  1507.75,536.561 1521.06,467.054 1534.38,396.832 1547.69,328.032 1561,263.144 1574.32,204.879 1587.63,155.973 1600.94,118.944 1614.26,95.8342 1627.57,87.9763 
  1640.89,103.64 1654.2,149.102 1667.51,220.101 1680.83,310.495 1694.14,413.347 1707.45,521.952 1720.77,630.565 1734.08,734.772 1747.39,831.548 1760.71,919.114 
  1774.02,996.689 1787.33,1064.22 1800.65,1122.13 1813.96,1171.14 1827.27,1212.12 1840.59,1245.98 1853.9,1273.62 1867.21,1295.86 1880.53,1313.49 1893.84,1327.17 
  1907.15,1337.51 1920.47,1345.03 1933.78,1350.19 1947.09,1353.37 1960.41,1354.92 1973.72,1355.11 1987.04,1354.2 2000.35,1352.39 2013.66,1349.88 2026.98,1346.82 
  2040.29,1343.34 2053.6,1339.56 2066.92,1335.58 2080.23,1331.49 2093.54,1327.36 2106.86,1323.26 2120.17,1319.25 2133.48,1315.38 2146.8,1311.68 2160.11,1308.2 
  2173.42,1304.97 2186.74,1302.01 2200.05,1299.35 2213.36,1297.01 2226.68,1295 2239.99,1293.34 2253.3,1292.04 2266.62,1291.1 2279.93,1290.54 2293.24,1290.35 
  
  "/>
<polyline clip-path="url(#clip762)" style="stroke:#e26f46; stroke-linecap:butt; stroke-linejoin:round; stroke-width:4; stroke-opacity:1; fill:none" points="
  309.539,1445.15 322.853,1445.15 336.166,1445.16 349.48,1445.16 362.793,1445.17 376.107,1445.18 389.42,1445.19 402.734,1445.2 416.047,1445.21 429.36,1445.22 
  442.674,1445.23 455.987,1445.25 469.301,1445.27 482.614,1445.29 495.928,1445.3 509.241,1445.32 522.555,1445.34 535.868,1445.37 549.182,1445.39 562.495,1445.41 
  575.808,1445.43 589.122,1445.45 602.435,1445.46 615.749,1445.47 629.062,1445.48 642.376,1445.49 655.689,1445.49 669.003,1445.48 682.316,1445.46 695.63,1445.43 
  708.943,1445.39 722.257,1445.34 735.57,1445.27 748.883,1445.18 762.197,1445.08 775.51,1444.96 788.824,1444.82 802.137,1444.66 815.451,1444.49 828.764,1444.3 
  842.078,1444.11 855.391,1443.91 868.705,1443.71 882.018,1443.52 895.332,1443.34 908.645,1443.18 921.958,1443.05 935.272,1442.95 948.585,1442.89 961.899,1442.87 
  975.212,1442.87 988.526,1442.88 1001.84,1442.88 1015.15,1442.89 1028.47,1442.9 1041.78,1442.91 1055.09,1442.92 1068.41,1442.93 1081.72,1442.95 1095.03,1442.97 
  1108.35,1442.99 1121.66,1443.02 1134.97,1443.04 1148.29,1443.07 1161.6,1443.11 1174.91,1443.14 1188.23,1443.18 1201.54,1443.22 1214.85,1443.26 1228.17,1443.3 
  1241.48,1443.34 1254.79,1443.37 1268.11,1443.4 1281.42,1443.42 1294.74,1443.42 1308.05,1443.4 1321.36,1443.34 1334.68,1443.25 1347.99,1443.09 1361.3,1442.87 
  1374.62,1442.55 1387.93,1442.11 1401.24,1441.53 1414.56,1440.76 1427.87,1439.78 1441.18,1438.54 1454.5,1437 1467.81,1435.14 1481.12,1432.91 1494.44,1430.3 
  1507.75,1427.34 1521.06,1424.05 1534.38,1420.51 1547.69,1416.85 1561,1413.23 1574.32,1409.84 1587.63,1406.9 1600.94,1404.61 1614.26,1403.16 1627.57,1402.67 
  1640.89,1403.65 1654.2,1406.46 1667.51,1410.65 1680.83,1415.64 1694.14,1420.87 1707.45,1425.85 1720.77,1430.27 1734.08,1433.98 1747.39,1436.96 1760.71,1439.28 
  1774.02,1441.03 1787.33,1442.32 1800.65,1443.27 1813.96,1443.96 1827.27,1444.46 1840.59,1444.82 1853.9,1445.09 1867.21,1445.28 1880.53,1445.43 1893.84,1445.53 
  1907.15,1445.61 1920.47,1445.66 1933.78,1445.69 1947.09,1445.71 1960.41,1445.72 1973.72,1445.71 1987.04,1445.7 2000.35,1445.68 2013.66,1445.65 2026.98,1445.62 
  2040.29,1445.59 2053.6,1445.55 2066.92,1445.52 2080.23,1445.48 2093.54,1445.45 2106.86,1445.41 2120.17,1445.38 2133.48,1445.35 2146.8,1445.32 2160.11,1445.29 
  2173.42,1445.26 2186.74,1445.24 2200.05,1445.22 2213.36,1445.2 2226.68,1445.19 2239.99,1445.17 2253.3,1445.16 2266.62,1445.16 2279.93,1445.15 2293.24,1445.15 
  
  "/>
<polyline clip-path="url(#clip762)" style="stroke:#3da44d; stroke-linecap:butt; stroke-linejoin:round; stroke-width:4; stroke-opacity:1; fill:none" points="
  309.539,1368.08 322.853,1368.22 336.166,1368.46 349.48,1368.79 362.793,1369.22 376.107,1369.75 389.42,1370.38 402.734,1371.12 416.047,1371.96 429.36,1372.91 
  442.674,1373.98 455.987,1375.15 469.301,1376.44 482.614,1377.85 495.928,1379.36 509.241,1380.98 522.555,1382.7 535.868,1384.49 549.182,1386.35 562.495,1388.24 
  575.808,1390.11 589.122,1391.91 602.435,1393.55 615.749,1394.94 629.062,1395.95 642.376,1396.45 655.689,1396.27 669.003,1395.3 682.316,1393.42 695.63,1390.57 
  708.943,1386.76 722.257,1382.01 735.57,1376.42 748.883,1370.06 762.197,1363.06 775.51,1355.54 788.824,1347.6 802.137,1339.39 815.451,1331.04 828.764,1322.69 
  842.078,1314.48 855.391,1306.58 868.705,1299.13 882.018,1292.29 895.332,1286.21 908.645,1281.02 921.958,1276.85 935.272,1273.79 948.585,1271.93 961.899,1271.3 
  975.212,1271.33 988.526,1271.41 1001.84,1271.54 1015.15,1271.74 1028.47,1271.99 1041.78,1272.3 1055.09,1272.68 1068.41,1273.13 1081.72,1273.65 1095.03,1274.25 
  1108.35,1274.94 1121.66,1275.71 1134.97,1276.57 1148.29,1277.53 1161.6,1278.58 1174.91,1279.72 1188.23,1280.94 1201.54,1282.23 1214.85,1283.56 1228.17,1284.89 
  1241.48,1286.18 1254.79,1287.34 1268.11,1288.28 1281.42,1288.85 1294.74,1288.87 1308.05,1288.11 1321.36,1286.29 1334.68,1283.09 1347.99,1278.16 1361.3,1271.11 
  1374.62,1261.59 1387.93,1249.3 1401.24,1233.97 1414.56,1215.44 1427.87,1193.63 1441.18,1168.56 1454.5,1140.34 1467.81,1109.17 1481.12,1075.41 1494.44,1039.53 
  1507.75,1002.16 1521.06,964.086 1534.38,926.273 1547.69,889.828 1561,855.971 1574.32,825.971 1587.63,801.069 1600.94,782.376 1614.26,770.778 1627.57,766.846 
  1640.89,774.679 1654.2,797.428 1667.51,832.993 1680.83,878.329 1694.14,929.964 1707.45,984.507 1720.77,1039.02 1734.08,1091.23 1747.39,1139.57 1760.71,1183.16 
  1774.02,1221.65 1787.33,1255.12 1800.65,1283.92 1813.96,1308.59 1827.27,1329.72 1840.59,1347.91 1853.9,1363.72 1867.21,1377.63 1880.53,1390.04 1893.84,1401.25 
  1907.15,1411.51 1920.47,1420.98 1933.78,1429.79 1947.09,1438.01 1960.41,1445.72 1973.72,1438.5 1987.04,1431.73 2000.35,1425.4 2013.66,1419.48 2026.98,1413.97 
  2040.29,1408.85 2053.6,1404.1 2066.92,1399.71 2080.23,1395.68 2093.54,1391.98 2106.86,1388.6 2120.17,1385.53 2133.48,1382.75 2146.8,1380.25 2160.11,1378.01 
  2173.42,1376.03 2186.74,1374.29 2200.05,1372.78 2213.36,1371.5 2226.68,1370.42 2239.99,1369.56 2253.3,1368.89 2266.62,1368.41 2279.93,1368.13 2293.24,1368.03 
  
  "/>
<path clip-path="url(#clip760)" d="
M1889.43 338.83 L2282.66 338.83 L2282.66 95.2176 L1889.43 95.2176  Z
  " fill="#ffffff" fill-rule="evenodd" fill-opacity="1"/>
<polyline clip-path="url(#clip760)" style="stroke:#000000; stroke-linecap:butt; stroke-linejoin:round; stroke-width:4; stroke-opacity:1; fill:none" points="
  1889.43,338.83 2282.66,338.83 2282.66,95.2176 1889.43,95.2176 1889.43,338.83 
  "/>
<polyline clip-path="url(#clip760)" style="stroke:#009af9; stroke-linecap:butt; stroke-linejoin:round; stroke-width:4; stroke-opacity:1; fill:none" points="
  1912.79,156.121 2052.97,156.121 
  "/>
<path clip-path="url(#clip760)" d="M2076.34 153.218 L2077.25 142.444 L2106.55 142.444 L2107.46 153.218 L2106.27 153.218 Q2106.08 151.064 2105.9 149.822 Q2105.73 148.581 2105.31 147.41 Q2104.91 146.215 2104.4 145.653 Q2103.9 145.067 2102.94 144.622 Q2101.98 144.154 2100.74 144.037 Q2099.5 143.92 2097.63 143.92 Q2095.43 143.92 2094.89 144.013 Q2094.3 144.154 2094.16 144.575 Q2094.02 144.974 2094.02 145.84 L2094.02 171.113 Q2094.02 172.073 2094.21 172.472 Q2094.42 172.846 2095.52 173.151 Q2096.62 173.432 2099.06 173.432 L2100.98 173.432 L2100.98 174.908 Q2099.01 174.767 2091.87 174.767 Q2084.77 174.767 2082.8 174.908 L2082.8 173.432 L2084.72 173.432 Q2087.16 173.432 2088.26 173.151 Q2089.38 172.846 2089.57 172.472 Q2089.76 172.073 2089.76 171.113 L2089.76 145.84 Q2089.76 145.161 2089.71 144.88 Q2089.66 144.599 2089.45 144.365 Q2089.24 144.107 2088.75 144.013 Q2088.28 143.92 2086.17 143.92 Q2084.3 143.92 2083.03 144.037 Q2081.79 144.154 2080.83 144.622 Q2079.87 145.067 2079.36 145.653 Q2078.87 146.215 2078.44 147.41 Q2078.05 148.581 2077.88 149.822 Q2077.72 151.064 2077.53 153.218 L2076.34 153.218 Z" fill="#000000" fill-rule="evenodd" fill-opacity="1" /><path clip-path="url(#clip760)" d="M2114.51 174.908 L2114.51 173.432 Q2117.06 173.432 2117.65 173.127 Q2118.26 172.8 2118.26 171.254 L2118.26 158.395 Q2118.26 156.615 2117.63 156.17 Q2117.02 155.725 2114.51 155.725 L2114.51 154.226 L2121.19 153.71 L2121.19 158.98 Q2121.86 156.919 2123.29 155.326 Q2124.75 153.71 2127.09 153.71 Q2128.63 153.71 2129.62 154.577 Q2130.62 155.444 2130.62 156.638 Q2130.62 157.692 2129.97 158.231 Q2129.34 158.746 2128.56 158.746 Q2127.7 158.746 2127.09 158.207 Q2126.5 157.645 2126.5 156.685 Q2126.5 156.099 2126.76 155.654 Q2127.04 155.186 2127.25 155.022 Q2127.46 154.858 2127.6 154.811 Q2127.51 154.764 2127.09 154.764 Q2124.44 154.764 2122.92 157.411 Q2121.42 160.034 2121.42 163.782 L2121.42 171.16 Q2121.42 172.542 2121.98 172.987 Q2122.57 173.432 2125.07 173.432 L2126.08 173.432 L2126.08 174.908 Q2124.16 174.767 2119.99 174.767 Q2119.41 174.767 2118.49 174.79 Q2117.58 174.814 2116.38 174.861 Q2115.19 174.908 2114.51 174.908 Z" fill="#000000" fill-rule="evenodd" fill-opacity="1" /><path clip-path="url(#clip760)" d="M2133.06 162.915 Q2133.06 154.811 2136.09 148.276 Q2137.37 145.536 2139.18 143.24 Q2140.98 140.945 2142.18 139.938 Q2143.37 138.931 2143.7 138.931 Q2144.17 138.931 2144.19 139.399 Q2144.19 139.633 2143.56 140.219 Q2135.83 148.089 2135.85 162.915 Q2135.85 177.789 2143.37 185.354 Q2144.19 186.174 2144.19 186.431 Q2144.19 186.9 2143.7 186.9 Q2143.37 186.9 2142.22 185.94 Q2141.08 184.979 2139.3 182.777 Q2137.51 180.576 2136.23 177.882 Q2133.06 171.347 2133.06 162.915 Z" fill="#000000" fill-rule="evenodd" fill-opacity="1" /><path clip-path="url(#clip760)" d="M2168.89 155.959 Q2168.89 155.982 2168.75 156.825 L2163.41 178.116 Q2163.13 179.241 2162.33 180.365 Q2161.56 181.513 2160.32 182.496 Q2159.1 183.504 2157.22 184.113 Q2155.37 184.745 2153.24 184.745 Q2149.85 184.745 2148.35 184.019 Q2146.87 183.316 2146.87 181.817 Q2146.87 180.506 2147.69 179.756 Q2148.51 179.03 2149.45 179.03 Q2150.34 179.03 2150.81 179.545 Q2151.28 180.06 2151.28 180.716 Q2151.28 181.442 2150.78 182.169 Q2150.29 182.918 2149.31 183.199 Q2150.88 183.691 2153.15 183.691 Q2157.95 183.691 2160.01 178.608 Q2160.06 178.538 2160.06 178.515 L2161.65 172.167 L2161.58 172.12 Q2161.18 172.589 2160.55 173.127 Q2159.94 173.643 2158.63 174.275 Q2157.32 174.908 2156.03 174.908 Q2153.34 174.908 2151.49 172.846 Q2149.66 170.762 2149.66 167.319 Q2149.66 164.812 2150.67 162.306 Q2151.7 159.777 2153.29 157.926 Q2154.91 156.052 2156.97 154.881 Q2159.05 153.71 2161.07 153.71 Q2162.47 153.71 2163.67 154.553 Q2164.86 155.373 2165.52 156.732 Q2165.63 155.607 2166.27 155.139 Q2166.92 154.671 2167.48 154.671 Q2168.12 154.671 2168.49 155.022 Q2168.89 155.35 2168.89 155.959 M2164.95 158.887 Q2164.95 158.746 2164.86 158.371 Q2164.77 157.973 2164.49 157.341 Q2164.23 156.708 2163.83 156.146 Q2163.43 155.584 2162.71 155.186 Q2162 154.764 2161.11 154.764 Q2159.66 154.764 2158.21 155.982 Q2156.76 157.177 2155.75 159.027 Q2154.81 160.807 2153.92 164.25 Q2153.06 167.693 2153.06 169.45 Q2153.06 171.183 2153.81 172.518 Q2154.55 173.854 2156.17 173.854 Q2158.04 173.854 2160.06 172.12 Q2162.14 170.317 2162.49 168.771 L2164.81 159.613 Q2164.95 159.051 2164.95 158.887 Z" fill="#000000" fill-rule="evenodd" fill-opacity="1" /><path clip-path="url(#clip760)" d="M2173.54 186.431 Q2173.54 186.197 2174.15 185.612 Q2181.88 177.742 2181.88 162.915 Q2181.88 148.042 2174.45 140.523 Q2173.54 139.657 2173.54 139.399 Q2173.54 138.931 2174.01 138.931 Q2174.34 138.931 2175.48 139.891 Q2176.66 140.851 2178.41 143.053 Q2180.19 145.255 2181.5 147.948 Q2184.67 154.483 2184.67 162.915 Q2184.67 171.019 2181.65 177.554 Q2180.36 180.295 2178.55 182.59 Q2176.75 184.886 2175.56 185.893 Q2174.36 186.9 2174.01 186.9 Q2173.54 186.9 2173.54 186.431 Z" fill="#000000" fill-rule="evenodd" fill-opacity="1" /><polyline clip-path="url(#clip760)" style="stroke:#e26f46; stroke-linecap:butt; stroke-linejoin:round; stroke-width:4; stroke-opacity:1; fill:none" points="
  1912.79,217.024 2052.97,217.024 
  "/>
<path clip-path="url(#clip760)" d="M2076.34 225.505 Q2076.34 220.937 2079.52 217.775 Q2082.71 214.613 2087.02 214.613 Q2090.67 214.613 2093.06 217.588 L2093.06 207.212 Q2093.06 205.432 2092.43 204.987 Q2091.82 204.542 2089.34 204.542 L2089.34 203.043 L2096.25 202.527 L2096.25 231.641 Q2096.25 233.421 2096.85 233.89 Q2097.49 234.335 2099.97 234.335 L2099.97 235.811 L2092.92 236.349 L2092.92 233.164 Q2090.44 236.326 2086.5 236.349 Q2082.38 236.349 2079.36 233.187 Q2076.34 230.025 2076.34 225.505 M2080.32 225.552 Q2080.32 230.002 2081.7 232.203 Q2083.62 235.272 2086.74 235.272 Q2090.3 235.272 2092.4 231.922 Q2092.94 231.103 2092.92 230.142 L2092.92 220.305 Q2092.92 219.345 2092.4 218.548 Q2090.44 215.667 2087.23 215.667 Q2083.88 215.667 2081.79 218.736 Q2080.32 221.031 2080.32 225.552 Z" fill="#000000" fill-rule="evenodd" fill-opacity="1" /><path clip-path="url(#clip760)" d="M2102.88 225.247 Q2102.88 220.726 2105.78 217.518 Q2108.68 214.309 2112.85 214.309 Q2117.07 214.309 2119.25 217.049 Q2121.45 219.79 2121.45 223.725 Q2121.45 224.451 2121.26 224.591 Q2121.08 224.732 2120.26 224.732 L2106.86 224.732 Q2106.86 229.627 2108.31 231.922 Q2110.32 235.131 2113.72 235.131 Q2114.19 235.131 2114.75 235.038 Q2115.31 234.944 2116.46 234.546 Q2117.61 234.124 2118.62 233.023 Q2119.62 231.922 2120.21 230.189 Q2120.35 229.51 2120.82 229.533 Q2121.45 229.533 2121.45 230.095 Q2121.45 230.517 2120.98 231.477 Q2120.54 232.414 2119.67 233.539 Q2118.8 234.663 2117.12 235.506 Q2115.45 236.349 2113.44 236.349 Q2109.22 236.349 2106.04 233.164 Q2102.88 229.955 2102.88 225.247 M2106.9 223.725 L2118.29 223.725 Q2118.29 222.717 2118.1 221.593 Q2117.94 220.469 2117.42 218.923 Q2116.93 217.354 2115.76 216.37 Q2114.59 215.386 2112.85 215.386 Q2112.08 215.386 2111.24 215.714 Q2110.42 216.042 2109.41 216.838 Q2108.4 217.635 2107.7 219.438 Q2107 221.242 2106.9 223.725 Z" fill="#000000" fill-rule="evenodd" fill-opacity="1" /><path clip-path="url(#clip760)" d="M2121.87 216.628 L2121.87 215.574 Q2124.08 215.48 2125.53 213.934 Q2127 212.365 2127.49 210.444 Q2128.01 208.523 2128.06 206.298 L2129.25 206.298 L2129.25 215.129 L2136.11 215.129 L2136.11 216.628 L2129.25 216.628 L2129.25 229.955 Q2129.25 235.131 2132.48 235.131 Q2133.87 235.131 2134.78 233.726 Q2135.69 232.297 2135.69 229.768 L2135.69 227.121 L2136.89 227.121 L2136.89 229.861 Q2136.89 232.461 2135.69 234.405 Q2134.5 236.349 2132.13 236.349 Q2131.27 236.349 2130.4 236.115 Q2129.56 235.904 2128.43 235.342 Q2127.33 234.757 2126.63 233.351 Q2125.95 231.922 2125.95 229.861 L2125.95 216.628 L2121.87 216.628 Z" fill="#000000" fill-rule="evenodd" fill-opacity="1" /><path clip-path="url(#clip760)" d="M2140.29 223.818 Q2140.29 215.714 2143.31 209.179 Q2144.6 206.439 2146.4 204.143 Q2148.21 201.848 2149.4 200.841 Q2150.59 199.834 2150.92 199.834 Q2151.39 199.834 2151.41 200.302 Q2151.41 200.536 2150.78 201.122 Q2143.05 208.992 2143.08 223.818 Q2143.08 238.692 2150.59 246.257 Q2151.41 247.077 2151.41 247.334 Q2151.41 247.803 2150.92 247.803 Q2150.59 247.803 2149.45 246.843 Q2148.3 245.882 2146.52 243.68 Q2144.74 241.479 2143.45 238.785 Q2140.29 232.25 2140.29 223.818 Z" fill="#000000" fill-rule="evenodd" fill-opacity="1" /><path clip-path="url(#clip760)" d="M2176.11 216.862 Q2176.11 216.885 2175.97 217.728 L2170.63 239.019 Q2170.35 240.144 2169.56 241.268 Q2168.78 242.416 2167.54 243.399 Q2166.32 244.407 2164.45 245.016 Q2162.6 245.648 2160.47 245.648 Q2157.07 245.648 2155.57 244.922 Q2154.1 244.219 2154.1 242.72 Q2154.1 241.409 2154.92 240.659 Q2155.74 239.933 2156.67 239.933 Q2157.56 239.933 2158.03 240.448 Q2158.5 240.963 2158.5 241.619 Q2158.5 242.345 2158.01 243.072 Q2157.52 243.821 2156.53 244.102 Q2158.1 244.594 2160.37 244.594 Q2165.18 244.594 2167.24 239.511 Q2167.28 239.441 2167.28 239.418 L2168.88 233.07 L2168.81 233.023 Q2168.41 233.492 2167.78 234.03 Q2167.17 234.546 2165.85 235.178 Q2164.54 235.811 2163.25 235.811 Q2160.56 235.811 2158.71 233.749 Q2156.88 231.665 2156.88 228.222 Q2156.88 225.715 2157.89 223.209 Q2158.92 220.68 2160.51 218.829 Q2162.13 216.955 2164.19 215.784 Q2166.28 214.613 2168.29 214.613 Q2169.7 214.613 2170.89 215.456 Q2172.09 216.276 2172.74 217.635 Q2172.86 216.51 2173.49 216.042 Q2174.15 215.574 2174.71 215.574 Q2175.34 215.574 2175.72 215.925 Q2176.11 216.253 2176.11 216.862 M2172.18 219.79 Q2172.18 219.649 2172.09 219.274 Q2171.99 218.876 2171.71 218.244 Q2171.45 217.611 2171.05 217.049 Q2170.66 216.487 2169.93 216.089 Q2169.23 215.667 2168.34 215.667 Q2166.89 215.667 2165.43 216.885 Q2163.98 218.08 2162.97 219.93 Q2162.04 221.71 2161.15 225.153 Q2160.28 228.596 2160.28 230.353 Q2160.28 232.086 2161.03 233.421 Q2161.78 234.757 2163.4 234.757 Q2165.27 234.757 2167.28 233.023 Q2169.37 231.22 2169.72 229.674 L2172.04 220.516 Q2172.18 219.954 2172.18 219.79 Z" fill="#000000" fill-rule="evenodd" fill-opacity="1" /><path clip-path="url(#clip760)" d="M2180.77 247.334 Q2180.77 247.1 2181.37 246.515 Q2189.1 238.645 2189.1 223.818 Q2189.1 208.945 2181.68 201.426 Q2180.77 200.56 2180.77 200.302 Q2180.77 199.834 2181.23 199.834 Q2181.56 199.834 2182.71 200.794 Q2183.88 201.754 2185.64 203.956 Q2187.42 206.158 2188.73 208.851 Q2191.89 215.386 2191.89 223.818 Q2191.89 231.922 2188.87 238.457 Q2187.58 241.198 2185.78 243.493 Q2183.97 245.789 2182.78 246.796 Q2181.59 247.803 2181.23 247.803 Q2180.77 247.803 2180.77 247.334 Z" fill="#000000" fill-rule="evenodd" fill-opacity="1" /><polyline clip-path="url(#clip760)" style="stroke:#3da44d; stroke-linecap:butt; stroke-linejoin:round; stroke-width:4; stroke-opacity:1; fill:none" points="
  1912.79,277.927 2052.97,277.927 
  "/>
<path clip-path="url(#clip760)" d="M2076.34 297.853 L2084.7 284.95 L2088.1 302.072 L2088.74 305.191 Q2088.88 304.376 2089.31 302.993 Q2089.77 301.575 2089.84 301.221 L2101.08 258.081 Q2101.15 257.797 2101.26 257.336 Q2101.4 256.84 2101.47 256.663 Q2101.54 256.486 2101.65 256.131 Q2101.75 255.777 2101.82 255.67 Q2101.89 255.529 2102 255.28 Q2102.11 255.032 2102.25 254.961 Q2102.39 254.891 2102.57 254.749 Q2102.74 254.607 2102.96 254.571 Q2103.21 254.536 2103.45 254.501 Q2103.7 254.465 2104.06 254.465 L2110.4 254.465 Q2112.63 254.465 2112.63 255.918 Q2112.63 257.372 2110.47 257.372 L2104.27 257.372 L2089.63 313.344 Q2089.42 314.159 2089.24 314.478 Q2089.1 314.797 2088.6 315.081 Q2088.1 315.364 2087.22 315.364 L2086.51 315.364 L2081.87 292.288 L2077.51 299.023 L2076.34 297.853 Z" fill="#000000" fill-rule="evenodd" fill-opacity="1" /><path clip-path="url(#clip760)" d="
M2110.25 257.402 L2235.94 257.402 L2235.94 254.387 L2110.25 254.387  Z
  " fill="#000000" fill-rule="evenodd" fill-opacity="1"/>
<path clip-path="url(#clip760)" d="M2115.37 292.721 Q2115.37 288.154 2118.56 284.992 Q2121.74 281.83 2126.05 281.83 Q2129.71 281.83 2132.1 284.804 L2132.1 274.428 Q2132.1 272.648 2131.46 272.203 Q2130.86 271.758 2128.37 271.758 L2128.37 270.259 L2135.28 269.744 L2135.28 298.858 Q2135.28 300.638 2135.89 301.106 Q2136.52 301.551 2139.01 301.551 L2139.01 303.027 L2131.96 303.566 L2131.96 300.38 Q2129.47 303.542 2125.54 303.566 Q2121.42 303.566 2118.39 300.404 Q2115.37 297.242 2115.37 292.721 M2119.35 292.768 Q2119.35 297.218 2120.74 299.42 Q2122.66 302.488 2125.77 302.488 Q2129.33 302.488 2131.44 299.139 Q2131.98 298.319 2131.96 297.359 L2131.96 287.521 Q2131.96 286.561 2131.44 285.765 Q2129.47 282.884 2126.26 282.884 Q2122.91 282.884 2120.83 285.952 Q2119.35 288.247 2119.35 292.768 Z" fill="#000000" fill-rule="evenodd" fill-opacity="1" /><path clip-path="url(#clip760)" d="M2141.91 292.464 Q2141.91 287.943 2144.82 284.734 Q2147.72 281.525 2151.89 281.525 Q2156.11 281.525 2158.28 284.266 Q2160.49 287.006 2160.49 290.941 Q2160.49 291.667 2160.3 291.808 Q2160.11 291.948 2159.29 291.948 L2145.89 291.948 Q2145.89 296.844 2147.35 299.139 Q2149.36 302.348 2152.76 302.348 Q2153.23 302.348 2153.79 302.254 Q2154.35 302.16 2155.5 301.762 Q2156.65 301.341 2157.65 300.24 Q2158.66 299.139 2159.25 297.406 Q2159.39 296.726 2159.85 296.75 Q2160.49 296.75 2160.49 297.312 Q2160.49 297.734 2160.02 298.694 Q2159.57 299.631 2158.71 300.755 Q2157.84 301.879 2156.15 302.723 Q2154.49 303.566 2152.48 303.566 Q2148.26 303.566 2145.07 300.38 Q2141.91 297.171 2141.91 292.464 M2145.94 290.941 L2157.32 290.941 Q2157.32 289.934 2157.14 288.81 Q2156.97 287.685 2156.46 286.139 Q2155.97 284.57 2154.79 283.586 Q2153.62 282.603 2151.89 282.603 Q2151.12 282.603 2150.27 282.931 Q2149.45 283.259 2148.45 284.055 Q2147.44 284.851 2146.74 286.655 Q2146.03 288.458 2145.94 290.941 Z" fill="#000000" fill-rule="evenodd" fill-opacity="1" /><path clip-path="url(#clip760)" d="M2160.91 283.844 L2160.91 282.79 Q2163.11 282.696 2164.56 281.15 Q2166.04 279.581 2166.53 277.661 Q2167.05 275.74 2167.09 273.515 L2168.29 273.515 L2168.29 282.345 L2175.15 282.345 L2175.15 283.844 L2168.29 283.844 L2168.29 297.171 Q2168.29 302.348 2171.52 302.348 Q2172.9 302.348 2173.82 300.942 Q2174.73 299.514 2174.73 296.984 L2174.73 294.337 L2175.92 294.337 L2175.92 297.078 Q2175.92 299.678 2174.73 301.622 Q2173.53 303.566 2171.17 303.566 Q2170.3 303.566 2169.44 303.332 Q2168.59 303.121 2167.47 302.559 Q2166.37 301.973 2165.67 300.568 Q2164.99 299.139 2164.99 297.078 L2164.99 283.844 L2160.91 283.844 Z" fill="#000000" fill-rule="evenodd" fill-opacity="1" /><path clip-path="url(#clip760)" d="M2179.33 291.035 Q2179.33 282.931 2182.35 276.396 Q2183.64 273.655 2185.44 271.36 Q2187.24 269.065 2188.44 268.057 Q2189.63 267.05 2189.96 267.05 Q2190.43 267.05 2190.45 267.519 Q2190.45 267.753 2189.82 268.338 Q2182.09 276.208 2182.11 291.035 Q2182.11 305.908 2189.63 313.473 Q2190.45 314.293 2190.45 314.551 Q2190.45 315.019 2189.96 315.019 Q2189.63 315.019 2188.48 314.059 Q2187.34 313.099 2185.56 310.897 Q2183.78 308.695 2182.49 306.002 Q2179.33 299.467 2179.33 291.035 Z" fill="#000000" fill-rule="evenodd" fill-opacity="1" /><path clip-path="url(#clip760)" d="M2215.15 284.078 Q2215.15 284.102 2215.01 284.945 L2209.67 306.236 Q2209.39 307.36 2208.59 308.484 Q2207.82 309.632 2206.58 310.616 Q2205.36 311.623 2203.49 312.232 Q2201.64 312.864 2199.5 312.864 Q2196.11 312.864 2194.61 312.138 Q2193.13 311.436 2193.13 309.937 Q2193.13 308.625 2193.95 307.875 Q2194.77 307.149 2195.71 307.149 Q2196.6 307.149 2197.07 307.665 Q2197.54 308.18 2197.54 308.836 Q2197.54 309.562 2197.04 310.288 Q2196.55 311.038 2195.57 311.319 Q2197.14 311.81 2199.41 311.81 Q2204.21 311.81 2206.27 306.728 Q2206.32 306.658 2206.32 306.634 L2207.91 300.287 L2207.84 300.24 Q2207.44 300.708 2206.81 301.247 Q2206.2 301.762 2204.89 302.395 Q2203.58 303.027 2202.29 303.027 Q2199.6 303.027 2197.75 300.966 Q2195.92 298.881 2195.92 295.438 Q2195.92 292.932 2196.93 290.426 Q2197.96 287.896 2199.55 286.046 Q2201.17 284.172 2203.23 283.001 Q2205.31 281.83 2207.33 281.83 Q2208.73 281.83 2209.93 282.673 Q2211.12 283.493 2211.78 284.851 Q2211.89 283.727 2212.53 283.259 Q2213.18 282.79 2213.75 282.79 Q2214.38 282.79 2214.75 283.141 Q2215.15 283.469 2215.15 284.078 M2211.22 287.006 Q2211.22 286.866 2211.12 286.491 Q2211.03 286.093 2210.75 285.46 Q2210.49 284.828 2210.09 284.266 Q2209.69 283.704 2208.97 283.305 Q2208.26 282.884 2207.37 282.884 Q2205.92 282.884 2204.47 284.102 Q2203.02 285.296 2202.01 287.147 Q2201.07 288.927 2200.18 292.37 Q2199.32 295.813 2199.32 297.57 Q2199.32 299.303 2200.07 300.638 Q2200.82 301.973 2202.43 301.973 Q2204.31 301.973 2206.32 300.24 Q2208.4 298.436 2208.76 296.89 L2211.07 287.732 Q2211.22 287.17 2211.22 287.006 Z" fill="#000000" fill-rule="evenodd" fill-opacity="1" /><path clip-path="url(#clip760)" d="M2219.8 314.551 Q2219.8 314.317 2220.41 313.731 Q2228.14 305.861 2228.14 291.035 Q2228.14 276.162 2220.72 268.643 Q2219.8 267.776 2219.8 267.519 Q2219.8 267.05 2220.27 267.05 Q2220.6 267.05 2221.75 268.01 Q2222.92 268.971 2224.67 271.173 Q2226.45 273.374 2227.77 276.068 Q2230.93 282.603 2230.93 291.035 Q2230.93 299.139 2227.91 305.674 Q2226.62 308.414 2224.81 310.71 Q2223.01 313.005 2221.82 314.012 Q2220.62 315.019 2220.27 315.019 Q2219.8 315.019 2219.8 314.551 Z" fill="#000000" fill-rule="evenodd" fill-opacity="1" /></svg>
