<?xml version="1.0" encoding="utf-8"?>
<svg xmlns="http://www.w3.org/2000/svg" xmlns:xlink="http://www.w3.org/1999/xlink" width="600" height="400" viewBox="0 0 2400 1600">
<defs>
  <clipPath id="clip460">
    <rect x="0" y="0" width="2400" height="1600"/>
  </clipPath>
</defs>
<path clip-path="url(#clip460)" d="
M0 1600 L2400 1600 L2400 0 L0 0  Z
  " fill="#ffffff" fill-rule="evenodd" fill-opacity="1"/>
<defs>
  <clipPath id="clip461">
    <rect x="480" y="0" width="1681" height="1600"/>
  </clipPath>
</defs>
<path clip-path="url(#clip460)" d="
M202.227 1486.45 L2352.76 1486.45 L2352.76 47.2441 L202.227 47.2441  Z
  " fill="#ffffff" fill-rule="evenodd" fill-opacity="1"/>
<defs>
  <clipPath id="clip462">
    <rect x="202" y="47" width="2152" height="1440"/>
  </clipPath>
</defs>
<polyline clip-path="url(#clip462)" style="stroke:#000000; stroke-linecap:butt; stroke-linejoin:round; stroke-width:2; stroke-opacity:0.1; fill:none" points="
  263.091,1486.45 263.091,47.2441 
  "/>
<polyline clip-path="url(#clip462)" style="stroke:#000000; stroke-linecap:butt; stroke-linejoin:round; stroke-width:2; stroke-opacity:0.1; fill:none" points="
  930.281,1486.45 930.281,47.2441 
  "/>
<polyline clip-path="url(#clip462)" style="stroke:#000000; stroke-linecap:butt; stroke-linejoin:round; stroke-width:2; stroke-opacity:0.1; fill:none" points="
  1611.09,1486.45 1611.09,47.2441 
  "/>
<polyline clip-path="url(#clip462)" style="stroke:#000000; stroke-linecap:butt; stroke-linejoin:round; stroke-width:2; stroke-opacity:0.1; fill:none" points="
  2291.89,1486.45 2291.89,47.2441 
  "/>
<polyline clip-path="url(#clip460)" style="stroke:#000000; stroke-linecap:butt; stroke-linejoin:round; stroke-width:4; stroke-opacity:1; fill:none" points="
  202.227,1486.45 2352.76,1486.45 
  "/>
<polyline clip-path="url(#clip460)" style="stroke:#000000; stroke-linecap:butt; stroke-linejoin:round; stroke-width:4; stroke-opacity:1; fill:none" points="
  263.091,1486.45 263.091,1467.55 
  "/>
<polyline clip-path="url(#clip460)" style="stroke:#000000; stroke-linecap:butt; stroke-linejoin:round; stroke-width:4; stroke-opacity:1; fill:none" points="
  930.281,1486.45 930.281,1467.55 
  "/>
<polyline clip-path="url(#clip460)" style="stroke:#000000; stroke-linecap:butt; stroke-linejoin:round; stroke-width:4; stroke-opacity:1; fill:none" points="
  1611.09,1486.45 1611.09,1467.55 
  "/>
<polyline clip-path="url(#clip460)" style="stroke:#000000; stroke-linecap:butt; stroke-linejoin:round; stroke-width:4; stroke-opacity:1; fill:none" points="
  2291.89,1486.45 2291.89,1467.55 
  "/>
<path clip-path="url(#clip460)" d="M248.248 1554.64 L248.248 1553.16 L248.95 1553.16 Q251.503 1553.16 252.3 1552.81 Q253.12 1552.43 253.19 1551.08 L253.19 1525.48 Q253.143 1524.23 252.347 1523.86 Q251.55 1523.46 248.95 1523.46 L248.248 1523.46 L248.248 1522.01 Q250.496 1522.1 254.993 1522.1 Q256.82 1522.1 258.39 1522.06 Q259.982 1522.01 260.24 1522.01 L273.286 1522.01 L274.621 1532.81 L273.38 1532.81 Q273.005 1529.88 272.584 1528.36 Q272.185 1526.81 271.202 1525.57 Q270.218 1524.33 268.578 1523.91 Q266.939 1523.46 264.175 1523.46 L260.076 1523.46 Q258.53 1523.46 257.991 1523.77 Q257.453 1524.07 257.453 1525.33 L257.453 1550.94 Q257.453 1552.41 258.436 1552.79 Q259.42 1553.16 262.723 1553.16 L263.589 1553.16 L263.589 1554.64 Q259.514 1554.5 255.392 1554.5 L255.087 1554.5 Q252.089 1554.5 248.248 1554.64 Z" fill="#000000" fill-rule="evenodd" fill-opacity="1" /><path clip-path="url(#clip460)" d="M912.468 1554.71 L912.468 1553.23 Q914.67 1553.23 916.286 1552.55 Q917.902 1551.87 918.371 1551.38 Q918.863 1550.87 919.425 1550.05 L927.295 1538.45 L918.465 1525.1 Q917.785 1524.09 916.872 1523.77 Q915.982 1523.44 914.014 1523.44 L913.101 1523.44 L913.101 1521.94 Q915.748 1522.08 919.331 1522.08 Q924.648 1522.08 926.334 1521.94 L926.334 1523.44 Q924.906 1523.48 924.062 1523.95 Q923.219 1524.4 923.219 1524.87 Q923.219 1525.05 923.547 1525.59 L929.731 1534.84 L935.212 1526.74 Q935.633 1526.06 935.633 1525.64 Q935.633 1524.77 934.837 1524.14 Q934.064 1523.48 932.659 1523.44 L932.659 1521.94 Q934.579 1522.08 938.819 1522.08 Q939.357 1522.08 940.224 1522.06 Q941.114 1522.03 942.285 1521.99 Q943.456 1521.94 944.136 1521.94 L944.136 1523.44 Q939.287 1523.48 937.179 1526.55 L930.597 1536.18 L940.716 1551.5 Q941.442 1552.55 942.355 1552.9 Q943.269 1553.23 945.236 1553.23 L946.15 1553.23 L946.15 1554.71 Q943.128 1554.57 939.919 1554.57 Q934.603 1554.57 932.916 1554.71 L932.916 1553.23 Q934.345 1553.18 935.188 1552.74 Q936.031 1552.27 936.031 1551.78 Q936.031 1551.73 935.774 1551.26 L928.208 1539.79 L921.392 1549.86 Q920.924 1550.63 920.924 1551.01 Q920.924 1551.78 921.673 1552.48 Q922.446 1553.16 923.945 1553.23 L923.945 1554.71 Q922.212 1554.57 917.785 1554.57 Q917.645 1554.57 912.468 1554.71 Z" fill="#000000" fill-rule="evenodd" fill-opacity="1" /><path clip-path="url(#clip460)" d="M1589.34 1554.71 L1589.34 1553.23 Q1591.08 1553.23 1592.18 1552.9 Q1593.28 1552.55 1593.68 1551.92 Q1594.1 1551.26 1594.19 1550.84 Q1594.28 1550.4 1594.28 1549.67 L1594.28 1525.69 Q1594.28 1524.3 1593.68 1523.88 Q1593.09 1523.44 1590.49 1523.44 L1589.34 1523.44 L1589.34 1521.94 L1597.45 1521.94 Q1598.31 1521.94 1598.55 1522.1 Q1598.78 1522.24 1599.13 1522.99 L1609.53 1549.86 L1620.03 1522.85 Q1620.26 1522.17 1620.47 1522.06 Q1620.71 1521.94 1621.62 1521.94 L1629.72 1521.94 L1629.72 1523.44 L1628.58 1523.44 Q1625.98 1523.44 1625.37 1523.88 Q1624.78 1524.3 1624.78 1525.69 L1624.78 1550.96 Q1624.78 1552.34 1625.37 1552.79 Q1625.98 1553.23 1628.58 1553.23 L1629.72 1553.23 L1629.72 1554.71 Q1627.94 1554.57 1622.86 1554.57 Q1617.73 1554.57 1615.95 1554.71 L1615.95 1553.23 L1617.12 1553.23 Q1619.72 1553.23 1620.31 1552.81 Q1620.89 1552.36 1620.89 1550.96 L1620.89 1523.44 L1620.85 1523.44 L1609.06 1553.79 Q1608.74 1554.71 1608.2 1554.71 Q1607.61 1554.71 1607.24 1553.65 L1595.67 1523.81 L1595.62 1523.81 L1595.62 1549.67 Q1595.62 1550.4 1595.71 1550.84 Q1595.81 1551.26 1596.21 1551.92 Q1596.63 1552.55 1597.73 1552.9 Q1598.83 1553.23 1600.56 1553.23 L1600.56 1554.71 Q1595.53 1554.57 1594.94 1554.57 Q1594.38 1554.57 1589.34 1554.71 Z" fill="#000000" fill-rule="evenodd" fill-opacity="1" /><path clip-path="url(#clip460)" d="M2277.05 1554.64 L2277.05 1553.16 L2277.75 1553.16 Q2280.3 1553.16 2281.1 1552.81 Q2281.92 1552.43 2281.99 1551.08 L2281.99 1525.48 Q2281.94 1524.23 2281.15 1523.86 Q2280.35 1523.46 2277.75 1523.46 L2277.05 1523.46 L2277.05 1522.01 Q2279.3 1522.1 2283.79 1522.1 Q2285.62 1522.1 2287.19 1522.06 Q2288.78 1522.01 2289.04 1522.01 L2302.09 1522.01 L2303.42 1532.81 L2302.18 1532.81 Q2301.81 1529.88 2301.38 1528.36 Q2300.99 1526.81 2300 1525.57 Q2299.02 1524.33 2297.38 1523.91 Q2295.74 1523.46 2292.98 1523.46 L2288.88 1523.46 Q2287.33 1523.46 2286.79 1523.77 Q2286.25 1524.07 2286.25 1525.33 L2286.25 1550.94 Q2286.25 1552.41 2287.24 1552.79 Q2288.22 1553.16 2291.52 1553.16 L2292.39 1553.16 L2292.39 1554.64 Q2288.31 1554.5 2284.19 1554.5 L2283.89 1554.5 Q2280.89 1554.5 2277.05 1554.64 Z" fill="#000000" fill-rule="evenodd" fill-opacity="1" /><polyline clip-path="url(#clip462)" style="stroke:#000000; stroke-linecap:butt; stroke-linejoin:round; stroke-width:2; stroke-opacity:0.1; fill:none" points="
  202.227,1445.72 2352.76,1445.72 
  "/>
<polyline clip-path="url(#clip462)" style="stroke:#000000; stroke-linecap:butt; stroke-linejoin:round; stroke-width:2; stroke-opacity:0.1; fill:none" points="
  202.227,1042.76 2352.76,1042.76 
  "/>
<polyline clip-path="url(#clip462)" style="stroke:#000000; stroke-linecap:butt; stroke-linejoin:round; stroke-width:2; stroke-opacity:0.1; fill:none" points="
  202.227,639.799 2352.76,639.799 
  "/>
<polyline clip-path="url(#clip462)" style="stroke:#000000; stroke-linecap:butt; stroke-linejoin:round; stroke-width:2; stroke-opacity:0.1; fill:none" points="
  202.227,236.841 2352.76,236.841 
  "/>
<polyline clip-path="url(#clip460)" style="stroke:#000000; stroke-linecap:butt; stroke-linejoin:round; stroke-width:4; stroke-opacity:1; fill:none" points="
  202.227,1486.45 202.227,47.2441 
  "/>
<polyline clip-path="url(#clip460)" style="stroke:#000000; stroke-linecap:butt; stroke-linejoin:round; stroke-width:4; stroke-opacity:1; fill:none" points="
  202.227,1445.72 221.125,1445.72 
  "/>
<polyline clip-path="url(#clip460)" style="stroke:#000000; stroke-linecap:butt; stroke-linejoin:round; stroke-width:4; stroke-opacity:1; fill:none" points="
  202.227,1042.76 221.125,1042.76 
  "/>
<polyline clip-path="url(#clip460)" style="stroke:#000000; stroke-linecap:butt; stroke-linejoin:round; stroke-width:4; stroke-opacity:1; fill:none" points="
  202.227,639.799 221.125,639.799 
  "/>
<polyline clip-path="url(#clip460)" style="stroke:#000000; stroke-linecap:butt; stroke-linejoin:round; stroke-width:4; stroke-opacity:1; fill:none" points="
  202.227,236.841 221.125,236.841 
  "/>
<path clip-path="url(#clip460)" d="M154.283 1431.51 Q150.672 1431.51 148.843 1435.08 Q147.038 1438.62 147.038 1445.75 Q147.038 1452.86 148.843 1456.42 Q150.672 1459.96 154.283 1459.96 Q157.917 1459.96 159.723 1456.42 Q161.552 1452.86 161.552 1445.75 Q161.552 1438.62 159.723 1435.08 Q157.917 1431.51 154.283 1431.51 M154.283 1427.81 Q160.093 1427.81 163.149 1432.42 Q166.227 1437 166.227 1445.75 Q166.227 1454.48 163.149 1459.08 Q160.093 1463.67 154.283 1463.67 Q148.473 1463.67 145.394 1459.08 Q142.339 1454.48 142.339 1445.75 Q142.339 1437 145.394 1432.42 Q148.473 1427.81 154.283 1427.81 Z" fill="#000000" fill-rule="evenodd" fill-opacity="1" /><path clip-path="url(#clip460)" d="M145.325 1025.48 L163.681 1025.48 L163.681 1029.41 L149.607 1029.41 L149.607 1037.88 Q150.626 1037.54 151.644 1037.38 Q152.663 1037.19 153.681 1037.19 Q159.468 1037.19 162.848 1040.36 Q166.227 1043.53 166.227 1048.95 Q166.227 1054.53 162.755 1057.63 Q159.283 1060.71 152.964 1060.71 Q150.788 1060.71 148.519 1060.34 Q146.274 1059.97 143.866 1059.23 L143.866 1054.53 Q145.95 1055.66 148.172 1056.22 Q150.394 1056.77 152.871 1056.77 Q156.876 1056.77 159.214 1054.67 Q161.552 1052.56 161.552 1048.95 Q161.552 1045.34 159.214 1043.23 Q156.876 1041.13 152.871 1041.13 Q150.996 1041.13 149.121 1041.54 Q147.269 1041.96 145.325 1042.84 L145.325 1025.48 Z" fill="#000000" fill-rule="evenodd" fill-opacity="1" /><path clip-path="url(#clip460)" d="M114.931 653.144 L122.57 653.144 L122.57 626.778 L114.26 628.445 L114.26 624.186 L122.524 622.519 L127.2 622.519 L127.2 653.144 L134.839 653.144 L134.839 657.079 L114.931 657.079 L114.931 653.144 Z" fill="#000000" fill-rule="evenodd" fill-opacity="1" /><path clip-path="url(#clip460)" d="M154.283 625.598 Q150.672 625.598 148.843 629.163 Q147.038 632.704 147.038 639.834 Q147.038 646.94 148.843 650.505 Q150.672 654.047 154.283 654.047 Q157.917 654.047 159.723 650.505 Q161.552 646.94 161.552 639.834 Q161.552 632.704 159.723 629.163 Q157.917 625.598 154.283 625.598 M154.283 621.894 Q160.093 621.894 163.149 626.501 Q166.227 631.084 166.227 639.834 Q166.227 648.561 163.149 653.167 Q160.093 657.75 154.283 657.75 Q148.473 657.75 145.394 653.167 Q142.339 648.561 142.339 639.834 Q142.339 631.084 145.394 626.501 Q148.473 621.894 154.283 621.894 Z" fill="#000000" fill-rule="evenodd" fill-opacity="1" /><path clip-path="url(#clip460)" d="M115.927 250.186 L123.566 250.186 L123.566 223.82 L115.256 225.487 L115.256 221.227 L123.519 219.561 L128.195 219.561 L128.195 250.186 L135.834 250.186 L135.834 254.121 L115.927 254.121 L115.927 250.186 Z" fill="#000000" fill-rule="evenodd" fill-opacity="1" /><path clip-path="url(#clip460)" d="M145.325 219.561 L163.681 219.561 L163.681 223.496 L149.607 223.496 L149.607 231.968 Q150.626 231.621 151.644 231.459 Q152.663 231.274 153.681 231.274 Q159.468 231.274 162.848 234.445 Q166.227 237.616 166.227 243.033 Q166.227 248.612 162.755 251.713 Q159.283 254.792 152.964 254.792 Q150.788 254.792 148.519 254.422 Q146.274 254.051 143.866 253.311 L143.866 248.612 Q145.95 249.746 148.172 250.301 Q150.394 250.857 152.871 250.857 Q156.876 250.857 159.214 248.75 Q161.552 246.644 161.552 243.033 Q161.552 239.422 159.214 237.315 Q156.876 235.209 152.871 235.209 Q150.996 235.209 149.121 235.626 Q147.269 236.042 145.325 236.922 L145.325 219.561 Z" fill="#000000" fill-rule="evenodd" fill-opacity="1" /><path clip-path="url(#clip460)" d="M20.8447 994.42 Q20.8447 1001.42 26.0645 1005.56 Q31.2844 1009.67 40.2919 1009.67 Q49.2675 1009.67 54.4874 1005.56 Q59.7073 1001.42 59.7073 994.42 Q59.7073 987.418 54.4874 983.344 Q49.2675 979.238 40.2919 979.238 Q31.2844 979.238 26.0645 983.344 Q20.8447 987.418 20.8447 994.42 M63.1448 985.413 L72.4069 976.946 L72.4069 984.712 L64.7999 991.746 Q64.8635 992.797 64.8954 993.37 Q64.9272 993.911 64.9272 994.42 Q64.9272 1004.45 58.2432 1010.46 Q51.5274 1016.45 40.2919 1016.45 Q29.0246 1016.45 22.3406 1010.46 Q15.6248 1004.45 15.6248 994.42 Q15.6248 984.426 22.3406 978.442 Q29.0246 972.458 40.2919 972.458 Q48.5673 972.458 54.4556 975.8 Q60.3439 979.11 63.1448 985.413 Z" fill="#000000" fill-rule="evenodd" fill-opacity="1" /><path clip-path="url(#clip460)" d="M49.9359 963.26 L28.3562 963.26 L28.3562 957.403 L49.7131 957.403 Q54.7739 957.403 57.3202 955.43 Q59.8346 953.457 59.8346 949.51 Q59.8346 944.767 56.8109 942.03 Q53.7872 939.261 48.5673 939.261 L28.3562 939.261 L28.3562 933.405 L64.0042 933.405 L64.0042 939.261 L58.5296 939.261 Q61.7762 941.394 63.3676 944.226 Q64.9272 947.027 64.9272 950.751 Q64.9272 956.894 61.1078 960.077 Q57.2883 963.26 49.9359 963.26 M27.4968 948.523 L27.4968 948.523 Z" fill="#000000" fill-rule="evenodd" fill-opacity="1" /><path clip-path="url(#clip460)" d="M46.0847 905.141 Q46.0847 912.239 47.7079 914.976 Q49.3312 917.713 53.2461 917.713 Q56.3653 917.713 58.2114 915.676 Q60.0256 913.607 60.0256 910.074 Q60.0256 905.205 56.5881 902.276 Q53.1188 899.316 47.3897 899.316 L46.0847 899.316 L46.0847 905.141 M43.6657 893.46 L64.0042 893.46 L64.0042 899.316 L58.5933 899.316 Q61.8398 901.322 63.3994 904.313 Q64.9272 907.305 64.9272 911.634 Q64.9272 917.108 61.8716 920.355 Q58.7843 923.57 53.6281 923.57 Q47.6125 923.57 44.5569 919.559 Q41.5014 915.517 41.5014 907.528 L41.5014 899.316 L40.9285 899.316 Q36.8862 899.316 34.6901 901.99 Q32.4621 904.632 32.4621 909.438 Q32.4621 912.493 33.1941 915.39 Q33.9262 918.286 35.3903 920.96 L29.9795 920.96 Q28.7381 917.745 28.1334 914.721 Q27.4968 911.698 27.4968 908.833 Q27.4968 901.099 31.5072 897.279 Q35.5176 893.46 43.6657 893.46 Z" fill="#000000" fill-rule="evenodd" fill-opacity="1" /><path clip-path="url(#clip460)" d="M42.4881 851.765 L64.0042 851.765 L64.0042 857.621 L42.679 857.621 Q37.6183 857.621 35.1038 859.594 Q32.5894 861.568 32.5894 865.514 Q32.5894 870.257 35.6131 872.994 Q38.6368 875.731 43.8567 875.731 L64.0042 875.731 L64.0042 881.62 L28.3562 881.62 L28.3562 875.731 L33.8944 875.731 Q30.6797 873.631 29.0883 870.798 Q27.4968 867.933 27.4968 864.209 Q27.4968 858.067 31.3163 854.916 Q35.1038 851.765 42.4881 851.765 Z" fill="#000000" fill-rule="evenodd" fill-opacity="1" /><path clip-path="url(#clip460)" d="M18.2347 834.291 L28.3562 834.291 L28.3562 822.228 L32.9077 822.228 L32.9077 834.291 L52.2594 834.291 Q56.6199 834.291 57.8613 833.113 Q59.1026 831.904 59.1026 828.243 L59.1026 822.228 L64.0042 822.228 L64.0042 828.243 Q64.0042 835.023 61.4897 837.601 Q58.9434 840.179 52.2594 840.179 L32.9077 840.179 L32.9077 844.476 L28.3562 844.476 L28.3562 840.179 L18.2347 840.179 L18.2347 834.291 Z" fill="#000000" fill-rule="evenodd" fill-opacity="1" /><path clip-path="url(#clip460)" d="M49.9359 815.13 L28.3562 815.13 L28.3562 809.273 L49.7131 809.273 Q54.7739 809.273 57.3202 807.3 Q59.8346 805.327 59.8346 801.38 Q59.8346 796.637 56.8109 793.9 Q53.7872 791.131 48.5673 791.131 L28.3562 791.131 L28.3562 785.275 L64.0042 785.275 L64.0042 791.131 L58.5296 791.131 Q61.7762 793.264 63.3676 796.096 Q64.9272 798.897 64.9272 802.621 Q64.9272 808.764 61.1078 811.947 Q57.2883 815.13 49.9359 815.13 M27.4968 800.393 L27.4968 800.393 Z" fill="#000000" fill-rule="evenodd" fill-opacity="1" /><path clip-path="url(#clip460)" d="M35.1993 745.457 Q31.2526 743.261 29.3747 740.206 Q27.4968 737.15 27.4968 733.012 Q27.4968 727.442 31.4117 724.419 Q35.2948 721.395 42.4881 721.395 L64.0042 721.395 L64.0042 727.283 L42.679 727.283 Q37.5546 727.283 35.072 729.097 Q32.5894 730.912 32.5894 734.636 Q32.5894 739.187 35.6131 741.829 Q38.6368 744.471 43.8567 744.471 L64.0042 744.471 L64.0042 750.359 L42.679 750.359 Q37.5228 750.359 35.072 752.173 Q32.5894 753.987 32.5894 757.775 Q32.5894 762.263 35.6449 764.904 Q38.6686 767.546 43.8567 767.546 L64.0042 767.546 L64.0042 773.434 L28.3562 773.434 L28.3562 767.546 L33.8944 767.546 Q30.616 765.541 29.0564 762.74 Q27.4968 759.939 27.4968 756.088 Q27.4968 752.205 29.4702 749.499 Q31.4436 746.762 35.1993 745.457 Z" fill="#000000" fill-rule="evenodd" fill-opacity="1" /><path clip-path="url(#clip460)" d="M16.4842 709.459 L16.4842 699.879 L48.8219 687.752 L16.4842 675.562 L16.4842 665.981 L64.0042 665.981 L64.0042 672.252 L22.277 672.252 L54.8694 684.506 L54.8694 690.967 L22.277 703.221 L64.0042 703.221 L64.0042 709.459 L16.4842 709.459 Z" fill="#000000" fill-rule="evenodd" fill-opacity="1" /><path clip-path="url(#clip460)" d="M44.7161 622.981 L47.5806 622.981 L47.5806 649.908 Q53.6281 649.526 56.8109 646.28 Q59.9619 643.001 59.9619 637.177 Q59.9619 633.803 59.1344 630.652 Q58.3069 627.469 56.6518 624.35 L62.1899 624.35 Q63.5267 627.501 64.227 630.811 Q64.9272 634.121 64.9272 637.527 Q64.9272 646.057 59.9619 651.054 Q54.9967 656.019 46.5303 656.019 Q37.7774 656.019 32.6531 651.308 Q27.4968 646.566 27.4968 638.545 Q27.4968 631.352 32.1438 627.182 Q36.7589 622.981 44.7161 622.981 M42.9973 628.837 Q38.1912 628.901 35.3266 631.543 Q32.4621 634.153 32.4621 638.482 Q32.4621 643.383 35.2312 646.343 Q38.0002 649.271 43.0292 649.717 L42.9973 628.837 Z" fill="#000000" fill-rule="evenodd" fill-opacity="1" /><path clip-path="url(#clip460)" d="M18.2347 607.576 L28.3562 607.576 L28.3562 595.513 L32.9077 595.513 L32.9077 607.576 L52.2594 607.576 Q56.6199 607.576 57.8613 606.398 Q59.1026 605.189 59.1026 601.529 L59.1026 595.513 L64.0042 595.513 L64.0042 601.529 Q64.0042 608.308 61.4897 610.886 Q58.9434 613.464 52.2594 613.464 L32.9077 613.464 L32.9077 617.761 L28.3562 617.761 L28.3562 613.464 L18.2347 613.464 L18.2347 607.576 Z" fill="#000000" fill-rule="evenodd" fill-opacity="1" /><path clip-path="url(#clip460)" d="M33.8307 567.154 Q33.2578 568.14 33.0032 569.318 Q32.7167 570.464 32.7167 571.864 Q32.7167 576.83 35.9632 579.503 Q39.1779 582.145 45.2253 582.145 L64.0042 582.145 L64.0042 588.033 L28.3562 588.033 L28.3562 582.145 L33.8944 582.145 Q30.6479 580.299 29.0883 577.339 Q27.4968 574.379 27.4968 570.146 Q27.4968 569.541 27.5923 568.809 Q27.656 568.077 27.8151 567.186 L33.8307 567.154 Z" fill="#000000" fill-rule="evenodd" fill-opacity="1" /><path clip-path="url(#clip460)" d="M28.3562 561.011 L28.3562 555.154 L64.0042 555.154 L64.0042 561.011 L28.3562 561.011 M14.479 561.011 L14.479 555.154 L21.895 555.154 L21.895 561.011 L14.479 561.011 Z" fill="#000000" fill-rule="evenodd" fill-opacity="1" /><path clip-path="url(#clip460)" d="M29.7248 517.247 L35.1993 517.247 Q33.8307 519.729 33.1623 522.244 Q32.4621 524.726 32.4621 527.273 Q32.4621 532.97 36.0905 536.121 Q39.6872 539.272 46.212 539.272 Q52.7369 539.272 56.3653 536.121 Q59.9619 532.97 59.9619 527.273 Q59.9619 524.726 59.2935 522.244 Q58.5933 519.729 57.2247 517.247 L62.6355 517.247 Q63.7814 519.697 64.3543 522.339 Q64.9272 524.949 64.9272 527.909 Q64.9272 535.962 59.8664 540.704 Q54.8057 545.447 46.212 545.447 Q37.491 545.447 32.4939 540.672 Q27.4968 535.866 27.4968 527.527 Q27.4968 524.822 28.0697 522.244 Q28.6108 519.666 29.7248 517.247 Z" fill="#000000" fill-rule="evenodd" fill-opacity="1" /><polyline clip-path="url(#clip462)" style="stroke:#009af9; stroke-linecap:butt; stroke-linejoin:round; stroke-width:4; stroke-opacity:1; fill:none" points="
  263.091,1442.94 276.708,1442.94 290.324,1442.94 303.94,1442.95 317.556,1442.95 331.172,1442.96 344.788,1442.97 358.404,1442.98 372.02,1442.99 385.636,1443.01 
  399.253,1443.02 412.869,1443.03 426.485,1443.05 440.101,1443.06 453.717,1443.08 467.333,1443.09 480.949,1443.11 494.565,1443.12 508.181,1443.13 521.798,1443.14 
  535.414,1443.15 549.03,1443.15 562.646,1443.14 576.262,1443.13 589.878,1443.11 603.494,1443.07 617.11,1443.02 630.726,1442.96 644.343,1442.87 657.959,1442.76 
  671.575,1442.62 685.191,1442.45 698.807,1442.24 712.423,1441.98 726.039,1441.66 739.655,1441.29 753.271,1440.85 766.888,1440.35 780.504,1439.77 794.12,1439.12 
  807.736,1438.41 821.352,1437.64 834.968,1436.84 848.584,1436.03 862.2,1435.25 875.816,1434.53 889.433,1433.91 903.049,1433.43 916.665,1433.13 930.281,1433.03 
  943.897,1433.02 957.513,1432.99 971.129,1432.95 984.745,1432.9 998.361,1432.82 1011.98,1432.73 1025.59,1432.62 1039.21,1432.48 1052.83,1432.33 1066.44,1432.16 
  1080.06,1431.96 1093.67,1431.74 1107.29,1431.49 1120.91,1431.2 1134.52,1430.89 1148.14,1430.54 1161.75,1430.14 1175.37,1429.71 1188.99,1429.22 1202.6,1428.67 
  1216.22,1428.06 1229.84,1427.37 1243.45,1426.6 1257.07,1425.73 1270.68,1424.74 1284.3,1423.63 1297.92,1422.36 1311.53,1420.9 1325.15,1419.23 1338.76,1417.29 
  1352.38,1415.03 1366,1412.39 1379.61,1409.26 1393.23,1405.53 1406.84,1401.04 1420.46,1395.57 1434.08,1388.83 1447.69,1380.4 1461.31,1369.7 1474.93,1355.87 
  1488.54,1337.68 1502.16,1313.57 1515.77,1282.57 1529.39,1242.54 1543.01,1188.83 1556.62,1116.95 1570.24,1024.41 1583.85,917.718 1597.47,823.353 1611.09,784.134 
  1624.7,858.462 1638.32,1008.42 1651.93,1140.96 1665.55,1233.7 1679.17,1295.57 1692.78,1338.76 1706.4,1367.97 1720.02,1387.66 1733.63,1401.39 1747.25,1411.25 
  1760.86,1418.5 1774.48,1423.95 1788.1,1428.11 1801.71,1431.32 1815.33,1433.83 1828.94,1435.8 1842.56,1437.36 1856.18,1438.61 1869.79,1439.6 1883.41,1440.39 
  1897.02,1441.03 1910.64,1441.53 1924.26,1441.93 1937.87,1442.25 1951.49,1442.5 1965.11,1442.69 1978.72,1442.84 1992.34,1442.95 2005.95,1443.03 2019.57,1443.09 
  2033.19,1443.13 2046.8,1443.15 2060.42,1443.16 2074.03,1443.16 2087.65,1443.15 2101.27,1443.14 2114.88,1443.12 2128.5,1443.11 2142.11,1443.08 2155.73,1443.06 
  2169.35,1443.04 2182.96,1443.02 2196.58,1443 2210.2,1442.99 2223.81,1442.97 2237.43,1442.96 2251.04,1442.95 2264.66,1442.94 2278.28,1442.94 2291.89,1442.94 
  
  "/>
<polyline clip-path="url(#clip462)" style="stroke:#e26f46; stroke-linecap:butt; stroke-linejoin:round; stroke-width:4; stroke-opacity:1; fill:none" points="
  263.091,1445.69 276.708,1445.69 290.324,1445.69 303.94,1445.69 317.556,1445.69 331.172,1445.69 344.788,1445.69 358.404,1445.69 372.02,1445.69 385.636,1445.69 
  399.253,1445.69 412.869,1445.69 426.485,1445.69 440.101,1445.69 453.717,1445.7 467.333,1445.7 480.949,1445.7 494.565,1445.7 508.181,1445.7 521.798,1445.7 
  535.414,1445.7 549.03,1445.7 562.646,1445.7 576.262,1445.7 589.878,1445.71 603.494,1445.71 617.11,1445.71 630.726,1445.71 644.343,1445.71 657.959,1445.71 
  671.575,1445.71 685.191,1445.71 698.807,1445.71 712.423,1445.7 726.039,1445.7 739.655,1445.69 753.271,1445.68 766.888,1445.66 780.504,1445.64 794.12,1445.61 
  807.736,1445.57 821.352,1445.53 834.968,1445.48 848.584,1445.43 862.2,1445.38 875.816,1445.33 889.433,1445.28 903.049,1445.25 916.665,1445.22 930.281,1445.22 
  943.897,1445.22 957.513,1445.21 971.129,1445.21 984.745,1445.21 998.361,1445.2 1011.98,1445.19 1025.59,1445.18 1039.21,1445.17 1052.83,1445.16 1066.44,1445.15 
  1080.06,1445.13 1093.67,1445.11 1107.29,1445.09 1120.91,1445.07 1134.52,1445.04 1148.14,1445.01 1161.75,1444.97 1175.37,1444.93 1188.99,1444.88 1202.6,1444.83 
  1216.22,1444.77 1229.84,1444.7 1243.45,1444.62 1257.07,1444.52 1270.68,1444.41 1284.3,1444.28 1297.92,1444.12 1311.53,1443.93 1325.15,1443.69 1338.76,1443.4 
  1352.38,1443.05 1366,1442.59 1379.61,1442 1393.23,1441.24 1406.84,1440.22 1420.46,1438.82 1434.08,1436.87 1447.69,1434.06 1461.31,1429.89 1474.93,1423.49 
  1488.54,1413.28 1502.16,1396.58 1515.77,1369.6 1529.39,1325.34 1543.01,1249.34 1556.62,1118.12 1570.24,900.384 1583.85,582.973 1597.47,244.388 1611.09,87.9763 
  1624.7,376.422 1638.32,855.794 1651.93,1162.71 1665.55,1310.8 1679.17,1378.78 1692.78,1411.84 1706.4,1427.73 1720.02,1435.59 1733.63,1439.74 1747.25,1442.06 
  1760.86,1443.42 1774.48,1444.25 1788.1,1444.77 1801.71,1445.1 1815.33,1445.32 1828.94,1445.46 1842.56,1445.55 1856.18,1445.61 1869.79,1445.65 1883.41,1445.68 
  1897.02,1445.7 1910.64,1445.71 1924.26,1445.71 1937.87,1445.71 1951.49,1445.72 1965.11,1445.72 1978.72,1445.71 1992.34,1445.71 2005.95,1445.71 2019.57,1445.71 
  2033.19,1445.71 2046.8,1445.7 2060.42,1445.7 2074.03,1445.7 2087.65,1445.7 2101.27,1445.7 2114.88,1445.7 2128.5,1445.7 2142.11,1445.7 2155.73,1445.69 
  2169.35,1445.69 2182.96,1445.69 2196.58,1445.69 2210.2,1445.69 2223.81,1445.69 2237.43,1445.69 2251.04,1445.69 2264.66,1445.69 2278.28,1445.69 2291.89,1445.69 
  
  "/>
<polyline clip-path="url(#clip462)" style="stroke:#3da44d; stroke-linecap:butt; stroke-linejoin:round; stroke-width:4; stroke-opacity:1; fill:none" points="
  263.091,1444.33 276.708,1444.33 290.324,1444.33 303.94,1444.33 317.556,1444.34 331.172,1444.34 344.788,1444.35 358.404,1444.35 372.02,1444.36 385.636,1444.37 
  399.253,1444.38 412.869,1444.39 426.485,1444.41 440.101,1444.42 453.717,1444.44 467.333,1444.46 480.949,1444.49 494.565,1444.52 508.181,1444.55 521.798,1444.59 
  535.414,1444.63 549.03,1444.67 562.646,1444.73 576.262,1444.78 589.878,1444.85 603.494,1444.92 617.11,1444.99 630.726,1445.06 644.343,1445.12 657.959,1445.16 
  671.575,1445.15 685.191,1445.08 698.807,1444.94 712.423,1444.75 726.039,1444.51 739.655,1444.23 753.271,1443.91 766.888,1443.56 780.504,1443.17 794.12,1442.75 
  807.736,1442.31 821.352,1441.85 834.968,1441.39 848.584,1440.94 862.2,1440.52 875.816,1440.14 889.433,1439.82 903.049,1439.57 916.665,1439.42 930.281,1439.37 
  943.897,1439.37 957.513,1439.35 971.129,1439.33 984.745,1439.31 998.361,1439.27 1011.98,1439.22 1025.59,1439.17 1039.21,1439.1 1052.83,1439.03 1066.44,1438.94 
  1080.06,1438.84 1093.67,1438.74 1107.29,1438.61 1120.91,1438.48 1134.52,1438.32 1148.14,1438.16 1161.75,1437.97 1175.37,1437.76 1188.99,1437.53 1202.6,1437.27 
  1216.22,1436.99 1229.84,1436.67 1243.45,1436.31 1257.07,1435.91 1270.68,1435.46 1284.3,1434.95 1297.92,1434.37 1311.53,1433.71 1325.15,1432.95 1338.76,1432.07 
  1352.38,1431.04 1366,1429.84 1379.61,1428.42 1393.23,1426.72 1406.84,1424.66 1420.46,1422.14 1434.08,1419.01 1447.69,1415.06 1461.31,1410 1474.93,1403.39 
  1488.54,1394.59 1502.16,1382.79 1515.77,1367.39 1529.39,1347.22 1543.01,1319.91 1556.62,1283.23 1570.24,1236.08 1583.85,1182.03 1597.47,1134.56 1611.09,1114.93 
  1624.7,1152.16 1638.32,1227.67 1651.93,1294.69 1665.55,1341.44 1679.17,1372.27 1692.78,1393.47 1706.4,1407.65 1720.02,1417.15 1733.63,1423.77 1747.25,1428.55 
  1760.86,1432.11 1774.48,1434.84 1788.1,1436.97 1801.71,1438.67 1815.33,1440.03 1828.94,1441.15 1842.56,1442.07 1856.18,1442.84 1869.79,1443.48 1883.41,1444.02 
  1897.02,1444.48 1910.64,1444.86 1924.26,1445.19 1937.87,1445.48 1951.49,1445.72 1965.11,1445.51 1978.72,1445.33 1992.34,1445.18 2005.95,1445.05 2019.57,1444.94 
  2033.19,1444.85 2046.8,1444.76 2060.42,1444.69 2074.03,1444.63 2087.65,1444.58 2101.27,1444.54 2114.88,1444.5 2128.5,1444.47 2142.11,1444.44 2155.73,1444.42 
  2169.35,1444.4 2182.96,1444.38 2196.58,1444.37 2210.2,1444.35 2223.81,1444.35 2237.43,1444.34 2251.04,1444.33 2264.66,1444.33 2278.28,1444.33 2291.89,1444.33 
  
  "/>
<path clip-path="url(#clip460)" d="
M1882.52 338.83 L2281.07 338.83 L2281.07 95.2176 L1882.52 95.2176  Z
  " fill="#ffffff" fill-rule="evenodd" fill-opacity="1"/>
<polyline clip-path="url(#clip460)" style="stroke:#000000; stroke-linecap:butt; stroke-linejoin:round; stroke-width:4; stroke-opacity:1; fill:none" points="
  1882.52,338.83 2281.07,338.83 2281.07,95.2176 1882.52,95.2176 1882.52,338.83 
  "/>
<polyline clip-path="url(#clip460)" style="stroke:#009af9; stroke-linecap:butt; stroke-linejoin:round; stroke-width:4; stroke-opacity:1; fill:none" points="
  1906.42,156.121 2049.79,156.121 
  "/>
<path clip-path="url(#clip460)" d="M2073.68 153.218 L2074.59 142.444 L2103.9 142.444 L2104.81 153.218 L2103.61 153.218 Q2103.43 151.064 2103.24 149.822 Q2103.08 148.581 2102.65 147.41 Q2102.26 146.215 2101.74 145.653 Q2101.25 145.067 2100.29 144.622 Q2099.33 144.154 2098.09 144.037 Q2096.85 143.92 2094.97 143.92 Q2092.77 143.92 2092.23 144.013 Q2091.65 144.154 2091.51 144.575 Q2091.36 144.974 2091.36 145.84 L2091.36 171.113 Q2091.36 172.073 2091.55 172.472 Q2091.76 172.846 2092.86 173.151 Q2093.96 173.432 2096.4 173.432 L2098.32 173.432 L2098.32 174.908 Q2096.35 174.767 2089.21 174.767 Q2082.11 174.767 2080.15 174.908 L2080.15 173.432 L2082.07 173.432 Q2084.5 173.432 2085.6 173.151 Q2086.73 172.846 2086.91 172.472 Q2087.1 172.073 2087.1 171.113 L2087.1 145.84 Q2087.1 145.161 2087.05 144.88 Q2087.01 144.599 2086.8 144.365 Q2086.59 144.107 2086.09 144.013 Q2085.63 143.92 2083.52 143.92 Q2081.64 143.92 2080.38 144.037 Q2079.14 144.154 2078.18 144.622 Q2077.22 145.067 2076.7 145.653 Q2076.21 146.215 2075.79 147.41 Q2075.39 148.581 2075.23 149.822 Q2075.06 151.064 2074.88 153.218 L2073.68 153.218 Z" fill="#000000" fill-rule="evenodd" fill-opacity="1" /><path clip-path="url(#clip460)" d="M2111.85 174.908 L2111.85 173.432 Q2114.41 173.432 2114.99 173.127 Q2115.6 172.8 2115.6 171.254 L2115.6 158.395 Q2115.6 156.615 2114.97 156.17 Q2114.36 155.725 2111.85 155.725 L2111.85 154.226 L2118.53 153.71 L2118.53 158.98 Q2119.21 156.919 2120.64 155.326 Q2122.09 153.71 2124.43 153.71 Q2125.98 153.71 2126.96 154.577 Q2127.97 155.444 2127.97 156.638 Q2127.97 157.692 2127.31 158.231 Q2126.68 158.746 2125.91 158.746 Q2125.04 158.746 2124.43 158.207 Q2123.85 157.645 2123.85 156.685 Q2123.85 156.099 2124.1 155.654 Q2124.39 155.186 2124.6 155.022 Q2124.81 154.858 2124.95 154.811 Q2124.85 154.764 2124.43 154.764 Q2121.79 154.764 2120.26 157.411 Q2118.76 160.034 2118.76 163.782 L2118.76 171.16 Q2118.76 172.542 2119.33 172.987 Q2119.91 173.432 2122.42 173.432 L2123.43 173.432 L2123.43 174.908 Q2121.5 174.767 2117.34 174.767 Q2116.75 174.767 2115.84 174.79 Q2114.92 174.814 2113.73 174.861 Q2112.53 174.908 2111.85 174.908 Z" fill="#000000" fill-rule="evenodd" fill-opacity="1" /><path clip-path="url(#clip460)" d="M2130.41 162.915 Q2130.41 154.811 2133.43 148.276 Q2134.72 145.536 2136.52 143.24 Q2138.33 140.945 2139.52 139.938 Q2140.71 138.931 2141.04 138.931 Q2141.51 138.931 2141.53 139.399 Q2141.53 139.633 2140.9 140.219 Q2133.17 148.089 2133.2 162.915 Q2133.2 177.789 2140.71 185.354 Q2141.53 186.174 2141.53 186.431 Q2141.53 186.9 2141.04 186.9 Q2140.71 186.9 2139.57 185.94 Q2138.42 184.979 2136.64 182.777 Q2134.86 180.576 2133.57 177.882 Q2130.41 171.347 2130.41 162.915 Z" fill="#000000" fill-rule="evenodd" fill-opacity="1" /><path clip-path="url(#clip460)" d="M2166.23 155.959 Q2166.23 155.982 2166.09 156.825 L2160.75 178.116 Q2160.47 179.241 2159.68 180.365 Q2158.9 181.513 2157.66 182.496 Q2156.44 183.504 2154.57 184.113 Q2152.72 184.745 2150.59 184.745 Q2147.19 184.745 2145.69 184.019 Q2144.22 183.316 2144.22 181.817 Q2144.22 180.506 2145.04 179.756 Q2145.86 179.03 2146.79 179.03 Q2147.68 179.03 2148.15 179.545 Q2148.62 180.06 2148.62 180.716 Q2148.62 181.442 2148.13 182.169 Q2147.64 182.918 2146.65 183.199 Q2148.22 183.691 2150.49 183.691 Q2155.3 183.691 2157.36 178.608 Q2157.4 178.538 2157.4 178.515 L2159 172.167 L2158.93 172.12 Q2158.53 172.589 2157.9 173.127 Q2157.29 173.643 2155.97 174.275 Q2154.66 174.908 2153.37 174.908 Q2150.68 174.908 2148.83 172.846 Q2147 170.762 2147 167.319 Q2147 164.812 2148.01 162.306 Q2149.04 159.777 2150.63 157.926 Q2152.25 156.052 2154.31 154.881 Q2156.4 153.71 2158.41 153.71 Q2159.82 153.71 2161.01 154.553 Q2162.21 155.373 2162.86 156.732 Q2162.98 155.607 2163.61 155.139 Q2164.27 154.671 2164.83 154.671 Q2165.46 154.671 2165.84 155.022 Q2166.23 155.35 2166.23 155.959 M2162.3 158.887 Q2162.3 158.746 2162.21 158.371 Q2162.11 157.973 2161.83 157.341 Q2161.57 156.708 2161.17 156.146 Q2160.78 155.584 2160.05 155.186 Q2159.35 154.764 2158.46 154.764 Q2157.01 154.764 2155.55 155.982 Q2154.1 157.177 2153.09 159.027 Q2152.16 160.807 2151.27 164.25 Q2150.4 167.693 2150.4 169.45 Q2150.4 171.183 2151.15 172.518 Q2151.9 173.854 2153.52 173.854 Q2155.39 173.854 2157.4 172.12 Q2159.49 170.317 2159.84 168.771 L2162.16 159.613 Q2162.3 159.051 2162.3 158.887 Z" fill="#000000" fill-rule="evenodd" fill-opacity="1" /><path clip-path="url(#clip460)" d="M2170.89 186.431 Q2170.89 186.197 2171.49 185.612 Q2179.22 177.742 2179.22 162.915 Q2179.22 148.042 2171.8 140.523 Q2170.89 139.657 2170.89 139.399 Q2170.89 138.931 2171.35 138.931 Q2171.68 138.931 2172.83 139.891 Q2174 140.851 2175.76 143.053 Q2177.54 145.255 2178.85 147.948 Q2182.01 154.483 2182.01 162.915 Q2182.01 171.019 2178.99 177.554 Q2177.7 180.295 2175.9 182.59 Q2174.09 184.886 2172.9 185.893 Q2171.71 186.9 2171.35 186.9 Q2170.89 186.9 2170.89 186.431 Z" fill="#000000" fill-rule="evenodd" fill-opacity="1" /><polyline clip-path="url(#clip460)" style="stroke:#e26f46; stroke-linecap:butt; stroke-linejoin:round; stroke-width:4; stroke-opacity:1; fill:none" points="
  1906.42,217.024 2049.79,217.024 
  "/>
<path clip-path="url(#clip460)" d="M2073.68 225.505 Q2073.68 220.937 2076.87 217.775 Q2080.05 214.613 2084.36 214.613 Q2088.02 214.613 2090.4 217.588 L2090.4 207.212 Q2090.4 205.432 2089.77 204.987 Q2089.16 204.542 2086.68 204.542 L2086.68 203.043 L2093.59 202.527 L2093.59 231.641 Q2093.59 233.421 2094.2 233.89 Q2094.83 234.335 2097.31 234.335 L2097.31 235.811 L2090.26 236.349 L2090.26 233.164 Q2087.78 236.326 2083.85 236.349 Q2079.72 236.349 2076.7 233.187 Q2073.68 230.025 2073.68 225.505 M2077.66 225.552 Q2077.66 230.002 2079.04 232.203 Q2080.96 235.272 2084.08 235.272 Q2087.64 235.272 2089.75 231.922 Q2090.29 231.103 2090.26 230.142 L2090.26 220.305 Q2090.26 219.345 2089.75 218.548 Q2087.78 215.667 2084.57 215.667 Q2081.22 215.667 2079.14 218.736 Q2077.66 221.031 2077.66 225.552 Z" fill="#000000" fill-rule="evenodd" fill-opacity="1" /><path clip-path="url(#clip460)" d="M2100.22 225.247 Q2100.22 220.726 2103.12 217.518 Q2106.03 214.309 2110.2 214.309 Q2114.41 214.309 2116.59 217.049 Q2118.79 219.79 2118.79 223.725 Q2118.79 224.451 2118.61 224.591 Q2118.42 224.732 2117.6 224.732 L2104.2 224.732 Q2104.2 229.627 2105.65 231.922 Q2107.67 235.131 2111.06 235.131 Q2111.53 235.131 2112.1 235.038 Q2112.66 234.944 2113.81 234.546 Q2114.95 234.124 2115.96 233.023 Q2116.97 231.922 2117.55 230.189 Q2117.69 229.51 2118.16 229.533 Q2118.79 229.533 2118.79 230.095 Q2118.79 230.517 2118.33 231.477 Q2117.88 232.414 2117.01 233.539 Q2116.15 234.663 2114.46 235.506 Q2112.8 236.349 2110.78 236.349 Q2106.57 236.349 2103.38 233.164 Q2100.22 229.955 2100.22 225.247 M2104.25 223.725 L2115.63 223.725 Q2115.63 222.717 2115.44 221.593 Q2115.28 220.469 2114.77 218.923 Q2114.27 217.354 2113.1 216.37 Q2111.93 215.386 2110.2 215.386 Q2109.43 215.386 2108.58 215.714 Q2107.76 216.042 2106.76 216.838 Q2105.75 217.635 2105.05 219.438 Q2104.34 221.242 2104.25 223.725 Z" fill="#000000" fill-rule="evenodd" fill-opacity="1" /><path clip-path="url(#clip460)" d="M2119.22 216.628 L2119.22 215.574 Q2121.42 215.48 2122.87 213.934 Q2124.35 212.365 2124.84 210.444 Q2125.35 208.523 2125.4 206.298 L2126.6 206.298 L2126.6 215.129 L2133.46 215.129 L2133.46 216.628 L2126.6 216.628 L2126.6 229.955 Q2126.6 235.131 2129.83 235.131 Q2131.21 235.131 2132.12 233.726 Q2133.04 232.297 2133.04 229.768 L2133.04 227.121 L2134.23 227.121 L2134.23 229.861 Q2134.23 232.461 2133.04 234.405 Q2131.84 236.349 2129.48 236.349 Q2128.61 236.349 2127.74 236.115 Q2126.9 235.904 2125.78 235.342 Q2124.68 234.757 2123.97 233.351 Q2123.29 231.922 2123.29 229.861 L2123.29 216.628 L2119.22 216.628 Z" fill="#000000" fill-rule="evenodd" fill-opacity="1" /><path clip-path="url(#clip460)" d="M2137.63 223.818 Q2137.63 215.714 2140.66 209.179 Q2141.94 206.439 2143.75 204.143 Q2145.55 201.848 2146.74 200.841 Q2147.94 199.834 2148.27 199.834 Q2148.74 199.834 2148.76 200.302 Q2148.76 200.536 2148.13 201.122 Q2140.4 208.992 2140.42 223.818 Q2140.42 238.692 2147.94 246.257 Q2148.76 247.077 2148.76 247.334 Q2148.76 247.803 2148.27 247.803 Q2147.94 247.803 2146.79 246.843 Q2145.64 245.882 2143.86 243.68 Q2142.08 241.479 2140.8 238.785 Q2137.63 232.25 2137.63 223.818 Z" fill="#000000" fill-rule="evenodd" fill-opacity="1" /><path clip-path="url(#clip460)" d="M2173.46 216.862 Q2173.46 216.885 2173.32 217.728 L2167.98 239.019 Q2167.7 240.144 2166.9 241.268 Q2166.13 242.416 2164.89 243.399 Q2163.67 244.407 2161.79 245.016 Q2159.94 245.648 2157.81 245.648 Q2154.42 245.648 2152.92 244.922 Q2151.44 244.219 2151.44 242.72 Q2151.44 241.409 2152.26 240.659 Q2153.08 239.933 2154.02 239.933 Q2154.91 239.933 2155.38 240.448 Q2155.84 240.963 2155.84 241.619 Q2155.84 242.345 2155.35 243.072 Q2154.86 243.821 2153.88 244.102 Q2155.45 244.594 2157.72 244.594 Q2162.52 244.594 2164.58 239.511 Q2164.63 239.441 2164.63 239.418 L2166.22 233.07 L2166.15 233.023 Q2165.75 233.492 2165.12 234.03 Q2164.51 234.546 2163.2 235.178 Q2161.89 235.811 2160.6 235.811 Q2157.91 235.811 2156.06 233.749 Q2154.23 231.665 2154.23 228.222 Q2154.23 225.715 2155.24 223.209 Q2156.27 220.68 2157.86 218.829 Q2159.47 216.955 2161.54 215.784 Q2163.62 214.613 2165.64 214.613 Q2167.04 214.613 2168.23 215.456 Q2169.43 216.276 2170.09 217.635 Q2170.2 216.51 2170.83 216.042 Q2171.49 215.574 2172.05 215.574 Q2172.69 215.574 2173.06 215.925 Q2173.46 216.253 2173.46 216.862 M2169.52 219.79 Q2169.52 219.649 2169.43 219.274 Q2169.34 218.876 2169.05 218.244 Q2168.8 217.611 2168.4 217.049 Q2168 216.487 2167.27 216.089 Q2166.57 215.667 2165.68 215.667 Q2164.23 215.667 2162.78 216.885 Q2161.33 218.08 2160.32 219.93 Q2159.38 221.71 2158.49 225.153 Q2157.62 228.596 2157.62 230.353 Q2157.62 232.086 2158.37 233.421 Q2159.12 234.757 2160.74 234.757 Q2162.61 234.757 2164.63 233.023 Q2166.71 231.22 2167.06 229.674 L2169.38 220.516 Q2169.52 219.954 2169.52 219.79 Z" fill="#000000" fill-rule="evenodd" fill-opacity="1" /><path clip-path="url(#clip460)" d="M2178.11 247.334 Q2178.11 247.1 2178.72 246.515 Q2186.45 238.645 2186.45 223.818 Q2186.45 208.945 2179.02 201.426 Q2178.11 200.56 2178.11 200.302 Q2178.11 199.834 2178.58 199.834 Q2178.91 199.834 2180.05 200.794 Q2181.22 201.754 2182.98 203.956 Q2184.76 206.158 2186.07 208.851 Q2189.24 215.386 2189.24 223.818 Q2189.24 231.922 2186.21 238.457 Q2184.93 241.198 2183.12 243.493 Q2181.32 245.789 2180.12 246.796 Q2178.93 247.803 2178.58 247.803 Q2178.11 247.803 2178.11 247.334 Z" fill="#000000" fill-rule="evenodd" fill-opacity="1" /><polyline clip-path="url(#clip460)" style="stroke:#3da44d; stroke-linecap:butt; stroke-linejoin:round; stroke-width:4; stroke-opacity:1; fill:none" points="
  1906.42,277.927 2049.79,277.927 
  "/>
<path clip-path="url(#clip460)" d="M2073.68 297.853 L2082.05 284.95 L2085.45 302.072 L2086.09 305.191 Q2086.23 304.376 2086.65 302.993 Q2087.12 301.575 2087.19 301.221 L2098.42 258.081 Q2098.49 257.797 2098.6 257.336 Q2098.74 256.84 2098.81 256.663 Q2098.88 256.486 2098.99 256.131 Q2099.1 255.777 2099.17 255.67 Q2099.24 255.529 2099.34 255.28 Q2099.45 255.032 2099.59 254.961 Q2099.73 254.891 2099.91 254.749 Q2100.09 254.607 2100.3 254.571 Q2100.55 254.536 2100.8 254.501 Q2101.05 254.465 2101.4 254.465 L2107.75 254.465 Q2109.98 254.465 2109.98 255.918 Q2109.98 257.372 2107.82 257.372 L2101.61 257.372 L2086.97 313.344 Q2086.76 314.159 2086.58 314.478 Q2086.44 314.797 2085.95 315.081 Q2085.45 315.364 2084.56 315.364 L2083.85 315.364 L2079.21 292.288 L2074.85 299.023 L2073.68 297.853 Z" fill="#000000" fill-rule="evenodd" fill-opacity="1" /><path clip-path="url(#clip460)" d="
M2107.6 257.402 L2233.28 257.402 L2233.28 254.387 L2107.6 254.387  Z
  " fill="#000000" fill-rule="evenodd" fill-opacity="1"/>
<path clip-path="url(#clip460)" d="M2112.72 292.721 Q2112.72 288.154 2115.9 284.992 Q2119.09 281.83 2123.4 281.83 Q2127.05 281.83 2129.44 284.804 L2129.44 274.428 Q2129.44 272.648 2128.81 272.203 Q2128.2 271.758 2125.72 271.758 L2125.72 270.259 L2132.63 269.744 L2132.63 298.858 Q2132.63 300.638 2133.24 301.106 Q2133.87 301.551 2136.35 301.551 L2136.35 303.027 L2129.3 303.566 L2129.3 300.38 Q2126.82 303.542 2122.88 303.566 Q2118.76 303.566 2115.74 300.404 Q2112.72 297.242 2112.72 292.721 M2116.7 292.768 Q2116.7 297.218 2118.08 299.42 Q2120 302.488 2123.12 302.488 Q2126.68 302.488 2128.79 299.139 Q2129.32 298.319 2129.3 297.359 L2129.3 287.521 Q2129.3 286.561 2128.79 285.765 Q2126.82 282.884 2123.61 282.884 Q2120.26 282.884 2118.17 285.952 Q2116.7 288.247 2116.7 292.768 Z" fill="#000000" fill-rule="evenodd" fill-opacity="1" /><path clip-path="url(#clip460)" d="M2139.26 292.464 Q2139.26 287.943 2142.16 284.734 Q2145.07 281.525 2149.23 281.525 Q2153.45 281.525 2155.63 284.266 Q2157.83 287.006 2157.83 290.941 Q2157.83 291.667 2157.64 291.808 Q2157.46 291.948 2156.64 291.948 L2143.24 291.948 Q2143.24 296.844 2144.69 299.139 Q2146.71 302.348 2150.1 302.348 Q2150.57 302.348 2151.13 302.254 Q2151.69 302.16 2152.84 301.762 Q2153.99 301.341 2155 300.24 Q2156 299.139 2156.59 297.406 Q2156.73 296.726 2157.2 296.75 Q2157.83 296.75 2157.83 297.312 Q2157.83 297.734 2157.36 298.694 Q2156.92 299.631 2156.05 300.755 Q2155.18 301.879 2153.5 302.723 Q2151.83 303.566 2149.82 303.566 Q2145.6 303.566 2142.42 300.38 Q2139.26 297.171 2139.26 292.464 M2143.29 290.941 L2154.67 290.941 Q2154.67 289.934 2154.48 288.81 Q2154.32 287.685 2153.8 286.139 Q2153.31 284.57 2152.14 283.586 Q2150.97 282.603 2149.23 282.603 Q2148.46 282.603 2147.62 282.931 Q2146.8 283.259 2145.79 284.055 Q2144.78 284.851 2144.08 286.655 Q2143.38 288.458 2143.29 290.941 Z" fill="#000000" fill-rule="evenodd" fill-opacity="1" /><path clip-path="url(#clip460)" d="M2158.25 283.844 L2158.25 282.79 Q2160.46 282.696 2161.91 281.15 Q2163.38 279.581 2163.88 277.661 Q2164.39 275.74 2164.44 273.515 L2165.63 273.515 L2165.63 282.345 L2172.5 282.345 L2172.5 283.844 L2165.63 283.844 L2165.63 297.171 Q2165.63 302.348 2168.87 302.348 Q2170.25 302.348 2171.16 300.942 Q2172.07 299.514 2172.07 296.984 L2172.07 294.337 L2173.27 294.337 L2173.27 297.078 Q2173.27 299.678 2172.07 301.622 Q2170.88 303.566 2168.51 303.566 Q2167.65 303.566 2166.78 303.332 Q2165.94 303.121 2164.81 302.559 Q2163.71 301.973 2163.01 300.568 Q2162.33 299.139 2162.33 297.078 L2162.33 283.844 L2158.25 283.844 Z" fill="#000000" fill-rule="evenodd" fill-opacity="1" /><path clip-path="url(#clip460)" d="M2176.67 291.035 Q2176.67 282.931 2179.69 276.396 Q2180.98 273.655 2182.78 271.36 Q2184.59 269.065 2185.78 268.057 Q2186.98 267.05 2187.3 267.05 Q2187.77 267.05 2187.8 267.519 Q2187.8 267.753 2187.16 268.338 Q2179.43 276.208 2179.46 291.035 Q2179.46 305.908 2186.98 313.473 Q2187.8 314.293 2187.8 314.551 Q2187.8 315.019 2187.3 315.019 Q2186.98 315.019 2185.83 314.059 Q2184.68 313.099 2182.9 310.897 Q2181.12 308.695 2179.83 306.002 Q2176.67 299.467 2176.67 291.035 Z" fill="#000000" fill-rule="evenodd" fill-opacity="1" /><path clip-path="url(#clip460)" d="M2212.49 284.078 Q2212.49 284.102 2212.35 284.945 L2207.01 306.236 Q2206.73 307.36 2205.94 308.484 Q2205.16 309.632 2203.92 310.616 Q2202.7 311.623 2200.83 312.232 Q2198.98 312.864 2196.85 312.864 Q2193.45 312.864 2191.95 312.138 Q2190.48 311.436 2190.48 309.937 Q2190.48 308.625 2191.3 307.875 Q2192.12 307.149 2193.05 307.149 Q2193.94 307.149 2194.41 307.665 Q2194.88 308.18 2194.88 308.836 Q2194.88 309.562 2194.39 310.288 Q2193.9 311.038 2192.91 311.319 Q2194.48 311.81 2196.75 311.81 Q2201.56 311.81 2203.62 306.728 Q2203.66 306.658 2203.66 306.634 L2205.26 300.287 L2205.19 300.24 Q2204.79 300.708 2204.16 301.247 Q2203.55 301.762 2202.24 302.395 Q2200.92 303.027 2199.64 303.027 Q2196.94 303.027 2195.09 300.966 Q2193.27 298.881 2193.27 295.438 Q2193.27 292.932 2194.27 290.426 Q2195.3 287.896 2196.9 286.046 Q2198.51 284.172 2200.57 283.001 Q2202.66 281.83 2204.67 281.83 Q2206.08 281.83 2207.27 282.673 Q2208.47 283.493 2209.12 284.851 Q2209.24 283.727 2209.87 283.259 Q2210.53 282.79 2211.09 282.79 Q2211.72 282.79 2212.1 283.141 Q2212.49 283.469 2212.49 284.078 M2208.56 287.006 Q2208.56 286.866 2208.47 286.491 Q2208.37 286.093 2208.09 285.46 Q2207.83 284.828 2207.44 284.266 Q2207.04 283.704 2206.31 283.305 Q2205.61 282.884 2204.72 282.884 Q2203.27 282.884 2201.81 284.102 Q2200.36 285.296 2199.35 287.147 Q2198.42 288.927 2197.53 292.37 Q2196.66 295.813 2196.66 297.57 Q2196.66 299.303 2197.41 300.638 Q2198.16 301.973 2199.78 301.973 Q2201.65 301.973 2203.66 300.24 Q2205.75 298.436 2206.1 296.89 L2208.42 287.732 Q2208.56 287.17 2208.56 287.006 Z" fill="#000000" fill-rule="evenodd" fill-opacity="1" /><path clip-path="url(#clip460)" d="M2217.15 314.551 Q2217.15 314.317 2217.76 313.731 Q2225.48 305.861 2225.48 291.035 Q2225.48 276.162 2218.06 268.643 Q2217.15 267.776 2217.15 267.519 Q2217.15 267.05 2217.61 267.05 Q2217.94 267.05 2219.09 268.01 Q2220.26 268.971 2222.02 271.173 Q2223.8 273.374 2225.11 276.068 Q2228.27 282.603 2228.27 291.035 Q2228.27 299.139 2225.25 305.674 Q2223.96 308.414 2222.16 310.71 Q2220.36 313.005 2219.16 314.012 Q2217.97 315.019 2217.61 315.019 Q2217.15 315.019 2217.15 314.551 Z" fill="#000000" fill-rule="evenodd" fill-opacity="1" /></svg>
