<?xml version="1.0" encoding="utf-8"?>
<svg xmlns="http://www.w3.org/2000/svg" xmlns:xlink="http://www.w3.org/1999/xlink" width="600" height="400" viewBox="0 0 2400 1600">
<defs>
  <clipPath id="clip490">
    <rect x="0" y="0" width="2400" height="1600"/>
  </clipPath>
</defs>
<path clip-path="url(#clip490)" d="
M0 1600 L2400 1600 L2400 0 L0 0  Z
  " fill="#ffffff" fill-rule="evenodd" fill-opacity="1"/>
<defs>
  <clipPath id="clip491">
    <rect x="480" y="0" width="1681" height="1600"/>
  </clipPath>
</defs>
<defs>
  <clipPath id="clip492">
    <rect x="202" y="47" width="2152" height="1440"/>
  </clipPath>
</defs>
<path clip-path="url(#clip490)" d="
M175.445 1486.45 L2352.76 1486.45 L2352.76 47.2441 L175.445 47.2441  Z
  " fill="#ffffff" fill-rule="evenodd" fill-opacity="1"/>
<defs>
  <clipPath id="clip493">
    <rect x="175" y="47" width="2178" height="1440"/>
  </clipPath>
</defs>
<polyline clip-path="url(#clip493)" style="stroke:#000000; stroke-linecap:butt; stroke-linejoin:round; stroke-width:2; stroke-opacity:0.1; fill:none" points="
  237.067,1486.45 237.067,47.2441 
  "/>
<polyline clip-path="url(#clip493)" style="stroke:#000000; stroke-linecap:butt; stroke-linejoin:round; stroke-width:2; stroke-opacity:0.1; fill:none" points="
  912.566,1486.45 912.566,47.2441 
  "/>
<polyline clip-path="url(#clip493)" style="stroke:#000000; stroke-linecap:butt; stroke-linejoin:round; stroke-width:2; stroke-opacity:0.1; fill:none" points="
  1601.85,1486.45 1601.85,47.2441 
  "/>
<polyline clip-path="url(#clip493)" style="stroke:#000000; stroke-linecap:butt; stroke-linejoin:round; stroke-width:2; stroke-opacity:0.1; fill:none" points="
  2291.13,1486.45 2291.13,47.2441 
  "/>
<polyline clip-path="url(#clip490)" style="stroke:#000000; stroke-linecap:butt; stroke-linejoin:round; stroke-width:4; stroke-opacity:1; fill:none" points="
  175.445,1486.45 2352.76,1486.45 
  "/>
<polyline clip-path="url(#clip490)" style="stroke:#000000; stroke-linecap:butt; stroke-linejoin:round; stroke-width:4; stroke-opacity:1; fill:none" points="
  237.067,1486.45 237.067,1467.55 
  "/>
<polyline clip-path="url(#clip490)" style="stroke:#000000; stroke-linecap:butt; stroke-linejoin:round; stroke-width:4; stroke-opacity:1; fill:none" points="
  912.566,1486.45 912.566,1467.55 
  "/>
<polyline clip-path="url(#clip490)" style="stroke:#000000; stroke-linecap:butt; stroke-linejoin:round; stroke-width:4; stroke-opacity:1; fill:none" points="
  1601.85,1486.45 1601.85,1467.55 
  "/>
<polyline clip-path="url(#clip490)" style="stroke:#000000; stroke-linecap:butt; stroke-linejoin:round; stroke-width:4; stroke-opacity:1; fill:none" points="
  2291.13,1486.45 2291.13,1467.55 
  "/>
<path clip-path="url(#clip490)" d="M222.223 1554.64 L222.223 1553.16 L222.926 1553.16 Q225.479 1553.16 226.276 1552.81 Q227.095 1552.43 227.166 1551.08 L227.166 1525.48 Q227.119 1524.23 226.322 1523.86 Q225.526 1523.46 222.926 1523.46 L222.223 1523.46 L222.223 1522.01 Q224.472 1522.1 228.969 1522.1 Q230.796 1522.1 232.365 1522.06 Q233.958 1522.01 234.216 1522.01 L247.262 1522.01 L248.597 1532.81 L247.356 1532.81 Q246.981 1529.88 246.559 1528.36 Q246.161 1526.81 245.177 1525.57 Q244.194 1524.33 242.554 1523.91 Q240.915 1523.46 238.151 1523.46 L234.052 1523.46 Q232.506 1523.46 231.967 1523.77 Q231.428 1524.07 231.428 1525.33 L231.428 1550.94 Q231.428 1552.41 232.412 1552.79 Q233.396 1553.16 236.699 1553.16 L237.565 1553.16 L237.565 1554.64 Q233.49 1554.5 229.367 1554.5 L229.063 1554.5 Q226.065 1554.5 222.223 1554.64 Z" fill="#000000" fill-rule="evenodd" fill-opacity="1" /><path clip-path="url(#clip490)" d="M894.753 1554.71 L894.753 1553.23 Q896.955 1553.23 898.571 1552.55 Q900.187 1551.87 900.656 1551.38 Q901.147 1550.87 901.71 1550.05 L909.58 1538.45 L900.749 1525.1 Q900.07 1524.09 899.157 1523.77 Q898.267 1523.44 896.299 1523.44 L895.386 1523.44 L895.386 1521.94 Q898.032 1522.08 901.616 1522.08 Q906.933 1522.08 908.619 1521.94 L908.619 1523.44 Q907.19 1523.48 906.347 1523.95 Q905.504 1524.4 905.504 1524.87 Q905.504 1525.05 905.832 1525.59 L912.015 1534.84 L917.496 1526.74 Q917.918 1526.06 917.918 1525.64 Q917.918 1524.77 917.122 1524.14 Q916.349 1523.48 914.943 1523.44 L914.943 1521.94 Q916.864 1522.08 921.103 1522.08 Q921.642 1522.08 922.509 1522.06 Q923.399 1522.03 924.57 1521.99 Q925.741 1521.94 926.42 1521.94 L926.42 1523.44 Q921.572 1523.48 919.464 1526.55 L912.882 1536.18 L923.001 1551.5 Q923.727 1552.55 924.64 1552.9 Q925.554 1553.23 927.521 1553.23 L928.435 1553.23 L928.435 1554.71 Q925.413 1554.57 922.204 1554.57 Q916.887 1554.57 915.201 1554.71 L915.201 1553.23 Q916.63 1553.18 917.473 1552.74 Q918.316 1552.27 918.316 1551.78 Q918.316 1551.73 918.058 1551.26 L910.493 1539.79 L903.677 1549.86 Q903.209 1550.63 903.209 1551.01 Q903.209 1551.78 903.958 1552.48 Q904.731 1553.16 906.23 1553.23 L906.23 1554.71 Q904.497 1554.57 900.07 1554.57 Q899.93 1554.57 894.753 1554.71 Z" fill="#000000" fill-rule="evenodd" fill-opacity="1" /><path clip-path="url(#clip490)" d="M1580.11 1554.71 L1580.11 1553.23 Q1581.84 1553.23 1582.94 1552.9 Q1584.04 1552.55 1584.44 1551.92 Q1584.86 1551.26 1584.95 1550.84 Q1585.05 1550.4 1585.05 1549.67 L1585.05 1525.69 Q1585.05 1524.3 1584.44 1523.88 Q1583.85 1523.44 1581.25 1523.44 L1580.11 1523.44 L1580.11 1521.94 L1588.21 1521.94 Q1589.08 1521.94 1589.31 1522.1 Q1589.55 1522.24 1589.9 1522.99 L1600.3 1549.86 L1610.79 1522.85 Q1611.02 1522.17 1611.23 1522.06 Q1611.47 1521.94 1612.38 1521.94 L1620.49 1521.94 L1620.49 1523.44 L1619.34 1523.44 Q1616.74 1523.44 1616.13 1523.88 Q1615.54 1524.3 1615.54 1525.69 L1615.54 1550.96 Q1615.54 1552.34 1616.13 1552.79 Q1616.74 1553.23 1619.34 1553.23 L1620.49 1553.23 L1620.49 1554.71 Q1618.71 1554.57 1613.62 1554.57 Q1608.49 1554.57 1606.71 1554.71 L1606.71 1553.23 L1607.89 1553.23 Q1610.48 1553.23 1611.07 1552.81 Q1611.66 1552.36 1611.66 1550.96 L1611.66 1523.44 L1611.61 1523.44 L1599.83 1553.79 Q1599.5 1554.71 1598.96 1554.71 Q1598.38 1554.71 1598 1553.65 L1586.43 1523.81 L1586.38 1523.81 L1586.38 1549.67 Q1586.38 1550.4 1586.48 1550.84 Q1586.57 1551.26 1586.97 1551.92 Q1587.39 1552.55 1588.49 1552.9 Q1589.59 1553.23 1591.33 1553.23 L1591.33 1554.71 Q1586.29 1554.57 1585.7 1554.57 Q1585.14 1554.57 1580.11 1554.71 Z" fill="#000000" fill-rule="evenodd" fill-opacity="1" /><path clip-path="url(#clip490)" d="M2276.29 1554.64 L2276.29 1553.16 L2276.99 1553.16 Q2279.55 1553.16 2280.34 1552.81 Q2281.16 1552.43 2281.23 1551.08 L2281.23 1525.48 Q2281.19 1524.23 2280.39 1523.86 Q2279.59 1523.46 2276.99 1523.46 L2276.29 1523.46 L2276.29 1522.01 Q2278.54 1522.1 2283.04 1522.1 Q2284.86 1522.1 2286.43 1522.06 Q2288.02 1522.01 2288.28 1522.01 L2301.33 1522.01 L2302.66 1532.81 L2301.42 1532.81 Q2301.05 1529.88 2300.63 1528.36 Q2300.23 1526.81 2299.24 1525.57 Q2298.26 1524.33 2296.62 1523.91 Q2294.98 1523.46 2292.22 1523.46 L2288.12 1523.46 Q2286.57 1523.46 2286.03 1523.77 Q2285.5 1524.07 2285.5 1525.33 L2285.5 1550.94 Q2285.5 1552.41 2286.48 1552.79 Q2287.46 1553.16 2290.77 1553.16 L2291.63 1553.16 L2291.63 1554.64 Q2287.56 1554.5 2283.43 1554.5 L2283.13 1554.5 Q2280.13 1554.5 2276.29 1554.64 Z" fill="#000000" fill-rule="evenodd" fill-opacity="1" /><polyline clip-path="url(#clip493)" style="stroke:#000000; stroke-linecap:butt; stroke-linejoin:round; stroke-width:2; stroke-opacity:0.1; fill:none" points="
  175.445,1450.98 2352.76,1450.98 
  "/>
<polyline clip-path="url(#clip493)" style="stroke:#000000; stroke-linecap:butt; stroke-linejoin:round; stroke-width:2; stroke-opacity:0.1; fill:none" points="
  175.445,1118.91 2352.76,1118.91 
  "/>
<polyline clip-path="url(#clip493)" style="stroke:#000000; stroke-linecap:butt; stroke-linejoin:round; stroke-width:2; stroke-opacity:0.1; fill:none" points="
  175.445,786.835 2352.76,786.835 
  "/>
<polyline clip-path="url(#clip493)" style="stroke:#000000; stroke-linecap:butt; stroke-linejoin:round; stroke-width:2; stroke-opacity:0.1; fill:none" points="
  175.445,454.761 2352.76,454.761 
  "/>
<polyline clip-path="url(#clip493)" style="stroke:#000000; stroke-linecap:butt; stroke-linejoin:round; stroke-width:2; stroke-opacity:0.1; fill:none" points="
  175.445,122.687 2352.76,122.687 
  "/>
<polyline clip-path="url(#clip490)" style="stroke:#000000; stroke-linecap:butt; stroke-linejoin:round; stroke-width:4; stroke-opacity:1; fill:none" points="
  175.445,1486.45 175.445,47.2441 
  "/>
<polyline clip-path="url(#clip490)" style="stroke:#000000; stroke-linecap:butt; stroke-linejoin:round; stroke-width:4; stroke-opacity:1; fill:none" points="
  175.445,1450.98 194.343,1450.98 
  "/>
<polyline clip-path="url(#clip490)" style="stroke:#000000; stroke-linecap:butt; stroke-linejoin:round; stroke-width:4; stroke-opacity:1; fill:none" points="
  175.445,1118.91 194.343,1118.91 
  "/>
<polyline clip-path="url(#clip490)" style="stroke:#000000; stroke-linecap:butt; stroke-linejoin:round; stroke-width:4; stroke-opacity:1; fill:none" points="
  175.445,786.835 194.343,786.835 
  "/>
<polyline clip-path="url(#clip490)" style="stroke:#000000; stroke-linecap:butt; stroke-linejoin:round; stroke-width:4; stroke-opacity:1; fill:none" points="
  175.445,454.761 194.343,454.761 
  "/>
<polyline clip-path="url(#clip490)" style="stroke:#000000; stroke-linecap:butt; stroke-linejoin:round; stroke-width:4; stroke-opacity:1; fill:none" points="
  175.445,122.687 194.343,122.687 
  "/>
<path clip-path="url(#clip490)" d="M127.501 1436.78 Q123.89 1436.78 122.061 1440.35 Q120.255 1443.89 120.255 1451.02 Q120.255 1458.12 122.061 1461.69 Q123.89 1465.23 127.501 1465.23 Q131.135 1465.23 132.941 1461.69 Q134.769 1458.12 134.769 1451.02 Q134.769 1443.89 132.941 1440.35 Q131.135 1436.78 127.501 1436.78 M127.501 1433.08 Q133.311 1433.08 136.367 1437.68 Q139.445 1442.27 139.445 1451.02 Q139.445 1459.74 136.367 1464.35 Q133.311 1468.93 127.501 1468.93 Q121.691 1468.93 118.612 1464.35 Q115.556 1459.74 115.556 1451.02 Q115.556 1442.27 118.612 1437.68 Q121.691 1433.08 127.501 1433.08 Z" fill="#000000" fill-rule="evenodd" fill-opacity="1" /><path clip-path="url(#clip490)" d="M123.126 1132.25 L139.445 1132.25 L139.445 1136.19 L117.501 1136.19 L117.501 1132.25 Q120.163 1129.5 124.746 1124.87 Q129.353 1120.22 130.533 1118.87 Q132.779 1116.35 133.658 1114.61 Q134.561 1112.86 134.561 1111.17 Q134.561 1108.41 132.617 1106.67 Q130.695 1104.94 127.593 1104.94 Q125.394 1104.94 122.941 1105.7 Q120.51 1106.47 117.732 1108.02 L117.732 1103.29 Q120.556 1102.16 123.01 1101.58 Q125.464 1101 127.501 1101 Q132.871 1101 136.066 1103.69 Q139.26 1106.37 139.26 1110.86 Q139.26 1112.99 138.45 1114.92 Q137.663 1116.81 135.556 1119.41 Q134.978 1120.08 131.876 1123.29 Q128.774 1126.49 123.126 1132.25 Z" fill="#000000" fill-rule="evenodd" fill-opacity="1" /><path clip-path="url(#clip490)" d="M129.862 773.629 L118.056 792.078 L129.862 792.078 L129.862 773.629 M128.635 769.555 L134.515 769.555 L134.515 792.078 L139.445 792.078 L139.445 795.966 L134.515 795.966 L134.515 804.115 L129.862 804.115 L129.862 795.966 L114.26 795.966 L114.26 791.453 L128.635 769.555 Z" fill="#000000" fill-rule="evenodd" fill-opacity="1" /><path clip-path="url(#clip490)" d="M127.917 452.897 Q124.769 452.897 122.918 455.05 Q121.089 457.203 121.089 460.953 Q121.089 464.68 122.918 466.856 Q124.769 469.008 127.917 469.008 Q131.066 469.008 132.894 466.856 Q134.746 464.68 134.746 460.953 Q134.746 457.203 132.894 455.05 Q131.066 452.897 127.917 452.897 M137.2 438.245 L137.2 442.504 Q135.441 441.671 133.635 441.231 Q131.853 440.791 130.093 440.791 Q125.464 440.791 123.01 443.916 Q120.58 447.041 120.232 453.36 Q121.598 451.346 123.658 450.282 Q125.718 449.194 128.195 449.194 Q133.404 449.194 136.413 452.365 Q139.445 455.513 139.445 460.953 Q139.445 466.277 136.297 469.495 Q133.149 472.712 127.917 472.712 Q121.922 472.712 118.751 468.129 Q115.58 463.522 115.58 454.796 Q115.58 446.601 119.468 441.74 Q123.357 436.856 129.908 436.856 Q131.667 436.856 133.45 437.203 Q135.255 437.55 137.2 438.245 Z" fill="#000000" fill-rule="evenodd" fill-opacity="1" /><path clip-path="url(#clip490)" d="M127.593 123.555 Q124.26 123.555 122.339 125.338 Q120.441 127.12 120.441 130.245 Q120.441 133.37 122.339 135.152 Q124.26 136.935 127.593 136.935 Q130.927 136.935 132.848 135.152 Q134.769 133.347 134.769 130.245 Q134.769 127.12 132.848 125.338 Q130.95 123.555 127.593 123.555 M122.918 121.564 Q119.908 120.824 118.218 118.764 Q116.552 116.703 116.552 113.74 Q116.552 109.597 119.492 107.189 Q122.455 104.782 127.593 104.782 Q132.755 104.782 135.695 107.189 Q138.635 109.597 138.635 113.74 Q138.635 116.703 136.945 118.764 Q135.279 120.824 132.292 121.564 Q135.672 122.351 137.547 124.643 Q139.445 126.935 139.445 130.245 Q139.445 135.268 136.367 137.953 Q133.311 140.638 127.593 140.638 Q121.876 140.638 118.797 137.953 Q115.742 135.268 115.742 130.245 Q115.742 126.935 117.64 124.643 Q119.538 122.351 122.918 121.564 M121.205 114.18 Q121.205 116.865 122.871 118.37 Q124.561 119.875 127.593 119.875 Q130.603 119.875 132.292 118.37 Q134.005 116.865 134.005 114.18 Q134.005 111.495 132.292 109.99 Q130.603 108.486 127.593 108.486 Q124.561 108.486 122.871 109.99 Q121.205 111.495 121.205 114.18 Z" fill="#000000" fill-rule="evenodd" fill-opacity="1" /><path clip-path="url(#clip490)" d="M20.8447 994.42 Q20.8447 1001.42 26.0645 1005.56 Q31.2844 1009.67 40.2919 1009.67 Q49.2675 1009.67 54.4874 1005.56 Q59.7073 1001.42 59.7073 994.42 Q59.7073 987.418 54.4874 983.344 Q49.2675 979.238 40.2919 979.238 Q31.2844 979.238 26.0645 983.344 Q20.8447 987.418 20.8447 994.42 M63.1448 985.413 L72.4069 976.946 L72.4069 984.712 L64.7999 991.746 Q64.8635 992.797 64.8954 993.37 Q64.9272 993.911 64.9272 994.42 Q64.9272 1004.45 58.2432 1010.46 Q51.5274 1016.45 40.2919 1016.45 Q29.0246 1016.45 22.3406 1010.46 Q15.6248 1004.45 15.6248 994.42 Q15.6248 984.426 22.3406 978.442 Q29.0246 972.458 40.2919 972.458 Q48.5673 972.458 54.4556 975.8 Q60.3439 979.11 63.1448 985.413 Z" fill="#000000" fill-rule="evenodd" fill-opacity="1" /><path clip-path="url(#clip490)" d="M49.9359 963.26 L28.3562 963.26 L28.3562 957.403 L49.7131 957.403 Q54.7739 957.403 57.3202 955.43 Q59.8346 953.457 59.8346 949.51 Q59.8346 944.767 56.8109 942.03 Q53.7872 939.261 48.5673 939.261 L28.3562 939.261 L28.3562 933.405 L64.0042 933.405 L64.0042 939.261 L58.5296 939.261 Q61.7762 941.394 63.3676 944.226 Q64.9272 947.027 64.9272 950.751 Q64.9272 956.894 61.1078 960.077 Q57.2883 963.26 49.9359 963.26 M27.4968 948.523 L27.4968 948.523 Z" fill="#000000" fill-rule="evenodd" fill-opacity="1" /><path clip-path="url(#clip490)" d="M46.0847 905.141 Q46.0847 912.239 47.7079 914.976 Q49.3312 917.713 53.2461 917.713 Q56.3653 917.713 58.2114 915.676 Q60.0256 913.607 60.0256 910.074 Q60.0256 905.205 56.5881 902.276 Q53.1188 899.316 47.3897 899.316 L46.0847 899.316 L46.0847 905.141 M43.6657 893.46 L64.0042 893.46 L64.0042 899.316 L58.5933 899.316 Q61.8398 901.322 63.3994 904.313 Q64.9272 907.305 64.9272 911.634 Q64.9272 917.108 61.8716 920.355 Q58.7843 923.57 53.6281 923.57 Q47.6125 923.57 44.5569 919.559 Q41.5014 915.517 41.5014 907.528 L41.5014 899.316 L40.9285 899.316 Q36.8862 899.316 34.6901 901.99 Q32.4621 904.632 32.4621 909.438 Q32.4621 912.493 33.1941 915.39 Q33.9262 918.286 35.3903 920.96 L29.9795 920.96 Q28.7381 917.745 28.1334 914.721 Q27.4968 911.698 27.4968 908.833 Q27.4968 901.099 31.5072 897.279 Q35.5176 893.46 43.6657 893.46 Z" fill="#000000" fill-rule="evenodd" fill-opacity="1" /><path clip-path="url(#clip490)" d="M42.4881 851.765 L64.0042 851.765 L64.0042 857.621 L42.679 857.621 Q37.6183 857.621 35.1038 859.594 Q32.5894 861.568 32.5894 865.514 Q32.5894 870.257 35.6131 872.994 Q38.6368 875.731 43.8567 875.731 L64.0042 875.731 L64.0042 881.62 L28.3562 881.62 L28.3562 875.731 L33.8944 875.731 Q30.6797 873.631 29.0883 870.798 Q27.4968 867.933 27.4968 864.209 Q27.4968 858.067 31.3163 854.916 Q35.1038 851.765 42.4881 851.765 Z" fill="#000000" fill-rule="evenodd" fill-opacity="1" /><path clip-path="url(#clip490)" d="M18.2347 834.291 L28.3562 834.291 L28.3562 822.228 L32.9077 822.228 L32.9077 834.291 L52.2594 834.291 Q56.6199 834.291 57.8613 833.113 Q59.1026 831.904 59.1026 828.243 L59.1026 822.228 L64.0042 822.228 L64.0042 828.243 Q64.0042 835.023 61.4897 837.601 Q58.9434 840.179 52.2594 840.179 L32.9077 840.179 L32.9077 844.476 L28.3562 844.476 L28.3562 840.179 L18.2347 840.179 L18.2347 834.291 Z" fill="#000000" fill-rule="evenodd" fill-opacity="1" /><path clip-path="url(#clip490)" d="M49.9359 815.13 L28.3562 815.13 L28.3562 809.273 L49.7131 809.273 Q54.7739 809.273 57.3202 807.3 Q59.8346 805.327 59.8346 801.38 Q59.8346 796.637 56.8109 793.9 Q53.7872 791.131 48.5673 791.131 L28.3562 791.131 L28.3562 785.275 L64.0042 785.275 L64.0042 791.131 L58.5296 791.131 Q61.7762 793.264 63.3676 796.096 Q64.9272 798.897 64.9272 802.621 Q64.9272 808.764 61.1078 811.947 Q57.2883 815.13 49.9359 815.13 M27.4968 800.393 L27.4968 800.393 Z" fill="#000000" fill-rule="evenodd" fill-opacity="1" /><path clip-path="url(#clip490)" d="M35.1993 745.457 Q31.2526 743.261 29.3747 740.206 Q27.4968 737.15 27.4968 733.012 Q27.4968 727.442 31.4117 724.419 Q35.2948 721.395 42.4881 721.395 L64.0042 721.395 L64.0042 727.283 L42.679 727.283 Q37.5546 727.283 35.072 729.097 Q32.5894 730.912 32.5894 734.636 Q32.5894 739.187 35.6131 741.829 Q38.6368 744.471 43.8567 744.471 L64.0042 744.471 L64.0042 750.359 L42.679 750.359 Q37.5228 750.359 35.072 752.173 Q32.5894 753.987 32.5894 757.775 Q32.5894 762.263 35.6449 764.904 Q38.6686 767.546 43.8567 767.546 L64.0042 767.546 L64.0042 773.434 L28.3562 773.434 L28.3562 767.546 L33.8944 767.546 Q30.616 765.541 29.0564 762.74 Q27.4968 759.939 27.4968 756.088 Q27.4968 752.205 29.4702 749.499 Q31.4436 746.762 35.1993 745.457 Z" fill="#000000" fill-rule="evenodd" fill-opacity="1" /><path clip-path="url(#clip490)" d="M16.4842 709.459 L16.4842 699.879 L48.8219 687.752 L16.4842 675.562 L16.4842 665.981 L64.0042 665.981 L64.0042 672.252 L22.277 672.252 L54.8694 684.506 L54.8694 690.967 L22.277 703.221 L64.0042 703.221 L64.0042 709.459 L16.4842 709.459 Z" fill="#000000" fill-rule="evenodd" fill-opacity="1" /><path clip-path="url(#clip490)" d="M44.7161 622.981 L47.5806 622.981 L47.5806 649.908 Q53.6281 649.526 56.8109 646.28 Q59.9619 643.001 59.9619 637.177 Q59.9619 633.803 59.1344 630.652 Q58.3069 627.469 56.6518 624.35 L62.1899 624.35 Q63.5267 627.501 64.227 630.811 Q64.9272 634.121 64.9272 637.527 Q64.9272 646.057 59.9619 651.054 Q54.9967 656.019 46.5303 656.019 Q37.7774 656.019 32.6531 651.308 Q27.4968 646.566 27.4968 638.545 Q27.4968 631.352 32.1438 627.182 Q36.7589 622.981 44.7161 622.981 M42.9973 628.837 Q38.1912 628.901 35.3266 631.543 Q32.4621 634.153 32.4621 638.482 Q32.4621 643.383 35.2312 646.343 Q38.0002 649.271 43.0292 649.717 L42.9973 628.837 Z" fill="#000000" fill-rule="evenodd" fill-opacity="1" /><path clip-path="url(#clip490)" d="M18.2347 607.576 L28.3562 607.576 L28.3562 595.513 L32.9077 595.513 L32.9077 607.576 L52.2594 607.576 Q56.6199 607.576 57.8613 606.398 Q59.1026 605.189 59.1026 601.529 L59.1026 595.513 L64.0042 595.513 L64.0042 601.529 Q64.0042 608.308 61.4897 610.886 Q58.9434 613.464 52.2594 613.464 L32.9077 613.464 L32.9077 617.761 L28.3562 617.761 L28.3562 613.464 L18.2347 613.464 L18.2347 607.576 Z" fill="#000000" fill-rule="evenodd" fill-opacity="1" /><path clip-path="url(#clip490)" d="M33.8307 567.154 Q33.2578 568.14 33.0032 569.318 Q32.7167 570.464 32.7167 571.864 Q32.7167 576.83 35.9632 579.503 Q39.1779 582.145 45.2253 582.145 L64.0042 582.145 L64.0042 588.033 L28.3562 588.033 L28.3562 582.145 L33.8944 582.145 Q30.6479 580.299 29.0883 577.339 Q27.4968 574.379 27.4968 570.146 Q27.4968 569.541 27.5923 568.809 Q27.656 568.077 27.8151 567.186 L33.8307 567.154 Z" fill="#000000" fill-rule="evenodd" fill-opacity="1" /><path clip-path="url(#clip490)" d="M28.3562 561.011 L28.3562 555.154 L64.0042 555.154 L64.0042 561.011 L28.3562 561.011 M14.479 561.011 L14.479 555.154 L21.895 555.154 L21.895 561.011 L14.479 561.011 Z" fill="#000000" fill-rule="evenodd" fill-opacity="1" /><path clip-path="url(#clip490)" d="M29.7248 517.247 L35.1993 517.247 Q33.8307 519.729 33.1623 522.244 Q32.4621 524.726 32.4621 527.273 Q32.4621 532.97 36.0905 536.121 Q39.6872 539.272 46.212 539.272 Q52.7369 539.272 56.3653 536.121 Q59.9619 532.97 59.9619 527.273 Q59.9619 524.726 59.2935 522.244 Q58.5933 519.729 57.2247 517.247 L62.6355 517.247 Q63.7814 519.697 64.3543 522.339 Q64.9272 524.949 64.9272 527.909 Q64.9272 535.962 59.8664 540.704 Q54.8057 545.447 46.212 545.447 Q37.491 545.447 32.4939 540.672 Q27.4968 535.866 27.4968 527.527 Q27.4968 524.822 28.0697 522.244 Q28.6108 519.666 29.7248 517.247 Z" fill="#000000" fill-rule="evenodd" fill-opacity="1" /><circle clip-path="url(#clip493)" cx="237.067" cy="1445.26" r="14" fill="#009af9" fill-rule="evenodd" fill-opacity="1" stroke="#000000" stroke-opacity="1" stroke-width="3.2"/>
<circle clip-path="url(#clip493)" cx="250.853" cy="1445.26" r="14" fill="#009af9" fill-rule="evenodd" fill-opacity="1" stroke="#000000" stroke-opacity="1" stroke-width="3.2"/>
<circle clip-path="url(#clip493)" cx="264.639" cy="1445.27" r="14" fill="#009af9" fill-rule="evenodd" fill-opacity="1" stroke="#000000" stroke-opacity="1" stroke-width="3.2"/>
<circle clip-path="url(#clip493)" cx="278.424" cy="1445.28" r="14" fill="#009af9" fill-rule="evenodd" fill-opacity="1" stroke="#000000" stroke-opacity="1" stroke-width="3.2"/>
<circle clip-path="url(#clip493)" cx="292.21" cy="1445.29" r="14" fill="#009af9" fill-rule="evenodd" fill-opacity="1" stroke="#000000" stroke-opacity="1" stroke-width="3.2"/>
<circle clip-path="url(#clip493)" cx="305.996" cy="1445.31" r="14" fill="#009af9" fill-rule="evenodd" fill-opacity="1" stroke="#000000" stroke-opacity="1" stroke-width="3.2"/>
<circle clip-path="url(#clip493)" cx="319.781" cy="1445.33" r="14" fill="#009af9" fill-rule="evenodd" fill-opacity="1" stroke="#000000" stroke-opacity="1" stroke-width="3.2"/>
<circle clip-path="url(#clip493)" cx="333.567" cy="1445.35" r="14" fill="#009af9" fill-rule="evenodd" fill-opacity="1" stroke="#000000" stroke-opacity="1" stroke-width="3.2"/>
<circle clip-path="url(#clip493)" cx="347.353" cy="1445.37" r="14" fill="#009af9" fill-rule="evenodd" fill-opacity="1" stroke="#000000" stroke-opacity="1" stroke-width="3.2"/>
<circle clip-path="url(#clip493)" cx="361.138" cy="1445.4" r="14" fill="#009af9" fill-rule="evenodd" fill-opacity="1" stroke="#000000" stroke-opacity="1" stroke-width="3.2"/>
<circle clip-path="url(#clip493)" cx="374.924" cy="1445.43" r="14" fill="#009af9" fill-rule="evenodd" fill-opacity="1" stroke="#000000" stroke-opacity="1" stroke-width="3.2"/>
<circle clip-path="url(#clip493)" cx="388.71" cy="1445.46" r="14" fill="#009af9" fill-rule="evenodd" fill-opacity="1" stroke="#000000" stroke-opacity="1" stroke-width="3.2"/>
<circle clip-path="url(#clip493)" cx="402.495" cy="1445.49" r="14" fill="#009af9" fill-rule="evenodd" fill-opacity="1" stroke="#000000" stroke-opacity="1" stroke-width="3.2"/>
<circle clip-path="url(#clip493)" cx="416.281" cy="1445.52" r="14" fill="#009af9" fill-rule="evenodd" fill-opacity="1" stroke="#000000" stroke-opacity="1" stroke-width="3.2"/>
<circle clip-path="url(#clip493)" cx="430.067" cy="1445.55" r="14" fill="#009af9" fill-rule="evenodd" fill-opacity="1" stroke="#000000" stroke-opacity="1" stroke-width="3.2"/>
<circle clip-path="url(#clip493)" cx="443.852" cy="1445.58" r="14" fill="#009af9" fill-rule="evenodd" fill-opacity="1" stroke="#000000" stroke-opacity="1" stroke-width="3.2"/>
<circle clip-path="url(#clip493)" cx="457.638" cy="1445.61" r="14" fill="#009af9" fill-rule="evenodd" fill-opacity="1" stroke="#000000" stroke-opacity="1" stroke-width="3.2"/>
<circle clip-path="url(#clip493)" cx="471.424" cy="1445.64" r="14" fill="#009af9" fill-rule="evenodd" fill-opacity="1" stroke="#000000" stroke-opacity="1" stroke-width="3.2"/>
<circle clip-path="url(#clip493)" cx="485.209" cy="1445.66" r="14" fill="#009af9" fill-rule="evenodd" fill-opacity="1" stroke="#000000" stroke-opacity="1" stroke-width="3.2"/>
<circle clip-path="url(#clip493)" cx="498.995" cy="1445.68" r="14" fill="#009af9" fill-rule="evenodd" fill-opacity="1" stroke="#000000" stroke-opacity="1" stroke-width="3.2"/>
<circle clip-path="url(#clip493)" cx="512.781" cy="1445.69" r="14" fill="#009af9" fill-rule="evenodd" fill-opacity="1" stroke="#000000" stroke-opacity="1" stroke-width="3.2"/>
<circle clip-path="url(#clip493)" cx="526.567" cy="1445.69" r="14" fill="#009af9" fill-rule="evenodd" fill-opacity="1" stroke="#000000" stroke-opacity="1" stroke-width="3.2"/>
<circle clip-path="url(#clip493)" cx="540.352" cy="1445.68" r="14" fill="#009af9" fill-rule="evenodd" fill-opacity="1" stroke="#000000" stroke-opacity="1" stroke-width="3.2"/>
<circle clip-path="url(#clip493)" cx="554.138" cy="1445.65" r="14" fill="#009af9" fill-rule="evenodd" fill-opacity="1" stroke="#000000" stroke-opacity="1" stroke-width="3.2"/>
<circle clip-path="url(#clip493)" cx="567.924" cy="1445.6" r="14" fill="#009af9" fill-rule="evenodd" fill-opacity="1" stroke="#000000" stroke-opacity="1" stroke-width="3.2"/>
<circle clip-path="url(#clip493)" cx="581.709" cy="1445.53" r="14" fill="#009af9" fill-rule="evenodd" fill-opacity="1" stroke="#000000" stroke-opacity="1" stroke-width="3.2"/>
<circle clip-path="url(#clip493)" cx="595.495" cy="1445.44" r="14" fill="#009af9" fill-rule="evenodd" fill-opacity="1" stroke="#000000" stroke-opacity="1" stroke-width="3.2"/>
<circle clip-path="url(#clip493)" cx="609.281" cy="1445.3" r="14" fill="#009af9" fill-rule="evenodd" fill-opacity="1" stroke="#000000" stroke-opacity="1" stroke-width="3.2"/>
<circle clip-path="url(#clip493)" cx="623.066" cy="1445.13" r="14" fill="#009af9" fill-rule="evenodd" fill-opacity="1" stroke="#000000" stroke-opacity="1" stroke-width="3.2"/>
<circle clip-path="url(#clip493)" cx="636.852" cy="1444.9" r="14" fill="#009af9" fill-rule="evenodd" fill-opacity="1" stroke="#000000" stroke-opacity="1" stroke-width="3.2"/>
<circle clip-path="url(#clip493)" cx="650.638" cy="1444.61" r="14" fill="#009af9" fill-rule="evenodd" fill-opacity="1" stroke="#000000" stroke-opacity="1" stroke-width="3.2"/>
<circle clip-path="url(#clip493)" cx="664.423" cy="1444.25" r="14" fill="#009af9" fill-rule="evenodd" fill-opacity="1" stroke="#000000" stroke-opacity="1" stroke-width="3.2"/>
<circle clip-path="url(#clip493)" cx="678.209" cy="1443.81" r="14" fill="#009af9" fill-rule="evenodd" fill-opacity="1" stroke="#000000" stroke-opacity="1" stroke-width="3.2"/>
<circle clip-path="url(#clip493)" cx="691.995" cy="1443.28" r="14" fill="#009af9" fill-rule="evenodd" fill-opacity="1" stroke="#000000" stroke-opacity="1" stroke-width="3.2"/>
<circle clip-path="url(#clip493)" cx="705.78" cy="1442.63" r="14" fill="#009af9" fill-rule="evenodd" fill-opacity="1" stroke="#000000" stroke-opacity="1" stroke-width="3.2"/>
<circle clip-path="url(#clip493)" cx="719.566" cy="1441.86" r="14" fill="#009af9" fill-rule="evenodd" fill-opacity="1" stroke="#000000" stroke-opacity="1" stroke-width="3.2"/>
<circle clip-path="url(#clip493)" cx="733.352" cy="1440.96" r="14" fill="#009af9" fill-rule="evenodd" fill-opacity="1" stroke="#000000" stroke-opacity="1" stroke-width="3.2"/>
<circle clip-path="url(#clip493)" cx="747.137" cy="1439.92" r="14" fill="#009af9" fill-rule="evenodd" fill-opacity="1" stroke="#000000" stroke-opacity="1" stroke-width="3.2"/>
<circle clip-path="url(#clip493)" cx="760.923" cy="1438.73" r="14" fill="#009af9" fill-rule="evenodd" fill-opacity="1" stroke="#000000" stroke-opacity="1" stroke-width="3.2"/>
<circle clip-path="url(#clip493)" cx="774.709" cy="1437.4" r="14" fill="#009af9" fill-rule="evenodd" fill-opacity="1" stroke="#000000" stroke-opacity="1" stroke-width="3.2"/>
<circle clip-path="url(#clip493)" cx="788.495" cy="1435.93" r="14" fill="#009af9" fill-rule="evenodd" fill-opacity="1" stroke="#000000" stroke-opacity="1" stroke-width="3.2"/>
<circle clip-path="url(#clip493)" cx="802.28" cy="1434.35" r="14" fill="#009af9" fill-rule="evenodd" fill-opacity="1" stroke="#000000" stroke-opacity="1" stroke-width="3.2"/>
<circle clip-path="url(#clip493)" cx="816.066" cy="1432.7" r="14" fill="#009af9" fill-rule="evenodd" fill-opacity="1" stroke="#000000" stroke-opacity="1" stroke-width="3.2"/>
<circle clip-path="url(#clip493)" cx="829.852" cy="1431.03" r="14" fill="#009af9" fill-rule="evenodd" fill-opacity="1" stroke="#000000" stroke-opacity="1" stroke-width="3.2"/>
<circle clip-path="url(#clip493)" cx="843.637" cy="1429.42" r="14" fill="#009af9" fill-rule="evenodd" fill-opacity="1" stroke="#000000" stroke-opacity="1" stroke-width="3.2"/>
<circle clip-path="url(#clip493)" cx="857.423" cy="1427.93" r="14" fill="#009af9" fill-rule="evenodd" fill-opacity="1" stroke="#000000" stroke-opacity="1" stroke-width="3.2"/>
<circle clip-path="url(#clip493)" cx="871.209" cy="1426.65" r="14" fill="#009af9" fill-rule="evenodd" fill-opacity="1" stroke="#000000" stroke-opacity="1" stroke-width="3.2"/>
<circle clip-path="url(#clip493)" cx="884.994" cy="1425.67" r="14" fill="#009af9" fill-rule="evenodd" fill-opacity="1" stroke="#000000" stroke-opacity="1" stroke-width="3.2"/>
<circle clip-path="url(#clip493)" cx="898.78" cy="1425.05" r="14" fill="#009af9" fill-rule="evenodd" fill-opacity="1" stroke="#000000" stroke-opacity="1" stroke-width="3.2"/>
<circle clip-path="url(#clip493)" cx="912.566" cy="1424.84" r="14" fill="#009af9" fill-rule="evenodd" fill-opacity="1" stroke="#000000" stroke-opacity="1" stroke-width="3.2"/>
<circle clip-path="url(#clip493)" cx="926.351" cy="1424.82" r="14" fill="#009af9" fill-rule="evenodd" fill-opacity="1" stroke="#000000" stroke-opacity="1" stroke-width="3.2"/>
<circle clip-path="url(#clip493)" cx="940.137" cy="1424.77" r="14" fill="#009af9" fill-rule="evenodd" fill-opacity="1" stroke="#000000" stroke-opacity="1" stroke-width="3.2"/>
<circle clip-path="url(#clip493)" cx="953.923" cy="1424.69" r="14" fill="#009af9" fill-rule="evenodd" fill-opacity="1" stroke="#000000" stroke-opacity="1" stroke-width="3.2"/>
<circle clip-path="url(#clip493)" cx="967.708" cy="1424.57" r="14" fill="#009af9" fill-rule="evenodd" fill-opacity="1" stroke="#000000" stroke-opacity="1" stroke-width="3.2"/>
<circle clip-path="url(#clip493)" cx="981.494" cy="1424.41" r="14" fill="#009af9" fill-rule="evenodd" fill-opacity="1" stroke="#000000" stroke-opacity="1" stroke-width="3.2"/>
<circle clip-path="url(#clip493)" cx="995.28" cy="1424.22" r="14" fill="#009af9" fill-rule="evenodd" fill-opacity="1" stroke="#000000" stroke-opacity="1" stroke-width="3.2"/>
<circle clip-path="url(#clip493)" cx="1009.07" cy="1423.99" r="14" fill="#009af9" fill-rule="evenodd" fill-opacity="1" stroke="#000000" stroke-opacity="1" stroke-width="3.2"/>
<circle clip-path="url(#clip493)" cx="1022.85" cy="1423.72" r="14" fill="#009af9" fill-rule="evenodd" fill-opacity="1" stroke="#000000" stroke-opacity="1" stroke-width="3.2"/>
<circle clip-path="url(#clip493)" cx="1036.64" cy="1423.41" r="14" fill="#009af9" fill-rule="evenodd" fill-opacity="1" stroke="#000000" stroke-opacity="1" stroke-width="3.2"/>
<circle clip-path="url(#clip493)" cx="1050.42" cy="1423.05" r="14" fill="#009af9" fill-rule="evenodd" fill-opacity="1" stroke="#000000" stroke-opacity="1" stroke-width="3.2"/>
<circle clip-path="url(#clip493)" cx="1064.21" cy="1422.64" r="14" fill="#009af9" fill-rule="evenodd" fill-opacity="1" stroke="#000000" stroke-opacity="1" stroke-width="3.2"/>
<circle clip-path="url(#clip493)" cx="1077.99" cy="1422.18" r="14" fill="#009af9" fill-rule="evenodd" fill-opacity="1" stroke="#000000" stroke-opacity="1" stroke-width="3.2"/>
<circle clip-path="url(#clip493)" cx="1091.78" cy="1421.66" r="14" fill="#009af9" fill-rule="evenodd" fill-opacity="1" stroke="#000000" stroke-opacity="1" stroke-width="3.2"/>
<circle clip-path="url(#clip493)" cx="1105.57" cy="1421.08" r="14" fill="#009af9" fill-rule="evenodd" fill-opacity="1" stroke="#000000" stroke-opacity="1" stroke-width="3.2"/>
<circle clip-path="url(#clip493)" cx="1119.35" cy="1420.43" r="14" fill="#009af9" fill-rule="evenodd" fill-opacity="1" stroke="#000000" stroke-opacity="1" stroke-width="3.2"/>
<circle clip-path="url(#clip493)" cx="1133.14" cy="1419.71" r="14" fill="#009af9" fill-rule="evenodd" fill-opacity="1" stroke="#000000" stroke-opacity="1" stroke-width="3.2"/>
<circle clip-path="url(#clip493)" cx="1146.92" cy="1418.9" r="14" fill="#009af9" fill-rule="evenodd" fill-opacity="1" stroke="#000000" stroke-opacity="1" stroke-width="3.2"/>
<circle clip-path="url(#clip493)" cx="1160.71" cy="1418" r="14" fill="#009af9" fill-rule="evenodd" fill-opacity="1" stroke="#000000" stroke-opacity="1" stroke-width="3.2"/>
<circle clip-path="url(#clip493)" cx="1174.49" cy="1416.99" r="14" fill="#009af9" fill-rule="evenodd" fill-opacity="1" stroke="#000000" stroke-opacity="1" stroke-width="3.2"/>
<circle clip-path="url(#clip493)" cx="1188.28" cy="1415.86" r="14" fill="#009af9" fill-rule="evenodd" fill-opacity="1" stroke="#000000" stroke-opacity="1" stroke-width="3.2"/>
<circle clip-path="url(#clip493)" cx="1202.06" cy="1414.6" r="14" fill="#009af9" fill-rule="evenodd" fill-opacity="1" stroke="#000000" stroke-opacity="1" stroke-width="3.2"/>
<circle clip-path="url(#clip493)" cx="1215.85" cy="1413.18" r="14" fill="#009af9" fill-rule="evenodd" fill-opacity="1" stroke="#000000" stroke-opacity="1" stroke-width="3.2"/>
<circle clip-path="url(#clip493)" cx="1229.64" cy="1411.59" r="14" fill="#009af9" fill-rule="evenodd" fill-opacity="1" stroke="#000000" stroke-opacity="1" stroke-width="3.2"/>
<circle clip-path="url(#clip493)" cx="1243.42" cy="1409.8" r="14" fill="#009af9" fill-rule="evenodd" fill-opacity="1" stroke="#000000" stroke-opacity="1" stroke-width="3.2"/>
<circle clip-path="url(#clip493)" cx="1257.21" cy="1407.78" r="14" fill="#009af9" fill-rule="evenodd" fill-opacity="1" stroke="#000000" stroke-opacity="1" stroke-width="3.2"/>
<circle clip-path="url(#clip493)" cx="1270.99" cy="1405.48" r="14" fill="#009af9" fill-rule="evenodd" fill-opacity="1" stroke="#000000" stroke-opacity="1" stroke-width="3.2"/>
<circle clip-path="url(#clip493)" cx="1284.78" cy="1402.86" r="14" fill="#009af9" fill-rule="evenodd" fill-opacity="1" stroke="#000000" stroke-opacity="1" stroke-width="3.2"/>
<circle clip-path="url(#clip493)" cx="1298.56" cy="1399.86" r="14" fill="#009af9" fill-rule="evenodd" fill-opacity="1" stroke="#000000" stroke-opacity="1" stroke-width="3.2"/>
<circle clip-path="url(#clip493)" cx="1312.35" cy="1396.41" r="14" fill="#009af9" fill-rule="evenodd" fill-opacity="1" stroke="#000000" stroke-opacity="1" stroke-width="3.2"/>
<circle clip-path="url(#clip493)" cx="1326.14" cy="1392.42" r="14" fill="#009af9" fill-rule="evenodd" fill-opacity="1" stroke="#000000" stroke-opacity="1" stroke-width="3.2"/>
<circle clip-path="url(#clip493)" cx="1339.92" cy="1387.77" r="14" fill="#009af9" fill-rule="evenodd" fill-opacity="1" stroke="#000000" stroke-opacity="1" stroke-width="3.2"/>
<circle clip-path="url(#clip493)" cx="1353.71" cy="1382.32" r="14" fill="#009af9" fill-rule="evenodd" fill-opacity="1" stroke="#000000" stroke-opacity="1" stroke-width="3.2"/>
<circle clip-path="url(#clip493)" cx="1367.49" cy="1375.87" r="14" fill="#009af9" fill-rule="evenodd" fill-opacity="1" stroke="#000000" stroke-opacity="1" stroke-width="3.2"/>
<circle clip-path="url(#clip493)" cx="1381.28" cy="1368.19" r="14" fill="#009af9" fill-rule="evenodd" fill-opacity="1" stroke="#000000" stroke-opacity="1" stroke-width="3.2"/>
<circle clip-path="url(#clip493)" cx="1395.06" cy="1358.93" r="14" fill="#009af9" fill-rule="evenodd" fill-opacity="1" stroke="#000000" stroke-opacity="1" stroke-width="3.2"/>
<circle clip-path="url(#clip493)" cx="1408.85" cy="1347.67" r="14" fill="#009af9" fill-rule="evenodd" fill-opacity="1" stroke="#000000" stroke-opacity="1" stroke-width="3.2"/>
<circle clip-path="url(#clip493)" cx="1422.64" cy="1333.78" r="14" fill="#009af9" fill-rule="evenodd" fill-opacity="1" stroke="#000000" stroke-opacity="1" stroke-width="3.2"/>
<circle clip-path="url(#clip493)" cx="1436.42" cy="1316.41" r="14" fill="#009af9" fill-rule="evenodd" fill-opacity="1" stroke="#000000" stroke-opacity="1" stroke-width="3.2"/>
<circle clip-path="url(#clip493)" cx="1450.21" cy="1294.37" r="14" fill="#009af9" fill-rule="evenodd" fill-opacity="1" stroke="#000000" stroke-opacity="1" stroke-width="3.2"/>
<circle clip-path="url(#clip493)" cx="1463.99" cy="1265.88" r="14" fill="#009af9" fill-rule="evenodd" fill-opacity="1" stroke="#000000" stroke-opacity="1" stroke-width="3.2"/>
<circle clip-path="url(#clip493)" cx="1477.78" cy="1228.39" r="14" fill="#009af9" fill-rule="evenodd" fill-opacity="1" stroke="#000000" stroke-opacity="1" stroke-width="3.2"/>
<circle clip-path="url(#clip493)" cx="1491.56" cy="1178.73" r="14" fill="#009af9" fill-rule="evenodd" fill-opacity="1" stroke="#000000" stroke-opacity="1" stroke-width="3.2"/>
<circle clip-path="url(#clip493)" cx="1505.35" cy="1114.87" r="14" fill="#009af9" fill-rule="evenodd" fill-opacity="1" stroke="#000000" stroke-opacity="1" stroke-width="3.2"/>
<circle clip-path="url(#clip493)" cx="1519.14" cy="1032.4" r="14" fill="#009af9" fill-rule="evenodd" fill-opacity="1" stroke="#000000" stroke-opacity="1" stroke-width="3.2"/>
<circle clip-path="url(#clip493)" cx="1532.92" cy="921.744" r="14" fill="#009af9" fill-rule="evenodd" fill-opacity="1" stroke="#000000" stroke-opacity="1" stroke-width="3.2"/>
<circle clip-path="url(#clip493)" cx="1546.71" cy="773.659" r="14" fill="#009af9" fill-rule="evenodd" fill-opacity="1" stroke="#000000" stroke-opacity="1" stroke-width="3.2"/>
<circle clip-path="url(#clip493)" cx="1560.49" cy="582.991" r="14" fill="#009af9" fill-rule="evenodd" fill-opacity="1" stroke="#000000" stroke-opacity="1" stroke-width="3.2"/>
<circle clip-path="url(#clip493)" cx="1574.28" cy="363.188" r="14" fill="#009af9" fill-rule="evenodd" fill-opacity="1" stroke="#000000" stroke-opacity="1" stroke-width="3.2"/>
<circle clip-path="url(#clip493)" cx="1588.06" cy="168.776" r="14" fill="#009af9" fill-rule="evenodd" fill-opacity="1" stroke="#000000" stroke-opacity="1" stroke-width="3.2"/>
<circle clip-path="url(#clip493)" cx="1601.85" cy="87.9763" r="14" fill="#009af9" fill-rule="evenodd" fill-opacity="1" stroke="#000000" stroke-opacity="1" stroke-width="3.2"/>
<circle clip-path="url(#clip493)" cx="1615.64" cy="241.107" r="14" fill="#009af9" fill-rule="evenodd" fill-opacity="1" stroke="#000000" stroke-opacity="1" stroke-width="3.2"/>
<circle clip-path="url(#clip493)" cx="1629.42" cy="550.058" r="14" fill="#009af9" fill-rule="evenodd" fill-opacity="1" stroke="#000000" stroke-opacity="1" stroke-width="3.2"/>
<circle clip-path="url(#clip493)" cx="1643.21" cy="823.108" r="14" fill="#009af9" fill-rule="evenodd" fill-opacity="1" stroke="#000000" stroke-opacity="1" stroke-width="3.2"/>
<circle clip-path="url(#clip493)" cx="1656.99" cy="1014.19" r="14" fill="#009af9" fill-rule="evenodd" fill-opacity="1" stroke="#000000" stroke-opacity="1" stroke-width="3.2"/>
<circle clip-path="url(#clip493)" cx="1670.78" cy="1141.64" r="14" fill="#009af9" fill-rule="evenodd" fill-opacity="1" stroke="#000000" stroke-opacity="1" stroke-width="3.2"/>
<circle clip-path="url(#clip493)" cx="1684.56" cy="1230.63" r="14" fill="#009af9" fill-rule="evenodd" fill-opacity="1" stroke="#000000" stroke-opacity="1" stroke-width="3.2"/>
<circle clip-path="url(#clip493)" cx="1698.35" cy="1290.81" r="14" fill="#009af9" fill-rule="evenodd" fill-opacity="1" stroke="#000000" stroke-opacity="1" stroke-width="3.2"/>
<circle clip-path="url(#clip493)" cx="1712.14" cy="1331.38" r="14" fill="#009af9" fill-rule="evenodd" fill-opacity="1" stroke="#000000" stroke-opacity="1" stroke-width="3.2"/>
<circle clip-path="url(#clip493)" cx="1725.92" cy="1359.65" r="14" fill="#009af9" fill-rule="evenodd" fill-opacity="1" stroke="#000000" stroke-opacity="1" stroke-width="3.2"/>
<circle clip-path="url(#clip493)" cx="1739.71" cy="1379.97" r="14" fill="#009af9" fill-rule="evenodd" fill-opacity="1" stroke="#000000" stroke-opacity="1" stroke-width="3.2"/>
<circle clip-path="url(#clip493)" cx="1753.49" cy="1394.92" r="14" fill="#009af9" fill-rule="evenodd" fill-opacity="1" stroke="#000000" stroke-opacity="1" stroke-width="3.2"/>
<circle clip-path="url(#clip493)" cx="1767.28" cy="1406.14" r="14" fill="#009af9" fill-rule="evenodd" fill-opacity="1" stroke="#000000" stroke-opacity="1" stroke-width="3.2"/>
<circle clip-path="url(#clip493)" cx="1781.06" cy="1414.7" r="14" fill="#009af9" fill-rule="evenodd" fill-opacity="1" stroke="#000000" stroke-opacity="1" stroke-width="3.2"/>
<circle clip-path="url(#clip493)" cx="1794.85" cy="1421.32" r="14" fill="#009af9" fill-rule="evenodd" fill-opacity="1" stroke="#000000" stroke-opacity="1" stroke-width="3.2"/>
<circle clip-path="url(#clip493)" cx="1808.64" cy="1426.49" r="14" fill="#009af9" fill-rule="evenodd" fill-opacity="1" stroke="#000000" stroke-opacity="1" stroke-width="3.2"/>
<circle clip-path="url(#clip493)" cx="1822.42" cy="1430.56" r="14" fill="#009af9" fill-rule="evenodd" fill-opacity="1" stroke="#000000" stroke-opacity="1" stroke-width="3.2"/>
<circle clip-path="url(#clip493)" cx="1836.21" cy="1433.78" r="14" fill="#009af9" fill-rule="evenodd" fill-opacity="1" stroke="#000000" stroke-opacity="1" stroke-width="3.2"/>
<circle clip-path="url(#clip493)" cx="1849.99" cy="1436.34" r="14" fill="#009af9" fill-rule="evenodd" fill-opacity="1" stroke="#000000" stroke-opacity="1" stroke-width="3.2"/>
<circle clip-path="url(#clip493)" cx="1863.78" cy="1438.38" r="14" fill="#009af9" fill-rule="evenodd" fill-opacity="1" stroke="#000000" stroke-opacity="1" stroke-width="3.2"/>
<circle clip-path="url(#clip493)" cx="1877.56" cy="1440.02" r="14" fill="#009af9" fill-rule="evenodd" fill-opacity="1" stroke="#000000" stroke-opacity="1" stroke-width="3.2"/>
<circle clip-path="url(#clip493)" cx="1891.35" cy="1441.32" r="14" fill="#009af9" fill-rule="evenodd" fill-opacity="1" stroke="#000000" stroke-opacity="1" stroke-width="3.2"/>
<circle clip-path="url(#clip493)" cx="1905.13" cy="1442.36" r="14" fill="#009af9" fill-rule="evenodd" fill-opacity="1" stroke="#000000" stroke-opacity="1" stroke-width="3.2"/>
<circle clip-path="url(#clip493)" cx="1918.92" cy="1443.18" r="14" fill="#009af9" fill-rule="evenodd" fill-opacity="1" stroke="#000000" stroke-opacity="1" stroke-width="3.2"/>
<circle clip-path="url(#clip493)" cx="1932.71" cy="1443.84" r="14" fill="#009af9" fill-rule="evenodd" fill-opacity="1" stroke="#000000" stroke-opacity="1" stroke-width="3.2"/>
<circle clip-path="url(#clip493)" cx="1946.49" cy="1444.35" r="14" fill="#009af9" fill-rule="evenodd" fill-opacity="1" stroke="#000000" stroke-opacity="1" stroke-width="3.2"/>
<circle clip-path="url(#clip493)" cx="1960.28" cy="1444.75" r="14" fill="#009af9" fill-rule="evenodd" fill-opacity="1" stroke="#000000" stroke-opacity="1" stroke-width="3.2"/>
<circle clip-path="url(#clip493)" cx="1974.06" cy="1445.05" r="14" fill="#009af9" fill-rule="evenodd" fill-opacity="1" stroke="#000000" stroke-opacity="1" stroke-width="3.2"/>
<circle clip-path="url(#clip493)" cx="1987.85" cy="1445.28" r="14" fill="#009af9" fill-rule="evenodd" fill-opacity="1" stroke="#000000" stroke-opacity="1" stroke-width="3.2"/>
<circle clip-path="url(#clip493)" cx="2001.63" cy="1445.45" r="14" fill="#009af9" fill-rule="evenodd" fill-opacity="1" stroke="#000000" stroke-opacity="1" stroke-width="3.2"/>
<circle clip-path="url(#clip493)" cx="2015.42" cy="1445.57" r="14" fill="#009af9" fill-rule="evenodd" fill-opacity="1" stroke="#000000" stroke-opacity="1" stroke-width="3.2"/>
<circle clip-path="url(#clip493)" cx="2029.21" cy="1445.65" r="14" fill="#009af9" fill-rule="evenodd" fill-opacity="1" stroke="#000000" stroke-opacity="1" stroke-width="3.2"/>
<circle clip-path="url(#clip493)" cx="2042.99" cy="1445.69" r="14" fill="#009af9" fill-rule="evenodd" fill-opacity="1" stroke="#000000" stroke-opacity="1" stroke-width="3.2"/>
<circle clip-path="url(#clip493)" cx="2056.78" cy="1445.71" r="14" fill="#009af9" fill-rule="evenodd" fill-opacity="1" stroke="#000000" stroke-opacity="1" stroke-width="3.2"/>
<circle clip-path="url(#clip493)" cx="2070.56" cy="1445.72" r="14" fill="#009af9" fill-rule="evenodd" fill-opacity="1" stroke="#000000" stroke-opacity="1" stroke-width="3.2"/>
<circle clip-path="url(#clip493)" cx="2084.35" cy="1445.7" r="14" fill="#009af9" fill-rule="evenodd" fill-opacity="1" stroke="#000000" stroke-opacity="1" stroke-width="3.2"/>
<circle clip-path="url(#clip493)" cx="2098.13" cy="1445.68" r="14" fill="#009af9" fill-rule="evenodd" fill-opacity="1" stroke="#000000" stroke-opacity="1" stroke-width="3.2"/>
<circle clip-path="url(#clip493)" cx="2111.92" cy="1445.64" r="14" fill="#009af9" fill-rule="evenodd" fill-opacity="1" stroke="#000000" stroke-opacity="1" stroke-width="3.2"/>
<circle clip-path="url(#clip493)" cx="2125.71" cy="1445.6" r="14" fill="#009af9" fill-rule="evenodd" fill-opacity="1" stroke="#000000" stroke-opacity="1" stroke-width="3.2"/>
<circle clip-path="url(#clip493)" cx="2139.49" cy="1445.56" r="14" fill="#009af9" fill-rule="evenodd" fill-opacity="1" stroke="#000000" stroke-opacity="1" stroke-width="3.2"/>
<circle clip-path="url(#clip493)" cx="2153.28" cy="1445.52" r="14" fill="#009af9" fill-rule="evenodd" fill-opacity="1" stroke="#000000" stroke-opacity="1" stroke-width="3.2"/>
<circle clip-path="url(#clip493)" cx="2167.06" cy="1445.48" r="14" fill="#009af9" fill-rule="evenodd" fill-opacity="1" stroke="#000000" stroke-opacity="1" stroke-width="3.2"/>
<circle clip-path="url(#clip493)" cx="2180.85" cy="1445.43" r="14" fill="#009af9" fill-rule="evenodd" fill-opacity="1" stroke="#000000" stroke-opacity="1" stroke-width="3.2"/>
<circle clip-path="url(#clip493)" cx="2194.63" cy="1445.4" r="14" fill="#009af9" fill-rule="evenodd" fill-opacity="1" stroke="#000000" stroke-opacity="1" stroke-width="3.2"/>
<circle clip-path="url(#clip493)" cx="2208.42" cy="1445.36" r="14" fill="#009af9" fill-rule="evenodd" fill-opacity="1" stroke="#000000" stroke-opacity="1" stroke-width="3.2"/>
<circle clip-path="url(#clip493)" cx="2222.21" cy="1445.33" r="14" fill="#009af9" fill-rule="evenodd" fill-opacity="1" stroke="#000000" stroke-opacity="1" stroke-width="3.2"/>
<circle clip-path="url(#clip493)" cx="2235.99" cy="1445.3" r="14" fill="#009af9" fill-rule="evenodd" fill-opacity="1" stroke="#000000" stroke-opacity="1" stroke-width="3.2"/>
<circle clip-path="url(#clip493)" cx="2249.78" cy="1445.28" r="14" fill="#009af9" fill-rule="evenodd" fill-opacity="1" stroke="#000000" stroke-opacity="1" stroke-width="3.2"/>
<circle clip-path="url(#clip493)" cx="2263.56" cy="1445.27" r="14" fill="#009af9" fill-rule="evenodd" fill-opacity="1" stroke="#000000" stroke-opacity="1" stroke-width="3.2"/>
<circle clip-path="url(#clip493)" cx="2277.35" cy="1445.26" r="14" fill="#009af9" fill-rule="evenodd" fill-opacity="1" stroke="#000000" stroke-opacity="1" stroke-width="3.2"/>
<circle clip-path="url(#clip493)" cx="2291.13" cy="1445.26" r="14" fill="#009af9" fill-rule="evenodd" fill-opacity="1" stroke="#000000" stroke-opacity="1" stroke-width="3.2"/>
<circle clip-path="url(#clip493)" cx="237.067" cy="1444.21" r="14" fill="#e26f46" fill-rule="evenodd" fill-opacity="1" stroke="#000000" stroke-opacity="1" stroke-width="3.2"/>
<circle clip-path="url(#clip493)" cx="250.853" cy="1444.21" r="14" fill="#e26f46" fill-rule="evenodd" fill-opacity="1" stroke="#000000" stroke-opacity="1" stroke-width="3.2"/>
<circle clip-path="url(#clip493)" cx="264.639" cy="1444.22" r="14" fill="#e26f46" fill-rule="evenodd" fill-opacity="1" stroke="#000000" stroke-opacity="1" stroke-width="3.2"/>
<circle clip-path="url(#clip493)" cx="278.424" cy="1444.23" r="14" fill="#e26f46" fill-rule="evenodd" fill-opacity="1" stroke="#000000" stroke-opacity="1" stroke-width="3.2"/>
<circle clip-path="url(#clip493)" cx="292.21" cy="1444.24" r="14" fill="#e26f46" fill-rule="evenodd" fill-opacity="1" stroke="#000000" stroke-opacity="1" stroke-width="3.2"/>
<circle clip-path="url(#clip493)" cx="305.996" cy="1444.25" r="14" fill="#e26f46" fill-rule="evenodd" fill-opacity="1" stroke="#000000" stroke-opacity="1" stroke-width="3.2"/>
<circle clip-path="url(#clip493)" cx="319.781" cy="1444.27" r="14" fill="#e26f46" fill-rule="evenodd" fill-opacity="1" stroke="#000000" stroke-opacity="1" stroke-width="3.2"/>
<circle clip-path="url(#clip493)" cx="333.567" cy="1444.29" r="14" fill="#e26f46" fill-rule="evenodd" fill-opacity="1" stroke="#000000" stroke-opacity="1" stroke-width="3.2"/>
<circle clip-path="url(#clip493)" cx="347.353" cy="1444.31" r="14" fill="#e26f46" fill-rule="evenodd" fill-opacity="1" stroke="#000000" stroke-opacity="1" stroke-width="3.2"/>
<circle clip-path="url(#clip493)" cx="361.138" cy="1444.33" r="14" fill="#e26f46" fill-rule="evenodd" fill-opacity="1" stroke="#000000" stroke-opacity="1" stroke-width="3.2"/>
<circle clip-path="url(#clip493)" cx="374.924" cy="1444.36" r="14" fill="#e26f46" fill-rule="evenodd" fill-opacity="1" stroke="#000000" stroke-opacity="1" stroke-width="3.2"/>
<circle clip-path="url(#clip493)" cx="388.71" cy="1444.39" r="14" fill="#e26f46" fill-rule="evenodd" fill-opacity="1" stroke="#000000" stroke-opacity="1" stroke-width="3.2"/>
<circle clip-path="url(#clip493)" cx="402.495" cy="1444.41" r="14" fill="#e26f46" fill-rule="evenodd" fill-opacity="1" stroke="#000000" stroke-opacity="1" stroke-width="3.2"/>
<circle clip-path="url(#clip493)" cx="416.281" cy="1444.44" r="14" fill="#e26f46" fill-rule="evenodd" fill-opacity="1" stroke="#000000" stroke-opacity="1" stroke-width="3.2"/>
<circle clip-path="url(#clip493)" cx="430.067" cy="1444.47" r="14" fill="#e26f46" fill-rule="evenodd" fill-opacity="1" stroke="#000000" stroke-opacity="1" stroke-width="3.2"/>
<circle clip-path="url(#clip493)" cx="443.852" cy="1444.5" r="14" fill="#e26f46" fill-rule="evenodd" fill-opacity="1" stroke="#000000" stroke-opacity="1" stroke-width="3.2"/>
<circle clip-path="url(#clip493)" cx="457.638" cy="1444.52" r="14" fill="#e26f46" fill-rule="evenodd" fill-opacity="1" stroke="#000000" stroke-opacity="1" stroke-width="3.2"/>
<circle clip-path="url(#clip493)" cx="471.424" cy="1444.54" r="14" fill="#e26f46" fill-rule="evenodd" fill-opacity="1" stroke="#000000" stroke-opacity="1" stroke-width="3.2"/>
<circle clip-path="url(#clip493)" cx="485.209" cy="1444.56" r="14" fill="#e26f46" fill-rule="evenodd" fill-opacity="1" stroke="#000000" stroke-opacity="1" stroke-width="3.2"/>
<circle clip-path="url(#clip493)" cx="498.995" cy="1444.58" r="14" fill="#e26f46" fill-rule="evenodd" fill-opacity="1" stroke="#000000" stroke-opacity="1" stroke-width="3.2"/>
<circle clip-path="url(#clip493)" cx="512.781" cy="1444.58" r="14" fill="#e26f46" fill-rule="evenodd" fill-opacity="1" stroke="#000000" stroke-opacity="1" stroke-width="3.2"/>
<circle clip-path="url(#clip493)" cx="526.567" cy="1444.58" r="14" fill="#e26f46" fill-rule="evenodd" fill-opacity="1" stroke="#000000" stroke-opacity="1" stroke-width="3.2"/>
<circle clip-path="url(#clip493)" cx="540.352" cy="1444.56" r="14" fill="#e26f46" fill-rule="evenodd" fill-opacity="1" stroke="#000000" stroke-opacity="1" stroke-width="3.2"/>
<circle clip-path="url(#clip493)" cx="554.138" cy="1444.52" r="14" fill="#e26f46" fill-rule="evenodd" fill-opacity="1" stroke="#000000" stroke-opacity="1" stroke-width="3.2"/>
<circle clip-path="url(#clip493)" cx="567.924" cy="1444.47" r="14" fill="#e26f46" fill-rule="evenodd" fill-opacity="1" stroke="#000000" stroke-opacity="1" stroke-width="3.2"/>
<circle clip-path="url(#clip493)" cx="581.709" cy="1444.38" r="14" fill="#e26f46" fill-rule="evenodd" fill-opacity="1" stroke="#000000" stroke-opacity="1" stroke-width="3.2"/>
<circle clip-path="url(#clip493)" cx="595.495" cy="1444.27" r="14" fill="#e26f46" fill-rule="evenodd" fill-opacity="1" stroke="#000000" stroke-opacity="1" stroke-width="3.2"/>
<circle clip-path="url(#clip493)" cx="609.281" cy="1444.11" r="14" fill="#e26f46" fill-rule="evenodd" fill-opacity="1" stroke="#000000" stroke-opacity="1" stroke-width="3.2"/>
<circle clip-path="url(#clip493)" cx="623.066" cy="1443.91" r="14" fill="#e26f46" fill-rule="evenodd" fill-opacity="1" stroke="#000000" stroke-opacity="1" stroke-width="3.2"/>
<circle clip-path="url(#clip493)" cx="636.852" cy="1443.64" r="14" fill="#e26f46" fill-rule="evenodd" fill-opacity="1" stroke="#000000" stroke-opacity="1" stroke-width="3.2"/>
<circle clip-path="url(#clip493)" cx="650.638" cy="1443.3" r="14" fill="#e26f46" fill-rule="evenodd" fill-opacity="1" stroke="#000000" stroke-opacity="1" stroke-width="3.2"/>
<circle clip-path="url(#clip493)" cx="664.423" cy="1442.87" r="14" fill="#e26f46" fill-rule="evenodd" fill-opacity="1" stroke="#000000" stroke-opacity="1" stroke-width="3.2"/>
<circle clip-path="url(#clip493)" cx="678.209" cy="1442.33" r="14" fill="#e26f46" fill-rule="evenodd" fill-opacity="1" stroke="#000000" stroke-opacity="1" stroke-width="3.2"/>
<circle clip-path="url(#clip493)" cx="691.995" cy="1441.67" r="14" fill="#e26f46" fill-rule="evenodd" fill-opacity="1" stroke="#000000" stroke-opacity="1" stroke-width="3.2"/>
<circle clip-path="url(#clip493)" cx="705.78" cy="1440.86" r="14" fill="#e26f46" fill-rule="evenodd" fill-opacity="1" stroke="#000000" stroke-opacity="1" stroke-width="3.2"/>
<circle clip-path="url(#clip493)" cx="719.566" cy="1439.88" r="14" fill="#e26f46" fill-rule="evenodd" fill-opacity="1" stroke="#000000" stroke-opacity="1" stroke-width="3.2"/>
<circle clip-path="url(#clip493)" cx="733.352" cy="1438.7" r="14" fill="#e26f46" fill-rule="evenodd" fill-opacity="1" stroke="#000000" stroke-opacity="1" stroke-width="3.2"/>
<circle clip-path="url(#clip493)" cx="747.137" cy="1437.31" r="14" fill="#e26f46" fill-rule="evenodd" fill-opacity="1" stroke="#000000" stroke-opacity="1" stroke-width="3.2"/>
<circle clip-path="url(#clip493)" cx="760.923" cy="1435.68" r="14" fill="#e26f46" fill-rule="evenodd" fill-opacity="1" stroke="#000000" stroke-opacity="1" stroke-width="3.2"/>
<circle clip-path="url(#clip493)" cx="774.709" cy="1433.8" r="14" fill="#e26f46" fill-rule="evenodd" fill-opacity="1" stroke="#000000" stroke-opacity="1" stroke-width="3.2"/>
<circle clip-path="url(#clip493)" cx="788.495" cy="1431.69" r="14" fill="#e26f46" fill-rule="evenodd" fill-opacity="1" stroke="#000000" stroke-opacity="1" stroke-width="3.2"/>
<circle clip-path="url(#clip493)" cx="802.28" cy="1429.36" r="14" fill="#e26f46" fill-rule="evenodd" fill-opacity="1" stroke="#000000" stroke-opacity="1" stroke-width="3.2"/>
<circle clip-path="url(#clip493)" cx="816.066" cy="1426.86" r="14" fill="#e26f46" fill-rule="evenodd" fill-opacity="1" stroke="#000000" stroke-opacity="1" stroke-width="3.2"/>
<circle clip-path="url(#clip493)" cx="829.852" cy="1424.26" r="14" fill="#e26f46" fill-rule="evenodd" fill-opacity="1" stroke="#000000" stroke-opacity="1" stroke-width="3.2"/>
<circle clip-path="url(#clip493)" cx="843.637" cy="1421.68" r="14" fill="#e26f46" fill-rule="evenodd" fill-opacity="1" stroke="#000000" stroke-opacity="1" stroke-width="3.2"/>
<circle clip-path="url(#clip493)" cx="857.423" cy="1419.26" r="14" fill="#e26f46" fill-rule="evenodd" fill-opacity="1" stroke="#000000" stroke-opacity="1" stroke-width="3.2"/>
<circle clip-path="url(#clip493)" cx="871.209" cy="1417.15" r="14" fill="#e26f46" fill-rule="evenodd" fill-opacity="1" stroke="#000000" stroke-opacity="1" stroke-width="3.2"/>
<circle clip-path="url(#clip493)" cx="884.994" cy="1415.5" r="14" fill="#e26f46" fill-rule="evenodd" fill-opacity="1" stroke="#000000" stroke-opacity="1" stroke-width="3.2"/>
<circle clip-path="url(#clip493)" cx="898.78" cy="1414.45" r="14" fill="#e26f46" fill-rule="evenodd" fill-opacity="1" stroke="#000000" stroke-opacity="1" stroke-width="3.2"/>
<circle clip-path="url(#clip493)" cx="912.566" cy="1414.08" r="14" fill="#e26f46" fill-rule="evenodd" fill-opacity="1" stroke="#000000" stroke-opacity="1" stroke-width="3.2"/>
<circle clip-path="url(#clip493)" cx="926.351" cy="1414.06" r="14" fill="#e26f46" fill-rule="evenodd" fill-opacity="1" stroke="#000000" stroke-opacity="1" stroke-width="3.2"/>
<circle clip-path="url(#clip493)" cx="940.137" cy="1413.99" r="14" fill="#e26f46" fill-rule="evenodd" fill-opacity="1" stroke="#000000" stroke-opacity="1" stroke-width="3.2"/>
<circle clip-path="url(#clip493)" cx="953.923" cy="1413.87" r="14" fill="#e26f46" fill-rule="evenodd" fill-opacity="1" stroke="#000000" stroke-opacity="1" stroke-width="3.2"/>
<circle clip-path="url(#clip493)" cx="967.708" cy="1413.69" r="14" fill="#e26f46" fill-rule="evenodd" fill-opacity="1" stroke="#000000" stroke-opacity="1" stroke-width="3.2"/>
<circle clip-path="url(#clip493)" cx="981.494" cy="1413.47" r="14" fill="#e26f46" fill-rule="evenodd" fill-opacity="1" stroke="#000000" stroke-opacity="1" stroke-width="3.2"/>
<circle clip-path="url(#clip493)" cx="995.28" cy="1413.19" r="14" fill="#e26f46" fill-rule="evenodd" fill-opacity="1" stroke="#000000" stroke-opacity="1" stroke-width="3.2"/>
<circle clip-path="url(#clip493)" cx="1009.07" cy="1412.86" r="14" fill="#e26f46" fill-rule="evenodd" fill-opacity="1" stroke="#000000" stroke-opacity="1" stroke-width="3.2"/>
<circle clip-path="url(#clip493)" cx="1022.85" cy="1412.47" r="14" fill="#e26f46" fill-rule="evenodd" fill-opacity="1" stroke="#000000" stroke-opacity="1" stroke-width="3.2"/>
<circle clip-path="url(#clip493)" cx="1036.64" cy="1412.02" r="14" fill="#e26f46" fill-rule="evenodd" fill-opacity="1" stroke="#000000" stroke-opacity="1" stroke-width="3.2"/>
<circle clip-path="url(#clip493)" cx="1050.42" cy="1411.51" r="14" fill="#e26f46" fill-rule="evenodd" fill-opacity="1" stroke="#000000" stroke-opacity="1" stroke-width="3.2"/>
<circle clip-path="url(#clip493)" cx="1064.21" cy="1410.93" r="14" fill="#e26f46" fill-rule="evenodd" fill-opacity="1" stroke="#000000" stroke-opacity="1" stroke-width="3.2"/>
<circle clip-path="url(#clip493)" cx="1077.99" cy="1410.27" r="14" fill="#e26f46" fill-rule="evenodd" fill-opacity="1" stroke="#000000" stroke-opacity="1" stroke-width="3.2"/>
<circle clip-path="url(#clip493)" cx="1091.78" cy="1409.54" r="14" fill="#e26f46" fill-rule="evenodd" fill-opacity="1" stroke="#000000" stroke-opacity="1" stroke-width="3.2"/>
<circle clip-path="url(#clip493)" cx="1105.57" cy="1408.73" r="14" fill="#e26f46" fill-rule="evenodd" fill-opacity="1" stroke="#000000" stroke-opacity="1" stroke-width="3.2"/>
<circle clip-path="url(#clip493)" cx="1119.35" cy="1407.82" r="14" fill="#e26f46" fill-rule="evenodd" fill-opacity="1" stroke="#000000" stroke-opacity="1" stroke-width="3.2"/>
<circle clip-path="url(#clip493)" cx="1133.14" cy="1406.81" r="14" fill="#e26f46" fill-rule="evenodd" fill-opacity="1" stroke="#000000" stroke-opacity="1" stroke-width="3.2"/>
<circle clip-path="url(#clip493)" cx="1146.92" cy="1405.7" r="14" fill="#e26f46" fill-rule="evenodd" fill-opacity="1" stroke="#000000" stroke-opacity="1" stroke-width="3.2"/>
<circle clip-path="url(#clip493)" cx="1160.71" cy="1404.47" r="14" fill="#e26f46" fill-rule="evenodd" fill-opacity="1" stroke="#000000" stroke-opacity="1" stroke-width="3.2"/>
<circle clip-path="url(#clip493)" cx="1174.49" cy="1403.1" r="14" fill="#e26f46" fill-rule="evenodd" fill-opacity="1" stroke="#000000" stroke-opacity="1" stroke-width="3.2"/>
<circle clip-path="url(#clip493)" cx="1188.28" cy="1401.59" r="14" fill="#e26f46" fill-rule="evenodd" fill-opacity="1" stroke="#000000" stroke-opacity="1" stroke-width="3.2"/>
<circle clip-path="url(#clip493)" cx="1202.06" cy="1399.92" r="14" fill="#e26f46" fill-rule="evenodd" fill-opacity="1" stroke="#000000" stroke-opacity="1" stroke-width="3.2"/>
<circle clip-path="url(#clip493)" cx="1215.85" cy="1398.07" r="14" fill="#e26f46" fill-rule="evenodd" fill-opacity="1" stroke="#000000" stroke-opacity="1" stroke-width="3.2"/>
<circle clip-path="url(#clip493)" cx="1229.64" cy="1396.02" r="14" fill="#e26f46" fill-rule="evenodd" fill-opacity="1" stroke="#000000" stroke-opacity="1" stroke-width="3.2"/>
<circle clip-path="url(#clip493)" cx="1243.42" cy="1393.74" r="14" fill="#e26f46" fill-rule="evenodd" fill-opacity="1" stroke="#000000" stroke-opacity="1" stroke-width="3.2"/>
<circle clip-path="url(#clip493)" cx="1257.21" cy="1391.21" r="14" fill="#e26f46" fill-rule="evenodd" fill-opacity="1" stroke="#000000" stroke-opacity="1" stroke-width="3.2"/>
<circle clip-path="url(#clip493)" cx="1270.99" cy="1388.39" r="14" fill="#e26f46" fill-rule="evenodd" fill-opacity="1" stroke="#000000" stroke-opacity="1" stroke-width="3.2"/>
<circle clip-path="url(#clip493)" cx="1284.78" cy="1385.24" r="14" fill="#e26f46" fill-rule="evenodd" fill-opacity="1" stroke="#000000" stroke-opacity="1" stroke-width="3.2"/>
<circle clip-path="url(#clip493)" cx="1298.56" cy="1381.72" r="14" fill="#e26f46" fill-rule="evenodd" fill-opacity="1" stroke="#000000" stroke-opacity="1" stroke-width="3.2"/>
<circle clip-path="url(#clip493)" cx="1312.35" cy="1377.78" r="14" fill="#e26f46" fill-rule="evenodd" fill-opacity="1" stroke="#000000" stroke-opacity="1" stroke-width="3.2"/>
<circle clip-path="url(#clip493)" cx="1326.14" cy="1373.36" r="14" fill="#e26f46" fill-rule="evenodd" fill-opacity="1" stroke="#000000" stroke-opacity="1" stroke-width="3.2"/>
<circle clip-path="url(#clip493)" cx="1339.92" cy="1368.38" r="14" fill="#e26f46" fill-rule="evenodd" fill-opacity="1" stroke="#000000" stroke-opacity="1" stroke-width="3.2"/>
<circle clip-path="url(#clip493)" cx="1353.71" cy="1362.76" r="14" fill="#e26f46" fill-rule="evenodd" fill-opacity="1" stroke="#000000" stroke-opacity="1" stroke-width="3.2"/>
<circle clip-path="url(#clip493)" cx="1367.49" cy="1356.42" r="14" fill="#e26f46" fill-rule="evenodd" fill-opacity="1" stroke="#000000" stroke-opacity="1" stroke-width="3.2"/>
<circle clip-path="url(#clip493)" cx="1381.28" cy="1349.24" r="14" fill="#e26f46" fill-rule="evenodd" fill-opacity="1" stroke="#000000" stroke-opacity="1" stroke-width="3.2"/>
<circle clip-path="url(#clip493)" cx="1395.06" cy="1341.11" r="14" fill="#e26f46" fill-rule="evenodd" fill-opacity="1" stroke="#000000" stroke-opacity="1" stroke-width="3.2"/>
<circle clip-path="url(#clip493)" cx="1408.85" cy="1331.88" r="14" fill="#e26f46" fill-rule="evenodd" fill-opacity="1" stroke="#000000" stroke-opacity="1" stroke-width="3.2"/>
<circle clip-path="url(#clip493)" cx="1422.64" cy="1321.41" r="14" fill="#e26f46" fill-rule="evenodd" fill-opacity="1" stroke="#000000" stroke-opacity="1" stroke-width="3.2"/>
<circle clip-path="url(#clip493)" cx="1436.42" cy="1309.56" r="14" fill="#e26f46" fill-rule="evenodd" fill-opacity="1" stroke="#000000" stroke-opacity="1" stroke-width="3.2"/>
<circle clip-path="url(#clip493)" cx="1450.21" cy="1296.18" r="14" fill="#e26f46" fill-rule="evenodd" fill-opacity="1" stroke="#000000" stroke-opacity="1" stroke-width="3.2"/>
<circle clip-path="url(#clip493)" cx="1463.99" cy="1281.16" r="14" fill="#e26f46" fill-rule="evenodd" fill-opacity="1" stroke="#000000" stroke-opacity="1" stroke-width="3.2"/>
<circle clip-path="url(#clip493)" cx="1477.78" cy="1264.44" r="14" fill="#e26f46" fill-rule="evenodd" fill-opacity="1" stroke="#000000" stroke-opacity="1" stroke-width="3.2"/>
<circle clip-path="url(#clip493)" cx="1491.56" cy="1246.07" r="14" fill="#e26f46" fill-rule="evenodd" fill-opacity="1" stroke="#000000" stroke-opacity="1" stroke-width="3.2"/>
<circle clip-path="url(#clip493)" cx="1505.35" cy="1226.26" r="14" fill="#e26f46" fill-rule="evenodd" fill-opacity="1" stroke="#000000" stroke-opacity="1" stroke-width="3.2"/>
<circle clip-path="url(#clip493)" cx="1519.14" cy="1205.44" r="14" fill="#e26f46" fill-rule="evenodd" fill-opacity="1" stroke="#000000" stroke-opacity="1" stroke-width="3.2"/>
<circle clip-path="url(#clip493)" cx="1532.92" cy="1184.36" r="14" fill="#e26f46" fill-rule="evenodd" fill-opacity="1" stroke="#000000" stroke-opacity="1" stroke-width="3.2"/>
<circle clip-path="url(#clip493)" cx="1546.71" cy="1164.08" r="14" fill="#e26f46" fill-rule="evenodd" fill-opacity="1" stroke="#000000" stroke-opacity="1" stroke-width="3.2"/>
<circle clip-path="url(#clip493)" cx="1560.49" cy="1145.96" r="14" fill="#e26f46" fill-rule="evenodd" fill-opacity="1" stroke="#000000" stroke-opacity="1" stroke-width="3.2"/>
<circle clip-path="url(#clip493)" cx="1574.28" cy="1131.51" r="14" fill="#e26f46" fill-rule="evenodd" fill-opacity="1" stroke="#000000" stroke-opacity="1" stroke-width="3.2"/>
<circle clip-path="url(#clip493)" cx="1588.06" cy="1122.15" r="14" fill="#e26f46" fill-rule="evenodd" fill-opacity="1" stroke="#000000" stroke-opacity="1" stroke-width="3.2"/>
<circle clip-path="url(#clip493)" cx="1601.85" cy="1118.91" r="14" fill="#e26f46" fill-rule="evenodd" fill-opacity="1" stroke="#000000" stroke-opacity="1" stroke-width="3.2"/>
<circle clip-path="url(#clip493)" cx="1615.64" cy="1125.36" r="14" fill="#e26f46" fill-rule="evenodd" fill-opacity="1" stroke="#000000" stroke-opacity="1" stroke-width="3.2"/>
<circle clip-path="url(#clip493)" cx="1629.42" cy="1143.52" r="14" fill="#e26f46" fill-rule="evenodd" fill-opacity="1" stroke="#000000" stroke-opacity="1" stroke-width="3.2"/>
<circle clip-path="url(#clip493)" cx="1643.21" cy="1170.31" r="14" fill="#e26f46" fill-rule="evenodd" fill-opacity="1" stroke="#000000" stroke-opacity="1" stroke-width="3.2"/>
<circle clip-path="url(#clip493)" cx="1656.99" cy="1201.9" r="14" fill="#e26f46" fill-rule="evenodd" fill-opacity="1" stroke="#000000" stroke-opacity="1" stroke-width="3.2"/>
<circle clip-path="url(#clip493)" cx="1670.78" cy="1234.79" r="14" fill="#e26f46" fill-rule="evenodd" fill-opacity="1" stroke="#000000" stroke-opacity="1" stroke-width="3.2"/>
<circle clip-path="url(#clip493)" cx="1684.56" cy="1266.42" r="14" fill="#e26f46" fill-rule="evenodd" fill-opacity="1" stroke="#000000" stroke-opacity="1" stroke-width="3.2"/>
<circle clip-path="url(#clip493)" cx="1698.35" cy="1295.27" r="14" fill="#e26f46" fill-rule="evenodd" fill-opacity="1" stroke="#000000" stroke-opacity="1" stroke-width="3.2"/>
<circle clip-path="url(#clip493)" cx="1712.14" cy="1320.63" r="14" fill="#e26f46" fill-rule="evenodd" fill-opacity="1" stroke="#000000" stroke-opacity="1" stroke-width="3.2"/>
<circle clip-path="url(#clip493)" cx="1725.92" cy="1342.4" r="14" fill="#e26f46" fill-rule="evenodd" fill-opacity="1" stroke="#000000" stroke-opacity="1" stroke-width="3.2"/>
<circle clip-path="url(#clip493)" cx="1739.71" cy="1360.77" r="14" fill="#e26f46" fill-rule="evenodd" fill-opacity="1" stroke="#000000" stroke-opacity="1" stroke-width="3.2"/>
<circle clip-path="url(#clip493)" cx="1753.49" cy="1376.1" r="14" fill="#e26f46" fill-rule="evenodd" fill-opacity="1" stroke="#000000" stroke-opacity="1" stroke-width="3.2"/>
<circle clip-path="url(#clip493)" cx="1767.28" cy="1388.8" r="14" fill="#e26f46" fill-rule="evenodd" fill-opacity="1" stroke="#000000" stroke-opacity="1" stroke-width="3.2"/>
<circle clip-path="url(#clip493)" cx="1781.06" cy="1399.26" r="14" fill="#e26f46" fill-rule="evenodd" fill-opacity="1" stroke="#000000" stroke-opacity="1" stroke-width="3.2"/>
<circle clip-path="url(#clip493)" cx="1794.85" cy="1407.85" r="14" fill="#e26f46" fill-rule="evenodd" fill-opacity="1" stroke="#000000" stroke-opacity="1" stroke-width="3.2"/>
<circle clip-path="url(#clip493)" cx="1808.64" cy="1414.89" r="14" fill="#e26f46" fill-rule="evenodd" fill-opacity="1" stroke="#000000" stroke-opacity="1" stroke-width="3.2"/>
<circle clip-path="url(#clip493)" cx="1822.42" cy="1420.64" r="14" fill="#e26f46" fill-rule="evenodd" fill-opacity="1" stroke="#000000" stroke-opacity="1" stroke-width="3.2"/>
<circle clip-path="url(#clip493)" cx="1836.21" cy="1425.33" r="14" fill="#e26f46" fill-rule="evenodd" fill-opacity="1" stroke="#000000" stroke-opacity="1" stroke-width="3.2"/>
<circle clip-path="url(#clip493)" cx="1849.99" cy="1429.16" r="14" fill="#e26f46" fill-rule="evenodd" fill-opacity="1" stroke="#000000" stroke-opacity="1" stroke-width="3.2"/>
<circle clip-path="url(#clip493)" cx="1863.78" cy="1432.28" r="14" fill="#e26f46" fill-rule="evenodd" fill-opacity="1" stroke="#000000" stroke-opacity="1" stroke-width="3.2"/>
<circle clip-path="url(#clip493)" cx="1877.56" cy="1434.81" r="14" fill="#e26f46" fill-rule="evenodd" fill-opacity="1" stroke="#000000" stroke-opacity="1" stroke-width="3.2"/>
<circle clip-path="url(#clip493)" cx="1891.35" cy="1436.86" r="14" fill="#e26f46" fill-rule="evenodd" fill-opacity="1" stroke="#000000" stroke-opacity="1" stroke-width="3.2"/>
<circle clip-path="url(#clip493)" cx="1905.13" cy="1438.52" r="14" fill="#e26f46" fill-rule="evenodd" fill-opacity="1" stroke="#000000" stroke-opacity="1" stroke-width="3.2"/>
<circle clip-path="url(#clip493)" cx="1918.92" cy="1439.86" r="14" fill="#e26f46" fill-rule="evenodd" fill-opacity="1" stroke="#000000" stroke-opacity="1" stroke-width="3.2"/>
<circle clip-path="url(#clip493)" cx="1932.71" cy="1440.93" r="14" fill="#e26f46" fill-rule="evenodd" fill-opacity="1" stroke="#000000" stroke-opacity="1" stroke-width="3.2"/>
<circle clip-path="url(#clip493)" cx="1946.49" cy="1441.79" r="14" fill="#e26f46" fill-rule="evenodd" fill-opacity="1" stroke="#000000" stroke-opacity="1" stroke-width="3.2"/>
<circle clip-path="url(#clip493)" cx="1960.28" cy="1442.47" r="14" fill="#e26f46" fill-rule="evenodd" fill-opacity="1" stroke="#000000" stroke-opacity="1" stroke-width="3.2"/>
<circle clip-path="url(#clip493)" cx="1974.06" cy="1443.01" r="14" fill="#e26f46" fill-rule="evenodd" fill-opacity="1" stroke="#000000" stroke-opacity="1" stroke-width="3.2"/>
<circle clip-path="url(#clip493)" cx="1987.85" cy="1443.43" r="14" fill="#e26f46" fill-rule="evenodd" fill-opacity="1" stroke="#000000" stroke-opacity="1" stroke-width="3.2"/>
<circle clip-path="url(#clip493)" cx="2001.63" cy="1443.75" r="14" fill="#e26f46" fill-rule="evenodd" fill-opacity="1" stroke="#000000" stroke-opacity="1" stroke-width="3.2"/>
<circle clip-path="url(#clip493)" cx="2015.42" cy="1444" r="14" fill="#e26f46" fill-rule="evenodd" fill-opacity="1" stroke="#000000" stroke-opacity="1" stroke-width="3.2"/>
<circle clip-path="url(#clip493)" cx="2029.21" cy="1444.18" r="14" fill="#e26f46" fill-rule="evenodd" fill-opacity="1" stroke="#000000" stroke-opacity="1" stroke-width="3.2"/>
<circle clip-path="url(#clip493)" cx="2042.99" cy="1444.31" r="14" fill="#e26f46" fill-rule="evenodd" fill-opacity="1" stroke="#000000" stroke-opacity="1" stroke-width="3.2"/>
<circle clip-path="url(#clip493)" cx="2056.78" cy="1444.39" r="14" fill="#e26f46" fill-rule="evenodd" fill-opacity="1" stroke="#000000" stroke-opacity="1" stroke-width="3.2"/>
<circle clip-path="url(#clip493)" cx="2070.56" cy="1444.45" r="14" fill="#e26f46" fill-rule="evenodd" fill-opacity="1" stroke="#000000" stroke-opacity="1" stroke-width="3.2"/>
<circle clip-path="url(#clip493)" cx="2084.35" cy="1444.48" r="14" fill="#e26f46" fill-rule="evenodd" fill-opacity="1" stroke="#000000" stroke-opacity="1" stroke-width="3.2"/>
<circle clip-path="url(#clip493)" cx="2098.13" cy="1444.49" r="14" fill="#e26f46" fill-rule="evenodd" fill-opacity="1" stroke="#000000" stroke-opacity="1" stroke-width="3.2"/>
<circle clip-path="url(#clip493)" cx="2111.92" cy="1444.49" r="14" fill="#e26f46" fill-rule="evenodd" fill-opacity="1" stroke="#000000" stroke-opacity="1" stroke-width="3.2"/>
<circle clip-path="url(#clip493)" cx="2125.71" cy="1444.47" r="14" fill="#e26f46" fill-rule="evenodd" fill-opacity="1" stroke="#000000" stroke-opacity="1" stroke-width="3.2"/>
<circle clip-path="url(#clip493)" cx="2139.49" cy="1444.45" r="14" fill="#e26f46" fill-rule="evenodd" fill-opacity="1" stroke="#000000" stroke-opacity="1" stroke-width="3.2"/>
<circle clip-path="url(#clip493)" cx="2153.28" cy="1444.42" r="14" fill="#e26f46" fill-rule="evenodd" fill-opacity="1" stroke="#000000" stroke-opacity="1" stroke-width="3.2"/>
<circle clip-path="url(#clip493)" cx="2167.06" cy="1444.39" r="14" fill="#e26f46" fill-rule="evenodd" fill-opacity="1" stroke="#000000" stroke-opacity="1" stroke-width="3.2"/>
<circle clip-path="url(#clip493)" cx="2180.85" cy="1444.36" r="14" fill="#e26f46" fill-rule="evenodd" fill-opacity="1" stroke="#000000" stroke-opacity="1" stroke-width="3.2"/>
<circle clip-path="url(#clip493)" cx="2194.63" cy="1444.33" r="14" fill="#e26f46" fill-rule="evenodd" fill-opacity="1" stroke="#000000" stroke-opacity="1" stroke-width="3.2"/>
<circle clip-path="url(#clip493)" cx="2208.42" cy="1444.3" r="14" fill="#e26f46" fill-rule="evenodd" fill-opacity="1" stroke="#000000" stroke-opacity="1" stroke-width="3.2"/>
<circle clip-path="url(#clip493)" cx="2222.21" cy="1444.27" r="14" fill="#e26f46" fill-rule="evenodd" fill-opacity="1" stroke="#000000" stroke-opacity="1" stroke-width="3.2"/>
<circle clip-path="url(#clip493)" cx="2235.99" cy="1444.25" r="14" fill="#e26f46" fill-rule="evenodd" fill-opacity="1" stroke="#000000" stroke-opacity="1" stroke-width="3.2"/>
<circle clip-path="url(#clip493)" cx="2249.78" cy="1444.23" r="14" fill="#e26f46" fill-rule="evenodd" fill-opacity="1" stroke="#000000" stroke-opacity="1" stroke-width="3.2"/>
<circle clip-path="url(#clip493)" cx="2263.56" cy="1444.22" r="14" fill="#e26f46" fill-rule="evenodd" fill-opacity="1" stroke="#000000" stroke-opacity="1" stroke-width="3.2"/>
<circle clip-path="url(#clip493)" cx="2277.35" cy="1444.21" r="14" fill="#e26f46" fill-rule="evenodd" fill-opacity="1" stroke="#000000" stroke-opacity="1" stroke-width="3.2"/>
<circle clip-path="url(#clip493)" cx="2291.13" cy="1444.2" r="14" fill="#e26f46" fill-rule="evenodd" fill-opacity="1" stroke="#000000" stroke-opacity="1" stroke-width="3.2"/>
<path clip-path="url(#clip490)" d="
M1827.71 282.106 L2280.18 282.106 L2280.18 95.2176 L1827.71 95.2176  Z
  " fill="#ffffff" fill-rule="evenodd" fill-opacity="1"/>
<polyline clip-path="url(#clip490)" style="stroke:#000000; stroke-linecap:butt; stroke-linejoin:round; stroke-width:4; stroke-opacity:1; fill:none" points="
  1827.71,282.106 2280.18,282.106 2280.18,95.2176 1827.71,95.2176 1827.71,282.106 
  "/>
<circle clip-path="url(#clip490)" cx="1924.48" cy="157.514" r="23" fill="#009af9" fill-rule="evenodd" fill-opacity="1" stroke="#000000" stroke-opacity="1" stroke-width="5.12"/>
<path clip-path="url(#clip490)" d="M2021.24 147.213 L2022.16 136.439 L2051.46 136.439 L2052.37 147.213 L2051.18 147.213 Q2050.99 145.059 2050.8 143.817 Q2050.64 142.576 2050.22 141.405 Q2049.82 140.21 2049.3 139.648 Q2048.81 139.062 2047.85 138.617 Q2046.89 138.149 2045.65 138.032 Q2044.41 137.915 2042.54 137.915 Q2040.33 137.915 2039.8 138.008 Q2039.21 138.149 2039.07 138.571 Q2038.93 138.969 2038.93 139.835 L2038.93 165.108 Q2038.93 166.069 2039.12 166.467 Q2039.33 166.842 2040.43 167.146 Q2041.53 167.427 2043.96 167.427 L2045.88 167.427 L2045.88 168.903 Q2043.92 168.762 2036.77 168.762 Q2029.68 168.762 2027.71 168.903 L2027.71 167.427 L2029.63 167.427 Q2032.07 167.427 2033.17 167.146 Q2034.29 166.842 2034.48 166.467 Q2034.67 166.069 2034.67 165.108 L2034.67 139.835 Q2034.67 139.156 2034.62 138.875 Q2034.57 138.594 2034.36 138.36 Q2034.15 138.102 2033.66 138.008 Q2033.19 137.915 2031.08 137.915 Q2029.21 137.915 2027.94 138.032 Q2026.7 138.149 2025.74 138.617 Q2024.78 139.062 2024.27 139.648 Q2023.77 140.21 2023.35 141.405 Q2022.95 142.576 2022.79 143.817 Q2022.63 145.059 2022.44 147.213 L2021.24 147.213 Z" fill="#000000" fill-rule="evenodd" fill-opacity="1" /><path clip-path="url(#clip490)" d="M2059.42 168.903 L2059.42 167.427 Q2061.97 167.427 2062.56 167.123 Q2063.17 166.795 2063.17 165.249 L2063.17 152.39 Q2063.17 150.61 2062.53 150.165 Q2061.92 149.72 2059.42 149.72 L2059.42 148.221 L2066.09 147.705 L2066.09 152.975 Q2066.77 150.914 2068.2 149.322 Q2069.65 147.705 2072 147.705 Q2073.54 147.705 2074.53 148.572 Q2075.53 149.439 2075.53 150.633 Q2075.53 151.687 2074.88 152.226 Q2074.24 152.741 2073.47 152.741 Q2072.61 152.741 2072 152.202 Q2071.41 151.64 2071.41 150.68 Q2071.41 150.094 2071.67 149.649 Q2071.95 149.181 2072.16 149.017 Q2072.37 148.853 2072.51 148.806 Q2072.42 148.759 2072 148.759 Q2069.35 148.759 2067.83 151.406 Q2066.33 154.029 2066.33 157.777 L2066.33 165.155 Q2066.33 166.537 2066.89 166.982 Q2067.48 167.427 2069.98 167.427 L2070.99 167.427 L2070.99 168.903 Q2069.07 168.762 2064.9 168.762 Q2064.31 168.762 2063.4 168.786 Q2062.49 168.809 2061.29 168.856 Q2060.1 168.903 2059.42 168.903 Z" fill="#000000" fill-rule="evenodd" fill-opacity="1" /><path clip-path="url(#clip490)" d="M2077.97 156.91 Q2077.97 148.806 2080.99 142.271 Q2082.28 139.531 2084.09 137.236 Q2085.89 134.94 2087.08 133.933 Q2088.28 132.926 2088.61 132.926 Q2089.08 132.926 2089.1 133.394 Q2089.1 133.628 2088.47 134.214 Q2080.74 142.084 2080.76 156.91 Q2080.76 171.784 2088.28 179.349 Q2089.1 180.169 2089.1 180.427 Q2089.1 180.895 2088.61 180.895 Q2088.28 180.895 2087.13 179.935 Q2085.98 178.974 2084.2 176.773 Q2082.42 174.571 2081.14 171.877 Q2077.97 165.342 2077.97 156.91 Z" fill="#000000" fill-rule="evenodd" fill-opacity="1" /><path clip-path="url(#clip490)" d="M2113.8 149.954 Q2113.8 149.977 2113.66 150.821 L2108.32 172.112 Q2108.04 173.236 2107.24 174.36 Q2106.47 175.508 2105.23 176.492 Q2104.01 177.499 2102.13 178.108 Q2100.28 178.74 2098.15 178.74 Q2094.76 178.74 2093.26 178.014 Q2091.78 177.311 2091.78 175.812 Q2091.78 174.501 2092.6 173.751 Q2093.42 173.025 2094.36 173.025 Q2095.25 173.025 2095.72 173.54 Q2096.18 174.056 2096.18 174.711 Q2096.18 175.438 2095.69 176.164 Q2095.2 176.913 2094.22 177.194 Q2095.79 177.686 2098.06 177.686 Q2102.86 177.686 2104.92 172.603 Q2104.97 172.533 2104.97 172.51 L2106.56 166.162 L2106.49 166.115 Q2106.09 166.584 2105.46 167.123 Q2104.85 167.638 2103.54 168.27 Q2102.23 168.903 2100.94 168.903 Q2098.25 168.903 2096.39 166.842 Q2094.57 164.757 2094.57 161.314 Q2094.57 158.808 2095.57 156.301 Q2096.61 153.772 2098.2 151.921 Q2099.81 150.048 2101.88 148.876 Q2103.96 147.705 2105.97 147.705 Q2107.38 147.705 2108.57 148.549 Q2109.77 149.368 2110.42 150.727 Q2110.54 149.603 2111.17 149.134 Q2111.83 148.666 2112.39 148.666 Q2113.02 148.666 2113.4 149.017 Q2113.8 149.345 2113.8 149.954 M2109.86 152.882 Q2109.86 152.741 2109.77 152.366 Q2109.68 151.968 2109.39 151.336 Q2109.14 150.703 2108.74 150.141 Q2108.34 149.579 2107.61 149.181 Q2106.91 148.759 2106.02 148.759 Q2104.57 148.759 2103.12 149.977 Q2101.66 151.172 2100.66 153.022 Q2099.72 154.802 2098.83 158.245 Q2097.96 161.689 2097.96 163.445 Q2097.96 165.179 2098.71 166.514 Q2099.46 167.849 2101.08 167.849 Q2102.95 167.849 2104.97 166.115 Q2107.05 164.312 2107.4 162.766 L2109.72 153.608 Q2109.86 153.046 2109.86 152.882 Z" fill="#000000" fill-rule="evenodd" fill-opacity="1" /><path clip-path="url(#clip490)" d="M2114.42 180.427 Q2114.42 180.192 2115.03 179.607 Q2122.76 171.737 2122.76 156.91 Q2122.76 142.037 2115.33 134.519 Q2114.42 133.652 2114.42 133.394 Q2114.42 132.926 2114.89 132.926 Q2115.21 132.926 2116.36 133.886 Q2117.53 134.846 2119.29 137.048 Q2121.07 139.25 2122.38 141.943 Q2125.54 148.478 2125.54 156.91 Q2125.54 165.015 2122.52 171.549 Q2121.23 174.29 2119.43 176.585 Q2117.63 178.881 2116.43 179.888 Q2115.24 180.895 2114.89 180.895 Q2114.42 180.895 2114.42 180.427 Z" fill="#000000" fill-rule="evenodd" fill-opacity="1" /><path clip-path="url(#clip490)" d="M2134 192.021 Q2130.55 188.463 2130.55 183.364 Q2130.55 178.249 2134.03 174.707 Q2137.5 171.166 2142.23 171.166 Q2143.41 171.166 2144.41 171.444 Q2145.42 171.707 2146.23 172.248 Q2147.03 172.772 2147.44 173.133 Q2147.87 173.478 2148.44 174.051 L2150.13 171.576 Q2150.39 171.166 2150.65 171.166 Q2150.93 171.166 2150.98 171.33 Q2151.03 171.477 2151.03 171.969 L2151.03 179.937 Q2151.03 180.478 2150.97 180.61 Q2150.9 180.741 2150.49 180.741 Q2150.16 180.741 2150.1 180.642 Q2150.03 180.544 2149.95 180.167 Q2149.44 176.544 2147.41 174.379 Q2145.39 172.215 2142.64 172.215 Q2141.83 172.215 2140.93 172.395 Q2140.05 172.576 2138.73 173.264 Q2137.44 173.953 2136.44 175.084 Q2135.46 176.199 2134.73 178.363 Q2134.01 180.511 2134.01 183.364 Q2134.01 186.184 2134.73 188.348 Q2135.46 190.513 2136.46 191.644 Q2137.47 192.759 2138.78 193.464 Q2140.11 194.169 2141.05 194.366 Q2142 194.546 2142.83 194.546 Q2143.41 194.546 2144.08 194.431 Q2144.75 194.3 2145.75 193.939 Q2146.77 193.562 2147.41 192.677 Q2148.05 191.792 2148.05 190.48 L2148.05 188.332 Q2148.05 187.332 2147.56 187.02 Q2147.06 186.709 2144.92 186.709 L2143.85 186.709 L2143.85 185.676 Q2145.06 185.774 2149.24 185.774 Q2149.62 185.774 2153.34 185.676 L2153.34 186.709 Q2151.74 186.709 2151.38 186.955 Q2151.03 187.184 2151.03 188.184 L2151.03 194.038 Q2151.03 194.808 2150.74 194.808 Q2150.47 194.808 2149.69 194.054 Q2148.92 193.3 2148.57 192.726 Q2147.77 194.136 2146.01 194.858 Q2144.28 195.579 2142.29 195.579 Q2137.46 195.579 2134 192.021 Z" fill="#000000" fill-rule="evenodd" fill-opacity="1" /><path clip-path="url(#clip490)" d="M2155.8 194.841 L2155.8 193.808 Q2157.59 193.808 2158 193.595 Q2158.43 193.366 2158.43 192.283 L2158.43 183.282 Q2158.43 182.036 2157.98 181.725 Q2157.56 181.413 2155.8 181.413 L2155.8 180.364 L2160.48 180.003 L2160.48 183.692 Q2160.95 182.249 2161.95 181.134 Q2162.97 180.003 2164.61 180.003 Q2165.69 180.003 2166.38 180.61 Q2167.08 181.216 2167.08 182.052 Q2167.08 182.79 2166.63 183.167 Q2166.18 183.528 2165.64 183.528 Q2165.04 183.528 2164.61 183.151 Q2164.2 182.757 2164.2 182.085 Q2164.2 181.675 2164.38 181.364 Q2164.58 181.036 2164.72 180.921 Q2164.87 180.806 2164.97 180.774 Q2164.9 180.741 2164.61 180.741 Q2162.76 180.741 2161.69 182.594 Q2160.64 184.43 2160.64 187.053 L2160.64 192.218 Q2160.64 193.185 2161.03 193.497 Q2161.44 193.808 2163.2 193.808 L2163.9 193.808 L2163.9 194.841 Q2162.56 194.743 2159.64 194.743 Q2159.23 194.743 2158.59 194.759 Q2157.95 194.776 2157.12 194.808 Q2156.28 194.841 2155.8 194.841 Z" fill="#000000" fill-rule="evenodd" fill-opacity="1" /><path clip-path="url(#clip490)" d="M2169.52 187.447 Q2169.52 184.282 2171.55 182.036 Q2173.58 179.79 2176.5 179.79 Q2179.45 179.79 2180.98 181.708 Q2182.52 183.626 2182.52 186.381 Q2182.52 186.889 2182.39 186.988 Q2182.26 187.086 2181.68 187.086 L2172.3 187.086 Q2172.3 190.513 2173.32 192.119 Q2174.73 194.366 2177.11 194.366 Q2177.44 194.366 2177.83 194.3 Q2178.22 194.234 2179.03 193.956 Q2179.83 193.661 2180.54 192.89 Q2181.24 192.119 2181.65 190.906 Q2181.75 190.431 2182.08 190.447 Q2182.52 190.447 2182.52 190.841 Q2182.52 191.136 2182.19 191.808 Q2181.88 192.464 2181.27 193.251 Q2180.67 194.038 2179.49 194.628 Q2178.32 195.218 2176.91 195.218 Q2173.96 195.218 2171.73 192.988 Q2169.52 190.742 2169.52 187.447 M2172.34 186.381 L2180.31 186.381 Q2180.31 185.676 2180.17 184.889 Q2180.06 184.102 2179.7 183.02 Q2179.36 181.921 2178.54 181.233 Q2177.72 180.544 2176.5 180.544 Q2175.96 180.544 2175.37 180.774 Q2174.8 181.003 2174.09 181.561 Q2173.39 182.118 2172.9 183.381 Q2172.4 184.643 2172.34 186.381 Z" fill="#000000" fill-rule="evenodd" fill-opacity="1" /><path clip-path="url(#clip490)" d="M2184.28 187.447 Q2184.28 184.282 2186.31 182.036 Q2188.34 179.79 2191.26 179.79 Q2194.21 179.79 2195.74 181.708 Q2197.28 183.626 2197.28 186.381 Q2197.28 186.889 2197.15 186.988 Q2197.02 187.086 2196.44 187.086 L2187.06 187.086 Q2187.06 190.513 2188.08 192.119 Q2189.49 194.366 2191.87 194.366 Q2192.19 194.366 2192.59 194.3 Q2192.98 194.234 2193.79 193.956 Q2194.59 193.661 2195.29 192.89 Q2196 192.119 2196.41 190.906 Q2196.51 190.431 2196.83 190.447 Q2197.28 190.447 2197.28 190.841 Q2197.28 191.136 2196.95 191.808 Q2196.64 192.464 2196.03 193.251 Q2195.42 194.038 2194.24 194.628 Q2193.08 195.218 2191.67 195.218 Q2188.72 195.218 2186.49 192.988 Q2184.28 190.742 2184.28 187.447 M2187.1 186.381 L2195.06 186.381 Q2195.06 185.676 2194.93 184.889 Q2194.82 184.102 2194.46 183.02 Q2194.11 181.921 2193.29 181.233 Q2192.47 180.544 2191.26 180.544 Q2190.72 180.544 2190.13 180.774 Q2189.56 181.003 2188.85 181.561 Q2188.15 182.118 2187.65 183.381 Q2187.16 184.643 2187.1 186.381 Z" fill="#000000" fill-rule="evenodd" fill-opacity="1" /><path clip-path="url(#clip490)" d="M2198.36 194.841 L2198.36 193.808 Q2200.15 193.808 2200.56 193.595 Q2200.97 193.366 2200.97 192.283 L2200.97 183.282 Q2200.97 182.036 2200.53 181.725 Q2200.1 181.413 2198.36 181.413 L2198.36 180.364 L2203.08 180.003 L2203.08 183.528 Q2204.66 180.003 2208.05 180.003 Q2210.58 180.003 2211.58 181.249 Q2212.31 182.085 2212.46 183.02 Q2212.63 183.954 2212.63 186.381 L2212.63 192.792 Q2212.66 193.497 2213.2 193.661 Q2213.74 193.808 2215.25 193.808 L2215.25 194.841 Q2211.82 194.743 2211.48 194.743 Q2211.22 194.743 2207.69 194.841 L2207.69 193.808 Q2209.48 193.808 2209.89 193.595 Q2210.31 193.366 2210.31 192.283 L2210.31 184.463 Q2210.31 182.757 2209.79 181.757 Q2209.26 180.741 2207.82 180.741 Q2206.08 180.741 2204.69 182.2 Q2203.3 183.659 2203.3 186.119 L2203.3 192.283 Q2203.3 193.366 2203.71 193.595 Q2204.13 193.808 2205.9 193.808 L2205.9 194.841 Q2202.48 194.743 2202.15 194.743 Q2201.89 194.743 2198.36 194.841 Z" fill="#000000" fill-rule="evenodd" fill-opacity="1" /><circle clip-path="url(#clip490)" cx="1924.48" cy="219.81" r="23" fill="#e26f46" fill-rule="evenodd" fill-opacity="1" stroke="#000000" stroke-opacity="1" stroke-width="5.12"/>
<path clip-path="url(#clip490)" d="M2021.24 210.048 L2022.16 199.274 L2051.46 199.274 L2052.37 210.048 L2051.18 210.048 Q2050.99 207.893 2050.8 206.652 Q2050.64 205.41 2050.22 204.239 Q2049.82 203.045 2049.3 202.482 Q2048.81 201.897 2047.85 201.452 Q2046.89 200.983 2045.65 200.866 Q2044.41 200.749 2042.54 200.749 Q2040.33 200.749 2039.8 200.843 Q2039.21 200.983 2039.07 201.405 Q2038.93 201.803 2038.93 202.67 L2038.93 227.943 Q2038.93 228.903 2039.12 229.301 Q2039.33 229.676 2040.43 229.98 Q2041.53 230.261 2043.96 230.261 L2045.88 230.261 L2045.88 231.737 Q2043.92 231.597 2036.77 231.597 Q2029.68 231.597 2027.71 231.737 L2027.71 230.261 L2029.63 230.261 Q2032.07 230.261 2033.17 229.98 Q2034.29 229.676 2034.48 229.301 Q2034.67 228.903 2034.67 227.943 L2034.67 202.67 Q2034.67 201.991 2034.62 201.709 Q2034.57 201.428 2034.36 201.194 Q2034.15 200.937 2033.66 200.843 Q2033.19 200.749 2031.08 200.749 Q2029.21 200.749 2027.94 200.866 Q2026.7 200.983 2025.74 201.452 Q2024.78 201.897 2024.27 202.482 Q2023.77 203.045 2023.35 204.239 Q2022.95 205.41 2022.79 206.652 Q2022.63 207.893 2022.44 210.048 L2021.24 210.048 Z" fill="#000000" fill-rule="evenodd" fill-opacity="1" /><path clip-path="url(#clip490)" d="M2059.42 231.737 L2059.42 230.261 Q2061.97 230.261 2062.56 229.957 Q2063.17 229.629 2063.17 228.083 L2063.17 215.224 Q2063.17 213.444 2062.53 212.999 Q2061.92 212.554 2059.42 212.554 L2059.42 211.055 L2066.09 210.54 L2066.09 215.81 Q2066.77 213.749 2068.2 212.156 Q2069.65 210.54 2072 210.54 Q2073.54 210.54 2074.53 211.406 Q2075.53 212.273 2075.53 213.468 Q2075.53 214.522 2074.88 215.06 Q2074.24 215.576 2073.47 215.576 Q2072.61 215.576 2072 215.037 Q2071.41 214.475 2071.41 213.514 Q2071.41 212.929 2071.67 212.484 Q2071.95 212.015 2072.16 211.851 Q2072.37 211.687 2072.51 211.641 Q2072.42 211.594 2072 211.594 Q2069.35 211.594 2067.83 214.24 Q2066.33 216.864 2066.33 220.611 L2066.33 227.989 Q2066.33 229.371 2066.89 229.816 Q2067.48 230.261 2069.98 230.261 L2070.99 230.261 L2070.99 231.737 Q2069.07 231.597 2064.9 231.597 Q2064.31 231.597 2063.4 231.62 Q2062.49 231.643 2061.29 231.69 Q2060.1 231.737 2059.42 231.737 Z" fill="#000000" fill-rule="evenodd" fill-opacity="1" /><path clip-path="url(#clip490)" d="M2077.97 219.745 Q2077.97 211.641 2080.99 205.106 Q2082.28 202.365 2084.09 200.07 Q2085.89 197.775 2087.08 196.767 Q2088.28 195.76 2088.61 195.76 Q2089.08 195.76 2089.1 196.229 Q2089.1 196.463 2088.47 197.048 Q2080.74 204.918 2080.76 219.745 Q2080.76 234.618 2088.28 242.183 Q2089.1 243.003 2089.1 243.261 Q2089.1 243.729 2088.61 243.729 Q2088.28 243.729 2087.13 242.769 Q2085.98 241.809 2084.2 239.607 Q2082.42 237.405 2081.14 234.712 Q2077.97 228.177 2077.97 219.745 Z" fill="#000000" fill-rule="evenodd" fill-opacity="1" /><path clip-path="url(#clip490)" d="M2113.8 212.788 Q2113.8 212.812 2113.66 213.655 L2108.32 234.946 Q2108.04 236.07 2107.24 237.194 Q2106.47 238.342 2105.23 239.326 Q2104.01 240.333 2102.13 240.942 Q2100.28 241.574 2098.15 241.574 Q2094.76 241.574 2093.26 240.848 Q2091.78 240.146 2091.78 238.647 Q2091.78 237.335 2092.6 236.585 Q2093.42 235.859 2094.36 235.859 Q2095.25 235.859 2095.72 236.375 Q2096.18 236.89 2096.18 237.546 Q2096.18 238.272 2095.69 238.998 Q2095.2 239.748 2094.22 240.029 Q2095.79 240.52 2098.06 240.52 Q2102.86 240.52 2104.92 235.438 Q2104.97 235.368 2104.97 235.344 L2106.56 228.997 L2106.49 228.95 Q2106.09 229.418 2105.46 229.957 Q2104.85 230.472 2103.54 231.105 Q2102.23 231.737 2100.94 231.737 Q2098.25 231.737 2096.39 229.676 Q2094.57 227.591 2094.57 224.148 Q2094.57 221.642 2095.57 219.136 Q2096.61 216.606 2098.2 214.756 Q2099.81 212.882 2101.88 211.711 Q2103.96 210.54 2105.97 210.54 Q2107.38 210.54 2108.57 211.383 Q2109.77 212.203 2110.42 213.561 Q2110.54 212.437 2111.17 211.969 Q2111.83 211.5 2112.39 211.5 Q2113.02 211.5 2113.4 211.851 Q2113.8 212.179 2113.8 212.788 M2109.86 215.716 Q2109.86 215.576 2109.77 215.201 Q2109.68 214.803 2109.39 214.17 Q2109.14 213.538 2108.74 212.976 Q2108.34 212.414 2107.61 212.015 Q2106.91 211.594 2106.02 211.594 Q2104.57 211.594 2103.12 212.812 Q2101.66 214.006 2100.66 215.857 Q2099.72 217.637 2098.83 221.08 Q2097.96 224.523 2097.96 226.28 Q2097.96 228.013 2098.71 229.348 Q2099.46 230.683 2101.08 230.683 Q2102.95 230.683 2104.97 228.95 Q2107.05 227.146 2107.4 225.6 L2109.72 216.442 Q2109.86 215.88 2109.86 215.716 Z" fill="#000000" fill-rule="evenodd" fill-opacity="1" /><path clip-path="url(#clip490)" d="M2114.42 243.261 Q2114.42 243.027 2115.03 242.441 Q2122.76 234.571 2122.76 219.745 Q2122.76 204.872 2115.33 197.353 Q2114.42 196.486 2114.42 196.229 Q2114.42 195.76 2114.89 195.76 Q2115.21 195.76 2116.36 196.72 Q2117.53 197.681 2119.29 199.883 Q2121.07 202.084 2122.38 204.778 Q2125.54 211.313 2125.54 219.745 Q2125.54 227.849 2122.52 234.384 Q2121.23 237.124 2119.43 239.42 Q2117.63 241.715 2116.43 242.722 Q2115.24 243.729 2114.89 243.729 Q2114.42 243.729 2114.42 243.261 Z" fill="#000000" fill-rule="evenodd" fill-opacity="1" /><path clip-path="url(#clip490)" d="M2130.55 256.96 L2130.55 255.927 Q2132.34 255.927 2132.75 255.714 Q2133.16 255.485 2133.16 254.402 L2133.16 245.401 Q2133.16 244.155 2132.72 243.844 Q2132.29 243.532 2130.55 243.532 L2130.55 242.483 L2135.27 242.122 L2135.27 245.647 Q2136.85 242.122 2140.24 242.122 Q2144.18 242.122 2144.72 245.401 Q2145.29 244.122 2146.49 243.122 Q2147.7 242.122 2149.59 242.122 Q2152.11 242.122 2153.11 243.368 Q2153.85 244.204 2154 245.139 Q2154.15 246.073 2154.15 248.5 L2154.15 254.911 Q2154.18 255.616 2154.72 255.78 Q2155.26 255.927 2156.77 255.927 L2156.77 256.96 Q2153.34 256.862 2153.02 256.862 Q2152.75 256.862 2149.21 256.96 L2149.21 255.927 Q2151 255.927 2151.41 255.714 Q2151.83 255.485 2151.83 254.402 L2151.83 246.582 Q2151.83 244.877 2151.31 243.876 Q2150.79 242.86 2149.34 242.86 Q2147.6 242.86 2146.21 244.319 Q2144.82 245.778 2144.82 248.238 L2144.82 254.402 Q2144.82 255.485 2145.23 255.714 Q2145.65 255.927 2147.44 255.927 L2147.44 256.96 Q2144.01 256.862 2143.67 256.862 Q2143.41 256.862 2139.88 256.96 L2139.88 255.927 Q2141.67 255.927 2142.08 255.714 Q2142.51 255.485 2142.51 254.402 L2142.51 246.582 Q2142.51 244.877 2141.98 243.876 Q2141.46 242.86 2140.01 242.86 Q2138.28 242.86 2136.88 244.319 Q2135.49 245.778 2135.49 248.238 L2135.49 254.402 Q2135.49 255.485 2135.9 255.714 Q2136.32 255.927 2138.09 255.927 L2138.09 256.96 Q2134.67 256.862 2134.34 256.862 Q2134.08 256.862 2130.55 256.96 Z" fill="#000000" fill-rule="evenodd" fill-opacity="1" /><path clip-path="url(#clip490)" d="M2158.64 253.763 Q2158.64 250.91 2162 249.402 Q2164.02 248.434 2168.18 248.188 L2168.18 246.959 Q2168.18 244.877 2167.08 243.778 Q2166 242.663 2164.62 242.663 Q2162.16 242.663 2160.98 244.204 Q2161.98 244.237 2162.34 244.745 Q2162.7 245.237 2162.7 245.746 Q2162.7 246.418 2162.28 246.86 Q2161.87 247.287 2161.16 247.287 Q2160.49 247.287 2160.05 246.877 Q2159.6 246.451 2159.6 245.713 Q2159.6 244.073 2161.08 242.991 Q2162.57 241.909 2164.69 241.909 Q2167.44 241.909 2169.28 243.762 Q2169.85 244.335 2170.13 245.073 Q2170.43 245.811 2170.46 246.303 Q2170.49 246.778 2170.49 247.729 L2170.49 254.435 Q2170.49 254.632 2170.56 254.96 Q2170.62 255.288 2170.92 255.714 Q2171.23 256.124 2171.74 256.124 Q2172.95 256.124 2172.93 253.976 L2172.93 252.091 L2173.79 252.091 L2173.79 253.976 Q2173.79 255.763 2172.84 256.468 Q2171.9 257.157 2171.03 257.157 Q2169.92 257.157 2169.21 256.337 Q2168.51 255.517 2168.41 254.402 Q2167.9 255.681 2166.74 256.517 Q2165.59 257.337 2164.02 257.337 Q2162.8 257.337 2161.65 257.026 Q2160.52 256.731 2159.57 255.894 Q2158.64 255.042 2158.64 253.763 M2161.23 253.73 Q2161.23 254.976 2162.11 255.78 Q2163 256.583 2164.24 256.583 Q2165.65 256.583 2166.92 255.501 Q2168.18 254.402 2168.18 252.255 L2168.18 248.893 Q2164.46 249.025 2162.83 250.517 Q2161.23 251.992 2161.23 253.73 Z" fill="#000000" fill-rule="evenodd" fill-opacity="1" /><path clip-path="url(#clip490)" d="M2174.59 243.532 L2174.59 242.794 Q2176.13 242.729 2177.15 241.647 Q2178.18 240.548 2178.53 239.204 Q2178.89 237.859 2178.92 236.302 L2179.76 236.302 L2179.76 242.483 L2184.56 242.483 L2184.56 243.532 L2179.76 243.532 L2179.76 252.861 Q2179.76 256.485 2182.02 256.485 Q2182.98 256.485 2183.62 255.501 Q2184.26 254.501 2184.26 252.73 L2184.26 250.877 L2185.1 250.877 L2185.1 252.796 Q2185.1 254.616 2184.26 255.976 Q2183.43 257.337 2181.77 257.337 Q2181.17 257.337 2180.56 257.173 Q2179.97 257.026 2179.18 256.632 Q2178.41 256.222 2177.92 255.239 Q2177.44 254.238 2177.44 252.796 L2177.44 243.532 L2174.59 243.532 Z" fill="#000000" fill-rule="evenodd" fill-opacity="1" /><path clip-path="url(#clip490)" d="M2187.08 256.96 L2187.08 255.927 Q2188.87 255.927 2189.28 255.714 Q2189.7 255.485 2189.7 254.402 L2189.7 245.401 Q2189.7 244.155 2189.26 243.844 Q2188.83 243.532 2187.08 243.532 L2187.08 242.483 L2191.75 242.122 L2191.75 245.811 Q2192.23 244.368 2193.23 243.253 Q2194.24 242.122 2195.88 242.122 Q2196.96 242.122 2197.65 242.729 Q2198.36 243.335 2198.36 244.172 Q2198.36 244.909 2197.9 245.286 Q2197.46 245.647 2196.92 245.647 Q2196.31 245.647 2195.88 245.27 Q2195.47 244.877 2195.47 244.204 Q2195.47 243.794 2195.65 243.483 Q2195.85 243.155 2196 243.04 Q2196.14 242.925 2196.24 242.893 Q2196.18 242.86 2195.88 242.86 Q2194.03 242.86 2192.96 244.713 Q2191.91 246.549 2191.91 249.172 L2191.91 254.337 Q2191.91 255.304 2192.31 255.616 Q2192.72 255.927 2194.47 255.927 L2195.18 255.927 L2195.18 256.96 Q2193.83 256.862 2190.91 256.862 Q2190.5 256.862 2189.87 256.878 Q2189.23 256.895 2188.39 256.927 Q2187.55 256.96 2187.08 256.96 Z" fill="#000000" fill-rule="evenodd" fill-opacity="1" /><path clip-path="url(#clip490)" d="M2199.68 256.96 L2199.68 255.927 Q2201.47 255.927 2201.88 255.714 Q2202.29 255.485 2202.29 254.402 L2202.29 245.368 Q2202.29 244.122 2201.86 243.827 Q2201.45 243.532 2199.81 243.532 L2199.81 242.483 L2204.5 242.122 L2204.5 254.435 Q2204.5 255.435 2204.86 255.681 Q2205.22 255.927 2206.86 255.927 L2206.86 256.96 Q2203.44 256.862 2203.37 256.862 Q2202.91 256.862 2199.68 256.96 M2201.09 236.269 Q2201.09 235.597 2201.6 235.056 Q2202.12 234.498 2202.86 234.498 Q2203.6 234.498 2204.13 235.006 Q2204.65 235.498 2204.65 236.285 Q2204.65 237.056 2204.13 237.564 Q2203.6 238.056 2202.86 238.056 Q2202.09 238.056 2201.58 237.515 Q2201.09 236.974 2201.09 236.269 Z" fill="#000000" fill-rule="evenodd" fill-opacity="1" /><path clip-path="url(#clip490)" d="M2209.16 256.96 L2209.16 255.927 Q2211.78 255.927 2213.45 253.911 Q2213.45 253.911 2216.6 249.91 L2213.27 245.582 Q2212.09 244.073 2211.57 243.811 Q2211.06 243.532 2209.32 243.532 L2209.32 242.483 Q2210.7 242.581 2212.5 242.581 Q2213.5 242.581 2216.14 242.483 L2216.14 243.532 Q2214.96 243.598 2214.96 244.368 Q2214.96 244.631 2215.26 244.975 L2217.88 248.369 L2219.96 245.746 Q2220.47 245.139 2220.47 244.565 Q2220.47 243.63 2219.49 243.532 L2219.49 242.483 Q2220.8 242.581 2222.72 242.581 Q2224.16 242.581 2225.47 242.483 L2225.47 243.532 Q2222.91 243.598 2221.47 245.27 Q2220.83 245.975 2218.39 249.074 L2222.88 254.878 Q2223.42 255.583 2224.03 255.763 Q2224.63 255.927 2226.08 255.927 L2226.08 256.96 Q2224.57 256.862 2222.85 256.862 Q2222.24 256.862 2219.22 256.96 L2219.22 255.927 Q2219.83 255.894 2220.12 255.632 Q2220.44 255.353 2220.44 255.075 Q2220.44 254.944 2219.73 253.976 L2217.17 250.615 Q2214.62 253.632 2214.29 254.337 Q2214.16 254.632 2214.16 254.878 Q2214.16 255.78 2215.12 255.927 L2215.12 256.96 Q2212.71 256.862 2211.94 256.862 Q2210.47 256.862 2209.16 256.96 Z" fill="#000000" fill-rule="evenodd" fill-opacity="1" /></svg>
