<?xml version="1.0" encoding="utf-8"?>
<svg xmlns="http://www.w3.org/2000/svg" xmlns:xlink="http://www.w3.org/1999/xlink" width="600" height="400" viewBox="0 0 2400 1600">
<defs>
  <clipPath id="clip610">
    <rect x="0" y="0" width="2400" height="1600"/>
  </clipPath>
</defs>
<path clip-path="url(#clip610)" d="
M0 1600 L2400 1600 L2400 0 L0 0  Z
  " fill="#ffffff" fill-rule="evenodd" fill-opacity="1"/>
<defs>
  <clipPath id="clip611">
    <rect x="480" y="0" width="1681" height="1600"/>
  </clipPath>
</defs>
<path clip-path="url(#clip610)" d="
M232.389 1486.45 L2352.76 1486.45 L2352.76 47.2441 L232.389 47.2441  Z
  " fill="#ffffff" fill-rule="evenodd" fill-opacity="1"/>
<defs>
  <clipPath id="clip612">
    <rect x="232" y="47" width="2121" height="1440"/>
  </clipPath>
</defs>
<polyline clip-path="url(#clip612)" style="stroke:#000000; stroke-linecap:butt; stroke-linejoin:round; stroke-width:2; stroke-opacity:0.1; fill:none" points="
  292.4,1486.45 292.4,47.2441 
  "/>
<polyline clip-path="url(#clip612)" style="stroke:#000000; stroke-linecap:butt; stroke-linejoin:round; stroke-width:2; stroke-opacity:0.1; fill:none" points="
  950.232,1486.45 950.232,47.2441 
  "/>
<polyline clip-path="url(#clip612)" style="stroke:#000000; stroke-linecap:butt; stroke-linejoin:round; stroke-width:2; stroke-opacity:0.1; fill:none" points="
  1621.49,1486.45 1621.49,47.2441 
  "/>
<polyline clip-path="url(#clip612)" style="stroke:#000000; stroke-linecap:butt; stroke-linejoin:round; stroke-width:2; stroke-opacity:0.1; fill:none" points="
  2292.75,1486.45 2292.75,47.2441 
  "/>
<polyline clip-path="url(#clip610)" style="stroke:#000000; stroke-linecap:butt; stroke-linejoin:round; stroke-width:4; stroke-opacity:1; fill:none" points="
  232.389,1486.45 2352.76,1486.45 
  "/>
<polyline clip-path="url(#clip610)" style="stroke:#000000; stroke-linecap:butt; stroke-linejoin:round; stroke-width:4; stroke-opacity:1; fill:none" points="
  292.4,1486.45 292.4,1467.55 
  "/>
<polyline clip-path="url(#clip610)" style="stroke:#000000; stroke-linecap:butt; stroke-linejoin:round; stroke-width:4; stroke-opacity:1; fill:none" points="
  950.232,1486.45 950.232,1467.55 
  "/>
<polyline clip-path="url(#clip610)" style="stroke:#000000; stroke-linecap:butt; stroke-linejoin:round; stroke-width:4; stroke-opacity:1; fill:none" points="
  1621.49,1486.45 1621.49,1467.55 
  "/>
<polyline clip-path="url(#clip610)" style="stroke:#000000; stroke-linecap:butt; stroke-linejoin:round; stroke-width:4; stroke-opacity:1; fill:none" points="
  2292.75,1486.45 2292.75,1467.55 
  "/>
<path clip-path="url(#clip610)" d="M277.556 1554.64 L277.556 1553.16 L278.259 1553.16 Q280.812 1553.16 281.608 1552.81 Q282.428 1552.43 282.498 1551.08 L282.498 1525.48 Q282.451 1524.23 281.655 1523.86 Q280.859 1523.46 278.259 1523.46 L277.556 1523.46 L277.556 1522.01 Q279.805 1522.1 284.302 1522.1 Q286.129 1522.1 287.698 1522.06 Q289.291 1522.01 289.548 1522.01 L302.595 1522.01 L303.93 1532.81 L302.688 1532.81 Q302.313 1529.88 301.892 1528.36 Q301.494 1526.81 300.51 1525.57 Q299.526 1524.33 297.887 1523.91 Q296.247 1523.46 293.483 1523.46 L289.384 1523.46 Q287.838 1523.46 287.3 1523.77 Q286.761 1524.07 286.761 1525.33 L286.761 1550.94 Q286.761 1552.41 287.745 1552.79 Q288.728 1553.16 292.031 1553.16 L292.898 1553.16 L292.898 1554.64 Q288.822 1554.5 284.7 1554.5 L284.395 1554.5 Q281.397 1554.5 277.556 1554.64 Z" fill="#000000" fill-rule="evenodd" fill-opacity="1" /><path clip-path="url(#clip610)" d="M932.419 1554.71 L932.419 1553.23 Q934.621 1553.23 936.237 1552.55 Q937.853 1551.87 938.322 1551.38 Q938.813 1550.87 939.376 1550.05 L947.245 1538.45 L938.415 1525.1 Q937.736 1524.09 936.822 1523.77 Q935.932 1523.44 933.965 1523.44 L933.051 1523.44 L933.051 1521.94 Q935.698 1522.08 939.282 1522.08 Q944.599 1522.08 946.285 1521.94 L946.285 1523.44 Q944.856 1523.48 944.013 1523.95 Q943.17 1524.4 943.17 1524.87 Q943.17 1525.05 943.498 1525.59 L949.681 1534.84 L955.162 1526.74 Q955.584 1526.06 955.584 1525.64 Q955.584 1524.77 954.787 1524.14 Q954.015 1523.48 952.609 1523.44 L952.609 1521.94 Q954.53 1522.08 958.769 1522.08 Q959.308 1522.08 960.175 1522.06 Q961.065 1522.03 962.236 1521.99 Q963.407 1521.94 964.086 1521.94 L964.086 1523.44 Q959.238 1523.48 957.13 1526.55 L950.548 1536.18 L960.667 1551.5 Q961.393 1552.55 962.306 1552.9 Q963.22 1553.23 965.187 1553.23 L966.101 1553.23 L966.101 1554.71 Q963.079 1554.57 959.87 1554.57 Q954.553 1554.57 952.867 1554.71 L952.867 1553.23 Q954.296 1553.18 955.139 1552.74 Q955.982 1552.27 955.982 1551.78 Q955.982 1551.73 955.724 1551.26 L948.159 1539.79 L941.343 1549.86 Q940.875 1550.63 940.875 1551.01 Q940.875 1551.78 941.624 1552.48 Q942.397 1553.16 943.896 1553.23 L943.896 1554.71 Q942.163 1554.57 937.736 1554.57 Q937.595 1554.57 932.419 1554.71 Z" fill="#000000" fill-rule="evenodd" fill-opacity="1" /><path clip-path="url(#clip610)" d="M1599.74 1554.71 L1599.74 1553.23 Q1601.48 1553.23 1602.58 1552.9 Q1603.68 1552.55 1604.08 1551.92 Q1604.5 1551.26 1604.59 1550.84 Q1604.69 1550.4 1604.69 1549.67 L1604.69 1525.69 Q1604.69 1524.3 1604.08 1523.88 Q1603.49 1523.44 1600.89 1523.44 L1599.74 1523.44 L1599.74 1521.94 L1607.85 1521.94 Q1608.72 1521.94 1608.95 1522.1 Q1609.18 1522.24 1609.54 1522.99 L1619.93 1549.86 L1630.43 1522.85 Q1630.66 1522.17 1630.87 1522.06 Q1631.11 1521.94 1632.02 1521.94 L1640.13 1521.94 L1640.13 1523.44 L1638.98 1523.44 Q1636.38 1523.44 1635.77 1523.88 Q1635.18 1524.3 1635.18 1525.69 L1635.18 1550.96 Q1635.18 1552.34 1635.77 1552.79 Q1636.38 1553.23 1638.98 1553.23 L1640.13 1553.23 L1640.13 1554.71 Q1638.34 1554.57 1633.26 1554.57 Q1628.13 1554.57 1626.35 1554.71 L1626.35 1553.23 L1627.52 1553.23 Q1630.12 1553.23 1630.71 1552.81 Q1631.29 1552.36 1631.29 1550.96 L1631.29 1523.44 L1631.25 1523.44 L1619.47 1553.79 Q1619.14 1554.71 1618.6 1554.71 Q1618.01 1554.71 1617.64 1553.65 L1606.07 1523.81 L1606.02 1523.81 L1606.02 1549.67 Q1606.02 1550.4 1606.12 1550.84 Q1606.21 1551.26 1606.61 1551.92 Q1607.03 1552.55 1608.13 1552.9 Q1609.23 1553.23 1610.96 1553.23 L1610.96 1554.71 Q1605.93 1554.57 1605.34 1554.57 Q1604.78 1554.57 1599.74 1554.71 Z" fill="#000000" fill-rule="evenodd" fill-opacity="1" /><path clip-path="url(#clip610)" d="M2277.9 1554.64 L2277.9 1553.16 L2278.6 1553.16 Q2281.16 1553.16 2281.95 1552.81 Q2282.77 1552.43 2282.84 1551.08 L2282.84 1525.48 Q2282.8 1524.23 2282 1523.86 Q2281.2 1523.46 2278.6 1523.46 L2277.9 1523.46 L2277.9 1522.01 Q2280.15 1522.1 2284.65 1522.1 Q2286.47 1522.1 2288.04 1522.06 Q2289.64 1522.01 2289.89 1522.01 L2302.94 1522.01 L2304.28 1532.81 L2303.03 1532.81 Q2302.66 1529.88 2302.24 1528.36 Q2301.84 1526.81 2300.86 1525.57 Q2299.87 1524.33 2298.23 1523.91 Q2296.59 1523.46 2293.83 1523.46 L2289.73 1523.46 Q2288.18 1523.46 2287.65 1523.77 Q2287.11 1524.07 2287.11 1525.33 L2287.11 1550.94 Q2287.11 1552.41 2288.09 1552.79 Q2289.07 1553.16 2292.38 1553.16 L2293.24 1553.16 L2293.24 1554.64 Q2289.17 1554.5 2285.05 1554.5 L2284.74 1554.5 Q2281.74 1554.5 2277.9 1554.64 Z" fill="#000000" fill-rule="evenodd" fill-opacity="1" /><polyline clip-path="url(#clip612)" style="stroke:#000000; stroke-linecap:butt; stroke-linejoin:round; stroke-width:2; stroke-opacity:0.1; fill:none" points="
  232.389,1445.72 2352.76,1445.72 
  "/>
<polyline clip-path="url(#clip612)" style="stroke:#000000; stroke-linecap:butt; stroke-linejoin:round; stroke-width:2; stroke-opacity:0.1; fill:none" points="
  232.389,1202.27 2352.76,1202.27 
  "/>
<polyline clip-path="url(#clip612)" style="stroke:#000000; stroke-linecap:butt; stroke-linejoin:round; stroke-width:2; stroke-opacity:0.1; fill:none" points="
  232.389,958.816 2352.76,958.816 
  "/>
<polyline clip-path="url(#clip612)" style="stroke:#000000; stroke-linecap:butt; stroke-linejoin:round; stroke-width:2; stroke-opacity:0.1; fill:none" points="
  232.389,715.366 2352.76,715.366 
  "/>
<polyline clip-path="url(#clip612)" style="stroke:#000000; stroke-linecap:butt; stroke-linejoin:round; stroke-width:2; stroke-opacity:0.1; fill:none" points="
  232.389,471.916 2352.76,471.916 
  "/>
<polyline clip-path="url(#clip612)" style="stroke:#000000; stroke-linecap:butt; stroke-linejoin:round; stroke-width:2; stroke-opacity:0.1; fill:none" points="
  232.389,228.467 2352.76,228.467 
  "/>
<polyline clip-path="url(#clip610)" style="stroke:#000000; stroke-linecap:butt; stroke-linejoin:round; stroke-width:4; stroke-opacity:1; fill:none" points="
  232.389,1486.45 232.389,47.2441 
  "/>
<polyline clip-path="url(#clip610)" style="stroke:#000000; stroke-linecap:butt; stroke-linejoin:round; stroke-width:4; stroke-opacity:1; fill:none" points="
  232.389,1445.72 251.287,1445.72 
  "/>
<polyline clip-path="url(#clip610)" style="stroke:#000000; stroke-linecap:butt; stroke-linejoin:round; stroke-width:4; stroke-opacity:1; fill:none" points="
  232.389,1202.27 251.287,1202.27 
  "/>
<polyline clip-path="url(#clip610)" style="stroke:#000000; stroke-linecap:butt; stroke-linejoin:round; stroke-width:4; stroke-opacity:1; fill:none" points="
  232.389,958.816 251.287,958.816 
  "/>
<polyline clip-path="url(#clip610)" style="stroke:#000000; stroke-linecap:butt; stroke-linejoin:round; stroke-width:4; stroke-opacity:1; fill:none" points="
  232.389,715.366 251.287,715.366 
  "/>
<polyline clip-path="url(#clip610)" style="stroke:#000000; stroke-linecap:butt; stroke-linejoin:round; stroke-width:4; stroke-opacity:1; fill:none" points="
  232.389,471.916 251.287,471.916 
  "/>
<polyline clip-path="url(#clip610)" style="stroke:#000000; stroke-linecap:butt; stroke-linejoin:round; stroke-width:4; stroke-opacity:1; fill:none" points="
  232.389,228.467 251.287,228.467 
  "/>
<path clip-path="url(#clip610)" d="M184.445 1431.51 Q180.834 1431.51 179.005 1435.08 Q177.2 1438.62 177.2 1445.75 Q177.2 1452.86 179.005 1456.42 Q180.834 1459.96 184.445 1459.96 Q188.079 1459.96 189.885 1456.42 Q191.713 1452.86 191.713 1445.75 Q191.713 1438.62 189.885 1435.08 Q188.079 1431.51 184.445 1431.51 M184.445 1427.81 Q190.255 1427.81 193.311 1432.42 Q196.389 1437 196.389 1445.75 Q196.389 1454.48 193.311 1459.08 Q190.255 1463.67 184.445 1463.67 Q178.635 1463.67 175.556 1459.08 Q172.501 1454.48 172.501 1445.75 Q172.501 1437 175.556 1432.42 Q178.635 1427.81 184.445 1427.81 Z" fill="#000000" fill-rule="evenodd" fill-opacity="1" /><path clip-path="url(#clip610)" d="M149.306 1215.61 L165.626 1215.61 L165.626 1219.55 L143.681 1219.55 L143.681 1215.61 Q146.343 1212.86 150.927 1208.23 Q155.533 1203.57 156.714 1202.23 Q158.959 1199.71 159.839 1197.97 Q160.741 1196.21 160.741 1194.52 Q160.741 1191.77 158.797 1190.03 Q156.876 1188.3 153.774 1188.3 Q151.575 1188.3 149.121 1189.06 Q146.691 1189.82 143.913 1191.37 L143.913 1186.65 Q146.737 1185.52 149.191 1184.94 Q151.644 1184.36 153.681 1184.36 Q159.052 1184.36 162.246 1187.05 Q165.44 1189.73 165.44 1194.22 Q165.44 1196.35 164.63 1198.27 Q163.843 1200.17 161.737 1202.76 Q161.158 1203.43 158.056 1206.65 Q154.954 1209.85 149.306 1215.61 Z" fill="#000000" fill-rule="evenodd" fill-opacity="1" /><path clip-path="url(#clip610)" d="M175.487 1184.99 L193.843 1184.99 L193.843 1188.92 L179.769 1188.92 L179.769 1197.39 Q180.788 1197.05 181.806 1196.88 Q182.825 1196.7 183.843 1196.7 Q189.63 1196.7 193.01 1199.87 Q196.389 1203.04 196.389 1208.46 Q196.389 1214.04 192.917 1217.14 Q189.445 1220.22 183.126 1220.22 Q180.95 1220.22 178.681 1219.85 Q176.436 1219.48 174.028 1218.74 L174.028 1214.04 Q176.112 1215.17 178.334 1215.73 Q180.556 1216.28 183.033 1216.28 Q187.038 1216.28 189.375 1214.18 Q191.713 1212.07 191.713 1208.46 Q191.713 1204.85 189.375 1202.74 Q187.038 1200.63 183.033 1200.63 Q181.158 1200.63 179.283 1201.05 Q177.431 1201.47 175.487 1202.35 L175.487 1184.99 Z" fill="#000000" fill-rule="evenodd" fill-opacity="1" /><path clip-path="url(#clip610)" d="M144.329 941.536 L162.686 941.536 L162.686 945.471 L148.612 945.471 L148.612 953.943 Q149.63 953.596 150.649 953.434 Q151.667 953.249 152.686 953.249 Q158.473 953.249 161.852 956.42 Q165.232 959.592 165.232 965.008 Q165.232 970.587 161.76 973.689 Q158.288 976.767 151.968 976.767 Q149.792 976.767 147.524 976.397 Q145.279 976.027 142.871 975.286 L142.871 970.587 Q144.954 971.721 147.177 972.277 Q149.399 972.832 151.876 972.832 Q155.88 972.832 158.218 970.726 Q160.556 968.619 160.556 965.008 Q160.556 961.397 158.218 959.291 Q155.88 957.184 151.876 957.184 Q150.001 957.184 148.126 957.601 Q146.274 958.017 144.329 958.897 L144.329 941.536 Z" fill="#000000" fill-rule="evenodd" fill-opacity="1" /><path clip-path="url(#clip610)" d="M184.445 944.615 Q180.834 944.615 179.005 948.18 Q177.2 951.721 177.2 958.851 Q177.2 965.957 179.005 969.522 Q180.834 973.064 184.445 973.064 Q188.079 973.064 189.885 969.522 Q191.713 965.957 191.713 958.851 Q191.713 951.721 189.885 948.18 Q188.079 944.615 184.445 944.615 M184.445 940.911 Q190.255 940.911 193.311 945.518 Q196.389 950.101 196.389 958.851 Q196.389 967.578 193.311 972.184 Q190.255 976.767 184.445 976.767 Q178.635 976.767 175.556 972.184 Q172.501 967.578 172.501 958.851 Q172.501 950.101 175.556 945.518 Q178.635 940.911 184.445 940.911 Z" fill="#000000" fill-rule="evenodd" fill-opacity="1" /><path clip-path="url(#clip610)" d="M144.098 698.086 L166.32 698.086 L166.32 700.077 L153.774 732.646 L148.89 732.646 L160.695 702.021 L144.098 702.021 L144.098 698.086 Z" fill="#000000" fill-rule="evenodd" fill-opacity="1" /><path clip-path="url(#clip610)" d="M175.487 698.086 L193.843 698.086 L193.843 702.021 L179.769 702.021 L179.769 710.494 Q180.788 710.146 181.806 709.984 Q182.825 709.799 183.843 709.799 Q189.63 709.799 193.01 712.97 Q196.389 716.142 196.389 721.558 Q196.389 727.137 192.917 730.239 Q189.445 733.318 183.126 733.318 Q180.95 733.318 178.681 732.947 Q176.436 732.577 174.028 731.836 L174.028 727.137 Q176.112 728.271 178.334 728.827 Q180.556 729.382 183.033 729.382 Q187.038 729.382 189.375 727.276 Q191.713 725.169 191.713 721.558 Q191.713 717.947 189.375 715.841 Q187.038 713.734 183.033 713.734 Q181.158 713.734 179.283 714.151 Q177.431 714.568 175.487 715.447 L175.487 698.086 Z" fill="#000000" fill-rule="evenodd" fill-opacity="1" /><path clip-path="url(#clip610)" d="M114.931 485.261 L122.57 485.261 L122.57 458.896 L114.26 460.562 L114.26 456.303 L122.524 454.636 L127.2 454.636 L127.2 485.261 L134.839 485.261 L134.839 489.196 L114.931 489.196 L114.931 485.261 Z" fill="#000000" fill-rule="evenodd" fill-opacity="1" /><path clip-path="url(#clip610)" d="M154.283 457.715 Q150.672 457.715 148.843 461.28 Q147.038 464.822 147.038 471.951 Q147.038 479.058 148.843 482.622 Q150.672 486.164 154.283 486.164 Q157.917 486.164 159.723 482.622 Q161.552 479.058 161.552 471.951 Q161.552 464.822 159.723 461.28 Q157.917 457.715 154.283 457.715 M154.283 454.011 Q160.093 454.011 163.149 458.618 Q166.227 463.201 166.227 471.951 Q166.227 480.678 163.149 485.284 Q160.093 489.868 154.283 489.868 Q148.473 489.868 145.394 485.284 Q142.339 480.678 142.339 471.951 Q142.339 463.201 145.394 458.618 Q148.473 454.011 154.283 454.011 Z" fill="#000000" fill-rule="evenodd" fill-opacity="1" /><path clip-path="url(#clip610)" d="M184.445 457.715 Q180.834 457.715 179.005 461.28 Q177.2 464.822 177.2 471.951 Q177.2 479.058 179.005 482.622 Q180.834 486.164 184.445 486.164 Q188.079 486.164 189.885 482.622 Q191.713 479.058 191.713 471.951 Q191.713 464.822 189.885 461.28 Q188.079 457.715 184.445 457.715 M184.445 454.011 Q190.255 454.011 193.311 458.618 Q196.389 463.201 196.389 471.951 Q196.389 480.678 193.311 485.284 Q190.255 489.868 184.445 489.868 Q178.635 489.868 175.556 485.284 Q172.501 480.678 172.501 471.951 Q172.501 463.201 175.556 458.618 Q178.635 454.011 184.445 454.011 Z" fill="#000000" fill-rule="evenodd" fill-opacity="1" /><path clip-path="url(#clip610)" d="M115.927 241.812 L123.566 241.812 L123.566 215.446 L115.256 217.113 L115.256 212.853 L123.519 211.187 L128.195 211.187 L128.195 241.812 L135.834 241.812 L135.834 245.747 L115.927 245.747 L115.927 241.812 Z" fill="#000000" fill-rule="evenodd" fill-opacity="1" /><path clip-path="url(#clip610)" d="M149.306 241.812 L165.626 241.812 L165.626 245.747 L143.681 245.747 L143.681 241.812 Q146.343 239.057 150.927 234.427 Q155.533 229.775 156.714 228.432 Q158.959 225.909 159.839 224.173 Q160.741 222.413 160.741 220.724 Q160.741 217.969 158.797 216.233 Q156.876 214.497 153.774 214.497 Q151.575 214.497 149.121 215.261 Q146.691 216.025 143.913 217.576 L143.913 212.853 Q146.737 211.719 149.191 211.14 Q151.644 210.562 153.681 210.562 Q159.052 210.562 162.246 213.247 Q165.44 215.932 165.44 220.423 Q165.44 222.552 164.63 224.474 Q163.843 226.372 161.737 228.964 Q161.158 229.636 158.056 232.853 Q154.954 236.048 149.306 241.812 Z" fill="#000000" fill-rule="evenodd" fill-opacity="1" /><path clip-path="url(#clip610)" d="M175.487 211.187 L193.843 211.187 L193.843 215.122 L179.769 215.122 L179.769 223.594 Q180.788 223.247 181.806 223.085 Q182.825 222.9 183.843 222.9 Q189.63 222.9 193.01 226.071 Q196.389 229.242 196.389 234.659 Q196.389 240.237 192.917 243.339 Q189.445 246.418 183.126 246.418 Q180.95 246.418 178.681 246.048 Q176.436 245.677 174.028 244.937 L174.028 240.237 Q176.112 241.372 178.334 241.927 Q180.556 242.483 183.033 242.483 Q187.038 242.483 189.375 240.376 Q191.713 238.27 191.713 234.659 Q191.713 231.048 189.375 228.941 Q187.038 226.835 183.033 226.835 Q181.158 226.835 179.283 227.251 Q177.431 227.668 175.487 228.548 L175.487 211.187 Z" fill="#000000" fill-rule="evenodd" fill-opacity="1" /><path clip-path="url(#clip610)" d="M20.8447 994.42 Q20.8447 1001.42 26.0645 1005.56 Q31.2844 1009.67 40.2919 1009.67 Q49.2675 1009.67 54.4874 1005.56 Q59.7073 1001.42 59.7073 994.42 Q59.7073 987.418 54.4874 983.344 Q49.2675 979.238 40.2919 979.238 Q31.2844 979.238 26.0645 983.344 Q20.8447 987.418 20.8447 994.42 M63.1448 985.413 L72.4069 976.946 L72.4069 984.712 L64.7999 991.746 Q64.8635 992.797 64.8954 993.37 Q64.9272 993.911 64.9272 994.42 Q64.9272 1004.45 58.2432 1010.46 Q51.5274 1016.45 40.2919 1016.45 Q29.0246 1016.45 22.3406 1010.46 Q15.6248 1004.45 15.6248 994.42 Q15.6248 984.426 22.3406 978.442 Q29.0246 972.458 40.2919 972.458 Q48.5673 972.458 54.4556 975.8 Q60.3439 979.11 63.1448 985.413 Z" fill="#000000" fill-rule="evenodd" fill-opacity="1" /><path clip-path="url(#clip610)" d="M49.9359 963.26 L28.3562 963.26 L28.3562 957.403 L49.7131 957.403 Q54.7739 957.403 57.3202 955.43 Q59.8346 953.457 59.8346 949.51 Q59.8346 944.767 56.8109 942.03 Q53.7872 939.261 48.5673 939.261 L28.3562 939.261 L28.3562 933.405 L64.0042 933.405 L64.0042 939.261 L58.5296 939.261 Q61.7762 941.394 63.3676 944.226 Q64.9272 947.027 64.9272 950.751 Q64.9272 956.894 61.1078 960.077 Q57.2883 963.26 49.9359 963.26 M27.4968 948.523 L27.4968 948.523 Z" fill="#000000" fill-rule="evenodd" fill-opacity="1" /><path clip-path="url(#clip610)" d="M46.0847 905.141 Q46.0847 912.239 47.7079 914.976 Q49.3312 917.713 53.2461 917.713 Q56.3653 917.713 58.2114 915.676 Q60.0256 913.607 60.0256 910.074 Q60.0256 905.205 56.5881 902.276 Q53.1188 899.316 47.3897 899.316 L46.0847 899.316 L46.0847 905.141 M43.6657 893.46 L64.0042 893.46 L64.0042 899.316 L58.5933 899.316 Q61.8398 901.322 63.3994 904.313 Q64.9272 907.305 64.9272 911.634 Q64.9272 917.108 61.8716 920.355 Q58.7843 923.57 53.6281 923.57 Q47.6125 923.57 44.5569 919.559 Q41.5014 915.517 41.5014 907.528 L41.5014 899.316 L40.9285 899.316 Q36.8862 899.316 34.6901 901.99 Q32.4621 904.632 32.4621 909.438 Q32.4621 912.493 33.1941 915.39 Q33.9262 918.286 35.3903 920.96 L29.9795 920.96 Q28.7381 917.745 28.1334 914.721 Q27.4968 911.698 27.4968 908.833 Q27.4968 901.099 31.5072 897.279 Q35.5176 893.46 43.6657 893.46 Z" fill="#000000" fill-rule="evenodd" fill-opacity="1" /><path clip-path="url(#clip610)" d="M42.4881 851.765 L64.0042 851.765 L64.0042 857.621 L42.679 857.621 Q37.6183 857.621 35.1038 859.594 Q32.5894 861.568 32.5894 865.514 Q32.5894 870.257 35.6131 872.994 Q38.6368 875.731 43.8567 875.731 L64.0042 875.731 L64.0042 881.62 L28.3562 881.62 L28.3562 875.731 L33.8944 875.731 Q30.6797 873.631 29.0883 870.798 Q27.4968 867.933 27.4968 864.209 Q27.4968 858.067 31.3163 854.916 Q35.1038 851.765 42.4881 851.765 Z" fill="#000000" fill-rule="evenodd" fill-opacity="1" /><path clip-path="url(#clip610)" d="M18.2347 834.291 L28.3562 834.291 L28.3562 822.228 L32.9077 822.228 L32.9077 834.291 L52.2594 834.291 Q56.6199 834.291 57.8613 833.113 Q59.1026 831.904 59.1026 828.243 L59.1026 822.228 L64.0042 822.228 L64.0042 828.243 Q64.0042 835.023 61.4897 837.601 Q58.9434 840.179 52.2594 840.179 L32.9077 840.179 L32.9077 844.476 L28.3562 844.476 L28.3562 840.179 L18.2347 840.179 L18.2347 834.291 Z" fill="#000000" fill-rule="evenodd" fill-opacity="1" /><path clip-path="url(#clip610)" d="M49.9359 815.13 L28.3562 815.13 L28.3562 809.273 L49.7131 809.273 Q54.7739 809.273 57.3202 807.3 Q59.8346 805.327 59.8346 801.38 Q59.8346 796.637 56.8109 793.9 Q53.7872 791.131 48.5673 791.131 L28.3562 791.131 L28.3562 785.275 L64.0042 785.275 L64.0042 791.131 L58.5296 791.131 Q61.7762 793.264 63.3676 796.096 Q64.9272 798.897 64.9272 802.621 Q64.9272 808.764 61.1078 811.947 Q57.2883 815.13 49.9359 815.13 M27.4968 800.393 L27.4968 800.393 Z" fill="#000000" fill-rule="evenodd" fill-opacity="1" /><path clip-path="url(#clip610)" d="M35.1993 745.457 Q31.2526 743.261 29.3747 740.206 Q27.4968 737.15 27.4968 733.012 Q27.4968 727.442 31.4117 724.419 Q35.2948 721.395 42.4881 721.395 L64.0042 721.395 L64.0042 727.283 L42.679 727.283 Q37.5546 727.283 35.072 729.097 Q32.5894 730.912 32.5894 734.636 Q32.5894 739.187 35.6131 741.829 Q38.6368 744.471 43.8567 744.471 L64.0042 744.471 L64.0042 750.359 L42.679 750.359 Q37.5228 750.359 35.072 752.173 Q32.5894 753.987 32.5894 757.775 Q32.5894 762.263 35.6449 764.904 Q38.6686 767.546 43.8567 767.546 L64.0042 767.546 L64.0042 773.434 L28.3562 773.434 L28.3562 767.546 L33.8944 767.546 Q30.616 765.541 29.0564 762.74 Q27.4968 759.939 27.4968 756.088 Q27.4968 752.205 29.4702 749.499 Q31.4436 746.762 35.1993 745.457 Z" fill="#000000" fill-rule="evenodd" fill-opacity="1" /><path clip-path="url(#clip610)" d="M16.4842 709.459 L16.4842 699.879 L48.8219 687.752 L16.4842 675.562 L16.4842 665.981 L64.0042 665.981 L64.0042 672.252 L22.277 672.252 L54.8694 684.506 L54.8694 690.967 L22.277 703.221 L64.0042 703.221 L64.0042 709.459 L16.4842 709.459 Z" fill="#000000" fill-rule="evenodd" fill-opacity="1" /><path clip-path="url(#clip610)" d="M44.7161 622.981 L47.5806 622.981 L47.5806 649.908 Q53.6281 649.526 56.8109 646.28 Q59.9619 643.001 59.9619 637.177 Q59.9619 633.803 59.1344 630.652 Q58.3069 627.469 56.6518 624.35 L62.1899 624.35 Q63.5267 627.501 64.227 630.811 Q64.9272 634.121 64.9272 637.527 Q64.9272 646.057 59.9619 651.054 Q54.9967 656.019 46.5303 656.019 Q37.7774 656.019 32.6531 651.308 Q27.4968 646.566 27.4968 638.545 Q27.4968 631.352 32.1438 627.182 Q36.7589 622.981 44.7161 622.981 M42.9973 628.837 Q38.1912 628.901 35.3266 631.543 Q32.4621 634.153 32.4621 638.482 Q32.4621 643.383 35.2312 646.343 Q38.0002 649.271 43.0292 649.717 L42.9973 628.837 Z" fill="#000000" fill-rule="evenodd" fill-opacity="1" /><path clip-path="url(#clip610)" d="M18.2347 607.576 L28.3562 607.576 L28.3562 595.513 L32.9077 595.513 L32.9077 607.576 L52.2594 607.576 Q56.6199 607.576 57.8613 606.398 Q59.1026 605.189 59.1026 601.529 L59.1026 595.513 L64.0042 595.513 L64.0042 601.529 Q64.0042 608.308 61.4897 610.886 Q58.9434 613.464 52.2594 613.464 L32.9077 613.464 L32.9077 617.761 L28.3562 617.761 L28.3562 613.464 L18.2347 613.464 L18.2347 607.576 Z" fill="#000000" fill-rule="evenodd" fill-opacity="1" /><path clip-path="url(#clip610)" d="M33.8307 567.154 Q33.2578 568.14 33.0032 569.318 Q32.7167 570.464 32.7167 571.864 Q32.7167 576.83 35.9632 579.503 Q39.1779 582.145 45.2253 582.145 L64.0042 582.145 L64.0042 588.033 L28.3562 588.033 L28.3562 582.145 L33.8944 582.145 Q30.6479 580.299 29.0883 577.339 Q27.4968 574.379 27.4968 570.146 Q27.4968 569.541 27.5923 568.809 Q27.656 568.077 27.8151 567.186 L33.8307 567.154 Z" fill="#000000" fill-rule="evenodd" fill-opacity="1" /><path clip-path="url(#clip610)" d="M28.3562 561.011 L28.3562 555.154 L64.0042 555.154 L64.0042 561.011 L28.3562 561.011 M14.479 561.011 L14.479 555.154 L21.895 555.154 L21.895 561.011 L14.479 561.011 Z" fill="#000000" fill-rule="evenodd" fill-opacity="1" /><path clip-path="url(#clip610)" d="M29.7248 517.247 L35.1993 517.247 Q33.8307 519.729 33.1623 522.244 Q32.4621 524.726 32.4621 527.273 Q32.4621 532.97 36.0905 536.121 Q39.6872 539.272 46.212 539.272 Q52.7369 539.272 56.3653 536.121 Q59.9619 532.97 59.9619 527.273 Q59.9619 524.726 59.2935 522.244 Q58.5933 519.729 57.2247 517.247 L62.6355 517.247 Q63.7814 519.697 64.3543 522.339 Q64.9272 524.949 64.9272 527.909 Q64.9272 535.962 59.8664 540.704 Q54.8057 545.447 46.212 545.447 Q37.491 545.447 32.4939 540.672 Q27.4968 535.866 27.4968 527.527 Q27.4968 524.822 28.0697 522.244 Q28.6108 519.666 29.7248 517.247 Z" fill="#000000" fill-rule="evenodd" fill-opacity="1" /><polyline clip-path="url(#clip612)" style="stroke:#009af9; stroke-linecap:butt; stroke-linejoin:round; stroke-width:4; stroke-opacity:1; fill:none" points="
  292.4,1445.47 305.825,1445.47 319.25,1445.47 332.675,1445.47 346.1,1445.47 359.525,1445.47 372.951,1445.47 386.376,1445.48 399.801,1445.48 413.226,1445.48 
  426.651,1445.48 440.076,1445.48 453.501,1445.48 466.927,1445.49 480.352,1445.49 493.777,1445.49 507.202,1445.49 520.627,1445.49 534.052,1445.5 547.477,1445.5 
  560.903,1445.5 574.328,1445.5 587.753,1445.5 601.178,1445.5 614.603,1445.5 628.028,1445.49 641.453,1445.49 654.878,1445.49 668.304,1445.48 681.729,1445.47 
  695.154,1445.46 708.579,1445.44 722.004,1445.43 735.429,1445.41 748.854,1445.38 762.28,1445.35 775.705,1445.32 789.13,1445.28 802.555,1445.24 815.98,1445.2 
  829.405,1445.15 842.83,1445.1 856.256,1445.05 869.681,1445 883.106,1444.96 896.531,1444.92 909.956,1444.88 923.381,1444.85 936.806,1444.84 950.232,1444.83 
  963.657,1444.83 977.082,1444.83 990.507,1444.83 1003.93,1444.82 1017.36,1444.82 1030.78,1444.81 1044.21,1444.81 1057.63,1444.8 1071.06,1444.79 1084.48,1444.78 
  1097.91,1444.77 1111.33,1444.76 1124.76,1444.75 1138.18,1444.73 1151.61,1444.72 1165.03,1444.7 1178.46,1444.68 1191.88,1444.65 1205.31,1444.63 1218.73,1444.6 
  1232.16,1444.56 1245.58,1444.52 1259.01,1444.48 1272.43,1444.43 1285.86,1444.37 1299.29,1444.31 1312.71,1444.23 1326.14,1444.15 1339.56,1444.05 1352.99,1443.93 
  1366.41,1443.79 1379.84,1443.63 1393.26,1443.44 1406.69,1443.21 1420.11,1442.92 1433.54,1442.58 1446.96,1442.14 1460.39,1441.59 1473.81,1440.88 1487.24,1439.93 
  1500.66,1438.65 1514.09,1436.86 1527.51,1434.24 1540.94,1430.21 1554.36,1423.61 1567.79,1411.84 1581.21,1388.89 1594.64,1342.55 1608.06,1266.08 1621.49,1215.74 
  1634.91,1300.13 1648.34,1383.58 1661.76,1416.23 1675.19,1429.28 1688.61,1435.48 1702.04,1438.85 1715.46,1440.88 1728.89,1442.18 1742.31,1443.05 1755.74,1443.67 
  1769.17,1444.11 1782.59,1444.44 1796.02,1444.69 1809.44,1444.88 1822.87,1445.03 1836.29,1445.14 1849.72,1445.23 1863.14,1445.3 1876.57,1445.36 1889.99,1445.4 
  1903.42,1445.43 1916.84,1445.46 1930.27,1445.48 1943.69,1445.49 1957.12,1445.5 1970.54,1445.51 1983.97,1445.52 1997.39,1445.52 2010.82,1445.52 2024.24,1445.52 
  2037.67,1445.52 2051.09,1445.52 2064.52,1445.51 2077.94,1445.51 2091.37,1445.51 2104.79,1445.5 2118.22,1445.5 2131.64,1445.49 2145.07,1445.49 2158.49,1445.49 
  2171.92,1445.48 2185.34,1445.48 2198.77,1445.48 2212.19,1445.48 2225.62,1445.47 2239.04,1445.47 2252.47,1445.47 2265.9,1445.47 2279.32,1445.47 2292.75,1445.47 
  
  "/>
<polyline clip-path="url(#clip612)" style="stroke:#e26f46; stroke-linecap:butt; stroke-linejoin:round; stroke-width:4; stroke-opacity:1; fill:none" points="
  292.4,1445.71 305.825,1445.71 319.25,1445.71 332.675,1445.71 346.1,1445.71 359.525,1445.71 372.951,1445.71 386.376,1445.71 399.801,1445.71 413.226,1445.71 
  426.651,1445.71 440.076,1445.71 453.501,1445.71 466.927,1445.71 480.352,1445.71 493.777,1445.71 507.202,1445.71 520.627,1445.71 534.052,1445.71 547.477,1445.71 
  560.903,1445.71 574.328,1445.71 587.753,1445.72 601.178,1445.72 614.603,1445.72 628.028,1445.72 641.453,1445.72 654.878,1445.72 668.304,1445.72 681.729,1445.72 
  695.154,1445.72 708.579,1445.72 722.004,1445.72 735.429,1445.71 748.854,1445.71 762.28,1445.71 775.705,1445.71 789.13,1445.71 802.555,1445.71 815.98,1445.71 
  829.405,1445.71 842.83,1445.71 856.256,1445.7 869.681,1445.7 883.106,1445.7 896.531,1445.7 909.956,1445.7 923.381,1445.7 936.806,1445.7 950.232,1445.7 
  963.657,1445.7 977.082,1445.7 990.507,1445.7 1003.93,1445.7 1017.36,1445.7 1030.78,1445.69 1044.21,1445.69 1057.63,1445.69 1071.06,1445.69 1084.48,1445.69 
  1097.91,1445.69 1111.33,1445.69 1124.76,1445.69 1138.18,1445.69 1151.61,1445.69 1165.03,1445.69 1178.46,1445.69 1191.88,1445.69 1205.31,1445.69 1218.73,1445.69 
  1232.16,1445.68 1245.58,1445.68 1259.01,1445.68 1272.43,1445.68 1285.86,1445.68 1299.29,1445.67 1312.71,1445.67 1326.14,1445.66 1339.56,1445.66 1352.99,1445.65 
  1366.41,1445.65 1379.84,1445.64 1393.26,1445.63 1406.69,1445.61 1420.11,1445.6 1433.54,1445.57 1446.96,1445.54 1460.39,1445.48 1473.81,1445.41 1487.24,1445.28 
  1500.66,1445.07 1514.09,1444.68 1527.51,1443.89 1540.94,1442.09 1554.36,1437.43 1567.79,1423.34 1581.21,1373.41 1594.64,1182.89 1608.06,619.765 1621.49,87.9763 
  1634.91,907.264 1648.34,1356.58 1661.76,1428.77 1675.19,1441.16 1688.61,1444.08 1702.04,1444.99 1715.46,1445.34 1728.89,1445.5 1742.31,1445.58 1755.74,1445.63 
  1769.17,1445.66 1782.59,1445.68 1796.02,1445.69 1809.44,1445.7 1822.87,1445.7 1836.29,1445.71 1849.72,1445.71 1863.14,1445.71 1876.57,1445.71 1889.99,1445.71 
  1903.42,1445.71 1916.84,1445.72 1930.27,1445.72 1943.69,1445.72 1957.12,1445.72 1970.54,1445.72 1983.97,1445.72 1997.39,1445.72 2010.82,1445.72 2024.24,1445.72 
  2037.67,1445.72 2051.09,1445.72 2064.52,1445.71 2077.94,1445.71 2091.37,1445.71 2104.79,1445.71 2118.22,1445.71 2131.64,1445.71 2145.07,1445.71 2158.49,1445.71 
  2171.92,1445.71 2185.34,1445.71 2198.77,1445.71 2212.19,1445.71 2225.62,1445.71 2239.04,1445.71 2252.47,1445.71 2265.9,1445.71 2279.32,1445.71 2292.75,1445.71 
  
  "/>
<polyline clip-path="url(#clip612)" style="stroke:#3da44d; stroke-linecap:butt; stroke-linejoin:round; stroke-width:4; stroke-opacity:1; fill:none" points="
  292.4,1445.59 305.825,1445.59 319.25,1445.59 332.675,1445.59 346.1,1445.59 359.525,1445.59 372.951,1445.59 386.376,1445.6 399.801,1445.6 413.226,1445.6 
  426.651,1445.6 440.076,1445.6 453.501,1445.6 466.927,1445.6 480.352,1445.61 493.777,1445.61 507.202,1445.61 520.627,1445.61 534.052,1445.62 547.477,1445.62 
  560.903,1445.63 574.328,1445.63 587.753,1445.63 601.178,1445.64 614.603,1445.65 628.028,1445.65 641.453,1445.66 654.878,1445.66 668.304,1445.66 681.729,1445.66 
  695.154,1445.66 708.579,1445.65 722.004,1445.63 735.429,1445.62 748.854,1445.6 762.28,1445.58 775.705,1445.56 789.13,1445.53 802.555,1445.5 815.98,1445.48 
  829.405,1445.45 842.83,1445.42 856.256,1445.39 869.681,1445.36 883.106,1445.34 896.531,1445.32 909.956,1445.3 923.381,1445.28 936.806,1445.28 950.232,1445.27 
  963.657,1445.27 977.082,1445.27 990.507,1445.27 1003.93,1445.27 1017.36,1445.27 1030.78,1445.27 1044.21,1445.26 1057.63,1445.26 1071.06,1445.26 1084.48,1445.25 
  1097.91,1445.25 1111.33,1445.24 1124.76,1445.23 1138.18,1445.23 1151.61,1445.22 1165.03,1445.21 1178.46,1445.2 1191.88,1445.19 1205.31,1445.18 1218.73,1445.17 
  1232.16,1445.16 1245.58,1445.14 1259.01,1445.13 1272.43,1445.11 1285.86,1445.09 1299.29,1445.07 1312.71,1445.04 1326.14,1445.01 1339.56,1444.98 1352.99,1444.94 
  1366.41,1444.9 1379.84,1444.85 1393.26,1444.79 1406.69,1444.72 1420.11,1444.63 1433.54,1444.53 1446.96,1444.39 1460.39,1444.21 1473.81,1443.98 1487.24,1443.66 
  1500.66,1443.21 1514.09,1442.54 1527.51,1441.5 1540.94,1439.77 1554.36,1436.74 1567.79,1430.95 1581.21,1419.18 1594.64,1395.12 1608.06,1356.03 1621.49,1330.73 
  1634.91,1373.3 1648.34,1416.25 1661.76,1432.87 1675.19,1439.06 1688.61,1441.72 1702.04,1443.05 1715.46,1443.8 1728.89,1444.27 1742.31,1444.58 1755.74,1444.81 
  1769.17,1444.98 1782.59,1445.11 1796.02,1445.21 1809.44,1445.3 1822.87,1445.37 1836.29,1445.43 1849.72,1445.48 1863.14,1445.53 1876.57,1445.57 1889.99,1445.6 
  1903.42,1445.63 1916.84,1445.66 1930.27,1445.68 1943.69,1445.7 1957.12,1445.72 1970.54,1445.7 1983.97,1445.69 1997.39,1445.67 2010.82,1445.66 2024.24,1445.65 
  2037.67,1445.65 2051.09,1445.64 2064.52,1445.63 2077.94,1445.63 2091.37,1445.62 2104.79,1445.62 2118.22,1445.61 2131.64,1445.61 2145.07,1445.61 2158.49,1445.6 
  2171.92,1445.6 2185.34,1445.6 2198.77,1445.6 2212.19,1445.6 2225.62,1445.59 2239.04,1445.59 2252.47,1445.59 2265.9,1445.59 2279.32,1445.59 2292.75,1445.59 
  
  "/>
<path clip-path="url(#clip610)" d="
M1886.88 338.83 L2282.08 338.83 L2282.08 95.2176 L1886.88 95.2176  Z
  " fill="#ffffff" fill-rule="evenodd" fill-opacity="1"/>
<polyline clip-path="url(#clip610)" style="stroke:#000000; stroke-linecap:butt; stroke-linejoin:round; stroke-width:4; stroke-opacity:1; fill:none" points="
  1886.88,338.83 2282.08,338.83 2282.08,95.2176 1886.88,95.2176 1886.88,338.83 
  "/>
<polyline clip-path="url(#clip610)" style="stroke:#009af9; stroke-linecap:butt; stroke-linejoin:round; stroke-width:4; stroke-opacity:1; fill:none" points="
  1910.44,156.121 2051.8,156.121 
  "/>
<path clip-path="url(#clip610)" d="M2075.36 153.218 L2076.27 142.444 L2105.57 142.444 L2106.48 153.218 L2105.29 153.218 Q2105.1 151.064 2104.92 149.822 Q2104.75 148.581 2104.33 147.41 Q2103.93 146.215 2103.42 145.653 Q2102.92 145.067 2101.96 144.622 Q2101 144.154 2099.76 144.037 Q2098.52 143.92 2096.65 143.92 Q2094.45 143.92 2093.91 144.013 Q2093.32 144.154 2093.18 144.575 Q2093.04 144.974 2093.04 145.84 L2093.04 171.113 Q2093.04 172.073 2093.23 172.472 Q2093.44 172.846 2094.54 173.151 Q2095.64 173.432 2098.08 173.432 L2100 173.432 L2100 174.908 Q2098.03 174.767 2090.89 174.767 Q2083.79 174.767 2081.82 174.908 L2081.82 173.432 L2083.74 173.432 Q2086.18 173.432 2087.28 173.151 Q2088.4 172.846 2088.59 172.472 Q2088.78 172.073 2088.78 171.113 L2088.78 145.84 Q2088.78 145.161 2088.73 144.88 Q2088.68 144.599 2088.47 144.365 Q2088.26 144.107 2087.77 144.013 Q2087.3 143.92 2085.19 143.92 Q2083.32 143.92 2082.06 144.037 Q2080.81 144.154 2079.85 144.622 Q2078.89 145.067 2078.38 145.653 Q2077.89 146.215 2077.46 147.41 Q2077.07 148.581 2076.9 149.822 Q2076.74 151.064 2076.55 153.218 L2075.36 153.218 Z" fill="#000000" fill-rule="evenodd" fill-opacity="1" /><path clip-path="url(#clip610)" d="M2113.53 174.908 L2113.53 173.432 Q2116.08 173.432 2116.67 173.127 Q2117.28 172.8 2117.28 171.254 L2117.28 158.395 Q2117.28 156.615 2116.65 156.17 Q2116.04 155.725 2113.53 155.725 L2113.53 154.226 L2120.21 153.71 L2120.21 158.98 Q2120.88 156.919 2122.31 155.326 Q2123.77 153.71 2126.11 153.71 Q2127.65 153.71 2128.64 154.577 Q2129.64 155.444 2129.64 156.638 Q2129.64 157.692 2128.99 158.231 Q2128.36 158.746 2127.58 158.746 Q2126.72 158.746 2126.11 158.207 Q2125.52 157.645 2125.52 156.685 Q2125.52 156.099 2125.78 155.654 Q2126.06 155.186 2126.27 155.022 Q2126.48 154.858 2126.62 154.811 Q2126.53 154.764 2126.11 154.764 Q2123.46 154.764 2121.94 157.411 Q2120.44 160.034 2120.44 163.782 L2120.44 171.16 Q2120.44 172.542 2121 172.987 Q2121.59 173.432 2124.09 173.432 L2125.1 173.432 L2125.1 174.908 Q2123.18 174.767 2119.01 174.767 Q2118.43 174.767 2117.51 174.79 Q2116.6 174.814 2115.4 174.861 Q2114.21 174.908 2113.53 174.908 Z" fill="#000000" fill-rule="evenodd" fill-opacity="1" /><path clip-path="url(#clip610)" d="M2132.08 162.915 Q2132.08 154.811 2135.11 148.276 Q2136.39 145.536 2138.2 143.24 Q2140 140.945 2141.2 139.938 Q2142.39 138.931 2142.72 138.931 Q2143.19 138.931 2143.21 139.399 Q2143.21 139.633 2142.58 140.219 Q2134.85 148.089 2134.87 162.915 Q2134.87 177.789 2142.39 185.354 Q2143.21 186.174 2143.21 186.431 Q2143.21 186.9 2142.72 186.9 Q2142.39 186.9 2141.24 185.94 Q2140.1 184.979 2138.32 182.777 Q2136.53 180.576 2135.25 177.882 Q2132.08 171.347 2132.08 162.915 Z" fill="#000000" fill-rule="evenodd" fill-opacity="1" /><path clip-path="url(#clip610)" d="M2167.91 155.959 Q2167.91 155.982 2167.77 156.825 L2162.43 178.116 Q2162.15 179.241 2161.35 180.365 Q2160.58 181.513 2159.34 182.496 Q2158.12 183.504 2156.24 184.113 Q2154.39 184.745 2152.26 184.745 Q2148.87 184.745 2147.37 184.019 Q2145.89 183.316 2145.89 181.817 Q2145.89 180.506 2146.71 179.756 Q2147.53 179.03 2148.47 179.03 Q2149.36 179.03 2149.83 179.545 Q2150.3 180.06 2150.3 180.716 Q2150.3 181.442 2149.8 182.169 Q2149.31 182.918 2148.33 183.199 Q2149.9 183.691 2152.17 183.691 Q2156.97 183.691 2159.03 178.608 Q2159.08 178.538 2159.08 178.515 L2160.67 172.167 L2160.6 172.12 Q2160.2 172.589 2159.57 173.127 Q2158.96 173.643 2157.65 174.275 Q2156.34 174.908 2155.05 174.908 Q2152.36 174.908 2150.51 172.846 Q2148.68 170.762 2148.68 167.319 Q2148.68 164.812 2149.69 162.306 Q2150.72 159.777 2152.31 157.926 Q2153.93 156.052 2155.99 154.881 Q2158.07 153.71 2160.09 153.71 Q2161.49 153.71 2162.69 154.553 Q2163.88 155.373 2164.54 156.732 Q2164.65 155.607 2165.29 155.139 Q2165.94 154.671 2166.5 154.671 Q2167.14 154.671 2167.51 155.022 Q2167.91 155.35 2167.91 155.959 M2163.97 158.887 Q2163.97 158.746 2163.88 158.371 Q2163.79 157.973 2163.51 157.341 Q2163.25 156.708 2162.85 156.146 Q2162.45 155.584 2161.73 155.186 Q2161.02 154.764 2160.13 154.764 Q2158.68 154.764 2157.23 155.982 Q2155.78 157.177 2154.77 159.027 Q2153.83 160.807 2152.94 164.25 Q2152.08 167.693 2152.08 169.45 Q2152.08 171.183 2152.83 172.518 Q2153.57 173.854 2155.19 173.854 Q2157.06 173.854 2159.08 172.12 Q2161.16 170.317 2161.51 168.771 L2163.83 159.613 Q2163.97 159.051 2163.97 158.887 Z" fill="#000000" fill-rule="evenodd" fill-opacity="1" /><path clip-path="url(#clip610)" d="M2172.56 186.431 Q2172.56 186.197 2173.17 185.612 Q2180.9 177.742 2180.9 162.915 Q2180.9 148.042 2173.47 140.523 Q2172.56 139.657 2172.56 139.399 Q2172.56 138.931 2173.03 138.931 Q2173.36 138.931 2174.51 139.891 Q2175.68 140.851 2177.43 143.053 Q2179.21 145.255 2180.52 147.948 Q2183.69 154.483 2183.69 162.915 Q2183.69 171.019 2180.67 177.554 Q2179.38 180.295 2177.57 182.59 Q2175.77 184.886 2174.58 185.893 Q2173.38 186.9 2173.03 186.9 Q2172.56 186.9 2172.56 186.431 Z" fill="#000000" fill-rule="evenodd" fill-opacity="1" /><polyline clip-path="url(#clip610)" style="stroke:#e26f46; stroke-linecap:butt; stroke-linejoin:round; stroke-width:4; stroke-opacity:1; fill:none" points="
  1910.44,217.024 2051.8,217.024 
  "/>
<path clip-path="url(#clip610)" d="M2075.36 225.505 Q2075.36 220.937 2078.54 217.775 Q2081.73 214.613 2086.04 214.613 Q2089.69 214.613 2092.08 217.588 L2092.08 207.212 Q2092.08 205.432 2091.45 204.987 Q2090.84 204.542 2088.36 204.542 L2088.36 203.043 L2095.27 202.527 L2095.27 231.641 Q2095.27 233.421 2095.87 233.89 Q2096.51 234.335 2098.99 234.335 L2098.99 235.811 L2091.94 236.349 L2091.94 233.164 Q2089.46 236.326 2085.52 236.349 Q2081.4 236.349 2078.38 233.187 Q2075.36 230.025 2075.36 225.505 M2079.34 225.552 Q2079.34 230.002 2080.72 232.203 Q2082.64 235.272 2085.76 235.272 Q2089.32 235.272 2091.42 231.922 Q2091.96 231.103 2091.94 230.142 L2091.94 220.305 Q2091.94 219.345 2091.42 218.548 Q2089.46 215.667 2086.25 215.667 Q2082.9 215.667 2080.81 218.736 Q2079.34 221.031 2079.34 225.552 Z" fill="#000000" fill-rule="evenodd" fill-opacity="1" /><path clip-path="url(#clip610)" d="M2101.9 225.247 Q2101.9 220.726 2104.8 217.518 Q2107.7 214.309 2111.87 214.309 Q2116.09 214.309 2118.27 217.049 Q2120.47 219.79 2120.47 223.725 Q2120.47 224.451 2120.28 224.591 Q2120.1 224.732 2119.28 224.732 L2105.88 224.732 Q2105.88 229.627 2107.33 231.922 Q2109.34 235.131 2112.74 235.131 Q2113.21 235.131 2113.77 235.038 Q2114.33 234.944 2115.48 234.546 Q2116.63 234.124 2117.64 233.023 Q2118.64 231.922 2119.23 230.189 Q2119.37 229.51 2119.84 229.533 Q2120.47 229.533 2120.47 230.095 Q2120.47 230.517 2120 231.477 Q2119.56 232.414 2118.69 233.539 Q2117.82 234.663 2116.14 235.506 Q2114.47 236.349 2112.46 236.349 Q2108.24 236.349 2105.06 233.164 Q2101.9 229.955 2101.9 225.247 M2105.92 223.725 L2117.31 223.725 Q2117.31 222.717 2117.12 221.593 Q2116.96 220.469 2116.44 218.923 Q2115.95 217.354 2114.78 216.37 Q2113.61 215.386 2111.87 215.386 Q2111.1 215.386 2110.26 215.714 Q2109.44 216.042 2108.43 216.838 Q2107.42 217.635 2106.72 219.438 Q2106.02 221.242 2105.92 223.725 Z" fill="#000000" fill-rule="evenodd" fill-opacity="1" /><path clip-path="url(#clip610)" d="M2120.89 216.628 L2120.89 215.574 Q2123.1 215.48 2124.55 213.934 Q2126.02 212.365 2126.52 210.444 Q2127.03 208.523 2127.08 206.298 L2128.27 206.298 L2128.27 215.129 L2135.13 215.129 L2135.13 216.628 L2128.27 216.628 L2128.27 229.955 Q2128.27 235.131 2131.5 235.131 Q2132.89 235.131 2133.8 233.726 Q2134.71 232.297 2134.71 229.768 L2134.71 227.121 L2135.91 227.121 L2135.91 229.861 Q2135.91 232.461 2134.71 234.405 Q2133.52 236.349 2131.15 236.349 Q2130.29 236.349 2129.42 236.115 Q2128.58 235.904 2127.45 235.342 Q2126.35 234.757 2125.65 233.351 Q2124.97 231.922 2124.97 229.861 L2124.97 216.628 L2120.89 216.628 Z" fill="#000000" fill-rule="evenodd" fill-opacity="1" /><path clip-path="url(#clip610)" d="M2139.31 223.818 Q2139.31 215.714 2142.33 209.179 Q2143.62 206.439 2145.42 204.143 Q2147.23 201.848 2148.42 200.841 Q2149.62 199.834 2149.94 199.834 Q2150.41 199.834 2150.43 200.302 Q2150.43 200.536 2149.8 201.122 Q2142.07 208.992 2142.1 223.818 Q2142.1 238.692 2149.62 246.257 Q2150.43 247.077 2150.43 247.334 Q2150.43 247.803 2149.94 247.803 Q2149.62 247.803 2148.47 246.843 Q2147.32 245.882 2145.54 243.68 Q2143.76 241.479 2142.47 238.785 Q2139.31 232.25 2139.31 223.818 Z" fill="#000000" fill-rule="evenodd" fill-opacity="1" /><path clip-path="url(#clip610)" d="M2175.13 216.862 Q2175.13 216.885 2174.99 217.728 L2169.65 239.019 Q2169.37 240.144 2168.58 241.268 Q2167.8 242.416 2166.56 243.399 Q2165.34 244.407 2163.47 245.016 Q2161.62 245.648 2159.49 245.648 Q2156.09 245.648 2154.59 244.922 Q2153.12 244.219 2153.12 242.72 Q2153.12 241.409 2153.94 240.659 Q2154.76 239.933 2155.69 239.933 Q2156.58 239.933 2157.05 240.448 Q2157.52 240.963 2157.52 241.619 Q2157.52 242.345 2157.03 243.072 Q2156.54 243.821 2155.55 244.102 Q2157.12 244.594 2159.39 244.594 Q2164.2 244.594 2166.26 239.511 Q2166.3 239.441 2166.3 239.418 L2167.9 233.07 L2167.83 233.023 Q2167.43 233.492 2166.8 234.03 Q2166.19 234.546 2164.87 235.178 Q2163.56 235.811 2162.27 235.811 Q2159.58 235.811 2157.73 233.749 Q2155.9 231.665 2155.9 228.222 Q2155.9 225.715 2156.91 223.209 Q2157.94 220.68 2159.53 218.829 Q2161.15 216.955 2163.21 215.784 Q2165.3 214.613 2167.31 214.613 Q2168.72 214.613 2169.91 215.456 Q2171.11 216.276 2171.76 217.635 Q2171.88 216.51 2172.51 216.042 Q2173.17 215.574 2173.73 215.574 Q2174.36 215.574 2174.74 215.925 Q2175.13 216.253 2175.13 216.862 M2171.2 219.79 Q2171.2 219.649 2171.11 219.274 Q2171.01 218.876 2170.73 218.244 Q2170.47 217.611 2170.07 217.049 Q2169.68 216.487 2168.95 216.089 Q2168.25 215.667 2167.36 215.667 Q2165.91 215.667 2164.45 216.885 Q2163 218.08 2161.99 219.93 Q2161.06 221.71 2160.17 225.153 Q2159.3 228.596 2159.3 230.353 Q2159.3 232.086 2160.05 233.421 Q2160.8 234.757 2162.42 234.757 Q2164.29 234.757 2166.3 233.023 Q2168.39 231.22 2168.74 229.674 L2171.06 220.516 Q2171.2 219.954 2171.2 219.79 Z" fill="#000000" fill-rule="evenodd" fill-opacity="1" /><path clip-path="url(#clip610)" d="M2179.79 247.334 Q2179.79 247.1 2180.39 246.515 Q2188.12 238.645 2188.12 223.818 Q2188.12 208.945 2180.7 201.426 Q2179.79 200.56 2179.79 200.302 Q2179.79 199.834 2180.25 199.834 Q2180.58 199.834 2181.73 200.794 Q2182.9 201.754 2184.66 203.956 Q2186.44 206.158 2187.75 208.851 Q2190.91 215.386 2190.91 223.818 Q2190.91 231.922 2187.89 238.457 Q2186.6 241.198 2184.8 243.493 Q2182.99 245.789 2181.8 246.796 Q2180.61 247.803 2180.25 247.803 Q2179.79 247.803 2179.79 247.334 Z" fill="#000000" fill-rule="evenodd" fill-opacity="1" /><polyline clip-path="url(#clip610)" style="stroke:#3da44d; stroke-linecap:butt; stroke-linejoin:round; stroke-width:4; stroke-opacity:1; fill:none" points="
  1910.44,277.927 2051.8,277.927 
  "/>
<path clip-path="url(#clip610)" d="M2075.36 297.853 L2083.72 284.95 L2087.12 302.072 L2087.76 305.191 Q2087.9 304.376 2088.33 302.993 Q2088.79 301.575 2088.86 301.221 L2100.1 258.081 Q2100.17 257.797 2100.28 257.336 Q2100.42 256.84 2100.49 256.663 Q2100.56 256.486 2100.67 256.131 Q2100.77 255.777 2100.84 255.67 Q2100.91 255.529 2101.02 255.28 Q2101.13 255.032 2101.27 254.961 Q2101.41 254.891 2101.59 254.749 Q2101.76 254.607 2101.98 254.571 Q2102.23 254.536 2102.47 254.501 Q2102.72 254.465 2103.08 254.465 L2109.42 254.465 Q2111.65 254.465 2111.65 255.918 Q2111.65 257.372 2109.49 257.372 L2103.29 257.372 L2088.65 313.344 Q2088.44 314.159 2088.26 314.478 Q2088.12 314.797 2087.62 315.081 Q2087.12 315.364 2086.24 315.364 L2085.53 315.364 L2080.89 292.288 L2076.53 299.023 L2075.36 297.853 Z" fill="#000000" fill-rule="evenodd" fill-opacity="1" /><path clip-path="url(#clip610)" d="
M2109.27 257.402 L2234.96 257.402 L2234.96 254.387 L2109.27 254.387  Z
  " fill="#000000" fill-rule="evenodd" fill-opacity="1"/>
<path clip-path="url(#clip610)" d="M2114.39 292.721 Q2114.39 288.154 2117.58 284.992 Q2120.76 281.83 2125.07 281.83 Q2128.73 281.83 2131.12 284.804 L2131.12 274.428 Q2131.12 272.648 2130.48 272.203 Q2129.88 271.758 2127.39 271.758 L2127.39 270.259 L2134.3 269.744 L2134.3 298.858 Q2134.3 300.638 2134.91 301.106 Q2135.54 301.551 2138.03 301.551 L2138.03 303.027 L2130.98 303.566 L2130.98 300.38 Q2128.49 303.542 2124.56 303.566 Q2120.44 303.566 2117.41 300.404 Q2114.39 297.242 2114.39 292.721 M2118.37 292.768 Q2118.37 297.218 2119.76 299.42 Q2121.68 302.488 2124.79 302.488 Q2128.35 302.488 2130.46 299.139 Q2131 298.319 2130.98 297.359 L2130.98 287.521 Q2130.98 286.561 2130.46 285.765 Q2128.49 282.884 2125.28 282.884 Q2121.93 282.884 2119.85 285.952 Q2118.37 288.247 2118.37 292.768 Z" fill="#000000" fill-rule="evenodd" fill-opacity="1" /><path clip-path="url(#clip610)" d="M2140.93 292.464 Q2140.93 287.943 2143.84 284.734 Q2146.74 281.525 2150.91 281.525 Q2155.13 281.525 2157.3 284.266 Q2159.51 287.006 2159.51 290.941 Q2159.51 291.667 2159.32 291.808 Q2159.13 291.948 2158.31 291.948 L2144.91 291.948 Q2144.91 296.844 2146.37 299.139 Q2148.38 302.348 2151.78 302.348 Q2152.25 302.348 2152.81 302.254 Q2153.37 302.16 2154.52 301.762 Q2155.67 301.341 2156.67 300.24 Q2157.68 299.139 2158.27 297.406 Q2158.41 296.726 2158.87 296.75 Q2159.51 296.75 2159.51 297.312 Q2159.51 297.734 2159.04 298.694 Q2158.59 299.631 2157.73 300.755 Q2156.86 301.879 2155.17 302.723 Q2153.51 303.566 2151.5 303.566 Q2147.28 303.566 2144.09 300.38 Q2140.93 297.171 2140.93 292.464 M2144.96 290.941 L2156.34 290.941 Q2156.34 289.934 2156.16 288.81 Q2155.99 287.685 2155.48 286.139 Q2154.99 284.57 2153.81 283.586 Q2152.64 282.603 2150.91 282.603 Q2150.14 282.603 2149.29 282.931 Q2148.47 283.259 2147.47 284.055 Q2146.46 284.851 2145.76 286.655 Q2145.05 288.458 2144.96 290.941 Z" fill="#000000" fill-rule="evenodd" fill-opacity="1" /><path clip-path="url(#clip610)" d="M2159.93 283.844 L2159.93 282.79 Q2162.13 282.696 2163.58 281.15 Q2165.06 279.581 2165.55 277.661 Q2166.07 275.74 2166.11 273.515 L2167.31 273.515 L2167.31 282.345 L2174.17 282.345 L2174.17 283.844 L2167.31 283.844 L2167.31 297.171 Q2167.31 302.348 2170.54 302.348 Q2171.92 302.348 2172.84 300.942 Q2173.75 299.514 2173.75 296.984 L2173.75 294.337 L2174.94 294.337 L2174.94 297.078 Q2174.94 299.678 2173.75 301.622 Q2172.56 303.566 2170.19 303.566 Q2169.32 303.566 2168.46 303.332 Q2167.61 303.121 2166.49 302.559 Q2165.39 301.973 2164.69 300.568 Q2164.01 299.139 2164.01 297.078 L2164.01 283.844 L2159.93 283.844 Z" fill="#000000" fill-rule="evenodd" fill-opacity="1" /><path clip-path="url(#clip610)" d="M2178.35 291.035 Q2178.35 282.931 2181.37 276.396 Q2182.66 273.655 2184.46 271.36 Q2186.26 269.065 2187.46 268.057 Q2188.65 267.05 2188.98 267.05 Q2189.45 267.05 2189.47 267.519 Q2189.47 267.753 2188.84 268.338 Q2181.11 276.208 2181.13 291.035 Q2181.13 305.908 2188.65 313.473 Q2189.47 314.293 2189.47 314.551 Q2189.47 315.019 2188.98 315.019 Q2188.65 315.019 2187.5 314.059 Q2186.36 313.099 2184.58 310.897 Q2182.8 308.695 2181.51 306.002 Q2178.35 299.467 2178.35 291.035 Z" fill="#000000" fill-rule="evenodd" fill-opacity="1" /><path clip-path="url(#clip610)" d="M2214.17 284.078 Q2214.17 284.102 2214.03 284.945 L2208.69 306.236 Q2208.41 307.36 2207.61 308.484 Q2206.84 309.632 2205.6 310.616 Q2204.38 311.623 2202.51 312.232 Q2200.66 312.864 2198.52 312.864 Q2195.13 312.864 2193.63 312.138 Q2192.15 311.436 2192.15 309.937 Q2192.15 308.625 2192.97 307.875 Q2193.79 307.149 2194.73 307.149 Q2195.62 307.149 2196.09 307.665 Q2196.56 308.18 2196.56 308.836 Q2196.56 309.562 2196.06 310.288 Q2195.57 311.038 2194.59 311.319 Q2196.16 311.81 2198.43 311.81 Q2203.23 311.81 2205.29 306.728 Q2205.34 306.658 2205.34 306.634 L2206.93 300.287 L2206.86 300.24 Q2206.46 300.708 2205.83 301.247 Q2205.22 301.762 2203.91 302.395 Q2202.6 303.027 2201.31 303.027 Q2198.62 303.027 2196.77 300.966 Q2194.94 298.881 2194.94 295.438 Q2194.94 292.932 2195.95 290.426 Q2196.98 287.896 2198.57 286.046 Q2200.19 284.172 2202.25 283.001 Q2204.33 281.83 2206.35 281.83 Q2207.75 281.83 2208.95 282.673 Q2210.14 283.493 2210.8 284.851 Q2210.91 283.727 2211.55 283.259 Q2212.2 282.79 2212.77 282.79 Q2213.4 282.79 2213.77 283.141 Q2214.17 283.469 2214.17 284.078 M2210.24 287.006 Q2210.24 286.866 2210.14 286.491 Q2210.05 286.093 2209.77 285.46 Q2209.51 284.828 2209.11 284.266 Q2208.71 283.704 2207.99 283.305 Q2207.28 282.884 2206.39 282.884 Q2204.94 282.884 2203.49 284.102 Q2202.04 285.296 2201.03 287.147 Q2200.09 288.927 2199.2 292.37 Q2198.34 295.813 2198.34 297.57 Q2198.34 299.303 2199.09 300.638 Q2199.84 301.973 2201.45 301.973 Q2203.33 301.973 2205.34 300.24 Q2207.42 298.436 2207.78 296.89 L2210.1 287.732 Q2210.24 287.17 2210.24 287.006 Z" fill="#000000" fill-rule="evenodd" fill-opacity="1" /><path clip-path="url(#clip610)" d="M2218.82 314.551 Q2218.82 314.317 2219.43 313.731 Q2227.16 305.861 2227.16 291.035 Q2227.16 276.162 2219.74 268.643 Q2218.82 267.776 2218.82 267.519 Q2218.82 267.05 2219.29 267.05 Q2219.62 267.05 2220.77 268.01 Q2221.94 268.971 2223.69 271.173 Q2225.47 273.374 2226.79 276.068 Q2229.95 282.603 2229.95 291.035 Q2229.95 299.139 2226.93 305.674 Q2225.64 308.414 2223.83 310.71 Q2222.03 313.005 2220.84 314.012 Q2219.64 315.019 2219.29 315.019 Q2218.82 315.019 2218.82 314.551 Z" fill="#000000" fill-rule="evenodd" fill-opacity="1" /></svg>
