<?xml version="1.0" encoding="utf-8"?>
<svg xmlns="http://www.w3.org/2000/svg" xmlns:xlink="http://www.w3.org/1999/xlink" width="600" height="400" viewBox="0 0 2400 1600">
<defs>
  <clipPath id="clip830">
    <rect x="0" y="0" width="2400" height="1600"/>
  </clipPath>
</defs>
<path clip-path="url(#clip830)" d="
M0 1600 L2400 1600 L2400 0 L0 0  Z
  " fill="#ffffff" fill-rule="evenodd" fill-opacity="1"/>
<defs>
  <clipPath id="clip831">
    <rect x="480" y="0" width="1681" height="1600"/>
  </clipPath>
</defs>
<path clip-path="url(#clip830)" d="
M249.542 1486.45 L2352.76 1486.45 L2352.76 47.2441 L249.542 47.2441  Z
  " fill="#ffffff" fill-rule="evenodd" fill-opacity="1"/>
<defs>
  <clipPath id="clip832">
    <rect x="249" y="47" width="2104" height="1440"/>
  </clipPath>
</defs>
<polyline clip-path="url(#clip832)" style="stroke:#000000; stroke-linecap:butt; stroke-linejoin:round; stroke-width:2; stroke-opacity:0.1; fill:none" points="
  309.067,1486.45 309.067,47.2441 
  "/>
<polyline clip-path="url(#clip832)" style="stroke:#000000; stroke-linecap:butt; stroke-linejoin:round; stroke-width:2; stroke-opacity:0.1; fill:none" points="
  961.577,1486.45 961.577,47.2441 
  "/>
<polyline clip-path="url(#clip832)" style="stroke:#000000; stroke-linecap:butt; stroke-linejoin:round; stroke-width:2; stroke-opacity:0.1; fill:none" points="
  1627.4,1486.45 1627.4,47.2441 
  "/>
<polyline clip-path="url(#clip832)" style="stroke:#000000; stroke-linecap:butt; stroke-linejoin:round; stroke-width:2; stroke-opacity:0.1; fill:none" points="
  2293.23,1486.45 2293.23,47.2441 
  "/>
<polyline clip-path="url(#clip830)" style="stroke:#000000; stroke-linecap:butt; stroke-linejoin:round; stroke-width:4; stroke-opacity:1; fill:none" points="
  249.542,1486.45 2352.76,1486.45 
  "/>
<polyline clip-path="url(#clip830)" style="stroke:#000000; stroke-linecap:butt; stroke-linejoin:round; stroke-width:4; stroke-opacity:1; fill:none" points="
  309.067,1486.45 309.067,1467.55 
  "/>
<polyline clip-path="url(#clip830)" style="stroke:#000000; stroke-linecap:butt; stroke-linejoin:round; stroke-width:4; stroke-opacity:1; fill:none" points="
  961.577,1486.45 961.577,1467.55 
  "/>
<polyline clip-path="url(#clip830)" style="stroke:#000000; stroke-linecap:butt; stroke-linejoin:round; stroke-width:4; stroke-opacity:1; fill:none" points="
  1627.4,1486.45 1627.4,1467.55 
  "/>
<polyline clip-path="url(#clip830)" style="stroke:#000000; stroke-linecap:butt; stroke-linejoin:round; stroke-width:4; stroke-opacity:1; fill:none" points="
  2293.23,1486.45 2293.23,1467.55 
  "/>
<path clip-path="url(#clip830)" d="M294.223 1554.64 L294.223 1553.16 L294.926 1553.16 Q297.479 1553.16 298.275 1552.81 Q299.095 1552.43 299.165 1551.08 L299.165 1525.48 Q299.118 1524.23 298.322 1523.86 Q297.526 1523.46 294.926 1523.46 L294.223 1523.46 L294.223 1522.01 Q296.472 1522.1 300.969 1522.1 Q302.796 1522.1 304.365 1522.06 Q305.958 1522.01 306.215 1522.01 L319.262 1522.01 L320.597 1532.81 L319.355 1532.81 Q318.981 1529.88 318.559 1528.36 Q318.161 1526.81 317.177 1525.57 Q316.193 1524.33 314.554 1523.91 Q312.914 1523.46 310.15 1523.46 L306.052 1523.46 Q304.506 1523.46 303.967 1523.77 Q303.428 1524.07 303.428 1525.33 L303.428 1550.94 Q303.428 1552.41 304.412 1552.79 Q305.396 1553.16 308.698 1553.16 L309.565 1553.16 L309.565 1554.64 Q305.489 1554.5 301.367 1554.5 L301.063 1554.5 Q298.064 1554.5 294.223 1554.64 Z" fill="#000000" fill-rule="evenodd" fill-opacity="1" /><path clip-path="url(#clip830)" d="M943.765 1554.71 L943.765 1553.23 Q945.966 1553.23 947.583 1552.55 Q949.199 1551.87 949.667 1551.38 Q950.159 1550.87 950.721 1550.05 L958.591 1538.45 L949.761 1525.1 Q949.082 1524.09 948.168 1523.77 Q947.278 1523.44 945.311 1523.44 L944.397 1523.44 L944.397 1521.94 Q947.044 1522.08 950.628 1522.08 Q955.944 1522.08 957.631 1521.94 L957.631 1523.44 Q956.202 1523.48 955.359 1523.95 Q954.516 1524.4 954.516 1524.87 Q954.516 1525.05 954.844 1525.59 L961.027 1534.84 L966.508 1526.74 Q966.93 1526.06 966.93 1525.64 Q966.93 1524.77 966.133 1524.14 Q965.36 1523.48 963.955 1523.44 L963.955 1521.94 Q965.876 1522.08 970.115 1522.08 Q970.654 1522.08 971.52 1522.06 Q972.41 1522.03 973.582 1521.99 Q974.753 1521.94 975.432 1521.94 L975.432 1523.44 Q970.583 1523.48 968.475 1526.55 L961.894 1536.18 L972.012 1551.5 Q972.738 1552.55 973.652 1552.9 Q974.565 1553.23 976.533 1553.23 L977.446 1553.23 L977.446 1554.71 Q974.425 1554.57 971.216 1554.57 Q965.899 1554.57 964.213 1554.71 L964.213 1553.23 Q965.641 1553.18 966.485 1552.74 Q967.328 1552.27 967.328 1551.78 Q967.328 1551.73 967.07 1551.26 L959.505 1539.79 L952.689 1549.86 Q952.22 1550.63 952.22 1551.01 Q952.22 1551.78 952.97 1552.48 Q953.743 1553.16 955.242 1553.23 L955.242 1554.71 Q953.509 1554.57 949.082 1554.57 Q948.941 1554.57 943.765 1554.71 Z" fill="#000000" fill-rule="evenodd" fill-opacity="1" /><path clip-path="url(#clip830)" d="M1605.66 1554.71 L1605.66 1553.23 Q1607.39 1553.23 1608.49 1552.9 Q1609.6 1552.55 1609.99 1551.92 Q1610.42 1551.26 1610.51 1550.84 Q1610.6 1550.4 1610.6 1549.67 L1610.6 1525.69 Q1610.6 1524.3 1609.99 1523.88 Q1609.41 1523.44 1606.81 1523.44 L1605.66 1523.44 L1605.66 1521.94 L1613.76 1521.94 Q1614.63 1521.94 1614.87 1522.1 Q1615.1 1522.24 1615.45 1522.99 L1625.85 1549.86 L1636.34 1522.85 Q1636.58 1522.17 1636.79 1522.06 Q1637.02 1521.94 1637.94 1521.94 L1646.04 1521.94 L1646.04 1523.44 L1644.89 1523.44 Q1642.29 1523.44 1641.68 1523.88 Q1641.1 1524.3 1641.1 1525.69 L1641.1 1550.96 Q1641.1 1552.34 1641.68 1552.79 Q1642.29 1553.23 1644.89 1553.23 L1646.04 1553.23 L1646.04 1554.71 Q1644.26 1554.57 1639.18 1554.57 Q1634.05 1554.57 1632.27 1554.71 L1632.27 1553.23 L1633.44 1553.23 Q1636.04 1553.23 1636.62 1552.81 Q1637.21 1552.36 1637.21 1550.96 L1637.21 1523.44 L1637.16 1523.44 L1625.38 1553.79 Q1625.05 1554.71 1624.52 1554.71 Q1623.93 1554.71 1623.56 1553.65 L1611.98 1523.81 L1611.94 1523.81 L1611.94 1549.67 Q1611.94 1550.4 1612.03 1550.84 Q1612.12 1551.26 1612.52 1551.92 Q1612.94 1552.55 1614.05 1552.9 Q1615.15 1553.23 1616.88 1553.23 L1616.88 1554.71 Q1611.84 1554.57 1611.26 1554.57 Q1610.7 1554.57 1605.66 1554.71 Z" fill="#000000" fill-rule="evenodd" fill-opacity="1" /><path clip-path="url(#clip830)" d="M2278.39 1554.64 L2278.39 1553.16 L2279.09 1553.16 Q2281.64 1553.16 2282.44 1552.81 Q2283.26 1552.43 2283.33 1551.08 L2283.33 1525.48 Q2283.28 1524.23 2282.49 1523.86 Q2281.69 1523.46 2279.09 1523.46 L2278.39 1523.46 L2278.39 1522.01 Q2280.64 1522.1 2285.13 1522.1 Q2286.96 1522.1 2288.53 1522.06 Q2290.12 1522.01 2290.38 1522.01 L2303.43 1522.01 L2304.76 1532.81 L2303.52 1532.81 Q2303.14 1529.88 2302.72 1528.36 Q2302.32 1526.81 2301.34 1525.57 Q2300.36 1524.33 2298.72 1523.91 Q2297.08 1523.46 2294.31 1523.46 L2290.22 1523.46 Q2288.67 1523.46 2288.13 1523.77 Q2287.59 1524.07 2287.59 1525.33 L2287.59 1550.94 Q2287.59 1552.41 2288.58 1552.79 Q2289.56 1553.16 2292.86 1553.16 L2293.73 1553.16 L2293.73 1554.64 Q2289.65 1554.5 2285.53 1554.5 L2285.23 1554.5 Q2282.23 1554.5 2278.39 1554.64 Z" fill="#000000" fill-rule="evenodd" fill-opacity="1" /><polyline clip-path="url(#clip832)" style="stroke:#000000; stroke-linecap:butt; stroke-linejoin:round; stroke-width:2; stroke-opacity:0.1; fill:none" points="
  249.542,1445.72 2352.76,1445.72 
  "/>
<polyline clip-path="url(#clip832)" style="stroke:#000000; stroke-linecap:butt; stroke-linejoin:round; stroke-width:2; stroke-opacity:0.1; fill:none" points="
  249.542,1086.2 2352.76,1086.2 
  "/>
<polyline clip-path="url(#clip832)" style="stroke:#000000; stroke-linecap:butt; stroke-linejoin:round; stroke-width:2; stroke-opacity:0.1; fill:none" points="
  249.542,726.677 2352.76,726.677 
  "/>
<polyline clip-path="url(#clip832)" style="stroke:#000000; stroke-linecap:butt; stroke-linejoin:round; stroke-width:2; stroke-opacity:0.1; fill:none" points="
  249.542,367.158 2352.76,367.158 
  "/>
<polyline clip-path="url(#clip830)" style="stroke:#000000; stroke-linecap:butt; stroke-linejoin:round; stroke-width:4; stroke-opacity:1; fill:none" points="
  249.542,1486.45 249.542,47.2441 
  "/>
<polyline clip-path="url(#clip830)" style="stroke:#000000; stroke-linecap:butt; stroke-linejoin:round; stroke-width:4; stroke-opacity:1; fill:none" points="
  249.542,1445.72 268.44,1445.72 
  "/>
<polyline clip-path="url(#clip830)" style="stroke:#000000; stroke-linecap:butt; stroke-linejoin:round; stroke-width:4; stroke-opacity:1; fill:none" points="
  249.542,1086.2 268.44,1086.2 
  "/>
<polyline clip-path="url(#clip830)" style="stroke:#000000; stroke-linecap:butt; stroke-linejoin:round; stroke-width:4; stroke-opacity:1; fill:none" points="
  249.542,726.677 268.44,726.677 
  "/>
<polyline clip-path="url(#clip830)" style="stroke:#000000; stroke-linecap:butt; stroke-linejoin:round; stroke-width:4; stroke-opacity:1; fill:none" points="
  249.542,367.158 268.44,367.158 
  "/>
<path clip-path="url(#clip830)" d="M126.205 1431.51 Q122.593 1431.51 120.765 1435.08 Q118.959 1438.62 118.959 1445.75 Q118.959 1452.86 120.765 1456.42 Q122.593 1459.96 126.205 1459.96 Q129.839 1459.96 131.644 1456.42 Q133.473 1452.86 133.473 1445.75 Q133.473 1438.62 131.644 1435.08 Q129.839 1431.51 126.205 1431.51 M126.205 1427.81 Q132.015 1427.81 135.07 1432.42 Q138.149 1437 138.149 1445.75 Q138.149 1454.48 135.07 1459.08 Q132.015 1463.67 126.205 1463.67 Q120.394 1463.67 117.316 1459.08 Q114.26 1454.48 114.26 1445.75 Q114.26 1437 117.316 1432.42 Q120.394 1427.81 126.205 1427.81 Z" fill="#000000" fill-rule="evenodd" fill-opacity="1" /><path clip-path="url(#clip830)" d="M146.366 1457.12 L151.251 1457.12 L151.251 1463 L146.366 1463 L146.366 1457.12 Z" fill="#000000" fill-rule="evenodd" fill-opacity="1" /><path clip-path="url(#clip830)" d="M171.436 1431.51 Q167.825 1431.51 165.996 1435.08 Q164.19 1438.62 164.19 1445.75 Q164.19 1452.86 165.996 1456.42 Q167.825 1459.96 171.436 1459.96 Q175.07 1459.96 176.876 1456.42 Q178.704 1452.86 178.704 1445.75 Q178.704 1438.62 176.876 1435.08 Q175.07 1431.51 171.436 1431.51 M171.436 1427.81 Q177.246 1427.81 180.301 1432.42 Q183.38 1437 183.38 1445.75 Q183.38 1454.48 180.301 1459.08 Q177.246 1463.67 171.436 1463.67 Q165.626 1463.67 162.547 1459.08 Q159.491 1454.48 159.491 1445.75 Q159.491 1437 162.547 1432.42 Q165.626 1427.81 171.436 1427.81 Z" fill="#000000" fill-rule="evenodd" fill-opacity="1" /><path clip-path="url(#clip830)" d="M201.598 1431.51 Q197.987 1431.51 196.158 1435.08 Q194.352 1438.62 194.352 1445.75 Q194.352 1452.86 196.158 1456.42 Q197.987 1459.96 201.598 1459.96 Q205.232 1459.96 207.037 1456.42 Q208.866 1452.86 208.866 1445.75 Q208.866 1438.62 207.037 1435.08 Q205.232 1431.51 201.598 1431.51 M201.598 1427.81 Q207.408 1427.81 210.463 1432.42 Q213.542 1437 213.542 1445.75 Q213.542 1454.48 210.463 1459.08 Q207.408 1463.67 201.598 1463.67 Q195.787 1463.67 192.709 1459.08 Q189.653 1454.48 189.653 1445.75 Q189.653 1437 192.709 1432.42 Q195.787 1427.81 201.598 1427.81 Z" fill="#000000" fill-rule="evenodd" fill-opacity="1" /><path clip-path="url(#clip830)" d="M127.2 1072 Q123.589 1072 121.76 1075.56 Q119.955 1079.1 119.955 1086.23 Q119.955 1093.34 121.76 1096.9 Q123.589 1100.44 127.2 1100.44 Q130.834 1100.44 132.64 1096.9 Q134.468 1093.34 134.468 1086.23 Q134.468 1079.1 132.64 1075.56 Q130.834 1072 127.2 1072 M127.2 1068.29 Q133.01 1068.29 136.066 1072.9 Q139.144 1077.48 139.144 1086.23 Q139.144 1094.96 136.066 1099.56 Q133.01 1104.15 127.2 1104.15 Q121.39 1104.15 118.311 1099.56 Q115.256 1094.96 115.256 1086.23 Q115.256 1077.48 118.311 1072.9 Q121.39 1068.29 127.2 1068.29 Z" fill="#000000" fill-rule="evenodd" fill-opacity="1" /><path clip-path="url(#clip830)" d="M147.362 1097.6 L152.246 1097.6 L152.246 1103.48 L147.362 1103.48 L147.362 1097.6 Z" fill="#000000" fill-rule="evenodd" fill-opacity="1" /><path clip-path="url(#clip830)" d="M172.431 1072 Q168.82 1072 166.991 1075.56 Q165.186 1079.1 165.186 1086.23 Q165.186 1093.34 166.991 1096.9 Q168.82 1100.44 172.431 1100.44 Q176.065 1100.44 177.871 1096.9 Q179.7 1093.34 179.7 1086.23 Q179.7 1079.1 177.871 1075.56 Q176.065 1072 172.431 1072 M172.431 1068.29 Q178.241 1068.29 181.297 1072.9 Q184.376 1077.48 184.376 1086.23 Q184.376 1094.96 181.297 1099.56 Q178.241 1104.15 172.431 1104.15 Q166.621 1104.15 163.542 1099.56 Q160.487 1094.96 160.487 1086.23 Q160.487 1077.48 163.542 1072.9 Q166.621 1068.29 172.431 1068.29 Z" fill="#000000" fill-rule="evenodd" fill-opacity="1" /><path clip-path="url(#clip830)" d="M192.639 1068.92 L210.996 1068.92 L210.996 1072.85 L196.922 1072.85 L196.922 1081.32 Q197.94 1080.98 198.959 1080.81 Q199.977 1080.63 200.996 1080.63 Q206.783 1080.63 210.162 1083.8 Q213.542 1086.97 213.542 1092.39 Q213.542 1097.97 210.07 1101.07 Q206.598 1104.15 200.278 1104.15 Q198.102 1104.15 195.834 1103.78 Q193.588 1103.41 191.181 1102.67 L191.181 1097.97 Q193.264 1099.1 195.487 1099.66 Q197.709 1100.21 200.186 1100.21 Q204.19 1100.21 206.528 1098.11 Q208.866 1096 208.866 1092.39 Q208.866 1088.78 206.528 1086.67 Q204.19 1084.56 200.186 1084.56 Q198.311 1084.56 196.436 1084.98 Q194.584 1085.4 192.639 1086.28 L192.639 1068.92 Z" fill="#000000" fill-rule="evenodd" fill-opacity="1" /><path clip-path="url(#clip830)" d="M126.205 712.476 Q122.593 712.476 120.765 716.04 Q118.959 719.582 118.959 726.712 Q118.959 733.818 120.765 737.383 Q122.593 740.925 126.205 740.925 Q129.839 740.925 131.644 737.383 Q133.473 733.818 133.473 726.712 Q133.473 719.582 131.644 716.04 Q129.839 712.476 126.205 712.476 M126.205 708.772 Q132.015 708.772 135.07 713.378 Q138.149 717.962 138.149 726.712 Q138.149 735.438 135.07 740.045 Q132.015 744.628 126.205 744.628 Q120.394 744.628 117.316 740.045 Q114.26 735.438 114.26 726.712 Q114.26 717.962 117.316 713.378 Q120.394 708.772 126.205 708.772 Z" fill="#000000" fill-rule="evenodd" fill-opacity="1" /><path clip-path="url(#clip830)" d="M146.366 738.077 L151.251 738.077 L151.251 743.957 L146.366 743.957 L146.366 738.077 Z" fill="#000000" fill-rule="evenodd" fill-opacity="1" /><path clip-path="url(#clip830)" d="M162.246 740.022 L169.885 740.022 L169.885 713.656 L161.575 715.323 L161.575 711.064 L169.839 709.397 L174.514 709.397 L174.514 740.022 L182.153 740.022 L182.153 743.957 L162.246 743.957 L162.246 740.022 Z" fill="#000000" fill-rule="evenodd" fill-opacity="1" /><path clip-path="url(#clip830)" d="M201.598 712.476 Q197.987 712.476 196.158 716.04 Q194.352 719.582 194.352 726.712 Q194.352 733.818 196.158 737.383 Q197.987 740.925 201.598 740.925 Q205.232 740.925 207.037 737.383 Q208.866 733.818 208.866 726.712 Q208.866 719.582 207.037 716.04 Q205.232 712.476 201.598 712.476 M201.598 708.772 Q207.408 708.772 210.463 713.378 Q213.542 717.962 213.542 726.712 Q213.542 735.438 210.463 740.045 Q207.408 744.628 201.598 744.628 Q195.787 744.628 192.709 740.045 Q189.653 735.438 189.653 726.712 Q189.653 717.962 192.709 713.378 Q195.787 708.772 201.598 708.772 Z" fill="#000000" fill-rule="evenodd" fill-opacity="1" /><path clip-path="url(#clip830)" d="M127.2 352.956 Q123.589 352.956 121.76 356.521 Q119.955 360.063 119.955 367.192 Q119.955 374.299 121.76 377.864 Q123.589 381.405 127.2 381.405 Q130.834 381.405 132.64 377.864 Q134.468 374.299 134.468 367.192 Q134.468 360.063 132.64 356.521 Q130.834 352.956 127.2 352.956 M127.2 349.253 Q133.01 349.253 136.066 353.859 Q139.144 358.442 139.144 367.192 Q139.144 375.919 136.066 380.526 Q133.01 385.109 127.2 385.109 Q121.39 385.109 118.311 380.526 Q115.256 375.919 115.256 367.192 Q115.256 358.442 118.311 353.859 Q121.39 349.253 127.2 349.253 Z" fill="#000000" fill-rule="evenodd" fill-opacity="1" /><path clip-path="url(#clip830)" d="M147.362 378.558 L152.246 378.558 L152.246 384.438 L147.362 384.438 L147.362 378.558 Z" fill="#000000" fill-rule="evenodd" fill-opacity="1" /><path clip-path="url(#clip830)" d="M163.241 380.502 L170.88 380.502 L170.88 354.137 L162.57 355.803 L162.57 351.544 L170.834 349.878 L175.51 349.878 L175.51 380.502 L183.149 380.502 L183.149 384.438 L163.241 384.438 L163.241 380.502 Z" fill="#000000" fill-rule="evenodd" fill-opacity="1" /><path clip-path="url(#clip830)" d="M192.639 349.878 L210.996 349.878 L210.996 353.813 L196.922 353.813 L196.922 362.285 Q197.94 361.938 198.959 361.776 Q199.977 361.59 200.996 361.59 Q206.783 361.59 210.162 364.762 Q213.542 367.933 213.542 373.35 Q213.542 378.928 210.07 382.03 Q206.598 385.109 200.278 385.109 Q198.102 385.109 195.834 384.738 Q193.588 384.368 191.181 383.627 L191.181 378.928 Q193.264 380.063 195.487 380.618 Q197.709 381.174 200.186 381.174 Q204.19 381.174 206.528 379.067 Q208.866 376.961 208.866 373.35 Q208.866 369.739 206.528 367.632 Q204.19 365.526 200.186 365.526 Q198.311 365.526 196.436 365.942 Q194.584 366.359 192.639 367.239 L192.639 349.878 Z" fill="#000000" fill-rule="evenodd" fill-opacity="1" /><path clip-path="url(#clip830)" d="M20.8447 994.42 Q20.8447 1001.42 26.0645 1005.56 Q31.2844 1009.67 40.2919 1009.67 Q49.2675 1009.67 54.4874 1005.56 Q59.7073 1001.42 59.7073 994.42 Q59.7073 987.418 54.4874 983.344 Q49.2675 979.238 40.2919 979.238 Q31.2844 979.238 26.0645 983.344 Q20.8447 987.418 20.8447 994.42 M63.1448 985.413 L72.4069 976.946 L72.4069 984.712 L64.7999 991.746 Q64.8635 992.797 64.8954 993.37 Q64.9272 993.911 64.9272 994.42 Q64.9272 1004.45 58.2432 1010.46 Q51.5274 1016.45 40.2919 1016.45 Q29.0246 1016.45 22.3406 1010.46 Q15.6248 1004.45 15.6248 994.42 Q15.6248 984.426 22.3406 978.442 Q29.0246 972.458 40.2919 972.458 Q48.5673 972.458 54.4556 975.8 Q60.3439 979.11 63.1448 985.413 Z" fill="#000000" fill-rule="evenodd" fill-opacity="1" /><path clip-path="url(#clip830)" d="M49.9359 963.26 L28.3562 963.26 L28.3562 957.403 L49.7131 957.403 Q54.7739 957.403 57.3202 955.43 Q59.8346 953.457 59.8346 949.51 Q59.8346 944.767 56.8109 942.03 Q53.7872 939.261 48.5673 939.261 L28.3562 939.261 L28.3562 933.405 L64.0042 933.405 L64.0042 939.261 L58.5296 939.261 Q61.7762 941.394 63.3676 944.226 Q64.9272 947.027 64.9272 950.751 Q64.9272 956.894 61.1078 960.077 Q57.2883 963.26 49.9359 963.26 M27.4968 948.523 L27.4968 948.523 Z" fill="#000000" fill-rule="evenodd" fill-opacity="1" /><path clip-path="url(#clip830)" d="M46.0847 905.141 Q46.0847 912.239 47.7079 914.976 Q49.3312 917.713 53.2461 917.713 Q56.3653 917.713 58.2114 915.676 Q60.0256 913.607 60.0256 910.074 Q60.0256 905.205 56.5881 902.276 Q53.1188 899.316 47.3897 899.316 L46.0847 899.316 L46.0847 905.141 M43.6657 893.46 L64.0042 893.46 L64.0042 899.316 L58.5933 899.316 Q61.8398 901.322 63.3994 904.313 Q64.9272 907.305 64.9272 911.634 Q64.9272 917.108 61.8716 920.355 Q58.7843 923.57 53.6281 923.57 Q47.6125 923.57 44.5569 919.559 Q41.5014 915.517 41.5014 907.528 L41.5014 899.316 L40.9285 899.316 Q36.8862 899.316 34.6901 901.99 Q32.4621 904.632 32.4621 909.438 Q32.4621 912.493 33.1941 915.39 Q33.9262 918.286 35.3903 920.96 L29.9795 920.96 Q28.7381 917.745 28.1334 914.721 Q27.4968 911.698 27.4968 908.833 Q27.4968 901.099 31.5072 897.279 Q35.5176 893.46 43.6657 893.46 Z" fill="#000000" fill-rule="evenodd" fill-opacity="1" /><path clip-path="url(#clip830)" d="M42.4881 851.765 L64.0042 851.765 L64.0042 857.621 L42.679 857.621 Q37.6183 857.621 35.1038 859.594 Q32.5894 861.568 32.5894 865.514 Q32.5894 870.257 35.6131 872.994 Q38.6368 875.731 43.8567 875.731 L64.0042 875.731 L64.0042 881.62 L28.3562 881.62 L28.3562 875.731 L33.8944 875.731 Q30.6797 873.631 29.0883 870.798 Q27.4968 867.933 27.4968 864.209 Q27.4968 858.067 31.3163 854.916 Q35.1038 851.765 42.4881 851.765 Z" fill="#000000" fill-rule="evenodd" fill-opacity="1" /><path clip-path="url(#clip830)" d="M18.2347 834.291 L28.3562 834.291 L28.3562 822.228 L32.9077 822.228 L32.9077 834.291 L52.2594 834.291 Q56.6199 834.291 57.8613 833.113 Q59.1026 831.904 59.1026 828.243 L59.1026 822.228 L64.0042 822.228 L64.0042 828.243 Q64.0042 835.023 61.4897 837.601 Q58.9434 840.179 52.2594 840.179 L32.9077 840.179 L32.9077 844.476 L28.3562 844.476 L28.3562 840.179 L18.2347 840.179 L18.2347 834.291 Z" fill="#000000" fill-rule="evenodd" fill-opacity="1" /><path clip-path="url(#clip830)" d="M49.9359 815.13 L28.3562 815.13 L28.3562 809.273 L49.7131 809.273 Q54.7739 809.273 57.3202 807.3 Q59.8346 805.327 59.8346 801.38 Q59.8346 796.637 56.8109 793.9 Q53.7872 791.131 48.5673 791.131 L28.3562 791.131 L28.3562 785.275 L64.0042 785.275 L64.0042 791.131 L58.5296 791.131 Q61.7762 793.264 63.3676 796.096 Q64.9272 798.897 64.9272 802.621 Q64.9272 808.764 61.1078 811.947 Q57.2883 815.13 49.9359 815.13 M27.4968 800.393 L27.4968 800.393 Z" fill="#000000" fill-rule="evenodd" fill-opacity="1" /><path clip-path="url(#clip830)" d="M35.1993 745.457 Q31.2526 743.261 29.3747 740.206 Q27.4968 737.15 27.4968 733.012 Q27.4968 727.442 31.4117 724.419 Q35.2948 721.395 42.4881 721.395 L64.0042 721.395 L64.0042 727.283 L42.679 727.283 Q37.5546 727.283 35.072 729.097 Q32.5894 730.912 32.5894 734.636 Q32.5894 739.187 35.6131 741.829 Q38.6368 744.471 43.8567 744.471 L64.0042 744.471 L64.0042 750.359 L42.679 750.359 Q37.5228 750.359 35.072 752.173 Q32.5894 753.987 32.5894 757.775 Q32.5894 762.263 35.6449 764.904 Q38.6686 767.546 43.8567 767.546 L64.0042 767.546 L64.0042 773.434 L28.3562 773.434 L28.3562 767.546 L33.8944 767.546 Q30.616 765.541 29.0564 762.74 Q27.4968 759.939 27.4968 756.088 Q27.4968 752.205 29.4702 749.499 Q31.4436 746.762 35.1993 745.457 Z" fill="#000000" fill-rule="evenodd" fill-opacity="1" /><path clip-path="url(#clip830)" d="M16.4842 709.459 L16.4842 699.879 L48.8219 687.752 L16.4842 675.562 L16.4842 665.981 L64.0042 665.981 L64.0042 672.252 L22.277 672.252 L54.8694 684.506 L54.8694 690.967 L22.277 703.221 L64.0042 703.221 L64.0042 709.459 L16.4842 709.459 Z" fill="#000000" fill-rule="evenodd" fill-opacity="1" /><path clip-path="url(#clip830)" d="M44.7161 622.981 L47.5806 622.981 L47.5806 649.908 Q53.6281 649.526 56.8109 646.28 Q59.9619 643.001 59.9619 637.177 Q59.9619 633.803 59.1344 630.652 Q58.3069 627.469 56.6518 624.35 L62.1899 624.35 Q63.5267 627.501 64.227 630.811 Q64.9272 634.121 64.9272 637.527 Q64.9272 646.057 59.9619 651.054 Q54.9967 656.019 46.5303 656.019 Q37.7774 656.019 32.6531 651.308 Q27.4968 646.566 27.4968 638.545 Q27.4968 631.352 32.1438 627.182 Q36.7589 622.981 44.7161 622.981 M42.9973 628.837 Q38.1912 628.901 35.3266 631.543 Q32.4621 634.153 32.4621 638.482 Q32.4621 643.383 35.2312 646.343 Q38.0002 649.271 43.0292 649.717 L42.9973 628.837 Z" fill="#000000" fill-rule="evenodd" fill-opacity="1" /><path clip-path="url(#clip830)" d="M18.2347 607.576 L28.3562 607.576 L28.3562 595.513 L32.9077 595.513 L32.9077 607.576 L52.2594 607.576 Q56.6199 607.576 57.8613 606.398 Q59.1026 605.189 59.1026 601.529 L59.1026 595.513 L64.0042 595.513 L64.0042 601.529 Q64.0042 608.308 61.4897 610.886 Q58.9434 613.464 52.2594 613.464 L32.9077 613.464 L32.9077 617.761 L28.3562 617.761 L28.3562 613.464 L18.2347 613.464 L18.2347 607.576 Z" fill="#000000" fill-rule="evenodd" fill-opacity="1" /><path clip-path="url(#clip830)" d="M33.8307 567.154 Q33.2578 568.14 33.0032 569.318 Q32.7167 570.464 32.7167 571.864 Q32.7167 576.83 35.9632 579.503 Q39.1779 582.145 45.2253 582.145 L64.0042 582.145 L64.0042 588.033 L28.3562 588.033 L28.3562 582.145 L33.8944 582.145 Q30.6479 580.299 29.0883 577.339 Q27.4968 574.379 27.4968 570.146 Q27.4968 569.541 27.5923 568.809 Q27.656 568.077 27.8151 567.186 L33.8307 567.154 Z" fill="#000000" fill-rule="evenodd" fill-opacity="1" /><path clip-path="url(#clip830)" d="M28.3562 561.011 L28.3562 555.154 L64.0042 555.154 L64.0042 561.011 L28.3562 561.011 M14.479 561.011 L14.479 555.154 L21.895 555.154 L21.895 561.011 L14.479 561.011 Z" fill="#000000" fill-rule="evenodd" fill-opacity="1" /><path clip-path="url(#clip830)" d="M29.7248 517.247 L35.1993 517.247 Q33.8307 519.729 33.1623 522.244 Q32.4621 524.726 32.4621 527.273 Q32.4621 532.97 36.0905 536.121 Q39.6872 539.272 46.212 539.272 Q52.7369 539.272 56.3653 536.121 Q59.9619 532.97 59.9619 527.273 Q59.9619 524.726 59.2935 522.244 Q58.5933 519.729 57.2247 517.247 L62.6355 517.247 Q63.7814 519.697 64.3543 522.339 Q64.9272 524.949 64.9272 527.909 Q64.9272 535.962 59.8664 540.704 Q54.8057 545.447 46.212 545.447 Q37.491 545.447 32.4939 540.672 Q27.4968 535.866 27.4968 527.527 Q27.4968 524.822 28.0697 522.244 Q28.6108 519.666 29.7248 517.247 Z" fill="#000000" fill-rule="evenodd" fill-opacity="1" /><polyline clip-path="url(#clip832)" style="stroke:#009af9; stroke-linecap:butt; stroke-linejoin:round; stroke-width:4; stroke-opacity:1; fill:none" points="
  309.067,1335.82 322.383,1336.05 335.7,1336.42 349.017,1336.95 362.333,1337.61 375.65,1338.41 388.966,1339.35 402.283,1340.4 415.599,1341.58 428.916,1342.86 
  442.232,1344.23 455.549,1345.68 468.865,1347.19 482.182,1348.74 495.498,1350.31 508.815,1351.87 522.132,1353.4 535.448,1354.87 548.765,1356.22 562.081,1357.44 
  575.398,1358.46 588.714,1359.24 602.031,1359.73 615.347,1359.86 628.664,1359.57 641.98,1358.8 655.297,1357.47 668.613,1355.51 681.93,1352.84 695.247,1349.4 
  708.563,1345.13 721.88,1339.95 735.196,1333.83 748.513,1326.74 761.829,1318.67 775.146,1309.64 788.462,1299.71 801.779,1288.97 815.095,1277.56 828.412,1265.65 
  841.728,1253.48 855.045,1241.31 868.362,1229.45 881.678,1218.22 894.995,1207.96 908.311,1199.01 921.628,1191.68 934.944,1186.24 948.261,1182.89 961.577,1181.76 
  974.894,1181.8 988.21,1181.93 1001.53,1182.14 1014.84,1182.43 1028.16,1182.8 1041.48,1183.24 1054.79,1183.75 1068.11,1184.31 1081.43,1184.93 1094.74,1185.58 
  1108.06,1186.25 1121.38,1186.92 1134.69,1187.57 1148.01,1188.18 1161.33,1188.72 1174.64,1189.14 1187.96,1189.41 1201.27,1189.46 1214.59,1189.25 1227.91,1188.69 
  1241.22,1187.69 1254.54,1186.16 1267.86,1183.95 1281.17,1180.93 1294.49,1176.91 1307.81,1171.69 1321.12,1165.02 1334.44,1156.62 1347.76,1146.14 1361.07,1133.2 
  1374.39,1117.35 1387.71,1098.1 1401.02,1074.86 1414.34,1047.03 1427.66,1013.96 1440.97,974.967 1454.29,929.42 1467.61,876.771 1480.92,816.655 1494.24,749.005 
  1507.56,674.198 1520.87,593.216 1534.19,507.802 1547.5,420.573 1560.82,335.049 1574.14,255.52 1587.45,186.738 1600.77,133.411 1614.09,99.5777 1627.4,87.9763 
  1640.72,111.057 1654.04,176.992 1667.35,276.884 1680.67,398.776 1693.99,530.51 1707.3,661.858 1720.62,785.506 1733.94,897.079 1747.25,994.606 1760.57,1077.81 
  1773.89,1147.47 1787.2,1204.9 1800.52,1251.65 1813.84,1289.25 1827.15,1319.14 1840.47,1342.6 1853.79,1360.74 1867.1,1374.49 1880.42,1384.64 1893.73,1391.85 
  1907.05,1396.65 1920.37,1399.51 1933.68,1400.79 1947,1400.8 1960.32,1399.78 1973.63,1397.97 1986.95,1395.52 2000.27,1392.59 2013.58,1389.3 2026.9,1385.76 
  2040.22,1382.05 2053.53,1378.24 2066.85,1374.4 2080.17,1370.59 2093.48,1366.85 2106.8,1363.21 2120.12,1359.71 2133.43,1356.38 2146.75,1353.25 2160.07,1350.33 
  2173.38,1347.65 2186.7,1345.21 2200.02,1343.03 2213.33,1341.12 2226.65,1339.49 2239.96,1338.15 2253.28,1337.1 2266.6,1336.35 2279.91,1335.9 2293.23,1335.75 
  
  "/>
<polyline clip-path="url(#clip832)" style="stroke:#e26f46; stroke-linecap:butt; stroke-linejoin:round; stroke-width:4; stroke-opacity:1; fill:none" points="
  309.067,1445.3 322.383,1445.3 335.7,1445.3 349.017,1445.3 362.333,1445.31 375.65,1445.32 388.966,1445.32 402.283,1445.33 415.599,1445.34 428.916,1445.35 
  442.232,1445.37 455.549,1445.38 468.865,1445.4 482.182,1445.41 495.498,1445.43 508.815,1445.45 522.132,1445.47 535.448,1445.49 548.765,1445.51 562.081,1445.53 
  575.398,1445.55 588.714,1445.57 602.031,1445.59 615.347,1445.61 628.664,1445.62 641.98,1445.64 655.297,1445.64 668.613,1445.64 681.93,1445.64 695.247,1445.62 
  708.563,1445.6 721.88,1445.56 735.196,1445.51 748.513,1445.45 761.829,1445.36 775.146,1445.26 788.462,1445.15 801.779,1445.01 815.095,1444.85 828.412,1444.69 
  841.728,1444.5 855.045,1444.31 868.362,1444.12 881.678,1443.94 894.995,1443.76 908.311,1443.6 921.628,1443.47 934.944,1443.38 948.261,1443.31 961.577,1443.29 
  974.894,1443.29 988.21,1443.3 1001.53,1443.3 1014.84,1443.31 1028.16,1443.31 1041.48,1443.32 1054.79,1443.34 1068.11,1443.35 1081.43,1443.37 1094.74,1443.39 
  1108.06,1443.41 1121.38,1443.44 1134.69,1443.47 1148.01,1443.5 1161.33,1443.54 1174.64,1443.59 1187.96,1443.64 1201.27,1443.7 1214.59,1443.76 1227.91,1443.83 
  1241.22,1443.91 1254.54,1443.99 1267.86,1444.07 1281.17,1444.16 1294.49,1444.25 1307.81,1444.33 1321.12,1444.4 1334.44,1444.44 1347.76,1444.46 1361.07,1444.42 
  1374.39,1444.31 1387.71,1444.09 1401.02,1443.73 1414.34,1443.17 1427.66,1442.36 1440.97,1441.22 1454.29,1439.66 1467.61,1437.58 1480.92,1434.88 1494.24,1431.46 
  1507.56,1427.26 1520.87,1422.24 1534.19,1416.45 1547.5,1410.06 1560.82,1403.34 1574.14,1396.71 1587.45,1390.69 1600.77,1385.86 1614.09,1382.71 1627.4,1381.62 
  1640.72,1383.78 1654.04,1389.77 1667.35,1398.31 1680.67,1407.82 1693.99,1416.96 1707.3,1424.87 1720.62,1431.17 1733.94,1435.88 1747.25,1439.23 1760.57,1441.51 
  1773.89,1443.02 1787.2,1443.98 1800.52,1444.59 1813.84,1444.97 1827.15,1445.21 1840.47,1445.36 1853.79,1445.47 1867.1,1445.54 1880.42,1445.59 1893.73,1445.63 
  1907.05,1445.66 1920.37,1445.69 1933.68,1445.7 1947,1445.71 1960.32,1445.72 1973.63,1445.71 1986.95,1445.7 2000.27,1445.69 2013.58,1445.68 2026.9,1445.66 
  2040.22,1445.63 2053.53,1445.61 2066.85,1445.58 2080.17,1445.56 2093.48,1445.53 2106.8,1445.5 2120.12,1445.48 2133.43,1445.45 2146.75,1445.43 2160.07,1445.41 
  2173.38,1445.39 2186.7,1445.37 2200.02,1445.35 2213.33,1445.34 2226.65,1445.32 2239.96,1445.31 2253.28,1445.31 2266.6,1445.3 2279.91,1445.3 2293.23,1445.3 
  
  "/>
<polyline clip-path="url(#clip832)" style="stroke:#3da44d; stroke-linecap:butt; stroke-linejoin:round; stroke-width:4; stroke-opacity:1; fill:none" points="
  309.067,1390.77 322.383,1390.88 335.7,1391.07 349.017,1391.34 362.333,1391.69 375.65,1392.12 388.966,1392.64 402.283,1393.24 415.599,1393.94 428.916,1394.74 
  442.232,1395.64 455.549,1396.64 468.865,1397.76 482.182,1399 495.498,1400.37 508.815,1401.86 522.132,1403.49 535.448,1405.25 548.765,1407.14 562.081,1409.16 
  575.398,1411.29 588.714,1413.5 602.031,1415.75 615.347,1417.96 628.664,1420.02 641.98,1421.73 655.297,1422.85 668.613,1423.1 681.93,1422.22 695.247,1420.13 
  708.563,1416.88 721.88,1412.63 735.196,1407.55 748.513,1401.79 761.829,1395.49 775.146,1388.76 788.462,1381.7 801.779,1374.42 815.095,1367.03 828.412,1359.64 
  841.728,1352.36 855.045,1345.34 868.362,1338.71 881.678,1332.61 894.995,1327.16 908.311,1322.5 921.628,1318.74 934.944,1315.99 948.261,1314.3 961.577,1313.74 
  974.894,1313.76 988.21,1313.82 1001.53,1313.93 1014.84,1314.09 1028.16,1314.3 1041.48,1314.56 1054.79,1314.88 1068.11,1315.27 1081.43,1315.74 1094.74,1316.29 
  1108.06,1316.93 1121.38,1317.69 1134.69,1318.56 1148.01,1319.56 1161.33,1320.72 1174.64,1322.04 1187.96,1323.54 1201.27,1325.24 1214.59,1327.15 1227.91,1329.29 
  1241.22,1331.66 1254.54,1334.25 1267.86,1337.04 1281.17,1339.98 1294.49,1342.96 1307.81,1345.84 1321.12,1348.35 1334.44,1350.11 1347.76,1350.62 1361.07,1349.19 
  1374.39,1345.08 1387.71,1337.6 1401.02,1326.19 1414.34,1310.52 1427.66,1290.44 1440.97,1265.93 1454.29,1237.03 1467.61,1203.85 1480.92,1166.6 1494.24,1125.61 
  1507.56,1081.42 1520.87,1034.85 1534.19,986.999 1547.5,939.349 1560.82,893.696 1574.14,852.098 1587.45,816.729 1600.77,789.668 1614.09,772.653 1627.4,766.846 
  1640.72,778.395 1654.04,811.477 1667.35,861.849 1680.67,923.713 1693.99,991.025 1707.3,1058.52 1720.62,1122.27 1733.94,1179.77 1747.25,1229.73 1760.57,1271.84 
  1773.89,1306.38 1787.2,1334.05 1800.52,1355.77 1813.84,1372.56 1827.15,1385.46 1840.47,1395.47 1853.79,1403.47 1867.1,1410.14 1880.42,1416.01 1893.73,1421.41 
  1907.05,1426.53 1920.37,1431.5 1933.68,1436.35 1947,1441.09 1960.32,1445.72 1973.63,1441.22 1986.95,1436.88 2000.27,1432.7 2013.58,1428.71 2026.9,1424.92 
  2040.22,1421.34 2053.53,1417.97 2066.85,1414.81 2080.17,1411.87 2093.48,1409.15 2106.8,1406.63 2120.12,1404.32 2133.43,1402.22 2146.75,1400.31 2160.07,1398.58 
  2173.38,1397.05 2186.7,1395.69 2200.02,1394.51 2213.33,1393.49 2226.65,1392.64 2239.96,1391.95 2253.28,1391.41 2266.6,1391.03 2279.91,1390.81 2293.23,1390.73 
  
  "/>
<path clip-path="url(#clip830)" d="
M1889.36 338.83 L2282.65 338.83 L2282.65 95.2176 L1889.36 95.2176  Z
  " fill="#ffffff" fill-rule="evenodd" fill-opacity="1"/>
<polyline clip-path="url(#clip830)" style="stroke:#000000; stroke-linecap:butt; stroke-linejoin:round; stroke-width:4; stroke-opacity:1; fill:none" points="
  1889.36,338.83 2282.65,338.83 2282.65,95.2176 1889.36,95.2176 1889.36,338.83 
  "/>
<polyline clip-path="url(#clip830)" style="stroke:#009af9; stroke-linecap:butt; stroke-linejoin:round; stroke-width:4; stroke-opacity:1; fill:none" points="
  1912.73,156.121 2052.94,156.121 
  "/>
<path clip-path="url(#clip830)" d="M2076.31 153.218 L2077.22 142.444 L2106.52 142.444 L2107.44 153.218 L2106.24 153.218 Q2106.06 151.064 2105.87 149.822 Q2105.7 148.581 2105.28 147.41 Q2104.88 146.215 2104.37 145.653 Q2103.88 145.067 2102.92 144.622 Q2101.96 144.154 2100.72 144.037 Q2099.47 143.92 2097.6 143.92 Q2095.4 143.92 2094.86 144.013 Q2094.27 144.154 2094.13 144.575 Q2093.99 144.974 2093.99 145.84 L2093.99 171.113 Q2093.99 172.073 2094.18 172.472 Q2094.39 172.846 2095.49 173.151 Q2096.59 173.432 2099.03 173.432 L2100.95 173.432 L2100.95 174.908 Q2098.98 174.767 2091.84 174.767 Q2084.74 174.767 2082.77 174.908 L2082.77 173.432 L2084.69 173.432 Q2087.13 173.432 2088.23 173.151 Q2089.36 172.846 2089.54 172.472 Q2089.73 172.073 2089.73 171.113 L2089.73 145.84 Q2089.73 145.161 2089.68 144.88 Q2089.64 144.599 2089.43 144.365 Q2089.21 144.107 2088.72 144.013 Q2088.25 143.92 2086.15 143.92 Q2084.27 143.92 2083.01 144.037 Q2081.77 144.154 2080.81 144.622 Q2079.85 145.067 2079.33 145.653 Q2078.84 146.215 2078.42 147.41 Q2078.02 148.581 2077.86 149.822 Q2077.69 151.064 2077.5 153.218 L2076.31 153.218 Z" fill="#000000" fill-rule="evenodd" fill-opacity="1" /><path clip-path="url(#clip830)" d="M2114.48 174.908 L2114.48 173.432 Q2117.04 173.432 2117.62 173.127 Q2118.23 172.8 2118.23 171.254 L2118.23 158.395 Q2118.23 156.615 2117.6 156.17 Q2116.99 155.725 2114.48 155.725 L2114.48 154.226 L2121.16 153.71 L2121.16 158.98 Q2121.84 156.919 2123.27 155.326 Q2124.72 153.71 2127.06 153.71 Q2128.61 153.71 2129.59 154.577 Q2130.6 155.444 2130.6 156.638 Q2130.6 157.692 2129.94 158.231 Q2129.31 158.746 2128.54 158.746 Q2127.67 158.746 2127.06 158.207 Q2126.48 157.645 2126.48 156.685 Q2126.48 156.099 2126.73 155.654 Q2127.01 155.186 2127.22 155.022 Q2127.44 154.858 2127.58 154.811 Q2127.48 154.764 2127.06 154.764 Q2124.41 154.764 2122.89 157.411 Q2121.39 160.034 2121.39 163.782 L2121.39 171.16 Q2121.39 172.542 2121.95 172.987 Q2122.54 173.432 2125.05 173.432 L2126.05 173.432 L2126.05 174.908 Q2124.13 174.767 2119.96 174.767 Q2119.38 174.767 2118.46 174.79 Q2117.55 174.814 2116.36 174.861 Q2115.16 174.908 2114.48 174.908 Z" fill="#000000" fill-rule="evenodd" fill-opacity="1" /><path clip-path="url(#clip830)" d="M2133.04 162.915 Q2133.04 154.811 2136.06 148.276 Q2137.35 145.536 2139.15 143.24 Q2140.95 140.945 2142.15 139.938 Q2143.34 138.931 2143.67 138.931 Q2144.14 138.931 2144.16 139.399 Q2144.16 139.633 2143.53 140.219 Q2135.8 148.089 2135.82 162.915 Q2135.82 177.789 2143.34 185.354 Q2144.16 186.174 2144.16 186.431 Q2144.16 186.9 2143.67 186.9 Q2143.34 186.9 2142.2 185.94 Q2141.05 184.979 2139.27 182.777 Q2137.49 180.576 2136.2 177.882 Q2133.04 171.347 2133.04 162.915 Z" fill="#000000" fill-rule="evenodd" fill-opacity="1" /><path clip-path="url(#clip830)" d="M2168.86 155.959 Q2168.86 155.982 2168.72 156.825 L2163.38 178.116 Q2163.1 179.241 2162.3 180.365 Q2161.53 181.513 2160.29 182.496 Q2159.07 183.504 2157.2 184.113 Q2155.35 184.745 2153.22 184.745 Q2149.82 184.745 2148.32 184.019 Q2146.85 183.316 2146.85 181.817 Q2146.85 180.506 2147.66 179.756 Q2148.48 179.03 2149.42 179.03 Q2150.31 179.03 2150.78 179.545 Q2151.25 180.06 2151.25 180.716 Q2151.25 181.442 2150.76 182.169 Q2150.26 182.918 2149.28 183.199 Q2150.85 183.691 2153.12 183.691 Q2157.92 183.691 2159.99 178.608 Q2160.03 178.538 2160.03 178.515 L2161.62 172.167 L2161.55 172.12 Q2161.16 172.589 2160.52 173.127 Q2159.91 173.643 2158.6 174.275 Q2157.29 174.908 2156 174.908 Q2153.31 174.908 2151.46 172.846 Q2149.63 170.762 2149.63 167.319 Q2149.63 164.812 2150.64 162.306 Q2151.67 159.777 2153.26 157.926 Q2154.88 156.052 2156.94 154.881 Q2159.02 153.71 2161.04 153.71 Q2162.44 153.71 2163.64 154.553 Q2164.83 155.373 2165.49 156.732 Q2165.61 155.607 2166.24 155.139 Q2166.89 154.671 2167.46 154.671 Q2168.09 154.671 2168.46 155.022 Q2168.86 155.35 2168.86 155.959 M2164.93 158.887 Q2164.93 158.746 2164.83 158.371 Q2164.74 157.973 2164.46 157.341 Q2164.2 156.708 2163.8 156.146 Q2163.4 155.584 2162.68 155.186 Q2161.98 154.764 2161.09 154.764 Q2159.63 154.764 2158.18 155.982 Q2156.73 157.177 2155.72 159.027 Q2154.79 160.807 2153.9 164.25 Q2153.03 167.693 2153.03 169.45 Q2153.03 171.183 2153.78 172.518 Q2154.53 173.854 2156.14 173.854 Q2158.02 173.854 2160.03 172.12 Q2162.12 170.317 2162.47 168.771 L2164.79 159.613 Q2164.93 159.051 2164.93 158.887 Z" fill="#000000" fill-rule="evenodd" fill-opacity="1" /><path clip-path="url(#clip830)" d="M2173.51 186.431 Q2173.51 186.197 2174.12 185.612 Q2181.85 177.742 2181.85 162.915 Q2181.85 148.042 2174.43 140.523 Q2173.51 139.657 2173.51 139.399 Q2173.51 138.931 2173.98 138.931 Q2174.31 138.931 2175.46 139.891 Q2176.63 140.851 2178.39 143.053 Q2180.17 145.255 2181.48 147.948 Q2184.64 154.483 2184.64 162.915 Q2184.64 171.019 2181.62 177.554 Q2180.33 180.295 2178.53 182.59 Q2176.72 184.886 2175.53 185.893 Q2174.33 186.9 2173.98 186.9 Q2173.51 186.9 2173.51 186.431 Z" fill="#000000" fill-rule="evenodd" fill-opacity="1" /><polyline clip-path="url(#clip830)" style="stroke:#e26f46; stroke-linecap:butt; stroke-linejoin:round; stroke-width:4; stroke-opacity:1; fill:none" points="
  1912.73,217.024 2052.94,217.024 
  "/>
<path clip-path="url(#clip830)" d="M2076.31 225.505 Q2076.31 220.937 2079.49 217.775 Q2082.68 214.613 2086.99 214.613 Q2090.64 214.613 2093.03 217.588 L2093.03 207.212 Q2093.03 205.432 2092.4 204.987 Q2091.79 204.542 2089.31 204.542 L2089.31 203.043 L2096.22 202.527 L2096.22 231.641 Q2096.22 233.421 2096.83 233.89 Q2097.46 234.335 2099.94 234.335 L2099.94 235.811 L2092.89 236.349 L2092.89 233.164 Q2090.41 236.326 2086.47 236.349 Q2082.35 236.349 2079.33 233.187 Q2076.31 230.025 2076.31 225.505 M2080.29 225.552 Q2080.29 230.002 2081.67 232.203 Q2083.59 235.272 2086.71 235.272 Q2090.27 235.272 2092.38 231.922 Q2092.92 231.103 2092.89 230.142 L2092.89 220.305 Q2092.89 219.345 2092.38 218.548 Q2090.41 215.667 2087.2 215.667 Q2083.85 215.667 2081.77 218.736 Q2080.29 221.031 2080.29 225.552 Z" fill="#000000" fill-rule="evenodd" fill-opacity="1" /><path clip-path="url(#clip830)" d="M2102.85 225.247 Q2102.85 220.726 2105.75 217.518 Q2108.66 214.309 2112.83 214.309 Q2117.04 214.309 2119.22 217.049 Q2121.42 219.79 2121.42 223.725 Q2121.42 224.451 2121.24 224.591 Q2121.05 224.732 2120.23 224.732 L2106.83 224.732 Q2106.83 229.627 2108.28 231.922 Q2110.3 235.131 2113.69 235.131 Q2114.16 235.131 2114.72 235.038 Q2115.29 234.944 2116.43 234.546 Q2117.58 234.124 2118.59 233.023 Q2119.6 231.922 2120.18 230.189 Q2120.32 229.51 2120.79 229.533 Q2121.42 229.533 2121.42 230.095 Q2121.42 230.517 2120.95 231.477 Q2120.51 232.414 2119.64 233.539 Q2118.78 234.663 2117.09 235.506 Q2115.43 236.349 2113.41 236.349 Q2109.2 236.349 2106.01 233.164 Q2102.85 229.955 2102.85 225.247 M2106.88 223.725 L2118.26 223.725 Q2118.26 222.717 2118.07 221.593 Q2117.91 220.469 2117.39 218.923 Q2116.9 217.354 2115.73 216.37 Q2114.56 215.386 2112.83 215.386 Q2112.05 215.386 2111.21 215.714 Q2110.39 216.042 2109.38 216.838 Q2108.38 217.635 2107.67 219.438 Q2106.97 221.242 2106.88 223.725 Z" fill="#000000" fill-rule="evenodd" fill-opacity="1" /><path clip-path="url(#clip830)" d="M2121.85 216.628 L2121.85 215.574 Q2124.05 215.48 2125.5 213.934 Q2126.98 212.365 2127.47 210.444 Q2127.98 208.523 2128.03 206.298 L2129.22 206.298 L2129.22 215.129 L2136.09 215.129 L2136.09 216.628 L2129.22 216.628 L2129.22 229.955 Q2129.22 235.131 2132.46 235.131 Q2133.84 235.131 2134.75 233.726 Q2135.67 232.297 2135.67 229.768 L2135.67 227.121 L2136.86 227.121 L2136.86 229.861 Q2136.86 232.461 2135.67 234.405 Q2134.47 236.349 2132.11 236.349 Q2131.24 236.349 2130.37 236.115 Q2129.53 235.904 2128.4 235.342 Q2127.3 234.757 2126.6 233.351 Q2125.92 231.922 2125.92 229.861 L2125.92 216.628 L2121.85 216.628 Z" fill="#000000" fill-rule="evenodd" fill-opacity="1" /><path clip-path="url(#clip830)" d="M2140.26 223.818 Q2140.26 215.714 2143.28 209.179 Q2144.57 206.439 2146.38 204.143 Q2148.18 201.848 2149.37 200.841 Q2150.57 199.834 2150.9 199.834 Q2151.36 199.834 2151.39 200.302 Q2151.39 200.536 2150.76 201.122 Q2143.03 208.992 2143.05 223.818 Q2143.05 238.692 2150.57 246.257 Q2151.39 247.077 2151.39 247.334 Q2151.39 247.803 2150.9 247.803 Q2150.57 247.803 2149.42 246.843 Q2148.27 245.882 2146.49 243.68 Q2144.71 241.479 2143.42 238.785 Q2140.26 232.25 2140.26 223.818 Z" fill="#000000" fill-rule="evenodd" fill-opacity="1" /><path clip-path="url(#clip830)" d="M2176.09 216.862 Q2176.09 216.885 2175.95 217.728 L2170.61 239.019 Q2170.32 240.144 2169.53 241.268 Q2168.76 242.416 2167.51 243.399 Q2166.3 244.407 2164.42 245.016 Q2162.57 245.648 2160.44 245.648 Q2157.04 245.648 2155.55 244.922 Q2154.07 244.219 2154.07 242.72 Q2154.07 241.409 2154.89 240.659 Q2155.71 239.933 2156.65 239.933 Q2157.54 239.933 2158 240.448 Q2158.47 240.963 2158.47 241.619 Q2158.47 242.345 2157.98 243.072 Q2157.49 243.821 2156.51 244.102 Q2158.07 244.594 2160.35 244.594 Q2165.15 244.594 2167.21 239.511 Q2167.26 239.441 2167.26 239.418 L2168.85 233.07 L2168.78 233.023 Q2168.38 233.492 2167.75 234.03 Q2167.14 234.546 2165.83 235.178 Q2164.52 235.811 2163.23 235.811 Q2160.53 235.811 2158.68 233.749 Q2156.86 231.665 2156.86 228.222 Q2156.86 225.715 2157.86 223.209 Q2158.89 220.68 2160.49 218.829 Q2162.1 216.955 2164.16 215.784 Q2166.25 214.613 2168.26 214.613 Q2169.67 214.613 2170.86 215.456 Q2172.06 216.276 2172.71 217.635 Q2172.83 216.51 2173.46 216.042 Q2174.12 215.574 2174.68 215.574 Q2175.31 215.574 2175.69 215.925 Q2176.09 216.253 2176.09 216.862 M2172.15 219.79 Q2172.15 219.649 2172.06 219.274 Q2171.96 218.876 2171.68 218.244 Q2171.43 217.611 2171.03 217.049 Q2170.63 216.487 2169.9 216.089 Q2169.2 215.667 2168.31 215.667 Q2166.86 215.667 2165.41 216.885 Q2163.95 218.08 2162.95 219.93 Q2162.01 221.71 2161.12 225.153 Q2160.25 228.596 2160.25 230.353 Q2160.25 232.086 2161 233.421 Q2161.75 234.757 2163.37 234.757 Q2165.24 234.757 2167.26 233.023 Q2169.34 231.22 2169.69 229.674 L2172.01 220.516 Q2172.15 219.954 2172.15 219.79 Z" fill="#000000" fill-rule="evenodd" fill-opacity="1" /><path clip-path="url(#clip830)" d="M2180.74 247.334 Q2180.74 247.1 2181.35 246.515 Q2189.08 238.645 2189.08 223.818 Q2189.08 208.945 2181.65 201.426 Q2180.74 200.56 2180.74 200.302 Q2180.74 199.834 2181.21 199.834 Q2181.53 199.834 2182.68 200.794 Q2183.85 201.754 2185.61 203.956 Q2187.39 206.158 2188.7 208.851 Q2191.86 215.386 2191.86 223.818 Q2191.86 231.922 2188.84 238.457 Q2187.55 241.198 2185.75 243.493 Q2183.95 245.789 2182.75 246.796 Q2181.56 247.803 2181.21 247.803 Q2180.74 247.803 2180.74 247.334 Z" fill="#000000" fill-rule="evenodd" fill-opacity="1" /><polyline clip-path="url(#clip830)" style="stroke:#3da44d; stroke-linecap:butt; stroke-linejoin:round; stroke-width:4; stroke-opacity:1; fill:none" points="
  1912.73,277.927 2052.94,277.927 
  "/>
<path clip-path="url(#clip830)" d="M2076.31 297.853 L2084.67 284.95 L2088.08 302.072 L2088.72 305.191 Q2088.86 304.376 2089.28 302.993 Q2089.74 301.575 2089.81 301.221 L2101.05 258.081 Q2101.12 257.797 2101.23 257.336 Q2101.37 256.84 2101.44 256.663 Q2101.51 256.486 2101.62 256.131 Q2101.73 255.777 2101.8 255.67 Q2101.87 255.529 2101.97 255.28 Q2102.08 255.032 2102.22 254.961 Q2102.36 254.891 2102.54 254.749 Q2102.72 254.607 2102.93 254.571 Q2103.18 254.536 2103.43 254.501 Q2103.67 254.465 2104.03 254.465 L2110.37 254.465 Q2112.61 254.465 2112.61 255.918 Q2112.61 257.372 2110.45 257.372 L2104.24 257.372 L2089.6 313.344 Q2089.39 314.159 2089.21 314.478 Q2089.07 314.797 2088.57 315.081 Q2088.08 315.364 2087.19 315.364 L2086.48 315.364 L2081.84 292.288 L2077.48 299.023 L2076.31 297.853 Z" fill="#000000" fill-rule="evenodd" fill-opacity="1" /><path clip-path="url(#clip830)" d="
M2110.23 257.402 L2235.91 257.402 L2235.91 254.387 L2110.23 254.387  Z
  " fill="#000000" fill-rule="evenodd" fill-opacity="1"/>
<path clip-path="url(#clip830)" d="M2115.35 292.721 Q2115.35 288.154 2118.53 284.992 Q2121.72 281.83 2126.03 281.83 Q2129.68 281.83 2132.07 284.804 L2132.07 274.428 Q2132.07 272.648 2131.44 272.203 Q2130.83 271.758 2128.35 271.758 L2128.35 270.259 L2135.25 269.744 L2135.25 298.858 Q2135.25 300.638 2135.86 301.106 Q2136.5 301.551 2138.98 301.551 L2138.98 303.027 L2131.93 303.566 L2131.93 300.38 Q2129.45 303.542 2125.51 303.566 Q2121.39 303.566 2118.37 300.404 Q2115.35 297.242 2115.35 292.721 M2119.33 292.768 Q2119.33 297.218 2120.71 299.42 Q2122.63 302.488 2125.75 302.488 Q2129.31 302.488 2131.41 299.139 Q2131.95 298.319 2131.93 297.359 L2131.93 287.521 Q2131.93 286.561 2131.41 285.765 Q2129.45 282.884 2126.24 282.884 Q2122.89 282.884 2120.8 285.952 Q2119.33 288.247 2119.33 292.768 Z" fill="#000000" fill-rule="evenodd" fill-opacity="1" /><path clip-path="url(#clip830)" d="M2141.89 292.464 Q2141.89 287.943 2144.79 284.734 Q2147.69 281.525 2151.86 281.525 Q2156.08 281.525 2158.26 284.266 Q2160.46 287.006 2160.46 290.941 Q2160.46 291.667 2160.27 291.808 Q2160.08 291.948 2159.26 291.948 L2145.87 291.948 Q2145.87 296.844 2147.32 299.139 Q2149.33 302.348 2152.73 302.348 Q2153.2 302.348 2153.76 302.254 Q2154.32 302.16 2155.47 301.762 Q2156.62 301.341 2157.63 300.24 Q2158.63 299.139 2159.22 297.406 Q2159.36 296.726 2159.83 296.75 Q2160.46 296.75 2160.46 297.312 Q2160.46 297.734 2159.99 298.694 Q2159.55 299.631 2158.68 300.755 Q2157.81 301.879 2156.13 302.723 Q2154.46 303.566 2152.45 303.566 Q2148.23 303.566 2145.05 300.38 Q2141.89 297.171 2141.89 292.464 M2145.91 290.941 L2157.3 290.941 Q2157.3 289.934 2157.11 288.81 Q2156.95 287.685 2156.43 286.139 Q2155.94 284.57 2154.77 283.586 Q2153.6 282.603 2151.86 282.603 Q2151.09 282.603 2150.25 282.931 Q2149.43 283.259 2148.42 284.055 Q2147.41 284.851 2146.71 286.655 Q2146.01 288.458 2145.91 290.941 Z" fill="#000000" fill-rule="evenodd" fill-opacity="1" /><path clip-path="url(#clip830)" d="M2160.88 283.844 L2160.88 282.79 Q2163.09 282.696 2164.54 281.15 Q2166.01 279.581 2166.5 277.661 Q2167.02 275.74 2167.07 273.515 L2168.26 273.515 L2168.26 282.345 L2175.12 282.345 L2175.12 283.844 L2168.26 283.844 L2168.26 297.171 Q2168.26 302.348 2171.49 302.348 Q2172.88 302.348 2173.79 300.942 Q2174.7 299.514 2174.7 296.984 L2174.7 294.337 L2175.9 294.337 L2175.9 297.078 Q2175.9 299.678 2174.7 301.622 Q2173.51 303.566 2171.14 303.566 Q2170.28 303.566 2169.41 303.332 Q2168.57 303.121 2167.44 302.559 Q2166.34 301.973 2165.64 300.568 Q2164.96 299.139 2164.96 297.078 L2164.96 283.844 L2160.88 283.844 Z" fill="#000000" fill-rule="evenodd" fill-opacity="1" /><path clip-path="url(#clip830)" d="M2179.3 291.035 Q2179.3 282.931 2182.32 276.396 Q2183.61 273.655 2185.41 271.36 Q2187.22 269.065 2188.41 268.057 Q2189.6 267.05 2189.93 267.05 Q2190.4 267.05 2190.42 267.519 Q2190.42 267.753 2189.79 268.338 Q2182.06 276.208 2182.09 291.035 Q2182.09 305.908 2189.6 313.473 Q2190.42 314.293 2190.42 314.551 Q2190.42 315.019 2189.93 315.019 Q2189.6 315.019 2188.46 314.059 Q2187.31 313.099 2185.53 310.897 Q2183.75 308.695 2182.46 306.002 Q2179.3 299.467 2179.3 291.035 Z" fill="#000000" fill-rule="evenodd" fill-opacity="1" /><path clip-path="url(#clip830)" d="M2215.12 284.078 Q2215.12 284.102 2214.98 284.945 L2209.64 306.236 Q2209.36 307.36 2208.57 308.484 Q2207.79 309.632 2206.55 310.616 Q2205.33 311.623 2203.46 312.232 Q2201.61 312.864 2199.48 312.864 Q2196.08 312.864 2194.58 312.138 Q2193.11 311.436 2193.11 309.937 Q2193.11 308.625 2193.93 307.875 Q2194.75 307.149 2195.68 307.149 Q2196.57 307.149 2197.04 307.665 Q2197.51 308.18 2197.51 308.836 Q2197.51 309.562 2197.02 310.288 Q2196.53 311.038 2195.54 311.319 Q2197.11 311.81 2199.38 311.81 Q2204.19 311.81 2206.25 306.728 Q2206.29 306.658 2206.29 306.634 L2207.89 300.287 L2207.82 300.24 Q2207.42 300.708 2206.79 301.247 Q2206.18 301.762 2204.86 302.395 Q2203.55 303.027 2202.26 303.027 Q2199.57 303.027 2197.72 300.966 Q2195.89 298.881 2195.89 295.438 Q2195.89 292.932 2196.9 290.426 Q2197.93 287.896 2199.52 286.046 Q2201.14 284.172 2203.2 283.001 Q2205.29 281.83 2207.3 281.83 Q2208.71 281.83 2209.9 282.673 Q2211.09 283.493 2211.75 284.851 Q2211.87 283.727 2212.5 283.259 Q2213.16 282.79 2213.72 282.79 Q2214.35 282.79 2214.73 283.141 Q2215.12 283.469 2215.12 284.078 M2211.19 287.006 Q2211.19 286.866 2211.09 286.491 Q2211 286.093 2210.72 285.46 Q2210.46 284.828 2210.06 284.266 Q2209.67 283.704 2208.94 283.305 Q2208.24 282.884 2207.35 282.884 Q2205.9 282.884 2204.44 284.102 Q2202.99 285.296 2201.98 287.147 Q2201.05 288.927 2200.16 292.37 Q2199.29 295.813 2199.29 297.57 Q2199.29 299.303 2200.04 300.638 Q2200.79 301.973 2202.41 301.973 Q2204.28 301.973 2206.29 300.24 Q2208.38 298.436 2208.73 296.89 L2211.05 287.732 Q2211.19 287.17 2211.19 287.006 Z" fill="#000000" fill-rule="evenodd" fill-opacity="1" /><path clip-path="url(#clip830)" d="M2219.78 314.551 Q2219.78 314.317 2220.38 313.731 Q2228.11 305.861 2228.11 291.035 Q2228.11 276.162 2220.69 268.643 Q2219.78 267.776 2219.78 267.519 Q2219.78 267.05 2220.24 267.05 Q2220.57 267.05 2221.72 268.01 Q2222.89 268.971 2224.65 271.173 Q2226.43 273.374 2227.74 276.068 Q2230.9 282.603 2230.9 291.035 Q2230.9 299.139 2227.88 305.674 Q2226.59 308.414 2224.79 310.71 Q2222.98 313.005 2221.79 314.012 Q2220.59 315.019 2220.24 315.019 Q2219.78 315.019 2219.78 314.551 Z" fill="#000000" fill-rule="evenodd" fill-opacity="1" /></svg>
