<?xml version="1.0" encoding="utf-8"?>
<svg xmlns="http://www.w3.org/2000/svg" xmlns:xlink="http://www.w3.org/1999/xlink" width="600" height="400" viewBox="0 0 2400 1600">
<defs>
  <clipPath id="clip460">
    <rect x="0" y="0" width="2400" height="1600"/>
  </clipPath>
</defs>
<path clip-path="url(#clip460)" d="
M0 1600 L2400 1600 L2400 0 L0 0  Z
  " fill="#ffffff" fill-rule="evenodd" fill-opacity="1"/>
<defs>
  <clipPath id="clip461">
    <rect x="480" y="0" width="1681" height="1600"/>
  </clipPath>
</defs>
<path clip-path="url(#clip460)" d="
M219.38 1486.45 L2352.76 1486.45 L2352.76 47.2441 L219.38 47.2441  Z
  " fill="#ffffff" fill-rule="evenodd" fill-opacity="1"/>
<defs>
  <clipPath id="clip462">
    <rect x="219" y="47" width="2134" height="1440"/>
  </clipPath>
</defs>
<polyline clip-path="url(#clip462)" style="stroke:#000000; stroke-linecap:butt; stroke-linejoin:round; stroke-width:2; stroke-opacity:0.1; fill:none" points="
  279.759,1486.45 279.759,47.2441 
  "/>
<polyline clip-path="url(#clip462)" style="stroke:#000000; stroke-linecap:butt; stroke-linejoin:round; stroke-width:2; stroke-opacity:0.1; fill:none" points="
  941.627,1486.45 941.627,47.2441 
  "/>
<polyline clip-path="url(#clip462)" style="stroke:#000000; stroke-linecap:butt; stroke-linejoin:round; stroke-width:2; stroke-opacity:0.1; fill:none" points="
  1617,1486.45 1617,47.2441 
  "/>
<polyline clip-path="url(#clip462)" style="stroke:#000000; stroke-linecap:butt; stroke-linejoin:round; stroke-width:2; stroke-opacity:0.1; fill:none" points="
  2292.38,1486.45 2292.38,47.2441 
  "/>
<polyline clip-path="url(#clip460)" style="stroke:#000000; stroke-linecap:butt; stroke-linejoin:round; stroke-width:4; stroke-opacity:1; fill:none" points="
  219.38,1486.45 2352.76,1486.45 
  "/>
<polyline clip-path="url(#clip460)" style="stroke:#000000; stroke-linecap:butt; stroke-linejoin:round; stroke-width:4; stroke-opacity:1; fill:none" points="
  279.759,1486.45 279.759,1467.55 
  "/>
<polyline clip-path="url(#clip460)" style="stroke:#000000; stroke-linecap:butt; stroke-linejoin:round; stroke-width:4; stroke-opacity:1; fill:none" points="
  941.627,1486.45 941.627,1467.55 
  "/>
<polyline clip-path="url(#clip460)" style="stroke:#000000; stroke-linecap:butt; stroke-linejoin:round; stroke-width:4; stroke-opacity:1; fill:none" points="
  1617,1486.45 1617,1467.55 
  "/>
<polyline clip-path="url(#clip460)" style="stroke:#000000; stroke-linecap:butt; stroke-linejoin:round; stroke-width:4; stroke-opacity:1; fill:none" points="
  2292.38,1486.45 2292.38,1467.55 
  "/>
<path clip-path="url(#clip460)" d="M264.915 1554.64 L264.915 1553.16 L265.618 1553.16 Q268.171 1553.16 268.967 1552.81 Q269.787 1552.43 269.857 1551.08 L269.857 1525.48 Q269.81 1524.23 269.014 1523.86 Q268.218 1523.46 265.618 1523.46 L264.915 1523.46 L264.915 1522.01 Q267.164 1522.1 271.661 1522.1 Q273.488 1522.1 275.057 1522.06 Q276.65 1522.01 276.907 1522.01 L289.954 1522.01 L291.289 1532.81 L290.047 1532.81 Q289.672 1529.88 289.251 1528.36 Q288.853 1526.81 287.869 1525.57 Q286.885 1524.33 285.246 1523.91 Q283.606 1523.46 280.842 1523.46 L276.743 1523.46 Q275.197 1523.46 274.659 1523.77 Q274.12 1524.07 274.12 1525.33 L274.12 1550.94 Q274.12 1552.41 275.104 1552.79 Q276.087 1553.16 279.39 1553.16 L280.257 1553.16 L280.257 1554.64 Q276.181 1554.5 272.059 1554.5 L271.754 1554.5 Q268.756 1554.5 264.915 1554.64 Z" fill="#000000" fill-rule="evenodd" fill-opacity="1" /><path clip-path="url(#clip460)" d="M923.814 1554.71 L923.814 1553.23 Q926.016 1553.23 927.632 1552.55 Q929.248 1551.87 929.717 1551.38 Q930.208 1550.87 930.771 1550.05 L938.64 1538.45 L929.81 1525.1 Q929.131 1524.09 928.218 1523.77 Q927.327 1523.44 925.36 1523.44 L924.446 1523.44 L924.446 1521.94 Q927.093 1522.08 930.677 1522.08 Q935.994 1522.08 937.68 1521.94 L937.68 1523.44 Q936.251 1523.48 935.408 1523.95 Q934.565 1524.4 934.565 1524.87 Q934.565 1525.05 934.893 1525.59 L941.076 1534.84 L946.557 1526.74 Q946.979 1526.06 946.979 1525.64 Q946.979 1524.77 946.183 1524.14 Q945.41 1523.48 944.004 1523.44 L944.004 1521.94 Q945.925 1522.08 950.164 1522.08 Q950.703 1522.08 951.57 1522.06 Q952.46 1522.03 953.631 1521.99 Q954.802 1521.94 955.481 1521.94 L955.481 1523.44 Q950.633 1523.48 948.525 1526.55 L941.943 1536.18 L952.062 1551.5 Q952.788 1552.55 953.701 1552.9 Q954.615 1553.23 956.582 1553.23 L957.496 1553.23 L957.496 1554.71 Q954.474 1554.57 951.265 1554.57 Q945.948 1554.57 944.262 1554.71 L944.262 1553.23 Q945.691 1553.18 946.534 1552.74 Q947.377 1552.27 947.377 1551.78 Q947.377 1551.73 947.119 1551.26 L939.554 1539.79 L932.738 1549.86 Q932.27 1550.63 932.27 1551.01 Q932.27 1551.78 933.019 1552.48 Q933.792 1553.16 935.291 1553.23 L935.291 1554.71 Q933.558 1554.57 929.131 1554.57 Q928.99 1554.57 923.814 1554.71 Z" fill="#000000" fill-rule="evenodd" fill-opacity="1" /><path clip-path="url(#clip460)" d="M1595.26 1554.71 L1595.26 1553.23 Q1596.99 1553.23 1598.09 1552.9 Q1599.19 1552.55 1599.59 1551.92 Q1600.01 1551.26 1600.11 1550.84 Q1600.2 1550.4 1600.2 1549.67 L1600.2 1525.69 Q1600.2 1524.3 1599.59 1523.88 Q1599.01 1523.44 1596.41 1523.44 L1595.26 1523.44 L1595.26 1521.94 L1603.36 1521.94 Q1604.23 1521.94 1604.46 1522.1 Q1604.7 1522.24 1605.05 1522.99 L1615.45 1549.86 L1625.94 1522.85 Q1626.18 1522.17 1626.39 1522.06 Q1626.62 1521.94 1627.53 1521.94 L1635.64 1521.94 L1635.64 1523.44 L1634.49 1523.44 Q1631.89 1523.44 1631.28 1523.88 Q1630.7 1524.3 1630.7 1525.69 L1630.7 1550.96 Q1630.7 1552.34 1631.28 1552.79 Q1631.89 1553.23 1634.49 1553.23 L1635.64 1553.23 L1635.64 1554.71 Q1633.86 1554.57 1628.78 1554.57 Q1623.65 1554.57 1621.87 1554.71 L1621.87 1553.23 L1623.04 1553.23 Q1625.64 1553.23 1626.22 1552.81 Q1626.81 1552.36 1626.81 1550.96 L1626.81 1523.44 L1626.76 1523.44 L1614.98 1553.79 Q1614.65 1554.71 1614.11 1554.71 Q1613.53 1554.71 1613.15 1553.65 L1601.58 1523.81 L1601.54 1523.81 L1601.54 1549.67 Q1601.54 1550.4 1601.63 1550.84 Q1601.72 1551.26 1602.12 1551.92 Q1602.54 1552.55 1603.64 1552.9 Q1604.74 1553.23 1606.48 1553.23 L1606.48 1554.71 Q1601.44 1554.57 1600.86 1554.57 Q1600.29 1554.57 1595.26 1554.71 Z" fill="#000000" fill-rule="evenodd" fill-opacity="1" /><path clip-path="url(#clip460)" d="M2277.53 1554.64 L2277.53 1553.16 L2278.24 1553.16 Q2280.79 1553.16 2281.59 1552.81 Q2282.41 1552.43 2282.48 1551.08 L2282.48 1525.48 Q2282.43 1524.23 2281.63 1523.86 Q2280.84 1523.46 2278.24 1523.46 L2277.53 1523.46 L2277.53 1522.01 Q2279.78 1522.1 2284.28 1522.1 Q2286.11 1522.1 2287.68 1522.06 Q2289.27 1522.01 2289.53 1522.01 L2302.57 1522.01 L2303.91 1532.81 L2302.67 1532.81 Q2302.29 1529.88 2301.87 1528.36 Q2301.47 1526.81 2300.49 1525.57 Q2299.5 1524.33 2297.86 1523.91 Q2296.22 1523.46 2293.46 1523.46 L2289.36 1523.46 Q2287.82 1523.46 2287.28 1523.77 Q2286.74 1524.07 2286.74 1525.33 L2286.74 1550.94 Q2286.74 1552.41 2287.72 1552.79 Q2288.71 1553.16 2292.01 1553.16 L2292.88 1553.16 L2292.88 1554.64 Q2288.8 1554.5 2284.68 1554.5 L2284.37 1554.5 Q2281.37 1554.5 2277.53 1554.64 Z" fill="#000000" fill-rule="evenodd" fill-opacity="1" /><polyline clip-path="url(#clip462)" style="stroke:#000000; stroke-linecap:butt; stroke-linejoin:round; stroke-width:2; stroke-opacity:0.1; fill:none" points="
  219.38,1445.72 2352.76,1445.72 
  "/>
<polyline clip-path="url(#clip462)" style="stroke:#000000; stroke-linecap:butt; stroke-linejoin:round; stroke-width:2; stroke-opacity:0.1; fill:none" points="
  219.38,1138.83 2352.76,1138.83 
  "/>
<polyline clip-path="url(#clip462)" style="stroke:#000000; stroke-linecap:butt; stroke-linejoin:round; stroke-width:2; stroke-opacity:0.1; fill:none" points="
  219.38,831.938 2352.76,831.938 
  "/>
<polyline clip-path="url(#clip462)" style="stroke:#000000; stroke-linecap:butt; stroke-linejoin:round; stroke-width:2; stroke-opacity:0.1; fill:none" points="
  219.38,525.049 2352.76,525.049 
  "/>
<polyline clip-path="url(#clip462)" style="stroke:#000000; stroke-linecap:butt; stroke-linejoin:round; stroke-width:2; stroke-opacity:0.1; fill:none" points="
  219.38,218.16 2352.76,218.16 
  "/>
<polyline clip-path="url(#clip460)" style="stroke:#000000; stroke-linecap:butt; stroke-linejoin:round; stroke-width:4; stroke-opacity:1; fill:none" points="
  219.38,1486.45 219.38,47.2441 
  "/>
<polyline clip-path="url(#clip460)" style="stroke:#000000; stroke-linecap:butt; stroke-linejoin:round; stroke-width:4; stroke-opacity:1; fill:none" points="
  219.38,1445.72 238.278,1445.72 
  "/>
<polyline clip-path="url(#clip460)" style="stroke:#000000; stroke-linecap:butt; stroke-linejoin:round; stroke-width:4; stroke-opacity:1; fill:none" points="
  219.38,1138.83 238.278,1138.83 
  "/>
<polyline clip-path="url(#clip460)" style="stroke:#000000; stroke-linecap:butt; stroke-linejoin:round; stroke-width:4; stroke-opacity:1; fill:none" points="
  219.38,831.938 238.278,831.938 
  "/>
<polyline clip-path="url(#clip460)" style="stroke:#000000; stroke-linecap:butt; stroke-linejoin:round; stroke-width:4; stroke-opacity:1; fill:none" points="
  219.38,525.049 238.278,525.049 
  "/>
<polyline clip-path="url(#clip460)" style="stroke:#000000; stroke-linecap:butt; stroke-linejoin:round; stroke-width:4; stroke-opacity:1; fill:none" points="
  219.38,218.16 238.278,218.16 
  "/>
<path clip-path="url(#clip460)" d="M126.205 1431.51 Q122.593 1431.51 120.765 1435.08 Q118.959 1438.62 118.959 1445.75 Q118.959 1452.86 120.765 1456.42 Q122.593 1459.96 126.205 1459.96 Q129.839 1459.96 131.644 1456.42 Q133.473 1452.86 133.473 1445.75 Q133.473 1438.62 131.644 1435.08 Q129.839 1431.51 126.205 1431.51 M126.205 1427.81 Q132.015 1427.81 135.07 1432.42 Q138.149 1437 138.149 1445.75 Q138.149 1454.48 135.07 1459.08 Q132.015 1463.67 126.205 1463.67 Q120.394 1463.67 117.316 1459.08 Q114.26 1454.48 114.26 1445.75 Q114.26 1437 117.316 1432.42 Q120.394 1427.81 126.205 1427.81 Z" fill="#000000" fill-rule="evenodd" fill-opacity="1" /><path clip-path="url(#clip460)" d="M146.366 1457.12 L151.251 1457.12 L151.251 1463 L146.366 1463 L146.366 1457.12 Z" fill="#000000" fill-rule="evenodd" fill-opacity="1" /><path clip-path="url(#clip460)" d="M171.436 1431.51 Q167.825 1431.51 165.996 1435.08 Q164.19 1438.62 164.19 1445.75 Q164.19 1452.86 165.996 1456.42 Q167.825 1459.96 171.436 1459.96 Q175.07 1459.96 176.876 1456.42 Q178.704 1452.86 178.704 1445.75 Q178.704 1438.62 176.876 1435.08 Q175.07 1431.51 171.436 1431.51 M171.436 1427.81 Q177.246 1427.81 180.301 1432.42 Q183.38 1437 183.38 1445.75 Q183.38 1454.48 180.301 1459.08 Q177.246 1463.67 171.436 1463.67 Q165.626 1463.67 162.547 1459.08 Q159.491 1454.48 159.491 1445.75 Q159.491 1437 162.547 1432.42 Q165.626 1427.81 171.436 1427.81 Z" fill="#000000" fill-rule="evenodd" fill-opacity="1" /><path clip-path="url(#clip460)" d="M127.2 1124.63 Q123.589 1124.63 121.76 1128.19 Q119.955 1131.73 119.955 1138.86 Q119.955 1145.97 121.76 1149.53 Q123.589 1153.07 127.2 1153.07 Q130.834 1153.07 132.64 1149.53 Q134.468 1145.97 134.468 1138.86 Q134.468 1131.73 132.64 1128.19 Q130.834 1124.63 127.2 1124.63 M127.2 1120.92 Q133.01 1120.92 136.066 1125.53 Q139.144 1130.11 139.144 1138.86 Q139.144 1147.59 136.066 1152.19 Q133.01 1156.78 127.2 1156.78 Q121.39 1156.78 118.311 1152.19 Q115.256 1147.59 115.256 1138.86 Q115.256 1130.11 118.311 1125.53 Q121.39 1120.92 127.2 1120.92 Z" fill="#000000" fill-rule="evenodd" fill-opacity="1" /><path clip-path="url(#clip460)" d="M147.362 1150.23 L152.246 1150.23 L152.246 1156.11 L147.362 1156.11 L147.362 1150.23 Z" fill="#000000" fill-rule="evenodd" fill-opacity="1" /><path clip-path="url(#clip460)" d="M162.477 1121.55 L180.834 1121.55 L180.834 1125.48 L166.76 1125.48 L166.76 1133.95 Q167.778 1133.61 168.797 1133.44 Q169.815 1133.26 170.834 1133.26 Q176.621 1133.26 180.001 1136.43 Q183.38 1139.6 183.38 1145.02 Q183.38 1150.6 179.908 1153.7 Q176.436 1156.78 170.116 1156.78 Q167.94 1156.78 165.672 1156.41 Q163.427 1156.04 161.019 1155.3 L161.019 1150.6 Q163.102 1151.73 165.325 1152.29 Q167.547 1152.84 170.024 1152.84 Q174.028 1152.84 176.366 1150.74 Q178.704 1148.63 178.704 1145.02 Q178.704 1141.41 176.366 1139.3 Q174.028 1137.19 170.024 1137.19 Q168.149 1137.19 166.274 1137.61 Q164.422 1138.03 162.477 1138.91 L162.477 1121.55 Z" fill="#000000" fill-rule="evenodd" fill-opacity="1" /><path clip-path="url(#clip460)" d="M117.015 845.282 L124.654 845.282 L124.654 818.917 L116.343 820.584 L116.343 816.324 L124.607 814.658 L129.283 814.658 L129.283 845.282 L136.922 845.282 L136.922 849.218 L117.015 849.218 L117.015 845.282 Z" fill="#000000" fill-rule="evenodd" fill-opacity="1" /><path clip-path="url(#clip460)" d="M146.366 843.338 L151.251 843.338 L151.251 849.218 L146.366 849.218 L146.366 843.338 Z" fill="#000000" fill-rule="evenodd" fill-opacity="1" /><path clip-path="url(#clip460)" d="M171.436 817.736 Q167.825 817.736 165.996 821.301 Q164.19 824.843 164.19 831.972 Q164.19 839.079 165.996 842.644 Q167.825 846.185 171.436 846.185 Q175.07 846.185 176.876 842.644 Q178.704 839.079 178.704 831.972 Q178.704 824.843 176.876 821.301 Q175.07 817.736 171.436 817.736 M171.436 814.033 Q177.246 814.033 180.301 818.639 Q183.38 823.222 183.38 831.972 Q183.38 840.699 180.301 845.306 Q177.246 849.889 171.436 849.889 Q165.626 849.889 162.547 845.306 Q159.491 840.699 159.491 831.972 Q159.491 823.222 162.547 818.639 Q165.626 814.033 171.436 814.033 Z" fill="#000000" fill-rule="evenodd" fill-opacity="1" /><path clip-path="url(#clip460)" d="M118.01 538.393 L125.649 538.393 L125.649 512.028 L117.339 513.695 L117.339 509.435 L125.603 507.769 L130.279 507.769 L130.279 538.393 L137.917 538.393 L137.917 542.329 L118.01 542.329 L118.01 538.393 Z" fill="#000000" fill-rule="evenodd" fill-opacity="1" /><path clip-path="url(#clip460)" d="M147.362 536.449 L152.246 536.449 L152.246 542.329 L147.362 542.329 L147.362 536.449 Z" fill="#000000" fill-rule="evenodd" fill-opacity="1" /><path clip-path="url(#clip460)" d="M162.477 507.769 L180.834 507.769 L180.834 511.704 L166.76 511.704 L166.76 520.176 Q167.778 519.829 168.797 519.667 Q169.815 519.482 170.834 519.482 Q176.621 519.482 180.001 522.653 Q183.38 525.824 183.38 531.241 Q183.38 536.819 179.908 539.921 Q176.436 543 170.116 543 Q167.94 543 165.672 542.63 Q163.427 542.259 161.019 541.518 L161.019 536.819 Q163.102 537.954 165.325 538.509 Q167.547 539.065 170.024 539.065 Q174.028 539.065 176.366 536.958 Q178.704 534.852 178.704 531.241 Q178.704 527.63 176.366 525.523 Q174.028 523.417 170.024 523.417 Q168.149 523.417 166.274 523.833 Q164.422 524.25 162.477 525.13 L162.477 507.769 Z" fill="#000000" fill-rule="evenodd" fill-opacity="1" /><path clip-path="url(#clip460)" d="M120.232 231.504 L136.552 231.504 L136.552 235.44 L114.607 235.44 L114.607 231.504 Q117.269 228.75 121.853 224.12 Q126.459 219.467 127.64 218.125 Q129.885 215.602 130.765 213.866 Q131.667 212.106 131.667 210.417 Q131.667 207.662 129.723 205.926 Q127.802 204.19 124.7 204.19 Q122.501 204.19 120.047 204.954 Q117.617 205.718 114.839 207.268 L114.839 202.546 Q117.663 201.412 120.117 200.833 Q122.57 200.255 124.607 200.255 Q129.978 200.255 133.172 202.94 Q136.367 205.625 136.367 210.116 Q136.367 212.245 135.556 214.167 Q134.769 216.065 132.663 218.657 Q132.084 219.329 128.982 222.546 Q125.88 225.741 120.232 231.504 Z" fill="#000000" fill-rule="evenodd" fill-opacity="1" /><path clip-path="url(#clip460)" d="M146.366 229.56 L151.251 229.56 L151.251 235.44 L146.366 235.44 L146.366 229.56 Z" fill="#000000" fill-rule="evenodd" fill-opacity="1" /><path clip-path="url(#clip460)" d="M171.436 203.958 Q167.825 203.958 165.996 207.523 Q164.19 211.065 164.19 218.194 Q164.19 225.301 165.996 228.866 Q167.825 232.407 171.436 232.407 Q175.07 232.407 176.876 228.866 Q178.704 225.301 178.704 218.194 Q178.704 211.065 176.876 207.523 Q175.07 203.958 171.436 203.958 M171.436 200.255 Q177.246 200.255 180.301 204.861 Q183.38 209.444 183.38 218.194 Q183.38 226.921 180.301 231.528 Q177.246 236.111 171.436 236.111 Q165.626 236.111 162.547 231.528 Q159.491 226.921 159.491 218.194 Q159.491 209.444 162.547 204.861 Q165.626 200.255 171.436 200.255 Z" fill="#000000" fill-rule="evenodd" fill-opacity="1" /><path clip-path="url(#clip460)" d="M20.8447 994.42 Q20.8447 1001.42 26.0645 1005.56 Q31.2844 1009.67 40.2919 1009.67 Q49.2675 1009.67 54.4874 1005.56 Q59.7073 1001.42 59.7073 994.42 Q59.7073 987.418 54.4874 983.344 Q49.2675 979.238 40.2919 979.238 Q31.2844 979.238 26.0645 983.344 Q20.8447 987.418 20.8447 994.42 M63.1448 985.413 L72.4069 976.946 L72.4069 984.712 L64.7999 991.746 Q64.8635 992.797 64.8954 993.37 Q64.9272 993.911 64.9272 994.42 Q64.9272 1004.45 58.2432 1010.46 Q51.5274 1016.45 40.2919 1016.45 Q29.0246 1016.45 22.3406 1010.46 Q15.6248 1004.45 15.6248 994.42 Q15.6248 984.426 22.3406 978.442 Q29.0246 972.458 40.2919 972.458 Q48.5673 972.458 54.4556 975.8 Q60.3439 979.11 63.1448 985.413 Z" fill="#000000" fill-rule="evenodd" fill-opacity="1" /><path clip-path="url(#clip460)" d="M49.9359 963.26 L28.3562 963.26 L28.3562 957.403 L49.7131 957.403 Q54.7739 957.403 57.3202 955.43 Q59.8346 953.457 59.8346 949.51 Q59.8346 944.767 56.8109 942.03 Q53.7872 939.261 48.5673 939.261 L28.3562 939.261 L28.3562 933.405 L64.0042 933.405 L64.0042 939.261 L58.5296 939.261 Q61.7762 941.394 63.3676 944.226 Q64.9272 947.027 64.9272 950.751 Q64.9272 956.894 61.1078 960.077 Q57.2883 963.26 49.9359 963.26 M27.4968 948.523 L27.4968 948.523 Z" fill="#000000" fill-rule="evenodd" fill-opacity="1" /><path clip-path="url(#clip460)" d="M46.0847 905.141 Q46.0847 912.239 47.7079 914.976 Q49.3312 917.713 53.2461 917.713 Q56.3653 917.713 58.2114 915.676 Q60.0256 913.607 60.0256 910.074 Q60.0256 905.205 56.5881 902.276 Q53.1188 899.316 47.3897 899.316 L46.0847 899.316 L46.0847 905.141 M43.6657 893.46 L64.0042 893.46 L64.0042 899.316 L58.5933 899.316 Q61.8398 901.322 63.3994 904.313 Q64.9272 907.305 64.9272 911.634 Q64.9272 917.108 61.8716 920.355 Q58.7843 923.57 53.6281 923.57 Q47.6125 923.57 44.5569 919.559 Q41.5014 915.517 41.5014 907.528 L41.5014 899.316 L40.9285 899.316 Q36.8862 899.316 34.6901 901.99 Q32.4621 904.632 32.4621 909.438 Q32.4621 912.493 33.1941 915.39 Q33.9262 918.286 35.3903 920.96 L29.9795 920.96 Q28.7381 917.745 28.1334 914.721 Q27.4968 911.698 27.4968 908.833 Q27.4968 901.099 31.5072 897.279 Q35.5176 893.46 43.6657 893.46 Z" fill="#000000" fill-rule="evenodd" fill-opacity="1" /><path clip-path="url(#clip460)" d="M42.4881 851.765 L64.0042 851.765 L64.0042 857.621 L42.679 857.621 Q37.6183 857.621 35.1038 859.594 Q32.5894 861.568 32.5894 865.514 Q32.5894 870.257 35.6131 872.994 Q38.6368 875.731 43.8567 875.731 L64.0042 875.731 L64.0042 881.62 L28.3562 881.62 L28.3562 875.731 L33.8944 875.731 Q30.6797 873.631 29.0883 870.798 Q27.4968 867.933 27.4968 864.209 Q27.4968 858.067 31.3163 854.916 Q35.1038 851.765 42.4881 851.765 Z" fill="#000000" fill-rule="evenodd" fill-opacity="1" /><path clip-path="url(#clip460)" d="M18.2347 834.291 L28.3562 834.291 L28.3562 822.228 L32.9077 822.228 L32.9077 834.291 L52.2594 834.291 Q56.6199 834.291 57.8613 833.113 Q59.1026 831.904 59.1026 828.243 L59.1026 822.228 L64.0042 822.228 L64.0042 828.243 Q64.0042 835.023 61.4897 837.601 Q58.9434 840.179 52.2594 840.179 L32.9077 840.179 L32.9077 844.476 L28.3562 844.476 L28.3562 840.179 L18.2347 840.179 L18.2347 834.291 Z" fill="#000000" fill-rule="evenodd" fill-opacity="1" /><path clip-path="url(#clip460)" d="M49.9359 815.13 L28.3562 815.13 L28.3562 809.273 L49.7131 809.273 Q54.7739 809.273 57.3202 807.3 Q59.8346 805.327 59.8346 801.38 Q59.8346 796.637 56.8109 793.9 Q53.7872 791.131 48.5673 791.131 L28.3562 791.131 L28.3562 785.275 L64.0042 785.275 L64.0042 791.131 L58.5296 791.131 Q61.7762 793.264 63.3676 796.096 Q64.9272 798.897 64.9272 802.621 Q64.9272 808.764 61.1078 811.947 Q57.2883 815.13 49.9359 815.13 M27.4968 800.393 L27.4968 800.393 Z" fill="#000000" fill-rule="evenodd" fill-opacity="1" /><path clip-path="url(#clip460)" d="M35.1993 745.457 Q31.2526 743.261 29.3747 740.206 Q27.4968 737.15 27.4968 733.012 Q27.4968 727.442 31.4117 724.419 Q35.2948 721.395 42.4881 721.395 L64.0042 721.395 L64.0042 727.283 L42.679 727.283 Q37.5546 727.283 35.072 729.097 Q32.5894 730.912 32.5894 734.636 Q32.5894 739.187 35.6131 741.829 Q38.6368 744.471 43.8567 744.471 L64.0042 744.471 L64.0042 750.359 L42.679 750.359 Q37.5228 750.359 35.072 752.173 Q32.5894 753.987 32.5894 757.775 Q32.5894 762.263 35.6449 764.904 Q38.6686 767.546 43.8567 767.546 L64.0042 767.546 L64.0042 773.434 L28.3562 773.434 L28.3562 767.546 L33.8944 767.546 Q30.616 765.541 29.0564 762.74 Q27.4968 759.939 27.4968 756.088 Q27.4968 752.205 29.4702 749.499 Q31.4436 746.762 35.1993 745.457 Z" fill="#000000" fill-rule="evenodd" fill-opacity="1" /><path clip-path="url(#clip460)" d="M16.4842 709.459 L16.4842 699.879 L48.8219 687.752 L16.4842 675.562 L16.4842 665.981 L64.0042 665.981 L64.0042 672.252 L22.277 672.252 L54.8694 684.506 L54.8694 690.967 L22.277 703.221 L64.0042 703.221 L64.0042 709.459 L16.4842 709.459 Z" fill="#000000" fill-rule="evenodd" fill-opacity="1" /><path clip-path="url(#clip460)" d="M44.7161 622.981 L47.5806 622.981 L47.5806 649.908 Q53.6281 649.526 56.8109 646.28 Q59.9619 643.001 59.9619 637.177 Q59.9619 633.803 59.1344 630.652 Q58.3069 627.469 56.6518 624.35 L62.1899 624.35 Q63.5267 627.501 64.227 630.811 Q64.9272 634.121 64.9272 637.527 Q64.9272 646.057 59.9619 651.054 Q54.9967 656.019 46.5303 656.019 Q37.7774 656.019 32.6531 651.308 Q27.4968 646.566 27.4968 638.545 Q27.4968 631.352 32.1438 627.182 Q36.7589 622.981 44.7161 622.981 M42.9973 628.837 Q38.1912 628.901 35.3266 631.543 Q32.4621 634.153 32.4621 638.482 Q32.4621 643.383 35.2312 646.343 Q38.0002 649.271 43.0292 649.717 L42.9973 628.837 Z" fill="#000000" fill-rule="evenodd" fill-opacity="1" /><path clip-path="url(#clip460)" d="M18.2347 607.576 L28.3562 607.576 L28.3562 595.513 L32.9077 595.513 L32.9077 607.576 L52.2594 607.576 Q56.6199 607.576 57.8613 606.398 Q59.1026 605.189 59.1026 601.529 L59.1026 595.513 L64.0042 595.513 L64.0042 601.529 Q64.0042 608.308 61.4897 610.886 Q58.9434 613.464 52.2594 613.464 L32.9077 613.464 L32.9077 617.761 L28.3562 617.761 L28.3562 613.464 L18.2347 613.464 L18.2347 607.576 Z" fill="#000000" fill-rule="evenodd" fill-opacity="1" /><path clip-path="url(#clip460)" d="M33.8307 567.154 Q33.2578 568.14 33.0032 569.318 Q32.7167 570.464 32.7167 571.864 Q32.7167 576.83 35.9632 579.503 Q39.1779 582.145 45.2253 582.145 L64.0042 582.145 L64.0042 588.033 L28.3562 588.033 L28.3562 582.145 L33.8944 582.145 Q30.6479 580.299 29.0883 577.339 Q27.4968 574.379 27.4968 570.146 Q27.4968 569.541 27.5923 568.809 Q27.656 568.077 27.8151 567.186 L33.8307 567.154 Z" fill="#000000" fill-rule="evenodd" fill-opacity="1" /><path clip-path="url(#clip460)" d="M28.3562 561.011 L28.3562 555.154 L64.0042 555.154 L64.0042 561.011 L28.3562 561.011 M14.479 561.011 L14.479 555.154 L21.895 555.154 L21.895 561.011 L14.479 561.011 Z" fill="#000000" fill-rule="evenodd" fill-opacity="1" /><path clip-path="url(#clip460)" d="M29.7248 517.247 L35.1993 517.247 Q33.8307 519.729 33.1623 522.244 Q32.4621 524.726 32.4621 527.273 Q32.4621 532.97 36.0905 536.121 Q39.6872 539.272 46.212 539.272 Q52.7369 539.272 56.3653 536.121 Q59.9619 532.97 59.9619 527.273 Q59.9619 524.726 59.2935 522.244 Q58.5933 519.729 57.2247 517.247 L62.6355 517.247 Q63.7814 519.697 64.3543 522.339 Q64.9272 524.949 64.9272 527.909 Q64.9272 535.962 59.8664 540.704 Q54.8057 545.447 46.212 545.447 Q37.491 545.447 32.4939 540.672 Q27.4968 535.866 27.4968 527.527 Q27.4968 524.822 28.0697 522.244 Q28.6108 519.666 29.7248 517.247 Z" fill="#000000" fill-rule="evenodd" fill-opacity="1" /><polyline clip-path="url(#clip462)" style="stroke:#009af9; stroke-linecap:butt; stroke-linejoin:round; stroke-width:4; stroke-opacity:1; fill:none" points="
  279.759,1420.94 293.266,1420.96 306.774,1420.98 320.281,1421.01 333.789,1421.06 347.296,1421.11 360.804,1421.17 374.311,1421.23 387.819,1421.31 401.326,1421.39 
  414.834,1421.48 428.341,1421.57 441.849,1421.66 455.356,1421.76 468.864,1421.85 482.371,1421.94 495.879,1422.03 509.386,1422.1 522.894,1422.15 536.401,1422.18 
  549.909,1422.18 563.416,1422.14 576.924,1422.05 590.431,1421.9 603.939,1421.66 617.446,1421.33 630.954,1420.87 644.461,1420.26 657.969,1419.47 671.476,1418.45 
  684.984,1417.16 698.491,1415.54 711.999,1413.54 725.506,1411.08 739.014,1408.08 752.521,1404.46 766.029,1400.15 779.536,1395.07 793.044,1389.16 806.552,1382.39 
  820.059,1374.78 833.567,1366.43 847.074,1357.51 860.582,1348.3 874.089,1339.19 887.597,1330.64 901.104,1323.21 914.612,1317.42 928.119,1313.73 941.627,1312.47 
  955.134,1312.38 968.642,1312.11 982.149,1311.66 995.657,1311.03 1009.16,1310.21 1022.67,1309.19 1036.18,1307.98 1049.69,1306.55 1063.19,1304.89 1076.7,1303.01 
  1090.21,1300.87 1103.72,1298.46 1117.22,1295.76 1130.73,1292.76 1144.24,1289.41 1157.75,1285.69 1171.25,1281.57 1184.76,1277 1198.27,1271.93 1211.78,1266.32 
  1225.28,1260.09 1238.79,1253.19 1252.3,1245.51 1265.81,1236.97 1279.31,1227.45 1292.82,1216.81 1306.33,1204.91 1319.84,1191.56 1333.34,1176.54 1346.85,1159.62 
  1360.36,1140.48 1373.87,1118.79 1387.37,1094.14 1400.88,1066.06 1414.39,1034.02 1427.9,997.37 1441.4,955.437 1454.91,907.463 1468.42,852.68 1481.93,790.372 
  1495.43,720.015 1508.94,641.496 1522.45,555.536 1535.96,464.398 1549.46,372.625 1562.97,285.735 1576.48,207.855 1589.99,144.429 1603.49,102.604 1617,87.9763 
  1630.51,116.981 1644.02,197.151 1657.52,312.061 1671.03,447.999 1684.54,590.869 1698.05,725.692 1711.55,845.446 1725.06,948.279 1738.57,1034.76 1752.08,1106.55 
  1765.58,1165.65 1779.09,1214.06 1792.6,1253.6 1806.11,1285.85 1819.61,1312.12 1833.12,1333.51 1846.63,1350.92 1860.14,1365.08 1873.64,1376.59 1887.15,1385.94 
  1900.66,1393.51 1914.17,1399.64 1927.67,1404.59 1941.18,1408.56 1954.69,1411.75 1968.2,1414.28 1981.7,1416.28 1995.21,1417.84 2008.72,1419.05 2022.23,1419.97 
  2035.73,1420.66 2049.24,1421.16 2062.75,1421.5 2076.26,1421.72 2089.76,1421.85 2103.27,1421.9 2116.78,1421.9 2130.29,1421.86 2143.79,1421.78 2157.3,1421.69 
  2170.81,1421.58 2184.32,1421.47 2197.82,1421.36 2211.33,1421.26 2224.84,1421.17 2238.35,1421.09 2251.85,1421.02 2265.36,1420.97 2278.87,1420.95 2292.38,1420.94 
  
  "/>
<polyline clip-path="url(#clip462)" style="stroke:#e26f46; stroke-linecap:butt; stroke-linejoin:round; stroke-width:4; stroke-opacity:1; fill:none" points="
  279.759,1445.47 293.266,1445.47 306.774,1445.47 320.281,1445.47 333.789,1445.47 347.296,1445.47 360.804,1445.47 374.311,1445.47 387.819,1445.47 401.326,1445.48 
  414.834,1445.48 428.341,1445.48 441.849,1445.49 455.356,1445.49 468.864,1445.5 482.371,1445.5 495.879,1445.51 509.386,1445.52 522.894,1445.53 536.401,1445.54 
  549.909,1445.55 563.416,1445.56 576.924,1445.58 590.431,1445.59 603.939,1445.61 617.446,1445.63 630.954,1445.64 644.461,1445.66 657.969,1445.67 671.476,1445.68 
  684.984,1445.69 698.491,1445.68 711.999,1445.67 725.506,1445.63 739.014,1445.57 752.521,1445.47 766.029,1445.32 779.536,1445.11 793.044,1444.83 806.552,1444.46 
  820.059,1444 833.567,1443.42 847.074,1442.75 860.582,1441.98 874.089,1441.17 887.597,1440.36 901.104,1439.62 914.612,1439.01 928.119,1438.62 941.627,1438.48 
  955.134,1438.47 968.642,1438.45 982.149,1438.4 995.657,1438.33 1009.16,1438.24 1022.67,1438.12 1036.18,1437.99 1049.69,1437.83 1063.19,1437.64 1076.7,1437.42 
  1090.21,1437.18 1103.72,1436.89 1117.22,1436.57 1130.73,1436.2 1144.24,1435.79 1157.75,1435.32 1171.25,1434.78 1184.76,1434.17 1198.27,1433.48 1211.78,1432.69 
  1225.28,1431.79 1238.79,1430.75 1252.3,1429.55 1265.81,1428.17 1279.31,1426.56 1292.82,1424.68 1306.33,1422.47 1319.84,1419.85 1333.34,1416.74 1346.85,1413.02 
  1360.36,1408.54 1373.87,1403.09 1387.37,1396.44 1400.88,1388.25 1414.39,1378.11 1427.9,1365.47 1441.4,1349.62 1454.91,1329.7 1468.42,1304.58 1481.93,1272.96 
  1495.43,1233.35 1508.94,1184.26 1522.45,1124.65 1535.96,1054.79 1549.46,977.558 1562.97,898.126 1576.48,821.778 1589.99,756.037 1603.49,710.946 1617,694.851 
  1630.51,726.59 1644.02,810.749 1657.52,922.248 1671.03,1040.27 1684.54,1148.12 1698.05,1234.7 1711.55,1299.26 1725.06,1345.46 1738.57,1377.69 1752.08,1399.85 
  1765.58,1414.95 1779.09,1425.18 1792.6,1432.09 1806.11,1436.74 1819.61,1439.86 1833.12,1441.95 1846.63,1443.33 1860.14,1444.25 1873.64,1444.84 1887.15,1445.22 
  1900.66,1445.46 1914.17,1445.6 1927.67,1445.67 1941.18,1445.71 1954.69,1445.72 1968.2,1445.71 1981.7,1445.69 1995.21,1445.67 2008.72,1445.65 2022.23,1445.63 
  2035.73,1445.61 2049.24,1445.59 2062.75,1445.57 2076.26,1445.55 2089.76,1445.54 2103.27,1445.53 2116.78,1445.51 2130.29,1445.51 2143.79,1445.5 2157.3,1445.49 
  2170.81,1445.48 2184.32,1445.48 2197.82,1445.48 2211.33,1445.47 2224.84,1445.47 2238.35,1445.47 2251.85,1445.47 2265.36,1445.47 2278.87,1445.47 2292.38,1445.47 
  
  "/>
<polyline clip-path="url(#clip462)" style="stroke:#3da44d; stroke-linecap:butt; stroke-linejoin:round; stroke-width:4; stroke-opacity:1; fill:none" points="
  279.759,1433.33 293.266,1433.34 306.774,1433.35 320.281,1433.37 333.789,1433.39 347.296,1433.42 360.804,1433.46 374.311,1433.5 387.819,1433.56 401.326,1433.62 
  414.834,1433.7 428.341,1433.79 441.849,1433.89 455.356,1434.01 468.864,1434.16 482.371,1434.32 495.879,1434.52 509.386,1434.74 522.894,1435 536.401,1435.3 
  549.909,1435.64 563.416,1436.04 576.924,1436.49 590.431,1437.01 603.939,1437.6 617.446,1438.26 630.954,1438.99 644.461,1439.78 657.969,1440.58 671.476,1441.28 
  684.984,1441.65 698.491,1441.35 711.999,1440.25 725.506,1438.47 739.014,1436.16 752.521,1433.37 766.029,1430.15 779.536,1426.5 793.044,1422.45 806.552,1418.01 
  820.059,1413.23 833.567,1408.2 847.074,1403.02 860.582,1397.86 874.089,1392.9 887.597,1388.38 901.104,1384.53 914.612,1381.58 928.119,1379.73 941.627,1379.09 
  955.134,1379.05 968.642,1378.91 982.149,1378.69 995.657,1378.37 1009.16,1377.96 1022.67,1377.46 1036.18,1376.85 1049.69,1376.14 1063.19,1375.32 1076.7,1374.38 
  1090.21,1373.32 1103.72,1372.12 1117.22,1370.79 1130.73,1369.3 1144.24,1367.65 1157.75,1365.82 1171.25,1363.79 1184.76,1361.54 1198.27,1359.06 1211.78,1356.3 
  1225.28,1353.25 1238.79,1349.87 1252.3,1346.12 1265.81,1341.94 1279.31,1337.28 1292.82,1332.08 1306.33,1326.26 1319.84,1319.73 1333.34,1312.37 1346.85,1304.06 
  1360.36,1294.65 1373.87,1283.97 1387.37,1271.81 1400.88,1257.91 1414.39,1242.01 1427.9,1223.78 1441.4,1202.86 1454.91,1178.86 1468.42,1151.39 1481.93,1120.09 
  1495.43,1084.68 1508.94,1045.12 1522.45,1001.8 1535.96,955.878 1549.46,909.67 1562.97,865.976 1576.48,826.879 1589.99,795.093 1603.49,774.161 1617,766.846 
  1630.51,781.349 1644.02,821.433 1657.52,878.889 1671.03,946.864 1684.54,1018.33 1698.05,1085.83 1711.55,1145.9 1725.06,1197.65 1738.57,1241.38 1752.08,1277.93 
  1765.58,1308.29 1779.09,1333.44 1792.6,1354.25 1806.11,1371.48 1819.61,1385.76 1833.12,1397.62 1846.63,1407.49 1860.14,1415.7 1873.64,1422.56 1887.15,1428.29 
  1900.66,1433.09 1914.17,1437.11 1927.67,1440.49 1941.18,1443.33 1954.69,1445.72 1968.2,1443.71 1981.7,1442.01 1995.21,1440.59 2008.72,1439.39 2022.23,1438.37 
  2035.73,1437.52 2049.24,1436.8 2062.75,1436.2 2076.26,1435.69 2089.76,1435.26 2103.27,1434.9 2116.78,1434.6 2130.29,1434.34 2143.79,1434.13 2157.3,1433.96 
  2170.81,1433.81 2184.32,1433.69 2197.82,1433.6 2211.33,1433.52 2224.84,1433.46 2238.35,1433.41 2251.85,1433.37 2265.36,1433.35 2278.87,1433.33 2292.38,1433.33 
  
  "/>
<path clip-path="url(#clip460)" d="
M1885 338.83 L2281.64 338.83 L2281.64 95.2176 L1885 95.2176  Z
  " fill="#ffffff" fill-rule="evenodd" fill-opacity="1"/>
<polyline clip-path="url(#clip460)" style="stroke:#000000; stroke-linecap:butt; stroke-linejoin:round; stroke-width:4; stroke-opacity:1; fill:none" points="
  1885,338.83 2281.64,338.83 2281.64,95.2176 1885,95.2176 1885,338.83 
  "/>
<polyline clip-path="url(#clip460)" style="stroke:#009af9; stroke-linecap:butt; stroke-linejoin:round; stroke-width:4; stroke-opacity:1; fill:none" points="
  1908.7,156.121 2050.93,156.121 
  "/>
<path clip-path="url(#clip460)" d="M2074.63 153.218 L2075.55 142.444 L2104.85 142.444 L2105.76 153.218 L2104.57 153.218 Q2104.38 151.064 2104.19 149.822 Q2104.03 148.581 2103.61 147.41 Q2103.21 146.215 2102.69 145.653 Q2102.2 145.067 2101.24 144.622 Q2100.28 144.154 2099.04 144.037 Q2097.8 143.92 2095.92 143.92 Q2093.72 143.92 2093.18 144.013 Q2092.6 144.154 2092.46 144.575 Q2092.32 144.974 2092.32 145.84 L2092.32 171.113 Q2092.32 172.073 2092.5 172.472 Q2092.72 172.846 2093.82 173.151 Q2094.92 173.432 2097.35 173.432 L2099.27 173.432 L2099.27 174.908 Q2097.31 174.767 2090.16 174.767 Q2083.07 174.767 2081.1 174.908 L2081.1 173.432 L2083.02 173.432 Q2085.45 173.432 2086.56 173.151 Q2087.68 172.846 2087.87 172.472 Q2088.05 172.073 2088.05 171.113 L2088.05 145.84 Q2088.05 145.161 2088.01 144.88 Q2087.96 144.599 2087.75 144.365 Q2087.54 144.107 2087.05 144.013 Q2086.58 143.92 2084.47 143.92 Q2082.6 143.92 2081.33 144.037 Q2080.09 144.154 2079.13 144.622 Q2078.17 145.067 2077.65 145.653 Q2077.16 146.215 2076.74 147.41 Q2076.34 148.581 2076.18 149.822 Q2076.02 151.064 2075.83 153.218 L2074.63 153.218 Z" fill="#000000" fill-rule="evenodd" fill-opacity="1" /><path clip-path="url(#clip460)" d="M2112.81 174.908 L2112.81 173.432 Q2115.36 173.432 2115.95 173.127 Q2116.55 172.8 2116.55 171.254 L2116.55 158.395 Q2116.55 156.615 2115.92 156.17 Q2115.31 155.725 2112.81 155.725 L2112.81 154.226 L2119.48 153.71 L2119.48 158.98 Q2120.16 156.919 2121.59 155.326 Q2123.04 153.71 2125.39 153.71 Q2126.93 153.71 2127.91 154.577 Q2128.92 155.444 2128.92 156.638 Q2128.92 157.692 2128.27 158.231 Q2127.63 158.746 2126.86 158.746 Q2125.99 158.746 2125.39 158.207 Q2124.8 157.645 2124.8 156.685 Q2124.8 156.099 2125.06 155.654 Q2125.34 155.186 2125.55 155.022 Q2125.76 154.858 2125.9 154.811 Q2125.81 154.764 2125.39 154.764 Q2122.74 154.764 2121.22 157.411 Q2119.72 160.034 2119.72 163.782 L2119.72 171.16 Q2119.72 172.542 2120.28 172.987 Q2120.86 173.432 2123.37 173.432 L2124.38 173.432 L2124.38 174.908 Q2122.46 174.767 2118.29 174.767 Q2117.7 174.767 2116.79 174.79 Q2115.88 174.814 2114.68 174.861 Q2113.49 174.908 2112.81 174.908 Z" fill="#000000" fill-rule="evenodd" fill-opacity="1" /><path clip-path="url(#clip460)" d="M2131.36 162.915 Q2131.36 154.811 2134.38 148.276 Q2135.67 145.536 2137.48 143.24 Q2139.28 140.945 2140.47 139.938 Q2141.67 138.931 2142 138.931 Q2142.46 138.931 2142.49 139.399 Q2142.49 139.633 2141.86 140.219 Q2134.13 148.089 2134.15 162.915 Q2134.15 177.789 2141.67 185.354 Q2142.49 186.174 2142.49 186.431 Q2142.49 186.9 2142 186.9 Q2141.67 186.9 2140.52 185.94 Q2139.37 184.979 2137.59 182.777 Q2135.81 180.576 2134.52 177.882 Q2131.36 171.347 2131.36 162.915 Z" fill="#000000" fill-rule="evenodd" fill-opacity="1" /><path clip-path="url(#clip460)" d="M2167.19 155.959 Q2167.19 155.982 2167.05 156.825 L2161.71 178.116 Q2161.42 179.241 2160.63 180.365 Q2159.86 181.513 2158.61 182.496 Q2157.4 183.504 2155.52 184.113 Q2153.67 184.745 2151.54 184.745 Q2148.14 184.745 2146.65 184.019 Q2145.17 183.316 2145.17 181.817 Q2145.17 180.506 2145.99 179.756 Q2146.81 179.03 2147.75 179.03 Q2148.64 179.03 2149.1 179.545 Q2149.57 180.06 2149.57 180.716 Q2149.57 181.442 2149.08 182.169 Q2148.59 182.918 2147.61 183.199 Q2149.17 183.691 2151.45 183.691 Q2156.25 183.691 2158.31 178.608 Q2158.36 178.538 2158.36 178.515 L2159.95 172.167 L2159.88 172.12 Q2159.48 172.589 2158.85 173.127 Q2158.24 173.643 2156.93 174.275 Q2155.62 174.908 2154.33 174.908 Q2151.63 174.908 2149.78 172.846 Q2147.96 170.762 2147.96 167.319 Q2147.96 164.812 2148.96 162.306 Q2149.99 159.777 2151.59 157.926 Q2153.2 156.052 2155.26 154.881 Q2157.35 153.71 2159.36 153.71 Q2160.77 153.71 2161.96 154.553 Q2163.16 155.373 2163.81 156.732 Q2163.93 155.607 2164.56 155.139 Q2165.22 154.671 2165.78 154.671 Q2166.41 154.671 2166.79 155.022 Q2167.19 155.35 2167.19 155.959 M2163.25 158.887 Q2163.25 158.746 2163.16 158.371 Q2163.06 157.973 2162.78 157.341 Q2162.53 156.708 2162.13 156.146 Q2161.73 155.584 2161 155.186 Q2160.3 154.764 2159.41 154.764 Q2157.96 154.764 2156.51 155.982 Q2155.05 157.177 2154.05 159.027 Q2153.11 160.807 2152.22 164.25 Q2151.35 167.693 2151.35 169.45 Q2151.35 171.183 2152.1 172.518 Q2152.85 173.854 2154.47 173.854 Q2156.34 173.854 2158.36 172.12 Q2160.44 170.317 2160.79 168.771 L2163.11 159.613 Q2163.25 159.051 2163.25 158.887 Z" fill="#000000" fill-rule="evenodd" fill-opacity="1" /><path clip-path="url(#clip460)" d="M2171.84 186.431 Q2171.84 186.197 2172.45 185.612 Q2180.18 177.742 2180.18 162.915 Q2180.18 148.042 2172.75 140.523 Q2171.84 139.657 2171.84 139.399 Q2171.84 138.931 2172.31 138.931 Q2172.63 138.931 2173.78 139.891 Q2174.95 140.851 2176.71 143.053 Q2178.49 145.255 2179.8 147.948 Q2182.96 154.483 2182.96 162.915 Q2182.96 171.019 2179.94 177.554 Q2178.65 180.295 2176.85 182.59 Q2175.05 184.886 2173.85 185.893 Q2172.66 186.9 2172.31 186.9 Q2171.84 186.9 2171.84 186.431 Z" fill="#000000" fill-rule="evenodd" fill-opacity="1" /><polyline clip-path="url(#clip460)" style="stroke:#e26f46; stroke-linecap:butt; stroke-linejoin:round; stroke-width:4; stroke-opacity:1; fill:none" points="
  1908.7,217.024 2050.93,217.024 
  "/>
<path clip-path="url(#clip460)" d="M2074.63 225.505 Q2074.63 220.937 2077.82 217.775 Q2081 214.613 2085.31 214.613 Q2088.97 214.613 2091.36 217.588 L2091.36 207.212 Q2091.36 205.432 2090.72 204.987 Q2090.12 204.542 2087.63 204.542 L2087.63 203.043 L2094.54 202.527 L2094.54 231.641 Q2094.54 233.421 2095.15 233.89 Q2095.78 234.335 2098.27 234.335 L2098.27 235.811 L2091.22 236.349 L2091.22 233.164 Q2088.73 236.326 2084.8 236.349 Q2080.68 236.349 2077.65 233.187 Q2074.63 230.025 2074.63 225.505 M2078.62 225.552 Q2078.62 230.002 2080 232.203 Q2081.92 235.272 2085.03 235.272 Q2088.59 235.272 2090.7 231.922 Q2091.24 231.103 2091.22 230.142 L2091.22 220.305 Q2091.22 219.345 2090.7 218.548 Q2088.73 215.667 2085.52 215.667 Q2082.18 215.667 2080.09 218.736 Q2078.62 221.031 2078.62 225.552 Z" fill="#000000" fill-rule="evenodd" fill-opacity="1" /><path clip-path="url(#clip460)" d="M2101.17 225.247 Q2101.17 220.726 2104.08 217.518 Q2106.98 214.309 2111.15 214.309 Q2115.37 214.309 2117.55 217.049 Q2119.75 219.79 2119.75 223.725 Q2119.75 224.451 2119.56 224.591 Q2119.37 224.732 2118.55 224.732 L2105.15 224.732 Q2105.15 229.627 2106.61 231.922 Q2108.62 235.131 2112.02 235.131 Q2112.49 235.131 2113.05 235.038 Q2113.61 234.944 2114.76 234.546 Q2115.91 234.124 2116.91 233.023 Q2117.92 231.922 2118.51 230.189 Q2118.65 229.51 2119.11 229.533 Q2119.75 229.533 2119.75 230.095 Q2119.75 230.517 2119.28 231.477 Q2118.83 232.414 2117.97 233.539 Q2117.1 234.663 2115.41 235.506 Q2113.75 236.349 2111.74 236.349 Q2107.52 236.349 2104.34 233.164 Q2101.17 229.955 2101.17 225.247 M2105.2 223.725 L2116.59 223.725 Q2116.59 222.717 2116.4 221.593 Q2116.23 220.469 2115.72 218.923 Q2115.23 217.354 2114.06 216.37 Q2112.88 215.386 2111.15 215.386 Q2110.38 215.386 2109.53 215.714 Q2108.72 216.042 2107.71 216.838 Q2106.7 217.635 2106 219.438 Q2105.3 221.242 2105.2 223.725 Z" fill="#000000" fill-rule="evenodd" fill-opacity="1" /><path clip-path="url(#clip460)" d="M2120.17 216.628 L2120.17 215.574 Q2122.37 215.48 2123.82 213.934 Q2125.3 212.365 2125.79 210.444 Q2126.31 208.523 2126.35 206.298 L2127.55 206.298 L2127.55 215.129 L2134.41 215.129 L2134.41 216.628 L2127.55 216.628 L2127.55 229.955 Q2127.55 235.131 2130.78 235.131 Q2132.16 235.131 2133.08 233.726 Q2133.99 232.297 2133.99 229.768 L2133.99 227.121 L2135.18 227.121 L2135.18 229.861 Q2135.18 232.461 2133.99 234.405 Q2132.8 236.349 2130.43 236.349 Q2129.56 236.349 2128.7 236.115 Q2127.85 235.904 2126.73 235.342 Q2125.63 234.757 2124.93 233.351 Q2124.25 231.922 2124.25 229.861 L2124.25 216.628 L2120.17 216.628 Z" fill="#000000" fill-rule="evenodd" fill-opacity="1" /><path clip-path="url(#clip460)" d="M2138.59 223.818 Q2138.59 215.714 2141.61 209.179 Q2142.9 206.439 2144.7 204.143 Q2146.5 201.848 2147.7 200.841 Q2148.89 199.834 2149.22 199.834 Q2149.69 199.834 2149.71 200.302 Q2149.71 200.536 2149.08 201.122 Q2141.35 208.992 2141.37 223.818 Q2141.37 238.692 2148.89 246.257 Q2149.71 247.077 2149.71 247.334 Q2149.71 247.803 2149.22 247.803 Q2148.89 247.803 2147.74 246.843 Q2146.6 245.882 2144.82 243.68 Q2143.04 241.479 2141.75 238.785 Q2138.59 232.25 2138.59 223.818 Z" fill="#000000" fill-rule="evenodd" fill-opacity="1" /><path clip-path="url(#clip460)" d="M2174.41 216.862 Q2174.41 216.885 2174.27 217.728 L2168.93 239.019 Q2168.65 240.144 2167.85 241.268 Q2167.08 242.416 2165.84 243.399 Q2164.62 244.407 2162.75 245.016 Q2160.9 245.648 2158.76 245.648 Q2155.37 245.648 2153.87 244.922 Q2152.39 244.219 2152.39 242.72 Q2152.39 241.409 2153.21 240.659 Q2154.03 239.933 2154.97 239.933 Q2155.86 239.933 2156.33 240.448 Q2156.8 240.963 2156.8 241.619 Q2156.8 242.345 2156.31 243.072 Q2155.81 243.821 2154.83 244.102 Q2156.4 244.594 2158.67 244.594 Q2163.47 244.594 2165.53 239.511 Q2165.58 239.441 2165.58 239.418 L2167.17 233.07 L2167.1 233.023 Q2166.71 233.492 2166.07 234.03 Q2165.46 234.546 2164.15 235.178 Q2162.84 235.811 2161.55 235.811 Q2158.86 235.811 2157.01 233.749 Q2155.18 231.665 2155.18 228.222 Q2155.18 225.715 2156.19 223.209 Q2157.22 220.68 2158.81 218.829 Q2160.43 216.955 2162.49 215.784 Q2164.57 214.613 2166.59 214.613 Q2167.99 214.613 2169.19 215.456 Q2170.38 216.276 2171.04 217.635 Q2171.16 216.51 2171.79 216.042 Q2172.44 215.574 2173.01 215.574 Q2173.64 215.574 2174.01 215.925 Q2174.41 216.253 2174.41 216.862 M2170.48 219.79 Q2170.48 219.649 2170.38 219.274 Q2170.29 218.876 2170.01 218.244 Q2169.75 217.611 2169.35 217.049 Q2168.95 216.487 2168.23 216.089 Q2167.52 215.667 2166.63 215.667 Q2165.18 215.667 2163.73 216.885 Q2162.28 218.08 2161.27 219.93 Q2160.33 221.71 2159.44 225.153 Q2158.58 228.596 2158.58 230.353 Q2158.58 232.086 2159.33 233.421 Q2160.08 234.757 2161.69 234.757 Q2163.57 234.757 2165.58 233.023 Q2167.67 231.22 2168.02 229.674 L2170.34 220.516 Q2170.48 219.954 2170.48 219.79 Z" fill="#000000" fill-rule="evenodd" fill-opacity="1" /><path clip-path="url(#clip460)" d="M2179.06 247.334 Q2179.06 247.1 2179.67 246.515 Q2187.4 238.645 2187.4 223.818 Q2187.4 208.945 2179.98 201.426 Q2179.06 200.56 2179.06 200.302 Q2179.06 199.834 2179.53 199.834 Q2179.86 199.834 2181.01 200.794 Q2182.18 201.754 2183.93 203.956 Q2185.71 206.158 2187.03 208.851 Q2190.19 215.386 2190.19 223.818 Q2190.19 231.922 2187.17 238.457 Q2185.88 241.198 2184.08 243.493 Q2182.27 245.789 2181.08 246.796 Q2179.88 247.803 2179.53 247.803 Q2179.06 247.803 2179.06 247.334 Z" fill="#000000" fill-rule="evenodd" fill-opacity="1" /><polyline clip-path="url(#clip460)" style="stroke:#3da44d; stroke-linecap:butt; stroke-linejoin:round; stroke-width:4; stroke-opacity:1; fill:none" points="
  1908.7,277.927 2050.93,277.927 
  "/>
<path clip-path="url(#clip460)" d="M2074.63 297.853 L2083 284.95 L2086.4 302.072 L2087.04 305.191 Q2087.18 304.376 2087.61 302.993 Q2088.07 301.575 2088.14 301.221 L2099.38 258.081 Q2099.45 257.797 2099.55 257.336 Q2099.7 256.84 2099.77 256.663 Q2099.84 256.486 2099.94 256.131 Q2100.05 255.777 2100.12 255.67 Q2100.19 255.529 2100.3 255.28 Q2100.4 255.032 2100.55 254.961 Q2100.69 254.891 2100.86 254.749 Q2101.04 254.607 2101.25 254.571 Q2101.5 254.536 2101.75 254.501 Q2102 254.465 2102.35 254.465 L2108.7 254.465 Q2110.93 254.465 2110.93 255.918 Q2110.93 257.372 2108.77 257.372 L2102.57 257.372 L2087.93 313.344 Q2087.71 314.159 2087.54 314.478 Q2087.39 314.797 2086.9 315.081 Q2086.4 315.364 2085.52 315.364 L2084.81 315.364 L2080.16 292.288 L2075.8 299.023 L2074.63 297.853 Z" fill="#000000" fill-rule="evenodd" fill-opacity="1" /><path clip-path="url(#clip460)" d="
M2108.55 257.402 L2234.24 257.402 L2234.24 254.387 L2108.55 254.387  Z
  " fill="#000000" fill-rule="evenodd" fill-opacity="1"/>
<path clip-path="url(#clip460)" d="M2113.67 292.721 Q2113.67 288.154 2116.86 284.992 Q2120.04 281.83 2124.35 281.83 Q2128 281.83 2130.39 284.804 L2130.39 274.428 Q2130.39 272.648 2129.76 272.203 Q2129.15 271.758 2126.67 271.758 L2126.67 270.259 L2133.58 269.744 L2133.58 298.858 Q2133.58 300.638 2134.19 301.106 Q2134.82 301.551 2137.3 301.551 L2137.3 303.027 L2130.25 303.566 L2130.25 300.38 Q2127.77 303.542 2123.84 303.566 Q2119.71 303.566 2116.69 300.404 Q2113.67 297.242 2113.67 292.721 M2117.65 292.768 Q2117.65 297.218 2119.03 299.42 Q2120.95 302.488 2124.07 302.488 Q2127.63 302.488 2129.74 299.139 Q2130.28 298.319 2130.25 297.359 L2130.25 287.521 Q2130.25 286.561 2129.74 285.765 Q2127.77 282.884 2124.56 282.884 Q2121.21 282.884 2119.13 285.952 Q2117.65 288.247 2117.65 292.768 Z" fill="#000000" fill-rule="evenodd" fill-opacity="1" /><path clip-path="url(#clip460)" d="M2140.21 292.464 Q2140.21 287.943 2143.11 284.734 Q2146.02 281.525 2150.19 281.525 Q2154.4 281.525 2156.58 284.266 Q2158.78 287.006 2158.78 290.941 Q2158.78 291.667 2158.6 291.808 Q2158.41 291.948 2157.59 291.948 L2144.19 291.948 Q2144.19 296.844 2145.64 299.139 Q2147.66 302.348 2151.05 302.348 Q2151.52 302.348 2152.09 302.254 Q2152.65 302.16 2153.79 301.762 Q2154.94 301.341 2155.95 300.24 Q2156.96 299.139 2157.54 297.406 Q2157.68 296.726 2158.15 296.75 Q2158.78 296.75 2158.78 297.312 Q2158.78 297.734 2158.32 298.694 Q2157.87 299.631 2157 300.755 Q2156.14 301.879 2154.45 302.723 Q2152.79 303.566 2150.77 303.566 Q2146.56 303.566 2143.37 300.38 Q2140.21 297.171 2140.21 292.464 M2144.24 290.941 L2155.62 290.941 Q2155.62 289.934 2155.43 288.81 Q2155.27 287.685 2154.76 286.139 Q2154.26 284.57 2153.09 283.586 Q2151.92 282.603 2150.19 282.603 Q2149.41 282.603 2148.57 282.931 Q2147.75 283.259 2146.74 284.055 Q2145.74 284.851 2145.03 286.655 Q2144.33 288.458 2144.24 290.941 Z" fill="#000000" fill-rule="evenodd" fill-opacity="1" /><path clip-path="url(#clip460)" d="M2159.21 283.844 L2159.21 282.79 Q2161.41 282.696 2162.86 281.15 Q2164.34 279.581 2164.83 277.661 Q2165.34 275.74 2165.39 273.515 L2166.59 273.515 L2166.59 282.345 L2173.45 282.345 L2173.45 283.844 L2166.59 283.844 L2166.59 297.171 Q2166.59 302.348 2169.82 302.348 Q2171.2 302.348 2172.11 300.942 Q2173.03 299.514 2173.03 296.984 L2173.03 294.337 L2174.22 294.337 L2174.22 297.078 Q2174.22 299.678 2173.03 301.622 Q2171.83 303.566 2169.47 303.566 Q2168.6 303.566 2167.73 303.332 Q2166.89 303.121 2165.77 302.559 Q2164.67 301.973 2163.96 300.568 Q2163.28 299.139 2163.28 297.078 L2163.28 283.844 L2159.21 283.844 Z" fill="#000000" fill-rule="evenodd" fill-opacity="1" /><path clip-path="url(#clip460)" d="M2177.62 291.035 Q2177.62 282.931 2180.64 276.396 Q2181.93 273.655 2183.74 271.36 Q2185.54 269.065 2186.73 268.057 Q2187.93 267.05 2188.26 267.05 Q2188.73 267.05 2188.75 267.519 Q2188.75 267.753 2188.12 268.338 Q2180.39 276.208 2180.41 291.035 Q2180.41 305.908 2187.93 313.473 Q2188.75 314.293 2188.75 314.551 Q2188.75 315.019 2188.26 315.019 Q2187.93 315.019 2186.78 314.059 Q2185.63 313.099 2183.85 310.897 Q2182.07 308.695 2180.79 306.002 Q2177.62 299.467 2177.62 291.035 Z" fill="#000000" fill-rule="evenodd" fill-opacity="1" /><path clip-path="url(#clip460)" d="M2213.45 284.078 Q2213.45 284.102 2213.31 284.945 L2207.97 306.236 Q2207.69 307.36 2206.89 308.484 Q2206.12 309.632 2204.88 310.616 Q2203.66 311.623 2201.78 312.232 Q2199.93 312.864 2197.8 312.864 Q2194.41 312.864 2192.91 312.138 Q2191.43 311.436 2191.43 309.937 Q2191.43 308.625 2192.25 307.875 Q2193.07 307.149 2194.01 307.149 Q2194.9 307.149 2195.37 307.665 Q2195.83 308.18 2195.83 308.836 Q2195.83 309.562 2195.34 310.288 Q2194.85 311.038 2193.87 311.319 Q2195.44 311.81 2197.71 311.81 Q2202.51 311.81 2204.57 306.728 Q2204.62 306.658 2204.62 306.634 L2206.21 300.287 L2206.14 300.24 Q2205.74 300.708 2205.11 301.247 Q2204.5 301.762 2203.19 302.395 Q2201.88 303.027 2200.59 303.027 Q2197.9 303.027 2196.04 300.966 Q2194.22 298.881 2194.22 295.438 Q2194.22 292.932 2195.23 290.426 Q2196.26 287.896 2197.85 286.046 Q2199.46 284.172 2201.53 283.001 Q2203.61 281.83 2205.62 281.83 Q2207.03 281.83 2208.22 282.673 Q2209.42 283.493 2210.07 284.851 Q2210.19 283.727 2210.82 283.259 Q2211.48 282.79 2212.04 282.79 Q2212.67 282.79 2213.05 283.141 Q2213.45 283.469 2213.45 284.078 M2209.51 287.006 Q2209.51 286.866 2209.42 286.491 Q2209.33 286.093 2209.04 285.46 Q2208.79 284.828 2208.39 284.266 Q2207.99 283.704 2207.26 283.305 Q2206.56 282.884 2205.67 282.884 Q2204.22 282.884 2202.77 284.102 Q2201.31 285.296 2200.31 287.147 Q2199.37 288.927 2198.48 292.37 Q2197.61 295.813 2197.61 297.57 Q2197.61 299.303 2198.36 300.638 Q2199.11 301.973 2200.73 301.973 Q2202.6 301.973 2204.62 300.24 Q2206.7 298.436 2207.05 296.89 L2209.37 287.732 Q2209.51 287.17 2209.51 287.006 Z" fill="#000000" fill-rule="evenodd" fill-opacity="1" /><path clip-path="url(#clip460)" d="M2218.1 314.551 Q2218.1 314.317 2218.71 313.731 Q2226.44 305.861 2226.44 291.035 Q2226.44 276.162 2219.01 268.643 Q2218.1 267.776 2218.1 267.519 Q2218.1 267.05 2218.57 267.05 Q2218.9 267.05 2220.04 268.01 Q2221.21 268.971 2222.97 271.173 Q2224.75 273.374 2226.06 276.068 Q2229.23 282.603 2229.23 291.035 Q2229.23 299.139 2226.2 305.674 Q2224.92 308.414 2223.11 310.71 Q2221.31 313.005 2220.11 314.012 Q2218.92 315.019 2218.57 315.019 Q2218.1 315.019 2218.1 314.551 Z" fill="#000000" fill-rule="evenodd" fill-opacity="1" /></svg>
